<?xml version="1.0" encoding="UTF-8"?>
<svg id="_0204_bitcoin" xmlns="http://www.w3.org/2000/svg" xmlns:xlink="http://www.w3.org/1999/xlink" version="1.1" viewBox="0 0 600 225">
  <!-- Generator: Adobe Illustrator 29.8.2, SVG Export Plug-In . SVG Version: 2.1.1 Build 3)  -->
  <defs>
    <style>
      .st0 {
        fill: url(#linear-gradient2);
      }

      .st1 {
        fill: url(#linear-gradient1);
      }

      .st2 {
        fill: url(#linear-gradient9);
      }

      .st3 {
        fill: url(#linear-gradient3);
      }

      .st4 {
        fill: url(#linear-gradient6);
      }

      .st5 {
        fill: url(#linear-gradient8);
      }

      .st6 {
        fill: url(#linear-gradient7);
      }

      .st7 {
        fill: url(#linear-gradient5);
      }

      .st8 {
        fill: url(#linear-gradient4);
      }

      .st9 {
        fill: url(#linear-gradient31);
      }

      .st10 {
        fill: url(#linear-gradient30);
      }

      .st11 {
        fill: url(#linear-gradient32);
      }

      .st12 {
        fill: url(#linear-gradient34);
      }

      .st13 {
        fill: url(#linear-gradient35);
      }

      .st14 {
        fill: url(#linear-gradient33);
      }

      .st15 {
        fill: url(#linear-gradient36);
      }

      .st16 {
        fill: url(#linear-gradient28);
      }

      .st17 {
        fill: url(#linear-gradient29);
      }

      .st18 {
        fill: url(#linear-gradient18);
      }

      .st19 {
        fill: url(#linear-gradient13);
      }

      .st20 {
        fill: url(#linear-gradient12);
      }

      .st21 {
        fill: url(#linear-gradient15);
      }

      .st22 {
        fill: url(#linear-gradient16);
      }

      .st23 {
        fill: url(#linear-gradient11);
      }

      .st24 {
        fill: url(#linear-gradient10);
      }

      .st25 {
        fill: url(#linear-gradient17);
      }

      .st26 {
        fill: url(#linear-gradient14);
      }

      .st27 {
        fill: url(#linear-gradient19);
      }

      .st28 {
        fill: url(#linear-gradient23);
      }

      .st29 {
        fill: url(#linear-gradient22);
      }

      .st30 {
        fill: url(#linear-gradient24);
      }

      .st31 {
        fill: url(#linear-gradient25);
      }

      .st32 {
        fill: url(#linear-gradient21);
      }

      .st33 {
        fill: url(#linear-gradient20);
      }

      .st34 {
        fill: url(#linear-gradient27);
      }

      .st35 {
        fill: url(#linear-gradient26);
      }

      .st36 {
        fill: #231f20;
      }

      .st37 {
        fill: url(#linear-gradient);
      }

      .st38 {
        fill: #f4a982;
      }

      .st39 {
        fill: #ff5c00;
      }
    </style>
    <linearGradient id="linear-gradient" x1="737.4" y1="2669.9" x2="733.4" y2="2755.4" gradientTransform="translate(-475.9 2908.5) scale(1 -1)" gradientUnits="userSpaceOnUse">
      <stop offset="0" stop-color="#231f20" stop-opacity="0"/>
      <stop offset="1" stop-color="#231f20"/>
    </linearGradient>
    <linearGradient id="linear-gradient1" x1="737.4" y1="2688.4" x2="733.4" y2="2773.9" gradientTransform="translate(-475.9 2908.5) scale(1 -1)" gradientUnits="userSpaceOnUse">
      <stop offset="0" stop-color="#231f20" stop-opacity="0"/>
      <stop offset="1" stop-color="#231f20"/>
    </linearGradient>
    <linearGradient id="linear-gradient2" x1="737.4" y1="2708.7" x2="733.4" y2="2794.2" gradientTransform="translate(-475.9 2908.5) scale(1 -1)" gradientUnits="userSpaceOnUse">
      <stop offset="0" stop-color="#231f20" stop-opacity="0"/>
      <stop offset="1" stop-color="#231f20"/>
    </linearGradient>
    <linearGradient id="linear-gradient3" x1="737.4" y1="2728.4" x2="733.4" y2="2814" gradientTransform="translate(-475.9 2908.5) scale(1 -1)" gradientUnits="userSpaceOnUse">
      <stop offset="0" stop-color="#231f20" stop-opacity="0"/>
      <stop offset="1" stop-color="#231f20"/>
    </linearGradient>
    <linearGradient id="linear-gradient4" x1="737.4" y1="2746.9" x2="733.4" y2="2832.5" gradientTransform="translate(-475.9 2908.5) scale(1 -1)" gradientUnits="userSpaceOnUse">
      <stop offset="0" stop-color="#231f20" stop-opacity="0"/>
      <stop offset="1" stop-color="#231f20"/>
    </linearGradient>
    <linearGradient id="linear-gradient5" x1="737.4" y1="2767.3" x2="733.4" y2="2852.8" gradientTransform="translate(-475.9 2908.5) scale(1 -1)" gradientUnits="userSpaceOnUse">
      <stop offset="0" stop-color="#231f20" stop-opacity="0"/>
      <stop offset="1" stop-color="#231f20"/>
    </linearGradient>
    <linearGradient id="linear-gradient6" x1="737.4" y1="2785.8" x2="733.4" y2="2871.3" gradientTransform="translate(-475.9 2908.5) scale(1 -1)" gradientUnits="userSpaceOnUse">
      <stop offset="0" stop-color="#231f20" stop-opacity="0"/>
      <stop offset="1" stop-color="#231f20"/>
    </linearGradient>
    <linearGradient id="linear-gradient7" x1="721.9" y1="2896.7" x2="762.9" y2="2670.2" gradientTransform="translate(-475.9 2908.5) scale(1 -1)" gradientUnits="userSpaceOnUse">
      <stop offset="0" stop-color="#fff" stop-opacity="0"/>
      <stop offset=".9" stop-color="#fff"/>
    </linearGradient>
    <linearGradient id="linear-gradient8" x1="747" y1="2855.4" x2="726.7" y2="2748.7" gradientTransform="translate(-475.9 2908.5) scale(1 -1)" gradientUnits="userSpaceOnUse">
      <stop offset="0" stop-color="#fff" stop-opacity="0"/>
      <stop offset=".9" stop-color="#fff"/>
    </linearGradient>
    <linearGradient id="linear-gradient9" x1="677.5" y1="2631.5" x2="673.6" y2="2717.1" gradientTransform="translate(-475.9 2908.5) scale(1 -1)" gradientUnits="userSpaceOnUse">
      <stop offset="0" stop-color="#231f20" stop-opacity="0"/>
      <stop offset="1" stop-color="#231f20"/>
    </linearGradient>
    <linearGradient id="linear-gradient10" x1="677.5" y1="2650" x2="673.6" y2="2735.6" gradientTransform="translate(-475.9 2908.5) scale(1 -1)" gradientUnits="userSpaceOnUse">
      <stop offset="0" stop-color="#231f20" stop-opacity="0"/>
      <stop offset="1" stop-color="#231f20"/>
    </linearGradient>
    <linearGradient id="linear-gradient11" x1="677.5" y1="2670.4" x2="673.6" y2="2755.9" gradientTransform="translate(-475.9 2908.5) scale(1 -1)" gradientUnits="userSpaceOnUse">
      <stop offset="0" stop-color="#231f20" stop-opacity="0"/>
      <stop offset="1" stop-color="#231f20"/>
    </linearGradient>
    <linearGradient id="linear-gradient12" x1="677.5" y1="2688.9" x2="673.6" y2="2774.4" gradientTransform="translate(-475.9 2908.5) scale(1 -1)" gradientUnits="userSpaceOnUse">
      <stop offset="0" stop-color="#231f20" stop-opacity="0"/>
      <stop offset="1" stop-color="#231f20"/>
    </linearGradient>
    <linearGradient id="linear-gradient13" x1="662.1" y1="2799.8" x2="703.2" y2="2573.3" gradientTransform="translate(-475.9 2908.5) scale(1 -1)" gradientUnits="userSpaceOnUse">
      <stop offset="0" stop-color="#fff" stop-opacity="0"/>
      <stop offset=".9" stop-color="#fff"/>
    </linearGradient>
    <linearGradient id="linear-gradient14" x1="687.2" y1="2758.5" x2="666.9" y2="2651.8" gradientTransform="translate(-475.9 2908.5) scale(1 -1)" gradientUnits="userSpaceOnUse">
      <stop offset="0" stop-color="#fff" stop-opacity="0"/>
      <stop offset=".9" stop-color="#fff"/>
    </linearGradient>
    <linearGradient id="linear-gradient15" x1="854.8" y1="2632.9" x2="850.9" y2="2718.5" gradientTransform="translate(-475.9 2908.5) scale(1 -1)" gradientUnits="userSpaceOnUse">
      <stop offset="0" stop-color="#231f20" stop-opacity="0"/>
      <stop offset="1" stop-color="#231f20"/>
    </linearGradient>
    <linearGradient id="linear-gradient16" x1="854.8" y1="2651.4" x2="850.9" y2="2737" gradientTransform="translate(-475.9 2908.5) scale(1 -1)" gradientUnits="userSpaceOnUse">
      <stop offset="0" stop-color="#231f20" stop-opacity="0"/>
      <stop offset="1" stop-color="#231f20"/>
    </linearGradient>
    <linearGradient id="linear-gradient17" x1="854.8" y1="2671.8" x2="850.9" y2="2757.3" gradientTransform="translate(-475.9 2908.5) scale(1 -1)" gradientUnits="userSpaceOnUse">
      <stop offset="0" stop-color="#231f20" stop-opacity="0"/>
      <stop offset="1" stop-color="#231f20"/>
    </linearGradient>
    <linearGradient id="linear-gradient18" x1="854.8" y1="2691.5" x2="850.9" y2="2777.1" gradientTransform="translate(-475.9 2908.5) scale(1 -1)" gradientUnits="userSpaceOnUse">
      <stop offset="0" stop-color="#231f20" stop-opacity="0"/>
      <stop offset="1" stop-color="#231f20"/>
    </linearGradient>
    <linearGradient id="linear-gradient19" x1="854.8" y1="2710" x2="850.9" y2="2795.5" gradientTransform="translate(-475.9 2908.5) scale(1 -1)" gradientUnits="userSpaceOnUse">
      <stop offset="0" stop-color="#231f20" stop-opacity="0"/>
      <stop offset="1" stop-color="#231f20"/>
    </linearGradient>
    <linearGradient id="linear-gradient20" x1="854.8" y1="2730.4" x2="850.9" y2="2815.9" gradientTransform="translate(-475.9 2908.5) scale(1 -1)" gradientUnits="userSpaceOnUse">
      <stop offset="0" stop-color="#231f20" stop-opacity="0"/>
      <stop offset="1" stop-color="#231f20"/>
    </linearGradient>
    <linearGradient id="linear-gradient21" x1="854.8" y1="2748.9" x2="850.9" y2="2834.4" gradientTransform="translate(-475.9 2908.5) scale(1 -1)" gradientUnits="userSpaceOnUse">
      <stop offset="0" stop-color="#231f20" stop-opacity="0"/>
      <stop offset="1" stop-color="#231f20"/>
    </linearGradient>
    <linearGradient id="linear-gradient22" x1="839.4" y1="2859.8" x2="880.5" y2="2633.3" gradientTransform="translate(-475.9 2908.5) scale(1 -1)" gradientUnits="userSpaceOnUse">
      <stop offset="0" stop-color="#fff" stop-opacity="0"/>
      <stop offset=".9" stop-color="#fff"/>
    </linearGradient>
    <linearGradient id="linear-gradient23" x1="864.4" y1="2818.5" x2="844.1" y2="2711.8" gradientTransform="translate(-475.9 2908.5) scale(1 -1)" gradientUnits="userSpaceOnUse">
      <stop offset="0" stop-color="#fff" stop-opacity="0"/>
      <stop offset=".9" stop-color="#fff"/>
    </linearGradient>
    <linearGradient id="linear-gradient24" x1="-4088.4" y1="2375" x2="-4144.1" y2="2346.3" gradientTransform="translate(-3350 3080.3) rotate(170.8)" gradientUnits="userSpaceOnUse">
      <stop offset="0" stop-color="#231f20" stop-opacity="0"/>
      <stop offset="1" stop-color="#231f20"/>
    </linearGradient>
    <linearGradient id="linear-gradient25" x1="-3940.3" y1="2757" x2="-3907.4" y2="2770.7" gradientTransform="translate(-3613.2 2908.5) rotate(-180)" gradientUnits="userSpaceOnUse">
      <stop offset="0" stop-color="#231f20" stop-opacity="0"/>
      <stop offset="1" stop-color="#231f20"/>
    </linearGradient>
    <linearGradient id="linear-gradient26" x1="-3969.8" y1="2756.3" x2="-3905.3" y2="2787.9" gradientTransform="translate(-3613.2 2908.5) rotate(-180)" gradientUnits="userSpaceOnUse">
      <stop offset="0" stop-color="#231f20" stop-opacity="0"/>
      <stop offset="1" stop-color="#231f20"/>
    </linearGradient>
    <linearGradient id="linear-gradient27" x1="-3924.4" y1="2760.1" x2="-3973.5" y2="2787.2" gradientTransform="translate(-3613.2 2908.5) rotate(-180)" gradientUnits="userSpaceOnUse">
      <stop offset="0" stop-color="#231f20" stop-opacity="0"/>
      <stop offset="1" stop-color="#231f20"/>
    </linearGradient>
    <linearGradient id="linear-gradient28" x1="-3960.8" y1="2783.6" x2="-4001.1" y2="2787.8" gradientTransform="translate(-3613.2 2908.5) rotate(-180)" gradientUnits="userSpaceOnUse">
      <stop offset="0" stop-color="#231f20" stop-opacity="0"/>
      <stop offset="1" stop-color="#231f20"/>
    </linearGradient>
    <linearGradient id="linear-gradient29" x1="-3958.3" y1="2823.1" x2="-4015.2" y2="2804.7" gradientTransform="translate(-3613.2 2908.5) rotate(-180)" gradientUnits="userSpaceOnUse">
      <stop offset="0" stop-color="#231f20" stop-opacity="0"/>
      <stop offset="1" stop-color="#231f20"/>
    </linearGradient>
    <linearGradient id="linear-gradient30" x1="-3963.6" y1="2800.7" x2="-3996.7" y2="2808.4" gradientTransform="translate(-3613.2 2908.5) rotate(-180)" gradientUnits="userSpaceOnUse">
      <stop offset="0" stop-color="#231f20" stop-opacity="0"/>
      <stop offset="1" stop-color="#231f20"/>
    </linearGradient>
    <linearGradient id="linear-gradient31" x1="-3933.4" y1="2807.7" x2="-3964.1" y2="2793.9" gradientTransform="translate(-3613.2 2908.5) rotate(-180)" gradientUnits="userSpaceOnUse">
      <stop offset="0" stop-color="#231f20" stop-opacity="0"/>
      <stop offset="1" stop-color="#231f20"/>
    </linearGradient>
    <linearGradient id="linear-gradient32" x1="-3948.4" y1="2799.2" x2="-3948.9" y2="2791" gradientTransform="translate(-3613.2 2908.5) rotate(-180)" gradientUnits="userSpaceOnUse">
      <stop offset="0" stop-color="#231f20" stop-opacity="0"/>
      <stop offset="1" stop-color="#231f20"/>
    </linearGradient>
    <linearGradient id="linear-gradient33" x1="-3952.5" y1="2849.6" x2="-3912.6" y2="2898.2" gradientTransform="translate(-3613.2 2908.5) rotate(-180)" gradientUnits="userSpaceOnUse">
      <stop offset="0" stop-color="#231f20" stop-opacity="0"/>
      <stop offset="1" stop-color="#231f20"/>
    </linearGradient>
    <linearGradient id="linear-gradient34" x1="-3953.2" y1="2866.5" x2="-3945.6" y2="2867.6" gradientTransform="translate(-3613.2 2908.5) rotate(-180)" gradientUnits="userSpaceOnUse">
      <stop offset="0" stop-color="#231f20" stop-opacity="0"/>
      <stop offset="1" stop-color="#231f20"/>
    </linearGradient>
    <linearGradient id="linear-gradient35" x1="777.6" y1="2786.1" x2="812.5" y2="2825.9" gradientTransform="translate(-475.9 2908.5) scale(1 -1)" gradientUnits="userSpaceOnUse">
      <stop offset="0" stop-color="#fff" stop-opacity="0"/>
      <stop offset=".9" stop-color="#fff"/>
    </linearGradient>
    <linearGradient id="linear-gradient36" x1="799.2" y1="2793.2" x2="818.7" y2="2815.5" gradientTransform="translate(-475.9 2908.5) scale(1 -1)" gradientUnits="userSpaceOnUse">
      <stop offset="0" stop-color="#fff" stop-opacity="0"/>
      <stop offset=".9" stop-color="#fff"/>
    </linearGradient>
  </defs>
  <g id="bitcoin_3_bitcoin-462">
    <path class="st39" d="M343.2,217.2c0,11.5-37.1,20.8-82.9,20.8s-82.9-9.3-82.9-20.8-.2-7,0-13v-2.1c1.5-6,13.1-11.3,30.7-14.9,15,3.5,33.6,9.3,52.1,9.3s36.1-5.6,50.8-9.5c18.2,3.5,30.3,8.9,31.9,15v2.4h0c.2,6.1,0,11.5,0,12.8h.3Z"/>
    <path class="st37" d="M343.2,217.2c0,11.5-37.1,20.8-82.9,20.8s-82.9-9.3-82.9-20.8-.2-7,0-13v-2.1c1.5-6,13.1-11.3,30.7-14.9,15,3.5,33.6,9.3,52.1,9.3s36.1-5.6,50.8-9.5c18.2,3.5,30.3,8.9,31.9,15v2.4h0c.2,6.1,0,11.5,0,12.8h.3Z"/>
    <path class="st39" d="M343.2,203.3c0,.3,0,.7-.1,1h0c-2.2,11-38.4,19.8-82.8,19.8s-81.1-8.9-82.8-20v-.8c0-.4,0-.9.2-1.3,1.5-6,13.1-11.3,30.7-14.9,14.2-2.9,32.3-4.6,52.1-4.6s36.7,1.6,50.8,4.4c18.2,3.5,30.3,8.9,31.9,15,.1.5.2.9.2,1.4h-.2Z"/>
    <path class="st39" d="M343.2,198.7c0,11.5-37.1,20.8-82.9,20.8s-82.9-9.3-82.9-20.8-.2-7,0-13v-2.1c1.5-6,13.1-11.3,30.7-14.9,15,3.5,33.6,9.3,52.1,9.3s36.1-5.6,50.8-9.5c18.2,3.5,30.3,8.9,31.9,15v2.4h0c.2,6.1,0,11.5,0,12.8h.3Z"/>
    <path class="st1" d="M343.2,198.7c0,11.5-37.1,20.8-82.9,20.8s-82.9-9.3-82.9-20.8-.2-7,0-13v-2.1c1.5-6,13.1-11.3,30.7-14.9,15,3.5,33.6,9.3,52.1,9.3s36.1-5.6,50.8-9.5c18.2,3.5,30.3,8.9,31.9,15v2.4h0c.2,6.1,0,11.5,0,12.8h.3Z"/>
    <path class="st39" d="M343.2,184.8c0,.3,0,.7-.1,1h0c-2.2,11-38.4,19.8-82.8,19.8s-81.1-8.9-82.8-20v-.8c0-.4,0-.9.2-1.3,1.5-6,13.1-11.3,30.7-14.9,14.2-2.9,32.3-4.6,52.1-4.6s36.7,1.6,50.8,4.4c18.2,3.5,30.3,8.9,31.9,15,.1.5.2.9.2,1.4h-.2Z"/>
    <path class="st39" d="M343.2,178.3c0,11.5-37.1,20.8-82.9,20.8s-82.9-9.3-82.9-20.8-.2-7,0-13v-2.1c1.5-6,13.1-11.3,30.7-14.9,15,3.5,33.6,9.3,52.1,9.3s36.1-5.6,50.8-9.5c18.2,3.5,30.3,8.9,31.9,15v2.4h0c.2,6.1,0,11.5,0,12.8h.3Z"/>
    <path class="st0" d="M343.2,178.3c0,11.5-37.1,20.8-82.9,20.8s-82.9-9.3-82.9-20.8-.2-7,0-13v-2.1c1.5-6,13.1-11.3,30.7-14.9,15,3.5,33.6,9.3,52.1,9.3s36.1-5.6,50.8-9.5c18.2,3.5,30.3,8.9,31.9,15v2.4h0c.2,6.1,0,11.5,0,12.8h.3Z"/>
    <path class="st39" d="M343.2,164.4c0,.3,0,.7-.1,1h0c-2.2,11-38.4,19.8-82.8,19.8s-81.1-8.9-82.8-20v-.8c0-.4,0-.9.2-1.3,1.5-6,13.1-11.3,30.7-14.9,14.2-2.9,32.3-4.6,52.1-4.6s36.7,1.6,50.8,4.4c18.2,3.5,30.3,8.9,31.9,15,.1.5.2.9.2,1.4h-.2Z"/>
    <path class="st39" d="M343.2,158.6c0,11.5-37.1,20.8-82.9,20.8s-82.9-9.3-82.9-20.8-.2-7,0-13v-2.1c1.5-6,13.1-11.3,30.7-14.9,15,3.5,33.6,9.3,52.1,9.3s36.1-5.6,50.8-9.5c18.2,3.5,30.3,8.9,31.9,15v2.4h0c.2,6.1,0,11.5,0,12.8h.3Z"/>
    <path class="st3" d="M343.2,158.6c0,11.5-37.1,20.8-82.9,20.8s-82.9-9.3-82.9-20.8-.2-7,0-13v-2.1c1.5-6,13.1-11.3,30.7-14.9,15,3.5,33.6,9.3,52.1,9.3s36.1-5.6,50.8-9.5c18.2,3.5,30.3,8.9,31.9,15v2.4h0c.2,6.1,0,11.5,0,12.8h.3Z"/>
    <path class="st39" d="M343.2,144.7c0,.3,0,.7-.1,1h0c-2.2,11-38.4,19.8-82.8,19.8s-81.1-8.9-82.8-20v-.8c0-.4,0-.9.2-1.3,1.5-6,13.1-11.3,30.7-14.9,14.2-2.9,32.3-4.6,52.1-4.6s36.7,1.6,50.8,4.4c18.2,3.5,30.3,8.9,31.9,15,.1.5.2.9.2,1.4h-.2Z"/>
    <path class="st39" d="M343.2,140.1c0,11.5-37.1,20.8-82.9,20.8s-82.9-9.3-82.9-20.8-.2-7,0-13v-2.1c1.5-6,13.1-11.3,30.7-14.9,15,3.5,33.6,9.3,52.1,9.3s36.1-5.6,50.8-9.5c18.2,3.5,30.3,8.9,31.9,15v2.4h0c.2,6.1,0,11.5,0,12.8h.3Z"/>
    <path class="st8" d="M343.2,140.1c0,11.5-37.1,20.8-82.9,20.8s-82.9-9.3-82.9-20.8-.2-7,0-13v-2.1c1.5-6,13.1-11.3,30.7-14.9,15,3.5,33.6,9.3,52.1,9.3s36.1-5.6,50.8-9.5c18.2,3.5,30.3,8.9,31.9,15v2.4h0c.2,6.1,0,11.5,0,12.8h.3Z"/>
    <path class="st39" d="M343.2,126.2c0,.3,0,.7-.1,1h0c-2.2,11-38.4,19.8-82.8,19.8s-81.1-8.9-82.8-20v-.8c0-.4,0-.9.2-1.3,1.5-6,13.1-11.3,30.7-14.9,14.2-2.9,32.3-4.6,52.1-4.6s36.7,1.6,50.8,4.4c18.2,3.5,30.3,8.9,31.9,15,.1.5.2,1,.2,1.4h-.2Z"/>
    <path class="st39" d="M343.2,119.7c0,11.5-37.1,20.8-82.9,20.8s-82.9-9.3-82.9-20.8-.2-7,0-13v-2.1c1.5-6,13.1-11.3,30.7-14.9,15,3.5,33.6,9.3,52.1,9.3s36.1-5.6,50.8-9.5c18.2,3.5,30.3,8.9,31.9,15v2.4h0c.2,6.1,0,11.5,0,12.8h.3Z"/>
    <path class="st7" d="M343.2,119.7c0,11.5-37.1,20.8-82.9,20.8s-82.9-9.3-82.9-20.8-.2-7,0-13v-2.1c1.5-6,13.1-11.3,30.7-14.9,15,3.5,33.6,9.3,52.1,9.3s36.1-5.6,50.8-9.5c18.2,3.5,30.3,8.9,31.9,15v2.4h0c.2,6.1,0,11.5,0,12.8h.3Z"/>
    <path class="st39" d="M343.2,105.9c0,.3,0,.7-.1,1h0c-2.2,11-38.4,19.8-82.8,19.8s-81.1-8.9-82.8-20v-.8c0-.4,0-.9.2-1.3,1.5-6,13.1-11.3,30.7-14.9,14.2-2.9,32.3-4.6,52.1-4.6s36.7,1.6,50.8,4.4c18.2,3.5,30.3,8.9,31.9,15,.1.5.2.9.2,1.4h-.2Z"/>
    <path class="st39" d="M343.2,101.2c0,11.5-37.1,20.8-82.9,20.8s-82.9-9.3-82.9-20.8-.2-7,0-13v-2.1c1.5-6,13.1-11.3,30.7-14.9,15,3.5,33.6,9.3,52.1,9.3s36.1-5.6,50.8-9.5c18.2,3.5,30.3,8.9,31.9,15v2.4h0c.2,6.1,0,11.5,0,12.8h.3Z"/>
    <path class="st4" d="M343.2,101.2c0,11.5-37.1,20.8-82.9,20.8s-82.9-9.3-82.9-20.8-.2-7,0-13v-2.1c1.5-6,13.1-11.3,30.7-14.9,15,3.5,33.6,9.3,52.1,9.3s36.1-5.6,50.8-9.5c18.2,3.5,30.3,8.9,31.9,15v2.4h0c.2,6.1,0,11.5,0,12.8h.3Z"/>
    <path class="st39" d="M343.2,87.4c0,.3,0,.7-.1,1h0c-2.2,11-38.4,19.8-82.8,19.8s-81.1-8.9-82.8-20v-.8c0-.4,0-.9.2-1.3,1.5-6,13.1-11.3,30.7-14.9,14.2-2.9,32.3-4.6,52.1-4.6s36.7,1.6,50.8,4.4c18.2,3.5,30.3,8.9,31.9,15,.1.5.2.9.2,1.4h-.2Z"/>
    <path class="st6" d="M327.2,86.1v.8h0c-1.8,9.1-31.5,16.2-67.8,16.2s-66.5-7.3-67.8-16.4v-.7c0-.4,0-.7.1-1.1,1.2-4.9,10.8-9.3,25.1-12.2,11.6-2.4,26.5-3.8,42.6-3.8s30.1,1.3,41.6,3.6c14.9,2.9,24.8,7.3,26.2,12.3.1.4.2.8.2,1.2h-.2Z"/>
    <path class="st39" d="M243.3,96.4c-1.9,0-3.8,0-5.6-.3-1.6-.2-3.1-.4-4.7-.7-1.2-.2-2.3-.5-3.5-1-1.4-.5-2.8-1.2-4-2.1-1-.8-1.9-1.6-2.8-2.5l-9.6-9.4h1c.8.4,1.7.8,2.6,1.1,1.1.4,2.2.6,3.4.7h1.9c.8,0,1.7,0,2.7,0s2,0,3.1-.2,2.1-.2,3.1-.3l3.6-.4,5-.5,5.6-.6,5.5-.6,5-.5,4.2-.5,4.3-.5,5-.6c1.1,0,2.3-.3,3.5-.4s2.2-.3,3.3-.5,1.9-.3,2.7-.5c.5,0,1.1-.2,1.6-.5.7-.4,1.1-.7,1.2-1,0-.4,0-.9-.4-1.2h1l9.3,9.1c.6.6,1.2,1.3,1.6,2,.3.6.4,1.3.3,2-.3,1.1-1.3,2-3.2,2.9s-4.7,1.5-8.5,1.9c-3.8.5-7.6.4-11.3,0-2.9-.3-5.7-1.2-8.2-2.4h-.4c.4.7.5,1.4.3,2.1-.3.9-.9,1.6-1.7,2.1-1.2.8-2.5,1.4-3.9,1.8-2.1.6-4.2,1-6.3,1.2-2.2.3-4.3.4-6.5.4h-.2ZM286,86.7c2-.7,3.2-1.5,3.6-2.3.4-1,0-2.1-1.3-3.3-.4-.4-.8-.7-1.2-1-.4-.3-.8-.5-1.2-.7h-1.1c-.3,0-.7,0-1.2.2l-1.8.2-2.8.3-7.4.7-7.6.8-6.1.7-3,.3,1.6,1.5c.3.3.7.7,1.1,1,2,1.6,4.9,2.7,8.6,3.2,4,.5,8.1.6,12.1,0,2.6-.2,5.2-.8,7.7-1.6h0ZM250.5,92.2c1.3-.3,2.5-.7,3.7-1.2.9-.3,1.7-.8,2.4-1.4.5-.4.8-1,1-1.6,0-.5,0-.9-.3-1.3-.3-.5-.7-1-1.2-1.4l-2.7-2.6-6.1.7-5.8.6c-1.8.2-3.4.4-4.9.5l-3.8.4c-2.4.3-4.3.5-5.8.7-1.2,0-2.4.4-3.5.8-.4.2-.8.5-1,.9-.1.4,0,.9.7,1.5s1.4,1.2,2.1,1.7c1.2.7,2.5,1.3,3.8,1.6,2.4.6,4.9,1,7.3,1.1,3,.2,6,0,8.9-.3,1.7-.2,3.3-.4,4.9-.8h.3Z"/>
    <polygon class="st39" points="207.3 89.2 205.6 87.6 219.2 86.1 220.9 87.8 207.3 89.2"/>
    <polygon class="st39" points="210.8 92.6 209.1 91 222.6 89.5 224.3 91.2 210.8 92.6"/>
    <path class="st5" d="M196.1,74.4l108.8,29.6s23.9-2.8,29.1-8.8l-106.8-27.3s-28.7,4.6-31.1,6.5h0Z"/>
    <polygon class="st39" points="220.7 192.7 219 191.1 232.6 189.6 234.3 191.3 220.7 192.7"/>
    <polygon class="st39" points="224.2 196.2 222.5 194.5 236 193 237.7 194.7 224.2 196.2"/>
  </g>
  <g id="bitcoin_2_bitcoin-46">
    <path class="st39" d="M283.3,255.5c0,11.5-37.1,20.8-82.9,20.8s-82.9-9.3-82.9-20.8-.2-7,0-13v-2.1c1.5-6,13.1-11.3,30.7-14.9,15,3.6,33.6,9.3,52.1,9.3s36.1-5.6,50.8-9.5c18.2,3.5,30.3,8.9,31.9,15v2.4h0c.2,6.1,0,11.5,0,12.8h.3Z"/>
    <path class="st2" d="M283.3,255.5c0,11.5-37.1,20.8-82.9,20.8s-82.9-9.3-82.9-20.8-.2-7,0-13v-2.1c1.5-6,13.1-11.3,30.7-14.9,15,3.6,33.6,9.3,52.1,9.3s36.1-5.6,50.8-9.5c18.2,3.5,30.3,8.9,31.9,15v2.4h0c.2,6.1,0,11.5,0,12.8h.3Z"/>
    <path class="st39" d="M283.3,241.6c0,.3,0,.7-.1,1h0c-2.2,11-38.4,19.8-82.8,19.8s-81.1-8.9-82.8-20v-.8c0-.4,0-.9.2-1.3,1.5-6,13.1-11.3,30.7-14.9,14.2-2.9,32.3-4.6,52.1-4.6s36.7,1.6,50.8,4.4c18.2,3.5,30.3,8.9,31.9,15,.1.5.2.9.2,1.4h-.2Z"/>
    <path class="st39" d="M283.3,237c0,11.5-37.1,20.8-82.9,20.8s-82.9-9.3-82.9-20.8-.2-7,0-13v-2.1c1.5-6,13.1-11.3,30.7-14.9,15,3.5,33.6,9.3,52.1,9.3s36.1-5.6,50.8-9.5c18.2,3.6,30.3,8.9,31.9,15v2.4h0c.2,6.1,0,11.5,0,12.8h.3Z"/>
    <path class="st24" d="M283.3,237c0,11.5-37.1,20.8-82.9,20.8s-82.9-9.3-82.9-20.8-.2-7,0-13v-2.1c1.5-6,13.1-11.3,30.7-14.9,15,3.5,33.6,9.3,52.1,9.3s36.1-5.6,50.8-9.5c18.2,3.6,30.3,8.9,31.9,15v2.4h0c.2,6.1,0,11.5,0,12.8h.3Z"/>
    <path class="st39" d="M283.3,223.1c0,.3,0,.7-.1,1h0c-2.2,11-38.4,19.8-82.8,19.8s-81.1-8.9-82.8-20v-.8c0-.4,0-.9.2-1.3,1.5-6,13.1-11.3,30.7-14.9,14.2-2.9,32.3-4.6,52.1-4.6s36.7,1.6,50.8,4.4c18.2,3.6,30.3,8.9,31.9,15,.1.5.2.9.2,1.4h-.2Z"/>
    <path class="st39" d="M283.3,216.6c0,11.5-37.1,20.8-82.9,20.8s-82.9-9.3-82.9-20.8-.2-7,0-13v-2.1c1.5-6,13.1-11.3,30.7-14.9,15,3.5,33.6,9.3,52.1,9.3s36.1-5.6,50.8-9.5c18.2,3.5,30.3,8.9,31.9,15v2.4h0c.2,6.1,0,11.5,0,12.8h.3Z"/>
    <path class="st23" d="M283.3,216.6c0,11.5-37.1,20.8-82.9,20.8s-82.9-9.3-82.9-20.8-.2-7,0-13v-2.1c1.5-6,13.1-11.3,30.7-14.9,15,3.5,33.6,9.3,52.1,9.3s36.1-5.6,50.8-9.5c18.2,3.5,30.3,8.9,31.9,15v2.4h0c.2,6.1,0,11.5,0,12.8h.3Z"/>
    <path class="st39" d="M283.3,202.8c0,.3,0,.7-.1,1h0c-2.2,11-38.4,19.8-82.8,19.8s-81.1-8.9-82.8-20v-.8c0-.4,0-.9.2-1.3,1.5-6,13.1-11.3,30.7-14.9,14.2-2.9,32.3-4.6,52.1-4.6s36.7,1.6,50.8,4.4c18.2,3.5,30.3,8.9,31.9,15,.1.5.2.9.2,1.4h-.2Z"/>
    <path class="st39" d="M283.3,198.1c0,11.5-37.1,20.8-82.9,20.8s-82.9-9.3-82.9-20.8-.2-7,0-13v-2.1c1.5-6,13.1-11.3,30.7-14.9,15,3.5,33.6,9.3,52.1,9.3s36.1-5.6,50.8-9.5c18.2,3.5,30.3,8.9,31.9,15v2.4h0c.2,6.1,0,11.5,0,12.8h.3Z"/>
    <path class="st20" d="M283.3,198.1c0,11.5-37.1,20.8-82.9,20.8s-82.9-9.3-82.9-20.8-.2-7,0-13v-2.1c1.5-6,13.1-11.3,30.7-14.9,15,3.5,33.6,9.3,52.1,9.3s36.1-5.6,50.8-9.5c18.2,3.5,30.3,8.9,31.9,15v2.4h0c.2,6.1,0,11.5,0,12.8h.3Z"/>
    <path class="st39" d="M283.3,184.3c0,.3,0,.7-.1,1h0c-2.2,11-38.4,19.8-82.8,19.8s-81.1-8.9-82.8-20v-.8c0-.4,0-.9.2-1.3,1.5-6,13.1-11.3,30.7-14.9,14.2-2.9,32.3-4.6,52.1-4.6s36.7,1.6,50.8,4.4c18.2,3.5,30.3,8.9,31.9,15,.1.5.2.9.2,1.4h-.2Z"/>
    <path class="st19" d="M267.4,183v.8h0c-1.8,9.1-31.5,16.2-67.8,16.2s-66.5-7.3-67.8-16.4v-.7c0-.4,0-.7.1-1.1,1.2-4.9,10.8-9.3,25.1-12.2,11.6-2.4,26.5-3.8,42.6-3.8s30.1,1.3,41.6,3.6c14.9,2.9,24.8,7.3,26.2,12.3.1.4.2.8.2,1.2h-.2Z"/>
    <path class="st39" d="M183.4,193.4c-1.9,0-3.8,0-5.6-.3-1.6-.2-3.1-.4-4.7-.7-1.2-.2-2.3-.5-3.5-1-1.4-.5-2.8-1.2-4-2.1-1-.8-1.9-1.6-2.8-2.4l-9.6-9.4h1c.8.4,1.7.8,2.6,1.1,1.1.4,2.2.6,3.4.7h1.9c.8,0,1.7,0,2.7-.1s2-.1,3.1-.2,2.1-.2,3.1-.3l3.6-.4,5-.5,5.6-.6,5.5-.6,5-.5,4.2-.5,4.3-.5c1.4-.2,3.1-.3,5-.6,1.1-.1,2.3-.3,3.4-.4s2.2-.3,3.3-.5,1.9-.3,2.7-.5c.5,0,1.1-.2,1.6-.5.7-.4,1.1-.7,1.2-1,0-.4,0-.9-.4-1.2h1c0-.1,9.3,9.1,9.3,9.1.6.6,1.2,1.3,1.6,2,.3.6.4,1.3.3,2-.3,1.1-1.3,2-3.2,2.9s-4.7,1.5-8.5,1.9c-3.8.5-7.6.4-11.3,0-2.9-.3-5.6-1.2-8.2-2.4h-.4c.4.7.5,1.4.3,2.1-.3.9-.9,1.6-1.7,2.1-1.2.8-2.5,1.4-3.9,1.8-2.1.6-4.2,1-6.3,1.2-2.1.3-4.3.4-6.5.4h-.1ZM226.1,183.6c2-.7,3.2-1.5,3.6-2.3.4-1,0-2.1-1.3-3.3-.4-.4-.8-.7-1.2-1s-.8-.5-1.2-.7h-1.1l-1.2.2-1.8.2-2.8.3c-2.2.2-4.7.5-7.4.7l-7.6.8-6.1.7-3,.3,1.6,1.5c.3.3.7.7,1.1,1,2,1.6,4.9,2.7,8.6,3.2,4,.5,8.1.6,12.1,0,2.6-.2,5.2-.8,7.7-1.6h0ZM190.5,189.1c1.3-.3,2.5-.7,3.7-1.2.9-.3,1.7-.8,2.4-1.4.5-.4.8-1,1-1.6,0-.5,0-.9-.3-1.3-.3-.5-.7-1-1.2-1.4l-2.7-2.6-6.1.7-5.8.6c-1.8.2-3.4.4-4.9.5l-3.8.4c-2.4.3-4.3.5-5.8.7-1.2.1-2.4.4-3.5.8-.4.2-.8.5-1,.9-.1.4,0,.9.7,1.5s1.4,1.2,2.1,1.7c1.2.7,2.5,1.2,3.8,1.6,2.4.7,4.9,1,7.4,1.2,3,.2,6,0,8.9-.3,1.7-.2,3.3-.4,4.9-.8h.2Z"/>
    <polygon class="st39" points="147.5 186.1 145.7 184.5 159.3 183 161 184.7 147.5 186.1"/>
    <polygon class="st39" points="150.9 189.5 149.2 187.9 162.8 186.4 164.5 188.1 150.9 189.5"/>
    <path class="st26" d="M136.3,171.3l108.8,29.6s23.9-2.8,29.1-8.8l-106.8-27.3s-28.7,4.6-31.1,6.5Z"/>
  </g>
  <g id="bitcoin_1_bitcoin-46">
    <path class="st39" d="M460.6,254.1c0,11.5-37.1,20.8-82.9,20.8s-82.9-9.3-82.9-20.8-.2-7,0-13v-2.1c1.5-6,13.1-11.3,30.7-14.9,15,3.6,33.5,9.3,52.1,9.3s36.1-5.6,50.8-9.5c18.2,3.5,30.3,8.9,31.9,15v2.4h0c.2,6.1.1,11.5.1,12.8h.2Z"/>
    <path class="st21" d="M460.6,254.1c0,11.5-37.1,20.8-82.9,20.8s-82.9-9.3-82.9-20.8-.2-7,0-13v-2.1c1.5-6,13.1-11.3,30.7-14.9,15,3.6,33.5,9.3,52.1,9.3s36.1-5.6,50.8-9.5c18.2,3.5,30.3,8.9,31.9,15v2.4h0c.2,6.1.1,11.5.1,12.8h.2Z"/>
    <path class="st39" d="M460.6,240.2c0,.3,0,.7-.1,1h0c-2.2,11-38.4,19.8-82.8,19.8s-81.1-8.9-82.8-20v-.8c0-.4,0-.9.2-1.3,1.5-6,13.1-11.3,30.7-14.9,14.2-2.9,32.3-4.6,52.1-4.6s36.7,1.6,50.8,4.4c18.2,3.5,30.3,8.9,31.9,15,.1.5.2.9.2,1.4h-.2Z"/>
    <path class="st39" d="M460.6,235.5c0,11.5-37.1,20.8-82.9,20.8s-82.9-9.3-82.9-20.8-.2-7,0-13v-2.1c1.5-6,13.1-11.3,30.7-14.9,15,3.5,33.5,9.3,52.1,9.3s36.1-5.6,50.8-9.5c18.2,3.6,30.3,8.9,31.9,15v2.4h0c.2,6.1.1,11.5.1,12.8h.2Z"/>
    <path class="st22" d="M460.6,235.5c0,11.5-37.1,20.8-82.9,20.8s-82.9-9.3-82.9-20.8-.2-7,0-13v-2.1c1.5-6,13.1-11.3,30.7-14.9,15,3.5,33.5,9.3,52.1,9.3s36.1-5.6,50.8-9.5c18.2,3.6,30.3,8.9,31.9,15v2.4h0c.2,6.1.1,11.5.1,12.8h.2Z"/>
    <path class="st39" d="M460.6,221.7c0,.3,0,.7-.1,1h0c-2.2,11-38.4,19.8-82.8,19.8s-81.1-8.9-82.8-20v-.8c0-.4,0-.9.2-1.3,1.5-6,13.1-11.3,30.7-14.9,14.2-2.9,32.3-4.6,52.1-4.6s36.7,1.6,50.8,4.4c18.2,3.6,30.3,8.9,31.9,15,.1.5.2.9.2,1.4h-.2Z"/>
    <path class="st39" d="M460.6,215.2c0,11.5-37.1,20.8-82.9,20.8s-82.9-9.3-82.9-20.8-.2-7,0-13v-2.1c1.5-6,13.1-11.3,30.7-14.9,15,3.5,33.5,9.3,52.1,9.3s36.1-5.6,50.8-9.5c18.2,3.5,30.3,8.9,31.9,15v2.4h0c.2,6.1.1,11.5.1,12.8h.2Z"/>
    <path class="st25" d="M460.6,215.2c0,11.5-37.1,20.8-82.9,20.8s-82.9-9.3-82.9-20.8-.2-7,0-13v-2.1c1.5-6,13.1-11.3,30.7-14.9,15,3.5,33.5,9.3,52.1,9.3s36.1-5.6,50.8-9.5c18.2,3.5,30.3,8.9,31.9,15v2.4h0c.2,6.1.1,11.5.1,12.8h.2Z"/>
    <path class="st39" d="M460.6,201.4c0,.3,0,.7-.1,1h0c-2.2,11-38.4,19.8-82.8,19.8s-81.1-8.9-82.8-20v-.8c0-.4,0-.9.2-1.3,1.5-6,13.1-11.3,30.7-14.9,14.2-2.9,32.3-4.6,52.1-4.6s36.7,1.6,50.8,4.4c18.2,3.5,30.3,8.9,31.9,15,.1.5.2.9.2,1.4h-.2Z"/>
    <path class="st39" d="M460.6,195.5c0,11.5-37.1,20.8-82.9,20.8s-82.9-9.3-82.9-20.8-.2-7,0-13v-2.1c1.5-6,13.1-11.3,30.7-14.9,15,3.5,33.5,9.3,52.1,9.3s36.1-5.6,50.8-9.5c18.2,3.6,30.3,8.9,31.9,15v2.4h0c.2,6.1.1,11.5.1,12.8h.2Z"/>
    <path class="st18" d="M460.6,195.5c0,11.5-37.1,20.8-82.9,20.8s-82.9-9.3-82.9-20.8-.2-7,0-13v-2.1c1.5-6,13.1-11.3,30.7-14.9,15,3.5,33.5,9.3,52.1,9.3s36.1-5.6,50.8-9.5c18.2,3.6,30.3,8.9,31.9,15v2.4h0c.2,6.1.1,11.5.1,12.8h.2Z"/>
    <path class="st39" d="M460.6,181.6c0,.3,0,.7-.1,1h0c-2.2,11-38.4,19.8-82.8,19.8s-81.1-8.9-82.8-20v-.8c0-.4,0-.9.2-1.3,1.5-6,13.1-11.3,30.7-14.9,14.2-2.9,32.3-4.6,52.1-4.6s36.7,1.6,50.8,4.4c18.2,3.6,30.3,8.9,31.9,15,.1.5.2.9.2,1.4h-.2Z"/>
    <path class="st39" d="M460.6,177c0,11.5-37.1,20.8-82.9,20.8s-82.9-9.3-82.9-20.8-.2-7,0-13v-2.1c1.5-6,13.1-11.3,30.7-14.9,15,3.5,33.5,9.3,52.1,9.3s36.1-5.6,50.8-9.5c18.2,3.5,30.3,8.9,31.9,15v2.4h0c.2,6.1.1,11.5.1,12.8h.2Z"/>
    <path class="st27" d="M460.6,177c0,11.5-37.1,20.8-82.9,20.8s-82.9-9.3-82.9-20.8-.2-7,0-13v-2.1c1.5-6,13.1-11.3,30.7-14.9,15,3.5,33.5,9.3,52.1,9.3s36.1-5.6,50.8-9.5c18.2,3.5,30.3,8.9,31.9,15v2.4h0c.2,6.1.1,11.5.1,12.8h.2Z"/>
    <path class="st39" d="M460.6,163.1c0,.3,0,.7-.1,1h0c-2.2,11-38.4,19.8-82.8,19.8s-81.1-8.9-82.8-20v-.8c0-.4,0-.9.2-1.3,1.5-6,13.1-11.3,30.7-14.9,14.2-2.9,32.3-4.6,52.1-4.6s36.7,1.6,50.8,4.4c18.2,3.5,30.3,8.9,31.9,15,.1.5.2.9.2,1.4h-.2Z"/>
    <path class="st39" d="M460.6,156.6c0,11.5-37.1,20.8-82.9,20.8s-82.9-9.3-82.9-20.8-.2-7,0-13v-2.1c1.5-6,13.1-11.3,30.7-14.9,15,3.5,33.5,9.3,52.1,9.3s36.1-5.6,50.8-9.5c18.2,3.5,30.3,8.9,31.9,15v2.4h0c.2,6.1.1,11.5.1,12.8h.2Z"/>
    <path class="st33" d="M460.6,156.6c0,11.5-37.1,20.8-82.9,20.8s-82.9-9.3-82.9-20.8-.2-7,0-13v-2.1c1.5-6,13.1-11.3,30.7-14.9,15,3.5,33.5,9.3,52.1,9.3s36.1-5.6,50.8-9.5c18.2,3.5,30.3,8.9,31.9,15v2.4h0c.2,6.1.1,11.5.1,12.8h.2Z"/>
    <path class="st39" d="M460.6,142.8c0,.3,0,.7-.1,1h0c-2.2,11-38.4,19.8-82.8,19.8s-81.1-8.9-82.8-20v-.8c0-.4,0-.9.2-1.3,1.5-6,13.1-11.3,30.7-14.9,14.2-2.9,32.3-4.6,52.1-4.6s36.7,1.6,50.8,4.4c18.2,3.5,30.3,8.9,31.9,15,.1.5.2.9.2,1.4h-.2Z"/>
    <path class="st39" d="M460.6,138.1c0,11.5-37.1,20.8-82.9,20.8s-82.9-9.3-82.9-20.8-.2-7,0-13v-2.1c1.5-6,13.1-11.3,30.7-14.9,15,3.6,33.5,9.3,52.1,9.3s36.1-5.6,50.8-9.5c18.2,3.5,30.3,8.9,31.9,15v2.4h0c.2,6.1.1,11.5.1,12.8h.2Z"/>
    <path class="st32" d="M460.6,138.1c0,11.5-37.1,20.8-82.9,20.8s-82.9-9.3-82.9-20.8-.2-7,0-13v-2.1c1.5-6,13.1-11.3,30.7-14.9,15,3.6,33.5,9.3,52.1,9.3s36.1-5.6,50.8-9.5c18.2,3.5,30.3,8.9,31.9,15v2.4h0c.2,6.1.1,11.5.1,12.8h.2Z"/>
    <path class="st39" d="M460.6,124.3c0,.3,0,.7-.1,1h0c-2.2,11-38.4,19.8-82.8,19.8s-81.1-8.9-82.8-20v-.8c0-.4,0-.9.2-1.3,1.5-6,13.1-11.3,30.7-14.9,14.2-2.9,32.3-4.6,52.1-4.6s36.7,1.6,50.8,4.4c18.2,3.5,30.3,8.9,31.9,15,.1.5.2.9.2,1.4h-.2Z"/>
    <path class="st29" d="M444.7,123v.8h0c-1.8,9-31.5,16.2-67.8,16.2s-66.4-7.3-67.8-16.4v-.7c0-.4,0-.7.1-1.1,1.2-4.9,10.8-9.3,25.1-12.2,11.6-2.4,26.5-3.8,42.6-3.8s30.1,1.3,41.6,3.6c14.9,2.9,24.8,7.3,26.2,12.3.1.4.2.8.2,1.2h-.2Z"/>
    <path class="st39" d="M360.7,133.4c-1.9,0-3.8,0-5.6-.3-1.6-.2-3.1-.4-4.7-.7-1.2-.2-2.3-.5-3.5-1-1.4-.5-2.8-1.2-4-2.1-1-.8-1.9-1.6-2.8-2.4l-9.6-9.4h1c.8.4,1.7.8,2.5,1.1,1.1.4,2.2.6,3.4.7h1.9c.8,0,1.7,0,2.7,0,1,0,2,0,3.1-.2s2.1-.2,3.1-.3l3.6-.4,5-.5,5.6-.6,5.5-.6,5-.5,4.2-.5,4.3-.5c1.5-.2,3.1-.3,5-.6,1.1,0,2.3-.3,3.5-.4s2.2-.3,3.3-.5,1.9-.3,2.7-.5c.5,0,1.1-.2,1.6-.5.7-.4,1.1-.7,1.2-1,0-.4,0-.9-.4-1.2h1c0,0,9.4,9.1,9.4,9.1.6.6,1.2,1.3,1.6,2,.3.6.4,1.3.3,2-.3,1.1-1.3,2-3.2,2.9s-4.7,1.5-8.5,1.9c-3.8.5-7.6.4-11.3,0-2.9-.3-5.7-1.2-8.2-2.5h-.4c.4.7.5,1.5.3,2.2-.3.9-.9,1.6-1.7,2.1-1.2.8-2.6,1.4-4,1.8-2.1.6-4.2,1-6.3,1.2-2.2.2-4.3.3-6.5.3h-.1ZM403.4,123.6c2-.7,3.2-1.5,3.6-2.3.4-1,0-2.1-1.3-3.3-.4-.4-.8-.7-1.2-1-.4-.3-.8-.5-1.2-.7h-1.1l-1.2.2-1.8.2-2.8.3-7.4.7-7.6.8-6.1.7-3,.3,1.5,1.5c.4.3.7.7,1.1,1,2,1.6,4.9,2.7,8.6,3.2,4,.5,8.1.6,12.1,0,2.6-.2,5.2-.8,7.8-1.6h0ZM367.8,129.1c1.3-.3,2.5-.7,3.7-1.2.9-.3,1.7-.8,2.4-1.4.5-.4.8-1,1-1.6,0-.5,0-.9-.3-1.3-.3-.5-.7-1-1.2-1.4l-2.7-2.6-6.1.7-5.8.6c-1.8.2-3.4.4-4.9.5l-3.8.4c-2.4.3-4.3.5-5.8.7-1.2,0-2.4.4-3.5.8-.5.2-.8.5-1,.9-.1.4.1.9.7,1.5.7.6,1.4,1.2,2.1,1.7,1.2.7,2.5,1.2,3.8,1.6,2.4.7,4.9,1,7.4,1.2,3,.2,6,0,8.9-.3,1.7-.2,3.3-.5,4.9-.9h.2Z"/>
    <polygon class="st39" points="405 117.5 403.3 115.8 416.9 114.3 418.6 116 405 117.5"/>
    <polygon class="st39" points="408.5 120.9 406.8 119.2 420.3 117.7 422 119.4 408.5 120.9"/>
    <path class="st28" d="M313.5,111.3l108.8,29.6s23.9-2.8,29.1-8.8l-106.8-27.3s-28.7,4.6-31.1,6.5h0Z"/>
  </g>
  <path class="st36" d="M316.6,35.9c-.3-2.2.7-4.3,2.6-5.4.3-.1.5-.3.8-.5s.5-.5.7-.8c1.2-1.4,2.7-2.4,4.5-2.9,1.8-.4,3.6-.6,5.4-.6s3.1.1,4.6.5c1.8.6,3.5,1.4,5,2.4,1,.6,2,1.3,2.8,2.2.8.9,1.1,2.2.7,3.4-.4,1.2-1.7,2.1-2.1,3.3-.1.6-.1,1.3-.1,1.9,0,.9-.3,1.8-.8,2.6-.1.3-.4.5-.6.7-.4,0-.9,0-1.2-.3-.3-.3-.5-.7-.7-1.1-.4-1.2-1.2-2.2-2.1-3-1.3-1.1-3.2-1.2-4.9-1.4-2-.2-4-.1-5.9.2-1,.2-2,.6-3,1.1-.7.4-1.6,1.7-2.3,1.8-1.8.3-3.4-2.8-3.6-4.2h.2Z"/>
  <polygon class="st39" points="324.7 126.1 323 124.5 336.6 123 338.3 124.7 324.7 126.1"/>
  <polygon class="st39" points="328.2 129.6 326.5 127.9 340.1 126.4 341.8 128.1 328.2 129.6"/>
  <path class="st39" d="M319.5,60.8c-6.7,5.9-7.3,14.9-7.9,19-.7,5.1-.9,10.3,0,15.4s3.2,10,6.8,13.6c.3.3.6.5,1,.7.8.3,1.7-.3,2.4-.8,1.1-.7,2.1-1.7,2.7-2.9,1.4-3-.9-6.2-2.2-9.2-2.8-6.3-1.3-13.7.7-20.3.9-3,3.8-18.2-.2-17.7-1.4.2-1.4.4-3.4,2.2h.1Z"/>
  <path class="st30" d="M321.1,66.3c-5.7,6.9-4.9,15.9-4.8,20,.1,5.2.7,10.3,2.5,15.2s4.7,9.4,8.9,12.4c.3.3.7.5,1.1.5.9,0,1.7-.5,2.3-1.2,1-.9,1.8-2,2.2-3.3.9-3.2-1.9-6-3.7-8.8-3.8-5.8-3.4-13.3-2.5-20.1.4-3.1.9-18.6-3-17.5-1.4.4-1.3.6-3,2.7h0Z"/>
  <path class="st31" d="M321.1,162.4c.1,1.9.2,3.9-.9,5.4-3-1.8-3.9-5.6-4.2-9-.7-6.8-.6-13.7.6-20.4.1-1.1.4-2.1.9-3.1.8-1.5,2.4-2.4,3.9-3.1.9-.5,2-.8,3.1-.8s2.1.7,2.4,1.8c0,.7,0,1.3-.2,2-.6,2.2-1.1,4.6-2.3,6.6-1.1,1.7-1.8,3.5-2.3,5.4-1.1,5-1.4,10.2-.8,15.3h-.2Z"/>
  <path class="st35" d="M361.7,137.6c-2.2,1.7-5.1,2.2-7.8,2.4-1,0-2,0-3.1.1-3,.1-5.3,2.5-5.5,5.4,0,2.1-.1,4.2-.1,6.4,0,5.1.2,10.4-2.1,14.9-.5,1-1.2,2-2.3,2s-1.1-.3-1.5-.6c-1.4-1.1-2.3-2.7-2.7-4.4-.4-1.7-.5-3.5-.5-5.2,0-6.7.6-13.6,3.2-19.8.3-.7.6-1.4,1-2,1.6-2.5,4.4-4.1,7.3-4.9,2.9-.6,5.9-.8,8.9-.5,1.4,0,2.8.2,4.2.3.8,0,3.7-.4,4.3,0,1.2,1-2.6,5.2-3.4,5.8h.1Z"/>
  <path class="st36" d="M302.7,134.2c-.3,6.7,8.2,39.9,10.1,41.1,1.5,1.1,4.3-.4,5.9-1.3.3-.2.5-.4.8-.5,1.2-.9-.8-26.4-.8-26.4,0,0-.6-8.7,5.4-13.7,6.8-5.6,14.5-10.8,14-14.8,0-.6-.3-1.2-.7-1.6-3.4-4.1-22.8-1-26.9,2,0,0-.1,0-.2,0h0s-.2.3-.4.5c-.3.4-.8,1-1.3,1.6-1.4,2-2.7,4.1-3.8,6.2-1.1,2.1-1.8,4.3-2,6.6h0v.2Z"/>
  <path class="st34" d="M304.7,127.6c0,1.7,13.3-1.2,14.9,1.7,1.6,2.9-2,1.7-3.3,8.1-1.3,6.4,0,32.7,1.4,35.5.2.5.5.8.9,1.2.3-.2.5-.4.8-.5,1.2-.9-.8-26.4-.8-26.4,0,0-.6-8.7,5.4-13.7,0,0-.9-5.7,3.3-9,4-3.1,10.1-5.5,10.7-5.8-.5-.2-8.9-2.8-15.7-2.5-4.1.2-8.2,1.2-11.9,2.9,0,0-.1,0-.2,0h0s-.2.3-.4.5c-.3.4-.8,1-1.3,1.6-1.6,2.2-3.8,5.2-3.8,6.2h0Z"/>
  <path class="st36" d="M329.2,172.8c.8,1.9,1.8,3.9,3.4,5.3s4.1,2,5.9.8c2.1-1.3,2.5-4,2.7-6.4.7-8.3.7-22.8,1.5-31.1,0-.9.5-1.8,1.2-2.4h0c1.1-.8,2.3-1.5,3.5-1.8,2.5-.8,5.7-1.5,8-3.1.8-.5,1.6-1.2,2.2-2,4.2-5.7,5.7-17.3,2.3-22.8-.9-1.7-2.6-2.9-4.6-3.1-6-.7-16.8,3.2-19.4,8.6-.8,1.8-1.1,3.7-2.3,5.3-2,2.8-5.9,3.6-7.9,6.5-.9,1.5-1.4,3.1-1.6,4.9-2.2,14-.4,28.3,5.1,41.4h0Z"/>
  <path class="st16" d="M342.7,137.1c-.4.8-.3,1.8,0,2.6.4-.2.7-.4,1-.6h0c1.2-.7,2.4-1.3,3.5-1.8,1.7-.8,3.5-1.5,5.2-2.1.9-.3,1.9-.6,2.8-1,.8-.5,1.6-1.2,2.2-2,4.2-5.7,5.7-17.3,2.3-22.8-3.4.2-6.6,1.8-9.7,3.2-1.8.9-3.6,1.7-5.4,2.8-1.2.7-3.5,1.6-1.7,2.9,2.5,1.7,7.2-1.3,9.1,1.5.3.6.5,1.4.5,2.1,0,1.1.2,2.2.3,3.3.1,1,0,2-.2,2.9-.5,1.2-1.4,2.2-2.6,2.9-2,1.4-4.2,2.5-5.9,4.1-.7.6-1.2,1.3-1.6,2h.2Z"/>
  <path class="st36" d="M338.7,188.8c-.7.7-1.6,1.3-2.5,1.8l-3.9,2.4c-1.4.9-3.2,1.7-4.5.7-1.2-.9-1.1-2.7-.6-4.1.7-2.1,1.9-3.9,3.5-5.4.3-.3.6-.6.8-1,.2-.4.2-.8.2-1.3v-4c0-4,5.5-3.3,7.2-.9,2.2,2.9,2.3,8.9-.2,11.6h0v.2Z"/>
  <path class="st36" d="M319.3,183.9c-.8,1.5-2.4,2.5-4,3.3-1.6.7-3.2,1.3-4.9,1.8-.7.2-1.6.3-2.1-.2-.3-.3-.4-.7-.5-1.1-.6-2.5.2-5.2,1.9-7.1.8-.7,1.5-1.5,2.1-2.3.8-1.3.6-3,.7-4.5.3-3.3,5.6-2.5,6.9-.3s1,8.3-.2,10.4h.1Z"/>
  <path class="st39" d="M361,106.1c0,1.3-.1,2.8-.9,3.9-.7.8-1.6,1.5-2.6,1.9-4.9,2.5-9.9,5-15.3,6s-11.4.4-15.8-2.9c-1.6-1.1-2.8-2.7-3.5-4.5-.7-2.2-.2-4.7-.1-7,.3-5.8-1.6-11.5-3-17.2s-2.1-11.9.5-17.2c2-4.2-2.3-7.6,1.5-10.1,5.4-3.5,11.8-5.3,20.6-3.9,3.4.5,15.1,5.3,16.4,8.6,1.3,3.2-2.4,6.5-2,10,1.3,10.7,4.2,21.8,4.2,32.6h0v-.2Z"/>
  <path class="st17" d="M353.8,87.2c0-1.6-1.5-2.8-2.5-4.1-2-2.3-3-5.3-2.8-8.4.1-1.7,1.2-3.9,2.9-3.5.4,0,.8.3,1.1.5,3.9,2.7,6.7,6.6,7.9,11.1.5,1.6.6,3.3.3,4.9-.5,2.2-2,4-3.6,5.6-3.3,3.1-7.2,5.4-11.5,6.9-1.1.4-4.6,1.5-3.8-.7.4-1.2,12-10.9,11.9-12.5h0v.2Z"/>
  <path class="st10" d="M354,107.1c-.1-.2-.3-.4-.5-.5-.3,0-.6,0-.9,0-1.7.2-3.4.2-5.1,0-.5,0-1.1,0-1.5-.4-.5-.3-.7-.9-.5-1.4s.8-.7,1.4-.8c1.9-.4,3.7-1.1,5.4-2,1.5-.9,3-1.7,4.7-2.3,1.3-.4,3.1-.2,3.5,1,0,.3.1.6.1.9l.2,3.9c0,1.4.1,2.9-.5,4.2-.9,1.7-2.8,2.6-4.6,3.3-.5.3-1.2.4-1.7.3.9-2.1,1.4-4.2,0-6.3h0Z"/>
  <path class="st9" d="M350.7,106.2l-22.4,1-1.1.3s2.2,7.5,6.2,7.2,17.3-8.6,17.3-8.6h0Z"/>
  <path class="st39" d="M340.7,110.2h-10.9s2.3,3.9,4.2,4.1l6.7-4.1h0Z"/>
  <path class="st11" d="M340.7,110.2h-10.9s2.3,3.9,4.2,4.1l6.7-4.1h0Z"/>
  <path class="st39" d="M360.9,65c3.7,4.1,6.9,8.5,9.6,13.3,1.9,3.4,3.6,7.2,3,11-.5,3.3-2.7,6.2-5.4,8.2-2.7,2-5.9,3.3-9,4.6l-9.5,3.8c-.7.3-1.5.5-2.2.5-2.4,0-3.4-3.5-2.4-5.7s3.1-3.6,4.8-5.4c1.9-1.9,6.6-4.5,7.3-7.1.2-.5.2-1,0-1.5s-.5-.9-1-1.2c-5.3-4.9-12.6-13.4-11.1-20.7,1.9-8.9,11.7-4.6,15.8,0h0v.2Z"/>
  <path class="st38" d="M337.9,66c-2,1-4.7.9-6.4-.6-.8-.8-1.4-1.8-1.6-2.9-.5-3.2,2.2-6.1,2-9.3-.1-1.6-1-3.2-.4-4.7.5-1.3,7.6-3.3,7.9-2,1.8,9.4,6.3,15.6-1.4,19.5h-.1Z"/>
  <path class="st14" d="M338.3,47s.7,13.9-6.7,12.9c0,0-1.2-.2-.8-1.9s1.8-3.5,1.7-5,5.8-6.1,5.8-6.1h0Z"/>
  <path class="st38" d="M319.6,38.3c0,1.5.7,3.3,1.2,4.7,1,2.3,2.1,4.5,3.3,6.6,1,1.9,2.3,3.5,3.9,4.9,1.7,1.2,4,1.7,5.9.9,1.8-.7,2.9-2.5,3.7-4.3,1.3-2.8,2-5.8,1.8-8.8-.1-2.3-.7-5.6-2.7-6.9-.5-.3-1-.5-1.6-.5s-1.3.5-2,.5-1-.2-1.5-.3c-.6-.1-1.2-.2-1.9-.3-2.2-.2-4.4,0-6.6.4-1,.2-1.8.5-2.6,1.1-.7.5-1.1,1.3-1.1,2.1h.2Z"/>
  <path class="st38" d="M332.8,104.5c-.7,1.3-1,2.9-.8,4.4,0,.3,0,.6.2.8.2.3.5.5.9.6,2.7.9,5.3-1.4,8.2-1.6h2.1c.9-.2,1.7-.6,2.5-1.1s1.6-1,2.4-1.6c1.9-1.4,1.1-3.8-.5-5.1-1.4-1.2-2.5-1-4.1-.4-3.3,1.1-8.7.6-10.9,3.8h0v.2Z"/>
  <path class="st38" d="M316,104.9c-.6.3-.9,1-.7,1.6.2,1.8.9,3.6,1.9,5,.4.7,1.1,1.2,1.8,1.4,1.4.2,2.4-1.2,3.7-1.8s3,0,4.2-.9c1-.6,1.3-1.9,1.4-3.1.2-2.3-3.5-3.9-5.4-4.4-2.3-.6-5.1.7-6.9,2h0v.2Z"/>
  <path class="st38" d="M339.6,39.6c.2,0,.4-.1.6-.1.3,0,.6.3.7.6.1.3.2.6.2,1s0,1-.1,1.4c-.1.9-.7,1.7-1.6,2-.8.2-1.6-.3-1.8-1.1-.4-1.4.8-3.2,2-3.7h0Z"/>
  <path class="st12" d="M339.1,42.1c.1-.2,0-.6,0-.8s.4-.5.8-.7h.1c.3.6.4,1.2.2,1.9,0,.2-.2.4-.3.6-.2.2-.4.3-.6.2-.3,0-.5-.3-.6-.6,0-.5.3-.3.5-.6h-.1Z"/>
  <path class="st39" d="M350.7,106.2l.4,3.7-18.2,9.2-29.6-.8-16.1-21.5c-.4-.5-.3-1.3.2-1.7.2-.2.4-.2.7-.3l32.6-2.4,10.6,22.1,2,.3,17.3-8.5h.1Z"/>
  <path class="st13" d="M351,108.9c0,.6-.2,1.1-.7,1.4l-17,8.6c-.2,0-.4.2-.7.2l-28.6-.8c-.4,0-.8-.2-1-.5l-15.6-20.8c-.4-.6-.3-1.5.3-1.9.2,0,.4-.2.6-.2l31.4-2.3c.2,0,.5,0,.7,0,.3,0,.5.3.7.6l10.2,21.3,2,.3,17.3-8.5.3,2.8h0v-.3Z"/>
  <path class="st15" d="M351.2,109.9l-.8.4c-3.3,1.8-15.2,8.2-17,8.6-2.1.5-3.7-1.4-3.7-1.4l-11.5-23,2.4-1.9c.3,0,.5.3.7.6l10.2,21.3,2,.3,17.3-8.5.3,2.8v.9h.1Z"/>
  <path class="st36" d="M336.4,41.8c0,.6,0,1.3.5,1.6.8-1,.8-2.6,1.8-3.5.5-.4,1.1-.7,1.4-1.3.1-.3.2-.6.2-.9,0-1.7-.9-3.2-2.2-4.2-.5-.4-1-.6-1.6-.7-1.3-.2-3.1.8-2.8,2.3.2.7.9,1.2,1.3,1.8.4.7.8,1.3,1,2.1.3.9.5,1.8.5,2.7h0Z"/>
</svg>