<?xml version="1.0" encoding="UTF-8"?>
<svg id="Layer_1" xmlns="http://www.w3.org/2000/svg" version="1.1" viewBox="0 0 600 225">
  <!-- Generator: Adobe Illustrator 29.8.2, SVG Export Plug-In . SVG Version: 2.1.1 Build 3)  -->
  <defs>
    <style>
      .st0 {
        isolation: isolate;
      }

      .st0, .st1 {
        opacity: .1;
      }

      .st2 {
        fill: #ff603b;
      }

      .st3 {
        fill: #ff98b9;
      }

      .st4 {
        fill: #ebebeb;
      }

      .st5 {
        fill: #dbdbdb;
      }

      .st6 {
        fill: #37474f;
      }

      .st7 {
        fill: #263238;
      }

      .st8 {
        fill: #f7a9a0;
      }

      .st9 {
        fill: #c7c7c7;
      }

      .st10 {
        fill: #a6a6a6;
      }

      .st11 {
        fill: #fff;
      }

      .st12 {
        fill: #ffe4d6;
      }

      .st13 {
        fill: #455a64;
      }

      .st14 {
        fill: #cc8a58;
      }
    </style>
  </defs>
  <g>
    <path class="st7" d="M250.2,392.6h-120.1c-14.4,0-26.2-11.8-26.2-26.2V65.4c0-14.4,11.8-26.2,26.2-26.2h120.1c14.4,0,26.2,11.8,26.2,26.2v301c0,14.4-11.8,26.2-26.2,26.2h0Z"/>
    <path class="st12" d="M250.2,49.9h-23.2c-3.3,0-5.7,2.7-5.7,5.9h0v4.2c0,3.3-2.4,5.8-5.7,5.9h-45.4c-3.3,0-5.7-2.7-5.7-5.9h0v-4.2c0-3.3-2.4-5.8-5.7-5.9h-28.6c-10.1,0-18.3,8.2-18.3,18.3v293.8c0,10.1,8.1,18.3,18.3,18.3h119.8c10.1,0,18.3-8.1,18.3-18.3h0V68.2c0-10.1-8.2-18.3-18.3-18.3s0,0,0,0h.1Z"/>
    <g class="st1">
      <path class="st11" d="M191.1,106.4c-17,.6-30.4,14.9-29.9,32h0s21.8.1,26.8-8.8c5-8.9,3.1-23.2,3.1-23.2h0Z"/>
    </g>
    <path class="st7" d="M193,161.2h1.6c.4-.1.8-.1,1.3-.3l1.6-.3c.3,0,.6,0,.8-.3l.8-.3c.3,0,.7-.1,1-.3l1-.4c.3-.1.7-.3,1-.4l1.1-.6c1.6-.8,3.1-1.8,4.4-3.1l1.1-1c.1-.1.4-.3.6-.6s.3-.4.6-.6c.3-.4.7-.8,1-1.3l1-1.3.3-.3s0-.3.1-.4l.4-.7.4-.7c.1-.3.3-.6.4-.8.3-.6.4-1,.7-1.6l.6-1.7c.7-2.4,1-4.8.8-7.4,0-2.4-.6-5-1.4-7.2-.3-.6-.4-1.1-.7-1.7s-.6-1-.8-1.6c0-.3-.3-.6-.4-.7l-.4-.7-.4-.7s-.1-.3-.3-.3l-.3-.3-1-1.3-1.1-1.1-.6-.6c-.1-.1-.4-.3-.6-.6l-1.1-1c-1.4-1.1-3-2-4.7-2.8l-1.1-.4c-.4-.1-.7-.3-1.1-.4l-1-.3c-.3,0-.7-.1-1-.3l-1-.3c-.3,0-.6,0-.8-.1h-1.6c-.4-.3-.8-.3-1.3-.3h-1.4,4.2c.3.1.6.3.8.3h1c.3.3.7.3,1,.4l1,.3c.4,0,.7.3,1.1.4l1.1.4c1.7.7,3.3,1.7,4.7,2.8l1.1,1,.6.6.6.6,1.1,1.1,1,1.3.3.3.3.4.4.7.4.7c.1.3.3.6.4.7.3.6.6,1,.8,1.6l.7,1.7c1.7,4.7,2,9.9.6,14.7l-.6,1.7c-.3.6-.4,1.1-.7,1.6,0,.3-.3.6-.4.8s-.3.4-.4.7l-.4.7s0,.3-.3.4l-.3.3-1,1.3c-.3.4-.7.8-1,1.3l-.6.6c-.1.1-.4.4-.6.6l-1.1,1c-1.4,1.1-2.8,2.3-4.5,3.1l-1.1.6c-.4.1-.7.3-1.1.4l-1,.4c-.3,0-.7.3-1,.3l-1,.3c-.3,0-.6.1-.8.3l-1.6.3c-.4,0-.8,0-1.3.1h-1.7.7Z"/>
    <path class="st11" d="M166.4,152.7s0-.1-.1-.3l-.4-.7c-.1-.3-.4-.7-.6-1.1s-.4-1-.7-1.6l-.4-.8c0-.3-.3-.7-.3-1-.3-.7-.4-1.4-.7-2.3-.4-1.7-.7-3.5-.8-5.2v-5.4c0-.8.1-1.6.3-2.3,0-.4,0-.7.1-1l.3-1c0-.6.3-1.1.4-1.6,0-.4.3-.8.4-1.1l.3-.7v-.3.3l-.3.7c0,.3-.3.7-.4,1.1s-.3,1-.4,1.6c0,.3,0,.6-.1,1s0,.7-.1,1c0,.7-.1,1.4-.3,2.3-.1,1.7-.1,3.5,0,5.2s.4,3.5.8,5.2c.3.8.4,1.6.7,2.3,0,.3.3.7.3,1l.3.8c.3.6.4,1.1.7,1.6s.4.8.6,1.1l.4.7v.3h.1Z"/>
    <path class="st11" d="M185.3,134.6c-.3-.1-.6-.4-.7-.7-1-1.3-1-3.1,0-4.4.1-.3.4-.6.7-.7,0,0-.3.3-.6.7-.4.6-.7,1.4-.7,2.1s.3,1.4.7,2.1c.3.4.6.7.6.7h0Z"/>
    <path class="st11" d="M190.2,125.5s0-.4-.1-1,0-1,0-1c0,.3.1.7.1,1v1Z"/>
    <path class="st11" d="M192.9,112.7h-4.2c-.6,0-1,0-1.6.3-2.4.4-4.8,1.3-7.1,2.4-.6.3-1,.6-1.4.8s-.8.6-1.1.7-.7.4-1,.7-.6.4-.7.6-.4.3-.6.4c.1-.1.3-.4.6-.6.1-.1.4-.4.7-.6s.6-.4,1-.7.7-.6,1.1-.8.8-.6,1.4-.8c1.1-.6,2.3-1.1,3.4-1.4,1.1-.4,2.4-.7,3.7-.8.6,0,1.1-.1,1.7-.1h4.1Z"/>
    <path class="st11" d="M197,166.5c-.1,0-.4,0-.6.1-.4,0-.8.1-1.6.3-1.7.3-3.4.4-5.1.3-1.7,0-3.4-.4-5.1-1-.6-.1-1.1-.4-1.4-.6-.1,0-.3,0-.6-.3.1,0,.4,0,.6.1.3,0,.8.3,1.4.4,3.3.8,6.7,1.1,10.1.7.7,0,1.1-.1,1.6-.3h.7Z"/>
    <path class="st2" d="M227.4,137.2v-3.5c0-.4-.1-1-.3-1.4-.1-1.3-.4-2.4-.7-3.7-.8-3.3-2.1-6.5-4-9.3-5.2-8.6-13.9-14.6-23.8-16.4-1.4-.3-3-.4-4.4-.6h-4.5c-.4,0-.8,0-1.1.1h-1.1c-.8.3-1.6.4-2.4.6-3.3.7-6.4,1.8-9.2,3.4-.7.4-1.4.8-2.1,1.3s-1.4.8-2.1,1.4c-1.4,1-2.7,2.1-4,3.4-1.3,1.3-2.4,2.7-3.4,4.1-2.1,3-3.8,6.2-5,9.6-2.4,7.2-2.4,14.9,0,22.1l1,2.5c.4.8.8,1.7,1.1,2.4.1.4.4.8.7,1.1l.7,1.1.7,1.1.8,1.1c2,2.8,4.5,5.4,7.4,7.5.7.6,1.4,1,2.1,1.4s1.4.8,2.1,1.3c3,1.6,6.1,2.7,9.2,3.4.8.1,1.6.3,2.4.4h1.1c.4.1.8.1,1.1.3h4.5c1.4,0,3-.3,4.4-.6,9.9-1.8,18.5-7.8,23.8-16.4,1.8-2.8,3.1-6.1,4-9.3.3-1.1.6-2.4.7-3.7,0-.6.1-1,.3-1.4s0-.8,0-1.3v-2.3,3.5c0,.4-.1,1-.3,1.4,0,1.3-.4,2.4-.7,3.7-.8,3.3-2.1,6.5-3.8,9.5-5.2,8.8-13.9,14.9-23.9,16.8-1.4.3-3,.4-4.5.6h-4.7c-.4,0-.8,0-1.1-.1h-1.1c-.8-.3-1.6-.4-2.4-.6-1.6-.4-3.3-.8-4.7-1.4-1.6-.6-3.1-1.3-4.7-2-.7-.4-1.4-.8-2.3-1.3-.7-.4-1.4-1-2.1-1.4-1.4-1-2.8-2.1-4-3.4-1.3-1.3-2.4-2.7-3.5-4.1l-.8-1.1-.7-1.1-.7-1.1c-.3-.4-.4-.8-.7-1.3-.4-.8-.8-1.7-1.3-2.5s-.7-1.7-1-2.7c-2.4-7.2-2.4-15.1,0-22.4,1.1-3.5,2.8-6.8,5.1-9.8,2.1-3,4.7-5.5,7.5-7.5.7-.6,1.4-1,2.1-1.4s1.4-.8,2.3-1.3c1.6-.8,3.1-1.4,4.7-2s3.1-1,4.7-1.4c.8-.1,1.6-.3,2.4-.4h1.1c.4-.3.8-.3,1.1-.3h4.7c1.6,0,3,.3,4.5.6,10.1,2,18.7,8.1,23.8,16.8,1.7,3,3.1,6.1,3.8,9.5.3,1.1.6,2.4.7,3.7,0,.6.1,1,.1,1.4v3.4h.3Z"/>
    <path class="st2" d="M232.4,137.7v-4c0-.6-.1-1.1-.3-1.7s-.1-1.3-.3-2c0-.7-.3-1.4-.6-2.3-1-3.8-2.4-7.4-4.4-10.6-2.7-4.4-6.1-8.2-10.2-11.3l-1.7-1.3c-.6-.4-1.3-.7-1.8-1.1s-1.3-.8-2-1.1l-2.1-1-1-.6-1.1-.4-2.3-.8c-.7-.3-1.6-.4-2.4-.6-.8-.3-1.6-.4-2.4-.6-1.7-.3-3.4-.6-5.1-.6h-5.2c-.4,0-.8,0-1.3.3h-1.3c-.8.4-1.8.4-2.7.7-1.8.4-3.5,1-5.4,1.6-1.8.7-3.5,1.4-5.2,2.3s-1.7,1-2.5,1.6c-.4.3-.8.6-1.3.8l-1.1.8c-1.6,1.1-3.1,2.4-4.5,3.8s-2.7,3-4,4.7l-.8,1.3-.8,1.3-.8,1.3-.4.7-.3.7c-.4,1-.8,1.8-1.4,2.8l-1.1,3c-2.7,8.2-2.7,17,0,25.2.4,1,.7,2,1.1,3s.8,1.8,1.4,2.8l.3.7.4.7.8,1.3.8,1.3.8,1.3.8,1.3.4.6.6.6,2,2.3c1.4,1.4,3,2.7,4.5,3.8l1.1.8c.4.3.8.6,1.3.8.8.4,1.7,1,2.5,1.4,1.7.8,3.4,1.7,5.2,2.3,1.7.7,3.5,1.1,5.4,1.6.8.1,1.8.3,2.7.4h1.3c.4.3.8.1,1.3.3h5.2c1.7,0,3.4-.3,5.1-.6.8,0,1.6-.3,2.4-.6.8-.1,1.6-.4,2.4-.6l2.3-.8,1.1-.4,1-.6,2.1-1c.7-.3,1.3-.7,2-1.1s1.3-.7,1.8-1.1l1.7-1.3c4.1-3.1,7.5-6.9,10.2-11.3,2-3.3,3.5-6.9,4.4-10.6.3-.7.4-1.4.6-2.3,0-.7.3-1.3.3-2s.1-1.1.3-1.7,0-1,0-1.4v-2.5,4.1c0,.6-.1,1.1-.3,1.7s-.1,1.3-.3,2c0,.7-.3,1.4-.6,2.3-.8,3.8-2.4,7.4-4.4,10.8-2.7,4.4-6.1,8.4-10.2,11.5l-1.7,1.3c-.6.4-1.3.8-1.8,1.1s-1.3.8-2,1.1l-2.1,1-1.1.6-1.1.4-2.3.8c-.7.3-1.6.4-2.4.7-.8.3-1.6.4-2.4.6-1.7.3-3.4.6-5.1.6h-5.4c-.4,0-.8,0-1.3-.1h-1.4c-.8-.4-1.8-.4-2.7-.7-1.8-.4-3.7-1-5.4-1.6-1.8-.7-3.5-1.4-5.2-2.3-.8-.4-1.7-1-2.5-1.6-.4-.3-.8-.4-1.3-.8l-1.1-.8c-1.6-1.1-3.1-2.5-4.5-4l-2.1-2.3-.6-.6-.4-.6-1-1.3-1-1.3-.8-1.3-.8-1.3-.4-.7-.3-.7c-.4-1-.8-1.8-1.4-2.8l-1.1-3c-2.8-8.4-2.8-17.3,0-25.6l1.1-3c.4-1,.8-1.8,1.4-2.8l.3-.7.4-.7.8-1.3.8-1.3.8-1.3c1.3-1.7,2.5-3.3,4-4.7s3-2.7,4.5-4l1.1-.8c.4-.3.8-.6,1.3-.8.8-.6,1.7-1,2.5-1.6,1.7-.8,3.5-1.7,5.2-2.3,1.7-.7,3.5-1.1,5.4-1.6.8-.1,1.8-.3,2.7-.4h1.3c.4-.3.8-.3,1.4-.3h5.4c1.7,0,3.4.3,5.1.6.8,0,1.7.3,2.4.6.8.3,1.6.4,2.4.7l2.3.8,1.1.4,1.1.6,2.1,1c.7.3,1.3.7,2,1.1s1.3.7,1.8,1.1l1.7,1.3c4.1,3.1,7.6,7.1,10.2,11.5,2,3.4,3.5,6.9,4.4,10.8.1.7.4,1.4.6,2.3,0,.7.1,1.4.3,2s.1,1.1.3,1.7,0,1,0,1.4v2.7l.4-.4Z"/>
    <g>
      <path class="st2" d="M191.3,245.7c-11.2,0-20.1-9.1-20.1-20.1s9.1-20.1,20.1-20.1,20.1,9.1,20.1,20.1-9.1,20.1-20.1,20.1ZM191.3,206.4c-10.6,0-19.1,8.6-19.1,19.1s8.6,19.1,19.1,19.1,19.1-8.6,19.1-19.1-8.6-19.1-19.1-19.1Z"/>
      <polygon class="st2" points="182.7 225.5 185.4 222.7 190.8 227.5 199.6 218.4 202.2 221.1 190.4 232.9 182.7 225.5"/>
    </g>
    <g>
      <path class="st2" d="M225.2,137.6c0,17.7-14.2,32.1-31.9,32.1s-32.1-14.2-32.1-31.9,14.2-32,31.9-32.1c17.7,0,32.1,14.2,32.3,31.9h0s0,0,0,0h-.1Z"/>
      <g class="st1">
        <path d="M193.3,167.5c-16.4.1-29.9-13.2-29.9-29.6-.1-16.4,13.2-29.9,29.6-29.9,16.4-.1,29.9,13.2,29.9,29.6h0c0,16.4-13.2,29.9-29.6,29.9ZM219.8,138.1c.3-14.7-11.5-26.9-26.3-27-14.7-.3-26.9,11.5-27,26.3-.3,14.7,11.3,26.8,26.1,27,14.7.3,26.9-11.3,27.3-26.1h0v-.3h0Z"/>
        <path d="M192.9,119h3.1v4.4c0,.4.1.6.6.6,1.3.1,2.5.4,3.8.7,3.1,1,4.7,3.3,4.4,6.7,0,.6,0,1.1-.3,1.7-.3,1.6-1.3,2.7-2.5,3.3-.3.1-.6.3-1,.6.6.3,1,.4,1.4.6,2.3,1,4,3.4,3.8,5.9,0,1.3,0,2.5-.6,3.7-.6,1.6-1.7,2.8-3.3,3.5-1.8.7-3.7,1.1-5.7,1.1s-.7,0-.6.6v3.5c0,.3,0,.4-.4.4h-2.7v-4.1c0-.3,0-.4-.4-.4h-1.8v4.5h-3.1v-4.5h-7.5v-5.1h2.3v-17.7h-2.3v-5.1h7.5v-5h3.1v5h2.3v-5h.1-.3ZM192.6,139.7h-1.6c-.3,0-.4,0-.4.4v6.1c0,.4.1.6.4.4h2.7c1.7,0,3.1-1.1,3.3-2.8.4-1.8-.6-3.7-2.4-4.1h-1.1c0-.1-1-.1-1-.1h.1ZM190.5,132.3v2.5c0,.3,0,.4.4.4h2.7c1,0,1.7-.7,1.8-1.7s.1-1.3,0-1.8c0-1.4-1.3-2.4-2.7-2.4h-2.1c-.3,0-.4,0-.4.4v2.5h.3Z"/>
      </g>
      <path class="st11" d="M211.7,118.7c2.5,2.4,4.7,5.4,6.1,8.5,1.4,3.3,2.1,6.8,2.3,10.3s-.6,7.1-2,10.3c-2.7,6.7-7.9,12-14.6,14.7-3.3,1.4-6.8,2.1-10.3,2.1s-7.1-.7-10.3-2.1c-3.3-1.4-6.1-3.4-8.6-5.9,7.8,7.4,19.1,9.5,29,5.2,6.4-2.8,11.5-7.9,14.2-14.3,4.1-9.9,1.8-21.2-5.7-28.9h0Z"/>
      <path class="st0" d="M174.2,156.7c-2.5-2.4-4.7-5.4-6.1-8.6-1.4-3.3-2.1-6.8-2.3-10.3s.6-7.1,2-10.3c2.7-6.7,7.9-12,14.6-14.7,3.3-1.3,6.8-2.1,10.3-2.1,7.2,0,13.9,3,18.8,8.1-7.8-7.4-19.1-9.5-29-5.4-6.4,2.8-11.5,7.8-14.2,14.3-4.1,9.9-1.8,21.2,5.5,28.9h0l.3.3Z"/>
      <path class="st11" d="M180,129.2v-5.1h0c0-.1.1-.1.1-.1h7.5-.1c0,.1,0-2.3,0-2.3v-2.5,5.1h0c0,.1-.1.1-.1.1h-7.5.1c0-.1,0,2.4,0,2.4v2.5h0Z"/>
      <path class="st11" d="M180.3,152v-5.1h0c0-.1.1,0,.1,0h2.3-.1c0,.1,0-4.2,0-4.2v-13.2c0,1.4,0,3,.1,4.4s0,3,0,4.4v8.8h0c0,.1-.1.1-.1.1h-2.3v5.1h-.1v-.3Z"/>
      <path class="st11" d="M191.2,146.8h2.8c.8-.1,1.8-.7,2.3-1.4.6-.8.7-1.7.6-2.7,0-.4-.1-.8-.4-1.4s-.6-.8-1-1.1c.8.4,1.6,1.4,1.7,2.4.3,1,0,2.1-.4,3-.6.8-1.6,1.4-2.7,1.4s-2,0-3-.1h.1Z"/>
      <path class="st11" d="M191.1,135.3c.8,0,1.7-.1,2.4-.1s1.4-.6,1.7-1.3.4-1.4.3-2.3c0-.7-.4-1.6-1-2.1.7.6,1.1,1.3,1.4,2,.1.8,0,1.7-.3,2.4-.4.8-1.1,1.3-2.1,1.4h-2.4Z"/>
      <path class="st11" d="M187.8,151.9c0,.7.3,1.4.1,2.3,0,.7,0,1.6-.1,2.3,0-.7-.3-1.4-.1-2.3,0-.7,0-1.6.1-2.3h0Z"/>
      <path class="st11" d="M192.9,152c.3,1.4.3,3,0,4.4-.3-1.6-.3-3,0-4.4Z"/>
    </g>
  </g>
  <path class="st7" d="M44.2,393l-1.1-.7.7-1.1,1.2.7c-.2.4-.5.7-.7,1.2h-.1Z"/>
  <g>
    <rect class="st5" x="358.5" y="218.4" width="1.9" height="50.4" transform="translate(-1.9 484.4) rotate(-67.8)"/>
    <rect class="st5" x="362.3" y="190.3" width="1.9" height="58.3" transform="translate(28.5 480.2) rotate(-69.1)"/>
    <rect class="st10" x="314.2" y="192" width="1.9" height="66.6" transform="translate(-9.4 13.8) rotate(-2.5)"/>
    <rect class="st10" x="242.1" y="216.5" width="94.7" height="1.9" transform="translate(-34.1 55) rotate(-10.3)"/>
    <path class="st10" d="M251.4,269.4l-14.5-66.3,99.1-16,1,69.3h-.8c0,.1-84.7,13.1-84.7,13.1ZM239.2,204.6l13.7,62.6,82.2-12.5-.9-65.4-95,15.3Z"/>
    <rect class="st10" x="290.5" y="195.7" width="1.9" height="66.3" transform="translate(-23.3 33.3) rotate(-6.3)"/>
    <path class="st5" d="M377.3,272.5l-42.2-16.3v-69.1l64.5,18.7-22.2,66.7ZM337,254.9l39.2,15.1,21-62.9-60.2-17.5v65.3Z"/>
    <rect class="st5" x="319.8" y="226.5" width="66.7" height="1.9" transform="translate(81.1 547.5) rotate(-82.4)"/>
    <path class="st8" d="M369.6,346.8c2.1.7,60.6,0,62.8-1.5.8-.5,1.2-9.1,1.4-19.4v-.3c0-2.1,0-4.3,0-6.5v-.9c0-14.9-.2-30.4-.2-30.4l-39.2.4,1.2,30.1v1.2s.3,6.2.3,6.2v.6s-22.3,10.3-24.5,12.2-3.9,7.8-1.9,8.4Z"/>
    <path class="st4" d="M369.6,346.8c2.1.7,60.6,0,62.8-1.5.8-.5,1.2-9.1,1.4-19.4v-.3c0-2.1,0-4.3,0-6.5v-.9h-38.1c0,.1,0,1.3,0,1.3l.2,6.2v.6s-22.3,10.3-24.5,12.2c-2.3,1.8-3.9,7.8-1.9,8.4Z"/>
    <path class="st2" d="M369.6,346.8c1.3.4,23.9.3,41.7-.2,11.1-.3,20.2-.8,21.1-1.3s1.2-8.8,1.4-19v-.8h-37.7v.7s-22.3,10.3-24.5,12.1-4,7.7-1.9,8.4Z"/>
    <path class="st7" d="M370.2,344.6c9.9-.4,49.7-.9,59.5-.6,0,0,0,0,0,0-9.8.6-49.6.8-59.5.7-.2,0-.2-.2,0-.2Z"/>
    <path class="st7" d="M391.8,325.8c3.9-.8,8.6-.2,11.6,2.5.1.1,0,.3-.2.2-3.7-1.2-7.6-1.9-11.5-2.2-.1,0-.2-.1-.2-.2s.1-.2.2-.2Z"/>
    <path class="st7" d="M389,327.5c3.9-.8,8.6-.2,11.6,2.5.1.1,0,.3-.2.2-3.7-1.1-7.6-1.9-11.4-2.2-.1,0-.3,0-.3-.2s0-.3.2-.3Z"/>
    <path class="st7" d="M386.3,329.2c3.9-.8,8.6-.2,11.6,2.5.1.1,0,.3-.2.2-3.7-1.1-7.6-1.9-11.4-2.2-.1,0-.2-.1-.2-.3,0,0,0-.2.2-.2Z"/>
    <path class="st7" d="M388.5,322.9c2.8,2.1,6.4,2.9,9.6,4.1.3,0,.5,0,.6-.3,0,0,0,0,0-.1,0,0,.1,0,0-.1-1.2-3.4-3.3-6.5-6.1-8.8-1.6-1.3-4.5-2.3-6-.1s.2,4.3,1.8,5.5ZM387.4,319.8c-.7-4.3,3.9-2.1,5-1,.7.7,1.4,1.4,2.1,2.2,1.3,1.6,2.5,3.3,3.7,5.1-1.5-.7-3.1-1.2-4.7-1.8-1.9-.7-5.7-2.1-6.1-4.4Z"/>
    <path class="st7" d="M411.7,320.3c-.9-2.4-4-2.2-5.9-1.3-3.2,1.7-6,4.1-8,7.2,0,0,0,.1,0,.1,0,0,0,0,0,0,0,.2,0,.5.3.6,0,0,.1,0,.2,0,3.4-.4,7.1-.3,10.3-1.8,1.8-.9,3.9-2.7,3-4.9ZM403.4,325.4c-1.7.2-3.3.4-5,.7,1.6-1.4,3-2.8,4.7-4.1.8-.6,1.7-1.2,2.5-1.7,1.4-.7,6.4-1.8,4.7,2.2-.9,2.2-5,2.6-6.9,2.9h0Z"/>
    <path class="st7" d="M375.1,336.8c2.2,0,4.4.8,5.9,2.3,1.4,1.4,2.2,3.3,2.3,5.2,0,0-.1,0-.1,0-.7-4-4.1-7-8.1-7.4,0,0,0,0,0,0,0,0,0,0,0,0Z"/>
    <path class="st7" d="M427.1,335c4.4,0,4.5,6.9,0,6.9s-4.5-6.8,0-6.9Z"/>
    <g id="freepik--9kwdk1--inject-3836">
      <path class="st2" d="M369.9,217.6c4.3,27.1-14,52.6-41.1,56.9-27.1,4.3-52.6-14-56.9-41.1-4.3-27,14-52.4,41-56.9,27.1-4.4,52.6,13.9,57,41h0q0,0,0,0h0Z"/>
      <g class="st1">
        <path d="M328.3,270.9c-25.1,4.2-48.9-12.9-52.9-38-4.2-25.1,12.9-48.9,38-52.9,25.1-4.2,48.9,12.9,52.9,38h0c4.1,25.2-12.9,48.9-38,52.9ZM361.8,219.6c-3.2-22.7-24.1-38.4-46.8-35.1-22.7,3.2-38.4,24.1-35.1,46.8,3.2,22.5,23.9,38.2,46.4,35.2,22.7-3.1,38.5-23.9,35.6-46.5v-.2h-.1Z"/>
        <path d="M316,196.8l4.7-.7.2,1.4c.2,1.8.6,3.7.9,5.4,0,.7.4.7,1.1.7,2,0,3.9,0,5.9.1,5,.7,7.9,3.9,8.4,9.1,0,.9.1,1.8,0,2.7,0,2.3-1.2,4.4-3.2,5.7-.5.4-.9.6-1.5,1.1.9.2,1.6.4,2.3.5,3.8,1,6.8,4.2,7.3,8.2.5,1.8.5,3.8.1,5.8-.5,2.6-2,4.8-4.2,6.2-2.6,1.6-5.4,2.7-8.4,3.2-.7.1-1,.4-.7,1.1.4,1.8.6,3.6.9,5.4,0,.5,0,.7-.5.7l-4.1.6c0-.6-.2-1.1-.2-1.7-.2-1.5-.5-3.1-.7-4.6,0-.5-.2-.7-.9-.6-.9.1-1.7.2-2.7.5.4,2.3.7,4.6,1.1,6.9l-4.7.7c-.4-2.3-.7-4.6-1.1-6.9l-11.6,2c-.5-2.7-.9-5.2-1.4-7.9l3.4-.6-4.4-27-3.4.6c-.4-2.6-.9-5.2-1.2-7.9l11.6-1.8c-.4-2.6-.9-5-1.2-7.6l4.7-.7,1.2,7.5,3.4-.6c-.5-2.5-.9-4.9-1.4-7.5h.2ZM320.6,228.7c-.7,0-1.6.2-2.3.4-.5,0-.6.2-.6.7.5,3.1,1.1,6.3,1.6,9.4,0,.6.4.7.9.6,1.4-.2,2.7-.5,4.1-.7,2.6-.4,4.4-2.6,4.3-5.2.2-2.8-1.8-5.4-4.7-5.7h-1.7l-1.6.2v.2h.1ZM315.6,217.7c.2,1.4.5,2.7.6,3.9,0,.5.2.6.7.5,1.4-.2,2.8-.5,4.2-.7,1.5-.2,2.5-1.6,2.5-3.1s0-2-.2-3c-.5-2.1-2.6-3.4-4.7-3.1h0c-1.1.1-2.1.4-3.2.5-.5,0-.6.2-.6.7.2,1.2.5,2.6.6,3.9h0v.2h.1Z"/>
      </g>
      <path class="st11" d="M344.9,191.9c4.6,3.1,8.4,7,11.3,11.6,3,4.7,4.9,9.8,5.9,15.3s.7,11-.5,16.4c-2.5,10.8-9.2,20.3-18.7,26.1-4.7,3-9.8,4.8-15.4,5.7-5.4.9-11,.6-16.3-.7-5.3-1.4-10.2-3.7-14.7-7,13.7,9.5,31.5,9.8,45.7,1.1,9.1-5.8,15.8-14.9,18.2-25.4,3.8-16.1-2.3-33-15.6-43h0Z"/>
      <path class="st0" d="M296.4,259c-4.6-3.1-8.4-7-11.3-11.7-3-4.7-4.9-9.8-5.9-15.3s-.7-11,.5-16.4c2.5-10.8,9.4-20.3,18.8-26.1,4.7-2.8,10-4.8,15.4-5.7,11-1.7,22,1.1,30.9,7.9-13.7-9.5-31.5-10-45.7-1.2-9.1,5.8-15.8,14.8-18.3,25.4-3.9,16.1,2.2,33,15.5,43h.1Z"/>
      <path class="st11" d="M298.9,215.6c-.1-.6-.2-1.4-.4-2s-.2-1.4-.4-2l-.7-3.9v-.2h.2c3.8-.7,7.8-1.4,11.6-1.8l-.2.4-.5-3.8-.2-2c0-.6-.1-1.2-.2-2l.4,2,.4,1.8.7,3.8v.2h-.2c-3.8.7-7.8,1.4-11.6,2l.2-.4.5,3.9c0,.6.1,1.4.2,2s.1,1.4.2,2Z"/>
      <path class="st11" d="M304.7,250.5c-.2-1.4-.5-2.6-.7-3.9s-.5-2.6-.7-3.9v-.2h.2l3.4-.6-.2.4-1.1-6.8c-.4-2.2-.7-4.6-1.1-6.8s-.7-4.6-1-6.8-.6-4.6-.9-6.8c.5,2.2.9,4.4,1.4,6.8s.9,4.4,1.2,6.8.7,4.4,1.1,6.8l1.1,6.8v.2h-.2l-3.4.5v-.2c.4,1.4.6,2.6.7,3.9s.2,2.7.5,4.1h-.2,0Z"/>
      <path class="st11" d="M320.2,239.8c.7-.2,1.5-.4,2.2-.5l2.2-.5c1.4-.4,2.6-1.4,3.2-2.6.6-1.4.6-2.8.2-4.2-.2-.7-.5-1.4-1-2s-1-1.1-1.7-1.5c1.5.5,2.7,1.7,3.2,3.2.6,1.5.6,3.2,0,4.7-.7,1.5-2.1,2.6-3.7,2.8-1.5.2-3,.4-4.6.5h-.1Z"/>
      <path class="st11" d="M317.2,222.3c1.2-.4,2.5-.6,3.6-.9,1.1-.4,2-1.2,2.3-2.3s.4-2.3,0-3.4c-.4-1.1-1.1-2.2-2.1-3,1.1.6,2.1,1.6,2.6,2.7.5,1.2.6,2.6.2,3.8-.5,1.4-1.5,2.3-2.8,2.7-1.4.2-2.5.2-3.7.4h-.1Z"/>
      <path class="st11" d="M316.1,248.5c.4,1.1.7,2.2.9,3.4.2,1.1.2,2.3.2,3.4-.4-1.1-.7-2.2-.9-3.4-.2-1.1-.2-2.3-.2-3.6h0Z"/>
      <path class="st11" d="M324.1,247.4c.7,2.2,1.2,4.6,1.1,6.8-.9-2.2-1.2-4.6-1.1-6.8Z"/>
    </g>
    <path class="st7" d="M411.3,346.6c11.1-.3,20.2-.8,21.1-1.3s1.2-8.8,1.4-19c-4.5,4.1-15.8,14.1-22.5,20.3Z"/>
    <path class="st13" d="M445.7,119.1s-8.8,98.9-10.2,106.5c-.3,1.7-.5,11.1-.7,23.1-.3,26.2-.1,73.5-.1,73.5h-41.3s1.2-81.9,3-97c1.8-15.1,13.5-106,13.5-106h35.7Z"/>
    <path class="st7" d="M395.3,315c6.4-.1,4.6-.2,11-.2,3.2,0,23.9-.2,26.8.3,0,0,0,.1,0,.1-2.9.5-23.7.3-26.8.3-6.4,0-4.6-.1-11-.3,0,0,0,0,0,0s0,0,0,0h0Z"/>
    <path class="st7" d="M426.9,268.2v-17.9c.1-5.8.1-11.6.4-17.4.6-11.7,2.9-23.3,4.6-34.8,1.7-11.6,3.1-23.2,4.4-34.9,1.4-13.1,2.7-26.2,4-39.3,0,0,.1,0,.1,0-1.9,23.4-4.1,46.7-7.3,69.9-.8,5.8-1.7,11.5-2.6,17.3-.9,5.8-1.9,11.7-2.4,17.5s-.5,11.6-.6,17.3c0,6-.1,12-.2,17.9-.1,13.3-.3,33.7-.4,47,0,.1,0,.2-.2.2s-.2,0-.2-.2h0c0-11.8.2-30.9.3-42.7Z"/>
    <path class="st7" d="M454.4,119.1s-17.5,98.9-18.9,106.5c-.3,1.7-.5,11.1-.7,23.1h0l-19.7-129.5h39.3Z"/>
    <path class="st8" d="M417.5,350.3c2.1.5,60.4-4.4,62.5-6,.8-.6.6-9.1,0-19.4v-.3c-.1-2.1-.2-4.3-.4-6.5,0-.3,0-.6,0-.9-.9-14.9-2.3-30.3-2.3-30.3l-39,3.2,3.3,29.9v1.2c.1,0,.8,6.2.8,6.2v.6c0,0-21.4,11.9-23.5,13.9s-3.4,8-1.3,8.5Z"/>
    <path class="st4" d="M417.5,350.3c2.1.5,60.4-4.4,62.5-6,.8-.6.6-9.1,0-19.4v-.3c-.1-2.1-.2-4.3-.4-6.5,0-.3,0-.6,0-.9l-38,2.8v1.2c.1,0,.8,6.2.8,6.2v.6c0,0-21.4,11.9-23.5,13.9-2.1,2-3.4,8-1.3,8.5Z"/>
    <path class="st2" d="M417.5,350.3c2.1.5,60.4-4.4,62.5-6,.8-.6.6-9.1,0-19.4v-.3l-37.7,2.7v.6c0,0-21.4,11.9-23.5,13.9s-3.4,8-1.3,8.5Z"/>
    <path class="st7" d="M418,348c9.8-1.1,49.5-4.4,59.3-4.7,0,0,0,0,0,0-9.7,1.3-49.4,4.3-59.3,4.9-.2,0-.2-.2,0-.2Z"/>
    <path class="st7" d="M438.2,327.8c3.8-1,8.6-.8,11.8,1.7.1.1,0,.3-.1.2-3.8-.9-7.7-1.4-11.6-1.4-.1,0-.2-.1-.2-.3,0,0,0-.2.2-.2Z"/>
    <path class="st7" d="M435.5,329.7c3.8-1,8.6-.8,11.8,1.7.1,0,0,.3-.1.2-3.8-.9-7.7-1.4-11.6-1.4-.1,0-.2-.1-.2-.3,0,0,0-.2.2-.2Z"/>
    <path class="st7" d="M432.9,331.6c3.8-1,8.6-.8,11.8,1.7.1,0,0,.3-.1.2-3.8-.9-7.7-1.4-11.6-1.4-.1,0-.2-.1-.2-.3,0,0,0-.2.2-.2Z"/>
    <path class="st7" d="M434.6,325.1c2.9,1.9,6.6,2.5,9.9,3.4.3,0,.6-.2.6-.5,0,0,0,0,0-.1,0,0,0,0,0,0-1.5-3.3-3.8-6.2-6.7-8.4-1.7-1.2-4.6-1.9-6,.3s.5,4.3,2.2,5.4ZM433.4,322.1c-1-4.2,3.7-2.3,4.9-1.4.8.6,1.5,1.3,2.2,2,1.4,1.5,2.8,3.1,4,4.8-1.6-.5-3.2-.9-4.8-1.4-1.9-.6-5.8-1.7-6.4-4Z"/>
    <path class="st7" d="M457.6,320.8c-1.1-2.3-4.1-1.9-5.9-.8-3.1,1.9-5.7,4.5-7.4,7.7,0,0,0,.1,0,.1,0,0,0,0,0,0,0,.3.2.7.5.6,3.4-.6,7-.8,10.1-2.5,1.8-1,3.7-2.9,2.7-5.1ZM449.7,326.5c-1.6.3-3.3.6-4.9,1,1.4-1.5,2.9-3,4.4-4.4.8-.7,1.6-1.3,2.4-1.8,1.3-.8,6.2-2.2,4.8,1.8-.8,2.2-4.8,3-6.7,3.4h0Z"/>
    <path class="st7" d="M421.4,340.2c2.2-.3,4.4.4,6.1,1.8,1.5,1.3,2.5,3.1,2.7,5,0,0-.1,0-.1,0-1.1-3.9-4.6-6.7-8.7-6.7,0,0,0,0,0,0,0,0,0,0,0,0Z"/>
    <path class="st7" d="M473.1,334c4.4-.4,5.1,6.4.7,6.9s-5.1-6.4-.7-6.9Z"/>
    <path class="st13" d="M440.7,324.4l41.2-1.7s-11.2-90.5-11.5-96c-.5-14.4-10.1-107.5-10.1-107.5h-50.3s3.2,21.5,8.6,35.1c3.7,1.3,7.2,2.9,10.5,4.8,0,0,4.7,61.6,4.9,69.3.3,15.2,6.7,96.1,6.7,96.1Z"/>
    <path class="st7" d="M441.8,316.9c6.4-.4,4.6-.4,11-.7,3.2-.2,23.8-1.2,26.8-.9,0,0,0,0,0,0s0,0,0,0h0c-2.9.6-23.6,1.3-26.8,1.4-6.4.2-4.6,0-11,.2,0,0,0,0,0,0,0,0,0,0,0,0Z"/>
    <path class="st7" d="M456.6,124.6c1.9,23.5,3.8,46.9,5.9,70.3,2.2,23.4,4.7,47,7.7,70.4,1.7,13.1,3.6,31.5,5.7,44.5,0,0-.1.1-.1,0-4.2-23.2-7.2-51.9-9.8-75.3s-4.7-46.8-6.6-70.3c-1.1-13.3-2-26.5-3-39.8,0-.2.2-.2.3,0Z"/>
    <path class="st7" d="M416.8,153.3c4.3,1.6,8.4,3.5,12.3,5.7.2,0,0,.3-.1.2-4.2-1.8-8.4-3.5-12.4-5.5-.1,0-.2-.2-.1-.4,0-.1.2-.2.4-.1h0Z"/>
    <path class="st7" d="M415.4,124.8c0-.1.3-.2.3,0,0,4.9.3,9.3.7,13.9.2,2.1,1.9,14,5.7,13.1.6-.2.9-.8,1-1.7,0-1.2-.2-2.4-.5-3.6-.4-2.5-.7-5-.9-7.5-.4-4.7-.4-9.3.2-14,0,0,0-.1.1-.1s.1,0,.1.1c-.1,6.5.3,12.9,1.1,19.3.5,3.1,2,7.7-1.2,8.2s-5.4-7.3-5.8-9.4c-1-6-1.3-12.2-.7-18.3Z"/>
    <path class="st7" d="M421.9,152.1c.3.8.6,1.6.8,2.5.2.6.4,1.3.3,2,0,0-.1,0-.2,0,0,0,0,0,0,0-.4-.6-.7-1.3-.9-2-.3-.8-.6-1.5-.8-2.3,0-.2.2-.4.4-.4.2,0,.3,0,.4.2Z"/>
    <polygon class="st9" points="255 326.7 254.9 324.8 354.4 319.7 347.1 275.3 348.9 275 356.7 321.5 255 326.7"/>
    <circle class="st6" cx="260.6" cy="331" r="10.4"/>
    <path class="st4" d="M255.9,331c0,2.6,2.1,4.7,4.7,4.7s4.7-2.1,4.7-4.7-2.1-4.7-4.7-4.7-4.7,2.1-4.7,4.7Z"/>
    <circle class="st6" cx="340.4" cy="331" r="10.4"/>
    <path class="st4" d="M335.7,331c0,2.6,2.1,4.7,4.7,4.7s4.7-2.1,4.7-4.7-2.1-4.7-4.7-4.7-4.7,2.1-4.7,4.7Z"/>
    <polygon class="st9" points="272.8 338.2 272.7 336.3 372.3 331.2 362.6 273 364.5 272.7 374.5 332.9 272.8 338.2"/>
    <circle class="st6" cx="278.5" cy="342.4" r="10.4"/>
    <path class="st4" d="M273.7,342.5c0,2.6,2.1,4.7,4.7,4.7s4.7-2.1,4.7-4.7-2.1-4.7-4.7-4.7-4.7,2.1-4.7,4.7Z"/>
    <circle class="st6" cx="358.4" cy="345.2" r="10.4"/>
    <path class="st4" d="M353.5,342.5c0,2.6,2.1,4.7,4.7,4.7s4.7-2.1,4.7-4.7-2.1-4.7-4.7-4.7-4.7,2.1-4.7,4.7Z"/>
    <rect class="st10" x="265.4" y="199.7" width="1.9" height="66.1" transform="translate(-32.8 44) rotate(-8.9)"/>
    <rect class="st10" x="247.1" y="239.8" width="89.5" height="1.9" transform="translate(-32.2 45.5) rotate(-8.4)"/>
    <rect class="st5" x="337.4" y="232.4" width="67.3" height="1.9" transform="translate(61.9 544.1) rotate(-77.3)"/>
    <rect class="st5" x="316.1" y="160.5" width="55.9" height="1.9" transform="translate(90.6 444.7) rotate(-73.3)"/>
    <rect class="st5" x="376.4" y="175.9" width="61.4" height="1.9" transform="translate(120.8 516) rotate(-73.3)"/>
    <rect class="st7" x="382.2" y="104.2" width="3.8" height="73.8" transform="translate(168.5 488.8) rotate(-78.4)"/>
    <path class="st14" d="M331.2,216.9c-.1,0-.2,0-.3,0,0,0,0,0-.1,0-2.5-.5-5.1-.3-7.5.7-.2,0-.4.2-.5.2,0-.8,0-1.7-.1-2.5,2.9-1,6-.6,8.6,1.1,0,0,0,0,0,0h0c.1.2.2.4,0,.5Z"/>
    <path class="st5" d="M285.8,283.8l-34.4-14.4v-.5c-.1,0-14.6-66.2-14.6-66.2l42.7,17.5,6.3,63.5ZM253.1,268l30.5,12.8-5.9-59.2-38.3-15.7,13.6,62.2Z"/>
    <rect class="st5" x="254.9" y="208.5" width="1.9" height="64.2" transform="translate(-37.8 47.9) rotate(-10)"/>
    <rect class="st5" x="267.8" y="214.6" width="1.9" height="63.1" transform="translate(-32 40.3) rotate(-8.1)"/>
    <rect class="st5" x="263.4" y="241.1" width="1.9" height="36.5" transform="translate(-67.9 422.9) rotate(-70.7)"/>
    <rect class="st5" x="260.8" y="213.4" width="1.9" height="40.6" transform="translate(-52 390.9) rotate(-68.4)"/>
    <path class="st4" d="M285.7,283.8l-8.2-63.7,122.1-14.5-22.3,66.9h-.6c0,0-91,11.2-91,11.2ZM279.7,221.7l7.7,59.9,88.6-10.9,21-63-117.2,13.9Z"/>
    <rect class="st4" x="307.5" y="217.6" width="1.9" height="61.7" transform="translate(-20.4 27.7) rotate(-5)"/>
    <rect class="st4" x="305.3" y="244.1" width="62.6" height="1.9" transform="translate(72.6 566.9) rotate(-86.7)"/>
    <rect class="st4" x="331.2" y="241" width="64.8" height="1.9" transform="translate(58.3 554.2) rotate(-79.3)"/>
    <rect class="st4" x="280.3" y="233.7" width="111.1" height="1.9" transform="translate(-24.1 39) rotate(-6.4)"/>
    <rect class="st4" x="282.7" y="257.5" width="100.4" height="1.9" transform="translate(-25.1 36) rotate(-6)"/>
    <path class="st8" d="M422.6,68.7c-5.1,8-23.8,36.8-35.5,36.8s-30.9-12-36.2-16c-6.2-4.7,10.4-19.6,14.6-17.9,5.2,2.2,19.6,10.5,22.9,10.5s11.6-9.6,27.9-20.2c8.4-5.5,10.7,0,6.3,6.8Z"/>
    <path class="st8" d="M351.5,89.8c-2.2-1.1-11.9-6.8-14.3-9s-8.6-9-7.1-11,3.5-.1,3.5-.1c0,0-2.2-3.3-.5-5.2s4.7,1.1,4.7,1.1c0,0-2-3.6-.2-5.3s4.4,1.8,4.4,1.8c0,0-2-3.2.1-4,2.5-.9,5.5,5.3,8.3,7.5.6.5,13.5,9.4,13.5,9.4l-12.4,14.6Z"/>
    <path class="st7" d="M341.8,61.9c2.2,4.6,4,6.2,8.3,8.9,0,0,0,.2,0,.1-4.4-2.2-6.9-3.9-8.4-8.9,0-.2.1-.3.2-.1Z"/>
    <path class="st7" d="M337.6,65.3c2.7,4.6,4.6,6.3,8.9,9.4,0,0,0,.2,0,.1-4.4-2.7-6.9-4.5-9-9.4-.1-.2,0-.3.2-.1Z"/>
    <path class="st7" d="M333.8,69.9c3,4.2,5,6.3,9.5,8.8,0,0,0,.1,0,.1,0,0,0,0,0,0-4.2-1.6-7.6-4.8-9.5-8.8-.2-.3,0-.4.1-.1Z"/>
    <path class="st7" d="M353.2,58.6c-.5,3.5,2.8,6.4,4.9,8.9.1.1.1.3,0,.4,0,0,0,0,0,0-2,2.4-4.2,6.3-3.3,9.4,0,0,0,0,0,0,0,0,0,0,0,0-1.3-3.3.5-7.3,2.8-9.7-2.2-2.5-5.4-5.5-4.2-9.1,0,0,0,0,0,0Z"/>
    <path class="st2" d="M396.1,74.1l15.8,14.1s9-10.8,12.7-21.1c3.7-10.3-5.2-9.1-11.4-4.9s-17,12-17,12Z"/>
    <path class="st7" d="M413.5,84.8c-4.7-3.8-9.1-8-13.3-12.3,0,0,0-.1,0,0,1.1,1.1,8.1,7.1,13.3,12.3,0,0,0,.1,0,0Z"/>
    <path class="st7" d="M424.5,67c-3.7,10.3-12.7,21.1-12.7,21.1l-7.3-6.5c4.8-6.6,12.6-17.4,16.4-22.6,3.5-.2,5.7,1.9,3.5,8Z"/>
    <path class="st2" d="M404.6,132.5c.9.9,59,.4,59.3,0,.8-1-8.1-38.5-14.8-52.7-8.6-18.2-13.1-19.7-15.8-20.8-3.5-1.3-12.5-.8-14,0-1.7.8-5.9,9.3-7.9,16-4,13.5-7.7,56.6-6.8,57.5Z"/>
    <path class="st8" d="M442,75.9c-.3,17.9-1,39-6,45-7.5,9-26.2,18.3-33.9,20-3.2.7-12.1-23.4-8.7-24.1,7.3-1.5,24-8.4,25.5-9.9s7.2-18.7,11.8-32.2c5.5-16.2,11.4-9,11.3,1.3Z"/>
    <path class="st8" d="M397.2,115.8s-9.6,2.5-15.9,4.4c-3.5,1.1-9.3,3.4-11.5,5.4-3.3,2.9-15.2,17.2-11.8,20.1,3.1,2.7,11.7-10.9,11.7-10.9,0,0-9.9,12.9-5.7,15.5s12-14.1,12-14.1c0,0-9.9,13.5-5.1,15.4,3.7,1.5,11.5-13.2,11.5-13.2,0,0-8.4,11.7-4.7,13.3,4.1,1.8,12.2-11.2,12.2-11.2,10.1,2.6,16-.3,19.9-2.8,1-.6-12.9-21.8-12.9-21.8Z"/>
    <path class="st7" d="M373,130.1c-1.2,1.5-2.5,3-3.6,4.5s-2.1,3.2-3.1,4.9c-1.3,2.2-2.3,4.5-3,6.9,1.6-4.1,5.4-9.9,6.5-11.4s2.1-3.2,3.2-4.8c0,0,0,0,0,0Z"/>
    <path class="st7" d="M378.8,133.9c-2.1,1.7-6.5,7.8-8.2,12,0,.2,0,.2.1,0,1.3-2,6.7-10,8.1-11.9,0,0,0,0,0,0Z"/>
    <path class="st7" d="M384.3,136.3c-2.6,2.7-4.7,5.9-6.1,9.4,0,.2,0,.1.2,0,2-3.2,3.5-5.7,6-9.4,0,0,0,0-.1,0Z"/>
    <path class="st2" d="M422.6,91.4l20.9,3.1s1.6-13.9-1-24.6-9.3-4.7-12.3,2.2-7.6,19.3-7.6,19.3Z"/>
    <path class="st7" d="M442.8,90.4c-6-.5-12-1.4-17.9-2.6,0,0,0-.1,0-.1,1.6.3,10.7,1.3,17.9,2.6.1,0,.1.1,0,.1Z"/>
    <path class="st7" d="M425.5,84.3c.9-2.4,2.3-5.7,3.1-8.2h0c-.6,1.3-1.2,2.5-1.7,3.8v-.2c.2-.7.3-1.5.4-2.2h0c-.2.7-.4,1.4-.5,2.2,0,.5-.2.9-.2,1.4-.3.7-1,2.4-1.3,3-.5,1.2-3,7.4-2.9,7.5s2.1.2,2.5.3c.1,0,.1-.2,0-.1-.4,0-2-.3-2.1-.3.4-1.2,1-2.4,1.5-3.6s.9-2.4,1.4-3.6Z"/>
    <path class="st7" d="M444.7,80.7c-.2.6-.3,1.3-.4,1.9,0,.2,0,.4,0,.7,0-1.6-.2-3.1-.4-4.7,0,0,0,0,0,0,.2,2.6.1,5.2,0,7.9,0,1.3,0,2.6-.2,3.8,0,.7,0,1.3-.1,2s-.1,2.2-.1,2.2c-.4,0-1.6-.2-2-.3-.1,0-.1,0,0,0,.4,0,2.2.4,2.2.4,0-.7.2-1.5.2-2.2s.1-1.3.2-1.9c0-1.3.2-2.7.2-4.1v-2.2c.1-.6.2-1.1.3-1.7s.2-1.3.3-1.9c0,0,0-.1-.1,0Z"/>
    <path class="st8" d="M421,68.3c3.2.9,9.1-3.7,11.6-7.6.2-.3,0-3.2-.2-6.8,0-2.2-.1-4.6,0-6.9,0-.5-14.2,2.6-14.2,2.6.6,2.8.9,5.7.8,8.6,0,.3,0,.6-.2.9,0,0,0,.1,0,.2-.4,1.7-1,8.1,2.1,9Z"/>
    <path class="st7" d="M431.5,47c-.9,3.8-3.8,12.7-11.2,12.4-.5,0-1,0-1.4-.2,0,0,0-.1,0-.2,0-.3.1-.6.2-.9,0-2.9-.2-5.8-.8-8.6,0,0,10.3-2.1,13.3-2.5Z"/>
    <path class="st8" d="M433.2,29.1c1.9,4.8.4,19.3-2.8,22.8-4.7,5-13,6.1-17.4.3-4.3-5.7-2-24.5,1.7-27.7,5.4-4.7,15.8-2.5,18.6,4.6Z"/>
    <path class="st7" d="M420.2,38.9s0,0,0,0c-.1.9-.1,2.1.7,2.5,0,0,0,0,0,0-1.1-.3-1.1-1.8-.8-2.7Z"/>
    <path class="st7" d="M421.2,38c1.6,0,1.4,3.2,0,3.2s-1.3-3.2,0-3.2Z"/>
    <path class="st7" d="M414.7,38.6s0,0,0,0c0,.9-.2,2.1-1.1,2.4h0c1.1,0,1.3-1.5,1.2-2.5Z"/>
    <path class="st7" d="M413.9,37.5c-1.6-.2-1.9,2.9-.4,3.1s1.7-3,.4-3.1Z"/>
    <path class="st7" d="M422.5,36.6c-.4-.1-.8-.3-1.2-.5-.4-.1-.8-.4-1.1-.7-.1-.3,0-.6.2-.8.5-.3,1.1-.4,1.7,0,.6.2,1.1.6,1.3,1.1.2.4,0,.8-.3,1-.2,0-.3,0-.5,0Z"/>
    <path class="st7" d="M412.8,35.9c.4,0,.9-.1,1.3-.3.5,0,.9-.2,1.3-.5.2-.2.2-.6,0-.8-.4-.4-1.1-.6-1.6-.4-.6,0-1.2.4-1.5.8-.2.3-.2.8.1,1,.1.1.3.2.5.1Z"/>
    <path class="st7" d="M421.3,48.1c-.3.2-.5.5-.9.5-.4,0-.7-.1-1-.3,0,0,0,0,0,0,.3.4.7.6,1.2.6.4,0,.7-.4.8-.8,0,0,0,0,0,0Z"/>
    <path class="st7" d="M420.4,45.1c-.5.8-1.4,1.2-2.3,1.4-.4,0-.8,0-1.2,0,0,0-.2,0-.2,0,0,0-.1,0-.2,0-.1,0-.2-.1-.2-.2h0s0,0,0,0h0c0-.8.2-2,.2-2-.3.1-1.7.7-1.7.3.3-3.4.9-6.7,1.9-10,0-.1.2,0,.2,0-.2,3.1-1,6.2-1.3,9.4.5-.2,1.1-.3,1.6-.4.1,0-.3,2.2-.3,2.5h0c1.2.2,2.5-.1,3.5-.9,0-.1.2,0,0,0Z"/>
    <path class="st7" d="M417.4,46.1c.4.6.9,1,1.5,1.3.3.2.7.2,1.1.1.8-.2.9-.9.7-1.5,0-.3-.2-.6-.3-.9-.9.6-1.9,1-3,1Z"/>
    <path class="st3" d="M418.9,47.4c.3.2.7.2,1.1.1.8-.2.9-.9.7-1.5-.9,0-1.6.5-1.8,1.4Z"/>
    <path class="st7" d="M412.8,30.1c4.8,3.3,11.3-1.7,11.3-1.7.8,2.1,3,3.5,5.3,3.3,0,0,.9,8.1,3.1,8.1,3.3,0,4.3-11.1,3.3-13.3s-3.8-2.7-3.8-2.7c-.3-1.3-1.1-2.5-2.2-3.2-2.2-1.7-9.9.6-9.9.6-.4-1-1.1-1.9-2-2.7-.8-.7-2.1-.6-2.8.2,0,0,0,0,0,0,.4.6.7,1.3.8,2,.4,2.4-1.6,2.4-1.5.2,0-.8.2-1.6.8-2.2-.9-1.4-2.5-1.9-3.5-1.1-1.7,1.4-2.7,9.7,1.3,12.4Z"/>
    <path class="st8" d="M431,40.9s3-4.8,5.1-3.8.1,7.9-2.3,8.9c-1.2.6-2.7.2-3.4-1.1,0,0,0,0,0,0l.6-4Z"/>
    <path class="st7" d="M435.5,39.1s0,0,0,0c-1.7.8-2.5,2.5-3,4.2.3-.7,1.2-1,1.9-.6,0,0,.1,0,.2.1,0,0,0,0,0,0,0,0,0,0,0,0-.6-.2-1.3,0-1.7.6-.3.4-.5.9-.7,1.4,0,.2-.4,0-.3,0h0c-.2-2.2,1.3-5.4,3.7-5.8Z"/>
    <g id="freepik--9kwdk1--inject-38361" data-name="freepik--9kwdk1--inject-3836">
      <path class="st2" d="M356.2,75.5c-8.8,12.5-26,15.5-38.5,6.7s-15.5-26-6.7-38.5c8.8-12.4,26-15.4,38.4-6.7,12.5,8.8,15.5,26,6.8,38.5h0s0,0,0,0h0Z"/>
      <g class="st1">
        <path d="M318.9,80.5c-11.6-8.1-14.4-24.1-6.3-35.7,8.1-11.6,24.1-14.4,35.7-6.3,11.6,8.1,14.4,24.1,6.3,35.7h0c-8.2,11.6-24.1,14.4-35.7,6.3ZM352.2,73.1c7.5-10.3,5.3-24.7-5-32.1-10.3-7.5-24.7-5.3-32.1,5-7.5,10.2-5.3,24.5,4.8,32.1,10.2,7.6,24.6,5.5,32.2-4.7h0c0,0,0-.1,0-.1h0Z"/>
        <path d="M342.8,46.2l2.1,1.5-.4.6c-.6.8-1.2,1.7-1.8,2.5-.3.3-.1.4.2.7.8.8,1.6,1.5,2.3,2.3,1.7,2.3,1.6,4.6-.2,6.9-.3.3-.7.8-1.1,1.1-.9.9-2.2,1.3-3.5,1-.3,0-.6,0-1-.1.2.4.5.8.7,1.1,1.1,1.9,1.1,4.3-.3,6.1-.5.9-1.3,1.7-2.2,2.4-1.2.8-2.7,1.1-4.1.8-1.7-.4-3.2-1-4.6-2-.3-.2-.5-.2-.7.2-.6.9-1.1,1.7-1.8,2.5-.2.2-.3.3-.5.1l-1.9-1.3c.2-.2.3-.5.6-.8.5-.7,1-1.4,1.5-2.1.2-.2.2-.4-.1-.6-.4-.3-.8-.6-1.3-.9-.8,1.1-1.5,2.1-2.2,3.2l-2.1-1.5c.8-1.1,1.5-2.1,2.2-3.2l-5.4-3.7c.9-1.3,1.7-2.4,2.5-3.7l1.6,1.1,8.7-12.5-1.6-1.1c.9-1.2,1.7-2.4,2.6-3.6l5.3,3.8c.9-1.2,1.6-2.3,2.5-3.5l2.1,1.5-2.4,3.5,1.6,1.1c.8-1.2,1.6-2.3,2.4-3.5h0q0,0,0,0ZM332.2,60.7c-.3-.3-.7-.5-1.1-.8-.2-.2-.3-.1-.5,0-1,1.4-2,2.9-3,4.3-.2.2-.1.4.1.6.6.4,1.3.9,1.9,1.3,1.2.9,2.8.7,3.7-.4,1.2-1,1.4-2.9.3-4.1l-.7-.7-.7-.5h0c0,0,0,.1,0,.1ZM334.5,54.4c-.4.6-.9,1.3-1.3,1.8-.2.2-.1.3.1.5.6.4,1.3.9,2,1.3.7.5,1.6.3,2.2-.3s.8-.8,1.1-1.3c.6-1,.3-2.4-.7-3h0c-.5-.4-1-.7-1.5-1-.2-.2-.3-.1-.5,0-.4.6-.8,1.2-1.3,1.8h0c0,0,0,.1,0,.1Z"/>
      </g>
      <path class="st11" d="M356.2,55.5c.6,3,.6,6,0,9-.6,3-1.9,5.8-3.6,8.4s-4,4.6-6.6,6.3c-5.2,3.4-11.6,4.5-17.6,3.1-3-.6-5.8-1.9-8.3-3.7-2.5-1.8-4.6-4-6.2-6.6-1.6-2.6-2.6-5.4-3.1-8.5,1.8,9.1,8.7,16.2,17.8,18.2,5.9,1.2,12.1.2,17.1-3,7.8-4.9,11.9-14,10.5-23.2h0Z"/>
      <path class="st0" d="M310.9,63.4c-.6-3-.6-6,0-9.1.6-3,1.9-5.8,3.6-8.4s4-4.6,6.6-6.3c5.2-3.4,11.6-4.4,17.6-3.1,3,.7,5.8,2,8.3,3.7,5,3.6,8.3,9,9.2,15.1-1.8-9.1-8.7-16.2-17.7-18.2-5.9-1.2-12-.2-17.2,3-7.8,4.9-11.9,14-10.5,23.1h0s0,0,0,0Z"/>
      <path class="st11" d="M328.7,47.1c.2-.3.4-.6.6-.9s.4-.6.6-.9l1.2-1.9h0c0,0,0,0,0,0,1.8,1.2,3.6,2.5,5.3,3.8h-.2c0,0,1.3-1.7,1.3-1.7l.7-.9c.2-.2.4-.5.7-.9l-.6.9-.6.9-1.2,1.8h0c0,0,0,0,0,0-1.8-1.2-3.6-2.5-5.4-3.7h.2c0,0-1.3,1.7-1.3,1.7-.2.2-.5.6-.7.9s-.5.6-.7.9Z"/>
      <path class="st11" d="M317.4,63.2c.4-.6.8-1.2,1.2-1.9s.8-1.2,1.2-1.9h0c0,0,0,0,0,0l1.6,1.1h-.2c0,0,2.2-3.1,2.2-3.1.7-1,1.5-2.1,2.2-3.1s1.5-2.1,2.2-3.1,1.5-2.1,2.3-3c-.7,1.1-1.4,2.1-2.1,3.2s-1.4,2.1-2.1,3.2-1.4,2.1-2.2,3.1l-2.2,3.1h0c0,0,0,0,0,0l-1.6-1.1h0c-.4.6-.8,1.2-1.2,1.8s-1,1.2-1.4,1.8h0c0,0,0-.1,0-.1Z"/>
      <path class="st11" d="M327.8,65c.4.2.7.4,1.1.7l1.1.7c.7.4,1.6.5,2.3.2.8-.3,1.3-.9,1.7-1.6.2-.4.3-.7.4-1.2s0-.8-.1-1.3c.4.8.4,1.7,0,2.5-.3.8-1,1.5-1.8,1.9-.9.3-1.8.2-2.6-.3-.7-.5-1.3-1-2-1.6h0s0,0,0,0Z"/>
      <path class="st11" d="M333.4,56.9c.6.3,1.2.7,1.8,1,.6.3,1.3.3,1.8,0s1.1-.8,1.3-1.4c.3-.6.4-1.3.3-2,.2.7.2,1.5,0,2.1-.3.7-.8,1.3-1.4,1.6-.7.3-1.5.4-2.2,0-.6-.4-1.1-.9-1.6-1.3h0s0,0,0,0Z"/>
      <path class="st11" d="M322.8,66.9c-.3.6-.6,1.2-1,1.7-.3.5-.8,1-1.2,1.5.3-.6.6-1.2,1-1.7.3-.5.8-1,1.3-1.5h0Z"/>
      <path class="st11" d="M326.4,69.5c-.6,1.2-1.3,2.3-2.2,3.1.5-1.2,1.3-2.3,2.2-3.1Z"/>
    </g>
    <path class="st8" d="M368.5,74.7c-.8-3-1.9-5.9-3.2-8.7-1.4-2.5-10-10-11.7-8.2-2.2,2.3,1.9,7.6,4.3,9.9,0,0-5.2,5.3-3,9.7,2.1,4.4,13.7-2.7,13.7-2.7Z"/>
  </g>
</svg>