<?xml version="1.0" encoding="UTF-8"?>
<svg id="Layer_1" xmlns="http://www.w3.org/2000/svg" version="1.1" viewBox="0 0 600 225">
  <!-- Generator: Adobe Illustrator 29.8.2, SVG Export Plug-In . SVG Version: 2.1.1 Build 3)  -->
  <defs>
    <style>
      .st0 {
        fill: none;
      }

      .st1 {
        fill: #ff603b;
      }

      .st2 {
        fill: #dbdbdb;
      }

      .st3 {
        fill: #37474f;
      }

      .st4 {
        fill: #263238;
      }

      .st5 {
        fill: #f7a9a0;
      }

      .st6 {
        fill: #ff9bbc;
      }

      .st7 {
        fill: #c7c7c7;
      }

      .st8 {
        fill: #fff;
      }

      .st9 {
        fill: #ffe4d6;
      }

      .st10 {
        fill: #455a64;
      }
    </style>
  </defs>
  <g>
    <path class="st4" d="M242.1,381.2l-124.7-.6c-15,0-27.1-12.3-27.1-27.3h0l1.3-312.7c0-15,12.3-27.2,27.3-27.1h0l124.7.6c15,0,27.1,12.3,27.1,27.3l-1.3,312.7c0,15-12.3,27.1-27.3,27.1h0Z"/>
    <path class="st9" d="M244.9,25h-24.2c-3.4,0-5.9,2.7-5.9,6h0v4.4c0,3.4-2.6,6-5.9,6.2h-47.2c-3.4-.2-5.9-3-5.8-6.3h0v-4.4c.1-3.4-2.5-6-5.8-6.3h-29.6c-10.5-.1-19,8.3-19.1,18.8h0l-1.3,305.2c0,10.5,8.4,19,18.9,19.1h0l124.5.6c10.5,0,19-8.4,19.1-18.9h0l1.2-305.2c0-10.5-8.4-19.1-18.9-19.1h.1Z"/>
    <g id="freepik--qr-code--inject-243">
      <polygon class="st4" points="134.2 138 134.2 143.3 139.5 143.3 139.5 138 139.5 132.7 134.2 132.7 134.2 138"/>
      <rect class="st4" x="134.2" y="106.2" width="5.3" height="5.3"/>
      <rect class="st4" x="167" y="164.6" width="5.3" height="5.3"/>
      <polygon class="st4" points="139.5 116.8 139.5 122.1 134.2 122.1 134.2 127.4 139.5 127.4 139.5 132.7 144.8 132.7 150.1 132.7 150.1 138 155.4 138 155.4 132.7 160.7 132.7 160.7 127.4 160.7 122.1 155.4 122.1 155.4 127.4 150.1 127.4 144.8 127.4 144.8 122.1 144.8 116.8 144.8 111.5 139.5 111.5 139.5 116.8"/>
      <polygon class="st4" points="150.1 106.2 144.8 106.2 144.8 111.5 150.1 111.5 155.4 111.5 155.4 106.2 150.1 106.2"/>
      <polygon class="st4" points="174 148.8 176.8 148.8 176.8 143.5 174 143.5 171.1 143.5 171.1 148.8 174 148.8"/>
      <rect class="st4" x="155.4" y="111.5" width="5.3" height="5.3"/>
      <rect class="st4" x="192.6" y="132.7" width="5.3" height="5.3"/>
      <rect class="st4" x="197.9" y="74.3" width="5.3" height="5.3"/>
      <polygon class="st4" points="171.3 116.8 171.3 111.5 176.6 111.5 176.6 106.2 171.3 106.2 171.3 100.9 166 100.9 166 106.2 160.7 106.2 160.7 111.5 166 111.5 166 116.8 166 122.1 166 127.4 166 132.7 171.3 132.7 171.3 127.4 171.3 122.1 176.6 122.1 176.6 116.8 171.3 116.8"/>
      <polygon class="st4" points="197.9 169.9 203.2 169.9 203.2 164.6 197.9 164.6 192.6 164.6 192.6 169.9 197.9 169.9"/>
      <rect class="st4" x="187.2" y="74.3" width="5.3" height="5.3"/>
      <polygon class="st4" points="191.2 116.8 191.2 111.5 185.9 111.5 185.9 106.2 180.6 106.2 180.6 111.5 180.6 116.8 175.3 116.8 175.3 122.1 180.6 122.1 185.9 122.1 185.9 116.8 191.2 116.8"/>
      <rect class="st4" x="215.9" y="106.2" width="5.3" height="5.3"/>
      <rect class="st4" x="160.9" y="132.7" width="5.3" height="5.3"/>
      <polygon class="st4" points="187.2 100.9 187.2 95.6 192.6 95.6 192.6 90.3 197.9 90.3 203.2 90.3 203.2 84.9 197.9 84.9 197.9 79.6 192.6 79.6 192.6 84.9 187.2 84.9 187.2 90.3 181.9 90.3 181.9 95.6 176.6 95.6 176.6 100.9 181.9 100.9 187.2 100.9"/>
      <polygon class="st4" points="187.2 138 187.2 132.7 192.6 132.7 192.6 127.4 187.2 127.4 181.9 127.4 181.9 132.7 176.6 132.7 176.6 138 181.9 138 187.2 138"/>
      <polygon class="st4" points="203.2 159.3 203.2 153.9 197.9 153.9 192.6 153.9 192.6 148.6 187.2 148.6 187.2 153.9 181.9 153.9 181.9 159.3 176.6 159.3 171.3 159.3 171.3 164.6 176.6 164.6 181.9 164.6 187.2 164.6 187.2 159.3 192.6 159.3 192.6 164.6 197.9 164.6 197.9 159.3 203.2 159.3"/>
      <polygon class="st4" points="181.9 79.6 181.9 74.3 176.6 74.3 171.3 74.3 171.3 79.6 166 79.6 166 84.9 171.3 84.9 176.6 84.9 176.6 79.6 181.9 79.6"/>
      <rect class="st4" x="176.6" y="84.9" width="5.3" height="5.3"/>
      <polygon class="st4" points="195.2 106.2 189.9 106.2 189.9 111.5 189.9 116.8 189.9 122.1 195.2 122.1 200.5 122.1 200.5 116.8 195.2 116.8 195.2 111.5 200.5 111.5 200.5 106.2 205.8 106.2 205.8 100.9 200.5 100.9 200.5 95.6 195.2 95.6 195.2 100.9 195.2 106.2"/>
      <rect class="st4" x="171.3" y="90.3" width="5.3" height="5.3"/>
      <polygon class="st4" points="192.6 143.3 192.6 148.6 197.9 148.6 203.2 148.6 203.2 143.3 208.5 143.3 213.8 143.3 213.8 138 208.5 138 203.2 138 197.9 138 197.9 143.3 192.6 143.3"/>
      <rect class="st4" x="215.9" y="122.1" width="5.3" height="5.3"/>
      <rect class="st4" x="197.9" y="127.4" width="5.3" height="5.3"/>
      <polygon class="st4" points="216.4 111.5 211.1 111.5 205.8 111.5 205.8 116.8 211.1 116.8 211.1 122.1 216.4 122.1 216.4 116.8 216.4 111.5"/>
      <rect class="st4" x="208.5" y="127.4" width="5.3" height="5.3"/>
      <path class="st4" d="M155.4,159.4h15.9v-21.3h-21.3v5.3h-5.2v5.3h5.2v5.3h-5.2v5.3h5.2c0,.1.1.1.1.1v5.2h-5.3v10.6h5.3v-5.3h5.3v-10.5ZM167.2,142.1v13.3h-13.3v-13.3h13.3Z"/>
      <polygon class="st4" points="224.4 138 229.7 138 229.7 132.7 224.4 132.7 219.1 132.7 213.8 132.7 213.8 138 219.1 138 224.4 138"/>
      <polygon class="st4" points="224.4 116.8 229.7 116.8 229.7 111.5 229.7 106.2 224.4 106.2 224.4 111.5 224.4 116.8"/>
      <polygon class="st4" points="182.1 143.5 176.8 143.5 176.8 148.8 176.8 154.2 182.1 154.2 182.1 148.8 182.1 143.5"/>
      <rect class="st4" x="229.7" y="138" width="5.3" height="5.3"/>
      <polygon class="st4" points="235 127.4 235 122.1 229.7 122.1 229.7 127.4 229.7 132.7 235 132.7 235 127.4"/>
      <polygon class="st4" points="139.5 164.6 134.2 164.6 134.2 169.9 134.2 175.2 139.5 175.2 139.5 169.9 139.5 164.6"/>
      <path class="st4" d="M235,100.9v-26.6h-26.6v26.6h26.6ZM212.4,96.9v-18.6h18.6v18.6h-18.6Z"/>
      <rect class="st4" x="216.4" y="82.3" width="10.6" height="10.6"/>
      <path class="st4" d="M235,148.6h-26.6v26.5h26.6v-26.5ZM212.4,171.2v-18.6h18.6v18.6h-18.6Z"/>
      <rect class="st4" x="216.4" y="156.6" width="10.6" height="10.6"/>
      <path class="st4" d="M134.1,74.3v26.6h26.5v-26.6h-26.5ZM156.7,78.3v18.6h-18.6v-18.6h18.6Z"/>
      <rect class="st4" x="142.1" y="82.3" width="10.6" height="10.6"/>
      <path class="st1" d="M126.5,92.8v-18.9c-.1-1.7.4-3.4,1.5-4.8,1.3-1.4,3.2-2.2,5.1-2.1h19.8c.3,0,.6-.3.6-.6s-.3-.6-.6-.6h-19.6c-1.7,0-3.3.3-4.7,1.2-2.1,1.4-3.3,3.7-3.3,6.2,0,3.1,0,6.2,0,9.3v10.3c0,.3.3.6.7.5.3,0,.5-.2.5-.5h0Z"/>
      <path class="st1" d="M151.3,184.1h-18.9c-1.7.1-3.4-.4-4.8-1.5-1.4-1.3-2.2-3.2-2.1-5.1v-19.8c0-.3-.3-.6-.6-.6s-.6.3-.6.6v19.6c0,1.7.3,3.3,1.2,4.7,1.4,2.1,3.7,3.3,6.2,3.3,3.1,0,6.2,0,9.3,0h10.3c.3,0,.6-.3.6-.6s-.3-.6-.6-.6h0Z"/>
      <path class="st1" d="M242,157.5v18.9c.1,1.7-.4,3.4-1.5,4.8-1.3,1.4-3.2,2.2-5.1,2.1h-19.8c-.3,0-.6.3-.6.6s.3.6.6.6h19.6c1.7,0,3.3-.3,4.7-1.2,2.1-1.4,3.3-3.7,3.3-6.2,0-3.1,0-6.2,0-9.3v-10.3c0-.3-.3-.6-.6-.6s-.6.3-.6.6h0Z"/>
      <path class="st1" d="M215.9,67h18.9c1.7-.1,3.4.4,4.8,1.5,1.5,1.3,2.2,3.2,2.1,5.1v19.9c0,.3.3.6.6.6s.6-.3.6-.6v-19.6c0-1.7-.3-3.3-1.2-4.7-1.4-2.1-3.7-3.3-6.2-3.3-3.1,0-6.2,0-9.3,0h-10.3c-.3,0-.6.3-.6.6s.3.6.6.6h0Z"/>
    </g>
  </g>
  <g id="freepik--Character--inject-34">
    <path class="st4" d="M309,54.8h-.5c0,0,0,0,0,0h.4Z"/>
    <path class="st0" d="M347,114.3h0"/>
    <path class="st0" d="M347,114.3h0"/>
    <path class="st5" d="M323.1,408.9h-.2v-.2l.2.2Z"/>
    <path class="st5" d="M343.3,98c6.4,31.7,27.3,82.6,29.4,89.8,1.8,6.1,38.6-5.3,36.1-8.9-3.2-4.5-35.7-61.7-51.3-82.4-12.9-17-17.1-13.4-14.1,1.5Z"/>
    <path class="st5" d="M407.1,176.3c3.8,5.1,9.8,19.5,11.2,24.3s4.3,19,.7,20.4-4.8-2.6-4.8-2.6c0,0,.3,6.1-3.4,7.3s-5.4-5.3-5.4-5.3c0,0-.1,6.4-3.9,7.2s-4.4-5.9-4.4-5.9c0,0,.1,5.8-3.3,5.2-4.1-.7-3.2-11.5-5.1-16.7-.4-1.2-10.5-23.3-10.5-23.3l28.9-10.5Z"/>
    <path class="st4" d="M397.8,221.8c.7-7.9-.4-11.5-3.9-18.4,0-.1.1-.3.2-.1,4.1,6.5,6.1,10.8,4.1,18.6-.1.3-.4.2-.4-.1Z"/>
    <path class="st4" d="M406.1,220.5c0-8.3-1.1-12.2-4.3-19.7,0-.1.1-.2.2,0,3.8,7.1,5.7,11.5,4.6,19.7,0,.4-.4.5-.4,0Z"/>
    <path class="st4" d="M414.8,217.6c-.6-8-1.6-12.3-5.7-19.3,0,0,0-.2,0-.2,0,0,.2,0,.2,0,4.8,6.7,6.1,12,5.7,19.4,0,.5-.2.6-.2,0Z"/>
    <path class="st5" d="M372.5,184s.5,9.9,1.6,14.3,11.4,18.8,14.7,16.8c4.2-2.6,0-12.2-2.8-16.6,0,0,9.8-6.1,8.2-13.6-1.6-7.5-21.7-.9-21.7-.9Z"/>
    <path class="st4" d="M389.7,214c2.1-5.2-1.8-10.7-4.1-15.2-.1-.2,0-.5.2-.6,0,0,0,0,.2,0,3.9-2.8,8.6-7.9,8.6-13,0,0,0,0,.2,0,0,0,0,0,0,0,.8,5.4-3.4,10.8-7.9,13.7,2.5,4.5,6.1,10.3,2.9,15.3h0Z"/>
    <path class="st2" d="M405.2,167s-37.4,16.8-38.3,17.5c0,0-24.1-76-26.1-88.9s2.7-16.4,10.9-7.4c13.6,14.7,53.5,78.7,53.5,78.7Z"/>
    <path class="st8" d="M345.5,103.3c0,.7-.6,1.3-1.3,1.3s-1.3-.6-1.3-1.3.6-1.3,1.3-1.3h0c.7,0,1.3.6,1.3,1.3ZM360.1,102c-.7,0-1.3.6-1.3,1.3s.6,1.3,1.3,1.3,1.3-.6,1.3-1.3h0c0-.7-.6-1.3-1.3-1.3ZM352.2,90.7c-.7,0-1.3.6-1.3,1.3s.6,1.3,1.3,1.3,1.3-.6,1.3-1.3h0c0-.7-.6-1.3-1.3-1.3,0,0,0,0,0,0h0ZM360.1,124.8c-.7,0-1.3.5-1.4,1.2,0,.7.5,1.3,1.2,1.4.7,0,1.3-.5,1.4-1.2,0,0,0,0,0,0,0-.7-.5-1.3-1.2-1.3ZM375.9,124.8c-.7,0-1.3.6-1.3,1.3,0,.7.6,1.3,1.3,1.3.7,0,1.3-.6,1.3-1.3,0-.7-.6-1.3-1.3-1.3,0,0,0,0,0,0h0ZM352.2,113.5c-.7,0-1.3.6-1.3,1.3s.6,1.3,1.3,1.3,1.3-.6,1.3-1.3h0c0-.7-.6-1.3-1.3-1.3,0,0,0,0,0,0h0ZM368,113.5c-.7,0-1.3.6-1.3,1.3s.6,1.3,1.3,1.3,1.3-.6,1.3-1.3h0c0-.7-.6-1.3-1.3-1.3,0,0,0,0,0,0h0ZM360.1,147.5c-.7,0-1.3.6-1.3,1.3s.6,1.3,1.3,1.3,1.3-.6,1.3-1.3h0c0-.7-.6-1.3-1.3-1.3ZM375.9,147.5c-.7,0-1.3.6-1.3,1.3s.6,1.3,1.3,1.3,1.3-.6,1.3-1.3h0c0-.7-.6-1.3-1.3-1.3,0,0,0,0,0,0h0ZM391.8,147.5c-.7,0-1.3.6-1.3,1.3s.6,1.3,1.3,1.3,1.3-.6,1.3-1.3h0c0-.7-.6-1.3-1.3-1.3,0,0,0,0,0,0h0ZM352.2,136.2h-.2c.2.8.5,1.7.7,2.5.6-.3.9-1.1.6-1.7-.2-.4-.6-.7-1.1-.7h0ZM368,136.2c-.7,0-1.3.6-1.3,1.3s.6,1.3,1.3,1.3,1.3-.6,1.3-1.3h0c0-.7-.6-1.3-1.3-1.3,0,0,0,0,0,0h0ZM383.9,136.2c-.7,0-1.3.6-1.3,1.3s.6,1.3,1.3,1.3,1.3-.6,1.3-1.3h0c0-.7-.6-1.3-1.3-1.3,0,0,0,0,0,0h0ZM375.9,170.2c-.7,0-1.3.6-1.3,1.3,0,.7.6,1.3,1.3,1.3.7,0,1.3-.6,1.3-1.3,0-.7-.6-1.3-1.3-1.3ZM391.8,170.2c-.7,0-1.3.6-1.3,1.3,0,.7.6,1.3,1.3,1.3.7,0,1.3-.6,1.3-1.3,0-.7-.6-1.3-1.3-1.3ZM368,158.9c-.7,0-1.3.6-1.3,1.3,0,.7.6,1.3,1.3,1.3.7,0,1.3-.6,1.3-1.3,0-.7-.6-1.3-1.3-1.3ZM383.9,158.9c-.7,0-1.3.6-1.3,1.3,0,.7.6,1.3,1.3,1.3.7,0,1.3-.6,1.3-1.3,0-.7-.6-1.3-1.3-1.3ZM399.7,158.9c-.7,0-1.3.6-1.3,1.3,0,.7.6,1.3,1.3,1.3.7,0,1.3-.6,1.3-1.3,0-.7-.6-1.3-1.3-1.3,0,0,0,0,0,0h0ZM368,181.6c-.7,0-1.3.6-1.3,1.3,0,.6.3,1.1.9,1.2l1.6-.8c0-.1,0-.3,0-.4,0-.7-.6-1.3-1.3-1.3,0,0,0,0,0,0h0Z"/>
    <path class="st7" d="M340.7,95.7c2,12.9,26.1,88.9,26.1,88.9.6-.6,19.8-9.2,31.5-14.5l-50.7-85.4c-5.7-3.8-8.5.4-6.9,11Z"/>
    <path class="st4" d="M396.2,159.7c0,0,.2,0,0,.1-4.9,2.8-27.5,12.9-30.6,13.9,0,0-.2-.1,0-.2,10.4-5.2,20.8-10.2,30.5-13.9Z"/>
    <path class="st5" d="M340.7,82.5c0,1.2-4.3,10.1-9.8,10.9-1.8.3-3.7-9.5-3.7-9.5l-.3-.7-4.2-9.7,10.4-9.9,1.5-1.3s1,2.7,2.2,6.1c0,.2.1.3.2.5l.2.6.5,1.5c.1.4.3.8.4,1.2s.3.8.4,1.2c.9,3,1.7,6,2.2,9Z"/>
    <path class="st4" d="M336.8,68.4c-1,6.1-4.6,11.5-9.9,14.8l-4.2-9.7,10.4-9.9,1.5-1.3s.9,2.7,2.2,6.1Z"/>
    <path class="st5" d="M305.7,60c.7,18.5,11.8,20.4,15.9,20,3.6-.3,15.9-1.1,17.2-19.6,1.2-18.5-7.6-24-15.9-24.1s-17.8,5.2-17.1,23.7Z"/>
    <path class="st4" d="M306.5,56c.4-.1.8-.2,1.2-.4.4,0,.9-.3,1.2-.6.2-.3.1-.6,0-.8-.5-.4-1.1-.4-1.6-.2-.6.2-1.1.5-1.4,1-.2.3,0,.8.3,1,.1,0,.3.1.5,0Z"/>
    <path class="st4" d="M318.4,55.4c-.4,0-.8,0-1.2-.1-.4,0-.9-.1-1.2-.4-.2-.2-.2-.5,0-.8.4-.5,1-.7,1.6-.6.6,0,1.2.3,1.6.7.3.3.3.7,0,1-.2.2-.4.2-.6.2Z"/>
    <path class="st4" d="M316.2,60.2s.1,0,.1.1c0,1.2.4,2.7,1.5,3M317.8,63.4c-1.4,0-1.8-2-1.6-3.2l1.6,3.2Z"/>
    <path class="st4" d="M317.2,58.8c2-.3,2.5,3.7.6,4s-2.3-3.7-.6-4Z"/>
    <path class="st4" d="M318,58.9c.4.2.8.5,1.2.5s.8-.5,1.1-.9h0c.1.8,0,1.6-.9,1.8s-1.4-.4-1.7-1.2c0-.1,0-.3.2-.3Z"/>
    <path class="st4" d="M309.4,60.4s0,0,0,.1c.2,1.2.2,2.7-.8,3.3,0,0,0,0,0,0,1.4-.4,1.3-2.3.9-3.5Z"/>
    <path class="st4" d="M308.1,59.1c-2,.1-1.7,4.2.2,4.1s1.5-4.1-.2-4.1Z"/>
    <path class="st4" d="M307.3,59.5c-.3.2-.6.7-1,.7s-.8-.3-1.1-.7h0c0,.8.4,1.6,1.1,1.6s1.1-.6,1.2-1.4c0,0,0-.3-.2-.2Z"/>
    <path class="st4" d="M317.4,69.8c-.2.3-.5.8-.9.9-.5,0-.9,0-1.4,0,0,0,0,0,0,0,.4.4,1.1.6,1.7.4.5-.2.8-.7.8-1.2,0-.1-.1-.1-.2,0Z"/>
    <path class="st4" d="M311.7,65.9c0,.9,0,1.9,0,2.8,0,0,.2,0,.5,0h0c1.6.1,3.1-.7,3.9-2,0,0,0-.1,0-.1,0,0,0,0,0,0-1,.9-2.3,1.4-3.7,1.5,0-.2.2-3.2,0-3.2-.7.1-1.3.4-1.9.7,0-4,.6-7.9.5-11.8,0,0,0,0-.2,0,0,0,0,0,0,0-.8,4.2-1.1,8.5-1,12.7,0,.5,1.7-.4,2.1-.6Z"/>
    <path class="st4" d="M312.3,68.1c.5.7,1.3,1.3,2.1,1.6.4.2.9.2,1.4,0,1-.3,1.1-1.2.9-2-.1-.4-.3-.8-.5-1.2-1.1.9-2.5,1.5-3.9,1.5Z"/>
    <path class="st6" d="M314.3,69.7c.4.2.9.2,1.4,0,1-.3,1.1-1.2.9-2-1.1,0-2,.8-2.3,1.9Z"/>
    <path class="st5" d="M440.5,378.4c1.4,2.7,2.7,5.4,4,8,.8,1.6,1.6,3.2,2.3,4.7,4.8,9.9,8.2,17.6,7.6,18.6-1.7,3-69.1,38.8-71.9,39.3s-4.3-7.4-2.8-10.9c.9-2.1,8.6-12.3,14.4-19.9h0c3.8-4.9,6.8-8.8,6.8-8.8l-4.4-7.8-20.1-35.5,45.1-23.9s9.9,18.5,18.9,36.2Z"/>
    <path class="st4" d="M382.6,449c2.8-.5,70.2-36.3,71.9-39.3.6-1-2.8-8.7-7.6-18.6-.3-.7-.7-1.4-1-2.1-8.7,5.2-38.4,30.5-52.9,35.5-5.2,1.8-.4-4.1-.4-4.1-5.5,7.3-11.9,15.8-12.7,17.7-1.5,3.5,0,11.4,2.8,10.9Z"/>
    <path class="st3" d="M386.9,399.2c-.5-.3-32.1-67.8-40.1-93-10.3-32.7-22.6-95.1-25.4-107.6-5.8-14.4-9.7-29.5-11.6-44.9h60.5s15.9,30.4,7.7,51.8c-.7,2,12.1,69.4,18,81.7,5.1,10.6,42.1,84.4,43.1,84.9l-52.1,27.2Z"/>
    <path class="st4" d="M429.5,362.2c-6,2.5-29.3,14.2-35.1,17.2l-4.7,2.5c-1.6.8-3.2,1.6-4.7,2.6,0,0,0,.2,0,.2,1.5-.5,2.9-1,4.3-1.7,1.5-.6,3-1.3,4.4-2,3-1.3,32.6-16.6,35.7-18.6,0,0,0-.1,0-.1,0,0,0,0,0,0Z"/>
    <path class="st4" d="M391,378.3c-5.1-11.4-29.5-71.1-33.8-84.2-4.3-13.2-7.8-26.3-11.2-39.6-3.4-13.5-6.7-27.1-10-40.6-3.3-13.8-6.6-27.6-9.1-41.5-.3-1.8-.6-3.5-.9-5.3,0-.1-.2,0-.2,0,2,14.1,4.7,28,7.8,41.9,3.1,13.9,6.4,27.4,9.9,41.1,3.3,13.4,6.9,26.7,11,39.9,4.2,13.2,34.5,87,36.3,88.6,0,.1.2,0,.2,0Z"/>
    <path class="st4" d="M309.8,153.7c2,15.4,5.9,30.5,11.6,44.9,2.1,9.5,9.7,47.5,17.7,79.6l31.2-124.5s-60.5,0-60.5,0Z"/>
    <path class="st5" d="M336.8,413.2c0,3.1-.1,6.1-.2,9,0,1.8-.1,3.6-.2,5.3-.4,11-1,19.4-1.9,20-2.9,1.8-79.2,2.1-81.9,1.2s-.3-8.6,2.6-10.9c1.8-1.4,13.3-6.9,22.1-10.9h0c5.6-2.6,10.1-4.6,10.1-4.6l-.2-9-.6-40.8h50.4s.2,21-.2,40.8Z"/>
    <path class="st3" d="M345.8,207.8s-5.2,49-7.6,73.8c-.6,6.1-1,10.8-1.2,12.8,0,.8,0,13.6-.1,30.4,0,14.7,3.7,82.8,3.7,82.8h-57.2s2.5-105.9,3.3-117.8c.1-1.4.2-2.8.3-4.3,2.3-33.8,3.5-83.1,20.1-131.7h63.3s1.6,28.2-11.4,48.9c0,0-9.3,3.1-13.1,5.3Z"/>
    <path class="st4" d="M336.3,395.2c-6.5-.4-32.5,0-39.1,0h-5.3c-1.8,0-3.6.2-5.4.4-.1,0,0,.2,0,.2,1.5.2,3.1.4,4.6.4,1.6,0,3.3.1,4.9.1,3.2,0,36.6-.6,40.2-1,.1,0,.1-.2,0-.2Z"/>
    <path class="st4" d="M314.9,160.6c-4.3,14.3-7.8,28.9-10.5,43.6-2.7,14.6-4.8,29.3-6.4,44.1-1.6,15-2.8,30-3.5,45-.8,15-1.1,30-1.1,45,0,15-.2,52.2,0,54,0,.1.2.1.2,0,0-14.9,1.1-33.3,1.2-48.2s.3-30,.9-45,1.6-29.8,3-44.6c1.5-14.8,3.4-29.9,6-44.7s5.6-29.2,9.2-43.6c.5-1.8.9-3.7,1.4-5.5,0,0,0-.1-.1-.1,0,0-.1,0-.1,0Z"/>
    <path class="st4" d="M365.7,199.7c-1.7,1.6-3.7,2.6-6,3.1-2.4.6-4.8,1-7.2,1.4-5.3,1.1-10.7,1.8-16.2,2.1-3.1.2-6.2,0-9.2-.7,0,0,0,0,0,.1,0,0,0,0,0,0,2.7.8,5.4,1.4,8.2,1.7,2.8.2,5.6.1,8.4-.2,2.8-.3,5.7-.9,8.4-1.5,2.5-.5,5-1.1,7.5-1.9,2.4-.7,4.6-2.1,6.3-4,0,0,0-.2-.2-.1Z"/>
    <path class="st4" d="M252.7,448.6c2.7.9,79,.6,81.9-1.2.9-.6,1.5-9,1.9-20,0-1.6.1-3.2.1-4.8-9.4,1.1-49.8,10-67.1,10s2.5-2.9,1.7-2.9c-7.2,3.4-14.5,6.9-15.9,8-2.9,2.4-5.2,10-2.6,11Z"/>
    <path class="st2" d="M307.6,136l-5.2,28.2s62.3.9,76.9-.2c0,0-15.3-59.5-31-76.6-7.9-8.6-17.2-7.9-23-1.9-1.5,1.5-19.3,25-21.1,34-1.6,7.9,3.5,16.6,3.5,16.6Z"/>
    <path class="st8" d="M313.9,103.3c0,.7-.6,1.3-1.3,1.3-.3,0-.6-.1-.8-.3.5-.7.9-1.4,1.4-2.2.5.2.7.7.7,1.2ZM328.4,102c-.7,0-1.3.6-1.3,1.3s.6,1.3,1.3,1.3,1.3-.6,1.3-1.3h0c0-.7-.6-1.3-1.3-1.3,0,0,0,0,0,0ZM344.2,102c-.7,0-1.3.6-1.3,1.3s.6,1.3,1.3,1.3,1.3-.6,1.3-1.3h0c0-.7-.6-1.3-1.3-1.3h0,0ZM321,90.8l-1.5,2.1c.5.5,1.3.6,1.8,0s.6-1.3,0-1.8c-.1-.1-.2-.2-.4-.3ZM336.3,90.7c-.7,0-1.3.6-1.3,1.3s.6,1.3,1.3,1.3,1.3-.6,1.3-1.3h0c0-.7-.6-1.3-1.3-1.3,0,0,0,0,0,0h0ZM351.2,91.1c-.2.2-.4.6-.4.9,0,.7.6,1.3,1.3,1.3.2,0,.3,0,.5,0-.5-.7-.9-1.4-1.4-2.1h0ZM312.6,124.8c-.7,0-1.3.6-1.3,1.3,0,.7.6,1.3,1.3,1.3h0c.7,0,1.3-.6,1.3-1.3,0-.7-.6-1.3-1.3-1.3ZM328.4,124.8c-.7,0-1.3.6-1.3,1.3s.6,1.3,1.3,1.3,1.3-.6,1.3-1.3h0c0-.7-.6-1.3-1.3-1.3,0,0,0,0,0,0h0ZM344.2,124.8c-.7,0-1.3.6-1.3,1.3s.6,1.3,1.3,1.3,1.3-.6,1.3-1.3h0c0-.7-.6-1.3-1.3-1.3h0,0ZM360.1,124.8c-.7,0-1.3.5-1.3,1.3s.5,1.3,1.3,1.3c.7,0,1.3-.5,1.3-1.3,0,0,0,0,0,0,0-.7-.5-1.3-1.2-1.3h0ZM305.9,114.5c-.2.5-.4.9-.6,1.4.4-.2.6-.7.6-1.1,0,0,0-.2,0-.3h0ZM320.5,113.5c-.7,0-1.3.6-1.3,1.3,0,.7.6,1.3,1.3,1.3h0c.7,0,1.3-.6,1.3-1.3,0-.7-.6-1.3-1.3-1.3h0ZM336.3,113.5c-.7,0-1.3.6-1.3,1.3s.6,1.3,1.3,1.3,1.3-.6,1.3-1.3h0c0-.7-.6-1.3-1.3-1.3,0,0,0,0,0,0h0ZM352.2,113.5c-.7,0-1.3.6-1.3,1.3s.6,1.3,1.3,1.3,1.3-.6,1.3-1.3h0c0-.7-.6-1.3-1.3-1.3h0,0ZM312.6,147.5c-.7,0-1.3.6-1.3,1.3s.6,1.3,1.3,1.3,1.3-.6,1.3-1.3h0c0-.7-.6-1.3-1.3-1.3,0,0,0,0,0,0h0ZM328.4,147.5c-.7,0-1.3.6-1.3,1.3s.6,1.3,1.3,1.3,1.3-.6,1.3-1.3h0c0-.7-.6-1.3-1.3-1.3,0,0,0,0,0,0h0ZM344.2,147.5c-.7,0-1.3.6-1.3,1.3s.6,1.3,1.3,1.3,1.3-.6,1.3-1.3h0c0-.7-.6-1.3-1.3-1.3h0,0ZM360.1,147.5c-.7,0-1.3.6-1.3,1.3s.6,1.3,1.3,1.3,1.3-.6,1.3-1.3h0c0-.7-.6-1.3-1.3-1.3h0ZM374.8,148.2c0,.2-.1.4-.1.6,0,.5.2.9.6,1.1l-.5-1.7ZM320.5,136.2c-.7,0-1.3.6-1.3,1.3s.6,1.3,1.3,1.3,1.3-.6,1.3-1.3h0c0-.7-.6-1.3-1.3-1.3,0,0,0,0,0,0h0ZM336.3,136.2c-.7,0-1.3.6-1.3,1.3s.6,1.3,1.3,1.3,1.3-.6,1.3-1.3h0c0-.7-.6-1.3-1.3-1.3,0,0,0,0,0,0h0ZM352.2,136.2c-.7,0-1.3.6-1.3,1.3s.6,1.3,1.3,1.3,1.3-.6,1.3-1.3h0c0-.7-.6-1.3-1.3-1.3,0,0,0,0,0,0h0ZM368,136.2c-.7,0-1.3.6-1.3,1.3s.6,1.3,1.3,1.3,1.3-.6,1.3-1.3h0c0-.7-.6-1.3-1.3-1.3,0,0,0,0,0,0h0ZM304.7,158.9c-.7,0-1.3.6-1.3,1.3s.6,1.3,1.3,1.3,1.3-.6,1.3-1.3h0c0-.7-.6-1.3-1.3-1.3,0,0,0,0,0,0h0ZM320.5,158.9c-.7,0-1.3.6-1.3,1.3s.6,1.3,1.3,1.3,1.3-.6,1.3-1.3h0c0-.7-.6-1.3-1.3-1.3,0,0,0,0,0,0h0ZM336.3,158.9c-.7,0-1.3.6-1.3,1.3s.6,1.3,1.3,1.3,1.3-.6,1.3-1.3h0c0-.7-.6-1.3-1.3-1.3,0,0,0,0,0,0h0ZM352.2,158.9c-.7,0-1.3.6-1.3,1.3,0,.7.6,1.3,1.3,1.3.7,0,1.3-.6,1.3-1.3,0-.7-.6-1.3-1.3-1.3ZM368,158.9c-.7,0-1.3.6-1.3,1.3,0,.7.6,1.3,1.3,1.3.7,0,1.3-.6,1.3-1.3,0-.7-.6-1.3-1.3-1.3Z"/>
    <path class="st4" d="M359.8,106.3c1.5,3.3,2.9,6.6,4.3,9.9-.2-1-.5-2-.7-3,0-.1.2-.2.2,0,.5,1.5.9,3,1.1,4.5,4.4,10.8,8.2,21.9,11.3,33.1.6,2.1,1.2,4.3,1.7,6.4s1.2,4.4,1.5,6.7c0,0,0,0,0,0s0,0,0,0c-.7-1.9-1.2-3.9-1.8-5.8s-1.1-3.7-1.7-5.6c-1.1-3.8-2.3-7.6-3.5-11.4-2.4-7.5-4.9-14.9-7.6-22.3-1.5-4.2-3.2-8.4-4.8-12.6,0,0,.1,0,.1,0Z"/>
    <path class="st5" d="M331,96.4c-3.8,8.5-24,42.5-34.9,46.2-17.2,5.8-38.3,2.1-49.4,1.1-6.2-.6,0-37.9,6.6-35.7,9.1,3,31.2,5.9,34.4,5.8s19.1-16.1,31.2-25.6c11.2-8.8,18.4-5.8,12.1,8.2Z"/>
    <path class="st5" d="M198.3,105.4c-.5,5.4,18.5,6.2,18.5,6.2-1.6.8-2.8,2.1-3.5,3.7-1.1,2.9,3,5.9,3,5.9-1.4,1.2-2.5,2.8-3.1,4.5-.8,2.9,2.9,6.5,2.9,6.5-.7,1.8-.8,3.8-.2,5.7,1.9,4.9,9.7,6.4,14.7,7.4s19.7-.2,23.4-1l6.9-33.5c-8.6-4.6-17.9-7.8-27.6-9.5-5-.8-34.7-2.1-35.2,4Z"/>
    <path class="st4" d="M217.2,111.1c5.5-1,10.9-.2,16.4.2,0,0,.1,0,.1,0s0,.1,0,.1c0,0,0,0,0,0-5.5-.5-10.9.2-16.4,0-.2,0-.2-.2,0-.3Z"/>
    <path class="st4" d="M216.6,120.8c1.3-.1,2.5,0,3.8.2,1.3.2,2.7.3,4,.6,2.6.4,5.3.9,7.9,1.5.1,0,.1.2,0,.2-2.6-.4-5.3-.8-8-1.1-1.3-.1-2.7-.3-4-.4-1.3,0-2.5-.2-3.8-.5-.1,0-.1-.2-.1-.3,0,0,0,0,.1-.1Z"/>
    <path class="st4" d="M216.4,132.3c1.1,0,2.3,0,3.4.4l3.7.6c2.5.4,4.8.8,7.3,1.1.1,0,0,.2,0,.2-2.5-.3-4.9-.6-7.4-.9l-3.7-.5c-1.1,0-2.2-.3-3.2-.8h0Z"/>
    <path class="st2" d="M262,109l-3,40.8s34.7-2.4,40.2-6.3c6.5-4.7,28.8-35.8,34-48.3s-1.7-16.7-12.6-8.6c-10.8,8.2-30.1,24.2-31.6,25s-27-2.6-27-2.6Z"/>
    <path class="st8" d="M313.9,103.3c0,.7-.6,1.3-1.3,1.3-.7,0-1.3-.6-1.3-1.3,0-.7.6-1.3,1.3-1.3.7,0,1.3.6,1.3,1.3ZM328.4,102c-.7,0-1.3.6-1.3,1.3,0,.6.5,1.2,1.1,1.3l1.2-2.1c-.2-.3-.6-.5-1.1-.5ZM320.5,90.7c-.7,0-1.3.6-1.3,1.3,0,.7.6,1.3,1.3,1.3.7,0,1.3-.6,1.3-1.3,0-.7-.6-1.3-1.3-1.3ZM265.1,124.8c-.7,0-1.3.6-1.3,1.3s.6,1.3,1.3,1.3,1.3-.6,1.3-1.3h0c0-.7-.6-1.3-1.3-1.3h0ZM280.9,124.8c-.7,0-1.3.6-1.3,1.3,0,.7.6,1.3,1.3,1.3.7,0,1.3-.6,1.3-1.3,0-.7-.6-1.3-1.3-1.3ZM296.7,124.8c-.7,0-1.3.6-1.3,1.3,0,.7.6,1.3,1.3,1.3h0c.7,0,1.3-.6,1.3-1.3,0-.7-.6-1.3-1.3-1.3h0ZM312.6,124.8c-.7,0-1.3.6-1.3,1.3,0,.7.6,1.3,1.3,1.3h0c.7,0,1.3-.6,1.3-1.3,0-.7-.6-1.3-1.3-1.3ZM273,113.5c-.7,0-1.3.6-1.3,1.3,0,.7.6,1.3,1.3,1.3h0c.7,0,1.3-.6,1.3-1.3,0-.7-.6-1.3-1.3-1.3h0ZM288.8,113.5c-.7,0-1.3.6-1.3,1.3,0,.7.6,1.3,1.3,1.3h0c.7,0,1.3-.6,1.3-1.3,0-.7-.6-1.3-1.3-1.3h0ZM304.6,113.5c-.7,0-1.3.6-1.3,1.3,0,.7.6,1.3,1.3,1.3.7,0,1.3-.6,1.3-1.3,0-.7-.6-1.3-1.3-1.3ZM320.5,113.5c-.7,0-1.3.6-1.3,1.3,0,.7.6,1.3,1.3,1.3h0c.7,0,1.3-.6,1.3-1.3,0-.7-.6-1.3-1.3-1.3h0ZM265.1,147.5c-.7,0-1.3.6-1.3,1.3,0,0,0,0,0,0,0,.2,0,.4.1.6l2.5-.2c0-.1,0-.3,0-.4,0-.7-.6-1.3-1.3-1.3,0,0,0,0,0,0h0ZM280.9,147.5c-.2,0-.5,0-.7.2h1.1c-.1-.2-.3-.2-.4-.2h0ZM273,136.2c-.7,0-1.3.6-1.3,1.3s.6,1.3,1.3,1.3,1.3-.6,1.3-1.3h0c0-.7-.6-1.3-1.3-1.3,0,0,0,0,0,0h0ZM288.8,136.2c-.7,0-1.3.6-1.3,1.3s.6,1.3,1.3,1.3,1.3-.6,1.3-1.3h0c0-.7-.6-1.3-1.3-1.3,0,0,0,0,0,0h0ZM304.6,136.2c-.7,0-1.3.6-1.3,1.3,0,.5.3.9.7,1.2.5-.6,1.1-1.2,1.7-1.9-.2-.3-.6-.5-1-.5h0Z"/>
    <path class="st4" d="M307,135c.4-.5,14.7-20.1,18.1-25.7,1.1-1.8,2.2-3.7,3.3-5.3,0,0,.2,0,.2.1-.5,1.1-.9,2-1.5,3-.3.5-.5.9-.8,1.4.6-.6,1.2-1.2,1.9-1.8,0,0,0,0,.1,0,0,0,0,0,0,.1-.6.7-1.2,1.4-1.8,2.1-.3.3-.6.6-.9.9h0c-5.4,9-11.6,17.4-18.4,25.3,0,.1-.2,0-.2,0Z"/>
    <path class="st4" d="M270.4,112.9c0-.1.2-.1.2,0,.1,5.6-1.5,30.3-2.1,33.5,0,0-.2,0-.2,0,.3-11.6.9-23.1,2.2-33.5Z"/>
    <path class="st4" d="M316.1,34.2c-1.2.7-9.8,1.5-11.3,8.4-1.1,5.3,2.4,8.1,7.3,8.5,5.4.4,11.4-3,11.4-3,1.2,5.4,2.7,12.3,4.7,13,1.6.6,3.6-1.7,3.6-1.7,2,4.2,2.7,13.6,2.2,15.7-1.1,4.8-4.9,11.8,1.3,16.9,1.4,1.1,6.6,3,11.8.4s5.4-6.9,7.3-8.6,8-2.5,9.4-6.1.4-7.6,1-9.4,3.1-2.5,3.2-6.2-3.5-4.5-5-7.1c-1-1.8,0-4.2-2.4-6.6-3.2-3.3-7.7-.5-11.2-3.9-2.7-2.6-10.1-12.9-19.8-14-4.8-.5-9.6.8-13.5,3.7Z"/>
    <path class="st4" d="M338.4,34.3c2.3,1.8,4.5,3.8,6.6,6,1.1,1,2.1,2,3.3,2.9.5.5,1.1.8,1.8,1.1.1,0,.3.1.5.2.2,0,.3,0,.5,0h1.1c1.6,0,3.1,0,4.7,0,1.6,0,3.2.7,4.4,1.7.6.5,1,1.2,1.2,2,.2.8.2,1.6,0,2.4-.3,1.5-.3,3,0,4.5-.6-1.4-.8-3-.6-4.5,0-.7,0-1.5-.2-2.1-.3-.6-.7-1.2-1.2-1.6-1.2-.8-2.6-1.3-4-1.4-1.5-.1-3.1,0-4.6,0h-1.2c-.4,0-.8-.1-1.2-.3-.7-.3-1.4-.8-1.9-1.3-1.2-1-2.2-2-3.3-3.1l-3-3.3c-.9-1.1-1.9-2.2-3-3.2Z"/>
    <path class="st4" d="M365.7,66.8c-.1,1,0,2.1.2,3.1.2,1,.4,2.1.5,3.1.1,1.1.2,2.2,0,3.2,0,1.1-.4,2.2-1,3.2-1.4,1.7-3.5,2.8-5.7,3.1-1.1.2-2.1.4-3.1.6-1,.1-2,.5-2.9,1.2.8-.8,1.7-1.3,2.7-1.6,1-.3,2-.6,3.1-.8,2-.6,4-1.3,5.1-2.9.5-.8.8-1.8.9-2.8.1-1,.1-2.1,0-3.1,0-1-.1-2.1-.2-3.1v-1.6c0-.5,0-1.1.2-1.6Z"/>
    <path class="st4" d="M324.7,46.7c-1,1-2.2,1.9-3.4,2.6-1.2.7-2.5,1.3-3.9,1.7-.7.2-1.4.4-2.1.5h-1.1c0,.1-1.1.2-1.1.2-.7,0-1.4,0-2.1,0-.7,0-1.4-.1-2.2-.1.7.2,1.4.4,2.1.6.7.1,1.5.2,2.2.3,1.5,0,3-.1,4.4-.5,1.4-.4,2.8-1.1,4-1.9,1.2-.8,2.2-1.9,3-3.2Z"/>
    <path class="st4" d="M324.1,45.7c-.7,2.8-.8,5.7-.4,8.6.2,1.5.6,2.9,1.3,4.2.7,1.3,1.8,2.3,3.2,2.8-1.2-.7-2.1-1.8-2.6-3.1-.5-1.3-.9-2.6-1.1-4-.4-2.8-.5-5.6-.5-8.4Z"/>
    <path class="st5" d="M330.2,61s3.3-6.2,6.1-5.1.8,9.8-2.1,11.3c-1.5.9-3.4.4-4.3-1.1,0,0,0,0,0-.1l.4-5Z"/>
    <path class="st4" d="M335.6,58.4s0,0,0,0c-2,1.1-2.9,3.2-3.5,5.4.4-.9,1.4-1.3,2.3-.9,0,0,0,0,.1,0,0,0,0,.1,0,.1-.8-.1-1.6.2-2,.9-.3.6-.6,1.2-.8,1.8,0,.2-.4.1-.4,0h0c-.3-2.8,1.4-6.9,4.2-7.5Z"/>
  </g>
  <g id="freepik--Plant--inject-34">
    <path class="st1" d="M538.7,149.7c6.3-13,17.5-19.8,30-16,12.5,3.7,14.5,21.2,5.1,25.6s-18.7-8.5-23.6-11.1-11.5,1.6-11.5,1.6Z"/>
    <path class="st4" d="M532.6,184.5c0-1.6,0-3.1.1-4.7.1-3.1.2-6.3.3-9.4.2-5.8.8-11.4,3.2-16.7,2.1-4.8,5.6-8.9,10.1-11.6,1.7-1,3.4-1.8,5.3-2.3,1.7-1.7,3.8-2.9,6.2-3.4,2.9-.6,5.9-.7,8.8-.2.1,0,.1.2,0,.2-2.8-.4-5.6-.2-8.3.6-1.2.3-2.3.8-3.4,1.3-.7.4-1.3.8-1.9,1.2,2.5-.5,5.1-.5,7.7,0,.9.2,1.8.5,2.7.9.7-.2,1.4-.2,2.1-.2.9,0,1.8.2,2.7.4,1.8.5,3.5,1.3,5.2,2.2,0,0,0,0,0,.1,0,0,0,0,0,0-1.6-.9-3.3-1.5-5-1.9-.8-.2-1.7-.3-2.6-.4-.5,0-1,0-1.4,0,3.6,1.7,6.4,4.5,8.1,8.1,0,.1-.1.2-.2,0-2-4.2-5.8-7.2-10.3-8.3-.3,0-.6-.1-.8-.2,0,.4.1.8.1,1.3,0,.6.2,1.3.3,1.9.3,1.3.6,2.6,1,3.8.4,1.3.9,2.5,1.5,3.7.6,1.3,1.3,2.5,2.1,3.6,0,0,0,0,0,.1,0,0,0,0-.1,0-.8-1.2-1.6-2.3-2.3-3.5-.7-1.2-1.2-2.4-1.7-3.6-.5-1.3-.8-2.6-1.1-3.9-.1-.7-.2-1.4-.3-2.1,0-.4-.1-.9,0-1.3-1.5-.2-3-.3-4.4,0,.6,3.1,1.2,6.4,2.9,9.1,0,0,0,.2-.1,0-.8-1.4-1.5-2.9-2.2-4.5-.6-1.5-.9-3.1-1.1-4.6-2.6.3-5.1,1.2-7.3,2.5-4.3,2.5-7.7,6.2-9.8,10.7-2.2,4.8-3.4,10-3.6,15.4-.4,6.7-.5,13.4-1.2,20,0,.4-.7.6-.8,0-.2-1.5-.2-2.9-.2-4.4Z"/>
    <path class="st4" d="M547.2,141c.4-.5.9-1,1.4-1.3.5-.4,1.1-.9,1.6-1.2,1.1-.8,2.3-1.3,3.6-1.7,0,0,.2.1,0,.2-1.3.3-2.5.9-3.6,1.8-.5.4-1,.8-1.5,1.2-.4.5-.9.9-1.4,1.2,0,0-.2,0-.1-.2Z"/>
    <path class="st4" d="M567.5,145.7c1,1.2,2,2.5,2.9,3.8.9,1.4,1.6,2.8,2.2,4.3,0,0,0,0,0,0-1.5-2.8-3.2-5.5-5.1-8.1,0,0,0-.1.2,0Z"/>
    <path class="st4" d="M553.8,144.4c.1.8.4,1.6.7,2.4.4.7.8,1.4,1.2,2.1,0,0,0,0,0,0-1.1-1.3-1.8-2.8-2-4.5,0,0,.1-.1.1,0Z"/>
    <path class="st1" d="M533.4,150s-9-11.3-26.3-7.3c-16.5,3.8-24.1,34-7.4,37.7,16.7,3.6,13.7-24.4,19.8-29.1,4.5-3.5,10.9-2.8,14-1.3Z"/>
    <path class="st4" d="M493.7,159.3c1.1-1,2.3-1.9,3.6-2.7,1.2-.8,2.5-1.4,3.8-1.9.7-1,1.5-2,2.3-2.9,1.5-1.6,3.3-3.1,5.2-4.2h-.5c-.9,0-1.8,0-2.8,0-1.8.1-3.7.6-5.3,1.3,0,0-.2-.1,0-.1,1.7-.7,3.5-1.3,5.3-1.6.9-.2,1.8-.2,2.7-.2.5,0,1,0,1.5,0h.3c1.6-.8,3.3-1.4,5-1.8h-.5c-.8-.3-1.7-.5-2.6-.6-1.7-.2-3.5-.2-5.2,0-.1,0-.1-.1,0-.2,1.7-.2,3.5-.3,5.2-.2,1.5,0,2.9.2,4.4.6,1-.2,2.1-.3,3.2-.4,6-.3,12.7,2,16.4,7s4.5,11.6,5.1,17.6c1,8.4,1.2,16.8.7,25.2,0,.5-.7.4-.8,0-.2-7.1-.5-14.3-1.2-21.4-.3-3.3-.7-6.6-1.2-9.9-.4-2.8-1.2-5.5-2.4-8.1-1.3-2.6-3.3-4.8-5.8-6.3-2.5-1.5-5.4-2.3-8.3-2.5-2.6-.2-5.3,0-7.8.7,0,.5,0,1,0,1.5,0,.6-.2,1.3-.4,1.9-.2.6-.4,1.1-.7,1.7-.3.6-.7,1.1-1.1,1.7,0,0-.2,0-.1,0,.7-1,1.2-2.2,1.3-3.4.1-.6.2-1.2.2-1.8v-1.4c-2.8.8-5.3,2.2-7.6,4-.4.3-.8.7-1.2,1.1.6.5,1.1,1.1,1.5,1.8.6.9,1.1,1.8,1.6,2.7.8,1.9,1.3,3.9,1.6,6,0,.1-.2.1-.2,0-.3-2-1-3.9-2-5.7-.5-.9-1-1.7-1.5-2.5-.3-.4-.6-.8-.9-1.2-.2-.2-.3-.4-.5-.7-2,2-3.7,4.3-4.9,6.9h0c.8.9,1.5,1.9,2,2.9.6,1.1,1.2,2.3,1.6,3.5.8,2.3,1.5,4.7,2.1,7.1,0,.1-.2.1-.2,0-.5-2.4-1.4-4.8-2.5-7-.5-1.1-1.1-2.2-1.6-3.2-.6-1-1.1-2-1.6-3-1.2,2.5-1.8,5.2-2,8,0,0,0,0-.1,0,0,0,0,0,0,0,.3-4.4,1.7-8.6,3.9-12.3-1.1.5-2.1.9-3.2,1.4-1.3.7-2.5,1.6-3.6,2.5,0,.2,0,0,0,0Z"/>
    <path class="st4" d="M506.4,159.9c.5,1.7,1.2,3.4,1.7,5.1.5,1.7.7,3.4.8,5.1M508.8,170.1c-.5-3.5-1.3-6.9-2.5-10.2,0,0,.1-.1.2,0l2.3,10.2Z"/>
    <path class="st4" d="M495.4,155.7c.7-.7,1.5-1.2,2.3-1.6.9-.4,1.7-.7,2.7-.9,0,0,.1.1,0,.2-.9.2-1.8.6-2.6,1.1-.8.4-1.6.9-2.4,1.5,0,0,0,0,0,0,0,0,0,0,0,0Z"/>
    <path class="st1" d="M524.9,135s-1.7-20.3-16.8-26.9c-12.6-5.5-19.8,8.7-10.9,17.3,7.2,7,18.8,3.8,27.7,9.5Z"/>
    <path class="st4" d="M500,112c2.3.9,4.5,2,6.7,3.2,1.8,1,3.5,2.2,5.2,3.5-.2-.5-.5-1-.7-1.5-.4-.8-.8-1.5-1.3-2.3-.9-1.6-2-3-3.3-4.2,0,0,0-.2.1-.1,1.3,1.3,2.4,2.6,3.5,4.1.5.7,1,1.5,1.4,2.3.4.7.8,1.5,1,2.3h.2c2.6,2.2,5.1,4.6,7.2,7.2,0-.2,0-.4-.1-.6-.3-1-.6-2-.9-3-.7-2.1-1.6-4.1-2.7-5.9,0,0,0-.2.1,0,1.2,1.8,2.2,3.8,3.2,5.8.4,1,.7,2,1,3,.2.7.4,1.3.5,2,.7.8,1.3,1.7,1.9,2.5,6.5,9.2,9.7,20.4,10.5,31.5.2,3.3.3,6.7.2,10,0,3.4-.3,6.7-.9,10,0,.2-.4.1-.4,0,0-2.9.4-5.9.4-8.8s0-5.9-.3-8.8c-.5-5.8-1.5-11.5-3.2-17.1-1.8-5.8-4.4-11.3-7.7-16.3-.6-.1-1.3-.3-1.9-.5s-1.5-.4-2.3-.6c-1.5-.4-2.9-.9-4.2-1.5,0,0,0,0,0-.1,0,0,0,0,.1,0,1.3.7,2.8,1.2,4.3,1.5,1.2.2,2.4.4,3.6.7-1.1-1.6-2.3-3.1-3.5-4.6-2.9.3-5.8,0-8.6-.6-1.5-.4-3-.8-4.4-1.4-1.5-.6-3-1.3-4.4-2-.1,0,0-.2,0-.1,2.7,1.5,5.7,2.4,8.7,2.8,2.7.4,5.4.7,8.1.7-1.1-1.2-2.2-2.4-3.4-3.6-4-3.8-8.7-7.2-13.9-9-.1,0,0-.2,0-.1Z"/>
    <path class="st4" d="M512.3,112.1c.7.9,1.3,1.8,1.8,2.7.6,1,1,2.1,1.3,3.1M515.4,117.9c-.5-1-.9-2-1.4-3-.5-1-1.1-1.9-1.8-2.7,0,0,0-.2.1-.1l3.1,5.9Z"/>
    <path class="st4" d="M498.3,118.8c1,.5,2,1,3.1,1.3,1,.3,2.1.6,3.2.9M504.5,121.1c-1.1-.1-2.2-.4-3.3-.7-1-.4-2.1-.8-3.1-1.4-.1,0,0-.2,0-.1l6.2,2.2Z"/>
    <path class="st1" d="M536.6,131.3c0,.9,2.3-7.4,15-14.7,11.6-6.6,25.4-24,14.1-34.9-9.1-8.8-33.3,10.4-29.1,49.6Z"/>
    <path class="st4" d="M527.8,178.5c.2-8.6.8-17.2,2-25.7,1-7.8,2.8-15.5,5.4-23,1-2.7,2-5.3,3.2-7.9,0-1,0-2,0-3,0-1.3.2-2.6.3-3.9s.2-2.6.4-3.9.4-2.6.5-3.9c0,0,0,0,0,0s0,0,0,0c-.3,1.4-.4,2.8-.5,4.2,0,1.2-.2,2.5-.2,3.8s0,2.5,0,3.8v1.4c1.2-2.5,2.5-5,3.9-7.5-.9-5.3.3-10.8,1.3-16,0-.1.2,0,.2,0-.5,2.7-.8,5.4-.8,8.2,0,2.2,0,4.4,0,6.5.3-.5.6-1,.9-1.6,1.7-2.7,3.4-5.4,5.3-7.9-.2-1.3-.1-2.5.1-3.8.2-1.4.5-2.8.9-4.1.4-1.4.9-2.7,1.4-4s1.3-2.6,1.8-4c0-.1.2,0,.2,0-.7,1.3-1.2,2.6-1.6,4-.4,1.3-.7,2.6-1,4-.3,1.3-.5,2.7-.7,4-.1.9-.2,1.8-.4,2.7,2.7-3.7,5.7-7.1,8.9-10.4,0,0,.2,0,.1.1-4.9,5.5-9.2,11.4-13,17.6l-.4.7c.7-.4,1.5-.8,2.2-1.1,1.2-.7,2.5-1.4,3.7-2s2.4-1.3,3.6-2c.6-.4,1.2-.7,1.9-1,.8-.3,1.5-.7,2.2-1.2,0,0,.2,0,0,.1-1.2.7-2.3,1.7-3.5,2.4s-2.4,1.5-3.6,2.2c-2.3,1.3-4.7,2.2-7,3.5-1.6,2.7-3,5.5-4.3,8.3,1.3-.9,2.7-1.7,4.1-2.5.9-.5,1.8-1,2.7-1.5.9-.4,1.8-.9,2.6-1.5,0,0,0,0,.1,0,0,0,0,0,0,0-1.5,1.3-3.1,2.5-4.8,3.4-1.6,1-3.3,1.9-5,2.7-1.4,3-2.6,6-3.7,9.1-5.4,15.1-7.4,31.3-8.3,47.4-.3,4.8-.4,9.6-.5,14.4s.2,9.5.2,14.3c0,.1-.2.2-.2,0-.6-4.2-.7-8.5-.9-12.8s-.2-8.7-.1-13.1Z"/>
    <path class="st4" d="M551,109.7c2.3-1,4.6-2.2,6.8-3.5,2.2-1.2,4.4-2.6,6.4-4.1,0,0,0,0,0,0-2,1.6-4,3-6.2,4.3-2.3,1.3-4.6,2.4-7,3.4,0,0-.1,0,0-.1Z"/>
    <path class="st4" d="M547.4,92.5c.2-.7.4-1.5.7-2.2,0,0,0,0,0,0,.2-.4.3-.8.5-1.2h0c0-.1,0-.4,0-.4,0,0,0,0,0,0s0,.3-.1.4c0,0,0,.2,0,.2-.8,2.8-1.5,5.7-1.9,8.7,0,0,0,0,0,.1s0,0-.1,0c0,0,0,0,0,0,.1-1.8.4-3.7.9-5.4Z"/>
    <polygon class="st10" points="514.4 181.7 515.3 192.5 518.1 225.4 547.9 225.4 550.7 192.5 551.6 181.7 514.4 181.7"/>
    <polygon class="st4" points="514.4 181.7 515.3 192.5 550.7 192.5 551.6 181.7 514.4 181.7"/>
    <rect class="st10" x="511.4" y="177.3" width="43.1" height="10.4"/>
  </g>
</svg>