<?xml version="1.0" encoding="UTF-8"?>
<svg id="Layer_1" xmlns="http://www.w3.org/2000/svg" version="1.1" viewBox="0 0 600 225">
  <!-- Generator: Adobe Illustrator 29.8.2, SVG Export Plug-In . SVG Version: 2.1.1 Build 3)  -->
  <defs>
    <style>
      .st0 {
        fill: #ffc3b3;
      }

      .st1 {
        fill: #b55b52;
      }

      .st2 {
        opacity: .1;
      }

      .st2, .st3, .st4 {
        isolation: isolate;
      }

      .st3 {
        opacity: .5;
      }

      .st4 {
        opacity: .2;
      }

      .st5 {
        fill: #ff603b;
      }

      .st6 {
        fill: #ffcfbc;
      }

      .st7 {
        fill: #ffd5c1;
      }

      .st8 {
        fill: #263238;
      }

      .st9 {
        fill: #fff;
      }

      .st10 {
        fill: #ffe4d6;
      }

      .st11 {
        fill: #fafafa;
      }

      .st12 {
        fill: #a02724;
      }

      .st13 {
        fill: #455a64;
      }
    </style>
  </defs>
  <g>
    <path class="st5" d="M135.4,178.3c1.2-3.5,3.4-6.7,6.5-8.8,1.5-1.3,3.4-2.1,5.5-2.3,2,0,4,1.7,3.9,3.7-.2,1.2-.9,2.3-1.7,3.1-2,2.1-4.5,4-4.9,7-.1,1.6.4,3.4-.2,4.9-.9,1.5-2.6,2.2-4.2,1.7-1.6-.5-2.8-1.5-3.7-2.9-1.3-1.8-1.8-4.2-1.2-6.2h0Z"/>
    <path class="st5" d="M119.5,173.8c3.5.5,5.5-3.1,5.5-5.6s-1.3-4.9-2.7-7.1c-2.9-5-6.1-10.3-11-13.2-1.5-1-3.2-1.6-4.9-1.6s-3.4.9-4.4,2.3c-1,1.8-.4,4,.4,6,2.2,5.6,5.6,10.8,10,14.9,2,2.1,4.4,3.5,7.2,4.2"/>
    <path class="st5" d="M118.6,180.7c-.6-3.4-2.8-6.4-6-7.8-3.2-1.5-6.6-2-10-1.6-4,.4-8,1.5-11.5,3.3-1.5.6-2.7,1.6-3.8,2.8-1,1.2-1.3,2.9-1,4.4.7,2.2,3.3,3.2,5.5,3.8,4,1.1,8.1,1.7,12.1,2.2,3.3.4,6.7.4,9.8-1s5.1-3.9,4.6-6.5"/>
    <path class="st8" d="M151.2,203.9c-.2-.4-.5-.7-.9-1.1l-2.3-2.7c-1.2-1.3-2.3-2.7-3.3-4.2-1.2-1.8-2.3-3.7-3.2-5.6-1-2-1.6-4-2-6.2-.2-1.7-.1-3.5.4-5.3.4-1.1.9-2.2,1.6-3.2.2-.4.5-.7.7-1.1-.4.2-.6.6-1,1-.7,1-1.3,2.1-1.7,3.2-.6,1.7-.7,3.5-.5,5.4.4,2.2,1,4.3,2,6.4,1,2,2.1,3.9,3.3,5.7,1.1,1.5,2.2,2.8,3.4,4.2,1,1.1,2,2,2.6,2.6.2.4.6.6,1,.9h-.1Z"/>
    <path class="st8" d="M149.3,201.8c0-.1-.2-.4-.4-.5-.4-.2-.7-.7-1.2-1.2-1.1-1.1-2.7-2.6-4.6-4.5-3.8-3.8-7.8-8.2-13.1-14.4-5-6-10.8-13-14.2-17.9-.7-1.1-1.5-2.1-2.1-3.1s-1.1-1.7-1.5-2.3l-1-1.5s-.2-.4-.4-.5c0,.2.1.4.2.5l.9,1.5c.4.6.9,1.5,1.5,2.3s1.2,2,2,3.1c4,5.9,8.3,11.5,13,16.9,5.4,6.4,10.5,11.7,14.4,15.5,2,1.8,3.5,3.3,4.8,4.4l1.3,1.1c.1.1.2.2.5.4v.2h-.1Z"/>
    <path class="st8" d="M138.8,191.8c-.4-.5-.9-.9-1.3-1.2-1.2-1.1-2.6-2.1-3.9-2.9-2.1-1.3-4.2-2.7-6.4-3.8-2.7-1.5-5.4-2.7-8.3-3.7-5.1-2-10.6-2.9-16.1-3.1h-4c-.4,0-.6,0-1,.2-.6,0-1.2.2-1.7.5,2.2-.4,4.5-.5,6.7-.6,5.4,0,10.8,1.2,15.9,3.2,2.8,1,5.6,2.2,8.2,3.5,2.2,1.1,4.3,2.3,6.4,3.7,1.7,1.1,3.2,2.1,4,2.8.5.4,1,.7,1.6,1h0v.4Z"/>
  </g>
  <path class="st13" d="M315.7,437.5l-136.4-.6c-16.4,0-29.6-13.5-29.6-29.8h0l1.5-342c0-16.4,13.5-29.7,29.8-29.6h0l136.4.6c16.4,0,29.6,13.5,29.6,29.8l-1.5,342c0,16.4-13.5,29.6-29.8,29.6h0Z"/>
  <path class="st10" d="M317.2,48.4h-26.4c-3.7,0-6.5,2.9-6.5,6.5h0v4.8c0,3.7-2.8,6.6-6.5,6.7h0l-51.5-.2c-3.7,0-6.5-3.1-6.4-6.7v-4.8c0-3.7-2.8-6.6-6.4-6.7h-32.4c-11.5,0-20.8,9.1-20.9,20.6h0l-1.5,333.8c0,11.5,9.2,20.8,20.7,20.9h0l136.2.6c11.5,0,20.8-9.2,20.9-20.7h0l1.5-333.8c0-11.5-9.2-20.8-20.7-20.9h-.1Z"/>
  <g>
    <circle class="st0" cx="253" cy="151.9" r="47.6"/>
    <circle class="st6" cx="248.9" cy="147.9" r="47.6"/>
    <ellipse class="st10" cx="248.5" cy="147.3" rx="36.2" ry="35.4" transform="translate(-35.2 92.9) rotate(-19.8)"/>
    <path class="st11" d="M260.4,180.5c-18.5,6.6-38.9-2.7-46-20.9,0,.4.2.6.4,1,6.6,19,27.3,28.9,46.2,22.3,19-6.6,28.9-27.3,22.3-46.2,0-.2-.1-.4-.2-.6,0-.4-.2-.6-.4-1,6.1,18.6-3.7,38.8-22.1,45.4h-.1Z"/>
    <path class="st7" d="M236.7,114.2c18.5-6.6,38.9,2.7,46,20.9,0-.4-.2-.6-.4-1-7-18.8-27.8-28.4-46.6-21.4-18.5,6.9-28.1,27.3-21.7,46,0,.4.2.6.4,1-6.1-18.6,3.7-38.8,22.1-45.4h.1,0Z"/>
    <path class="st0" d="M269.8,150.7c-1.7-4.8-5.1-7.1-8.9-7.1,2.1-2.8,2.4-6.4,1.1-9.5-1.7-4.8-5.5-7.1-10.9-6.5l-2.2-5.9-5.4,2,2,5.4-3.1,1.1-2-5.4-5.4,2,2,5.4-4.9,1.7-3.4,1.2,2,5.4,3.4-1.2,9.4,26.1-3.8,1.3,2,5.4,3.8-1.3h0l4.9-1.7,2.3,6.2,5.4-2-2.3-6.2,3.1-1.1,2.3,6.2,5.4-2-2.3-6.5c5.7-2.9,7.7-7.6,5.7-13.1h-.1ZM241,136.9l7.2-2.6c4-1.5,7-.6,8.2,2.8s-.5,5.9-4.5,7.3l-8.3,3.1-3.7-10.2,1-.4h.1ZM258.8,159.9l-8.8,3.2-.6.2-3.8-10.6,9.4-3.4c4.4-1.6,7.3-.9,8.7,2.9s-.5,6.1-4.9,7.7h0Z"/>
    <path class="st7" d="M267.3,151.7c-1.7-4.8-5.1-7.1-8.9-7.1,2.1-2.8,2.4-6.4,1.1-9.5-1.7-4.8-5.5-7.1-10.9-6.5l-2.1-5.9-5.4,2,2,5.4-3.1,1.1-2-5.4-5.4,2,2,5.4-4.9,1.7-3.4,1.2,2,5.4,3.4-1.2,9.4,26.2-3.8,1.3,2,5.4,3.8-1.3h0l4.9-1.7,2.2,6.2,5.4-2-2.3-6.2,3.2-1.1,2.3,6.2,5.4-2-2.3-6.5c5.7-3.1,7.6-7.7,5.6-13.2h-.1ZM238.4,137.7l7.2-2.6c4-1.5,7-.6,8.2,2.8s-.5,5.9-4.5,7.3l-8.2,2.9-3.7-10.2,1-.4h0ZM256.3,160.8l-8.8,3.2-.6.2-3.8-10.6,9.4-3.4c4.4-1.6,7.3-.7,8.7,2.9s-.5,6.1-4.9,7.7Z"/>
    <path class="st11" d="M237.9,125.7c0,.2-2,1.3-5.1,2.7l.5-1c.6,1.5,1.3,3.3,2.1,5.4l.4.9-.9.4-1.5.5c-2.6,1-4.9,1.7-6.9,2.3l.5-1c1,3.3,1.5,5.5,1.2,5.6s-1.3-2-2.7-5.1l-.2-.7.7-.4c2-.9,4.3-1.7,6.9-2.6l1.5-.5-.6,1.2c-.7-2-1.3-3.9-1.8-5.5l-.2-.7.7-.2c3.3-1,5.5-1.6,5.6-1.2h-.1Z"/>
    <path class="st11" d="M247.6,122.4c.1.5-1.1,1.5-2.9,2.1s-3.4.7-3.5.2,1.1-1.5,2.9-2.1,3.4-.7,3.5-.2Z"/>
    <path class="st11" d="M240.6,166.1c-.5.1-2.9-5.4-5.5-12.5s-4.2-13-3.7-13.1,2.9,5.4,5.5,12.5,4.2,13,3.7,13.1Z"/>
    <path class="st11" d="M252.1,144.4c.1.5-2,1.7-4.9,2.8s-5.4,1.5-5.5,1,2-1.7,4.9-2.8,5.4-1.5,5.5-1Z"/>
    <path class="st11" d="M258,160.2c.1.5-2,1.7-4.9,2.8s-5.4,1.5-5.5,1,2-1.7,4.9-2.8,5.4-1.5,5.5-1Z"/>
  </g>
  <path class="st8" d="M363.9,48.7c-6-8.1-4.6-15.2,0-20.3,5.8-6.4,15.1-6.3,21.4-3.1,9.8,5.1,11.9,27.5-4.5,30.7-5.8-2-11.5-4.5-16.9-7.3Z"/>
  <path class="st8" d="M383.3,26.7c6-3.5,4.3-10.4,9.8-14,7.5-5,23.8-2.8,18.7,9.7-5.1,12.5,13,13.2,7.8,25.6s-20.5,20-24.4,2c-2.9-13.5,9.5-30.9-.5-29-6.3,1.2-8.4,7.6-8.4,7.6l-2.9-1.9h-.1Z"/>
  <path class="st1" d="M368.4,79.7c-.8,2.3-1.7,4.3-2.7,6.5s-2,4.2-3.1,6.2c-2.2,4.3-5,8.3-8.3,11.9-.9,1-2,1.9-3.1,2.7-1.1.8-2.3,1.4-3.5,2-2.2,1-4.6,1.8-7,2.3-4.6,1.1-9.2,1.6-13.9,1.5-1.2,0-2.2-1-2.1-2.2,0-1,.7-1.8,1.6-2.1h.1c4.2-1,8.3-2.2,12.3-3.7,1.9-.7,3.7-1.6,5.5-2.6.8-.4,1.5-1,2.2-1.5.7-.6,1.3-1.2,1.9-1.9,1.3-1.5,2.4-3.1,3.5-4.9s2.1-3.6,3.1-5.5c1.9-3.8,3.7-7.8,5.2-11.7h0c.9-2.3,3.4-3.4,5.6-2.6,2.2.9,3.4,3.4,2.5,5.6h.2Z"/>
  <path class="st8" d="M367.1,72.3c-8.3.9-12.8,13.3-12.8,13.3l8.5,11.9s10-11.3,10.9-16.4c.9-5.2-.4-9.6-6.5-8.9h-.1Z"/>
  <path class="st4" d="M362.6,79.9c2.8-1.7,5.8-.8,8.4,2.4.5.9.9,1.9,1,3-2.5,4.5-9.2,12.2-9.2,12.2l-3.9-5.4c-.3-3.2,1.9-11.1,3.7-12.2Z"/>
  <path class="st1" d="M328.5,108.9l-6.2-3.4-.2,8.1s4.2.9,6.9-1.3l-.5-3.4h0Z"/>
  <polygon class="st1" points="316 105.9 317.1 112.5 322.1 113.7 322.3 105.6 316 105.9"/>
  <path class="st5" d="M347.4,91.2l-5.5-4.5-37.2,55.9,5.5,4.5c6.3,5.1,19.7-3.2,30-18.6s13.4-32.1,7.1-37.3h.1Z"/>
  <path class="st2" d="M347.4,91.2l-5.5-4.5-37.2,55.9,5.5,4.5c6.3,5.1,19.7-3.2,30-18.6s13.4-32.1,7.1-37.3h.1Z"/>
  <ellipse class="st5" cx="323.2" cy="114.6" rx="33.6" ry="14.6" transform="translate(53.6 326.6) rotate(-57.7)"/>
  <path class="st9" d="M316.4,123.9l5-7.5c-.5-1.5-.5-3.2,0-4.8.6-2,1.5-3.8,2.6-5.5s2.4-3.2,4.1-4.3c1.4-.9,2.6-1.1,3.6-.7l1.2-1.8,1.1.9-1.2,1.8c.7,1,.9,2.3.6,3.5-.4,1.8-1.1,3.5-2,5l-2.2-.9c.7-1.1,1-2.3,1-3.6l-4.7,7c.6,1.6.8,3.3.4,5-1.3,4-3.7,7.5-7,10.1-1.5,1.1-2.9,1.4-4.1.9l-1.2,1.8-1.1-.9,1.1-1.7c-.7-1.2-.9-2.7-.5-4,.5-2.2,1.4-4.4,2.6-6.3l2.3,1.1c-.5.9-.9,1.9-1.2,2.8-.2.7-.3,1.4-.3,2.1h0ZM329,104.9c-.6,0-1.1.3-1.5.7-1.2,1-2,2.2-2.5,3.7-.2.6-.3,1.3-.2,1.9l4.1-6.2h.1ZM317.3,124.9c.6,0,1.3,0,1.7-.5,1.4-1.1,2.5-2.6,3-4.4.2-.7.2-1.4,0-2.1l-4.7,7Z"/>
  <path class="st2" d="M340.3,105.3c.7-4.9,0-8.8-2.3-10.8-5.1-4.2-16,2.6-24.4,15.2-3.5,5.2-6.1,10.9-7.7,17,.9-5.7,3.7-12.8,8.2-19.6,8.4-12.6,19.3-19.4,24.4-15.2,2.8,2.2,3.3,7.3,1.8,13.4Z"/>
  <polygon class="st1" points="412.8 291.7 404.4 292.5 400.1 273 408.5 272.2 412.8 291.7"/>
  <polygon class="st1" points="459.6 279.6 451.8 282.7 444.2 264.1 452 261.1 459.6 279.6"/>
  <path class="st8" d="M449.5,278.9l8.6-4.3c.3-.2.7,0,.9.2l4.3,6.3c.4.6.3,1.5-.4,1.9h-.2c-3,1.4-4.3,2.1-8.1,4-2.3,1.1-7.5,3.9-10.7,5.5s-4.9-1.5-3.8-2.4c5.3-4.2,7.1-7.5,8.3-10.1.2-.5.6-.9,1-1.1h.1Z"/>
  <path class="st8" d="M402.7,288.2h10.1c.4,0,.7.3.8.6l2.2,8c.2.7-.2,1.4-.8,1.6h-23.7c-3.7,0-4.5-3.7-3-4.1,6.9-1.5,10.8-3.6,12.9-5.6.4-.4.9-.6,1.5-.5Z"/>
  <polygon class="st4" points="400.1 273 402.3 283.1 410.9 283.1 408.5 272.2 400.1 273"/>
  <polygon class="st4" points="452 261.1 444.2 264.2 448.1 273.7 455.9 270.7 452 261.1"/>
  <path class="st8" d="M392.8,63.8c6.7-.8,11,2.4,11.3,9.1.9,23.5,3.5,28.9,7.4,41.1l-33.3,9.3c-11.8-25.6-16-37.7-17.3-43.4-.6-2.7.8-5.5,3.2-6.8,8.9-4.9,18.6-8.1,28.7-9.3h0Z"/>
  <path class="st1" d="M382.6,48.1c.4,5.1,1.7,14,6,16.4,0,0-.6,3.2-11.7,13.7-6.8-5.7-3.3-9.6-3.3-9.6,5.1-2.8,3.9-6.5,1.9-10l7.1-10.5Z"/>
  <path class="st4" d="M381.9,49.2c.7,2.9.8,6,.3,8.9-.4,2-2.6,3.5-5,4.4-.3-1.4-.9-2.7-1.6-3.9l6.3-9.4h0Z"/>
  <path class="st1" d="M384.6,38.4c1.6,8.3,2.5,11.8-.5,17-4.5,7.9-15.1,8.1-19.2.5-3.7-6.9-5.7-19.3,1.4-24.6,5.1-3.8,12.3-2.8,16.1,2.3,1.1,1.4,1.8,3.1,2.1,4.9h.1Z"/>
  <path class="st1" d="M388.9,43.4c.2,1.6-.2,3.3-1.1,4.6-1.3,1.7-3.3.9-4-1-.7-1.7-.8-4.7,1-5.7,1.3-.7,3-.2,3.8,1.1.2.3.3.7.3,1.1h0Z"/>
  <path class="st8" d="M377.3,34c-.3,3.2,2.2,8.6,7,9.8,4.9-5.7,1.7-13.5-2.9-13.6s-4.1,3.8-4.1,3.8Z"/>
  <path class="st8" d="M370.7,25.4c-7.3.3-15.1,3.6-12.4,15,6.4-1.3,24.1-3.3,25.4-7.8-1.8-5.8-8.2-7.4-13-7.2Z"/>
  <path class="st5" d="M378.2,123.3s-1.9,67.3,3.5,92.7c5.6,26.4,18.3,64.2,18.3,64.2l11.9-.8s-7.7-49.4-10-69.7c-3.3-28.1.8-93.1.8-93.1l-24.4,6.8h0Z"/>
  <path class="st4" d="M394.9,144.3c.5-6.1,5.1-4.9,6.2,3.3-.5,13-.8,28.1-.5,41.3-5-9.7-6.9-30.8-5.7-44.6h0Z"/>
  <polygon class="st8" points="413.3 280.1 399 281.1 397 274.4 412.5 272.7 413.3 280.1"/>
  <path class="st5" d="M389.9,120s10.1,56.4,23.9,86.8c11.1,24.5,31.3,64,31.3,64l10.9-4.1s-17.1-44.8-23.3-62.1c-15.4-43-7-69.1-21.3-90.6l-21.6,6h.1Z"/>
  <polygon class="st8" points="457.3 267.7 444.7 272.1 441.1 265.6 456.1 261.9 457.3 267.7"/>
  <path class="st8" d="M411.4,111.9l2.3,2.6c.2.2,0,.5-.4.6l-34.9,9.7c-.3,0-.6,0-.7-.2l-1.1-2.9c0-.2.1-.4.5-.5l33.7-9.4h.6Z"/>
  <path class="st5" d="M408,116.9l.9-.3c.2,0,.3-.2.2-.3l-1.5-3.8c0,0-.2-.2-.4,0l-.9.2c-.2,0-.3.2-.2.3l1.5,3.8c0,0,.2.2.4,0h0Z"/>
  <path class="st5" d="M381.1,124.4l.9-.2c.2,0,.3-.2.2-.3l-1.5-3.8c0,0-.2-.2-.4,0l-.9.2c-.2,0-.3.2-.2.3l1.5,3.8c0,0,.2.2.4,0Z"/>
  <path class="st5" d="M394.5,120.7l.9-.2c.2,0,.3-.2.2-.3l-1.5-3.8c0,0-.2-.2-.4,0l-.9.2c-.2,0-.3.2-.2.3l1.5,3.8c0,0,.2.2.4,0Z"/>
  <path class="st8" d="M372.8,43.9c.2.7,0,1.3-.5,1.4s-.9-.3-1.1-1,0-1.3.5-1.4.9.3,1.1,1Z"/>
  <path class="st8" d="M365.3,45.9c.2.7,0,1.3-.5,1.4s-.9-.3-1.1-1,0-1.3.5-1.4.9.3,1.1,1Z"/>
  <path class="st8" d="M364.4,44.9h-1.7s1.1,1,1.7,0Z"/>
  <path class="st12" d="M367.6,46.5c-.2,1.7-.6,3.3-1.3,4.9.8.3,1.7.2,2.5-.2l-1.2-4.7Z"/>
  <path class="st8" d="M371.8,53.2s-.1,0-.2-.2c0,0,0-.2.1-.2h0c1.7-.4,3.1-1.6,3.8-3.2,0,0,.1-.2.2,0h0c.1,0,.2,0,.1.2-.7,1.7-2.2,3-4,3.4h-.1.1Z"/>
  <path class="st8" d="M374.3,40.9h-.2c-.8-.7-1.8-.9-2.8-.6-.2,0-.4,0-.5-.3,0-.2,0-.4.2-.5h0c1.3-.3,2.6,0,3.6.8.2,0,.2.4,0,.6,0,0-.2.2-.4,0h0Z"/>
  <path class="st8" d="M360.8,43.3h0c-.2,0-.3-.3-.3-.5h0c.4-1.2,1.4-2.2,2.6-2.6.2,0,.4,0,.5.3h0c0,.2,0,.4-.3.5-1,.3-1.7,1.1-2,2.1,0,.2-.3.3-.5.2h0Z"/>
  <path class="st1" d="M400,79.6c-2.6,5.4-5.3,10.6-8.1,15.9-1.4,2.6-2.8,5.2-4.4,7.8s-3,5.2-4.8,7.8c-.4.6-.9,1.3-1.4,2l-.2.2h0c0,0-.1.3-.1.3-.2.3-.4.5-.6.7-.4.4-.8.7-1.2,1.1-1.4,1.1-3,1.9-4.7,2.6-2.9,1.2-5.9,2.1-9,2.8-5.9,1.4-11.8,2.3-17.9,2.8l-.7-4.3c2.8-.7,5.6-1.5,8.4-2.3s5.6-1.7,8.3-2.6c2.6-.9,5.2-1.9,7.7-3.2,1.1-.5,2-1.2,3-1.9.1,0,.3-.3.4-.4h.1c0,0,.2-.4.2-.4.4-.6.7-1.1,1.1-1.7,1.4-2.4,2.8-4.9,4.2-7.5l4-7.8,8-15.7,7.8,3.8h0Z"/>
  <path class="st1" d="M349.6,119.3l-5.9-2.3.5,8.3s4.6,0,6.8-2.9l-1.4-3.2h0Z"/>
  <polygon class="st1" points="339 117.3 337.8 123.4 344.2 125.4 343.7 117.1 339 117.3"/>
  <path class="st8" d="M392.7,68.1c-3.3,1.5-7.1,15.2-7.1,15.2l14.2,1.6s2.8-6.6,2.2-10.1c-.8-5.4-5.6-8.5-9.3-6.8h0Z"/>
  <path class="st5" d="M445.2,281.3s0-.2-.1-.3c0-.2,0-.5.1-.7.7-.8,3.8-.5,4.1-.5,0,0,.1,0,.2.1v.2c-.9.7-2.5,1.9-3.5,1.6-.3,0-.5-.3-.6-.5h-.2ZM448.8,280.2c-1.2-.1-2.9,0-3.2.4v.3c0,.3.2.5.5.5.5.2,1.6-.3,2.8-1.2h0Z"/>
  <path class="st5" d="M446,278.5v-.2c0-.3,0-.7.4-.8.3-.2.6-.2.9-.1,1.2.3,2.3,2.5,2.3,2.6v.2h-.2c-1.3-.2-2.4-.8-3.3-1.7h0ZM448.9,279.8c-.4-.7-1.2-1.8-1.9-2h-.5c-.2.1-.2.3-.2.4.1.6,1.6,1.4,2.6,1.6h0Z"/>
  <path class="st5" d="M398.2,289.8c-.7,0-1.4-.1-2-.5-.3-.2-.5-.6-.5-1s0-.4.2-.5c.9-.6,4.4.9,5,1.3,0,0,.1.1.1.2,0,0,0,.2-.2.2-.9.2-1.8.3-2.7.4h.1ZM396.6,288.1h-.4v.2c0,.3.1.5.4.7.6.5,2,.5,3.8.2-1.2-.6-2.4-.9-3.6-1.1h-.2Z"/>
  <path class="st5" d="M401,289.5h0c-1.1-.5-3.4-2.3-3.3-3.3,0-.2.2-.5.7-.5,2-.2,2.9,3.4,2.9,3.6v.2h-.3ZM398.5,286.1h-.1c-.2,0-.3,0-.3.2,0,.5,1.5,2,2.7,2.6-.3-.9-1-2.8-2.2-2.8h-.1Z"/>
  <path class="st8" d="M371.9,42.9h-1.7s1.1,1,1.7,0Z"/>
  <path class="st8" d="M375.9,298.4h54.7c.8,0,1.4.6,1.4,1.4h0v4.6h-57.6v-4.6c0-.8.6-1.4,1.4-1.4h.1Z"/>
  <rect class="st8" x="374.9" y="319.7" width="57.5" height="6"/>
  <rect class="st3" x="394.4" y="319.7" width="38" height="6"/>
  <path class="st8" d="M400,304.4l-6.5,40.5c-.1.7-.7,1.2-1.4,1.2h-3.2c-.8,0-1.4-.6-1.4-1.4v-.2l6.4-40.1h6.1Z"/>
  <polygon class="st3" points="400 304.4 399.5 307.5 393.4 307.5 393.9 304.4 400 304.4"/>
  <path class="st8" d="M380.5,304.4l-6.5,40.5c-.1.7-.7,1.2-1.4,1.2h-3.2c-.8,0-1.4-.6-1.4-1.4v-.2l6.4-40.1h6.1Z"/>
  <path class="st8" d="M438.4,344.5l-6.4-40.1h-6l6.4,40.5c.1.7.7,1.2,1.4,1.2h3.2c.8,0,1.4-.6,1.4-1.4v-.2Z"/>
  <polygon class="st3" points="432.5 307.5 432 304.4 426 304.4 426.4 307.5 432.5 307.5"/>
  <path class="st8" d="M418.9,344.5l-6.4-40.1h-6l6.4,40.5c.1.7.7,1.2,1.4,1.2h3.2c.8,0,1.4-.6,1.4-1.4v-.2Z"/>
  <path class="st3" d="M418.9,344.5l-6.4-40.1h-6l6.4,40.5c.1.7.7,1.2,1.4,1.2h3.2c.8,0,1.4-.6,1.4-1.4v-.2Z"/>
  <path class="st3" d="M393.9,298.4h36.6c.8,0,1.4.6,1.4,1.4h0v4.6h-38v-6h0Z"/>
</svg>