<?xml version="1.0" encoding="UTF-8"?>
<svg id="_0252_money_transfer_2" xmlns="http://www.w3.org/2000/svg" version="1.1" viewBox="0 0 600 225">
  <!-- Generator: Adobe Illustrator 29.8.2, SVG Export Plug-In . SVG Version: 2.1.1 Build 3)  -->
  <defs>
    <style>
      .st0 {
        fill: #f4a28c;
      }

      .st1 {
        fill: #a5a5a5;
      }

      .st2 {
        fill: #37474f;
      }

      .st3 {
        fill: #263238;
      }

      .st4 {
        fill: #000001;
      }

      .st5 {
        fill: #ff5c00;
      }

      .st6 {
        fill: #fff;
      }

      .st7 {
        fill: #ffe4d6;
      }

      .st8 {
        opacity: .1;
      }
    </style>
  </defs>
  <g id="bg_money-transfer-2-56">
    <path class="st1" d="M371,112.2c.4.9,0,1.9-.9,2.4-.6.3-1.1.5-1.6.8-.9.4-2,0-2.4-.9-.4-.9,0-2,.9-2.4.5-.2,1.1-.5,1.6-.8.9-.4,2,0,2.4.8h0q0,0,0,0ZM352.5,118.8c0,.1,0,.3.1.4.2,1-.5,1.9-1.4,2.1-.6.1-1.2.2-1.8.3-1,.1-1.9-.6-2-1.5-.1-1,.5-1.9,1.5-2,.5,0,1.1-.2,1.7-.3.8-.2,1.6.3,2,1h0ZM333.8,115.1c.3.6.2,1.3-.2,1.9-.6.8-1.8.9-2.5.3-.5-.4-1-.8-1.5-1.3-.7-.7-.7-1.8,0-2.5.7-.7,1.8-.7,2.5,0,.4.4.8.7,1.2,1.1.2.2.4.4.5.7h0ZM322.6,99c.4.9,0,1.9-.8,2.3-.9.5-2,0-2.4-.8l-.8-1.6c-.5-.9,0-2,.8-2.4s2,0,2.4.8l.8,1.6h0c0,0,0,0,0,0ZM313.5,81.5c.4.8,0,1.8-.7,2.3-.9.5-2,.2-2.5-.6-.3-.5-.6-1-.9-1.5-.5-.8-.3-2,.6-2.5.8-.5,2-.3,2.5.6.3.5.6,1,.9,1.6,0,0,0,.1,0,.2ZM301.6,65.7c.3.7.2,1.5-.4,2-.7.7-1.8.7-2.5,0-.4-.4-.8-.8-1.2-1.2-.7-.7-.7-1.8,0-2.5s1.8-.7,2.5,0c.4.4.9.9,1.3,1.3.2.2.3.3.4.5h0ZM285.9,53.9c.2.5.2,1,0,1.5-.4.9-1.5,1.2-2.4.8-.5-.3-1-.5-1.6-.7-.9-.4-1.3-1.5-.9-2.4.4-.9,1.5-1.3,2.4-.9.6.3,1.1.5,1.7.8.4.2.7.5.8.9h0ZM266.8,50.3c0,.1.1.3.1.4.2,1-.5,1.9-1.5,2.1-.6,0-1.1.2-1.6.3-1,.2-1.9-.4-2.2-1.3-.2-1,.4-1.9,1.3-2.2.6-.1,1.2-.3,1.9-.4.8-.1,1.6.3,1.9,1h0ZM249.6,59.5c.3.7.2,1.5-.4,2-.4.4-.8.8-1.2,1.2-.7.7-1.8.7-2.5,0-.7-.7-.7-1.8,0-2.5.4-.4.9-.9,1.3-1.3.7-.7,1.9-.7,2.5,0,.1.1.3.3.3.5h0ZM238,75.4c.2.5.2,1,0,1.5-.5,1-.7,1.5-.7,1.5-.4.9-1.5,1.3-2.4.9s-1.3-1.5-.9-2.4c0,0,.3-.6.8-1.7.4-.9,1.5-1.2,2.4-.8.4.2.7.5.8.9h0Z"/>
  </g>
  <g>
    <path class="st0" d="M123,71.3s54.9-13.2,67.7,13.4c12.7,26.7-58.8,78.3-98.4,17.5l30.7-31h0Z"/>
    <g class="st8">
      <path class="st4" d="M123,71.3s54.9-13.2,67.7,13.4c12.7,26.7-58.8,78.3-98.4,17.5l30.7-31h0Z"/>
    </g>
    <rect class="st3" x="103.1" y="81.4" width="134.4" height="75.6" transform="translate(-34.8 85.1) rotate(-25.6)"/>
    <rect class="st7" x="125.5" y="85" width="100.6" height="63.3" transform="translate(-33.1 87.2) rotate(-25.6)"/>
    <rect class="st3" x="144.7" y="114.7" width="12.3" height="30" transform="translate(-41.2 77.7) rotate(-25.6)"/>
    <circle class="st5" cx="193.9" cy="108" r="20.7"/>
    <path class="st6" d="M179.9,111.4l3.7-1.8.8,1.7-3.7,1.8-.8-1.7ZM180.5,105.9l21.2-10.1,4.1,8.5c.7,1.6,1.1,3,1.2,4.2,0,1.3-.2,2.4-.8,3.3-.6.9-1.4,1.6-2.4,2.1-.8.4-1.6.6-2.4.5s-1.5-.2-2.2-.6-1.3-.9-1.8-1.6h-.2c.4.9.5,1.8.4,2.7,0,.9-.4,1.8-.9,2.6-.5.8-1.3,1.5-2.4,2-1.1.5-2.3.7-3.4.6-1.1-.1-2.2-.6-3.3-1.5-1-.8-1.9-2.1-2.7-3.6l-4.3-9.1ZM181.7,115.2l3.7-1.8.8,1.7-3.7,1.8-.8-1.7ZM186.4,108.7l1.7,3.7c.6,1.3,1.3,2,2,2.4.8.3,1.5.3,2.3,0,.6-.3,1-.7,1.4-1.2.3-.5.5-1.1.5-1.7,0-.6-.2-1.3-.5-2l-1.8-3.8-5.6,2.7ZM195,104.5l1.6,3.3c.3.6.7,1.1,1.1,1.5s.9.6,1.5.7c.5,0,1.1,0,1.6-.3.8-.4,1.3-.9,1.5-1.7.2-.8,0-1.6-.4-2.6l-1.6-3.4-5.3,2.5ZM202.7,100.5l3.7-1.8.8,1.7-3.7,1.8-.8-1.7ZM204.5,104.3l3.7-1.8.8,1.7-3.7,1.8-.8-1.7Z"/>
    <path class="st0" d="M151.5,83.3s30.9,10.5,33.3,20.3c2,8.1-12.6,15.1-32.4,4.9-8.1-4.2-17.6-4.7-26-1.4-7,2.8-16.2,4.4-25.6.4-19.8-8.4-13.7-24.5,4.3-31.3,18-6.9,23.6-8.4,46.5,7.1h0Z"/>
    <polygon class="st5" points="107.4 114.3 -3.4 157.7 -21.6 88.5 100.5 69.3 107.4 114.3"/>
    <g class="st8">
      <polygon class="st4" points="-10.5 130.7 104.1 92.8 107.4 114.3 -3.4 157.7 -10.5 130.7"/>
    </g>
    <circle class="st1" cx="119.7" cy="141.5" r="7.4"/>
  </g>
  <g>
    <path class="st0" d="M483.2,77.9s-52.7-10.7-63.9,15.2c-11.2,25.8,58.8,72.4,94.2,13.2l-30.3-28.4Z"/>
    <g class="st8">
      <path class="st4" d="M483.2,77.9s-52.7-10.7-63.9,15.2c-11.2,25.8,58.8,72.4,94.2,13.2l-30.3-28.4Z"/>
    </g>
    <rect class="st3" x="403.8" y="61.3" width="72" height="128" transform="translate(150.1 479.1) rotate(-66.6)"/>
    <rect class="st7" x="404.5" y="75.1" width="60.3" height="95.8" transform="translate(149 472.9) rotate(-66.6)"/>
    <rect class="st3" x="446.8" y="127" width="28.3" height="14.7" transform="translate(154.4 503.9) rotate(-66.6)"/>
    <circle class="st5" cx="421.8" cy="117.5" r="19.7"/>
    <path class="st6" d="M432,126.8l-3.5-1.7.8-1.6,3.5,1.7-.8,1.6ZM427.6,129.6l-20.2-9.7,3.9-8.1c.7-1.5,1.5-2.6,2.5-3.4.9-.8,1.9-1.2,2.9-1.4,1-.1,2,0,3,.5.8.4,1.4.9,1.8,1.5s.7,1.3.8,2,0,1.5-.1,2.3h.2c.4-.7,1-1.3,1.7-1.8.7-.5,1.5-.8,2.5-.8.9,0,1.9.1,2.9.6,1.1.5,1.9,1.2,2.5,2.2.6.9.9,2,.9,3.3,0,1.3-.4,2.7-1.1,4.2l-4.2,8.6ZM433.8,123.2l-3.5-1.7.8-1.6,3.5,1.7-.8,1.6ZM426.2,123.6l1.7-3.5c.6-1.2.8-2.2.6-2.9-.2-.8-.7-1.3-1.4-1.7-.6-.3-1.1-.4-1.7-.3-.6,0-1.1.3-1.6.7-.5.4-.9.9-1.2,1.6l-1.7,3.6,5.4,2.6ZM417.9,119.6l1.5-3.2c.3-.6.4-1.2.4-1.7s-.1-1.1-.4-1.5c-.3-.4-.6-.8-1.2-1.1-.7-.4-1.4-.4-2.1,0-.7.3-1.3.9-1.7,1.9l-1.6,3.2,5,2.4ZM410.4,116.4l-3.5-1.7.8-1.6,3.5,1.7-.8,1.6ZM412.1,112.7l-3.5-1.7.8-1.6,3.5,1.7-.8,1.6Z"/>
    <path class="st0" d="M456.5,90.4s-29,11.1-30.9,20.5c-1.6,7.7,12.6,13.9,31,3.5,7.6-4.3,16.5-5.1,24.7-2.2,6.8,2.4,15.5,3.6,24.3-.5,18.5-8.7,12.2-23.8-5.2-29.7-17.4-5.9-22.7-7.2-44,8.4Z"/>
    <polygon class="st2" points="499.6 118.3 606.5 155.7 621.4 89.1 504.5 75.3 499.6 118.3"/>
    <g class="st8">
      <polygon class="st4" points="612.3 129.7 502 97.8 499.6 118.3 606.5 155.7 612.3 129.7"/>
    </g>
    <circle class="st1" cx="488.8" cy="144.6" r="7"/>
  </g>
</svg>