<?xml version="1.0" encoding="UTF-8"?>
<svg id="Layer_1" xmlns="http://www.w3.org/2000/svg" version="1.1" viewBox="0 0 600 225">
  <!-- Generator: Adobe Illustrator 29.8.2, SVG Export Plug-In . SVG Version: 2.1.1 Build 3)  -->
  <defs>
    <style>
      .st0 {
        fill: #ffc3b3;
      }

      .st1 {
        opacity: .3;
      }

      .st1, .st2 {
        isolation: isolate;
      }

      .st3 {
        fill: #ff603b;
      }

      .st4 {
        fill: #ffbe9d;
      }

      .st5 {
        fill: #ffcfbc;
      }

      .st6 {
        fill: #ffd5c1;
      }

      .st7 {
        fill: #263238;
      }

      .st8 {
        fill: #eb996e;
      }

      .st9 {
        fill: #ffe4d6;
      }

      .st10 {
        fill: #fafafa;
      }

      .st11 {
        opacity: .4;
      }

      .st12 {
        fill: #455a64;
      }

      .st2 {
        fill: #fff;
        opacity: .2;
      }
    </style>
  </defs>
  <g>
    <path class="st12" d="M50.4,142.8c2.7-1.4,5.9-1.6,8.8-.6,2.9,1,5.4,2.7,7.5,4.8,4.2,4.1,6.8,10.2,8.3,15.9-6.4,1.3-12.9-2.4-16.1-4.4-5.1-3.3-12.3-12.2-8.5-15.7"/>
    <path class="st12" d="M86.1,164.3c-3.1-1.5-5.1-4.6-5.3-8-.2-3.4,1.1-6.7,3.4-9.2.9-1.3,2.4-2.1,4-2.1,1.5.2,2.8,1.1,3.3,2.5.5,1.4.7,2.8.5,4.3-.5,5-1.9,9.7-5.9,12.6"/>
    <path class="st7" d="M96.4,180.1c-.3-.3-.6-.5-.8-.9l-2.2-2.4c-2.5-2.6-4.6-5.6-6.1-8.9-1.5-3.3-2.1-7-1.7-10.6.1-1.1.4-2.2.8-3.2.1-.4.3-.6.4-.8,0,0,0-.2.2-.3-1.7,4.8-1.4,10.1.8,14.8,1.5,3.2,3.6,6.2,6,8.9l2.1,2.5c.3.3.5.6.7,1Z"/>
    <path class="st7" d="M56.5,149.2c.2,0,.3.2.5.3l1.2.8c1.1.7,2.6,1.8,4.5,3.2,3.8,2.7,8.9,6.5,14.5,10.9,5.6,4.4,10.6,8.4,14.1,11.4,1.8,1.5,3.2,2.7,4.2,3.6l1.1,1c.1.1.3.2.4.4-.2,0-.3-.2-.4-.3l-1.2-.9c-1-.9-2.5-2-4.3-3.5-3.6-2.9-8.6-6.9-14.2-11.3s-10.7-8.2-14.5-11l-4.4-3.3c-.5-.4-.9-.7-1.2-.9-.1,0-.3-.2-.4-.3Z"/>
    <path class="st12" d="M83.7,173.1c-6.4-3.4-14-3.5-20.5-.3-1.6.8-3.3,2.2-3.2,4s2,2.9,3.8,3.4c7.5,2,15.4-.6,20.2-6.7"/>
    <path class="st7" d="M68.1,175.5c.3-.2.7-.4,1-.5.4-.2.8-.4,1.2-.5.5-.2,1.1-.4,1.6-.6.7-.2,1.4-.4,2.1-.6.8-.2,1.6-.3,2.4-.4,1.9-.2,3.7-.2,5.6,0,1.9.2,3.7.7,5.5,1.3.8.3,1.5.6,2.2,1,.6.3,1.3.7,1.9,1,.5.3,1,.6,1.4,1,.4.3.7.5,1,.8.3.2.6.5.8.8,0,0-1.2-1-3.4-2.4-.6-.4-1.2-.7-1.9-1-.7-.4-1.5-.7-2.2-1-1.7-.6-3.5-1-5.4-1.3-1.8-.2-3.7-.2-5.5,0-.8.1-1.6.2-2.4.4-.7.1-1.3.3-2,.5-2.5.7-3.9,1.5-4,1.4Z"/>
  </g>
  <g>
    <path class="st3" d="M524.7,85.3c2.9,1,5.5,2.8,7.2,5.3,1.1,1.2,1.7,2.8,1.9,4.5,0,1.6-1.4,3.3-3,3.2-1-.2-1.9-.7-2.5-1.4-1.7-1.6-3.3-3.7-5.7-4-1.3-.1-2.8.3-4-.2-1.2-.7-1.8-2.1-1.4-3.4.4-1.3,1.2-2.3,2.4-3,1.5-1.1,3.4-1.5,5.1-1Z"/>
    <path class="st3" d="M528.4,72.3c-.4,2.9,2.5,4.5,4.6,4.5s4-1.1,5.8-2.2c4.1-2.4,8.4-5,10.8-9,.8-1.2,1.3-2.6,1.3-4,0-1.4-.7-2.8-1.9-3.6-1.5-.8-3.3-.3-4.9.3-4.6,1.8-8.8,4.6-12.2,8.2-1.7,1.6-2.9,3.6-3.4,5.9"/>
    <path class="st3" d="M522.8,71.6c2.8-.5,5.2-2.3,6.4-4.9,1.2-2.6,1.6-5.4,1.3-8.2-.3-3.3-1.2-6.5-2.7-9.4-.5-1.2-1.3-2.2-2.3-3.1-1-.8-2.4-1.1-3.6-.8-1.8.6-2.6,2.7-3.1,4.5-.9,3.3-1.4,6.6-1.8,9.9-.3,2.7-.3,5.5.8,8s3.2,4.2,5.3,3.8"/>
    <path class="st7" d="M503.8,98.2c.3-.2.6-.4.9-.7l2.2-1.9c1.1-1,2.2-1.9,3.4-2.7,1.5-1,3-1.9,4.6-2.6,1.6-.8,3.3-1.3,5.1-1.6,1.4-.2,2.9-.1,4.3.3.9.3,1.8.7,2.6,1.3.3.2.6.4.9.6-.2-.3-.5-.5-.8-.8-.8-.6-1.7-1.1-2.6-1.4-1.4-.5-2.9-.6-4.4-.4-1.8.3-3.5.8-5.2,1.6-1.6.8-3.2,1.7-4.7,2.7-1.2.9-2.3,1.8-3.4,2.8-.9.8-1.6,1.6-2.1,2.1-.3.2-.5.5-.7.8Z"/>
    <path class="st7" d="M505.5,96.7c.1,0,.3-.2.4-.3.2-.3.6-.6,1-1,.9-.9,2.1-2.2,3.7-3.8,3.1-3.1,6.7-6.4,11.8-10.7,4.9-4.1,10.6-8.8,14.6-11.6.9-.6,1.7-1.2,2.5-1.7s1.4-.9,1.9-1.2l1.2-.8c.1,0,.3-.2.4-.3-.2,0-.3.1-.4.2l-1.2.7c-.5.3-1.2.7-1.9,1.2s-1.6,1-2.5,1.6c-4.8,3.3-9.4,6.8-13.8,10.6-5.2,4.4-9.6,8.6-12.7,11.8-1.5,1.6-2.7,2.9-3.6,3.9l-.9,1.1c-.1.1-.2.2-.3.4Z"/>
    <path class="st7" d="M513.6,88.1c.4-.3.7-.7,1-1.1.9-1,1.7-2.1,2.4-3.2,1.1-1.7,2.2-3.4,3.1-5.2,1.2-2.2,2.2-4.4,3-6.8,1.6-4.2,2.4-8.7,2.5-13.2,0-.8,0-1.6-.1-2.3,0-.3,0-.7-.1-1s-.1-.5-.2-.8c0-.5-.2-1-.4-1.4.3,1.8.4,3.7.5,5.5-.1,4.4-1,8.8-2.6,13-.8,2.3-1.8,4.6-2.9,6.7-.9,1.8-1.9,3.5-3,5.2-.9,1.4-1.7,2.6-2.3,3.3-.3.4-.6.8-.8,1.3Z"/>
  </g>
  <path class="st12" d="M230.2,396.5l-111.5-.5c-13.4,0-24.2-11-24.2-24.4,0,0,0,0,0,0l1.2-279.6c0-13.4,11-24.3,24.4-24.2h0l111.5.5c13.4,0,24.2,11,24.2,24.4l-1.2,279.6c0,13.4-11,24.2-24.4,24.2h0Z"/>
  <path class="st9" d="M232.7,78h-21.6c-3,0-5.3,2.4-5.3,5.4,0,0,0,0,0,0v3.9c0,3-2.3,5.4-5.3,5.5,0,0,0,0,0,0h-42.2c-3-.2-5.3-2.7-5.2-5.6,0,0,0,0,0,0v-3.9c.1-3-2.2-5.4-5.2-5.6,0,0,0,0,0,0h-26.5c-9.4-.1-17,7.4-17.1,16.8,0,0,0,0,0,0l-1.2,272.9c0,9.4,7.5,17,16.9,17.1,0,0,0,0,0,0l111.3.5c9.4,0,17-7.5,17.1-16.9,0,0,0,0,0,0l1.1-272.9c0-9.4-7.5-17.1-16.9-17.1,0,0,0,0,0,0Z"/>
  <g>
    <circle class="st0" cx="178.8" cy="159.9" r="38.9"/>
    <circle class="st5" cx="175.5" cy="156.5" r="38.9"/>
    <ellipse class="st9" cx="175.2" cy="156.2" rx="29.6" ry="28.9" transform="translate(-42.5 68.5) rotate(-19.8)"/>
    <path class="st10" d="M184.9,183.3c-15.1,5.4-31.8-2.2-37.6-17.1,0,.3.2.5.3.8,5.4,15.5,22.3,23.6,37.8,18.2,15.5-5.4,23.6-22.3,18.2-37.8,0-.2-.1-.3-.2-.5,0-.3-.2-.5-.3-.8,5,15.2-3,31.7-18.1,37.1Z"/>
    <path class="st6" d="M165.4,129.1c15.1-5.4,31.8,2.2,37.6,17.1,0-.3-.2-.5-.3-.8-5.7-15.4-22.7-23.2-38.1-17.5-15.1,5.6-23,22.3-17.7,37.6,0,.3.2.5.3.8-5-15.2,3-31.7,18.1-37.1Z"/>
    <path class="st0" d="M192.5,158.9c-1.4-3.9-4.2-5.8-7.3-5.8,1.7-2.3,2-5.2.9-7.8-1.4-3.9-4.5-5.8-8.9-5.3l-1.8-4.8-4.4,1.6,1.6,4.4-2.5.9-1.6-4.4-4.4,1.6,1.6,4.4-4,1.4-2.8,1,1.6,4.4,2.8-1,7.7,21.3-3.1,1.1,1.6,4.4,3.1-1.1h0l4-1.4,1.9,5.1,4.4-1.6-1.9-5.1,2.5-.9,1.9,5.1,4.4-1.6-1.9-5.3c4.7-2.4,6.3-6.2,4.7-10.7ZM169,147.6l5.9-2.1c3.3-1.2,5.7-.5,6.7,2.3s-.4,4.8-3.7,6l-6.8,2.5-3-8.3.8-.3ZM183.6,166.4l-7.2,2.6-.5.2-3.1-8.7,7.7-2.8c3.6-1.3,6-.7,7.1,2.4s-.4,5-4,6.3Z"/>
    <path class="st6" d="M190.4,159.7c-1.4-3.9-4.2-5.8-7.3-5.8,1.7-2.3,2-5.2.9-7.8-1.4-3.9-4.5-5.8-8.9-5.3l-1.7-4.8-4.4,1.6,1.6,4.4-2.5.9-1.6-4.4-4.4,1.6,1.6,4.4-4,1.4-2.8,1,1.6,4.4,2.8-1,7.7,21.4-3.1,1.1,1.6,4.4,3.1-1.1h0l4-1.4,1.8,5.1,4.4-1.6-1.9-5.1,2.6-.9,1.9,5.1,4.4-1.6-1.9-5.3c4.7-2.5,6.2-6.3,4.6-10.8ZM166.9,148.3l5.9-2.1c3.3-1.2,5.7-.5,6.7,2.3s-.4,4.8-3.7,6l-6.7,2.4-3-8.3.8-.3ZM181.5,167.2l-7.2,2.6-.5.2-3.1-8.7,7.7-2.8c3.6-1.3,6-.6,7.1,2.4s-.4,5-4,6.3Z"/>
    <path class="st10" d="M166.5,138.5c0,.2-1.6,1.1-4.2,2.2l.4-.8c.5,1.2,1.1,2.7,1.7,4.4l.3.7-.7.3-1.2.4c-2.1.8-4,1.4-5.6,1.9l.4-.8c.8,2.7,1.2,4.5,1,4.6s-1.1-1.6-2.2-4.2l-.2-.6.6-.3c1.6-.7,3.5-1.4,5.6-2.1l1.2-.4-.5,1c-.6-1.6-1.1-3.2-1.5-4.5l-.2-.6.6-.2c2.7-.8,4.5-1.3,4.6-1Z"/>
    <path class="st10" d="M174.4,135.8c.1.4-.9,1.2-2.4,1.7s-2.8.6-2.9.2.9-1.2,2.4-1.7,2.8-.6,2.9-.2Z"/>
    <path class="st10" d="M168.6,171.5c-.4.1-2.4-4.4-4.5-10.2s-3.4-10.6-3-10.7,2.4,4.4,4.5,10.2,3.4,10.6,3,10.7Z"/>
    <path class="st10" d="M178,153.7c.1.4-1.6,1.4-4,2.3s-4.4,1.2-4.5.8,1.6-1.4,4-2.3,4.4-1.2,4.5-.8Z"/>
    <path class="st10" d="M182.9,166.7c.1.4-1.6,1.4-4,2.3s-4.4,1.2-4.5.8,1.6-1.4,4-2.3,4.4-1.2,4.5-.8Z"/>
  </g>
  <path class="st7" d="M482.3,348.2l-111.5-.5c-13.4,0-24.2-11-24.2-24.4h0s1.2-279.6,1.2-279.6c0-13.4,11-24.3,24.4-24.2h0l111.5.5c13.4,0,24.2,11,24.2,24.4l-1.2,279.6c0,13.4-11,24.2-24.4,24.2,0,0,0,0,0,0Z"/>
  <path class="st9" d="M483.5,30.1h-21.6c-3,0-5.3,2.4-5.3,5.3,0,0,0,0,0,0v3.9c0,3-2.3,5.4-5.3,5.5,0,0,0,0,0,0l-42.1-.2c-3,0-5.3-2.5-5.2-5.5v-3.9c0-3-2.3-5.4-5.2-5.5h-26.5c-9.4-.1-17,7.4-17.1,16.8,0,0,0,0,0,0l-1.2,272.9c0,9.4,7.5,17,16.9,17.1,0,0,0,0,0,0l111.3.5c9.4,0,17-7.5,17.1-16.9,0,0,0,0,0,0l1.2-272.9c0-9.4-7.5-17-16.9-17.1,0,0,0,0,0,0Z"/>
  <path class="st10" d="M427,85.7c-.2.1-1.2-1.5-2.3-4.1l.8.4c-1.2.6-2.7,1.2-4.3,1.9l-.7.3-.3-.7-.5-1.2c-.8-2.1-1.5-4-2.1-5.6l.8.4c-2.7.9-4.5,1.4-4.6,1.1s1.5-1.2,4.1-2.4l.6-.2.3.6c.7,1.6,1.5,3.4,2.4,5.5.2.4.3.8.5,1.2l-1-.4c1.6-.6,3.1-1.2,4.4-1.6l.6-.2.2.6c.9,2.7,1.3,4.5,1.1,4.6Z"/>
  <path class="st10" d="M430,93.4c-.4.2-1.2-.9-1.8-2.3s-.7-2.8-.3-2.9,1.2.9,1.8,2.3.7,2.8.3,2.9Z"/>
  <path class="st10" d="M394,89c-.2-.4,4.4-2.6,10.1-4.9s10.5-3.8,10.6-3.4-4.4,2.6-10.1,4.9-10.5,3.8-10.6,3.4Z"/>
  <path class="st10" d="M412.1,97.8c-.4.2-1.5-1.6-2.4-3.9s-1.4-4.3-1-4.5,1.5,1.6,2.4,3.9,1.4,4.3,1,4.5Z"/>
  <g id="freepik--character-2--inject-382">
    <path class="st4" d="M389.7,150.4s0,22.7-5.7,24.9c-15.5,5.9-34,4.5-40.5,3.9-.8-.5-1.7-1.2-2.7-2-.9-.7-1.6-1.6-2.2-2.5-.8-1.2-1.4-2.5-1.9-3.8,0-.7-.7-1.2-1.4-1.1-.4,0-.8.3-1,.7-.5,1.1-.3,5,2.2,8.4.4.8.1,1.9-.7,2.3,0,0-.2,0-.2.1-2.6,1.3-11.8,5.2-13.3,6-1.3.8-2.5,2.1-1,2.2s9.2-1.8,9.2-1.8c0,0-10.2,2.3-9.8,3.8.3,1,3.1,1.2,9.7-1,0,0-8.4,2-9.2,2.9-1.8,2.2,8.3,0,8.3,0-7.1,1.6-7,1.3-7,2.2s1.7.9,5.6.5c3.2-.3,6.6,0,11.5-.1h0s63.2,11.3,68.9-16.6c3.1-15,2.6-20.6,3.2-30.3"/>
    <path class="st8" d="M333.8,192.4c0,.2-2.1.8-4.8,1.3s-4.9.9-4.9.7,2.1-.8,4.8-1.3,4.9-.9,4.9-.7Z"/>
    <path class="st8" d="M333.4,189.6c0,.2-2.2.9-5,1.7s-5.2,1.2-5.2,1.1,2.2-.9,5-1.7,5.2-1.2,5.2-1.1Z"/>
    <path class="st8" d="M333.1,186.7c0,.2-2.1.9-4.7,1.7s-4.9,1.2-4.9,1,2.1-.9,4.7-1.7,4.8-1.2,4.9-1Z"/>
    <path class="st3" d="M473.2,154.7s-.4-3.4-2.7-22.4c-1-8.3-7.5-13-13.5-16.1h0c0-.1-.5-.3-.5-.3-5-2.4-10.3-3.9-15.8-4.6l-21.3-.3s-14.8-1.1-25.5,8.9c-3.5,3.3-7.1,32.6-7.1,32.6l10.6,3.8v-4.3c0,0-.5,8.8,2.4,13.9l6.9,12.1-4.5,21.3c-2.8,8.1-12.1,37.8-8.5,67.1,4.5,36.4,5.9,52.2,5.9,52.2l61.5.3s12.2-54.4,5.5-102.4c-3-21.4-11.3-23.7-12.5-28.3l1.3-32.7,17.8-.7Z"/>
    <path class="st10" d="M469.3,128.7c0,.1-17.5.3-39.1.3s-39.1,0-39.1-.2,17.5-.3,39.1-.3,39.1,0,39.1.2Z"/>
    <path class="st10" d="M391.5,139.2c0,.1-.6.3-1.2.3s-1.2-.1-1.2-.3.6-.3,1.2-.3,1.2,0,1.2.3Z"/>
    <path class="st10" d="M401.8,139.2c-.8.3-1.7.3-2.6.3-.9,0-1.7,0-2.6-.2.8-.3,1.7-.4,2.6-.3.9,0,1.7,0,2.6.3Z"/>
    <path class="st10" d="M412.1,139.2c-.8.3-1.7.4-2.6.3-.9,0-1.7,0-2.6-.3.8-.3,1.7-.4,2.6-.3.9,0,1.7,0,2.6.3Z"/>
    <path class="st10" d="M422.4,139.1c-.8.3-1.7.4-2.6.3-.9,0-1.7,0-2.6-.3.8-.3,1.7-.3,2.6-.3.9,0,1.7,0,2.6.3Z"/>
    <path class="st10" d="M432.7,139.1c-1.7.3-3.5.3-5.2,0,.8-.3,1.7-.3,2.6-.3.9,0,1.7,0,2.6.3Z"/>
    <path class="st10" d="M443,139.1c-1.7.3-3.5.3-5.2,0,.8-.3,1.7-.3,2.6-.3.9,0,1.7,0,2.6.3Z"/>
    <path class="st10" d="M453.4,139.1c-.8.3-1.7.3-2.6.3-.9,0-1.7,0-2.6-.3.8-.3,1.7-.3,2.6-.3.9,0,1.7,0,2.6.3Z"/>
    <path class="st10" d="M463.7,139.1c-.8.3-1.7.3-2.6.3-.9,0-1.7,0-2.6-.3.8-.3,1.7-.3,2.6-.3.9,0,1.7,0,2.6.3Z"/>
    <path class="st10" d="M471.3,139.1c0,.1-.6.3-1.2.3s-1.2-.1-1.2-.3.6-.3,1.2-.3,1.2.1,1.2.3Z"/>
    <path class="st10" d="M447.3,147.7c0,.1-13.4.3-29.8.3s-29.8-.1-29.8-.3,13.4-.3,29.8-.3,29.8.1,29.8.3Z"/>
    <path class="st10" d="M471.6,148.2c0,.1-5.1.3-11.3.3s-11.3-.1-11.3-.3,5.1-.3,11.3-.3,11.3.1,11.3.3Z"/>
    <path class="st10" d="M448.2,167.4c0,.1-8.9,0-19.8-.2s-19.8-.6-19.8-.7,8.9,0,19.8.2,19.8.6,19.8.7Z"/>
    <path class="st10" d="M465,209.7c0,.1-11.8.3-26.4.3s-26.4-.1-26.4-.3,11.8-.3,26.4-.3,26.4.1,26.4.3Z"/>
    <path class="st10" d="M467,233c0,.1-16.4.3-36.7.3s-36.7-.1-36.7-.3,16.4-.3,36.7-.3,36.7.1,36.7.3Z"/>
    <path class="st10" d="M467.6,260.1c0,.1-16.6.3-37.1.3s-37.1-.1-37.1-.3,16.6-.3,37.1-.3,37.1.1,37.1.3Z"/>
    <path class="st10" d="M466.3,285.8c0,.1-15.6.3-34.9.3s-34.9-.1-34.9-.3,15.6-.3,34.9-.3,34.9.1,34.9.3Z"/>
    <path class="st10" d="M463.1,308.2c0,.1-14.4.3-32.1.3s-32.1-.1-32.1-.3,14.4-.3,32.1-.3,32.1.1,32.1.3Z"/>
    <path class="st10" d="M405.3,159.5c0,.1-.6.3-1.2.3s-1.2-.1-1.2-.3.6-.3,1.2-.3,1.2.1,1.2.3Z"/>
    <path class="st10" d="M414.4,159.5c-1.5.3-3.1.3-4.6,0,1.5-.3,3.1-.3,4.6,0Z"/>
    <path class="st10" d="M423.5,159.5c-1.5.3-3.1.3-4.6,0,1.5-.3,3.1-.3,4.6,0Z"/>
    <path class="st10" d="M432.7,159.5c-1.5.3-3.1.3-4.6,0,1.5-.3,3.1-.3,4.6,0Z"/>
    <path class="st10" d="M441.8,159.5c-1.5.3-3.1.3-4.6,0,1.5-.3,3.1-.3,4.6,0Z"/>
    <path class="st10" d="M448.9,159.5c0,.1-.6.3-1.2.3s-1.2-.1-1.2-.3.6-.3,1.2-.3,1.2.1,1.2.3Z"/>
    <path class="st10" d="M417.1,177.8c0,.1-.6.3-1.2.3s-1.2-.1-1.2-.2.5-.3,1.2-.3,1.3.1,1.3.3Z"/>
    <path class="st10" d="M428,177.7c-.9.3-1.8.4-2.7.3-.9,0-1.8,0-2.7-.2.9-.3,1.8-.3,2.7-.3.9,0,1.8,0,2.7.2Z"/>
    <path class="st10" d="M438.9,177.7c-.9.3-1.8.4-2.7.3-.9,0-1.8,0-2.7-.2.9-.3,1.8-.4,2.7-.3.9,0,1.8,0,2.7.2Z"/>
    <path class="st10" d="M446.9,177.6c0,.1-.6.3-1.2.3s-1.2-.1-1.2-.2.6-.3,1.2-.3,1.2.1,1.2.3Z"/>
    <path class="st10" d="M405,221.8c0,.1-.6.3-1.2.3s-1.2-.1-1.2-.3.6-.3,1.2-.3,1.2.1,1.2.3Z"/>
    <path class="st10" d="M415.7,221.8c-.9.3-1.8.3-2.7.3-.9,0-1.8,0-2.7-.3.9-.3,1.8-.3,2.7-.3.9,0,1.8,0,2.7.3Z"/>
    <path class="st10" d="M426.4,221.8c-1.8.3-3.6.3-5.4,0,1.8-.3,3.6-.3,5.4,0Z"/>
    <path class="st10" d="M437.2,221.8c-.9.3-1.8.3-2.7.3-.9,0-1.8,0-2.7-.3.9-.3,1.8-.3,2.7-.3.9,0,1.8,0,2.7.3Z"/>
    <path class="st10" d="M447.9,221.8c-1.8.3-3.6.3-5.4,0,1.8-.3,3.6-.3,5.4,0Z"/>
    <path class="st10" d="M458.6,221.8c-.9.3-1.8.3-2.7.3-.9,0-1.8,0-2.7-.3.9-.3,1.8-.3,2.7-.3.9,0,1.8,0,2.7.3Z"/>
    <path class="st10" d="M466.5,221.8c0,.1-.6.3-1.2.3s-1.2-.1-1.2-.3.6-.3,1.2-.3,1.2.1,1.2.3Z"/>
    <path class="st10" d="M395.5,247.8c0,.1-.6.3-1.2.3s-1.2-.1-1.2-.3.6-.3,1.2-.3,1.2.1,1.2.3Z"/>
    <path class="st10" d="M406.2,247.8c-1.8.3-3.6.3-5.4,0,1.8-.3,3.6-.3,5.4,0Z"/>
    <path class="st10" d="M416.9,247.8c-1.8.3-3.6.3-5.4,0,1.8-.3,3.6-.3,5.4,0Z"/>
    <path class="st10" d="M427.6,247.8c-1.8.3-3.6.3-5.4,0,1.8-.3,3.6-.3,5.4,0Z"/>
    <path class="st10" d="M438.3,247.8c-1.8.3-3.6.3-5.4,0,1.8-.3,3.6-.3,5.4,0Z"/>
    <path class="st10" d="M449.1,247.8c-1.8.3-3.6.3-5.4,0,1.8-.3,3.6-.3,5.4,0Z"/>
    <path class="st10" d="M459.8,247.8c-1.8.3-3.6.3-5.4,0,1.8-.3,3.6-.3,5.4,0Z"/>
    <ellipse class="st10" cx="466.4" cy="247.8" rx="1.2" ry=".3"/>
    <path class="st10" d="M396.9,275.2c0,.1-.6.3-1.2.3s-1.2-.1-1.2-.3.6-.3,1.2-.3,1.2.1,1.2.3Z"/>
    <path class="st10" d="M407.3,275.2c-.8.3-1.7.3-2.6.3-.9,0-1.8,0-2.6-.3.8-.3,1.7-.3,2.6-.3.9,0,1.8,0,2.6.3Z"/>
    <path class="st10" d="M417.6,275.2c-1.7.3-3.5.3-5.2,0,1.7-.3,3.5-.3,5.2,0Z"/>
    <path class="st10" d="M428,275.2c-1.7.3-3.5.3-5.2,0,1.7-.3,3.5-.3,5.2,0Z"/>
    <path class="st10" d="M438.4,275.2c-1.7.3-3.5.3-5.2,0,1.7-.3,3.5-.3,5.2,0Z"/>
    <path class="st10" d="M448.7,275.2c-1.7.3-3.5.3-5.2,0,1.7-.3,3.5-.3,5.2,0Z"/>
    <path class="st10" d="M459.1,275.2c-1.7.3-3.5.3-5.2,0,1.7-.3,3.5-.3,5.2,0Z"/>
    <path class="st10" d="M466.8,275.2c0,.1-.6.3-1.2.3s-1.2-.1-1.2-.3.6-.3,1.2-.3,1.2.1,1.2.3Z"/>
    <path class="st10" d="M400.4,298.2c0,.1-.6.3-1.2.3s-1.2-.1-1.2-.3.6-.3,1.2-.3,1.2.2,1.2.3Z"/>
    <path class="st10" d="M410.8,298.2c-1.7.3-3.5.3-5.2,0,1.7-.3,3.5-.3,5.2,0Z"/>
    <path class="st10" d="M421.3,298.2c-1.7.3-3.5.3-5.2,0,1.7-.3,3.5-.3,5.2,0Z"/>
    <path class="st10" d="M431.8,298.2c-1.7.3-3.5.3-5.2,0,1.7-.3,3.5-.3,5.2,0Z"/>
    <path class="st10" d="M442.2,298.2c-1.7.3-3.5.3-5.2,0,1.7-.3,3.5-.3,5.2,0Z"/>
    <path class="st10" d="M452.7,298.2c-1.7.3-3.5.3-5.2,0,1.7-.3,3.5-.3,5.2,0Z"/>
    <path class="st10" d="M460.4,298.2c0,.1-.5.3-1.2.3s-1.3-.1-1.3-.3.6-.3,1.3-.3,1.2.2,1.2.3Z"/>
    <path class="st7" d="M447.5,184.6c-.5.2-1.1.3-1.6.3-1.1.2-2.6.4-4.5.6-5,.5-10,.7-15,.6-5,0-10-.5-15-1.1-1.9-.3-3.4-.5-4.5-.7-.6,0-1.1-.2-1.6-.4.6,0,1.1,0,1.7.1l4.5.5c3.8.4,9.1.8,14.9,1s11.1-.1,15-.4l4.5-.4c.5,0,1.1-.1,1.6,0Z"/>
    <path class="st7" d="M450,171.7c-.1-.5-.2-1-.2-1.5,0-1.1-.1-2.5-.2-4.1-.2-3.6-.4-8.4-.7-13.6s-.4-10.1-.5-13.6v-4.1c0-.5,0-1,.1-1.5.1.5.2,1,.2,1.5,0,1.1.1,2.5.2,4.1.2,3.6.4,8.4.7,13.6s.4,10.1.5,13.6v4.1c0,.5,0,1,0,1.5Z"/>
    <g class="st11">
      <path d="M415.2,185.2c4.9-.3,9.7-1,14.5-2.3,4.7-1.4,9.2-3.9,12.2-7.7,3.9-5,4.6-11.7,5.1-18,.5-6.9.7-14.2,1.8-21.7l1.3,34.7v16l-17,7.2-17.8-8.2Z"/>
    </g>
    <ellipse class="st7" cx="375.2" cy="191.2" rx="41.9" ry="41"/>
    <ellipse class="st12" cx="372.6" cy="186.9" rx="41.9" ry="41"/>
    <ellipse class="st2" cx="372.4" cy="186.5" rx="31.9" ry="30.5" transform="translate(-9.1 19.4) rotate(-3)"/>
    <path class="st10" d="M375.4,216.6c-17.2,1.6-32.6-10.5-34.7-27.1,0,.3,0,.6,0,.9,1.7,17.2,17.3,29.7,34.9,28s30.4-16.9,28.7-34.1c0-.3,0-.6-.1-.9,1.2,16.8-11.5,31.6-28.7,33.2Z"/>
    <path class="st1" d="M369.4,156.3c17.2-1.6,32.6,10.5,34.7,27.1,0-.3,0-.6,0-.9-1.7-17.1-17.3-29.7-34.8-28s-30.4,16.9-28.7,34.1c0,.3,0,.6.1.9-1.2-16.8,11.5-31.6,28.7-33.2Z"/>
    <path class="st7" d="M389.8,193.7c-.4-4.4-2.9-7-6.1-7.8,2.3-1.9,3.5-4.8,3-7.7-.4-4.3-3.2-7.1-7.9-7.7l-.5-5.3-5,.5.5,4.9-2.8.3-.5-4.9-5,.5.5,4.9-4.5.4-3.2.3.5,4.9,3.2-.3,2.4,23.8-3.5.3.5,4.9,3.5-.3h0l4.6-.4.6,5.7,5-.5-.6-5.7,2.8-.3.6,5.7,5-.5-.6-5.9c5.6-1.3,8.2-4.8,7.7-9.7ZM368.2,176l6.8-.6c3.8-.4,6,1,6.3,4.1s-1.7,4.8-5.4,5.2l-7.7.7-.9-9.2h.9ZM378.5,199l-8.2.8h-.6c0,0-1-9.6-1-9.6l8.8-.8c4.1-.4,6.5.9,6.8,4.2s-1.7,5.1-5.8,5.5h0Z"/>
    <path class="st12" d="M387.4,194c-.4-4.4-2.9-7-6.1-7.8,2.3-1.9,3.5-4.8,3-7.7-.4-4.3-3.2-7.1-7.9-7.7l-.5-5.3-5,.5.5,4.9-2.8.3-.5-4.9-5,.5.5,4.9-4.5.4-3.2.3.5,4.9,3.2-.3,2.4,23.8-3.5.3.5,4.9,3.5-.3h0l4.5-.4.6,5.7,5-.5-.6-5.7,2.8-.3.6,5.7,5-.5-.6-5.9c5.6-1.3,8.2-4.8,7.7-9.7ZM365.8,176.3l6.8-.6c3.8-.4,6,1,6.4,4.1s-1.7,4.8-5.4,5.2l-7.7.7-.9-9.2h.9ZM376,199.3l-8.2.8h-.6c0,0-1-9.6-1-9.6l8.8-.8c4.1-.4,6.4.9,6.8,4.2s-1.7,5.1-5.8,5.5h0Z"/>
    <path class="st10" d="M410.5,169.3c0,0-.1-.2-.2-.3-.1-.2-.3-.5-.5-.9l-.8-1.4c-.3-.6-.7-1.3-1.1-1.9l-1.6-2.2c-.6-.8-1.3-1.6-2.1-2.5-.8-.9-1.7-1.8-2.6-2.7-.5-.4-.9-1-1.5-1.4l-1.7-1.3c-2.6-1.9-5.3-3.6-8.2-4.9l-2.4-1c-.4-.2-.8-.3-1.2-.5l-1.3-.4c-.9-.2-1.8-.5-2.7-.8l-2.8-.5c-1-.2-1.9-.3-2.9-.4-1-.1-2-.2-3-.2h-3.1l-3.1.3c-4.3.5-8.5,1.7-12.5,3.5-3.9,1.9-7.6,4.3-10.8,7.2-3,2.8-5.5,5.9-7.6,9.4l-1.4,2.5-.3.6-.3.6c-.2.4-.4.9-.5,1.3-.7,1.6-1.3,3.3-1.8,5-.3.8-.4,1.7-.6,2.5-.2.8-.3,1.6-.4,2.4-.2,1.5-.3,3-.4,4.6,0,1.4,0,2.8.1,4.2,0,1.2.2,2.5.5,3.7.2,1.1.4,2.2.7,3.2s.5,1.8.8,2.6c.2.7.5,1.4.8,2l.6,1.5.4.9c0,.1,0,.2.1.3,0,0,0,0-.1-.3s-.2-.5-.4-.9-.4-.9-.7-1.5c-.3-.6-.6-1.3-.8-2-.2-.8-.5-1.7-.8-2.6s-.5-2-.7-3.2c-.3-1.2-.4-2.5-.5-3.7-.2-1.4-.2-2.8-.2-4.2,0-1.5.1-3.1.3-4.6,0-.8.2-1.6.4-2.4.2-.8.3-1.7.5-2.5.5-1.7,1-3.4,1.7-5.1l.5-1.3.3-.7.3-.6c.5-.8.9-1.7,1.4-2.5,2.1-3.5,4.7-6.7,7.7-9.5,3.3-2.9,7-5.4,11-7.2,4-1.8,8.3-3,12.6-3.5l3.1-.3h3.1c1,0,2,0,3,.2,1,0,2,.2,3,.4l2.8.6c.9.2,1.8.5,2.7.8l1.3.4c.4.1.9.3,1.3.5l2.5,1c2.9,1.4,5.7,3,8.2,5l1.7,1.3c.5.4,1,1,1.5,1.4.9.8,1.8,1.7,2.6,2.7.7.9,1.5,1.7,2.1,2.5l1.5,2.3c.4.6.8,1.2,1.1,1.9l.8,1.4.5.9c0,.1.1.2.2.4Z"/>
    <path class="st10" d="M368.1,166.2c-.4.1-.9.2-1.4.2-.9.1-2.1.3-3.6.4l.2-.2c.2,1.5.3,3.1.5,4.9v.3h-1.6c0,.1-6.4.7-6.4.7l.2-.2c.1,1.5.2,2.7.3,3.6,0,.4,0,.9,0,1.4-.1-.4-.2-.9-.2-1.3-.1-.9-.3-2.1-.5-3.5v-.2h.2l6.4-.6h1.4c0-.1-.2.1-.2.1-.2-1.8-.3-3.5-.5-4.9v-.2h.2c1.5-.1,2.8-.2,3.6-.2.5,0,.9,0,1.4,0Z"/>
    <path class="st10" d="M377,165.4c-2,.5-4,.7-6,.6,1-.4,2-.5,3-.5,1-.2,2-.2,3,0Z"/>
    <path class="st10" d="M361.5,200.3c-.1,0-.8-5.2-1.4-11.6s-1-11.7-.9-11.7.8,5.2,1.4,11.6,1,11.7.9,11.7Z"/>
    <path class="st10" d="M376,184.7c-1.6.4-3.2.6-4.8.7-1.6.2-3.2.3-4.9.2,1.6-.4,3.2-.6,4.8-.7,1.6-.2,3.2-.3,4.8-.2Z"/>
    <path class="st10" d="M377.7,199.2c-1.6.4-3.2.7-4.8.7-1.6.2-3.2.3-4.9.2,3.2-.7,6.4-1,9.6-.9Z"/>
    <path class="st7" d="M399.2,224.9c-.1,0-.8-.8-1.5-2-.5-.7-.8-1.5-1-2.3.1,0,.8.8,1.5,2,.5.7.8,1.5,1,2.3Z"/>
    <path class="st4" d="M449.7,154.7s.4,24.1-5.3,26.3c-15.5,5.9-34,4.5-40.5,3.9-.8-.5-1.7-1.2-2.7-2-.9-.7-1.6-1.6-2.2-2.6-.8-1.2-1.4-2.5-1.9-3.8,0-.7-.7-1.2-1.4-1.1-.4,0-.8.3-1,.7-.5,1.1-.3,5.1,2.2,8.4.4.8.1,1.9-.7,2.3,0,0-.2,0-.2.1-2.6,1.3-11.8,5.2-13.3,6-1.3.8-2.5,2.1-1,2.2s9.2-1.8,9.2-1.8c0,0-10.2,2.3-9.8,3.8.3,1,3.1,1.2,9.7-1,0,0-8.4,2-9.2,2.9-1.8,2.2,8.3,0,8.3,0-7.1,1.6-7,1.3-7,2.2s1.7.9,5.6.5c3.2-.3,6.6,0,11.5,0h0s63.2,11.3,68.9-16.6c3.1-15,2.6-20.6,3.2-30.3"/>
    <path class="st8" d="M394.2,198c0,.2-2.1.8-4.8,1.3s-4.9.9-4.9.7,2.1-.8,4.8-1.3,4.9-.9,4.9-.7Z"/>
    <path class="st8" d="M393.8,195.3c0,.2-2.2.9-5,1.7s-5.2,1.2-5.2,1.1,2.2-.9,5-1.7,5.2-1.2,5.2-1.1Z"/>
    <path class="st8" d="M393.4,192.4c0,.2-2.1.9-4.7,1.7s-4.9,1.2-4.9,1.1,2.1-.9,4.7-1.7,4.9-1.3,4.9-1.1Z"/>
    <path class="st7" d="M413.2,57.6c-2.8,1.4-5.8,8.6-5.5,11.7s1,6.4.1,9.4c-.6,2.2-2.2,4.1-2.6,6.4-.2,2.2.2,4.4,1.1,6.4,1,2,1.6,4.1,1.9,6.2.2,2.2-.7,4.6-2.6,5.6,9,.9,18.1.5,26.9-1.2"/>
    <path class="st4" d="M418.8,114.3c.6-5.9,1-12.1,1-12.1,0,0-7.5-2-8.1-12.1-.6-9.6,3.1-31.4,3.1-31.4h0c11.5-3.4,24,.8,31.1,10.4h0l-5.4,47.9c-.6,5.6-5.9,9.5-11.9,8.8h0c-6.1-.8-10.5-5.9-10-11.5Z"/>
    <path class="st7" d="M414.1,75.9c0,.7.4,1.3,1.1,1.4.7.1,1.3-.3,1.4-1,0,0,0,0,0,0,0-.7-.4-1.3-1.1-1.4-.7-.1-1.3.3-1.4,1,0,0,0,0,0,0Z"/>
    <path class="st7" d="M414.1,74.5c.1.2,1.2-.4,2.5-.3s2.3.9,2.5.8,0-.4-.5-.7c-.6-.5-1.3-.8-2-.8-.7,0-1.4,0-2,.4-.4.3-.6.6-.5.7Z"/>
    <path class="st7" d="M428.4,77.7c0,.7.4,1.3,1.1,1.4.7.1,1.3-.3,1.4-1,0,0,0,0,0,0,0-.7-.4-1.3-1.1-1.4-.7-.1-1.3.3-1.4,1,0,0,0,0,0,0Z"/>
    <path class="st7" d="M428.4,76.4c.1.2,1.2-.4,2.5-.3s2.3.9,2.5.8,0-.4-.5-.8c-.6-.5-1.3-.8-2-.8-.7,0-1.4,0-2,.4-.4.3-.6.6-.5.7Z"/>
    <path class="st7" d="M422.4,86c-.7-.3-1.4-.5-2.2-.6-.4,0-.7-.2-.7-.4,0-.4.1-.7.3-1,.4-.8.8-1.7,1.3-2.6,1.8-3.7,3.2-6.7,3-6.8-1.4,2.1-2.5,4.2-3.5,6.5-.4.9-.9,1.8-1.2,2.6-.3.4-.4.9-.4,1.4,0,.3.3.5.5.6.2,0,.4.1.6.1.8.2,1.5.2,2.3.2Z"/>
    <path class="st8" d="M419.8,102.2c4.7.5,9.4-.2,13.7-2.2,0,0-3.9,6.5-13.8,4.6v-2.4Z"/>
    <path class="st8" d="M422.6,89.4c.6-.6,1.5-.9,2.3-.7.6.1,1.1.5,1.5,1,.3.5.3,1.2,0,1.6-.5.5-1.2.6-1.8.3-.6-.3-1.2-.7-1.6-1.2-.1-.1-.3-.3-.4-.4-.1-.2-.1-.4,0-.5"/>
    <path class="st7" d="M426.3,87.4c-.2,0-.4,1.4-1.8,2.4s-3,.6-3,.8.3.3,1,.4c.9,0,1.7-.1,2.5-.6.7-.5,1.2-1.2,1.4-2,.1-.6,0-1,0-1Z"/>
    <path class="st4" d="M441.2,79.7c1.1-.1,2.2,0,3.2.5,1,.5,1.8,1.3,2.1,2.4.3,1.1.2,2.2-.3,3.2-.5,1-1.2,1.8-2.1,2.5-.6.5-1.3.9-2,1.1-.8.2-1.6,0-2.2-.6"/>
    <path class="st8" d="M441.2,86.2c-.1,0,.3.7,1.3.6.5-.1,1-.5,1.3-.9.3-.5.6-1.1.7-1.7.1-.6,0-1.3-.3-1.9-.2-.5-.7-.9-1.3-1-1-.1-1.4.5-1.3.6s.5-.2,1.1,0c.8.4,1.2,1.3.9,2.2-.2,1.1-.7,2-1.4,2.2s-1,0-1.1,0Z"/>
    <path class="st7" d="M458.8,91.4c.5-2.9,0-5.8-1.2-8.4-1-1.9-2.7-3.4-3.6-5.4-1-2.3-.9-4.8-1.3-7.3-.9-6-4.5-11.2-9.7-14.3-4.9-2.8-12.4-5.3-17.9-1.5-1.1-.6-2.4-1-3.6-1-2.3,0-4.6.7-6.5,2.1-2.4,1.7-4.2,4-5.2,6.8-1,2.8-.9,5.8.3,8.5.3.7.9,1.5,1.6,1.6.6,0,1.2-.2,1.7-.6,3.8-2.8,7.2-6.1,10-9.9,3.4,4.6,7.8,8.5,12.8,11.3,1.4.6,2.6,1.6,3.4,2.8.6,1.4.8,2.9.5,4.4-.5,7.1-1.1,14.1-1.7,21.2,2.4.9,5,1.3,7.5,1.3.6,0,1.1,0,1.6-.4,1.1-.9.4-3.1,1.7-3.6,0,2.6,2,4.8,4.6,4.9.9,0,1.9-.2,2.7-.7-.3-.6-.6-1.3-.8-2,.3-.4.5-.8.7-1.3,1.1-2.7,1.9-5.4,2.4-8.3Z"/>
    <path class="st7" d="M445.3,72.3c-.3.2-.7.4-1,.6-1,.4-2,.7-3.1.9-7.3,1.4-14.6-2.6-17.4-9.6-.4-1-.7-2-.9-3.1,0-.4-.1-.8,0-1.2.3,1.4.8,2.8,1.3,4.1,2.9,6.6,9.9,10.5,17,9.3,1.4-.3,2.8-.6,4.2-1.1Z"/>
    <path class="st7" d="M407.5,96.8c-.3-.4-.6-.9-.9-1.4-.8-1.3-1.4-2.7-2-4.1-.8-2.2-1-4.5-.5-6.8.2-.7.4-1.3.7-1.9.3-.6.8-1.2,1.1-1.7.4-.6.6-1.2.8-1.9.1-.7.2-1.4.1-2.1-.2-2.8-.1-5.6.2-8.3.3-2.3,1-4.5,2-6.5.7-1.4,1.7-2.6,2.9-3.6.3-.3.7-.5,1.1-.6.1,0,.3-.1.4-.1,0,0-.5.3-1.4.9-1.1,1-2,2.2-2.7,3.6-1,2-1.6,4.2-1.9,6.4-.3,2.7-.4,5.5-.2,8.2,0,.7,0,1.5-.1,2.2-.2.7-.5,1.4-.9,2-.4.6-.8,1.1-1.1,1.7-.3.6-.6,1.1-.7,1.8-.5,2.2-.4,4.4.4,6.5.5,1.4,1.1,2.8,1.8,4.2.3.5.5,1,.7,1.5Z"/>
    <path class="st12" d="M448,102.1c-.2-.1-.3-.2-.5-.4-.4-.4-.8-.8-1.1-1.3-1.1-1.9-1.5-4-1.2-6.2.2-2.7,1.5-5.7,2.5-9,.6-1.7.9-3.5.9-5.4,0-1.9-.6-3.8-1.8-5.4-1.2-1.5-2.7-2.9-4.3-4-1.5-1.1-3.1-2.2-4.5-3.2-2.5-1.9-4.9-3.9-7.1-6.1-1.9-1.9-3.4-3.4-4.4-4.6-.5-.6-.9-1-1.1-1.3s-.4-.5-.4-.5.2.1.4.4l1.2,1.2c1,1.1,2.5,2.6,4.5,4.4,2.3,2.1,4.7,4.1,7.1,6,1.4,1.1,2.9,2.1,4.5,3.2,1.7,1.1,3.1,2.5,4.4,4.1,1.2,1.6,1.9,3.6,1.9,5.7,0,1.9-.3,3.7-.9,5.5-1.1,3.4-2.3,6.3-2.6,8.9-.3,2.1,0,4.2,1.1,6,.4.7.9,1.3,1.4,1.8Z"/>
    <path class="st12" d="M451.2,72.1c-.4,0-.7-.2-1.1-.4-.7-.3-1.6-.7-2.8-1.3-6.1-3-11.6-7-16.3-11.8-.9-.9-1.6-1.7-2-2.3-.3-.3-.5-.6-.7-.9,0,0,1.1,1.1,3,2.9,2.4,2.3,5,4.5,7.7,6.4,2.7,2,5.5,3.7,8.5,5.3,2.2,1.2,3.7,1.9,3.7,2Z"/>
    <path class="st12" d="M410.6,69.3c.7-.6,1.4-1.2,2.2-1.8,1.7-1.4,3.4-3,4.8-4.8,1.4-1.7,2.7-3.6,3.7-5.6.8-1.5,1.2-2.5,1.3-2.5-.2.9-.5,1.8-1,2.7-1,2.1-2.2,4-3.6,5.8-1.5,1.8-3.1,3.4-5,4.7-.7.6-1.5,1.1-2.4,1.5Z"/>
  </g>
  <path class="st7" d="M101.6,314.7l-.9-.6.6-.9,1,.6c-.2.3-.4.6-.6,1h-.1Z"/>
  <g>
    <path class="st7" d="M218.1,182.2c-.8-.6-1.2-1-1.2-1l.9-1.1s.4.4,1.1.9l-.8,1.2Z"/>
    <g>
      <path class="st7" d="M290.1,199.5l-2.9.3v-1.5c0,0,2.7-.2,2.7-.2v1.5c0,0,.2,0,.2,0ZM284.3,199.8c-1,.1-2,0-2.9,0v-1.5c0,0,2.8,0,2.8,0v1.5ZM278.6,200c-1,0-2,0-2.9,0v-1.4c1.1,0,2,0,3,0v1.4s-.1,0-.1,0ZM272.7,199.9c-1,0-1.9-.1-2.9-.2v-1.4c.1,0,2.9.1,2.9.1v1.6s0,0,0,0ZM267,199.4c-1,0-1.9-.1-2.9-.3l.2-1.5c1,0,1.8.2,2.8.4v1.4q-.1,0-.1,0ZM261.2,198.7l-2.9-.5.2-1.5c.8.1,1.9.3,2.8.4l-.2,1.5h0ZM255.6,197.7c-1-.2-1.9-.4-2.8-.6l.3-1.4c.9.3,1.9.4,2.8.6l-.3,1.4ZM250,196.4c-.9-.3-1.9-.4-2.8-.7l.4-1.5,2.7.8-.4,1.5h.1ZM244.3,194.9c-.9-.3-1.9-.6-2.8-.9l.5-1.3c.9.3,1.9.6,2.8.9l-.4,1.5h0ZM238.8,193c-1-.4-1.8-.7-2.7-1.1l.6-1.4c.8.3,1.8.7,2.7,1.1l-.5,1.3h-.1ZM233.5,190.9c-.9-.4-1.8-.8-2.7-1.2l.7-1.3c.9.4,1.7.8,2.6,1.1l-.6,1.4h0ZM228.2,188.3c-.9-.4-1.8-1-2.6-1.3l.7-1.3c.9.4,1.6.9,2.5,1.4l-.7,1.3h.1ZM222.9,185.5c-.9-.6-1.8-1-2.4-1.6l.8-1.2c.7.5,1.5,1,2.4,1.6l-.8,1.2Z"/>
      <polygon class="st7" points="286.1 203.8 285.5 202.5 294.2 198.4 284.8 195.8 285.1 194.4 298.6 197.9 286.1 203.8"/>
    </g>
  </g>
</svg>