<?xml version="1.0" encoding="UTF-8"?>
<svg id="Layer_1" xmlns="http://www.w3.org/2000/svg" version="1.1" viewBox="0 0 600 225">
  <!-- Generator: Adobe Illustrator 29.8.2, SVG Export Plug-In . SVG Version: 2.1.1 Build 3)  -->
  <defs>
    <style>
      .st0 {
        fill: #ffc3b3;
      }

      .st1, .st2, .st3 {
        isolation: isolate;
      }

      .st1, .st4 {
        opacity: .3;
      }

      .st2 {
        opacity: .4;
      }

      .st5 {
        fill: #b78876;
      }

      .st6 {
        fill: #ff603b;
      }

      .st7 {
        fill: #a36957;
      }

      .st8 {
        fill: #ffcfbc;
      }

      .st9 {
        fill: #ffd5c1;
      }

      .st10 {
        fill: #263238;
      }

      .st11 {
        fill: #ffe4d6;
      }

      .st12 {
        fill: #fafafa;
      }

      .st13 {
        fill: #455a64;
      }

      .st3 {
        fill: #fff;
        opacity: .2;
      }
    </style>
  </defs>
  <g>
    <path class="st13" d="M51.2,94.8c2.7-1.4,5.9-1.6,8.8-.6,2.9,1,5.4,2.7,7.5,4.8,4.2,4.1,6.8,10.2,8.3,15.9-6.4,1.3-12.9-2.4-16.1-4.4-5.1-3.3-12.3-12.2-8.5-15.7"/>
    <path class="st13" d="M86.9,116.3c-3.1-1.5-5.1-4.6-5.3-8-.2-3.4,1.1-6.7,3.4-9.2.9-1.3,2.4-2.1,4-2.1,1.5.2,2.8,1.1,3.3,2.5.5,1.4.7,2.8.5,4.3-.5,5-1.9,9.7-5.9,12.6"/>
    <path class="st10" d="M97.2,132.1c-.3-.3-.6-.5-.8-.9l-2.2-2.4c-2.5-2.6-4.6-5.6-6.1-8.9-1.5-3.3-2.1-7-1.7-10.6.1-1.1.4-2.2.8-3.2.1-.4.3-.6.4-.8,0,0,0-.2.2-.3-1.7,4.8-1.4,10.1.8,14.8,1.5,3.2,3.6,6.2,6,8.9l2.1,2.5c.3.3.5.6.7,1Z"/>
    <path class="st10" d="M57.3,101.1c.2,0,.3.2.5.3l1.2.8c1.1.7,2.6,1.8,4.5,3.2,3.8,2.7,8.9,6.5,14.5,10.9s10.6,8.4,14.1,11.4c1.8,1.5,3.2,2.7,4.2,3.6l1.1,1c.1.1.3.2.4.4-.2,0-.3-.2-.4-.3l-1.2-.9c-1-.9-2.5-2-4.3-3.5-3.6-2.9-8.6-6.9-14.2-11.3s-10.7-8.2-14.5-11l-4.4-3.3c-.5-.4-.9-.7-1.2-.9-.1,0-.3-.2-.4-.3Z"/>
    <path class="st13" d="M84.6,125.1c-6.4-3.4-14-3.5-20.5-.3-1.6.8-3.3,2.2-3.2,4s2,2.9,3.8,3.4c7.5,2,15.4-.6,20.2-6.7"/>
    <path class="st10" d="M68.9,127.5c.3-.2.7-.4,1-.5.4-.2.8-.4,1.2-.5.5-.2,1.1-.4,1.6-.6.7-.2,1.4-.4,2.1-.6.8-.2,1.6-.3,2.4-.4,1.9-.2,3.7-.2,5.6,0,1.9.2,3.7.7,5.5,1.3.8.3,1.5.6,2.2,1,.6.3,1.3.7,1.9,1,.5.3,1,.6,1.4,1,.4.3.7.5,1,.8.3.2.6.5.8.8,0,0-1.2-1-3.4-2.4-.6-.4-1.2-.7-1.9-1-.7-.4-1.5-.7-2.2-1-1.7-.6-3.5-1-5.4-1.3-1.8-.2-3.7-.2-5.5,0-.8.1-1.6.2-2.4.4-.7.1-1.3.3-2,.5-2.5.7-3.9,1.5-4,1.4Z"/>
  </g>
  <g>
    <path class="st6" d="M526.1,176.4c2.9,1,5.5,2.8,7.2,5.3,1.1,1.2,1.7,2.8,1.9,4.5,0,1.6-1.4,3.3-3,3.2-1-.2-1.9-.7-2.5-1.4-1.7-1.6-3.3-3.7-5.7-4-1.3-.1-2.8.3-4-.2-1.2-.7-1.8-2.1-1.4-3.4.4-1.3,1.2-2.3,2.4-3,1.5-1.1,3.4-1.5,5.1-1Z"/>
    <path class="st6" d="M529.8,163.4c-.4,2.9,2.5,4.5,4.6,4.5s4-1.1,5.8-2.2c4.1-2.4,8.4-5,10.8-9,.8-1.2,1.3-2.6,1.3-4,0-1.4-.7-2.8-1.9-3.6-1.5-.8-3.3-.3-4.9.3-4.6,1.8-8.8,4.6-12.2,8.2-1.7,1.6-2.9,3.6-3.4,5.9"/>
    <path class="st6" d="M524.2,162.7c2.8-.5,5.2-2.3,6.4-4.9,1.2-2.6,1.6-5.4,1.3-8.2-.3-3.3-1.2-6.5-2.7-9.4-.5-1.2-1.3-2.2-2.3-3.1-1-.8-2.4-1.1-3.6-.8-1.8.6-2.6,2.7-3.1,4.5-.9,3.3-1.4,6.6-1.8,9.9-.3,2.7-.3,5.5.8,8s3.2,4.2,5.3,3.8"/>
    <path class="st10" d="M505.2,189.3c.3-.2.6-.4.9-.7l2.2-1.9c1.1-1,2.2-1.9,3.4-2.7,1.5-1,3-1.9,4.6-2.6,1.6-.8,3.3-1.3,5.1-1.6,1.4-.2,2.9-.1,4.3.3.9.3,1.8.7,2.6,1.3.3.2.6.4.9.6-.2-.3-.5-.5-.8-.8-.8-.6-1.7-1.1-2.6-1.4-1.4-.5-2.9-.6-4.4-.4-1.8.3-3.5.8-5.2,1.6-1.6.8-3.2,1.7-4.7,2.7-1.2.9-2.3,1.8-3.4,2.8-.9.8-1.6,1.6-2.1,2.1-.3.2-.5.5-.7.8Z"/>
    <path class="st10" d="M506.9,187.8c.1,0,.3-.2.4-.3.2-.3.6-.6,1-1,.9-.9,2.1-2.2,3.7-3.8,3.1-3.1,6.7-6.4,11.8-10.7,4.9-4.1,10.6-8.8,14.6-11.6.9-.6,1.7-1.2,2.5-1.7s1.4-.9,1.9-1.2l1.2-.8c.1,0,.3-.2.4-.3-.2,0-.3.1-.4.2l-1.2.7c-.5.3-1.2.7-1.9,1.2s-1.6,1-2.5,1.6c-4.8,3.3-9.4,6.8-13.8,10.6-5.2,4.4-9.6,8.6-12.7,11.8-1.5,1.6-2.7,2.9-3.6,3.9l-.9,1.1c-.1.1-.2.2-.3.4Z"/>
    <path class="st10" d="M515.1,179.2c.4-.3.7-.7,1-1.1.9-1,1.7-2.1,2.4-3.2,1.1-1.7,2.2-3.4,3.1-5.2,1.2-2.2,2.2-4.4,3-6.8,1.6-4.2,2.4-8.7,2.5-13.2,0-.8,0-1.6-.1-2.3,0-.3,0-.7-.1-1s-.1-.5-.2-.8c0-.5-.2-1-.4-1.4.3,1.8.4,3.7.5,5.5-.1,4.4-1,8.8-2.6,13-.8,2.3-1.8,4.6-2.9,6.7-.9,1.8-1.9,3.5-3,5.2-.9,1.4-1.7,2.6-2.3,3.3-.3.4-.6.8-.8,1.3Z"/>
  </g>
  <path class="st13" d="M482.3,392.3l-111.5-.5c-13.4,0-24.2-11-24.2-24.4h0s1.2-279.6,1.2-279.6c0-13.4,11-24.3,24.4-24.2h0l111.5.5c13.4,0,24.2,11,24.2,24.4l-1.2,279.6c0,13.4-11,24.2-24.4,24.2,0,0,0,0,0,0Z"/>
  <path class="st11" d="M483.5,74.2h-21.6c-3,0-5.3,2.4-5.3,5.3,0,0,0,0,0,0v3.9c0,3-2.3,5.4-5.3,5.5,0,0,0,0,0,0l-42.1-.2c-3,0-5.3-2.5-5.2-5.5v-3.9c0-3-2.3-5.4-5.2-5.5h-26.5c-9.4-.1-17,7.4-17.1,16.8,0,0,0,0,0,0l-1.2,272.9c0,9.4,7.5,17,16.9,17.1,0,0,0,0,0,0l111.3.5c9.4,0,17-7.5,17.1-16.9,0,0,0,0,0,0l1.2-272.9c0-9.4-7.5-17-16.9-17.1,0,0,0,0,0,0Z"/>
  <path class="st10" d="M230.2,354.1l-111.5-.5c-13.4,0-24.2-11-24.2-24.4,0,0,0,0,0,0l1.2-279.6c0-13.4,11-24.3,24.4-24.2h0l111.5.5c13.4,0,24.2,11,24.2,24.4l-1.2,279.6c0,13.4-11,24.2-24.4,24.2h0Z"/>
  <path class="st11" d="M232.7,35.6h-21.6c-3,0-5.3,2.4-5.3,5.4,0,0,0,0,0,0v3.9c0,3-2.3,5.4-5.3,5.5,0,0,0,0,0,0h-42.2c-3-.2-5.3-2.7-5.2-5.6,0,0,0,0,0,0v-3.9c.1-3-2.2-5.4-5.2-5.6,0,0,0,0,0,0h-26.5c-9.4-.1-17,7.4-17.1,16.8,0,0,0,0,0,0l-1.2,272.9c0,9.4,7.5,17,16.9,17.1,0,0,0,0,0,0l111.3.5c9.4,0,17-7.5,17.1-16.9,0,0,0,0,0,0l1.1-272.9c0-9.4-7.5-17.1-16.9-17.1,0,0,0,0,0,0Z"/>
  <path class="st12" d="M191,86.5c0,.2-1.6,1.1-4.2,2.2l.4-.8c.5,1.2,1.1,2.7,1.7,4.4l.3.7-.7.3-1.2.4c-2.1.8-4,1.4-5.6,1.9l.4-.8c.8,2.7,1.2,4.5,1,4.6s-1.1-1.6-2.2-4.2l-.2-.6.6-.3c1.6-.7,3.5-1.4,5.6-2.1l1.2-.4-.5,1c-.6-1.6-1.1-3.2-1.5-4.5l-.2-.6.6-.2c2.7-.8,4.5-1.3,4.6-1Z"/>
  <g id="freepik--character-1--inject-382">
    <path class="st10" d="M157.2,94c.4,1.2-.3,2.4-1.5,2.8-.5.2-1.1.1-1.7-.1-1.5-.7-1.7-2.8-1.4-4.4s.8-3.4,0-4.9c-.5-1.1-1.7-1.9-2.6-2.8-1.6-1.6-2.3-3.8-2.1-6,.3-2.2,1.9-4.1,4.1-4.8,2.2-.6,4.8,0,6.4-1.6,1.2-1.1,1.2-3,2.1-4.4,1.4-2.1,4.4-2.5,6.9-2.2s5.1,1.1,7.5.4c2.1-.5,3.7-2,5.6-2.9,5.5-2.6,12.2-.2,14.8,5.3,1.5,3.1,1.4,6.7-.1,9.8-.8,1.5-2.2,5.7-6.9,5.7"/>
    <path class="st5" d="M156.2,76.4v3.4c0,0,.7,50.6.7,50.6,0,5.9,5.2,10.5,11.5,10.4h0c6.3-.1,11.5-5.1,11.5-11,0-6.2.1-12.8.1-12.8,0,0,8-1.3,9.7-11.8.8-5.2.6-13.8.1-20.7-.4-6.1-5.6-10.7-11.7-10.3-.2,0-.3,0-.5,0l-21.5,2.3Z"/>
    <path class="st10" d="M187.8,90.4c0,.7-.6,1.3-1.3,1.4-.7,0-1.3-.5-1.4-1.2,0,0,0,0,0,0,0-.7.6-1.3,1.3-1.4.7,0,1.3.5,1.4,1.2,0,0,0,0,0,0Z"/>
    <path class="st10" d="M188.1,88.9c-.2.2-1.2-.6-2.6-.6s-2.5.7-2.7.6,0-.4.6-.7c.6-.4,1.4-.7,2.1-.7.8,0,1.5.2,2.1.7.5.3.6.7.5.7Z"/>
    <path class="st10" d="M173.3,90.4c0,.7-.6,1.3-1.3,1.4-.7,0-1.3-.5-1.4-1.2,0,0,0,0,0,0,0-.7.6-1.3,1.3-1.4.7,0,1.3.5,1.4,1.2,0,0,0,0,0,0Z"/>
    <path class="st10" d="M173.8,89.2c-.2.2-1.2-.6-2.6-.6s-2.5.7-2.7.6,0-.4.6-.7c.6-.4,1.4-.7,2.1-.7.8,0,1.5.2,2.1.7.4.3.6.6.5.7Z"/>
    <path class="st10" d="M179.1,99.9c.8-.2,1.6-.4,2.4-.4.4,0,.7-.1.8-.4,0-.4,0-.8-.2-1.1-.4-.9-.7-1.8-1.1-2.8-1.5-4-2.6-7.3-2.4-7.4s1.5,3.1,3,7.1c.4,1,.7,1.9,1.1,2.8.2.4.3,1,.2,1.4-.1.3-.3.5-.6.5-.2,0-.4,0-.6,0-.8.1-1.6.1-2.3,0Z"/>
    <path class="st7" d="M180.1,117c-4.9,0-9.8-1.2-14-3.7,0,0,3.4,7.2,13.9,6.2v-2.5Z"/>
    <path class="st10" d="M174.8,100.9c.2,0,.2,1.6,1.6,2.7s3,.9,3,1.2-.4.3-1.1.3c-.9,0-1.8-.3-2.5-.9-.7-.6-1.1-1.4-1.2-2.2,0-.7.1-1,.2-1Z"/>
    <path class="st10" d="M174.2,83.5c-.1.4-1.6.2-3.3.4s-3.1.7-3.3.3c0-.2.1-.5.7-.9,1.5-.9,3.3-1.2,5-.6.7.2.9.6.9.7Z"/>
    <path class="st10" d="M187.5,84.7c-.3.3-1.2,0-2.4,0s-2.2.2-2.4-.1c-.1-.2,0-.5.5-.8,1.2-.8,2.8-.7,4,.1.4.3.5.6.4.8Z"/>
    <path class="st10" d="M190.3,79.8s-5.4,2.8-12.5-.5c-4.7-2.2-10.2-3.1-11.3-2.2s-1.3,5.8-5.8,7.3c0,0,.6,9.1-3,8.9s-3.1-18.5-3.1-18.5l10-.5,9.7-2.1,9.2,1,7.1,1.7-.2,4.9Z"/>
    <path class="st10" d="M154.2,72.2c0-.1.8-.5,1.8,0s1.5,1.1,1.3,1.2-.7-.4-1.5-.7-1.6-.2-1.6-.4Z"/>
    <path class="st10" d="M157.2,69.1c.2,0,.1,1.1.3,2.3s.7,2.1.6,2.2-.9-.8-1.1-2.1c-.2-.8-.1-1.7.2-2.4Z"/>
    <path class="st5" d="M158.2,89.6c-.2,0-6.5-2.2-6.6,4.3s6.5,5.3,6.5,5.1,0-9.4,0-9.4Z"/>
    <path class="st7" d="M156.2,96.5s-.1,0-.3.2c-.3.1-.6.1-.9,0-.9-.6-1.3-1.5-1.3-2.6,0-.6.1-1.1.3-1.6.1-.4.5-.7.9-.9.3,0,.6,0,.7.3,0,.2,0,.3,0,.3s.2-.1,0-.4c0-.2-.1-.3-.3-.4-.2-.1-.4-.2-.6-.2-.5.1-1,.5-1.2,1-.3.6-.4,1.2-.4,1.8,0,1.2.6,2.3,1.6,2.9.3,0,.7,0,1-.2.2-.2.3-.3.3-.3Z"/>
    <path class="st13" d="M186.6,69c.2-.1.4-.2.7-.3.7-.2,1.4,0,2.1.2.5.2.9.6,1.2,1,.3.5.4,1.2.3,1.8-.1.7-.5,1.4-1,1.9-.6.5-1.3.9-2.1,1.1-1.8.3-3.7-.1-5.1-1.3-.8-.6-1.5-1.4-1.9-2.3-.6-1-.7-2.1-.4-3.2.4-1.1,1.2-2,2.3-2.4,1.1-.5,2.3-.7,3.4-.6,2.5.2,4.8,1.5,6.2,3.5.7,1,1.2,2.2,1.2,3.5,0,1.2-.2,2.4-.8,3.5-.5,1-1.3,2-2.2,2.7-.9.7-1.9,1.2-3,1.4-2,.5-4.1.6-6.1.1-1.8-.6-3.4-1.4-4.9-1.9-1.3-.5-2.7-.9-4.1-1.1-1.1-.1-2.2-.2-3.2,0-1.8.2-2.7.6-2.7.5.2-.1.4-.2.7-.3.7-.2,1.3-.4,2-.5,1.1-.1,2.2-.1,3.3,0,1.4.2,2.9.5,4.2,1,1.5.5,3.1,1.3,4.9,1.9,1.9.4,3.9.4,5.8-.2,2.1-.5,3.9-1.9,4.9-3.9,1.1-2.1.9-4.6-.5-6.5-1.4-1.9-3.5-3.1-5.8-3.3-1.1,0-2.2.1-3.2.5-1,.4-1.7,1.2-2.1,2.1-.2,1-.1,2,.4,2.8.4.8,1.1,1.6,1.8,2.1,1.3,1.1,3,1.6,4.7,1.3.7-.1,1.4-.5,1.9-.9.5-.4.8-1,.9-1.7.1-.6,0-1.1-.2-1.6-.2-.4-.6-.7-1-.9-.6-.3-1.3-.4-1.9-.3-.2,0-.5.1-.7.2Z"/>
    <polygon class="st10" points="216.1 342.5 208.1 235.5 141.9 233.5 141.9 342.1 177.7 342.3 178.9 261.2 183.6 342.3 216.1 342.5"/>
    <path class="st13" d="M181.8,235.5c.2,1.3.3,2.6.3,3.9.1,2.4.2,5.7.2,9.4,0,1.8,0,3.6,0,5.2,0,1.5-.2,2.9-.7,4.2-.4.9-1.1,1.7-1.9,2.2-.3.2-.6.3-1,.3,0,0,.4-.1.9-.5.7-.6,1.3-1.3,1.6-2.2.4-1.3.6-2.7.5-4.1,0-1.6,0-3.4-.1-5.2,0-3.7,0-7,0-9.4,0-1.3,0-2.6.1-3.9Z"/>
    <path class="st13" d="M176.6,238.1c0,0-.4.4-.5,1.2,0,.4.2.8.5,1.1.4.3,1,.2,1.4-.1.5-.3.7-.9.4-1.4,0-.1-.2-.3-.3-.3-.4-.3-.9-.5-1.4-.3v-.2c.3.1.4.2.4.3s-.2,0-.5,0h-.3c0,0,.2-.3.2-.3.6-.3,1.3-.3,1.8.1.4.3.6.7.7,1.2,0,.6-.3,1.1-.7,1.4-.6.5-1.5.5-2.1,0-.5-.4-.7-1-.6-1.6,0-.4.2-.7.5-1,.2-.1.3-.2.4-.1Z"/>
    <path class="st5" d="M269.8,218.4h0c4.9.3,9.8.6,12.8.8,4.9.3,6.4-.2,6.4-.9,0-1.6-10.5-1.4-9.6-2.6,0,0,9.4,2.1,9.7.9.6-2.5-9.9-3.5-9.9-3.5,6.5,2.4,10.3,2.3,10.1.6-.1-1.1-10.1-3.4-10.1-3.4,0,0,7.7,2.2,9.1,2.1s1.7-1.3.8-2.5-12.9-5.5-14.8-6.2-.8-2.8-.8-2.8c1.9-4,2.9-6.9,2.4-8-.3-.6-1.1-.9-1.7-.6-.4.2-.6.5-.7.9-.5,1.3-1.2,2.6-2,3.8-.6,1-1.4,1.8-2.3,2.5-1.1.8-2,1.4-2.8,2l-7.3,1.3,1.7,13.3,9.1,2.3Z"/>
    <path class="st7" d="M273.8,213.8c0,0-.4-.4-1.1-1.1-.9-.8-2-1.4-3.2-1.8l-.7-.2.6-.4.4-.3c1.1-.8,2-1.8,2.7-3,.5-.9.7-1.6.8-1.5s0,.7-.4,1.8c-.6,1.3-1.6,2.5-2.8,3.4-.2.1-.3.2-.5.3v-.6c1.2.4,2.4,1.1,3.3,2.1.7.7.9,1.3.8,1.4Z"/>
    <path class="st7" d="M287.6,212.5c0,.2-2.1-.6-4.7-1.4s-4.7-1.4-4.7-1.5,2.2.1,4.9.9,4.6,1.8,4.5,2Z"/>
    <path class="st7" d="M287.5,214.8c0,.2-1.9-.3-4.3-.9s-4.2-1-4.2-1.1,2,0,4.4.5,4.2,1.4,4.1,1.5Z"/>
    <path class="st10" d="M166.5,128c-.8-.2-1.5,0-2.2.3-.7.4-1.3,1.1-1.6,1.8-.2.5-.4.9-.5,1.4l-.2.8c0,.3-.2.7-.4.9-.2.2-.4.3-.6.3-.2,0-.4,0-.6-.1-.3-.1-.5-.2-.8-.4l-1.4-.7-2.4-1.2c-.8-.3-1.5-.7-2.1-1.3.8.2,1.6.5,2.3.8l2.4,1.1,1.4.7.7.3c.2,0,.3,0,.4,0,.2-.5.4-.9.5-1.4.1-.5.3-1,.6-1.5.4-.9,1.1-1.6,1.9-2,.6-.3,1.2-.4,1.8-.2.4.1.6.3.6.3Z"/>
    <path class="st10" d="M180.5,129.3c.1.1-2.2,2-5.2,4.3l-.4.3v-.5c0-.2-.2-.4-.2-.7-.1-1.7-.8-3.3-1.9-4.6-.5-.5-1.1-.8-1.8-1.1,0,0,1-.1,2.1.8.6.5,1.1,1.2,1.5,2,.4.9.7,1.9.8,2.8v.7c.1,0-.4-.2-.4-.2,3-2.3,5.5-3.9,5.6-3.8Z"/>
    <path class="st6" d="M261.6,200.6h-2.7c-3.9.4-15-.8-23.8-2.8s-8.4-3.3-9.6-4.9-3.1-10.3-3.1-10.3c-1.7-9.8-4.1-19.4-7.1-28.9-4.8-14.8-15.7-18.5-15.7-18.5-.5-.3-1-.5-1.5-.6-.9-.5-13.2-4.4-17.7-4.7v-8.6c-7.7.8-11.6,9.8-11.6,9.8-3.2-7.7-15.1-8.8-15.1-8.8l.2,7.9c-4.2.3-8.4,1-12.5,2.3-6.6,2.4-9.8,4.7-15.3,9.1s-7.1,13.7-7.1,21.6l24.3,9.5v.6l-.3,28.1-1.1,32.1,66.3,2-3.4-27.3c1.9,3.3,8.4,7.7,21.6,11,14.8,3.8,36.9.6,36.9.6l-1.8-19.3Z"/>
    <path class="st10" d="M174.5,147.2c0,0,.5-.3,1.1.2.4.3.5.8.5,1.2-.2.8-1,1.4-1.8,1.2-.4,0-.7-.3-1-.6-.2-.4-.3-.9,0-1.3.3-.7.9-.8.9-.7s-.3.3-.5.8c0,.3,0,.6.2.9.4.4,1,.4,1.4,0,0,0,.2-.2.2-.3,0-.3,0-.6-.2-.8-.4-.5-.8-.5-.8-.5Z"/>
    <path class="st10" d="M176.9,170.8c0,0,.5-.3,1.1.2.4.3.5.8.5,1.2-.2.8-.9,1.4-1.8,1.2-.4,0-.7-.3-1-.6-.2-.4-.3-.9,0-1.4.3-.7.9-.8.9-.7s-.3.3-.5.8c0,.3,0,.6.2.9.4.4,1,.4,1.4,0,.1-.1.2-.2.3-.4,0-.3,0-.6-.2-.8-.4-.5-.8-.5-.8-.6Z"/>
    <path class="st10" d="M178.4,193.8c0,0,.5-.3,1.1.2.4.3.5.8.5,1.2-.2.8-1,1.4-1.8,1.2-.4,0-.7-.3-1-.6-.2-.4-.3-.9,0-1.3.3-.7.9-.8.9-.7s-.3.3-.5.8c0,.3,0,.6.2.9.2.3.6.4.9.3.3,0,.6-.3.7-.6,0-.3,0-.6-.2-.8-.4-.4-.8-.4-.8-.5Z"/>
    <path class="st10" d="M180,218.9c0,0,.5-.3,1.1.2.4.3.5.8.5,1.2,0,.6-.6,1.1-1.2,1.2-.6.2-1.2,0-1.6-.6-.2-.4-.3-.9,0-1.3.3-.7.9-.8.9-.7s-.4.3-.5.8c0,.3,0,.6.1.9.2.3.6.4.9.3.3,0,.6-.3.7-.7,0-.3,0-.6-.2-.8-.4-.4-.8-.4-.8-.5Z"/>
    <g class="st4">
      <polygon points="144.6 162.3 150.6 233.8 141.9 233.8 142.9 204.3 143.2 172.6 144.6 162.3"/>
    </g>
    <path class="st10" d="M207.4,226.3c0-.2-.1-.4-.2-.6,0-.5-.2-1.1-.3-1.9-.3-1.6-.7-4-1.1-6.9-.9-5.8-1.9-13.9-3-22.9s-2.1-17-3-22.9c-.4-2.8-.8-5.2-1-6.9-.1-.8-.2-1.4-.3-1.9,0-.2,0-.4,0-.7,0,.2.2.4.2.6.1.5.2,1.1.4,1.9.3,1.6.8,4,1.2,6.9,1,5.8,2.1,13.9,3.2,22.9s2.1,17,2.8,22.9c.4,2.9.7,5.2.9,6.9,0,.8.2,1.4.2,1.9,0,.2,0,.4,0,.7Z"/>
    <g class="st4">
      <path d="M199.9,168.1c3.8,13.1,5.1,24.7,12.2,35.5,2.6,3.9,6,7.2,9.9,9.8,7.7,4.9,17,6.5,26.1,7.4h6.2s-13.9,1.2-25.1-.9c0,0-17.2-3.1-24-11l-5.4-40.8Z"/>
    </g>
    <path class="st10" d="M176.1,231.4c0-.3,0-.7,0-1,0-.7,0-1.7-.2-2.9-.1-2.6-.3-6.3-.5-10.8-.5-9.1-1.2-21.6-2.3-35.5s-2.2-26.4-3-35.5c-.4-4.5-.7-8.1-.9-10.8,0-1.2-.2-2.2-.2-2.9,0-.3,0-.7,0-1,0,.3.1.7.2,1,0,.7.2,1.7.3,2.9.3,2.6.7,6.2,1.1,10.7.9,9.1,2.1,21.6,3.2,35.5s1.8,26.4,2.1,35.5c.2,4.5.3,8.2.3,10.8v2.9c0,.3,0,.7,0,1Z"/>
    <ellipse class="st6" cx="240.8" cy="213.4" rx="41.9" ry="41"/>
    <ellipse class="st2" cx="240.8" cy="213.4" rx="41.9" ry="41"/>
    <ellipse class="st6" cx="238.2" cy="209.1" rx="41.9" ry="41"/>
    <ellipse class="st3" cx="238" cy="208.7" rx="31.9" ry="30.5" transform="translate(-10.4 12.5) rotate(-3)"/>
    <path class="st12" d="M241,238.8c-17.2,1.6-32.6-10.5-34.7-27.2,0,.3,0,.6,0,.9,1.7,17.1,17.3,29.7,34.8,28s30.4-16.9,28.7-34.1c0-.3,0-.6-.1-.9,1.2,16.8-11.5,31.6-28.7,33.2Z"/>
    <path class="st1" d="M235,178.5c17.2-1.6,32.6,10.5,34.7,27.2,0-.3,0-.6,0-.9-1.7-17.1-17.3-29.7-34.8-28s-30.4,16.9-28.7,34.1c0,.3,0,.6.1.9-1.2-16.8,11.5-31.6,28.7-33.2Z"/>
    <path class="st6" d="M255.4,215.9c-.4-4.4-2.8-7-6.1-7.8,2.3-1.9,3.5-4.8,3-7.7-.4-4.3-3.2-7.1-7.9-7.7l-.5-5.3-5,.5.5,4.9-2.8.3-.5-4.9-5,.5.5,4.9-4.6.4-3.2.3.5,4.9,3.2-.3,2.4,23.8-3.5.3.5,4.9,3.5-.3h0l4.6-.4.6,5.7,5-.5-.6-5.7,2.8-.3.6,5.7,5-.5-.6-5.9c5.6-1.3,8.2-4.8,7.7-9.7ZM233.9,198.2l6.8-.6c3.8-.4,6,1,6.4,4.1s-1.7,4.8-5.4,5.2l-7.7.7-.9-9.2h.9ZM244.1,221.2l-8.2.8h-.6s-1-9.6-1-9.6l8.8-.8c4.1-.4,6.4.9,6.8,4.2s-1.7,5.1-5.8,5.5h0Z"/>
    <path class="st1" d="M255.4,215.9c-.4-4.4-2.8-7-6.1-7.8,2.3-1.9,3.5-4.8,3-7.7-.4-4.3-3.2-7.1-7.9-7.7l-.5-5.3-5,.5.5,4.9-2.8.3-.5-4.9-5,.5.5,4.9-4.6.4-3.2.3.5,4.9,3.2-.3,2.4,23.8-3.5.3.5,4.9,3.5-.3h0l4.6-.4.6,5.7,5-.5-.6-5.7,2.8-.3.6,5.7,5-.5-.6-5.9c5.6-1.3,8.2-4.8,7.7-9.7ZM233.9,198.2l6.8-.6c3.8-.4,6,1,6.4,4.1s-1.7,4.8-5.4,5.2l-7.7.7-.9-9.2h.9ZM244.1,221.2l-8.2.8h-.6s-1-9.6-1-9.6l8.8-.8c4.1-.4,6.4.9,6.8,4.2s-1.7,5.1-5.8,5.5h0Z"/>
    <path class="st6" d="M253,216.1c-.4-4.4-2.8-7-6.1-7.8,2.3-1.9,3.5-4.8,3-7.7-.4-4.3-3.2-7.1-7.9-7.7l-.5-5.3-5,.5.5,4.9-2.8.3-.5-4.9-5,.5.5,4.9-4.6.4-3.2.3.5,4.9,3.2-.3,2.4,23.8-3.4.4.5,4.9,3.5-.3h0l4.6-.4.6,5.7,5-.5-.6-5.7,2.8-.3.6,5.7,5-.5-.6-5.9c5.5-1.4,8.1-4.8,7.6-9.8ZM231.4,198.5l6.8-.6c3.8-.4,6,1,6.4,4.1s-1.7,4.8-5.4,5.2l-7.7.7-.9-9.2h.9ZM241.7,221.5l-8.2.8h-.6s-1-9.6-1-9.6l8.8-.8c4.1-.4,6.4.9,6.8,4.2s-1.7,5.1-5.8,5.5h0Z"/>
    <path class="st12" d="M276.1,191.4s0,0-.2-.3-.3-.5-.5-.9l-.8-1.4c-.3-.6-.7-1.3-1.2-1.9l-1.6-2.2c-.6-.8-1.3-1.6-2.1-2.5-.8-.9-1.7-1.8-2.6-2.6-.5-.5-.9-1-1.5-1.4l-1.7-1.3c-2.5-1.9-5.3-3.6-8.2-4.9l-2.4-1c-.4-.2-.8-.3-1.2-.5l-1.3-.4c-.9-.2-1.8-.5-2.7-.8l-2.8-.5c-1-.2-1.9-.3-2.9-.4-1-.1-2-.2-3-.2h-3.1l-3.1.3c-4.3.6-8.5,1.8-12.5,3.6-3.9,1.8-7.6,4.3-10.8,7.1-3,2.8-5.5,5.9-7.6,9.4l-1.4,2.5-.3.6-.3.6-.5,1.3c-.7,1.6-1.3,3.3-1.8,5-.2.8-.4,1.7-.6,2.5-.2.8-.3,1.6-.4,2.4-.2,1.5-.3,3-.4,4.6,0,1.4,0,2.8.1,4.2,0,1.2.2,2.5.5,3.7.2,1.1.4,2.2.7,3.2s.6,1.8.8,2.6c.2.7.5,1.4.8,2,.2.6.4,1.1.6,1.5s.3.7.4.9c0,.1,0,.2.1.3,0,0-.1-.2-.1-.3-.1-.2-.2-.5-.4-.9l-.6-1.5c-.3-.6-.6-1.3-.8-2l-.8-2.6c-.3-1-.4-2-.7-3.2-.3-1.2-.4-2.5-.5-3.7-.2-1.4-.2-2.8-.2-4.2,0-1.5.1-3.1.3-4.6,0-.8.2-1.6.4-2.4.2-.8.3-1.7.5-2.5.5-1.7,1.1-3.4,1.8-5.1.2-.4.4-.9.5-1.3l.3-.6.3-.6c.4-.8.9-1.7,1.4-2.6,2.1-3.5,4.7-6.7,7.7-9.5,3.3-2.9,7-5.4,11-7.2,4-1.8,8.3-3,12.7-3.5l3.1-.3h3.1c1,0,2,0,3,.2,1,0,2,.2,2.9.4l2.8.6c.9.2,1.8.5,2.7.8l1.3.4c.4.2.8.3,1.3.5l2.5,1c2.9,1.4,5.7,3,8.2,5l1.7,1.4c.6.4,1,1,1.5,1.4.9.8,1.8,1.7,2.6,2.7.7.9,1.5,1.7,2.1,2.5l1.6,2.3c.4.6.8,1.2,1.1,1.9.3.6.6,1,.8,1.4l.5.9c0,0,.1.2.2.3Z"/>
    <path class="st12" d="M233.7,188.3c-.4.1-.9.2-1.4.2-.9.1-2.1.3-3.6.4l.2-.2c.2,1.5.3,3.1.5,4.9v.3h-1.6c0,.1-6.4.7-6.4.7l.2-.2c.1,1.5.2,2.7.3,3.6,0,.4,0,.9,0,1.4-.1-.4-.2-.9-.3-1.3-.1-.9-.3-2.1-.4-3.5v-.2h.2l6.4-.6h1.4c0-.1-.2.2-.2.2-.2-1.8-.3-3.5-.4-4.9v-.2h.2c1.5-.1,2.8-.2,3.6-.3.5,0,.9,0,1.4,0Z"/>
    <path class="st12" d="M242.6,187.6c-1,.3-2,.5-3,.5-1,.2-2,.2-3,0,2-.5,4-.7,6-.6h0Z"/>
    <path class="st12" d="M227.2,222.5c-.1,0-.8-5.2-1.4-11.6s-1-11.7-.9-11.7.8,5.2,1.4,11.6,1,11.7.9,11.7Z"/>
    <path class="st12" d="M241.7,206.9c-1.6.4-3.2.7-4.8.7-1.6.2-3.2.3-4.9.2,1.6-.4,3.2-.7,4.8-.7,1.6-.2,3.2-.3,4.9-.2Z"/>
    <path class="st12" d="M243.3,221.4c-1.6.4-3.2.7-4.8.7-1.6.2-3.2.3-4.9.2,1.6-.4,3.2-.7,4.8-.7,1.6-.2,3.2-.3,4.9-.2Z"/>
    <path class="st10" d="M232.2,253.5c-.1,0-.8-.8-1.5-2-.5-.7-.8-1.5-1-2.3.1,0,.8.8,1.5,2,.5.7.8,1.5,1,2.3Z"/>
    <path class="st10" d="M225.4,251.3c-.1,0-.8-.8-1.4-1.9-.5-.7-.8-1.4-1-2.2.1,0,.8.8,1.4,1.9.5.6.8,1.4,1,2.2Z"/>
    <path class="st10" d="M219,248.4c-.1,0-.8-.8-1.4-1.9-.5-.6-.8-1.4-1-2.2.1,0,.8.8,1.4,1.9.5.7.8,1.4,1,2.2Z"/>
    <path class="st10" d="M239.5,254.4c-.1,0-.8-.8-1.5-2-.5-.7-.8-1.5-1-2.3.1,0,.8.8,1.5,2,.5.7.8,1.5,1,2.3Z"/>
    <path class="st10" d="M246.3,254c-.1,0-.8-.8-1.5-2-.5-.7-.8-1.5-1-2.3.1,0,.8.8,1.5,2,.5.7.8,1.5,1,2.3Z"/>
    <path class="st10" d="M252.9,252.6c-.1,0-.8-.8-1.5-2-.5-.7-.8-1.5-1-2.3.1,0,.8.8,1.5,2,.5.7.8,1.5,1,2.3Z"/>
    <path class="st10" d="M259,250.4c-.1,0-.8-.8-1.5-2-.5-.7-.8-1.5-1-2.3.1,0,.8.8,1.5,2,.5.7.8,1.5,1,2.3Z"/>
    <path class="st10" d="M264.8,247.1c-.1,0-.8-.8-1.5-2-.5-.7-.8-1.5-1-2.3.1,0,.8.8,1.5,2,.5.7.8,1.5,1,2.3Z"/>
    <path class="st10" d="M269.9,243c-.1,0-.8-.8-1.5-2-.5-.7-.8-1.5-1-2.3.1,0,.8.8,1.5,2,.5.7.8,1.5,1,2.3Z"/>
    <path class="st10" d="M273.7,238.4c-.1,0-.8-.8-1.4-1.9s-1.1-2-.9-2.1.7.8,1.4,1.9c.5.6.8,1.4.9,2.1Z"/>
    <path class="st10" d="M277.3,233.5c-.1,0-.8-.8-1.4-1.9-.5-.6-.8-1.4-.9-2.1.1,0,.8.8,1.4,1.9.5.6.8,1.4.9,2.1Z"/>
    <path class="st10" d="M280.1,227.6c-.1,0-.7-.7-1.3-1.7s-1-1.9-.9-2,.7.7,1.3,1.7c.4.6.7,1.3.9,2Z"/>
    <path class="st10" d="M281.9,221.2c-.1,0-.7-.7-1.3-1.7s-1-1.9-.8-2,.7.7,1.3,1.7,1,1.9.8,2Z"/>
    <path class="st10" d="M282.7,214.3c-.1,0-.8-.9-1.5-2.1-.5-.7-.9-1.5-1.1-2.3.6.6,1.1,1.3,1.5,2.1.5.7.9,1.5,1.1,2.3Z"/>
    <path class="st10" d="M281.9,205.2c-.7-.6-1.2-1.4-1.6-2.2-.5-.7-.9-1.6-1.1-2.5.7.6,1.2,1.4,1.6,2.2.5.7.9,1.6,1.1,2.5Z"/>
    <path class="st5" d="M187.6,231.4c4.6,1.1,21.9,2.8,24.8,3.1,5.9.6,5.9,0,5.9-.6-.1-1.9-10.3-1.4-8.2-2.8s12.5.9,12.3-1.1c-.3-2.5-10.9-1.9-11.8-1.9s-.9-1.3-.1-1.3c1.2,0,13.5.6,13.3-1.9-.1-1.4-2.6-.9-2.6-.9,0,0-11.6.4-11.7-.8s6.7-1.7,9-1.6,3.2-1.1,2.4-2.1c-.6-.7-7.6-.9-9.9-.8s-8.5.3-5.6-2.4,4.3-5.8,4.1-6.9c-.2-.6-.9-1-1.6-.8-.4.1-.7.4-.8.8-.7,1.2-1.5,2.2-2.5,3.2-.7.8-1.6,1.4-2.6,1.9l-1.3.6c-1.9.9-9.7,1.8-11.8,1.6l-1.4,14.7Z"/>
    <path class="st6" d="M119,163.2v41.1c0,11.9,23.7,22.2,36.8,24.5l35.7,4.5,1.2-20.8s-44.2-11.6-46.6-14.5-1.3-40.9-1.3-40.9l-25.8,6Z"/>
    <path class="st10" d="M141.5,196.5c.2,0,.4.1.6.2l1.6.6,6,2.4h0c2.2.9,4.8,1.7,7.8,2.6l10.1,2.9c7.3,2.1,15.9,4.5,25.1,7h.2v.3c-.1,2.8-.3,5.8-.5,8.8-.2,4.1-.5,8.1-.7,12v.2h-.2c-12-.3-24-1.9-35.7-4.7-4.4-1.1-7.8-2.1-10.2-2.8-1.2-.4-2.1-.7-2.7-.9l-.7-.2h-.2c0-.1.2,0,.2,0l.7.2,2.7.8c2.4.7,5.9,1.6,10.2,2.7,11.7,2.7,23.6,4.2,35.6,4.5l-.3.2c.2-3.9.4-7.9.7-12,.2-3,.3-6,.5-8.8l.2.3c-9.2-2.6-17.7-5-25.1-7.1-3.7-1.1-7-2.1-10.1-3s-5.7-1.8-7.9-2.7h0l-6-2.5-1.6-.7c-.2,0-.3-.1-.5-.2Z"/>
    <path class="st10" d="M147,199.1c-1-1-1.8-2-2.5-3.2-.8-1.1-1.6-2.2-2.1-3.5,1,1,1.8,2,2.5,3.2.8,1.1,1.5,2.2,2.1,3.5Z"/>
    <g class="st4">
      <path d="M153.8,129.9s8.1,8.3,9.2,7.1,1.6-9.2,4.9-7.6c-.4-.7-1.2-1.3-2-1.4-1.2-.1-3.3-.3-4.3,4.2,0,0,0,1.4-1.1,1s-6.8-3.2-6.8-3.2Z"/>
    </g>
    <g class="st4">
      <path d="M170,128.8c1,0,1.9.8,2.1,1.8.3,2.2.5,4.4.5,6.6l7.2-7.1-4.7,3.3s-.6-5.6-4.1-6.3l-1,1.7Z"/>
    </g>
    <path class="st12" d="M191.9,226h-.4l-1-.2-3.8-.7-14-2.6c-5.9-1.1-13-2.4-20.8-3.9l-6-1.2-3.1-.6c-.5-.1-1-.2-1.6-.4s-1-.3-1.6-.5c-2.1-.8-4-2.1-5.6-3.7-1.6-1.6-2.9-3.6-3.8-5.7-.8-2.1-1.3-4.4-1.2-6.8v-19.1c0-8,0-15.1,0-21.1s0-10.9,0-14.3v-4.9c0-.1,0-.2,0-.4,0,.1,0,.2,0,.4v4.9c0,3.4,0,8.3,0,14.3s0,13.2,0,21.1v19.1c0,2.2.4,4.5,1.2,6.5.8,2.1,2.1,4,3.6,5.6,1.5,1.5,3.4,2.7,5.4,3.5.5.2,1,.4,1.5.5s1,.3,1.6.4l3.1.6,6,1.2,21,4.1,14,2.7,3.8.8,1,.2c.1,0,.2,0,.3.1Z"/>
    <path class="st12" d="M161.6,203c0-.3-.1-.5-.1-.8,0-.6-.1-1.3-.2-2.2-.2-2-.5-4.8-.8-8.2-.7-7-1.6-16.6-2.5-27.1-.5-5.3-.9-10.4-1.4-14.9s-1.7-8.6-3.8-11.4c-1.6-2.3-3.8-4-6.4-4.9-1-.3-2-.5-3-.5.3,0,.5,0,.8,0,.8,0,1.5.2,2.2.4,2.7.9,5,2.6,6.6,4.9,2.2,2.8,3.4,7,4,11.6s.9,9.6,1.4,14.9c.9,10.6,1.8,20.1,2.4,27.1.3,3.4.5,6.2.7,8.2,0,.9.1,1.7.2,2.2,0,.2,0,.5,0,.8Z"/>
    <path class="st12" d="M194.2,217c0-.3,0-.6,0-.9,0-.6-.1-1.4-.2-2.5-.1-2.2-.3-5.3-.6-9.1-.5-7.7-1.3-18.3-2.5-30s-2.5-22.3-3.5-29.9l-1.2-9c-.1-1-.3-1.8-.3-2.5,0-.3,0-.6,0-.9,0,.3.2.6.2.8.1.6.2,1.4.4,2.4.4,2.1.9,5.2,1.4,9,1.1,7.6,2.5,18.2,3.7,29.9s1.9,22.3,2.3,30c.2,3.9.3,7,.4,9.1,0,1,0,1.9,0,2.5,0,.3,0,.5,0,.8Z"/>
    <path class="st12" d="M209.7,178.1c-.1-.5-.2-1.1-.3-1.6-.2-1.1-.4-2.6-.7-4.4-.6-3.7-1.4-8.8-2.4-14.4s-2-10.6-2.8-14.3c-.4-1.8-.7-3.2-.9-4.3-.1-.5-.2-1.1-.3-1.6.2.5.3,1,.5,1.6.3,1,.6,2.5,1.1,4.3.8,3.6,1.9,8.7,2.9,14.3,1,5.6,1.7,10.7,2.2,14.4.2,1.9.4,3.4.5,4.4,0,.5.1,1.1.1,1.6Z"/>
    <path class="st12" d="M214.4,153.7h-3.7c0,0-10.1-.3-10.1-.3-8.6-.2-20.4-.3-33.4-.2s-24.8.4-33.4.7l-10.1.4h-2.8c0,0-.7,0-.7,0,0,0-.2,0-.2,0h.9c0,0,2.8-.3,2.8-.3,2.4-.1,5.8-.3,10.1-.5,8.5-.4,20.3-.8,33.4-.9,13-.1,24.9.1,33.4.4,4.3.1,7.7.3,10.1.4h2.8c0,.1.7.2.7.2h.3Z"/>
    <path class="st12" d="M162.1,130.5c-1.5-.7-2.9-1.5-4.2-2.4-1.4-.8-2.7-1.7-3.9-2.8,1.5.6,2.9,1.4,4.2,2.4,1.4.8,2.7,1.7,3.9,2.8Z"/>
    <path class="st12" d="M180.4,125.3c-.8,1-1.8,1.9-2.8,2.7-.8.7-1.6,1.2-2.2,1.6-.2.2-.5.3-.7.4,0,0-.1,0-.2,0-.1,0,0,0,0,0,.9-.9,1.9-1.7,2.9-2.5,1-.9,2-1.6,3.2-2.2Z"/>
    <path class="st12" d="M144.2,189.1c0,.1-5.4.5-12.1.9s-12.1.5-12.1.4,5.4-.5,12.1-.9,12.1-.5,12.1-.4Z"/>
    <path class="st12" d="M199.8,192.1c0,.1-12.1.6-26.9,1.1s-27,.8-27,.6,12.1-.7,27-1.1,26.9-.8,26.9-.6Z"/>
    <path class="st12" d="M144,224.5c.4-1.1.9-2.2,1.4-3.3.9-2,2.1-4.8,3.2-7.9s2.1-6,2.7-8.1c.3-1.1.6-2.3,1.1-3.4,0,.3,0,.6-.1,1-.1.6-.3,1.5-.6,2.5-.5,2.1-1.4,5-2.6,8.2-1,2.7-2.1,5.3-3.3,7.9-.5,1-.9,1.8-1.2,2.3-.1.3-.3.6-.5.8Z"/>
    <path class="st12" d="M174.1,231.8c0-1.1,0-2.2,0-3.3.1-2.1.4-4.9.9-8s1.1-5.9,1.6-7.9c.2-1.1.6-2.2,1-3.2-.1,1.1-.3,2.2-.6,3.3-.4,2-1,4.8-1.5,7.9s-.8,5.9-1.1,8c0,1.1-.3,2.2-.5,3.3Z"/>
    <path class="st10" d="M144.6,167.1c-.1-.5-.2-1-.2-1.4-.1-.9-.2-2.3-.3-4s0-3.7-.2-5.9c-.1-2.4-.5-4.7-1.2-7-.7-2.3-1.8-4.4-3.4-6.1-1.3-1.4-3-2.4-4.8-3-1.2-.4-2.6-.5-3.9-.4-.9.1-1.4.3-1.4.2.1,0,.2-.1.3-.1.3-.1.7-.2,1-.3,1.3-.2,2.7-.2,4,.2,1.9.5,3.7,1.6,5.1,3,1.7,1.8,2.9,4,3.6,6.3.7,2.3,1.1,4.7,1.2,7.1.1,2.2.1,4.2.1,5.9,0,1.7,0,3,0,4,0,.5,0,1,0,1.4Z"/>
  </g>
  <g>
    <circle class="st0" cx="431" cy="158.8" r="38.9"/>
    <circle class="st8" cx="427.7" cy="155.5" r="38.9"/>
    <ellipse class="st11" cx="427.4" cy="155.1" rx="29.6" ry="28.9" transform="translate(-27.3 153.9) rotate(-19.8)"/>
    <path class="st12" d="M437.1,182.2c-15.1,5.4-31.8-2.2-37.6-17.1,0,.3.2.5.3.8,5.4,15.5,22.3,23.6,37.8,18.2,15.5-5.4,23.6-22.3,18.2-37.8,0-.2-.1-.3-.2-.5,0-.3-.2-.5-.3-.8,5,15.2-3,31.7-18.1,37.1Z"/>
    <path class="st9" d="M417.7,128c15.1-5.4,31.8,2.2,37.6,17.1,0-.3-.2-.5-.3-.8-5.7-15.4-22.7-23.2-38.1-17.5-15.1,5.6-23,22.3-17.7,37.6,0,.3.2.5.3.8-5-15.2,3-31.7,18.1-37.1Z"/>
    <path class="st0" d="M444.8,157.8c-1.4-3.9-4.2-5.8-7.3-5.8,1.7-2.3,2-5.2.9-7.8-1.4-3.9-4.5-5.8-8.9-5.3l-1.8-4.8-4.4,1.6,1.6,4.4-2.5.9-1.6-4.4-4.4,1.6,1.6,4.4-4,1.4-2.8,1,1.6,4.4,2.8-1,7.7,21.3-3.1,1.1,1.6,4.4,3.1-1.1h0l4-1.4,1.9,5.1,4.4-1.6-1.9-5.1,2.5-.9,1.9,5.1,4.4-1.6-1.9-5.3c4.7-2.4,6.3-6.2,4.7-10.7ZM421.2,146.5l5.9-2.1c3.3-1.2,5.7-.5,6.7,2.3s-.4,4.8-3.7,6l-6.8,2.5-3-8.3.8-.3ZM435.8,165.3l-7.2,2.6-.5.2-3.1-8.7,7.7-2.8c3.6-1.3,6-.7,7.1,2.4s-.4,5-4,6.3Z"/>
    <path class="st9" d="M442.7,158.6c-1.4-3.9-4.2-5.8-7.3-5.8,1.7-2.3,2-5.2.9-7.8-1.4-3.9-4.5-5.8-8.9-5.3l-1.7-4.8-4.4,1.6,1.6,4.4-2.5.9-1.6-4.4-4.4,1.6,1.6,4.4-4,1.4-2.8,1,1.6,4.4,2.8-1,7.7,21.4-3.1,1.1,1.6,4.4,3.1-1.1h0l4-1.4,1.8,5.1,4.4-1.6-1.9-5.1,2.6-.9,1.9,5.1,4.4-1.6-1.9-5.3c4.7-2.5,6.2-6.3,4.6-10.8ZM419.1,147.2l5.9-2.1c3.3-1.2,5.7-.5,6.7,2.3s-.4,4.8-3.7,6l-6.7,2.4-3-8.3.8-.3ZM433.7,166.1l-7.2,2.6-.5.2-3.1-8.7,7.7-2.8c3.6-1.3,6-.6,7.1,2.4s-.4,5-4,6.3Z"/>
    <path class="st12" d="M418.7,137.4c0,.2-1.6,1.1-4.2,2.2l.4-.8c.5,1.2,1.1,2.7,1.7,4.4l.3.7-.7.3-1.2.4c-2.1.8-4,1.4-5.6,1.9l.4-.8c.8,2.7,1.2,4.5,1,4.6s-1.1-1.6-2.2-4.2l-.2-.6.6-.3c1.6-.7,3.5-1.4,5.6-2.1l1.2-.4-.5,1c-.6-1.6-1.1-3.2-1.5-4.5l-.2-.6.6-.2c2.7-.8,4.5-1.3,4.6-1Z"/>
    <path class="st12" d="M426.6,134.7c.1.4-.9,1.2-2.4,1.7s-2.8.6-2.9.2.9-1.2,2.4-1.7,2.8-.6,2.9-.2Z"/>
    <path class="st12" d="M420.9,170.4c-.4.1-2.4-4.4-4.5-10.2s-3.4-10.6-3-10.7,2.4,4.4,4.5,10.2,3.4,10.6,3,10.7Z"/>
    <path class="st12" d="M430.3,152.7c.1.4-1.6,1.4-4,2.3s-4.4,1.2-4.5.8,1.6-1.4,4-2.3,4.4-1.2,4.5-.8Z"/>
    <path class="st12" d="M435.1,165.6c.1.4-1.6,1.4-4,2.3s-4.4,1.2-4.5.8,1.6-1.4,4-2.3,4.4-1.2,4.5-.8Z"/>
  </g>
  <g>
    <path class="st10" d="M290.8,176.2l1.1-.8.8,1.1-1.1.8-.8-1.1Z"/>
    <path class="st10" d="M366.4,158.1l.3-1.3c.9.2,1.8.4,2.7.7l-.3,1.3c-.8-.2-1.7-.4-2.6-.6ZM361.1,157.1l.2-1.3c.9.1,1.8.3,2.7.5l-.2,1.3c-.9-.2-1.7-.3-2.7-.4ZM355.7,156.5v-1.3c1,0,1.9.2,2.8.3v1.3c-1,0-1.9-.2-2.8-.3ZM353,156.4c-.9,0-1.8,0-2.7,0v-1.3c1,0,1.9,0,2.8,0v1.3q0,0,0,0ZM344.9,156.4v-1.3c.9,0,1.8,0,2.7-.1v1.3c-.8,0-1.7,0-2.7.1ZM339.5,156.9l-.2-1.3c.9-.1,1.8-.2,2.7-.3v1.3c-.7,0-1.6.1-2.6.3ZM336.9,157.3c-.9.1-1.7.3-2.8.5l-.3-1.4c.9-.2,1.8-.3,2.7-.5l.2,1.4h0ZM331.6,158.3c-.9.2-1.7.4-2.7.6l-.3-1.3c.9-.2,1.8-.4,2.7-.6l.3,1.3h0ZM323.7,160.4l-.4-1.3c.9-.3,1.7-.5,2.6-.8l.4,1.3-2.6.8ZM294,173.9l2.2-1.5.7,1.1-2.2,1.5-.7-1.1ZM321.2,161.2c-.8.3-1.7.6-2.6.9l-.5-1.3c.8-.3,1.7-.6,2.5-.9l.4,1.3h0ZM298.5,170.9l2.3-1.5.7,1.1-2.3,1.4-.7-1.1ZM316.1,163.2c-.8.3-1.7.7-2.5,1.1l-.5-1.2c.8-.4,1.7-.6,2.5-1.1l.5,1.2h0ZM303.3,168c.8-.5,1.6-.9,2.4-1.3l.6,1.2c-.8.4-1.5.9-2.3,1.3l-.7-1.2ZM308.9,166.5h-.2c0,0-.6-1.1-.6-1.1h.2c0,0,2.3-1.2,2.3-1.2l.6,1.2-2.3,1.1Z"/>
    <path class="st10" d="M371.6,159.5l.4-1.3,1.3.4-.4,1.3-1.2-.4Z"/>
    <polygon class="st10" points="376.6 160.6 364.2 161.1 364.2 159.8 372.9 159.4 366 154.1 366.8 153 376.6 160.6"/>
  </g>
</svg>