<?xml version="1.0" encoding="UTF-8"?>
<svg id="Layer_1" xmlns="http://www.w3.org/2000/svg" version="1.1" viewBox="0 0 600 225">
  <!-- Generator: Adobe Illustrator 29.8.2, SVG Export Plug-In . SVG Version: 2.1.1 Build 3)  -->
  <defs>
    <style>
      .st0, .st1, .st2, .st3, .st4, .st5, .st6, .st7, .st8 {
        isolation: isolate;
      }

      .st0, .st6 {
        opacity: .3;
      }

      .st1 {
        opacity: .1;
      }

      .st2 {
        opacity: .6;
      }

      .st9 {
        fill: #ff603b;
      }

      .st10 {
        fill: #3f3d56;
      }

      .st11 {
        fill: #263238;
      }

      .st3 {
        opacity: .9;
      }

      .st3, .st4, .st5 {
        fill: #fafafa;
      }

      .st4, .st12 {
        opacity: .4;
      }

      .st5, .st7 {
        opacity: .2;
      }

      .st13, .st6, .st7, .st8 {
        fill: #fff;
      }

      .st14 {
        fill: #ebb376;
      }

      .st15 {
        fill: #d58745;
      }

      .st8 {
        opacity: .5;
      }
    </style>
  </defs>
  <rect class="st10" x="570.5" y="34" width=".7" height="37"/>
  <rect class="st10" x="511.1" y="76.9" width="53.9" height=".7"/>
  <rect class="st10" x="504.8" y="82.8" width=".7" height="49.5"/>
  <path class="st10" d="M570.8,83.1c-3.4,0-6.2-2.8-6.2-6.2s2.8-6.2,6.2-6.2,6.2,2.8,6.2,6.2c0,3.4-2.8,6.2-6.2,6.2ZM570.8,71.4c-3,0-5.5,2.5-5.5,5.5s2.5,5.5,5.5,5.5,5.5-2.5,5.5-5.5c0-3-2.5-5.5-5.5-5.5h0Z"/>
  <path class="st10" d="M505.2,83.1c-3.4,0-6.2-2.8-6.2-6.2s2.8-6.2,6.2-6.2,6.2,2.8,6.2,6.2c0,3.4-2.8,6.2-6.2,6.2ZM505.2,71.4c-3,0-5.5,2.5-5.5,5.5s2.5,5.5,5.5,5.5,5.5-2.5,5.5-5.5c0-3-2.5-5.5-5.5-5.5h0Z"/>
  <path class="st10" d="M570.8,16c-4.1,0-7.3,3.3-7.3,7.3s3.3,7.3,7.3,7.3,7.3-3.3,7.3-7.3c0-4-3.3-7.3-7.3-7.3ZM570.8,18.2c1.2,0,2.2,1,2.2,2.2s-1,2.2-2.2,2.2-2.2-1-2.2-2.2c0-1.2,1-2.2,2.2-2.2ZM570.8,28.8c-1.8,0-3.4-.9-4.4-2.3,0-1.5,2.9-2.3,4.4-2.3s4.4.8,4.4,2.3c-1,1.5-2.6,2.3-4.4,2.3Z"/>
  <rect class="st10" x="380.7" y="132.8" width="119.7" height=".7"/>
  <rect class="st10" x="113.8" y="49.5" width=".7" height="39.2"/>
  <rect class="st10" x="113.8" y="100.4" width=".7" height="34.5"/>
  <path class="st10" d="M114.2,100.8c-3.4,0-6.2-2.8-6.2-6.2s2.8-6.2,6.2-6.2,6.2,2.8,6.2,6.2c0,3.4-2.8,6.2-6.2,6.2ZM114.2,89.1c-3,0-5.5,2.5-5.5,5.5s2.5,5.5,5.5,5.5,5.5-2.5,5.5-5.5c0-3-2.5-5.5-5.5-5.5Z"/>
  <path class="st10" d="M114.5,31.9c-4.1,0-7.3,3.3-7.3,7.3s3.3,7.3,7.3,7.3,7.3-3.3,7.3-7.3c0-4-3.3-7.3-7.3-7.3ZM114.5,34.1c1.2,0,2.2,1,2.2,2.2s-1,2.2-2.2,2.2-2.2-1-2.2-2.2c0-1.2,1-2.2,2.2-2.2ZM114.5,44.6c-1.8,0-3.4-.9-4.4-2.3,0-1.5,2.9-2.3,4.4-2.3s4.4.8,4.4,2.3c-1,1.5-2.6,2.3-4.4,2.3Z"/>
  <rect class="st10" x="112.8" y="136.2" width="188" height=".7"/>
  <rect class="st10" x="31.5" y="172.2" width=".7" height="31.2"/>
  <rect class="st10" x="37.7" y="208.9" width="274.2" height=".7"/>
  <path class="st10" d="M32.2,215.5c-4.9,0-8.5-5.7-4.6-10.8,5.1-3.9,10.8-.3,10.8,4.6h0c0,3.4-2.8,6.2-6.2,6.2ZM32.2,203.8c-4.3,0-7.5,5-4,9.5,4.5,3.5,9.5.3,9.5-4h0c0-3-2.5-5.5-5.5-5.5Z"/>
  <rect class="st10" x="421.9" y="165.6" width="50.6" height=".7"/>
  <rect class="st10" x="416.1" y="172.2" width=".7" height="31.2"/>
  <rect class="st10" x="324" y="208.9" width="86.2" height=".7"/>
  <rect class="st10" x="317.8" y="180.7" width=".7" height="22.7"/>
  <path class="st10" d="M416.1,172.6c-3.4,0-6.2-2.8-6.2-6.2s2.8-6.2,6.2-6.2,6.2,2.8,6.2,6.2h0c0,3.4-2.8,6.2-6.2,6.2ZM416.1,160.9c-3,0-5.5,2.5-5.5,5.5s2.5,5.5,5.5,5.5,5.5-2.5,5.5-5.5h0c0-3-2.5-5.5-5.5-5.5Z"/>
  <path class="st10" d="M318.2,215.5c-3.4,0-6.2-2.8-6.2-6.2s2.8-6.2,6.2-6.2,6.2,2.8,6.2,6.2h0c0,3.4-2.8,6.2-6.2,6.2ZM318.2,203.8c-3,0-5.5,2.5-5.5,5.5s2.5,5.5,5.5,5.5,5.5-2.5,5.5-5.5h0c0-3-2.5-5.5-5.5-5.5Z"/>
  <path class="st10" d="M32.2,153.9c-5.8,0-10,6.7-5.4,12.7,6,4.6,12.7.4,12.7-5.4,0-4-3.3-7.3-7.3-7.3ZM30.6,156.7c2.4-1.8,5,.9,3.2,3.2-2.4,1.8-5-.9-3.2-3.2ZM32.2,166.7c-1.8,0-3.4-.9-4.4-2.3,0-1.5,2.9-2.3,4.4-2.3s4.4.8,4.4,2.3c-1,1.5-2.6,2.3-4.4,2.3Z"/>
  <path class="st10" d="M482.1,158.3c-4.1,0-7.3,3.3-7.3,7.3s3.3,7.3,7.3,7.3,7.3-3.3,7.3-7.3c0-4-3.3-7.3-7.3-7.3ZM482.1,160.5c1.2,0,2.2,1,2.2,2.2s-1,2.2-2.2,2.2-2.2-1-2.2-2.2c0-1.2,1-2.2,2.2-2.2ZM482.1,171.1c-1.8,0-3.4-.9-4.4-2.3,0-1.5,2.9-2.3,4.4-2.3s4.4.8,4.4,2.3c-1,1.5-2.6,2.3-4.4,2.3Z"/>
  <circle class="st13" cx="504.7" cy="132.3" r="4.9"/>
  <g>
    <g>
      <g id="freepik--Safe--inject-133">
        <path class="st9" d="M244.6,74.1l-.5-.3c4.6-8.9,10.7-16.9,18.1-23.7l.4.4c-7.3,6.7-13.4,14.6-18,23.5Z"/>
        <path class="st9" d="M237.2,95.1h-.6c.8-4.3,2-8.4,3.5-12.3l.6.2c-1.5,3.9-2.6,8-3.5,12.1Z"/>
        <circle class="st3" cx="318.1" cy="111.6" r="66.4"/>
        <g class="st12">
          <polygon class="st9" points="271.1 148.7 255.5 148.7 258.5 141.3 268.1 141.3 271.1 148.7"/>
          <polygon class="st5" points="271.1 148.7 255.5 148.7 258.5 141.3 268.1 141.3 271.1 148.7"/>
          <polygon class="st9" points="294.8 148.7 271.1 148.7 268.1 141.3 291.8 141.3 294.8 148.7"/>
          <polygon class="st0" points="294.8 148.7 271.1 148.7 268.1 141.3 291.8 141.3 294.8 148.7"/>
          <polygon class="st9" points="291 148.7 275.4 148.7 278.4 141.3 288 141.3 291 148.7"/>
          <polygon class="st5" points="291 148.7 275.4 148.7 278.4 141.3 288 141.3 291 148.7"/>
          <polygon class="st9" points="314.7 148.7 291 148.7 288 141.3 311.7 141.3 314.7 148.7"/>
          <polygon class="st0" points="314.7 148.7 291 148.7 288 141.3 311.7 141.3 314.7 148.7"/>
          <polygon class="st9" points="310.9 148.7 295.3 148.7 298.3 141.3 307.9 141.3 310.9 148.7"/>
          <polygon class="st5" points="310.9 148.7 295.3 148.7 298.3 141.3 307.9 141.3 310.9 148.7"/>
          <polygon class="st9" points="334.6 148.7 310.9 148.7 307.9 141.3 331.6 141.3 334.6 148.7"/>
          <polygon class="st0" points="334.6 148.7 310.9 148.7 307.9 141.3 331.6 141.3 334.6 148.7"/>
          <polygon class="st9" points="330.8 148.7 315.2 148.7 318.2 141.3 327.8 141.3 330.8 148.7"/>
          <polygon class="st5" points="330.8 148.7 315.2 148.7 318.2 141.3 327.8 141.3 330.8 148.7"/>
          <polygon class="st9" points="354.6 148.7 330.8 148.7 327.8 141.3 351.6 141.3 354.6 148.7"/>
          <polygon class="st0" points="354.6 148.7 330.8 148.7 327.8 141.3 351.6 141.3 354.6 148.7"/>
          <polygon class="st9" points="350.8 148.7 335.2 148.7 338.2 141.3 347.8 141.3 350.8 148.7"/>
          <polygon class="st5" points="350.8 148.7 335.2 148.7 338.2 141.3 347.8 141.3 350.8 148.7"/>
          <path class="st9" d="M363.4,148.7c.8-2.5,1.4-4.9,2.1-7.4h-17.7l3,7.4h12.7Z"/>
          <path class="st0" d="M363.4,148.7c.8-2.5,1.4-4.9,2.1-7.4h-17.7l3,7.4h12.7Z"/>
          <path class="st9" d="M365.5,141.3h-7.4l-3,7.4h8.3c.8-2.5,1.4-4.9,2.1-7.4Z"/>
          <path class="st5" d="M365.5,141.3h-7.4l-3,7.4h8.3c.8-2.5,1.4-4.9,2.1-7.4Z"/>
          <polygon class="st9" points="277.2 141.3 261.5 141.3 264.6 133.9 274.1 133.9 277.2 141.3"/>
          <polygon class="st5" points="277.2 141.3 261.5 141.3 264.6 133.9 274.1 133.9 277.2 141.3"/>
          <polygon class="st9" points="300.9 141.3 277.2 141.3 274.1 133.9 297.9 133.9 300.9 141.3"/>
          <polygon class="st0" points="300.9 141.3 277.2 141.3 274.1 133.9 297.9 133.9 300.9 141.3"/>
          <polygon class="st9" points="297.1 141.3 281.5 141.3 284.5 133.9 294.1 133.9 297.1 141.3"/>
          <polygon class="st5" points="297.1 141.3 281.5 141.3 284.5 133.9 294.1 133.9 297.1 141.3"/>
          <polygon class="st9" points="320.8 141.3 297.1 141.3 294.1 133.9 317.8 133.9 320.8 141.3"/>
          <polygon class="st0" points="320.8 141.3 297.1 141.3 294.1 133.9 317.8 133.9 320.8 141.3"/>
          <polygon class="st9" points="317 141.3 301.4 141.3 304.4 133.9 314 133.9 317 141.3"/>
          <polygon class="st5" points="317 141.3 301.4 141.3 304.4 133.9 314 133.9 317 141.3"/>
          <polygon class="st9" points="340.7 141.3 317 141.3 314 133.9 337.7 133.9 340.7 141.3"/>
          <polygon class="st0" points="340.7 141.3 317 141.3 314 133.9 337.7 133.9 340.7 141.3"/>
          <polygon class="st9" points="336.9 141.3 321.3 141.3 324.3 133.9 333.9 133.9 336.9 141.3"/>
          <polygon class="st5" points="336.9 141.3 321.3 141.3 324.3 133.9 333.9 133.9 336.9 141.3"/>
          <polygon class="st9" points="360.7 141.3 336.9 141.3 333.9 133.9 357.6 133.9 360.7 141.3"/>
          <polygon class="st0" points="360.7 141.3 336.9 141.3 333.9 133.9 357.6 133.9 360.7 141.3"/>
          <polygon class="st9" points="356.9 141.3 341.2 141.3 344.3 133.9 353.8 133.9 356.9 141.3"/>
          <polygon class="st5" points="356.9 141.3 341.2 141.3 344.3 133.9 353.8 133.9 356.9 141.3"/>
          <path class="st9" d="M365.5,141.3c.6-2.5,1.1-4.9,1.6-7.4h-13.2l3,7.4h8.6Z"/>
          <path class="st0" d="M365.5,141.3c.6-2.5,1.1-4.9,1.6-7.4h-13.2l3,7.4h8.6Z"/>
          <path class="st9" d="M367.1,133.9h-2.9l-3,7.4h4.3c.6-2.5,1.1-4.9,1.6-7.4Z"/>
          <path class="st5" d="M367.1,133.9h-2.9l-3,7.4h4.3c.6-2.5,1.1-4.9,1.6-7.4Z"/>
          <polygon class="st9" points="282.4 133.9 266.8 133.9 269.8 126.5 279.4 126.5 282.4 133.9"/>
          <polygon class="st5" points="282.4 133.9 266.8 133.9 269.8 126.5 279.4 126.5 282.4 133.9"/>
          <polygon class="st9" points="306.1 133.9 282.4 133.9 279.4 126.5 303.1 126.5 306.1 133.9"/>
          <polygon class="st0" points="306.1 133.9 282.4 133.9 279.4 126.5 303.1 126.5 306.1 133.9"/>
          <polygon class="st9" points="302.3 133.9 286.7 133.9 289.7 126.5 299.3 126.5 302.3 133.9"/>
          <polygon class="st5" points="302.3 133.9 286.7 133.9 289.7 126.5 299.3 126.5 302.3 133.9"/>
          <polygon class="st9" points="326 133.9 302.3 133.9 299.3 126.5 323 126.5 326 133.9"/>
          <polygon class="st0" points="326 133.9 302.3 133.9 299.3 126.5 323 126.5 326 133.9"/>
          <polygon class="st9" points="322.2 133.9 306.6 133.9 309.6 126.5 319.2 126.5 322.2 133.9"/>
          <polygon class="st5" points="322.2 133.9 306.6 133.9 309.6 126.5 319.2 126.5 322.2 133.9"/>
          <polygon class="st9" points="345.9 133.9 322.2 133.9 319.2 126.5 342.9 126.5 345.9 133.9"/>
          <polygon class="st0" points="345.9 133.9 322.2 133.9 319.2 126.5 342.9 126.5 345.9 133.9"/>
          <polygon class="st9" points="342.1 133.9 326.5 133.9 329.5 126.5 339.1 126.5 342.1 133.9"/>
          <polygon class="st5" points="342.1 133.9 326.5 133.9 329.5 126.5 339.1 126.5 342.1 133.9"/>
          <polygon class="st9" points="365.9 133.9 342.1 133.9 339.1 126.5 362.9 126.5 365.9 133.9"/>
          <polygon class="st0" points="365.9 133.9 342.1 133.9 339.1 126.5 362.9 126.5 365.9 133.9"/>
          <polygon class="st9" points="362.1 133.9 346.5 133.9 349.5 126.5 359.1 126.5 362.1 133.9"/>
          <polygon class="st5" points="362.1 133.9 346.5 133.9 349.5 126.5 359.1 126.5 362.1 133.9"/>
          <path class="st9" d="M367.1,133.9c.5-2.5.8-4.9,1.2-7.4h-9.2l3,7.4h5Z"/>
          <path class="st0" d="M367.1,133.9c.5-2.5.8-4.9,1.2-7.4h-9.2l3,7.4h5Z"/>
          <path class="st9" d="M367.6,130.9l-1.2,3h.7c.2-1,.4-2,.5-3Z"/>
          <path class="st5" d="M367.6,130.9l-1.2,3h.7c.2-1,.4-2,.5-3Z"/>
          <polygon class="st9" points="288.5 126.5 272.8 126.5 275.9 119.1 285.4 119.1 288.5 126.5"/>
          <polygon class="st5" points="288.5 126.5 272.8 126.5 275.9 119.1 285.4 119.1 288.5 126.5"/>
          <polygon class="st9" points="312.2 126.5 288.5 126.5 285.4 119.1 309.2 119.1 312.2 126.5"/>
          <polygon class="st0" points="312.2 126.5 288.5 126.5 285.4 119.1 309.2 119.1 312.2 126.5"/>
          <polygon class="st9" points="308.4 126.5 292.8 126.5 295.8 119.1 305.4 119.1 308.4 126.5"/>
          <polygon class="st5" points="308.4 126.5 292.8 126.5 295.8 119.1 305.4 119.1 308.4 126.5"/>
          <polygon class="st9" points="332.1 126.5 308.4 126.5 305.4 119.1 329.1 119.1 332.1 126.5"/>
          <polygon class="st0" points="332.1 126.5 308.4 126.5 305.4 119.1 329.1 119.1 332.1 126.5"/>
          <polygon class="st9" points="328.3 126.5 312.7 126.5 315.7 119.1 325.3 119.1 328.3 126.5"/>
          <polygon class="st5" points="328.3 126.5 312.7 126.5 315.7 119.1 325.3 119.1 328.3 126.5"/>
          <polygon class="st9" points="352 126.5 328.3 126.5 325.3 119.1 349 119.1 352 126.5"/>
          <polygon class="st0" points="352 126.5 328.3 126.5 325.3 119.1 349 119.1 352 126.5"/>
          <polygon class="st9" points="348.2 126.5 332.6 126.5 335.6 119.1 345.2 119.1 348.2 126.5"/>
          <polygon class="st5" points="348.2 126.5 332.6 126.5 335.6 119.1 345.2 119.1 348.2 126.5"/>
          <path class="st9" d="M368.2,126.5c.3-2.5.5-4.9.7-7.4h-23.7l3,7.4h20Z"/>
          <path class="st0" d="M368.2,126.5c.3-2.5.5-4.9.7-7.4h-23.7l3,7.4h20Z"/>
          <polygon class="st9" points="368.2 126.5 352.5 126.5 355.6 119.1 365.1 119.1 368.2 126.5"/>
          <polygon class="st5" points="368.2 126.5 352.5 126.5 355.6 119.1 365.1 119.1 368.2 126.5"/>
          <path class="st9" d="M368.2,126.5c.3-2.5.5-4.9.7-7.4h-3.8l3,7.4h0Z"/>
          <path class="st0" d="M368.2,126.5c.3-2.5.5-4.9.7-7.4h-3.8l3,7.4h0Z"/>
          <path class="st9" d="M285,178.4h5.3l-3-7.4h-11.8c3.4,2.2,6.5,4.7,9.5,7.4Z"/>
          <path class="st0" d="M285,178.4h5.3l-3-7.4h-11.8c3.4,2.2,6.5,4.7,9.5,7.4Z"/>
          <path class="st9" d="M285,178.4h1.5l-3-7.4h-8c3.4,2.2,6.5,4.7,9.5,7.4Z"/>
          <path class="st5" d="M285,178.4h1.5l-3-7.4h-8c3.4,2.2,6.5,4.7,9.5,7.4Z"/>
          <polygon class="st9" points="310.3 178.4 286.5 178.4 283.5 171 307.2 171 310.3 178.4"/>
          <polygon class="st0" points="310.3 178.4 286.5 178.4 283.5 171 307.2 171 310.3 178.4"/>
          <polygon class="st9" points="306.5 178.4 290.8 178.4 293.9 171 303.4 171 306.5 178.4"/>
          <polygon class="st5" points="306.5 178.4 290.8 178.4 293.9 171 303.4 171 306.5 178.4"/>
          <polygon class="st9" points="330.2 178.4 306.5 178.4 303.4 171 327.2 171 330.2 178.4"/>
          <polygon class="st0" points="330.2 178.4 306.5 178.4 303.4 171 327.2 171 330.2 178.4"/>
          <polygon class="st9" points="326.4 178.4 310.8 178.4 313.8 171 323.4 171 326.4 178.4"/>
          <polygon class="st5" points="326.4 178.4 310.8 178.4 313.8 171 323.4 171 326.4 178.4"/>
          <path class="st9" d="M350,178.1l-2.9-7.1h-23.8l3,7.4h23.3c.1,0,.2-.2.4-.3Z"/>
          <path class="st0" d="M350,178.1l-2.9-7.1h-23.8l3,7.4h23.3c.1,0,.2-.2.4-.3Z"/>
          <polygon class="st9" points="346.3 178.4 330.7 178.4 333.7 171 343.3 171 346.3 178.4"/>
          <polygon class="st5" points="346.3 178.4 330.7 178.4 333.7 171 343.3 171 346.3 178.4"/>
          <path class="st9" d="M349.6,178.4c2.2-2.2,4-4.7,5.4-7.4h-11.7l3,7.4h3.3Z"/>
          <path class="st0" d="M349.6,178.4c2.2-2.2,4-4.7,5.4-7.4h-11.7l3,7.4h3.3Z"/>
          <path class="st9" d="M355,171h-1.4l-2.3,5.6c1.4-1.7,2.6-3.6,3.7-5.6Z"/>
          <path class="st5" d="M355,171h-1.4l-2.3,5.6c1.4-1.7,2.6-3.6,3.7-5.6Z"/>
          <path class="st9" d="M266.6,164.4c2.8,2.4,5.9,4.5,8.9,6.6h1l-3-7.4h-7.9c.3.3.6.6,1,.8Z"/>
          <path class="st0" d="M266.6,164.4c2.8,2.4,5.9,4.5,8.9,6.6h1l-3-7.4h-7.9c.3.3.6.6,1,.8Z"/>
          <path class="st9" d="M266.6,164.4c1.6,1.4,3.3,2.6,5,3.8l-1.9-4.7h-4.1c.3.3.6.6,1,.9Z"/>
          <path class="st5" d="M266.6,164.4c1.6,1.4,3.3,2.6,5,3.8l-1.9-4.7h-4.1c.3.3.6.6,1,.9Z"/>
          <path class="st9" d="M275.5,171h20.9l-3-7.4h-23.7l1.9,4.7c1.3.9,2.6,1.8,3.9,2.7Z"/>
          <path class="st0" d="M275.5,171h20.9l-3-7.4h-23.7l1.9,4.7c1.3.9,2.6,1.8,3.9,2.7Z"/>
          <polygon class="st9" points="292.6 171 277 171 280 163.6 289.6 163.6 292.6 171"/>
          <polygon class="st5" points="292.6 171 277 171 280 163.6 289.6 163.6 292.6 171"/>
          <polygon class="st9" points="316.3 171 292.6 171 289.6 163.6 313.3 163.6 316.3 171"/>
          <polygon class="st0" points="316.3 171 292.6 171 289.6 163.6 313.3 163.6 316.3 171"/>
          <polygon class="st9" points="312.5 171 296.9 171 299.9 163.6 309.5 163.6 312.5 171"/>
          <polygon class="st5" points="312.5 171 296.9 171 299.9 163.6 309.5 163.6 312.5 171"/>
          <polygon class="st9" points="336.3 171 312.5 171 309.5 163.6 333.2 163.6 336.3 171"/>
          <polygon class="st0" points="336.3 171 312.5 171 309.5 163.6 333.2 163.6 336.3 171"/>
          <polygon class="st9" points="332.5 171 316.8 171 319.9 163.6 329.4 163.6 332.5 171"/>
          <polygon class="st5" points="332.5 171 316.8 171 319.9 163.6 329.4 163.6 332.5 171"/>
          <path class="st9" d="M355.7,169.7l-2.5-6.1h-23.7l3,7.4h22.5c.2-.4.4-.9.7-1.3Z"/>
          <path class="st0" d="M355.7,169.7l-2.5-6.1h-23.7l3,7.4h22.5c.2-.4.4-.9.7-1.3Z"/>
          <polygon class="st9" points="352.4 171 336.8 171 339.8 163.6 349.4 163.6 352.4 171"/>
          <polygon class="st5" points="352.4 171 336.8 171 339.8 163.6 349.4 163.6 352.4 171"/>
          <path class="st9" d="M355,171c1.2-2.4,2.3-4.9,3.2-7.4h-8.9l3,7.4h2.6Z"/>
          <path class="st0" d="M355,171c1.2-2.4,2.3-4.9,3.2-7.4h-8.9l3,7.4h2.6Z"/>
          <path class="st9" d="M265.6,163.6h16.1l-3-7.4h-20.2c2.2,2.7,4.5,5.1,7.1,7.4Z"/>
          <path class="st0" d="M265.6,163.6h16.1l-3-7.4h-20.2c2.2,2.7,4.5,5.1,7.1,7.4Z"/>
          <path class="st9" d="M265.6,163.6h12.3l-3-7.4h-9.6l-2.1,5.2c.8.8,1.6,1.5,2.4,2.2Z"/>
          <path class="st5" d="M265.6,163.6h12.3l-3-7.4h-9.6l-2.1,5.2c.8.8,1.6,1.5,2.4,2.2Z"/>
          <polygon class="st9" points="301.6 163.6 277.9 163.6 274.9 156.1 298.6 156.1 301.6 163.6"/>
          <polygon class="st0" points="301.6 163.6 277.9 163.6 274.9 156.1 298.6 156.1 301.6 163.6"/>
          <polygon class="st9" points="297.8 163.6 282.2 163.6 285.2 156.1 294.8 156.1 297.8 163.6"/>
          <polygon class="st5" points="297.8 163.6 282.2 163.6 285.2 156.1 294.8 156.1 297.8 163.6"/>
          <polygon class="st9" points="321.6 163.6 297.8 163.6 294.8 156.1 318.5 156.1 321.6 163.6"/>
          <polygon class="st0" points="321.6 163.6 297.8 163.6 294.8 156.1 318.5 156.1 321.6 163.6"/>
          <polygon class="st9" points="317.8 163.6 302.1 163.6 305.2 156.1 314.7 156.1 317.8 163.6"/>
          <polygon class="st5" points="317.8 163.6 302.1 163.6 305.2 156.1 314.7 156.1 317.8 163.6"/>
          <polygon class="st9" points="341.5 163.6 317.8 163.6 314.7 156.1 338.5 156.1 341.5 163.6"/>
          <polygon class="st0" points="341.5 163.6 317.8 163.6 314.7 156.1 338.5 156.1 341.5 163.6"/>
          <polygon class="st9" points="337.7 163.6 322.1 163.6 325.1 156.1 334.7 156.1 337.7 163.6"/>
          <polygon class="st5" points="337.7 163.6 322.1 163.6 325.1 156.1 334.7 156.1 337.7 163.6"/>
          <path class="st9" d="M359.7,159.5l-1.3-3.3h-23.7l3,7.4h20.6c.5-1.4,1-2.8,1.5-4.1Z"/>
          <path class="st0" d="M359.7,159.5l-1.3-3.3h-23.7l3,7.4h20.6c.5-1.4,1-2.8,1.5-4.1Z"/>
          <polygon class="st9" points="357.6 163.6 342 163.6 345 156.1 354.6 156.1 357.6 163.6"/>
          <polygon class="st5" points="357.6 163.6 342 163.6 345 156.1 354.6 156.1 357.6 163.6"/>
          <path class="st9" d="M358.2,163.6c1-2.6,1.8-5.1,2.6-7.3,0,0,0,0,0-.1h-6.3l3,7.4h.6Z"/>
          <path class="st0" d="M358.2,163.6c1-2.6,1.8-5.1,2.6-7.3,0,0,0,0,0-.1h-6.3l3,7.4h.6Z"/>
          <path class="st9" d="M258.5,156.1h5.6l-3-7.4h-7.8c1.6,2.6,3.3,5.1,5.2,7.4Z"/>
          <path class="st5" d="M258.5,156.1h5.6l-3-7.4h-7.8c1.6,2.6,3.3,5.1,5.2,7.4Z"/>
          <polygon class="st9" points="287.8 156.1 264.1 156.1 261 148.7 284.8 148.7 287.8 156.1"/>
          <polygon class="st0" points="287.8 156.1 264.1 156.1 261 148.7 284.8 148.7 287.8 156.1"/>
          <polygon class="st9" points="284 156.1 268.4 156.1 271.4 148.7 281 148.7 284 156.1"/>
          <polygon class="st5" points="284 156.1 268.4 156.1 271.4 148.7 281 148.7 284 156.1"/>
          <polygon class="st9" points="307.7 156.1 284 156.1 281 148.7 304.7 148.7 307.7 156.1"/>
          <polygon class="st0" points="307.7 156.1 284 156.1 281 148.7 304.7 148.7 307.7 156.1"/>
          <polygon class="st9" points="303.9 156.1 288.3 156.1 291.3 148.7 300.9 148.7 303.9 156.1"/>
          <polygon class="st5" points="303.9 156.1 288.3 156.1 291.3 148.7 300.9 148.7 303.9 156.1"/>
          <polygon class="st9" points="327.6 156.1 303.9 156.1 300.9 148.7 324.6 148.7 327.6 156.1"/>
          <polygon class="st0" points="327.6 156.1 303.9 156.1 300.9 148.7 324.6 148.7 327.6 156.1"/>
          <polygon class="st9" points="323.8 156.1 308.2 156.1 311.2 148.7 320.8 148.7 323.8 156.1"/>
          <polygon class="st5" points="323.8 156.1 308.2 156.1 311.2 148.7 320.8 148.7 323.8 156.1"/>
          <polygon class="st9" points="347.6 156.1 323.8 156.1 320.8 148.7 344.5 148.7 347.6 156.1"/>
          <polygon class="st0" points="347.6 156.1 323.8 156.1 320.8 148.7 344.5 148.7 347.6 156.1"/>
          <polygon class="st9" points="343.8 156.1 328.1 156.1 331.2 148.7 340.7 148.7 343.8 156.1"/>
          <polygon class="st5" points="343.8 156.1 328.1 156.1 331.2 148.7 340.7 148.7 343.8 156.1"/>
          <path class="st9" d="M360.9,156.1c.9-2.5,1.7-4.9,2.5-7.4h-22.7l3,7.4h17.1Z"/>
          <path class="st0" d="M360.9,156.1c.9-2.5,1.7-4.9,2.5-7.4h-22.7l3,7.4h17.1Z"/>
          <path class="st9" d="M362.2,152.5l-1.5-3.8h-9.6l-3,7.4h12.8c.5-1.2.9-2.4,1.3-3.6Z"/>
          <path class="st5" d="M362.2,152.5l-1.5-3.8h-9.6l-3,7.4h12.8c.5-1.2.9-2.4,1.3-3.6Z"/>
          <path class="st9" d="M363.4,148.7h-2.8l1.5,3.8c.4-1.2.8-2.5,1.2-3.8Z"/>
          <path class="st0" d="M363.4,148.7h-2.8l1.5,3.8c.4-1.2.8-2.5,1.2-3.8Z"/>
        </g>
        <path class="st9" d="M318.2,30.6c-44.8,0-81.1,36.3-81.1,81.1s36.3,81.1,81.1,81.1,81.1-36.3,81.1-81.1h0c0-44.8-36.3-81.1-81.1-81.1ZM318,178c-36.7,0-66.4-29.7-66.4-66.4s29.7-66.4,66.4-66.4c36.7,0,66.4,29.7,66.4,66.4s-29.7,66.4-66.4,66.4h0Z"/>
        <path class="st4" d="M318.2,188.6c42.4,0,76.9-34.5,76.9-76.9s-34.5-76.9-76.9-76.9-76.9,34.5-76.9,76.9,34.5,76.9,76.9,76.9ZM318.2,35.3c42.1,0,76.3,34.2,76.3,76.3,0,42.1-34.2,76.3-76.3,76.3s-76.3-34.2-76.3-76.3,34.2-76.4,76.3-76.4h0Z"/>
      </g>
      <g id="freepik--safe-door--inject-133">
        <path class="st9" d="M354.4,190.1c-18.8-2.8-33-37.9-33-78.5s14.2-75.6,33-78.5l17.5-2.6v162.2l-17.5-2.6Z"/>
        <path class="st0" d="M354.4,190.1c-18.8-2.8-33-37.9-33-78.5s14.2-75.6,33-78.5l17.5-2.6v162.2l-17.5-2.6Z"/>
        <ellipse class="st9" cx="371.9" cy="111.7" rx="30.6" ry="81.1"/>
        <path class="st5" d="M377.5,71.4c-9.4,0-17,18-17,40.2s7.6,40.2,17,40.2,17-18,17-40.2-7.6-40.2-17-40.2ZM391,111.7c0,6.4-1,12.2-2.7,16.6l-4.9-16.9,4.8-16.5c1.8,4.4,2.8,10.3,2.8,16.9h0ZM380.7,87.2c2.1,0,4,1.4,5.6,3.9l-4.4,15.2-5.1-17.4c1-1.1,2.4-1.7,3.9-1.8h0ZM370.4,111.7c0-8.3,1.7-15.6,4.4-20l5.7,19.7-5.8,20.2c-2.6-4.4-4.3-11.7-4.3-19.8h0ZM380.7,136.2c-1.5,0-2.9-.8-3.9-1.9l5.2-17.9,4.5,15.6c-1.6,2.6-3.6,4.2-5.7,4.2h0Z"/>
        <path class="st4" d="M372.7,190.7c-13.8,0-28.6-31.8-28.6-79s14.8-79,28.6-79,28.6,31.8,28.6,79-14.8,79-28.6,79ZM372.7,33.2c-13.5,0-28,31.5-28,78.5s14.4,78.5,28,78.5,28-31.5,28-78.5-14.5-78.5-28-78.5Z"/>
      </g>
    </g>
    <g id="freepik--Character--inject-284">
      <path class="st9" d="M226.1,143.2c-7.9,37.1-12.1,74.9-12.5,112.8-.7,62.7,6.1,95.4,6.1,95.4h12.8s4.5-52.7,3.7-80.1c0-2.5-.2-4.8-.4-6.8-.7-6.8-.3-13.8,1-20.5h0l6.4-32.8h0c1-5.1,2.6-10.2,4.6-15,.2-.4.4-.9.6-1.4,4.1-10,9.9-29.5,6.1-51.7h-28.2Z"/>
      <path class="st1" d="M248.3,194.9c3.2-8,5.4-16.3,6.5-24.8-1.4-5.9-3.3-19.4-5.9-13.6-4.9,10.7-4.5,39-4,47.5.8-2.6,1.8-5.2,2.9-7.7.1-.4.3-.9.5-1.4Z"/>
      <path class="st11" d="M223.1,352.1h9.5c.4,0,.8.3.9.7l2,9c.2.8-.2,1.5-1,1.8,0,0,0,0,0,0h-.3c-4,0-7.5-.3-12.4-.3s-4.3.7-11.2.8c-4.1,0-4.9-4.7-3.1-4.9,8-1,10.3-3.4,13.4-6.3.7-.5,1.5-.8,2.4-.7Z"/>
      <polygon class="st9" points="217.5 348.1 219 353.2 234 353.2 234.5 348.1 217.5 348.1"/>
      <polygon class="st8" points="217.5 348.1 219 353.2 234 353.2 234.5 348.1 217.5 348.1"/>
      <path class="st9" d="M246.6,143.2s1.9,89.8,25.2,208.3l13.1-.3s-2.4-66.6-6.1-93.9c-.1-1-.3-2-.4-2.9-1.1-6.8-1.5-13.7-1.3-20.6v-.6l1.8-45.9c0-14.8-1.2-29.6-4-44.2h-28.4Z"/>
      <path class="st11" d="M274.9,352.1h9.5c.4,0,.8.3.9.7l2,9c.2.8-.2,1.5-1,1.8,0,0,0,0,0,0h-.3c-4,0-7.5-.3-12.4-.3s-4.3.7-11.2.8c-4.1,0-4.9-4.7-3.1-4.9,8-1,10.3-3.4,13.5-6.3.7-.5,1.5-.8,2.4-.7Z"/>
      <path class="st9" d="M218.1,76.4h-5.9c-1.3,0-2.3-1-2.4-2.2l-1.4-16.9c-.1-1.1.7-2.1,1.8-2.2,0,0,.2,0,.3,0h5.9c1.3,0,2.3,1,2.4,2.2l1.4,16.9c.1,1.1-.7,2.1-1.8,2.2,0,0-.2,0-.2,0Z"/>
      <path class="st11" d="M217.4,76.4h-5.9c-1.3,0-2.3-1-2.4-2.2l-1.4-16.9c-.1-1.1.7-2.1,1.8-2.2,0,0,.2,0,.3,0h5.9c1.3,0,2.3,1,2.4,2.2l1.4,16.9c.1,1.1-.7,2.1-1.8,2.2,0,0-.2,0-.3,0Z"/>
      <path class="st6" d="M211.3,57.4c0,.6-.4,1.2-1,1.3,0,0-.1,0-.2,0-.7,0-1.4-.6-1.4-1.3,0-.7.4-1.2,1.1-1.3,0,0,0,0,.1,0,.7,0,1.4.6,1.4,1.3Z"/>
      <path class="st0" d="M210.6,57.4c0,.3-.2.6-.5.6,0,0,0,0,0,0-.3,0-.6-.3-.6-.6,0-.3.2-.6.5-.6,0,0,0,0,0,0,.3,0,.6.3.6.6Z"/>
      <path class="st11" d="M230.7,70.6c-.1-.5-.6-.9-1.1-.8-.2,0-.4.1-.5.3-4.8,5.4-8.7,11.5-11.6,18.1-5.9,13-23.9,19-18.5,27.3s27.3-15.1,31.5-21.5c3.3-5.2,1.2-18.6.3-23.5Z"/>
      <path class="st2" d="M210.7,113.7c2.3-5.6,2.8-11.8,1.3-17.6-2.8,3-5.9,5.6-8.5,8l-3.9,7.6c0,1.6,0,3.2.3,4.8,2.3,1.8,6.4.2,10.8-2.8Z"/>
      <path class="st2" d="M231.5,75.6l-3.1-1s-4.6,9.6-7.2,29.9c3.3-3.2,6.3-6.7,9-10.5,2.5-3.9,2-12.4,1.2-18.5Z"/>
      <path class="st9" d="M229.4,71c-1.8,5.1-3.9,19.7-3.9,53.2,0,7.2-1.1,24.3-1.1,24.3h52.5l7.4-77.1c.1-1.3-.8-2.5-2.1-2.6,0,0-.2,0-.3,0h-49.2c-1.4,0-2.7.9-3.2,2.2Z"/>
      <path class="st8" d="M229.4,71c-1.8,5.1-3.9,19.7-3.9,53.2,0,7.2-1.1,24.3-1.1,24.3h52.5l7.4-77.1c.1-1.3-.8-2.5-2.1-2.6,0,0-.2,0-.3,0h-49.2c-1.4,0-2.7.9-3.2,2.2Z"/>
      <path class="st11" d="M255.1,66.7c-1.6.2-3.2.2-4.7.1h-1.5c-4.3,0-10.7,1.3-9.5,10.2,1.2-1.3,3.3-1.6,4.8-.6,0,0,2.2,7.6,3.9,9.8,0,0,9-6,11.7-8.2,2.7-2.2,6.6,1.6,6.6,1.6,0,0,8.6-14-8.8-13.1-.7,0-1.5,0-2.4.1Z"/>
      <path class="st14" d="M254.1,67.8c-4.7.5-14.8-3-6.1,17.4,0,0,33.4-20.5,6.1-17.4Z"/>
      <path class="st1" d="M280.9,78l-3,2.5c-1.4,10.2-.5,20.5,2.6,30.3h0l2.8-28.9-2.4-3.9Z"/>
      <path class="st1" d="M280.2,70.4s-5.1,3.3-4.6,16.7c0,0-5.1-12.5,4.6-16.7Z"/>
      <path class="st1" d="M231.8,70.7s-5,10.3-3.4,28.5l3.4-28.5Z"/>
      <path class="st14" d="M259.6,47.2c.3,7.7,1.8,15.3,4.5,22.6,0,0-9.1,7.4-15.6,1.4,1.5-3.5,1.5-7.3.2-10.8-2.2-5.9,11-13.2,11-13.2Z"/>
      <path class="st1" d="M259.5,52.4h-3.7l-7.5,6.2c0,.6,0,1.3.2,1.9.8,2,1.1,4.1.9,6.3,10.6-1.3,10-14.3,10-14.3Z"/>
      <path class="st11" d="M234.6,32.2c-5.1,3.3-3.6,11.6,1.7,15.1,1.5-9.5-1.7-15.1-1.7-15.1Z"/>
      <path class="st7" d="M234.6,32.2c-5.1,3.3-3.6,11.6,1.7,15.1,1.5-9.5-1.7-15.1-1.7-15.1Z"/>
      <path class="st14" d="M258.1,37.6c1.9,8.8,3.5,13.8.5,19.6-2.9,5.7-9.9,8-15.6,5.1,0,0,0,0,0,0-2.1-1.1-3.8-2.8-5-4.9-4-7.2-6.5-20.3.8-26.4,4.9-4.3,12.3-3.8,16.6,1.1,0,0,0,0,0,0,1.4,1.6,2.3,3.4,2.8,5.5Z"/>
      <path class="st11" d="M245.9,44.2c.2.7,0,1.4-.5,1.4s-1-.3-1.2-1,0-1.4.5-1.4,1,.3,1.2,1Z"/>
      <path class="st11" d="M238.1,46.7c.2.7,0,1.4-.5,1.4s-1-.3-1.2-1,0-1.4.5-1.5,1,.4,1.2,1.1Z"/>
      <path class="st15" d="M240.6,46.3c-.2,2.4-.8,4.8-1.6,7.1,1.2.4,2.4.2,3.5-.4l-1.9-6.7Z"/>
      <path class="st11" d="M247.6,40.9c0,0,.1,0,.2,0,.2-.2.2-.4,0-.6h0c-1.1-.9-2.5-1.1-3.8-.7-.2,0-.3.3-.2.5h0c0,.2.3.3.5.2h0c1-.3,2.1-.1,3,.5.1,0,.2,0,.4,0Z"/>
      <path class="st11" d="M233.9,45.1c.1,0,.2-.2.2-.3.1-1.1.8-2.1,1.8-2.6.2-.1.3-.4.2-.6-.1-.2-.3-.3-.5-.2h0c-1.2.7-2,1.9-2.2,3.2,0,.2.1.4.3.5,0,0,0,0,0,0h0c0,0,.2,0,.2,0Z"/>
      <path class="st11" d="M246,56c-.4.1-.8.2-1.2.2-.1,0-.2,0-.3-.2,0,0,0,0,0,0h0c0-.1,0-.3.2-.3,0,0,0,0,0,0,2.1-.2,4-1.4,5.1-3.3,0-.1.2-.2.3-.1,0,0,0,0,0,0,.1,0,.2.2.1.3-.9,1.6-2.4,2.8-4.2,3.3Z"/>
      <path class="st11" d="M259.5,27s9.9,3,.7,27.8l-2.2-9.7s-5.1,1.4-6.4-11.5l7.9-6.6Z"/>
      <path class="st7" d="M259.5,27s9.9,3,.7,27.8l-2.2-9.7s-5.1,1.4-6.4-11.5l7.9-6.6Z"/>
      <path class="st14" d="M263.4,43.9c0,2-.8,3.9-2.2,5.4-1.8,1.9-3.9.5-4.4-2-.4-2.2,0-5.9,2.3-6.8s4.3,1,4.3,3.5Z"/>
      <path class="st11" d="M251,36c-5.6,4.3-19,3.4-22.8-1.9-4.2-5.8,2.1-10.8,7.8-12.5,1.5-.4,3.1.6,3.5,2.1,0,0,0,0,0,.1,0,.3.2.5.4.7,1.2-1.1,2.5-2,3.9-2.7,2-1,4.4-.6,5.9,1,.7.6,2.3.7,5.5-.4,6.7-2.3,7.7,4.6,4.6,6.5-2.4,1.5-6.6,5.4-8.9,7.2Z"/>
      <path class="st14" d="M280.9,143.2l-6,8.6c-1.6-.4-3.3-.7-5-.9-1.1.2-2.2.5-3.3.9l9.8,9.7,10.1-14.1-5.7-4.2Z"/>
      <path class="st11" d="M282.9,70c.7-.6,1.7-.5,2.2.2,0,.1.2.2.2.3,3.6,7.8,17.9,39.3,16,52-2.1,14.5-17.7,31.3-17.7,31.3l-7-6s11.4-19.4,11.4-29.4-4-14.1-6.4-20.7-7.8-20,1.2-27.8Z"/>
      <path class="st14" d="M204,96.5l5.2-9.6c-1.3-1.7-2.3-3.6-3.2-5.6-.5-2.1.5-8.7.5-8.7,0-1.1.9-2,2-2.1l4.1-.4c1.2-.1,2.3.8,2.5,2,0,0,0,0,0,0,0,0,1.6,9.5,1.2,12.7-.6,4.1-6,15.3-6,15.3l-6.3-3.7Z"/>
      <path class="st11" d="M205.6,91.3l8,2.9s-5.4,26.5-13.5,23.1,5.5-25.9,5.5-25.9Z"/>
      <polygon class="st9" points="269.4 348 270.9 353.1 285.9 353.1 286.4 348 269.4 348"/>
      <polygon class="st8" points="269.4 348 270.9 353.1 285.9 353.1 286.4 348 269.4 348"/>
    </g>
  </g>
  <path class="st9" d="M504.5,130l-.5,1.9c.5.1,2.2.7,2.5-.4.3-1.1-1.5-1.4-2-1.5Z"/>
  <path class="st9" d="M503.7,132.9l-.5,2.1c.7.2,2.7.8,3-.4.3-1.2-1.8-1.6-2.4-1.7Z"/>
  <circle class="st13" cx="114.9" cy="137.1" r="4.9"/>
  <path class="st9" d="M506.6,124.3c-4.7-1.2-9.5,1.7-10.7,6.4-1.2,4.7,1.7,9.5,6.4,10.7,4.7,1.2,9.5-1.7,10.7-6.4,1.2-4.7-1.7-9.5-6.4-10.7,0,0,0,0,0,0ZM508.4,131.5c-.1.9-.6,1.3-1.2,1.4.9.5,1.3,1.1.9,2.3-.5,1.5-1.8,1.6-3.4,1.3l-.4,1.6-1-.2.4-1.6c-.3,0-.5-.1-.8-.2l-.4,1.6-1-.2.4-1.6c-.2,0-.5-.1-.7-.2l-1.3-.3.5-1.1s.7.2.7.2c.2,0,.4,0,.4-.2h0s.6-2.5.6-2.5c0,0,0,0,.1,0,0,0,0,0-.1,0l.4-1.8c0-.3-.2-.5-.4-.6,0,0-.7-.2-.7-.2l.3-1,1.3.3h0c.2,0,.4.1.6.1l.4-1.6,1,.2-.4,1.6c.3,0,.5.1.8.2l.4-1.5,1,.2-.4,1.6c1.2.4,2.1,1,1.9,2.2h0Z"/>
  <g>
    <path class="st9" d="M114.6,134.2l-.5,1.9c.5.1,2.2.7,2.5-.4.3-1.1-1.5-1.4-2-1.5Z"/>
    <path class="st9" d="M113.9,137.1l-.5,2.1c.7.2,2.7.8,3-.4.3-1.2-1.8-1.6-2.4-1.7Z"/>
    <path class="st9" d="M116.7,128.4c-4.7-1.2-9.5,1.7-10.7,6.4-1.2,4.7,1.7,9.5,6.4,10.7,4.7,1.2,9.5-1.7,10.7-6.4,1.2-4.7-1.7-9.5-6.4-10.7,0,0,0,0,0,0ZM118.5,135.7c-.1.9-.6,1.3-1.2,1.4.9.5,1.3,1.1.9,2.3-.5,1.5-1.8,1.6-3.4,1.3l-.4,1.6-1-.2.4-1.6c-.3,0-.5-.1-.8-.2l-.4,1.6-1-.2.4-1.6c-.2,0-.5-.1-.7-.2l-1.3-.3.5-1.1s.7.2.7.2c.2,0,.4,0,.4-.2h0s.6-2.5.6-2.5c0,0,0,0,.1,0,0,0,0,0-.1,0l.4-1.8c0-.3-.2-.5-.4-.6,0,0-.7-.2-.7-.2l.3-1,1.3.3h0c.2,0,.4.1.6.1l.4-1.6,1,.2-.4,1.6c.3,0,.5.1.8.2l.4-1.5,1,.2-.4,1.6c1.2.4,2.1,1,1.9,2.2h0Z"/>
  </g>
  <path class="st9" d="M415.9,205.5l-.5,1.9c.5.1,2.2.7,2.5-.4.3-1.1-1.5-1.4-2-1.5Z"/>
  <path class="st9" d="M415.2,208.4l-.5,2.1c.7.2,2.7.8,3-.4.3-1.2-1.8-1.6-2.4-1.7Z"/>
  <path class="st9" d="M418.1,199.8c-4.7-1.2-9.5,1.7-10.7,6.4-1.2,4.7,1.7,9.5,6.4,10.7,4.7,1.2,9.5-1.7,10.7-6.4,1.2-4.7-1.7-9.5-6.4-10.7,0,0,0,0,0,0ZM419.8,207.1c-.1.9-.6,1.3-1.2,1.4.9.5,1.3,1.1.9,2.3-.5,1.5-1.8,1.6-3.4,1.3l-.4,1.6-1-.2.4-1.6c-.3,0-.5-.1-.8-.2l-.4,1.6-1-.2.4-1.6c-.2,0-.5-.1-.7-.2l-1.3-.3.5-1.1s.7.2.7.2c.2,0,.4,0,.4-.2h0s.6-2.5.6-2.5c0,0,0,0,.1,0,0,0,0,0-.1,0l.4-1.8c0-.3-.2-.5-.4-.6,0,0-.7-.2-.7-.2l.3-1,1.3.3h0c.2,0,.4.1.6.1l.4-1.6,1,.2-.4,1.6c.3,0,.5.1.8.2l.4-1.5,1,.2-.4,1.6c1.2.4,2.1,1,1.9,2.2h0Z"/>
</svg>