<?xml version="1.0" encoding="UTF-8"?>
<svg id="Layer_1" xmlns="http://www.w3.org/2000/svg" version="1.1" viewBox="0 0 600 225">
  <!-- Generator: Adobe Illustrator 29.8.2, SVG Export Plug-In . SVG Version: 2.1.1 Build 3)  -->
  <defs>
    <style>
      .st0 {
        fill: #b55b52;
      }

      .st1 {
        opacity: .3;
      }

      .st1, .st2, .st3, .st4, .st5 {
        isolation: isolate;
      }

      .st2 {
        opacity: .4;
      }

      .st3, .st4 {
        opacity: .2;
      }

      .st6, .st4 {
        fill: #ff603b;
      }

      .st7 {
        fill: #ed847e;
      }

      .st8 {
        fill: #263238;
      }

      .st9, .st5 {
        fill: #fff;
      }

      .st10 {
        fill: #ffc3bd;
      }

      .st11 {
        fill: #a02724;
      }

      .st5 {
        opacity: .5;
      }
    </style>
  </defs>
  <g id="freepik--character-1--inject-379">
    <path class="st8" d="M158.8,38.6c.3-3.5,15.3-16.4,31-7.4,15.7,9,4.3,36.1,21.4,38.8-11,11-47,24.5-58.1,11.9-11.1-12.7-12.5-48.2,5.7-43.3Z"/>
    <path class="st10" d="M222,126.1c.4,5.8,1,12,1.8,17.9.7,5.8,1.9,11.6,3.5,17.2.2.7.4,1.3.6,2l.6,1.7c.1.4.3.7.5,1,.4.5,2.5,1,4.9.7,5.6-1,11.1-2.7,16.2-5.2l4,5.9c-1.3,1.1-2.6,2.2-4,3.2-1.4,1-2.7,1.9-4.2,2.8-3,1.9-6.3,3.3-9.8,4.3-2,.6-4,.9-6.1.9-2.6,0-5.1-.6-7.3-1.8-2.4-1.3-4.5-3.4-5.8-5.8l-.4-.8-.3-.6-.6-1.2c-.4-.8-.7-1.6-1-2.4-2.4-6.3-4.1-12.8-5.2-19.4-1.1-6.4-1.8-12.9-2.1-19.5l14.4-.7Z"/>
    <path class="st6" d="M214.3,110.5c12.8,9.8,12.3,28.3,12.3,28.3l-22.9,5.5s-7-18.6-4.2-25.4c3-7.1,7.6-13.9,14.8-8.4Z"/>
    <path class="st10" d="M249.1,162.8l8.4-8.4,4.5,13.2s-7.1,3.8-13.9.2l1-5Z"/>
    <polygon class="st10" points="269.2 153.1 270.7 163.5 262 167.5 257.5 154.3 269.2 153.1"/>
    <polygon class="st10" points="140.2 458.8 153 460 166.4 429.4 153.6 428.1 140.2 458.8"/>
    <polygon class="st10" points="57.2 413.5 66.9 422.5 87.8 399.6 78.1 390.5 57.2 413.5"/>
    <path class="st8" d="M71.4,418.2l-7.3-13.1c-.3-.5-.8-.7-1.3-.5l-11.2,4.3c-1.1.5-1.6,1.7-1.1,2.8,0,0,0,.1,0,.2,2.6,4.5,4.1,6.6,7.3,12.3,2,3.5,5.8,11.7,8.5,16.6s7.7,2.5,7,.2c-3.2-10.2-2.5-15.9-1.6-20.4.1-.8,0-1.6-.4-2.4Z"/>
    <path class="st8" d="M154.7,456h-15.8c-.6,0-1.1.4-1.2,1l-3.5,12.5c-.3,1,.3,2.1,1.3,2.4.2,0,.4,0,.6,0h36.4c5.8,0,7-5.8,4.6-6.3-10.7-2.4-16.9-5.6-20.2-8.8-.6-.6-1.4-.9-2.2-.9Z"/>
    <polygon class="st3" points="166.4 429.4 159.5 445.2 146.1 445.2 153.5 428.1 166.4 429.4"/>
    <polygon class="st3" points="78.1 390.5 87.8 399.6 77 411.4 67.4 402.3 78.1 390.5"/>
    <path class="st6" d="M210.5,108.5s5.8,2.5-13.6,79.4l-53.9-4.7c2.8-21.9,4-35.4-2.6-81.4,7.7-.9,15.4-1.3,23.2-1,8.2.1,16.4.8,24.5,2.1,7.6,1.5,15.1,3.3,22.5,5.6Z"/>
    <path class="st9" d="M173.1,128.1s0,0-.1,0c-11.7-9.6-18.9-24.4-16.6-27.9,0-.1.2-.1.3,0,.1,0,.1.2,0,.3-2.1,3.3,5.1,17.8,16.3,27.1,2.8-8.5,7.6-11.9,7.6-11.9.1,0,.3,0,.3.1,0,0,0,.2,0,.3,0,0-4.8,3.4-7.6,12,0,0,0,.1-.1.1h0Z"/>
    <path class="st9" d="M191.8,128.6h0c0,0-.1,0-.2-.2-2.4-8.8-7.3-12.3-7.4-12.3,0,0,0-.2,0-.3,0,0,.2,0,.3,0,0,0,4.9,3.5,7.4,12.2,5.9-7.2,2.5-20.8.3-24.3,0-.1,0-.2,0-.3,0,0,.2,0,.3,0,2.4,3.6,5.8,17.9-.6,25.3,0,0-.2,0-.3,0Z"/>
    <path class="st10" d="M168.3,73.5c.9,8,1.2,22.6-4.8,27.4,5.8,5.4,12.3,10,19.3,13.7,9.4-6.5,5.2-11.6,5.2-11.6-8.6-2.9-7.9-9.3-5.7-15.3l-13.9-14.1Z"/>
    <path class="st3" d="M174,79.3l8.2,8.4c-.5,1.4-.9,2.8-1.1,4.3-3.3-.8-8.1-4.2-8.2-7.8,0-1.7.4-3.3,1.1-4.9Z"/>
    <path class="st10" d="M161.2,61c3.3,12.8,4.5,18.3,12.3,23.7,11.8,8.1,26.8,1.2,27.4-12.4.5-12.2-5.1-31.1-18.8-33.7-9.8-1.9-19.3,4.4-21.2,14.2-.5,2.7-.4,5.6.3,8.3Z"/>
    <path class="st8" d="M164.9,70.6c4.3,6.3,15.7-31.3,1-30.1s-12.9,17.1-1,30.1Z"/>
    <path class="st8" d="M166.8,42.6c8.5,4.3,33.1,9.5,29.8,2.6-3.8-7-11.1-11.4-19-11.4-8-.1-18.2,5-10.7,8.8Z"/>
    <path class="st10" d="M160.2,71.8c1.2,2.3,3.2,4,5.7,4.7,3.3,1,4.9-1.9,4.1-5-.8-2.8-3.4-6.7-6.6-6.3-2.4.3-4,2.5-3.7,4.9,0,.6.3,1.2.6,1.7Z"/>
    <path class="st8" d="M196.8,187.9s18.2,80.7,6.1,137.6c-8.2,38.1-37.6,115.1-37.6,115.1l-23-.6s22.3-80.8,26.8-112.6c7.9-54.3-11.8-143-11.8-143l39.5,3.4Z"/>
    <path class="st3" d="M175.8,204.2l-11.5,18.2c3.5,21.5,5.7,43.2,6.6,65,16.2-28.9,8.5-67.7,4.9-83.1Z"/>
    <polygon class="st6" points="168.6 441.8 140.2 441.1 141.8 432.3 170.8 433.7 168.6 441.8"/>
    <path class="st8" d="M185.1,187.1s-10.7,85.6-33.9,132.3c-18.7,37.8-68.7,91.5-68.7,91.5l-12.8-13.2s33.8-58.4,47.7-83.5c34.2-61.5,6.3-108.4,25.6-131l42.1,3.9Z"/>
    <polygon class="st6" points="83.7 412.6 67.2 396.5 72.7 389.1 90.2 406.5 83.7 412.6"/>
    <path class="st6" d="M142.4,180l-2.8,4.6c-.2.4.2.8.8.8l56.6,4.9c.5,0,.9-.2,1-.5l.9-4.7c0-.3-.3-.6-.9-.7l-54.6-4.7c-.3,0-.7,0-.9.3Z"/>
    <path class="st1" d="M142.4,180l-2.8,4.6c-.2.4.2.8.8.8l56.6,4.9c.5,0,.9-.2,1-.5l.9-4.7c0-.3-.3-.6-.9-.7l-54.6-4.7c-.3,0-.7,0-.9.3Z"/>
    <path class="st8" d="M149.2,186.8h-1.5c-.3-.1-.5-.3-.5-.5l1.2-6.2c0-.2.3-.3.6-.3h1.5c.3.1.5.3.5.5l-1.2,6.2c0,.1-.3.3-.6.3Z"/>
    <path class="st8" d="M192.8,190.5h-1.5c-.3-.1-.5-.3-.5-.5l1.2-6.2c0-.2.3-.3.6-.3h1.5c.3.1.5.3.5.5l-1.2,6.2c0,.2-.3.3-.6.3Z"/>
    <path class="st8" d="M171,188.6h-1.5c-.3-.1-.5-.3-.5-.5l1.2-6.2c0-.2.3-.3.6-.3h1.5c.3.1.5.3.5.5l-1.2,6.2c-.1.2-.4.3-.6.3Z"/>
    <path class="st8" d="M182.9,60.5c.2,1.1.9,1.8,1.6,1.7s1.1-1.1.9-2.1-.9-1.8-1.6-1.7-1.1,1.1-.9,2.2Z"/>
    <path class="st8" d="M194.8,58.2c.2,1.1.9,1.8,1.6,1.7s1.1-1.1.9-2.2-.9-1.8-1.6-1.7-1.1,1.1-.9,2.1Z"/>
    <path class="st8" d="M195.4,56.2l2.4-1.2s-.9,2.2-2.4,1.2Z"/>
    <path class="st7" d="M190.7,60.8c1.4,2.2,3.1,4.2,5.1,6-.9,1-2.3,1.5-3.6,1.4l-1.4-7.4Z"/>
    <path class="st8" d="M187.3,73.3c-2.2,0-4.4-.8-6-2.3-.1-.1-.1-.3,0-.4,0-.1.3-.1.4,0,0,0,0,0,0,0,2.1,1.8,4.8,2.5,7.5,1.9.1,0,.3,0,.3.2,0,.1,0,.3-.2.3,0,0,0,0,0,0-.6.1-1.3.2-2,.2Z"/>
    <path class="st8" d="M175.8,56.5c0,0-.2,0-.3,0-.2-.1-.3-.5-.2-.7,0,0,0,0,0,0,1-1.7,2.8-2.9,4.7-3.1.3,0,.5.2.5.5,0,0,0,0,0,0,0,.3-.2.5-.5.5,0,0,0,0,0,0-1.6.2-3.1,1.1-3.9,2.6-.1.1-.3.2-.4.2Z"/>
    <path class="st8" d="M198.2,52.2c0,0-.2,0-.3,0-1.4-.8-3.1-1-4.6-.3-.3.1-.6,0-.7-.2-.1-.3,0-.6.2-.7,0,0,0,0,0,0,1.8-.8,3.9-.7,5.7.3.3.1.3.5.2.7,0,0,0,0,0,0-.1.1-.3.2-.5.2Z"/>
    <path class="st10" d="M148,122.1c-2.1,3.5-4.4,7.1-6.5,10.7s-4.3,7.2-6.3,10.8-4,7.2-5.6,10.8c-.4.9-.8,1.8-1.2,2.7s-.7,1.7-1,2.6c-.2.4-.3.8-.3,1.2,0,.2,0,.1,0,.1s.3.6,1.6,1.2c1.5.6,3.1,1,4.7,1.3,3.9.6,7.8.8,11.7.7,8.3-.2,16.6-.9,24.8-2.1l1.6,6.9c-8.4,2.6-17,4.5-25.7,5.6-4.6.6-9.2.7-13.8.5-2.6-.2-5.2-.7-7.7-1.5-1.5-.5-3-1.2-4.3-2.1-3.5-2.3-5.6-6.2-5.7-10.4,0-1.7.2-3.4.7-5.1.3-1.2.7-2.4,1.1-3.5s.8-2.2,1.2-3.3c1.7-4.3,3.5-8.3,5.5-12.2s4.1-7.7,6.2-11.5,4.4-7.4,6.9-11.1l12.2,7.8Z"/>
    <path class="st10" d="M166.7,163.6l10.5-5.6.4,11.7s-7.4,2.7-11.7-.8l.8-5.4Z"/>
    <polygon class="st10" points="183.6 158.9 182 169.3 177.6 169.8 177.2 158.1 183.6 158.9"/>
    <path class="st6" d="M140.3,101.9c-6.6,1.2-15.9,20.2-15.9,20.2l20.5,17.8s9.4-17.1,8.7-25.8c-.6-7.4-4.9-13.7-13.3-12.2Z"/>
    <path class="st6" d="M73.9,425.2c-.2,0-.4,0-.5,0-1.6-.5-2.6-3.5-3.2-5.2,0,0,0-.2,0-.3,0,0,.2,0,.3,0,.5.3,4.7,2.5,4.8,4.2,0,.4-.1.7-.4.9-.3.2-.6.4-1,.4ZM71,420.5c.7,2.4,1.7,3.9,2.6,4.2.4.1.9,0,1.2-.3.2,0,.3-.3.2-.5,0-1.1-2.6-2.7-4-3.5h0Z"/>
    <path class="st6" d="M74.6,421.1c-1.4,0-2.9-.3-4.2-1,0,0-.1-.1-.1-.2,0,0,0-.2.1-.2.1,0,3.5-1.9,5.3-1.3.4.1.8.5,1,.9.2.4.1,1-.2,1.3-.6.4-1.2.5-1.9.5ZM71.1,419.9c1.4.6,4.2,1,5,.3.1-.1.3-.3,0-.7-.1-.3-.4-.5-.7-.6-1.2-.4-3.4.6-4.4,1h0Z"/>
    <path class="st6" d="M161.8,458.6c-1.5,0-2.9-.2-4.3-.5-.1,0-.2-.1-.2-.2,0-.1,0-.2.2-.3.6-.3,6.3-3,7.9-2,.3.2.4.5.4.8,0,.6-.3,1.1-.8,1.5-.9.6-2,.8-3.1.7ZM158.3,457.7c1.7.3,4.9.7,6.2-.2.4-.2.6-.7.6-1.1,0-.2,0-.3-.1-.3-.8-.6-4.2.7-6.6,1.7Z"/>
    <path class="st6" d="M157.5,458c0,0-.1,0-.2,0,0,0,0-.2,0-.3,0-.2,1.4-5.9,4.5-5.5.8,0,1,.5,1,.8.2,1.4-3.4,4.3-5.1,5.1h-.2ZM161.4,452.7c-2,0-3.2,3.3-3.5,4.6,1.9-1,4.5-3.3,4.3-4.3,0,0,0-.3-.6-.3h-.2Z"/>
    <path class="st8" d="M183.5,58.5l2.4-1.2s-.9,2.2-2.4,1.2Z"/>
  </g>
  <g id="freepik--character-2--inject-379">
    <path class="st0" d="M460.4,109.7c0,1.1-.2,1.9-.3,2.8s-.2,1.7-.4,2.5c-.3,1.7-.6,3.3-1,5-.7,3.3-1.6,6.6-2.7,9.8-2.2,6.5-5.2,12.7-8.9,18.4l-1.5,2.1-.4.5-.2.3-.3.4c-.5.6-1,1.1-1.6,1.6-1.9,1.7-4.1,2.9-6.5,3.6-3.7,1-7.5,1.3-11.3,1-6.7-.6-13.3-2.1-19.6-4.5l1.7-6.8c5.9.6,11.9.7,17.9.4,2.5-.1,5-.7,7.4-1.6.6-.3,1.2-.6,1.6-1.2-.2.2.9-1.6,1.6-2.7,2.8-5.1,5-10.5,6.6-16,.9-2.8,1.6-5.7,2.2-8.5.3-1.4.6-2.9.9-4.3l.3-2.1.3-1.9,14.2,1.2Z"/>
    <path class="st8" d="M463.7,100.5c.3,8.8-3.1,24.8-3.1,24.8l-21.9-2.7s-.8-23.3,3.4-29c7.1-9.4,21.2-1.5,21.5,6.8Z"/>
    <path class="st0" d="M410.4,147.4l-13.1-4.7,2.7,9.8s6.1,3.6,9.6-.5l.7-4.7Z"/>
    <polygon class="st0" points="392.8 145.3 391 152.2 400.1 152.6 397.4 142.8 392.8 145.3"/>
    <path class="st6" d="M331.3,191.2c38,.6,69.2-29.7,69.8-67.7.6-38-29.7-69.2-67.7-69.8-.7,0-1.4,0-2.1,0h-8.9v137.5h8.9Z"/>
    <circle class="st6" cx="322.4" cy="122.4" r="68.8"/>
    <circle class="st2" cx="322.4" cy="122.4" r="68.8"/>
    <circle class="st4" cx="322.4" cy="122.4" r="61"/>
    <path class="st9" d="M353.7,126.3c-2.9-3.2-6.7-5.4-10.9-6.1,2.8-.9,5.4-2.5,7.4-4.6,2.5-2.9,3.9-6.6,3.8-10.5,0-4.7-1.9-9.1-5.3-12.2-3.5-3.3-8.6-4.9-15.3-4.9h-4.1v-11.6h-7.7v11.6h-9.6v-11.6h-7.7v11.6h-16.8v14h6.1v41h-6v13.9h16.8v11.6h7.7v-11.6h9.6v11.6h7.7v-11.6h1c3.2-.2,6.3-.5,9.5-.9,2.8-.2,5.6-1,8.1-2.2,2.8-1.6,5.2-3.9,6.8-6.8,1.7-2.9,2.5-6.3,2.5-9.6.2-3.9-1.1-7.8-3.5-11ZM315.1,101.9h9.4c3.2,0,5.5.6,6.8,1.7,1.3,1.2,2.1,2.9,2,4.7.1,1.9-.6,3.7-2,5-1.3,1.1-3.6,1.7-6.9,1.7h-9.3v-13.1ZM333.7,140.1c-1.6,1.3-4.1,1.9-7.7,1.9h-10.9v-13.9h10.8c3.7,0,6.3.6,7.8,1.8,1.5,1.2,2.3,3,2.2,4.9,0,2-.7,3.9-2.3,5.2Z"/>
    <path class="st8" d="M398.1,55.1c0,1-.6,1.9-1.2,1.9s-1.2-.8-1.2-1.8.6-1.9,1.2-1.9,1.2.8,1.2,1.8Z"/>
    <path class="st8" d="M397.2,53.4l-2.5-.7s1.3,1.9,2.5.7Z"/>
    <path class="st11" d="M397.2,56.1c-1,2.4-2.2,4.6-3.8,6.6,1.1.7,2.4,1,3.7.6v-7.2Z"/>
    <path class="st8" d="M396.8,48.3c0,0,.2,0,.3,0,1.5-.5,3.1-.3,4.4.5.3.2.6.1.8-.1.2-.3.1-.6-.1-.8-1.6-1.1-3.7-1.3-5.5-.7-.3,0-.5.4-.4.7,0,0,0,0,0,0,0,.2.3.3.5.4Z"/>
    <path class="st0" d="M428.4,66c-.7,7.7,1.9,20.3,7.7,24.5,0,0-4.4,8.1-18.4,10-15.4,2.1-8.2-6.6-8.2-6.6,8.2-3.2,7.3-9.3,5.2-14.9l13.6-13Z"/>
    <path class="st0" d="M400.4,109.6c-1.7,8-3.8,15.9-6.3,23.7-2.5,7.8-5.4,15.5-8.9,22.9l-.6,1.4c-.3.6-.6,1.2-.9,1.8-.6,1.1-1.3,2.1-2.1,3.2-1.4,1.8-2.9,3.5-4.5,5.1-3,3-6.2,5.7-9.6,8.3-6.5,4.9-13.4,9.4-20.6,13.2l-3.9-5.9c6-5,12-10.2,17.5-15.5,2.7-2.6,5.3-5.3,7.7-8.2,1.1-1.3,2.1-2.7,3.1-4.2.4-.6.8-1.3,1.1-2l.4-.9.5-1.3c1.4-3.6,2.6-7.2,3.9-10.9s2.3-7.4,3.4-11c2.1-7.4,4.1-15.1,5.9-22.5l13.9,2.8Z"/>
    <path class="st0" d="M347.6,188.6l-7.3,4.7-3.6-6.2s7.1-8.5,11.4-2.5l-.6,3.9Z"/>
    <polygon class="st0" points="345.7 182.2 341.6 181.6 337 182.6 335.8 183.9 338.8 184.4 339.6 185.6 340.6 186.2 345.7 182.2"/>
    <polygon class="st0" points="333.1 193.9 329.1 190.7 336.7 187.2 340.3 193.4 333.1 193.9"/>
    <polygon class="st0" points="451.1 455.8 438.4 456.7 434.6 427.5 447.3 426.5 451.1 455.8"/>
    <polygon class="st0" points="532.7 418.6 521.6 425.3 503.3 402.4 514.3 395.7 532.7 418.6"/>
    <path class="st8" d="M518.3,422.9l10.5-10.1c.4-.4.9-.4,1.3,0l8.9,6.9c.8.7.9,2,.2,2.9,0,0-.1.1-.2.2-3.7,3.5-5.7,4.9-10.3,9.4-2.8,2.7-6.7,7-10.6,10.8s-7.7.2-6.4-1.7c5.8-8.6,5-11.8,5.5-16.1.1-.8.5-1.5,1.1-2.1Z"/>
    <path class="st8" d="M437.6,454.9h14.3c.5,0,.9.4,1,.9l1.9,11.3c.2,1.1-.6,2.1-1.7,2.3,0,0-.2,0-.3,0-5,0-7.4-.4-13.7-.4s-11.9.4-17.2.4-5.8-5.3-3.6-5.8c9.9-2.1,13.8-5.1,17.1-7.9.6-.5,1.3-.8,2.1-.8Z"/>
    <polygon class="st3" points="434.6 427.5 436.7 443.7 449.3 441.6 447.3 426.5 434.6 427.5"/>
    <polygon class="st3" points="514.3 395.7 503.3 402.4 510.9 411.9 522.1 405.5 514.3 395.7"/>
    <path class="st8" d="M457.5,167.3l-51.6,6.9c-20-72.4-14.1-74.3-14.1-74.3,3.9-1.8,7.8-3.4,11.9-4.7l.7-.2c3.3-1,4-1.1,8.5-2.1,7.6-1.3,14.7-2.4,23.4-3.2h1.6c1.6-.2,3.2-.3,4.7-.4,1,0,2,0,3,0h5c3.9,0,7.1,3.4,7,7.3,0,.2,0,.4,0,.6-4.4,38.2-3,50.7,0,70.2Z"/>
    <path class="st3" d="M401,122.1c1,7.5,0,15.1-2.8,22.1-3.4-14.1-5.3-23.7-6.2-30.3,3.9-.2,8,1.3,9,8.2Z"/>
    <path class="st8" d="M392.3,99.7c-8.8,5.1-15,17.1-16.8,24.1l18.8,17.2s12.2-23.4,9-29.7c-3.3-6.6-7.6-13.5-11-11.6Z"/>
    <path class="st0" d="M432.7,51.8c-1,12.6-1.1,17.9-7.6,24.4-9.8,9.8-25.1,6.3-28-6.1-2.6-11.2-.6-30,11.9-35.1,8.5-3.8,18.5,0,22.3,8.5,1.2,2.6,1.6,5.4,1.4,8.3Z"/>
    <path class="st8" d="M406.7,56.9c1.3-4.5-8.7-9.5-9.8-16.4-1.4-8.9,5.5-16.1,11.9-11.9,2.6-6,20.3-8.5,30-1.1,10.9,8.3-2.5,17,8.4,24.3,8.7,5.8,9.9,9.5,4.5,16.5-4.1,5.3,6.5,4.2,3.8,13.2-2.7,9-57.1,12.3-49.9-7.9,6.4-17.8-1.5-7.6,1.1-16.7Z"/>
    <path class="st0" d="M409.7,55.9c0,2.3-.9,4.6-2.3,6.5-2,2.7-4.2,1.9-4.7-.5-.5-2.2,0-6.2,2.4-8s4.6-.5,4.6,2.1Z"/>
    <path class="st8" d="M451.2,68.8c-.1,0-.2-.1-.2-.2,0,0,0-.1.1-.2,3.4-2,5.3-4.7,5.2-7.6,0-3.7-3.2-7.4-8.2-10-6-3-5.5-7.1-5.1-11s.9-8.1-4.9-11.5c-.1,0-.1-.2,0-.3,0-.1.2-.1.3,0,6.1,3.5,5.6,7.8,5.1,11.9s-.9,7.8,4.7,10.7c5.2,2.6,8.3,6.5,8.4,10.3,0,3.2-1.8,6-5.4,8,0,0,0,0,0,0Z"/>
    <path class="st6" d="M419.6,172.4s20,84.6,29.4,133.3c9.9,51.3,57.2,104.7,57.2,104.7l16.1-9s-29.8-48.8-39.5-96.7c-19.6-97.2-6.3-116.8-25.3-137.4l-38,5.1Z"/>
    <polygon class="st8" points="504.6 411.9 524.7 400.7 521.8 394.8 499.2 405.2 504.6 411.9"/>
    <path class="st3" d="M430.2,190.8c15.6,13.5,13.9,61.6,12.3,83.1-6.5-30.7-14.4-65-18.9-84.8,1.6-1.2,3.8-.8,6.7,1.7Z"/>
    <path class="st6" d="M513.9,428.7c.2,0,.3,0,.5,0,1.6,0,3.5-2.5,4.4-3.9,0-.1,0-.2,0-.3,0-.1-.2-.2-.3-.1-.5,0-5.1,1.1-5.7,2.6-.1.3,0,.7.1,1,.2.4.6.6,1,.8ZM517.9,425.1c-1.3,1.9-2.6,3-3.5,3-.4,0-.7-.2-.9-.5-.1-.1-.1-.3,0-.4.3-.8,2.7-1.6,4.5-2h0Z"/>
    <path class="st6" d="M406.7,174.3s-9,100.5-4.2,138.8c5.1,39.9,31.1,126.6,31.1,126.6l18.4-2.4s-14.9-86-17.6-125.4c-2.9-43,9.9-142.7,9.9-142.7l-37.7,5.1Z"/>
    <polygon class="st8" points="429.8 440.8 456 437.4 455.6 429.6 427.2 432.4 429.8 440.8"/>
    <path class="st6" d="M514.6,424.8c1.3.4,2.7.4,4,.2.1,0,.2-.1.2-.2,0-.1,0-.2,0-.3-.1-.1-2.6-2.7-4.5-2.6-.5,0-.9.2-1.2.6-.4.3-.4.9-.2,1.3.4.5,1,.9,1.7,1ZM517.9,424.5c-1.6.2-4-.3-4.5-1,0-.1-.1-.3.1-.6.2-.2.5-.4.8-.4,1.4.3,2.6,1,3.6,2h0Z"/>
    <path class="st6" d="M432.8,457.1c1.3,0,2.7-.2,4-.5.1,0,.2-.1.2-.3,0-.1,0-.3-.2-.3-.6-.3-5.7-2.9-7.3-2-.3.2-.5.5-.5.8,0,.6.2,1.1.6,1.5.9.6,2,.9,3.1.8ZM435.8,456.2c-2.8.5-4.9.3-5.7-.3-.3-.3-.4-.6-.4-1,0-.1,0-.3.2-.3.8-.5,3.8.6,5.9,1.6h0Z"/>
    <path class="st6" d="M436.8,456.7c0,0,.1,0,.2,0,0,0,.1-.2.1-.3,0-.2-.6-5.4-3.5-5.4h-.3c-.8,0-1.1.5-1.1.8-.2,1.4,2.8,4.2,4.4,4.9h.1ZM433.6,451.5c1.8,0,2.6,3,2.8,4.3-1.6-.9-3.7-3.2-3.6-4,0,0,0-.3.6-.3h.2Z"/>
    <path class="st6" d="M458,164.2l2.8,4.3c.2.3-.2.7-.8.8l-54.1,7.3c-.5,0-.9-.1-.9-.4l-.9-4.5c0-.3.3-.6.8-.7l52.2-7c.3,0,.7,0,.9.3Z"/>
    <path class="st5" d="M458,164.2l2.8,4.3c.2.3-.2.7-.8.8l-54.1,7.3c-.5,0-.9-.1-.9-.4l-.9-4.5c0-.3.3-.6.8-.7l52.2-7c.3,0,.7,0,.9.3Z"/>
    <path class="st6" d="M451.6,171l1.4-.2c.3,0,.5-.2.4-.4l-1.3-5.9c0-.2-.3-.3-.6-.2l-1.4.2c-.3,0-.5.2-.4.4l1.3,5.9c0,0,.3.2.6.2Z"/>
    <path class="st6" d="M416.3,175.8l1.4-.2c.3,0,.5-.2.4-.4l-1.3-5.9c0-.2-.3-.3-.6-.2l-1.4.2c-.3,0-.5.2-.4.4l1.3,5.9c0,.3.3.3.6.3Z"/>
  </g>
</svg>