<?xml version="1.0" encoding="UTF-8"?>
<svg id="Layer_1" xmlns="http://www.w3.org/2000/svg" version="1.1" viewBox="0 0 600 225">
  <!-- Generator: Adobe Illustrator 29.8.2, SVG Export Plug-In . SVG Version: 2.1.1 Build 3)  -->
  <defs>
    <style>
      .st0 {
        fill: #e0e0e0;
      }

      .st1 {
        opacity: .3;
      }

      .st1, .st2, .st3, .st4, .st5, .st6, .st7, .st8 {
        isolation: isolate;
      }

      .st2 {
        opacity: .1;
      }

      .st3 {
        opacity: .4;
      }

      .st4, .st7 {
        opacity: .2;
      }

      .st9 {
        fill: #ff603b;
      }

      .st10 {
        fill: #ff887b;
      }

      .st11 {
        fill: #263238;
      }

      .st12, .st5, .st6, .st7, .st8 {
        fill: #fff;
      }

      .st13, .st5 {
        opacity: .7;
      }

      .st14 {
        fill: #ff5652;
      }

      .st15 {
        fill: #ff8b7b;
      }

      .st6 {
        opacity: .8;
      }

      .st8 {
        opacity: .5;
      }
    </style>
  </defs>
  <g>
    <g id="freepik--Device--inject-240">
      <path class="st9" d="M437.3,273.1h-88.6c-9.2.1-16.7-7.2-16.9-16.4v-1.7l14.8-211.8c.8-10.1,9.2-17.9,19.3-18h88.6c9.2-.1,16.7,7.2,16.9,16.4v1.7l-14.8,211.8c-.8,10.1-9.2,17.9-19.3,18.1h0Z"/>
      <path class="st11" d="M432.7,273.1h-88.6c-9.2.1-16.7-7.2-16.9-16.4v-1.7l14.8-211.8c.8-10.1,9.2-17.9,19.3-18h88.6c9.2-.1,16.7,7.2,16.9,16.4v1.7l-14.8,211.8c-.8,10.1-9.2,17.9-19.3,18.1h0Z"/>
      <path class="st9" d="M449.7,29.4h-23c-1.5,0-2.8,1.1-3.2,2.6v.7c-.9,3.7-4.1,6.3-7.8,6.4h-21.9c-3.6,0-6.6-2.8-6.8-6.4v-.7c0-1.5-1.3-2.6-2.8-2.6h-23c-7.8.1-14.2,6.1-14.9,13.9l-14.8,211.8c-.6,7,4.6,13.3,11.7,13.9h89.9c7.8-.1,14.2-6.1,14.9-13.9l14.8-211.8c.6-7-4.6-13.2-11.6-13.9h-1.5Z"/>
      <path class="st6" d="M462.7,43.2l-14.8,211.8c-.6,7.8-7.1,13.8-14.9,13.9h-88.6c-7.1.1-12.9-5.5-13-12.6v-1.3l14.8-211.8c.7-7.8,7.1-13.8,14.9-13.9h23c1.5,0,2.7,1.2,2.8,2.6v.7c.2,3.6,3.2,6.5,6.8,6.4h21.9c3.8,0,7-2.7,7.7-6.4v-.7c.5-1.5,1.8-2.6,3.4-2.6h23c7.1-.1,12.9,5.5,13,12.6v1.3h0Z"/>
      <path class="st11" d="M449.7,229.6l-1.8,25.5c-.6,7.8-7.1,13.8-14.9,13.9h-88.6c-7.1.1-12.9-5.5-13-12.6v-1.3l1.8-25.5h116.5Z"/>
      <path class="st8" d="M449.7,229.6l-1.8,25.5c-.6,7.8-7.1,13.8-14.9,13.9h-88.6c-7.1.1-12.9-5.5-13-12.6v-1.3l1.8-25.5h116.5Z"/>
      <g class="st13">
        <path d="M399.9,31.7c0,1-.9,1.7-1.8,1.8-.9,0-1.6-.7-1.6-1.6v-.2c0-1,.9-1.7,1.8-1.8.9,0,1.6.7,1.6,1.6v.2Z"/>
        <path d="M412.5,29.9h-6c-1,0-1.8.8-1.9,1.8,0,.9.6,1.7,1.5,1.8h6.2c1,0,1.8-.8,1.8-1.8s-.6-1.7-1.5-1.8h-.1Z"/>
      </g>
      <polygon class="st9" points="356.2 39 358.1 39 358.2 37.2 356.3 37.2 356.2 39"/>
      <polygon class="st9" points="360.1 37.2 359.9 39 361.8 39 361.9 37.2 362.1 35.3 360.2 35.3 360.1 37.2"/>
      <polygon class="st9" points="364 33.4 363.9 35.3 363.8 37.2 363.7 39 365.5 39 365.7 37.2 365.8 35.3 365.9 33.4 364 33.4"/>
      <path class="st9" d="M444.2,33.6v1.3h-1l-.2,2.8h.9v1.4h8.1l.4-5.5h-8.2,0ZM447.6,37.7h-2.8l.2-2.8h2.8l-.2,2.8Z"/>
      <path class="st9" d="M361.5,139.2h-.6c-.4,0-.7-.3-.7-.7h0l.9-13.2c.2-2.6,2.4-4.6,5-4.7h13.2c.4,0,.7.3.7.7h0v.6c0,.4-.4.8-.8.8h-13.2c-1.4,0-2.5,1.1-2.7,2.5l-.9,13.2c0,.4-.4.8-.8.8h-.1Z"/>
      <path class="st9" d="M411.5,193.6v-.6c0-.4.4-.8.9-.8h13.1c1.4,0,2.6-1.1,2.7-2.5l.9-13.2c0-.4.4-.8.8-.8h.6c.4,0,.7.3.7.7h0l-.9,13.2c-.2,2.6-2.4,4.6-5,4.7h-13.2c-.4,0-.7-.3-.7-.7h.1Z"/>
      <path class="st9" d="M433.1,139.2h-.6c-.4,0-.7-.3-.7-.7h0l.9-13.1c0-.5,0-1-.3-1.5-.4-.7-1.2-1.1-2-1.1h-13.2c-.4,0-.7-.3-.7-.7h0v-.6c0-.4.4-.8.9-.8h13c1.1,0,2.2.4,3.1,1.1,1,.9,1.6,2.2,1.4,3.6l-.9,13.2c0,.4-.4.8-.8.8v-.2Z"/>
      <path class="st9" d="M360.9,194.4c-1.4,0-2.6-.6-3.5-1.7-.7-.9-1-2-.9-3.2l.9-13c0-.4.4-.8.8-.8h.6c.4,0,.7.3.7.7h0l-.9,13.1c0,.5,0,1,.3,1.5.4.7,1.2,1.1,2,1.1h13.2c.4,0,.7.3.7.7h0v.6c0,.4-.4.8-.8.8h-13.2v.2Z"/>
      <path class="st11" d="M373.4,213c-.6.6-1.3.9-2.2.9s-1.9-.4-3-1.7c-2-.2-3.5-1.9-3.3-3.9h0c.2-2.3,2.2-4.1,4.5-4,2-.2,3.8,1.4,4,3.4v.6c-.1,1.8-1.3,3.3-3,3.8.2.3.6.5,1,.5s1-.2,1.3-.6l.7,1ZM368.9,210.7c1.4,0,2.5-1.1,2.6-2.5.2-1.2-.7-2.3-1.9-2.4h-.4c-1.4,0-2.5,1.1-2.6,2.5-.2,1.2.7,2.3,1.8,2.5h.5Z"/>
      <path class="st11" d="M379.3,212.1l-1.3-2.2h-1.6v2.2h-1.9l.5-7.7h3.3c2.1,0,3.3,1.1,3.2,2.8,0,1.1-.7,2-1.8,2.4l1.6,2.5h-2ZM378.1,205.9h-1.5l-.2,2.7h1.5c1.1,0,1.7-.5,1.7-1.4s-.5-1.3-1.6-1.3h.1Z"/>
      <path class="st11" d="M385.4,208.3c.2-2.3,2.1-4.1,4.5-4,1.2,0,2.3.4,3.1,1.4l-1.2,1.1c-.4-.6-1.1-.9-1.8-.9-1.4,0-2.6,1.1-2.6,2.5-.2,1.2.7,2.3,1.9,2.5h.4c.8,0,1.5-.3,2-.9l1.1,1.1c-.8.9-2,1.4-3.3,1.4-2,.1-3.8-1.4-3.9-3.4v-.6l-.2-.2Z"/>
      <path class="st11" d="M393.4,208.3c.2-2.3,2.2-4.1,4.5-4,2-.2,3.8,1.4,4,3.4v.6c-.2,2.3-2.2,4.1-4.5,4-2,.2-3.8-1.4-4-3.4v-.6ZM400,208.3c.2-1.2-.7-2.3-1.9-2.4h-.4c-1.4,0-2.5,1.1-2.6,2.5-.2,1.2.7,2.3,1.8,2.5h.4c1.4,0,2.5-1.1,2.6-2.5h.1Z"/>
      <path class="st11" d="M403.4,204.4h3.5c2.5,0,4.1,1.5,4,3.9s-2,3.9-4.5,3.9h-3.5l.5-7.7h0ZM406.4,210.7c1.4.1,2.6-.9,2.7-2.3h0c.2-1.2-.7-2.2-1.8-2.4h-2.1l-.3,4.8h1.6-.1Z"/>
      <path class="st11" d="M418.1,210.7v1.4h-6.1l.5-7.7h5.8v1.4h-4.2v1.7c-.1,0,3.5,0,3.5,0v1.4h-3.7v1.8c-.1,0,4.1,0,4.1,0h.1Z"/>
      <polygon class="st9" points="459.5 89.4 342.7 89.4 345.5 50 462.2 50 459.5 89.4"/>
      <path class="st7" d="M331.7,254.3c-.3,3.7,1,7.3,3.5,9.9l124-231.9c-2.4-2.4-5.8-3.8-9.2-3.7h-88.6c-7.8.1-14.2,6.1-14.9,13.9l-14.8,211.8h0Z"/>
      <rect class="st0" x="361.2" y="69.4" width="25.5" height=".9" transform="translate(278.2 438) rotate(-86)"/>
      <rect class="st0" x="390.3" y="69.2" width="25.5" height=".9" transform="translate(305.4 466.9) rotate(-86)"/>
      <rect class="st0" x="419.5" y="69.3" width="25.5" height=".9" transform="translate(332.5 496.1) rotate(-86)"/>
    </g>
    <g id="freepik--qr-code--inject-240">
      <polygon class="st11" points="367.1 126.4 366.9 128.9 369.4 128.9 369.6 126.4 367.1 126.4"/>
      <polygon class="st11" points="369.6 126.4 369.4 128.9 371.9 128.9 372 126.4 369.6 126.4"/>
      <polygon class="st11" points="372 126.4 371.9 128.9 374.3 128.9 374.5 126.4 372 126.4"/>
      <polygon class="st11" points="374.5 126.4 374.3 128.9 376.8 128.9 377 126.4 374.5 126.4"/>
      <polygon class="st11" points="377 126.4 376.8 128.9 379.3 128.9 379.5 126.4 377 126.4"/>
      <polygon class="st11" points="379.5 126.4 379.3 128.9 381.8 128.9 381.9 126.4 379.5 126.4"/>
      <polygon class="st11" points="381.9 126.4 381.8 128.9 384.2 128.9 384.4 126.4 381.9 126.4"/>
      <polygon class="st11" points="391.8 126.4 391.6 128.9 394.1 128.9 394.3 126.4 391.8 126.4"/>
      <polygon class="st11" points="399.2 126.4 399 128.9 401.5 128.9 401.7 126.4 399.2 126.4"/>
      <polygon class="st11" points="401.7 126.4 401.5 128.9 404 128.9 404.2 126.4 401.7 126.4"/>
      <polygon class="st11" points="404.2 126.4 404 128.9 406.5 128.9 406.6 126.4 404.2 126.4"/>
      <polygon class="st11" points="406.6 126.4 406.5 128.9 408.9 128.9 409.1 126.4 406.6 126.4"/>
      <polygon class="st11" points="411.6 126.4 411.4 128.9 413.9 128.9 414 126.4 411.6 126.4"/>
      <polygon class="st11" points="414 126.4 413.9 128.9 416.3 128.9 416.5 126.4 414 126.4"/>
      <polygon class="st11" points="416.5 126.4 416.3 128.9 418.8 128.9 419 126.4 416.5 126.4"/>
      <polygon class="st11" points="419 126.4 418.8 128.9 421.3 128.9 421.5 126.4 419 126.4"/>
      <polygon class="st11" points="421.5 126.4 421.3 128.9 423.8 128.9 423.9 126.4 421.5 126.4"/>
      <polygon class="st11" points="423.9 126.4 423.8 128.9 426.2 128.9 426.4 126.4 423.9 126.4"/>
      <polygon class="st11" points="426.4 126.4 426.2 128.9 428.7 128.9 428.9 126.4 426.4 126.4"/>
      <polygon class="st11" points="366.9 128.9 366.8 131.3 369.2 131.3 369.4 128.9 366.9 128.9"/>
      <polygon class="st11" points="381.8 128.9 381.6 131.3 384 131.3 384.2 128.9 381.8 128.9"/>
      <polygon class="st11" points="389.2 128.9 389 131.3 391.5 131.3 391.6 128.9 389.2 128.9"/>
      <polygon class="st11" points="401.5 128.9 401.3 131.3 403.8 131.3 404 128.9 401.5 128.9"/>
      <polygon class="st11" points="404 128.9 403.8 131.3 406.3 131.3 406.5 128.9 404 128.9"/>
      <polygon class="st11" points="406.5 128.9 406.3 131.3 408.8 131.3 408.9 128.9 406.5 128.9"/>
      <polygon class="st11" points="411.4 128.9 411.2 131.3 413.7 131.3 413.9 128.9 411.4 128.9"/>
      <polygon class="st11" points="426.2 128.9 426.1 131.3 428.5 131.3 428.7 128.9 426.2 128.9"/>
      <polygon class="st11" points="366.8 131.3 366.6 133.8 369.1 133.8 369.2 131.3 366.8 131.3"/>
      <polygon class="st11" points="371.7 131.3 371.5 133.8 374 133.8 374.2 131.3 371.7 131.3"/>
      <polygon class="st11" points="374.2 131.3 374 133.8 376.5 133.8 376.6 131.3 374.2 131.3"/>
      <polygon class="st11" points="376.6 131.3 376.5 133.8 378.9 133.8 379.1 131.3 376.6 131.3"/>
      <polygon class="st11" points="381.6 131.3 381.4 133.8 383.9 133.8 384 131.3 381.6 131.3"/>
      <polygon class="st11" points="386.5 131.3 386.3 133.8 388.8 133.8 389 131.3 386.5 131.3"/>
      <polygon class="st11" points="393.9 131.3 393.8 133.8 396.2 133.8 396.4 131.3 393.9 131.3"/>
      <polygon class="st11" points="401.3 131.3 401.2 133.8 403.6 133.8 403.8 131.3 401.3 131.3"/>
      <polygon class="st11" points="411.2 131.3 411.1 133.8 413.5 133.8 413.7 131.3 411.2 131.3"/>
      <polygon class="st11" points="416.2 131.3 416 133.8 418.5 133.8 418.6 131.3 416.2 131.3"/>
      <polygon class="st11" points="418.6 131.3 418.5 133.8 420.9 133.8 421.1 131.3 418.6 131.3"/>
      <polygon class="st11" points="421.1 131.3 420.9 133.8 423.4 133.8 423.6 131.3 421.1 131.3"/>
      <polygon class="st11" points="426.1 131.3 425.9 133.8 428.4 133.8 428.5 131.3 426.1 131.3"/>
      <polygon class="st11" points="366.6 133.8 366.4 136.3 368.9 136.3 369.1 133.8 366.6 133.8"/>
      <polygon class="st11" points="371.5 133.8 371.3 136.3 373.8 136.3 374 133.8 371.5 133.8"/>
      <polygon class="st11" points="374 133.8 373.8 136.3 376.3 136.3 376.5 133.8 374 133.8"/>
      <polygon class="st11" points="376.5 133.8 376.3 136.3 378.8 136.3 378.9 133.8 376.5 133.8"/>
      <polygon class="st11" points="381.4 133.8 381.2 136.3 383.7 136.3 383.9 133.8 381.4 133.8"/>
      <polygon class="st11" points="388.8 133.8 388.6 136.3 391.1 136.3 391.3 133.8 388.8 133.8"/>
      <polygon class="st11" points="401.2 133.8 401 136.3 403.5 136.3 403.6 133.8 401.2 133.8"/>
      <polygon class="st11" points="403.6 133.8 403.5 136.3 405.9 136.3 406.1 133.8 403.6 133.8"/>
      <polygon class="st11" points="411.1 133.8 410.9 136.3 413.4 136.3 413.5 133.8 411.1 133.8"/>
      <polygon class="st11" points="416 133.8 415.8 136.3 418.3 136.3 418.5 133.8 416 133.8"/>
      <polygon class="st11" points="418.5 133.8 418.3 136.3 420.8 136.3 420.9 133.8 418.5 133.8"/>
      <polygon class="st11" points="420.9 133.8 420.8 136.3 423.2 136.3 423.4 133.8 420.9 133.8"/>
      <polygon class="st11" points="425.9 133.8 425.7 136.3 428.2 136.3 428.4 133.8 425.9 133.8"/>
      <polygon class="st11" points="366.4 136.3 366.2 138.7 368.7 138.7 368.9 136.3 366.4 136.3"/>
      <polygon class="st11" points="371.3 136.3 371.2 138.7 373.6 138.7 373.8 136.3 371.3 136.3"/>
      <polygon class="st11" points="373.8 136.3 373.6 138.7 376.1 138.7 376.3 136.3 373.8 136.3"/>
      <polygon class="st11" points="376.3 136.3 376.1 138.7 378.6 138.7 378.8 136.3 376.3 136.3"/>
      <polygon class="st11" points="381.2 136.3 381.1 138.7 383.5 138.7 383.7 136.3 381.2 136.3"/>
      <polygon class="st11" points="388.6 136.3 388.5 138.7 390.9 138.7 391.1 136.3 388.6 136.3"/>
      <polygon class="st11" points="396.1 136.3 395.9 138.7 398.4 138.7 398.5 136.3 396.1 136.3"/>
      <polygon class="st11" points="398.5 136.3 398.4 138.7 400.8 138.7 401 136.3 398.5 136.3"/>
      <polygon class="st11" points="401 136.3 400.8 138.7 403.3 138.7 403.5 136.3 401 136.3"/>
      <polygon class="st11" points="403.5 136.3 403.3 138.7 405.8 138.7 405.9 136.3 403.5 136.3"/>
      <polygon class="st11" points="410.9 136.3 410.7 138.7 413.2 138.7 413.4 136.3 410.9 136.3"/>
      <polygon class="st11" points="415.8 136.3 415.7 138.7 418.1 138.7 418.3 136.3 415.8 136.3"/>
      <polygon class="st11" points="418.3 136.3 418.1 138.7 420.6 138.7 420.8 136.3 418.3 136.3"/>
      <polygon class="st11" points="420.8 136.3 420.6 138.7 423.1 138.7 423.2 136.3 420.8 136.3"/>
      <polygon class="st11" points="425.7 136.3 425.5 138.7 428 138.7 428.2 136.3 425.7 136.3"/>
      <polygon class="st11" points="366.2 138.7 366.1 141.2 368.5 141.2 368.7 138.7 366.2 138.7"/>
      <polygon class="st11" points="381.1 138.7 380.9 141.2 383.4 141.2 383.5 138.7 381.1 138.7"/>
      <polygon class="st11" points="390.9 138.7 390.8 141.2 393.2 141.2 393.4 138.7 390.9 138.7"/>
      <polygon class="st11" points="393.4 138.7 393.2 141.2 395.7 141.2 395.9 138.7 393.4 138.7"/>
      <polygon class="st11" points="398.4 138.7 398.2 141.2 400.7 141.2 400.8 138.7 398.4 138.7"/>
      <polygon class="st11" points="400.8 138.7 400.7 141.2 403.1 141.2 403.3 138.7 400.8 138.7"/>
      <polygon class="st11" points="403.3 138.7 403.1 141.2 405.6 141.2 405.8 138.7 403.3 138.7"/>
      <polygon class="st11" points="405.8 138.7 405.6 141.2 408.1 141.2 408.2 138.7 405.8 138.7"/>
      <polygon class="st11" points="410.7 138.7 410.5 141.2 413 141.2 413.2 138.7 410.7 138.7"/>
      <polygon class="st11" points="425.5 138.7 425.4 141.2 427.8 141.2 428 138.7 425.5 138.7"/>
      <polygon class="st11" points="366.1 141.2 365.9 143.7 368.4 143.7 368.5 141.2 366.1 141.2"/>
      <polygon class="st11" points="368.5 141.2 368.4 143.7 370.8 143.7 371 141.2 368.5 141.2"/>
      <polygon class="st11" points="371 141.2 370.8 143.7 373.3 143.7 373.5 141.2 371 141.2"/>
      <polygon class="st11" points="373.5 141.2 373.3 143.7 375.8 143.7 375.9 141.2 373.5 141.2"/>
      <polygon class="st11" points="375.9 141.2 375.8 143.7 378.2 143.7 378.4 141.2 375.9 141.2"/>
      <polygon class="st11" points="378.4 141.2 378.2 143.7 380.7 143.7 380.9 141.2 378.4 141.2"/>
      <polygon class="st11" points="380.9 141.2 380.7 143.7 383.2 143.7 383.4 141.2 380.9 141.2"/>
      <polygon class="st11" points="385.8 141.2 385.7 143.7 388.1 143.7 388.3 141.2 385.8 141.2"/>
      <polygon class="st11" points="390.8 141.2 390.6 143.7 393.1 143.7 393.2 141.2 390.8 141.2"/>
      <polygon class="st11" points="395.7 141.2 395.5 143.7 398 143.7 398.2 141.2 395.7 141.2"/>
      <polygon class="st11" points="400.7 141.2 400.5 143.7 403 143.7 403.1 141.2 400.7 141.2"/>
      <polygon class="st11" points="405.6 141.2 405.4 143.7 407.9 143.7 408.1 141.2 405.6 141.2"/>
      <polygon class="st11" points="410.5 141.2 410.4 143.7 412.8 143.7 413 141.2 410.5 141.2"/>
      <polygon class="st11" points="413 141.2 412.8 143.7 415.3 143.7 415.5 141.2 413 141.2"/>
      <polygon class="st11" points="415.5 141.2 415.3 143.7 417.8 143.7 418 141.2 415.5 141.2"/>
      <polygon class="st11" points="418 141.2 417.8 143.7 420.2 143.7 420.4 141.2 418 141.2"/>
      <polygon class="st11" points="420.4 141.2 420.2 143.7 422.7 143.7 422.9 141.2 420.4 141.2"/>
      <polygon class="st11" points="422.9 141.2 422.7 143.7 425.2 143.7 425.4 141.2 422.9 141.2"/>
      <polygon class="st11" points="425.4 141.2 425.2 143.7 427.7 143.7 427.8 141.2 425.4 141.2"/>
      <polygon class="st11" points="385.7 143.7 385.5 146.2 388 146.2 388.1 143.7 385.7 143.7"/>
      <polygon class="st11" points="395.5 143.7 395.4 146.2 397.8 146.2 398 143.7 395.5 143.7"/>
      <polygon class="st11" points="398 143.7 397.8 146.2 400.3 146.2 400.5 143.7 398 143.7"/>
      <polygon class="st11" points="405.4 143.7 405.2 146.2 407.7 146.2 407.9 143.7 405.4 143.7"/>
      <polygon class="st11" points="365.7 146.2 365.5 148.6 368 148.6 368.2 146.2 365.7 146.2"/>
      <polygon class="st11" points="368.2 146.2 368 148.6 370.5 148.6 370.7 146.2 368.2 146.2"/>
      <polygon class="st11" points="370.7 146.2 370.5 148.6 373 148.6 373.1 146.2 370.7 146.2"/>
      <polygon class="st11" points="375.6 146.2 375.4 148.6 377.9 148.6 378.1 146.2 375.6 146.2"/>
      <polygon class="st11" points="378.1 146.2 377.9 148.6 380.4 148.6 380.5 146.2 378.1 146.2"/>
      <polygon class="st11" points="380.5 146.2 380.4 148.6 382.8 148.6 383 146.2 380.5 146.2"/>
      <polygon class="st11" points="383 146.2 382.8 148.6 385.3 148.6 385.5 146.2 383 146.2"/>
      <polygon class="st11" points="385.5 146.2 385.3 148.6 387.8 148.6 388 146.2 385.5 146.2"/>
      <polygon class="st11" points="392.9 146.2 392.7 148.6 395.2 148.6 395.4 146.2 392.9 146.2"/>
      <polygon class="st11" points="395.4 146.2 395.2 148.6 397.7 148.6 397.8 146.2 395.4 146.2"/>
      <polygon class="st11" points="397.8 146.2 397.7 148.6 400.1 148.6 400.3 146.2 397.8 146.2"/>
      <polygon class="st11" points="405.2 146.2 405.1 148.6 407.5 148.6 407.7 146.2 405.2 146.2"/>
      <polygon class="st11" points="407.7 146.2 407.5 148.6 410 148.6 410.2 146.2 407.7 146.2"/>
      <polygon class="st11" points="410.2 146.2 410 148.6 412.5 148.6 412.7 146.2 410.2 146.2"/>
      <polygon class="st11" points="420.1 146.2 419.9 148.6 422.4 148.6 422.5 146.2 420.1 146.2"/>
      <polygon class="st11" points="370.5 148.6 370.3 151.1 372.8 151.1 373 148.6 370.5 148.6"/>
      <polygon class="st11" points="373 148.6 372.8 151.1 375.3 151.1 375.4 148.6 373 148.6"/>
      <polygon class="st11" points="375.4 148.6 375.3 151.1 377.7 151.1 377.9 148.6 375.4 148.6"/>
      <polygon class="st11" points="382.8 148.6 382.7 151.1 385.1 151.1 385.3 148.6 382.8 148.6"/>
      <polygon class="st11" points="385.3 148.6 385.1 151.1 387.6 151.1 387.8 148.6 385.3 148.6"/>
      <polygon class="st11" points="387.8 148.6 387.6 151.1 390.1 151.1 390.3 148.6 387.8 148.6"/>
      <polygon class="st11" points="392.7 148.6 392.5 151.1 395 151.1 395.2 148.6 392.7 148.6"/>
      <polygon class="st11" points="395.2 148.6 395 151.1 397.5 151.1 397.7 148.6 395.2 148.6"/>
      <polygon class="st11" points="405.1 148.6 404.9 151.1 407.4 151.1 407.5 148.6 405.1 148.6"/>
      <polygon class="st11" points="410 148.6 409.8 151.1 412.3 151.1 412.5 148.6 410 148.6"/>
      <polygon class="st11" points="424.8 148.6 424.7 151.1 427.1 151.1 427.3 148.6 424.8 148.6"/>
      <polygon class="st11" points="370.3 151.1 370.1 153.6 372.6 153.6 372.8 151.1 370.3 151.1"/>
      <polygon class="st11" points="380.2 151.1 380 153.6 382.5 153.6 382.7 151.1 380.2 151.1"/>
      <polygon class="st11" points="382.7 151.1 382.5 153.6 385 153.6 385.1 151.1 382.7 151.1"/>
      <polygon class="st11" points="390.1 151.1 389.9 153.6 392.4 153.6 392.5 151.1 390.1 151.1"/>
      <polygon class="st11" points="395 151.1 394.8 153.6 397.3 153.6 397.5 151.1 395 151.1"/>
      <polygon class="st11" points="400 151.1 399.8 153.6 402.3 153.6 402.4 151.1 400 151.1"/>
      <polygon class="st11" points="409.8 151.1 409.7 153.6 412.1 153.6 412.3 151.1 409.8 151.1"/>
      <polygon class="st11" points="412.3 151.1 412.1 153.6 414.6 153.6 414.8 151.1 412.3 151.1"/>
      <polygon class="st11" points="414.8 151.1 414.6 153.6 417.1 153.6 417.3 151.1 414.8 151.1"/>
      <polygon class="st11" points="419.7 151.1 419.6 153.6 422 153.6 422.2 151.1 419.7 151.1"/>
      <polygon class="st11" points="422.2 151.1 422 153.6 424.5 153.6 424.7 151.1 422.2 151.1"/>
      <polygon class="st11" points="424.7 151.1 424.5 153.6 427 153.6 427.1 151.1 424.7 151.1"/>
      <polygon class="st11" points="365.2 153.6 365 156 367.5 156 367.7 153.6 365.2 153.6"/>
      <polygon class="st11" points="367.7 153.6 367.5 156 370 156 370.1 153.6 367.7 153.6"/>
      <polygon class="st11" points="370.1 153.6 370 156 372.4 156 372.6 153.6 370.1 153.6"/>
      <polygon class="st11" points="375.1 153.6 374.9 156 377.4 156 377.5 153.6 375.1 153.6"/>
      <polygon class="st11" points="387.4 153.6 387.3 156 389.7 156 389.9 153.6 387.4 153.6"/>
      <polygon class="st11" points="389.9 153.6 389.7 156 392.2 156 392.4 153.6 389.9 153.6"/>
      <polygon class="st11" points="394.8 153.6 394.7 156 397.1 156 397.3 153.6 394.8 153.6"/>
      <polygon class="st11" points="397.3 153.6 397.1 156 399.6 156 399.8 153.6 397.3 153.6"/>
      <polygon class="st11" points="399.8 153.6 399.6 156 402.1 156 402.3 153.6 399.8 153.6"/>
      <polygon class="st11" points="402.3 153.6 402.1 156 404.6 156 404.7 153.6 402.3 153.6"/>
      <polygon class="st11" points="407.2 153.6 407 156 409.5 156 409.7 153.6 407.2 153.6"/>
      <polygon class="st11" points="409.7 153.6 409.5 156 412 156 412.1 153.6 409.7 153.6"/>
      <polygon class="st11" points="412.1 153.6 412 156 414.4 156 414.6 153.6 412.1 153.6"/>
      <polygon class="st11" points="422 153.6 421.9 156 424.3 156 424.5 153.6 422 153.6"/>
      <polygon class="st11" points="370 156 369.8 158.5 372.3 158.5 372.4 156 370 156"/>
      <polygon class="st11" points="372.4 156 372.3 158.5 374.7 158.5 374.9 156 372.4 156"/>
      <polygon class="st11" points="379.8 156 379.7 158.5 382.2 158.5 382.3 156 379.8 156"/>
      <polygon class="st11" points="384.8 156 384.6 158.5 387.1 158.5 387.3 156 384.8 156"/>
      <polygon class="st11" points="389.7 156 389.6 158.5 392 158.5 392.2 156 389.7 156"/>
      <polygon class="st11" points="397.1 156 397 158.5 399.4 158.5 399.6 156 397.1 156"/>
      <polygon class="st11" points="404.6 156 404.4 158.5 406.9 158.5 407 156 404.6 156"/>
      <polygon class="st11" points="407 156 406.9 158.5 409.3 158.5 409.5 156 407 156"/>
      <polygon class="st11" points="409.5 156 409.3 158.5 411.8 158.5 412 156 409.5 156"/>
      <polygon class="st11" points="412 156 411.8 158.5 414.3 158.5 414.4 156 412 156"/>
      <polygon class="st11" points="416.9 156 416.7 158.5 419.2 158.5 419.4 156 416.9 156"/>
      <polygon class="st11" points="421.9 156 421.7 158.5 424.2 158.5 424.3 156 421.9 156"/>
      <polygon class="st11" points="424.3 156 424.2 158.5 426.6 158.5 426.8 156 424.3 156"/>
      <polygon class="st11" points="377.2 158.5 377 161 379.5 161 379.7 158.5 377.2 158.5"/>
      <polygon class="st11" points="382.2 158.5 382 161 384.5 161 384.6 158.5 382.2 158.5"/>
      <polygon class="st11" points="384.6 158.5 384.5 161 386.9 161 387.1 158.5 384.6 158.5"/>
      <polygon class="st11" points="389.6 158.5 389.4 161 391.9 161 392 158.5 389.6 158.5"/>
      <polygon class="st11" points="394.5 158.5 394.3 161 396.8 161 397 158.5 394.5 158.5"/>
      <polygon class="st11" points="404.4 158.5 404.2 161 406.7 161 406.9 158.5 404.4 158.5"/>
      <polygon class="st11" points="406.9 158.5 406.7 161 409.2 161 409.3 158.5 406.9 158.5"/>
      <polygon class="st11" points="409.3 158.5 409.2 161 411.6 161 411.8 158.5 409.3 158.5"/>
      <polygon class="st11" points="416.7 158.5 416.6 161 419 161 419.2 158.5 416.7 158.5"/>
      <polygon class="st11" points="424.2 158.5 424 161 426.5 161 426.6 158.5 424.2 158.5"/>
      <polygon class="st11" points="364.7 161 364.5 163.4 367 163.4 367.2 161 364.7 161"/>
      <polygon class="st11" points="372.1 161 371.9 163.4 374.4 163.4 374.6 161 372.1 161"/>
      <polygon class="st11" points="374.6 161 374.4 163.4 376.9 163.4 377 161 374.6 161"/>
      <polygon class="st11" points="377 161 376.9 163.4 379.3 163.4 379.5 161 377 161"/>
      <polygon class="st11" points="379.5 161 379.3 163.4 381.8 163.4 382 161 379.5 161"/>
      <polygon class="st11" points="382 161 381.8 163.4 384.3 163.4 384.5 161 382 161"/>
      <polygon class="st11" points="386.9 161 386.7 163.4 389.2 163.4 389.4 161 386.9 161"/>
      <polygon class="st11" points="389.4 161 389.2 163.4 391.7 163.4 391.9 161 389.4 161"/>
      <polygon class="st11" points="396.8 161 396.6 163.4 399.1 163.4 399.3 161 396.8 161"/>
      <polygon class="st11" points="404.2 161 404 163.4 406.5 163.4 406.7 161 404.2 161"/>
      <polygon class="st11" points="406.7 161 406.5 163.4 409 163.4 409.2 161 406.7 161"/>
      <polygon class="st11" points="409.2 161 409 163.4 411.5 163.4 411.6 161 409.2 161"/>
      <polygon class="st11" points="411.6 161 411.5 163.4 413.9 163.4 414.1 161 411.6 161"/>
      <polygon class="st11" points="419 161 418.9 163.4 421.3 163.4 421.5 161 419 161"/>
      <polygon class="st11" points="421.5 161 421.3 163.4 423.8 163.4 424 161 421.5 161"/>
      <polygon class="st11" points="424 161 423.8 163.4 426.3 163.4 426.5 161 424 161"/>
      <polygon class="st11" points="367 163.4 366.8 165.9 369.3 165.9 369.5 163.4 367 163.4"/>
      <polygon class="st11" points="369.5 163.4 369.3 165.9 371.8 165.9 371.9 163.4 369.5 163.4"/>
      <polygon class="st11" points="376.9 163.4 376.7 165.9 379.2 165.9 379.3 163.4 376.9 163.4"/>
      <polygon class="st11" points="381.8 163.4 381.6 165.9 384.1 165.9 384.3 163.4 381.8 163.4"/>
      <polygon class="st11" points="386.7 163.4 386.6 165.9 389 165.9 389.2 163.4 386.7 163.4"/>
      <polygon class="st11" points="389.2 163.4 389 165.9 391.5 165.9 391.7 163.4 389.2 163.4"/>
      <polygon class="st11" points="396.6 163.4 396.5 165.9 398.9 165.9 399.1 163.4 396.6 163.4"/>
      <polygon class="st11" points="401.6 163.4 401.4 165.9 403.9 165.9 404 163.4 401.6 163.4"/>
      <polygon class="st11" points="409 163.4 408.8 165.9 411.3 165.9 411.5 163.4 409 163.4"/>
      <polygon class="st11" points="413.9 163.4 413.7 165.9 416.2 165.9 416.4 163.4 413.9 163.4"/>
      <polygon class="st11" points="421.3 163.4 421.2 165.9 423.6 165.9 423.8 163.4 421.3 163.4"/>
      <polygon class="st11" points="364.3 165.9 364.2 168.4 366.6 168.4 366.8 165.9 364.3 165.9"/>
      <polygon class="st11" points="369.3 165.9 369.1 168.4 371.6 168.4 371.8 165.9 369.3 165.9"/>
      <polygon class="st11" points="376.7 165.9 376.5 168.4 379 168.4 379.2 165.9 376.7 165.9"/>
      <polygon class="st11" points="379.2 165.9 379 168.4 381.5 168.4 381.6 165.9 379.2 165.9"/>
      <polygon class="st11" points="381.6 165.9 381.5 168.4 383.9 168.4 384.1 165.9 381.6 165.9"/>
      <polygon class="st11" points="396.5 165.9 396.3 168.4 398.7 168.4 398.9 165.9 396.5 165.9"/>
      <polygon class="st11" points="403.9 165.9 403.7 168.4 406.2 168.4 406.3 165.9 403.9 165.9"/>
      <polygon class="st11" points="406.3 165.9 406.2 168.4 408.6 168.4 408.8 165.9 406.3 165.9"/>
      <polygon class="st11" points="408.8 165.9 408.6 168.4 411.1 168.4 411.3 165.9 408.8 165.9"/>
      <polygon class="st11" points="411.3 165.9 411.1 168.4 413.6 168.4 413.7 165.9 411.3 165.9"/>
      <polygon class="st11" points="413.7 165.9 413.6 168.4 416 168.4 416.2 165.9 413.7 165.9"/>
      <polygon class="st11" points="416.2 165.9 416 168.4 418.5 168.4 418.7 165.9 416.2 165.9"/>
      <polygon class="st11" points="383.9 168.4 383.8 170.9 386.2 170.9 386.4 168.4 383.9 168.4"/>
      <polygon class="st11" points="388.9 168.4 388.7 170.9 391.2 170.9 391.3 168.4 388.9 168.4"/>
      <polygon class="st11" points="393.8 168.4 393.6 170.9 396.1 170.9 396.3 168.4 393.8 168.4"/>
      <polygon class="st11" points="403.7 168.4 403.5 170.9 406 170.9 406.2 168.4 403.7 168.4"/>
      <polygon class="st11" points="413.6 168.4 413.4 170.9 415.9 170.9 416 168.4 413.6 168.4"/>
      <polygon class="st11" points="416 168.4 415.9 170.9 418.3 170.9 418.5 168.4 416 168.4"/>
      <polygon class="st11" points="421 168.4 420.8 170.9 423.3 170.9 423.5 168.4 421 168.4"/>
      <polygon class="st11" points="423.5 168.4 423.3 170.9 425.8 170.9 425.9 168.4 423.5 168.4"/>
      <polygon class="st11" points="364 170.9 363.8 173.3 366.3 173.3 366.5 170.9 364 170.9"/>
      <polygon class="st11" points="366.5 170.9 366.3 173.3 368.8 173.3 368.9 170.9 366.5 170.9"/>
      <polygon class="st11" points="368.9 170.9 368.8 173.3 371.2 173.3 371.4 170.9 368.9 170.9"/>
      <polygon class="st11" points="371.4 170.9 371.2 173.3 373.7 173.3 373.9 170.9 371.4 170.9"/>
      <polygon class="st11" points="373.9 170.9 373.7 173.3 376.2 173.3 376.3 170.9 373.9 170.9"/>
      <polygon class="st11" points="376.3 170.9 376.2 173.3 378.6 173.3 378.8 170.9 376.3 170.9"/>
      <polygon class="st11" points="378.8 170.9 378.6 173.3 381.1 173.3 381.3 170.9 378.8 170.9"/>
      <polygon class="st11" points="383.8 170.9 383.6 173.3 386.1 173.3 386.2 170.9 383.8 170.9"/>
      <polygon class="st11" points="386.2 170.9 386.1 173.3 388.5 173.3 388.7 170.9 386.2 170.9"/>
      <polygon class="st11" points="388.7 170.9 388.5 173.3 391 173.3 391.2 170.9 388.7 170.9"/>
      <polygon class="st11" points="396.1 170.9 395.9 173.3 398.4 173.3 398.6 170.9 396.1 170.9"/>
      <polygon class="st11" points="398.6 170.9 398.4 173.3 400.9 173.3 401.1 170.9 398.6 170.9"/>
      <polygon class="st11" points="401.1 170.9 400.9 173.3 403.4 173.3 403.5 170.9 401.1 170.9"/>
      <polygon class="st11" points="403.5 170.9 403.4 173.3 405.8 173.3 406 170.9 403.5 170.9"/>
      <polygon class="st11" points="408.5 170.9 408.3 173.3 410.8 173.3 410.9 170.9 408.5 170.9"/>
      <polygon class="st11" points="413.4 170.9 413.2 173.3 415.7 173.3 415.9 170.9 413.4 170.9"/>
      <polygon class="st11" points="415.9 170.9 415.7 173.3 418.2 173.3 418.3 170.9 415.9 170.9"/>
      <polygon class="st11" points="420.8 170.9 420.6 173.3 423.1 173.3 423.3 170.9 420.8 170.9"/>
      <polygon class="st11" points="423.3 170.9 423.1 173.3 425.6 173.3 425.8 170.9 423.3 170.9"/>
      <polygon class="st11" points="363.8 173.3 363.6 175.8 366.1 175.8 366.3 173.3 363.8 173.3"/>
      <polygon class="st11" points="378.6 173.3 378.5 175.8 380.9 175.8 381.1 173.3 378.6 173.3"/>
      <polygon class="st11" points="383.6 173.3 383.4 175.8 385.9 175.8 386.1 173.3 383.6 173.3"/>
      <polygon class="st11" points="393.5 173.3 393.3 175.8 395.8 175.8 395.9 173.3 393.5 173.3"/>
      <polygon class="st11" points="395.9 173.3 395.8 175.8 398.2 175.8 398.4 173.3 395.9 173.3"/>
      <polygon class="st11" points="398.4 173.3 398.2 175.8 400.7 175.8 400.9 173.3 398.4 173.3"/>
      <polygon class="st11" points="403.4 173.3 403.2 175.8 405.7 175.8 405.8 173.3 403.4 173.3"/>
      <polygon class="st11" points="413.2 173.3 413.1 175.8 415.5 175.8 415.7 173.3 413.2 173.3"/>
      <polygon class="st11" points="415.7 173.3 415.5 175.8 418 175.8 418.2 173.3 415.7 173.3"/>
      <polygon class="st11" points="420.6 173.3 420.5 175.8 422.9 175.8 423.1 173.3 420.6 173.3"/>
      <polygon class="st11" points="363.6 175.8 363.5 178.3 365.9 178.3 366.1 175.8 363.6 175.8"/>
      <polygon class="st11" points="368.6 175.8 368.4 178.3 370.9 178.3 371.1 175.8 368.6 175.8"/>
      <polygon class="st11" points="371.1 175.8 370.9 178.3 373.4 178.3 373.5 175.8 371.1 175.8"/>
      <polygon class="st11" points="373.5 175.8 373.4 178.3 375.8 178.3 376 175.8 373.5 175.8"/>
      <polygon class="st11" points="378.5 175.8 378.3 178.3 380.8 178.3 380.9 175.8 378.5 175.8"/>
      <polygon class="st11" points="383.4 175.8 383.2 178.3 385.7 178.3 385.9 175.8 383.4 175.8"/>
      <polygon class="st11" points="390.8 175.8 390.7 178.3 393.1 178.3 393.3 175.8 390.8 175.8"/>
      <polygon class="st11" points="393.3 175.8 393.1 178.3 395.6 178.3 395.8 175.8 393.3 175.8"/>
      <polygon class="st11" points="395.8 175.8 395.6 178.3 398.1 178.3 398.2 175.8 395.8 175.8"/>
      <polygon class="st11" points="398.2 175.8 398.1 178.3 400.5 178.3 400.7 175.8 398.2 175.8"/>
      <polygon class="st11" points="403.2 175.8 403 178.3 405.5 178.3 405.7 175.8 403.2 175.8"/>
      <polygon class="st11" points="405.7 175.8 405.5 178.3 407.9 178.3 408.1 175.8 405.7 175.8"/>
      <polygon class="st11" points="408.1 175.8 407.9 178.3 410.4 178.3 410.6 175.8 408.1 175.8"/>
      <polygon class="st11" points="410.6 175.8 410.4 178.3 412.9 178.3 413.1 175.8 410.6 175.8"/>
      <polygon class="st11" points="413.1 175.8 412.9 178.3 415.4 178.3 415.5 175.8 413.1 175.8"/>
      <polygon class="st11" points="415.5 175.8 415.4 178.3 417.8 178.3 418 175.8 415.5 175.8"/>
      <polygon class="st11" points="420.5 175.8 420.3 178.3 422.8 178.3 422.9 175.8 420.5 175.8"/>
      <polygon class="st11" points="363.5 178.3 363.3 180.7 365.8 180.7 365.9 178.3 363.5 178.3"/>
      <polygon class="st11" points="368.4 178.3 368.2 180.7 370.7 180.7 370.9 178.3 368.4 178.3"/>
      <polygon class="st11" points="370.9 178.3 370.7 180.7 373.2 180.7 373.4 178.3 370.9 178.3"/>
      <polygon class="st11" points="373.4 178.3 373.2 180.7 375.7 180.7 375.8 178.3 373.4 178.3"/>
      <polygon class="st11" points="378.3 178.3 378.1 180.7 380.6 180.7 380.8 178.3 378.3 178.3"/>
      <polygon class="st11" points="385.7 178.3 385.5 180.7 388 180.7 388.2 178.3 385.7 178.3"/>
      <polygon class="st11" points="388.2 178.3 388 180.7 390.5 180.7 390.7 178.3 388.2 178.3"/>
      <polygon class="st11" points="393.1 178.3 392.9 180.7 395.4 180.7 395.6 178.3 393.1 178.3"/>
      <polygon class="st11" points="400.5 178.3 400.4 180.7 402.8 180.7 403 178.3 400.5 178.3"/>
      <polygon class="st11" points="403 178.3 402.8 180.7 405.3 180.7 405.5 178.3 403 178.3"/>
      <polygon class="st11" points="410.4 178.3 410.2 180.7 412.7 180.7 412.9 178.3 410.4 178.3"/>
      <polygon class="st11" points="412.9 178.3 412.7 180.7 415.2 180.7 415.4 178.3 412.9 178.3"/>
      <polygon class="st11" points="415.4 178.3 415.2 180.7 417.7 180.7 417.8 178.3 415.4 178.3"/>
      <polygon class="st11" points="417.8 178.3 417.7 180.7 420.1 180.7 420.3 178.3 417.8 178.3"/>
      <polygon class="st11" points="363.3 180.7 363.1 183.2 365.6 183.2 365.8 180.7 363.3 180.7"/>
      <polygon class="st11" points="368.2 180.7 368.1 183.2 370.5 183.2 370.7 180.7 368.2 180.7"/>
      <polygon class="st11" points="370.7 180.7 370.5 183.2 373 183.2 373.2 180.7 370.7 180.7"/>
      <polygon class="st11" points="373.2 180.7 373 183.2 375.5 183.2 375.7 180.7 373.2 180.7"/>
      <polygon class="st11" points="378.1 180.7 378 183.2 380.4 183.2 380.6 180.7 378.1 180.7"/>
      <polygon class="st11" points="383.1 180.7 382.9 183.2 385.4 183.2 385.5 180.7 383.1 180.7"/>
      <polygon class="st11" points="395.4 180.7 395.2 183.2 397.7 183.2 397.9 180.7 395.4 180.7"/>
      <polygon class="st11" points="400.4 180.7 400.2 183.2 402.7 183.2 402.8 180.7 400.4 180.7"/>
      <polygon class="st11" points="412.7 180.7 412.5 183.2 415 183.2 415.2 180.7 412.7 180.7"/>
      <polygon class="st11" points="422.6 180.7 422.4 183.2 424.9 183.2 425.1 180.7 422.6 180.7"/>
      <polygon class="st11" points="363.1 183.2 363 185.7 365.4 185.7 365.6 183.2 363.1 183.2"/>
      <polygon class="st11" points="378 183.2 377.8 185.7 380.2 185.7 380.4 183.2 378 183.2"/>
      <polygon class="st11" points="382.9 183.2 382.7 185.7 385.2 185.7 385.4 183.2 382.9 183.2"/>
      <polygon class="st11" points="385.4 183.2 385.2 185.7 387.7 185.7 387.8 183.2 385.4 183.2"/>
      <polygon class="st11" points="390.3 183.2 390.1 185.7 392.6 185.7 392.8 183.2 390.3 183.2"/>
      <polygon class="st11" points="395.2 183.2 395.1 185.7 397.5 185.7 397.7 183.2 395.2 183.2"/>
      <polygon class="st11" points="397.7 183.2 397.5 185.7 400 185.7 400.2 183.2 397.7 183.2"/>
      <polygon class="st11" points="400.2 183.2 400 185.7 402.5 185.7 402.7 183.2 400.2 183.2"/>
      <polygon class="st11" points="402.7 183.2 402.5 185.7 405 185.7 405.1 183.2 402.7 183.2"/>
      <polygon class="st11" points="407.6 183.2 407.4 185.7 409.9 185.7 410.1 183.2 407.6 183.2"/>
      <polygon class="st11" points="412.5 183.2 412.4 185.7 414.8 185.7 415 183.2 412.5 183.2"/>
      <polygon class="st11" points="415 183.2 414.8 185.7 417.3 185.7 417.5 183.2 415 183.2"/>
      <polygon class="st11" points="420 183.2 419.8 185.7 422.3 185.7 422.4 183.2 420 183.2"/>
      <polygon class="st11" points="363 185.7 362.8 188.2 365.2 188.2 365.4 185.7 363 185.7"/>
      <polygon class="st11" points="365.4 185.7 365.2 188.2 367.7 188.2 367.9 185.7 365.4 185.7"/>
      <polygon class="st11" points="367.9 185.7 367.7 188.2 370.2 188.2 370.4 185.7 367.9 185.7"/>
      <polygon class="st11" points="370.4 185.7 370.2 188.2 372.7 188.2 372.8 185.7 370.4 185.7"/>
      <polygon class="st11" points="372.8 185.7 372.7 188.2 375.1 188.2 375.3 185.7 372.8 185.7"/>
      <polygon class="st11" points="375.3 185.7 375.1 188.2 377.6 188.2 377.8 185.7 375.3 185.7"/>
      <polygon class="st11" points="377.8 185.7 377.6 188.2 380.1 188.2 380.2 185.7 377.8 185.7"/>
      <polygon class="st11" points="382.7 185.7 382.5 188.2 385 188.2 385.2 185.7 382.7 185.7"/>
      <polygon class="st11" points="385.2 185.7 385 188.2 387.5 188.2 387.7 185.7 385.2 185.7"/>
      <polygon class="st11" points="387.7 185.7 387.5 188.2 390 188.2 390.1 185.7 387.7 185.7"/>
      <polygon class="st11" points="390.1 185.7 390 188.2 392.4 188.2 392.6 185.7 390.1 185.7"/>
      <polygon class="st11" points="392.6 185.7 392.4 188.2 394.9 188.2 395.1 185.7 392.6 185.7"/>
      <polygon class="st11" points="395.1 185.7 394.9 188.2 397.4 188.2 397.5 185.7 395.1 185.7"/>
      <polygon class="st11" points="402.5 185.7 402.3 188.2 404.8 188.2 405 185.7 402.5 185.7"/>
      <polygon class="st11" points="405 185.7 404.8 188.2 407.3 188.2 407.4 185.7 405 185.7"/>
      <polygon class="st11" points="409.9 185.7 409.7 188.2 412.2 188.2 412.4 185.7 409.9 185.7"/>
      <polygon class="st11" points="419.8 185.7 419.6 188.2 422.1 188.2 422.3 185.7 419.8 185.7"/>
      <polygon class="st11" points="422.3 185.7 422.1 188.2 424.6 188.2 424.7 185.7 422.3 185.7"/>
    </g>
  </g>
  <g id="freepik--Character--inject-240">
    <polygon class="st10" points="250.9 520 264.9 516.6 257.6 484 243.6 487.4 250.9 520"/>
    <path class="st11" d="M264.3,513.2l-15.3,3.7c-.6,0-1,.6-.9,1.2l.5,13c0,1.2,1.1,2.1,2.3,2h.4c5.4-1.4,13.4-3.7,20.3-5.4,8.1-2,8.9-1.7,18.4-4,5.7-1.4,5.8-7.5,3.3-7.5-11.6.3-14.3.6-25.3-2.9-1.2-.4-2.4-.5-3.6-.2h0Z"/>
    <polygon class="st4" points="257.6 484.1 261.4 500.8 247.4 504.2 243.6 487.4 257.6 484.1"/>
    <path class="st9" d="M266.1,512.3c-.1,0-.2,0-.3,0-.1,0-.1-.3,0-.5h0c.5-.5,5.4-4.6,7.3-4.1.4.1.6.4.8.7.3.6.2,1.3-.2,1.8-.8.9-1.9,1.5-3.2,1.7-1.5.3-2.9.4-4.4.5h0ZM267,511.6c3.2-.2,5.4-.9,6.1-1.8.2-.3.3-.8.1-1.1,0-.1-.1-.3-.3-.3h-.6c-1.9.8-3.7,1.9-5.2,3.3h-.1Z"/>
    <path class="st9" d="M265.9,512.3c-.1,0-.2-.2-.2-.3s-.6-4,.7-5.8c.4-.6,1-.9,1.7-1,.9-.1,1.4.3,1.5.6.7,1.5-1.8,5.2-3.3,6.4h-.4ZM267,506.7c-.7,1.4-.9,3.1-.6,4.7,1.4-1.4,3-4.3,2.6-5.2,0,0-.1-.4-.7-.2h-.2c-.5,0-.9.3-1.1.7h0Z"/>
    <polygon class="st10" points="143.1 517.2 157.3 519.4 163.1 486.6 148.8 484.3 143.1 517.2"/>
    <path class="st11" d="M157.4,517.7l-15.6-2.4c-.6,0-1.1.2-1.3.8l-4.5,12.2c-.4,1.1.2,2.3,1.3,2.7h0c.1,0,.3,0,.4,0,5.6.8,13.8,1.7,20.8,2.8,8.2,1.3,8.8,1.8,18.5,3.4,5.8.9,8.2-4.8,5.9-5.7-10.8-4.2-13.4-4.9-22.2-12.3-.9-.8-2.1-1.4-3.3-1.6h0Z"/>
    <polygon class="st4" points="163.1 486.6 159.7 505.6 145.5 503.4 148.8 484.3 163.1 486.6"/>
    <path class="st9" d="M159.4,517.5c-.1,0-.2,0-.2-.2,0-.2,0-.4.2-.4h0c.7-.2,6.7-2.2,8.3-1,.3.2.5.6.4,1,0,.6-.3,1.2-.8,1.5-1.1.5-2.4.6-3.6.3-1.5-.3-2.9-.7-4.3-1.2h0ZM160.5,517.2c3,1,5.4,1.2,6.3.6s.5-.6.5-1,0-.3-.1-.4c-.2,0-.4-.2-.6-.2-2.1,0-4.1.3-6.1,1h0Z"/>
    <path class="st9" d="M159.2,517.4s-.1-.2,0-.3c0,0,1-3.9,2.9-5.1.6-.4,1.3-.5,1.9-.3.9.2,1.2.8,1.1,1.1,0,1.7-3.7,4.2-5.5,4.7h-.4ZM162.4,512.6c-1.2,1.1-2,2.5-2.4,4.1,1.8-.8,4.5-2.8,4.4-3.8,0,0,0-.4-.6-.5h-.2c-.4,0-.9,0-1.2.3h0Z"/>
    <path class="st9" d="M213.2,308.9c11.2.6,21.6,1.3,32.8,1,1.1-13.1-.6-31.7-5.2-44-9.3-5-20.2-1.8-30.1,1.7l2.5,41.3Z"/>
    <path class="st4" d="M213.2,308.9c11.2.6,21.6,1.3,32.8,1,1.1-13.1-.6-31.7-5.2-44-9.3-5-20.2-1.8-30.1,1.7l2.5,41.3Z"/>
    <polygon class="st4" points="210.7 267.7 214.5 269.4 219.8 305.4 246.2 307 246 310 213.2 309.1 210.7 267.7"/>
    <path class="st7" d="M240.8,265.9l1.6,4.9-9.2,3.4-15.1-2.4-7.4-4.3c5-2.3,10.4-3.7,15.8-4.2,9.6-1.1,14.3,2.5,14.3,2.5h0Z"/>
    <path class="st9" d="M229.8,206.4l20.6,173.3,15.3,109.3c.5,2.7-1.3,5.4-4,6l-17,4.3c-2.6.2-4.9-1.6-5.4-4.2-5.4-22.6-19.9-66.7-22.6-109.9,0,0-28.7-110.4-34.7-144.6l-1.8-30.9,49.6-3.4h0Z"/>
    <path class="st4" d="M204.4,248.2s5.2,49.1,0,89.1c0,0-11-45.8-16.1-63.9l16.1-25.2Z"/>
    <path class="st9" d="M208.4,197.9l-17.3,195.5-22,104.4c-.3,2.5-2.6,4.2-5.1,3.9h-.3l-18.6-3.9c-2.5-.8-4.2-3.2-3.9-5.9,1.8-22.5.7-59.3,11.7-99.1,0,0,1.2-134.7,5.9-194.6l49.6-.4h0Z"/>
    <path class="st15" d="M317,109.9l3.8-5.2,13.6,8.4c-2.8,2.4-5.8,4.4-9,6.1-2.2,1.1-4.8.9-6.8-.6l-.5-.4c-2.5-2-3-5.6-1.1-8.2h0Z"/>
    <polygon class="st15" points="331.8 96.9 338.9 109.3 334.4 113 320.8 104.6 331.8 96.9"/>
    <path class="st11" d="M223.4,124.6c14.2,3.3,28.6,5.9,43.1,7.7,7.2.9,37.8-6.1,51-8.4,1.4,0,2.7-1,2.7-2.5s0-.8-.2-1.2l-1.6-11.5c0-1.1-.4-2.2-1.1-3.1-1.3-.9-3-1.2-4.6-.7-17.5,2.9-42.5,4.7-42.5,4.7-12.4-1.8-25.6-6.9-36.9-12-33.7-15.2-17.5,25.1-10,27h.1Z"/>
    <path class="st2" d="M223.4,124.6c14.2,3.3,28.6,5.9,43.1,7.7,7.2.9,37.8-6.1,51-8.4,1.4,0,2.7-1,2.7-2.5s0-.8-.2-1.2l-1.6-11.5c0-1.1-.4-2.2-1.1-3.1-1.3-.9-3-1.2-4.6-.7-17.5,2.9-42.5,4.7-42.5,4.7-12.4-1.8-25.6-6.9-36.9-12-33.7-15.2-17.5,25.1-10,27h.1Z"/>
    <polygon class="st9" points="343.5 119.9 328 116.9 337.5 84.3 353 87.4 343.5 119.9"/>
    <path class="st9" d="M356.2,86.2l-10.6,36.4c-.3.9-1.2,1.4-2.1,1.2l-.9-.2c.9.2,1.8-.4,2-1.2l10.6-36.4c.3-1-.3-1.9-1.2-2.2h-.1l.9.2c1,.2,1.6,1.1,1.4,2.1v.2h0Z"/>
    <path class="st1" d="M356.2,86.2l-10.6,36.4c-.3.9-1.2,1.4-2.1,1.2l-.9-.2c.9.2,1.8-.4,2-1.2l10.6-36.4c.3-1-.3-1.9-1.2-2.2h-.1l.9.2c1,.2,1.6,1.1,1.4,2.1v.2h0Z"/>
    <path class="st9" d="M354,83.7l-15.4-3.1c-.9-.2-1.8.4-2.1,1.2l-10.6,36.4c-.3,1,.3,1.9,1.2,2.2h.1l15.5,3.1c.9.2,1.8-.4,2-1.2l10.6-36.4c.3-1-.3-1.9-1.2-2.2h-.1ZM343.6,119.9l-15.5-3.1,9.5-32.5,15.5,3.1-9.4,32.6h-.1Z"/>
    <polygon class="st9" points="353 87.4 343.5 119.9 328 116.9 337.5 84.3 353 87.4"/>
    <polygon class="st5" points="353 87.4 343.5 119.9 328 116.9 337.5 84.3 353 87.4"/>
    <path class="st15" d="M327.6,99.9l3.5-3.7c.2-.3.6-.3.9,0,0,0,.1.2.2.3l.5,1.4c.3.9.2,1.9-.3,2.6l-5.3,8.3-6.2-4.2,6.8-4.8h-.1Z"/>
    <path class="st11" d="M232.4,144.7c.3,47.3,3.1,65.1-3.9,65.1-13.1,0-60.8,1.8-63.6,1.3-20.6-2.9-8-49.8-8.2-57.2-.2-4.5-.6-9-1.1-13.5-.3-2.7-.9-5.3-1.8-7.9-1.5-4.3-4-8.1-8.2-9.5-3.8-1.3-7.9-.2-11.9-.4s-8.5-3-8-7c.4-1.8,1.4-3.5,2.8-4.8,5.8-6.2,12.3-12.3,14.6-20.4,1-3.4,1.2-7.2,3.1-10.1,7.9-12.2,26.9-.3,36.3,3.2,6.1,2.2,11.5,5.6,17.6,7.8,6.3,2.4,17.4,2.9,25.5,3.3,7.3.3,6.8,50.1,6.8,50.1h0Z"/>
    <path class="st15" d="M178.8,66.8c2,8,1.5,21,1.6,29.9,0,8.3,21.6,15.3,21.6,15.3,0,0,8.9-7.5,2-13.1-5.8-4.7-6.6-10.2-5.4-16.8l-19.8-15.3h0Z"/>
    <path class="st4" d="M187,73.1l11.8,9c-.4,1.8-.6,3.7-.7,5.6-4.3-.4-10.4-4.8-11.1-9.2-.3-1.8-.3-3.6,0-5.4Z"/>
    <path class="st15" d="M176.9,51.8c1.5,13.5,1.8,21.5,9,28.1,10.8,9.9,27.2,2.9,29.8-10.8,2.3-12.3-.6-32.3-14.1-37-9.6-3.4-20.2,1.7-23.6,11.3-1,2.7-1.3,5.6-.9,8.5h-.2Z"/>
    <path class="st11" d="M216.3,65.1c.7,5.3,1.6,14.6,3.2,19.8-9.2,0-18,.5-27.2.4-1.3-1-12.6-10.8-11.8-11.7,3.1-3.2,7-6.8,3.3-10.5-1.1-1.1-.5-3.1-.7-4.7,3.3,5,16.2,8.7,22,7.6l11.2-1h0Z"/>
    <path class="st15" d="M201.8,67.8c-2,.7.9,3.6,4,3.8h5.6c1.4,0,2.6-.6,3.3-1.8.6-1.1.6-2.2-.3-2.5-1.3-.4-2.8-.5-4.2-.4-2.8,0-5.6.3-8.4.9h0Z"/>
    <path class="st11" d="M212,69h0c-3.1.9-6.4.3-9-1.7-.1,0-.1-.3,0-.5h.4c2.4,1.8,5.5,2.4,8.4,1.5.2,0,.4,0,.4.2h0c0,.2,0,.4-.3.4h.1Z"/>
    <path class="st11" d="M209.7,61.3c-2.9,0-5.8.6-8.4,1.9-2.6,1.4-5.6,1.9-8.5,1.5,2.5,1.8,5.4,3,8.4,3.3,3.1.4,6.3-.2,9.1-1.7,3.3,2,7.4,2.4,11,1-3.4.8-4.8-3.8-8.3-5.5-1.1-.3-2.2-.6-3.3-.7v.2Z"/>
    <path class="st2" d="M209.7,61.3c-2.9,0-5.8.6-8.4,1.9-2.6,1.4-5.6,1.9-8.5,1.5,2.5,1.8,5.4,3,8.4,3.3,3.1.4,6.3-.2,9.1-1.7,3.3,2,7.4,2.4,11,1-3.4.8-4.8-3.8-8.3-5.5-1.1-.3-2.2-.6-3.3-.7v.2Z"/>
    <path class="st11" d="M188.5,48.7c.9,1.5,1.3,3.2,1.3,5-1.4,1.4-2.7,3-3.7,4.7-1.5,2.5-2,5.7-4,7.9,0,0-.4.3-.4.2-1.6-2.9-3-5.9-4.3-9,3.1-3.6,6.9-6.6,11.1-8.8h0Z"/>
    <path class="st15" d="M171.9,65c1.5,3.1,4.2,5.4,7.4,6.6,4.3,1.5,6.7-2.3,5.7-6.5-.9-3.7-4.2-9-8.6-8.7-3.2.3-5.5,3.1-5.2,6.3,0,.8.3,1.6.7,2.3h0Z"/>
    <path class="st11" d="M199.9,54.6c0,1.1.7,2,1.4,1.9s1.3-1,1.2-2-.7-2-1.4-1.9-1.3,1-1.2,2.1h0Z"/>
    <path class="st11" d="M211.4,53.9c0,1.1.7,2,1.4,1.9s1.3-1,1.2-2.1-.7-1.9-1.4-1.9-1.2,1-1.2,2h0Z"/>
    <path class="st14" d="M207.8,53.3c2.1,3,4.5,4.4,7.2,6.7-1.5,2.2-5.1,2-5.1,2l-2.1-8.6h0Z"/>
    <path class="st11" d="M195.9,50.8c.2,0,.5,0,.6-.3.9-1.4,2.4-2.3,4-2.4.4,0,.6-.3.7-.6,0-.3-.2-.6-.6-.7h0c-2.1,0-4,1.2-5.1,2.9-.2.3-.1.7.2.9,0,0,.2,0,.3,0h0Z"/>
    <path class="st11" d="M215.2,50.1h.4c.3-.2.4-.5.3-.8h0c-1-1.9-2.8-3.2-4.9-3.4-.4,0-.7.3-.7.6s.2.7.6.7h0c1.6.3,3,1.3,3.8,2.7.1.2.4.3.6.3h-.1Z"/>
    <path class="st3" d="M166.4,112.1s.7,24.3-4.1,35.5c-1.9,4.5-3.8,6.8-5.3,7.9-.7-4.5-1.6-9-2.7-13.3-.7-2.6-1.6-5.2-2.7-7.6l-.4-5.6,15.3-16.9h-.1Z"/>
    <path class="st4" d="M170.7,213.7c-.2.8-.6,4.8-1.2,7.5-1.4,5.1-4.7,9.6-9.2,12.5-3.6,1.9-1.5-14.8-1.5-14.8l.7-5.8,11.2.7h0Z"/>
    <path class="st15" d="M156,213.7l13.8,6.3h0c-1,5.2-3.9,9.8-8.2,12.8l-1.2.8s-13.4-12.8-11.6-16.6l7.2-3.3Z"/>
    <path class="st11" d="M128.5,172c0,19.9,6.8,27.2,12.6,44.3,1.2,3.5,4.8,5.5,8.4,4.7,6.6-1.5,13.1-6.3,9-14.9,0,0-4-11.1-6.7-33-.5-3-.5-6,0-9,2-8.5,10-25.3,11.8-36.6,1.6-9.6,3.6-21.7-1-25.7-21.3-18.8-34.2,32.1-34.2,70.2h0Z"/>
    <path class="st3" d="M153,92.7h0c.5,2.4,2.9,3.9,5.3,3.4.3,0,.6-.2.9-.3,4.3-2.1,16.4,1.9,21.2.9v-8.3c0-1.8-16.2-8-20.9-8.4-8.1-.6-8,6.2-6.5,12.6h0Z"/>
    <path class="st9" d="M213.4,44.4c-5.1-2.9-11.4-1.8-16.5.8-4.4,2.6-8.4,5.8-11.9,9.6-3.8,3.7-7.5,7.2-11.2,10.8-.8.8-2.2.8-3,0s-.3-.4-.4-.6c-.4-.9-.8-1.8-1.4-2.7-.3-.5-.4-1.2-.2-1.8.4-1.4.9-2.7,1.3-4.1-3.2-9.8-1.3-20.6,5-28.7,4.2-5.4,12.3-5.4,18.9-4,6.7,1.5,12.5,5.7,16.1,11.6,1.4-.4,2.9,0,4,1,1.2.9,2,2.1,2.5,3.5.6,1.3.6,2.8,0,4.1-.7,1-2.1,1.3-3.1.7v-.2Z"/>
    <path class="st12" d="M203.7,32.9c.9,1,1.6,2.3,2.1,3.6-2.6,0-5.2.6-7.5,1.6-.5-1.3-1.2-2.5-2.1-3.6,2.6-.6,4.9-1,7.5-1.6Z"/>
    <path class="st9" d="M171.9,308.9c-11.2.6-21.6,1.3-32.8,1-1.1-13.1.6-31.7,5.2-44,9.3-5,20.2-1.8,30.1,1.7l-2.5,41.3Z"/>
    <polygon class="st4" points="174.4 267.7 170.6 269.4 165.4 305.4 138.9 307 139.1 310 171.9 309.1 174.4 267.7"/>
    <path class="st7" d="M144.3,265.9l-1.6,4.9,9.2,3.4,15.1-2.4,7.4-4.3c-5-2.3-10.4-3.7-15.8-4.2-9.5-1.1-14.3,2.5-14.3,2.5h0Z"/>
  </g>
</svg>