<?xml version="1.0" encoding="UTF-8"?>
<svg id="Layer_1" xmlns="http://www.w3.org/2000/svg" version="1.1" viewBox="0 0 600 225">
  <!-- Generator: Adobe Illustrator 29.8.2, SVG Export Plug-In . SVG Version: 2.1.1 Build 3)  -->
  <defs>
    <style>
      .st0 {
        fill: #e0e0e0;
      }

      .st1 {
        isolation: isolate;
      }

      .st1, .st2 {
        opacity: .1;
      }

      .st3 {
        fill: #ff603b;
      }

      .st4 {
        fill: #263238;
      }

      .st5 {
        fill: #fff;
      }

      .st6 {
        fill: #ffe4d6;
      }

      .st7 {
        fill: #fafafa;
      }

      .st8 {
        opacity: .3;
      }

      .st9 {
        fill: #a2675f;
      }

      .st10 {
        fill: #455a64;
      }

      .st11 {
        fill: #7a4a45;
      }
    </style>
  </defs>
  <path class="st4" d="M252.9,257.4h-84.8c-10.2,0-18.5-8.3-18.5-18.5V26.3c0-10.2,8.3-18.5,18.5-18.5h84.8c10.2,0,18.5,8.3,18.5,18.5v212.6c0,10.2-8.3,18.5-18.5,18.5Z"/>
  <path class="st6" d="M252.9,15.4h-16.4c-2.3,0-4,1.9-4,4.2,0,0,0,0,0,0v3c0,2.3-1.7,4.1-4,4.2,0,0,0,0,0,0h-32.1c-2.3,0-4-1.9-4-4.2h0v-3c0-2.3-1.7-4.1-4-4.2,0,0,0,0,0,0h-20.2c-7.1,0-12.9,5.8-12.9,12.9v207.5c0,7.1,5.7,12.9,12.9,12.9h84.6c7.1,0,12.9-5.7,12.9-12.9h0s0-207.5,0-207.5c0-7.1-5.8-12.9-12.9-12.9s0,0,0,0Z"/>
  <path class="st4" d="M164.1,43.5h2.2s0,0,0,0v-1.9c0-.3.3-.5.6-.5h.8c.3,0,.6.3.6.6v1.7h0c0,0,2.1,0,2.1,0h0c0-.7,0-1.6,0-2.5v-.7c0-.2-.1-.3-.3-.5l-.9-.9-.9-.9-.4-.4c-.1-.1-.3-.3-.4-.3-.2,0-.3,0-.5,0-.1.1-.3.3-.4.4l-.7.7c-.5.5-.9.9-1.3,1.3-.1.2-.1.5,0,.8v2.6c0,0,0,.2,0,.3,0,0,0-.2,0-.2v-.7c0-.3,0-.7,0-1.2v-.7c0-.3,0-.6.1-.8.4-.5.8-.9,1.3-1.4l.7-.8c.1-.1.2-.3.4-.4.2-.1.4-.2.6-.1.2,0,.4.2.5.4.1.1.3.3.4.4l.9.9.9.9c.2.1.3.4.3.6v3.2h0c0,0-.1,0-.1,0h-2.2v-1.8c0-.2-.2-.4-.4-.5h-.7c-.2,0-.4.2-.4.4v1.9h0c0,0,0,0,0,0h-2.1c-.2,0-.3,0-.3,0Z"/>
  <path class="st4" d="M205.4,41.9c0,.5-.4.8-1.2.8h-1.5v-3h1.4c.7,0,1.1.3,1.1.8,0,.3-.1.5-.4.6.3,0,.6.4.5.7ZM203.4,40.3v.7h.7c.3,0,.5-.1.5-.3s-.2-.3-.5-.3h-.7ZM204.7,41.9c0-.2-.2-.4-.5-.4h-.8v.7h.8c.3,0,.5,0,.5-.3Z"/>
  <path class="st4" d="M207.9,42.1h-1.4l-.3.6h-.7l1.3-3h.7l1.3,3h-.7l-.3-.6ZM207.7,41.6l-.5-1.1-.5,1.1h.9Z"/>
  <path class="st4" d="M211.9,39.8v3h-.6l-1.5-1.8v1.8h-.7v-3h.6l1.5,1.8v-1.8h.7Z"/>
  <path class="st4" d="M213.6,41.6l-.4.4v.7h-.7v-3h.7v1.4l1.3-1.4h.8l-1.2,1.3,1.3,1.6h-.8l-.9-1.2Z"/>
  <path class="st4" d="M253.8,38.2c0,.3-.3.6-.6.6-.3,0-.6-.3-.6-.6,0-.3.3-.6.6-.6,0,0,0,0,0,0,.3,0,.6.3.6.6,0,0,0,0,0,0Z"/>
  <path class="st4" d="M253.8,40.4c0,.3-.3.6-.6.6s-.6-.3-.6-.6.3-.6.6-.6.6.3.6.6h0Z"/>
  <path class="st4" d="M253.8,42.6c0,.3-.3.6-.6.6s-.6-.3-.6-.6c0-.3.3-.6.6-.6.3,0,.6.3.6.6,0,0,0,0,0,0Z"/>
  <g class="st2">
    <path class="st5" d="M211.1,83.8c-12,.4-21.5,10.5-21.1,22.6,0,0,0,0,0,0,0,0,15.4.1,18.9-6.2,3.5-6.3,2.2-16.4,2.2-16.4Z"/>
  </g>
  <path class="st4" d="M212.5,122.5h.5s.6-.1.6-.1c.3,0,.6,0,.9-.1l1.1-.2c.2,0,.4,0,.6-.2l.6-.2c.2,0,.5-.1.7-.2l.7-.3c.2-.1.5-.2.7-.3l.8-.4c1.1-.6,2.2-1.3,3.1-2.2l.8-.7c.1-.1.3-.2.4-.4s.2-.3.4-.4c.2-.3.5-.6.7-.9l.7-.9.2-.2c0,0,0-.2.1-.3l.3-.5.3-.5c.1-.2.2-.4.3-.6.2-.4.3-.7.5-1.1l.4-1.2c.5-1.7.7-3.4.6-5.2,0-1.7-.4-3.5-1-5.1-.2-.4-.3-.8-.5-1.2s-.4-.7-.6-1.1c0-.2-.2-.4-.3-.5l-.3-.5-.3-.5c0,0-.1-.2-.2-.2l-.2-.2-.7-.9c-.3-.3-.5-.5-.8-.8l-.4-.4c-.1-.1-.3-.2-.4-.4l-.8-.7c-1-.8-2.1-1.4-3.3-2l-.8-.3c-.3-.1-.5-.2-.8-.3l-.7-.2c-.2,0-.5-.1-.7-.2l-.7-.2c-.2,0-.4,0-.6-.1h-1.1c-.3-.2-.6-.2-.9-.2h-1,1c.3,0,.6,0,.9,0h1.1c.2.1.4.2.6.2h.7c.2.2.5.2.7.3l.7.2c.3,0,.5.2.8.3l.8.3c1.2.5,2.3,1.2,3.3,2l.8.7.4.4.4.4c.3.3.5.5.8.8l.7.9.2.2.2.3.3.5.3.5c.1.2.2.4.3.5.2.4.4.7.6,1.1l.5,1.2c1.2,3.3,1.4,7,.4,10.4l-.4,1.2c-.2.4-.3.8-.5,1.1,0,.2-.2.4-.3.6s-.2.3-.3.5l-.3.5c0,0,0,.2-.2.3l-.2.2-.7.9c-.2.3-.5.6-.7.9l-.4.4c-.1.1-.3.3-.4.4l-.8.7c-1,.8-2,1.6-3.2,2.2l-.8.4c-.3.1-.5.2-.8.3l-.7.3c-.2,0-.5.2-.7.2l-.7.2c-.2,0-.4.1-.6.2l-1.1.2c-.3,0-.6,0-.9.1h-.6s-.4,0-.4,0h-.2Z"/>
  <path class="st5" d="M193.7,116.5c0,0,0-.1-.1-.2l-.3-.5c-.1-.2-.3-.5-.4-.8s-.3-.7-.5-1.1l-.3-.6c0-.2-.2-.5-.2-.7-.2-.5-.3-1-.5-1.6-.3-1.2-.5-2.5-.6-3.7,0-1.3,0-2.5,0-3.8,0-.6.1-1.1.2-1.6,0-.3,0-.5.1-.7l.2-.7c0-.4.2-.8.3-1.1,0-.3.2-.6.3-.8l.2-.5c0-.1,0-.2,0-.2,0,0,0,.1,0,.2l-.2.5c0,.2-.2.5-.3.8s-.2.7-.3,1.1c0,.2,0,.4-.1.7s0,.5-.1.7c0,.5-.1,1-.2,1.6-.1,1.2-.1,2.5,0,3.7.1,1.2.3,2.5.6,3.7.2.6.3,1.1.5,1.6,0,.2.2.5.2.7l.2.6c.2.4.3.8.5,1.1s.3.6.4.8l.3.5c0,0,0,.1,0,.2Z"/>
  <path class="st5" d="M207,103.7c-.2-.1-.4-.3-.5-.5-.7-.9-.7-2.2,0-3.1.1-.2.3-.4.5-.5,0,0-.2.2-.4.5-.3.4-.5,1-.5,1.5,0,.5.2,1,.5,1.5.2.3.4.5.4.5Z"/>
  <path class="st5" d="M210.5,97.3s0-.3-.1-.7,0-.7,0-.7c0,.2.1.5.1.7,0,.2,0,.5,0,.7Z"/>
  <path class="st5" d="M212.4,88.2c-.2,0-.4,0-.5,0h-1.5c-.3,0-.6,0-1,0s-.7,0-1.1.2c-1.7.3-3.4.9-5,1.7-.4.2-.7.4-1,.6s-.6.4-.8.5-.5.3-.7.5-.4.3-.5.4c-.1.1-.3.2-.4.3.1-.1.2-.3.4-.4.1-.1.3-.3.5-.4s.4-.3.7-.5.5-.4.8-.6.6-.4,1-.6c.8-.4,1.6-.8,2.4-1,.8-.3,1.7-.5,2.6-.6.4,0,.8-.1,1.2-.1s.7,0,1,0,.6,0,.8,0c.2,0,.4,0,.6,0,.2,0,.4,0,.5,0Z"/>
  <path class="st5" d="M215.3,126.2c-.1,0-.3,0-.4.1-.3,0-.6.1-1.1.2-1.2.2-2.4.3-3.6.2-1.2,0-2.4-.3-3.6-.7-.4-.1-.8-.3-1-.4-.1,0-.2,0-.4-.2.1,0,.3,0,.4.1.2,0,.6.2,1,.3,2.3.6,4.7.8,7.1.5.5,0,.8-.1,1.1-.2.1,0,.3,0,.4,0Z"/>
  <path class="st3" d="M236.8,105.5s0-.1,0-.4,0-.7,0-1.2c0-.3,0-.6,0-.9s-.1-.7-.2-1c-.1-.9-.3-1.7-.5-2.6-.6-2.3-1.5-4.6-2.8-6.6-3.7-6.1-9.8-10.3-16.8-11.6-1-.2-2.1-.3-3.1-.4-.5,0-1.1,0-1.6,0h-1.6c-.3,0-.6,0-.8.1h-.8c-.6.2-1.1.3-1.7.4-2.3.5-4.5,1.3-6.5,2.4-.5.3-1,.6-1.5.9-.5.3-1,.6-1.5,1-1,.7-1.9,1.5-2.8,2.4-.9.9-1.7,1.9-2.4,2.9-1.5,2.1-2.7,4.4-3.5,6.8-1.7,5.1-1.7,10.5,0,15.6l.7,1.8c.3.6.6,1.2.8,1.7.1.3.3.6.5.8l.5.8.5.8.6.8c1.4,2,3.2,3.8,5.2,5.3.5.4,1,.7,1.5,1,.5.3,1,.6,1.5.9,2.1,1.1,4.3,1.9,6.5,2.4.6.1,1.1.2,1.7.3h.8c.3.1.6.1.8.2h1.6c.5,0,1.1,0,1.6,0,1,0,2.1-.2,3.1-.4,7-1.3,13.1-5.5,16.8-11.6,1.3-2,2.2-4.3,2.8-6.6.2-.8.4-1.7.5-2.6,0-.4.1-.7.2-1s0-.6,0-.9c0-.5,0-.9,0-1.2s0-.4,0-.4v.4c0,.3,0,.7,0,1.2v.9c0,.3-.1.7-.2,1,0,.9-.3,1.7-.5,2.6-.6,2.3-1.5,4.6-2.7,6.7-3.7,6.2-9.8,10.5-16.9,11.9-1,.2-2.1.3-3.2.4-.5,0-1.1,0-1.6,0h-1.7c-.3,0-.6,0-.8-.1h-.8c-.6-.2-1.1-.3-1.7-.4-1.1-.3-2.3-.6-3.3-1-1.1-.4-2.2-.9-3.3-1.4-.5-.3-1-.6-1.6-.9-.5-.3-1-.7-1.5-1-1-.7-2-1.5-2.8-2.4-.9-.9-1.7-1.9-2.5-2.9l-.6-.8-.5-.8-.5-.8c-.2-.3-.3-.6-.5-.9-.3-.6-.6-1.2-.9-1.8s-.5-1.2-.7-1.9c-1.7-5.1-1.7-10.7,0-15.8.8-2.5,2-4.8,3.6-6.9,1.5-2.1,3.3-3.9,5.3-5.3.5-.4,1-.7,1.5-1,.5-.3,1-.6,1.6-.9,1.1-.6,2.2-1,3.3-1.4,1.1-.4,2.2-.7,3.3-1,.6-.1,1.1-.2,1.7-.3h.8c.3-.2.6-.2.8-.2h1.7c.5,0,1.1,0,1.6,0,1.1,0,2.1.2,3.2.4,7.1,1.4,13.2,5.7,16.8,11.9,1.2,2.1,2.2,4.3,2.7,6.7.2.8.4,1.7.5,2.6,0,.4.1.7.1,1v.9c0,.5,0,.9,0,1.2s0,.3,0,.3Z"/>
  <path class="st3" d="M240.3,105.9s0-.2,0-.5,0-.8,0-1.3c0-.3,0-.6,0-1s-.1-.8-.2-1.2-.1-.9-.2-1.4c0-.5-.2-1-.4-1.6-.7-2.7-1.7-5.2-3.1-7.5-1.9-3.1-4.3-5.8-7.2-8l-1.2-.9c-.4-.3-.9-.5-1.3-.8s-.9-.6-1.4-.8l-1.5-.7-.7-.4-.8-.3-1.6-.6c-.5-.2-1.1-.3-1.7-.4-.6-.2-1.1-.3-1.7-.4-1.2-.2-2.4-.4-3.6-.4-.6,0-1.2,0-1.8,0h-1.9c-.3,0-.6,0-.9.2h-.9c-.6.3-1.3.3-1.9.5-1.3.3-2.5.7-3.8,1.1-1.3.5-2.5,1-3.7,1.6-.6.3-1.2.7-1.8,1.1-.3.2-.6.4-.9.6l-.8.6c-1.1.8-2.2,1.7-3.2,2.7-1,1-1.9,2.1-2.8,3.3l-.6.9-.6.9-.6.9-.3.5-.2.5c-.3.7-.6,1.3-1,2l-.8,2.1c-1.9,5.8-1.9,12,0,17.8.3.7.5,1.4.8,2.1s.6,1.3,1,2l.2.5.3.5.6.9.6.9.6.9.6.9.3.4.4.4,1.4,1.6c1,1,2.1,1.9,3.2,2.7l.8.6c.3.2.6.4.9.6.6.3,1.2.7,1.8,1,1.2.6,2.4,1.2,3.7,1.6,1.2.5,2.5.8,3.8,1.1.6.1,1.3.2,1.9.3h.9c.3.2.6.1.9.2h1.9c.6,0,1.2,0,1.8,0,1.2,0,2.4-.2,3.6-.4.6,0,1.1-.2,1.7-.4.6-.1,1.1-.3,1.7-.4l1.6-.6.8-.3.7-.4,1.5-.7c.5-.2.9-.5,1.4-.8s.9-.5,1.3-.8l1.2-.9c2.9-2.2,5.3-4.9,7.2-8,1.4-2.3,2.5-4.9,3.1-7.5.2-.5.3-1,.4-1.6,0-.5.2-.9.2-1.4s.1-.8.2-1.2,0-.7,0-1c0-.6,0-1,0-1.3s0-.5,0-.5v.5c0,.3,0,.8,0,1.4,0,.3,0,.6,0,1s-.1.8-.2,1.2-.1.9-.2,1.4c0,.5-.2,1-.4,1.6-.6,2.7-1.7,5.2-3.1,7.6-1.9,3.1-4.3,5.9-7.2,8.1l-1.2.9c-.4.3-.9.6-1.3.8s-.9.6-1.4.8l-1.5.7-.8.4-.8.3-1.6.6c-.5.2-1.1.3-1.7.5-.6.2-1.1.3-1.7.4-1.2.2-2.4.4-3.6.4-.6,0-1.2,0-1.9,0h-1.9c-.3,0-.6,0-.9-.1h-1c-.6-.3-1.3-.3-1.9-.5-1.3-.3-2.6-.7-3.8-1.1-1.3-.5-2.5-1-3.7-1.6-.6-.3-1.2-.7-1.8-1.1-.3-.2-.6-.3-.9-.6l-.8-.6c-1.1-.8-2.2-1.8-3.2-2.8l-1.5-1.6-.4-.4-.3-.4-.7-.9-.7-.9-.6-.9-.6-.9-.3-.5-.2-.5c-.3-.7-.6-1.3-1-2l-.8-2.1c-2-5.9-2-12.2,0-18.1l.8-2.1c.3-.7.6-1.3,1-2l.2-.5.3-.5.6-.9.6-.9.6-.9c.9-1.2,1.8-2.3,2.8-3.3,1-1,2.1-1.9,3.2-2.8l.8-.6c.3-.2.6-.4.9-.6.6-.4,1.2-.7,1.8-1.1,1.2-.6,2.5-1.2,3.7-1.6,1.2-.5,2.5-.8,3.8-1.1.6-.1,1.3-.2,1.9-.3h.9c.3-.2.6-.2,1-.2h1.9c.6,0,1.2,0,1.9,0,1.2,0,2.4.2,3.6.4.6,0,1.2.2,1.7.4.6.2,1.1.3,1.7.5l1.6.6.8.3.8.4,1.5.7c.5.2.9.5,1.4.8s.9.5,1.3.8l1.2.9c2.9,2.2,5.4,5,7.2,8.1,1.4,2.4,2.5,4.9,3.1,7.6.1.5.3,1,.4,1.6,0,.5.1,1,.2,1.4s.1.8.2,1.2,0,.7,0,1c0,.6,0,1,0,1.4s0,.5,0,.5Z"/>
  <path class="st3" d="M211.3,216.3c-7.9,0-14.2-6.4-14.2-14.2,0-7.9,6.4-14.2,14.2-14.2,7.9,0,14.2,6.4,14.2,14.2,0,7.9-6.4,14.2-14.2,14.2ZM211.3,188.5c-7.5,0-13.5,6.1-13.5,13.5,0,7.5,6.1,13.5,13.5,13.5,7.5,0,13.5-6.1,13.5-13.5,0-7.5-6.1-13.5-13.5-13.5Z"/>
  <polygon class="st3" points="205.2 202 207.1 200 210.9 203.4 217.1 197 219 198.9 210.6 207.2 205.2 202"/>
  <path class="st4" d="M251.8,167.7c0,0-16.9.2-37.8.2s-37.8,0-37.8-.2,16.9-.2,37.8-.2,37.8,0,37.8.2Z"/>
  <path class="st4" d="M241,174.3c0,.1-12.9.2-28.7.2s-28.7,0-28.7-.2,12.9-.2,28.7-.2,28.7,0,28.7.2Z"/>
  <path class="st5" d="M158.7,64.6c0-.6.2-1.1.5-1.6,0,0,0,.4-.2.9s-.3.8-.4.8Z"/>
  <path class="st5" d="M164.7,54.7c-.2,0-.4-.1-.6-.2-.2,0-.5-.2-.7-.3s-.6-.2-1-.3-.8-.2-1.2-.3-.9-.2-1.4-.3c-1.1-.2-2.2-.3-3.3-.3-1.1,0-2.2,0-3.3.2-.5,0-1,.1-1.4.2s-.9.2-1.2.3-.7.2-1,.3c-.3,0-.5.2-.8.2-.2,0-.4.1-.6.2.2-.1.4-.2.6-.3.2-.1.5-.2.7-.3.3-.1.6-.2,1-.3s.8-.2,1.2-.3.9-.2,1.4-.3c1.1-.2,2.2-.2,3.3-.2,1.1,0,2.2.1,3.3.3.5.1,1,.2,1.4.3s.9.2,1.2.4.7.2,1,.4.5.2.7.3c.2,0,.4.2.6.3Z"/>
  <path class="st5" d="M152.1,101.1c-.2,0-.3,0-.5,0-.3,0-.8,0-1.4-.2-1.5-.3-3-.7-4.4-1.3-1.4-.6-2.8-1.4-4-2.3-.5-.4-.8-.7-1.1-.9-.1-.1-.3-.2-.4-.4.1,0,.3.2.4.3.2.2.6.5,1.1.8,1.3.9,2.6,1.6,4,2.2,1.4.6,2.8,1.1,4.3,1.4.6.1,1,.2,1.4.2.2,0,.3,0,.5,0Z"/>
  <g id="freepik--Character--inject-243">
    <rect class="st10" x="262.9" y="239.5" width="11.6" height="92.2"/>
    <path class="st4" d="M274.5,331.7v-7.2c0-4.6,0-11.3,0-19.5,0-16.5,0-39.5-.1-65.5l.3.3h-11.7l.3-.3c0,40.4-.1,75.3-.1,92.2h-.1c0-.1,8.6,0,8.6,0h3-11.6c0,0-.1,0-.1,0h0c0-16.9,0-51.9-.2-92.3l.3-.3h11.9v.3c0,26,0,49-.1,65.6,0,8.2,0,14.9,0,19.5v6.6c0,.4,0,.5,0,.5Z"/>
    <g class="st8">
      <rect x="262.9" y="241.8" width="11.6" height="3.8"/>
    </g>
    <rect class="st10" x="509.9" y="239.5" width="11.6" height="92.2"/>
    <path class="st4" d="M521.5,331.7v-7.2c0-4.6,0-11.3,0-19.5,0-16.5,0-39.5-.1-65.5l.3.3h-11.7l.3-.3c0,40.4-.1,75.3-.1,92.2h-.1c0-.1,8.6,0,8.6,0h3-11.6c0,0-.1,0-.1,0h0c0-16.9,0-51.9-.1-92.3l.3-.3h11.9v.3c0,26,0,49-.1,65.6,0,8.2,0,14.9,0,19.5v6.6c0,.4,0,.5,0,.5Z"/>
    <rect class="st10" x="491.7" y="158.8" width="11.6" height="76.8"/>
    <path class="st4" d="M503.3,235.6c0-.1,0-.3,0-.4v-5.5c0-3.9,0-9.4,0-16.3,0-13.8,0-32.9-.1-54.6l.3.3h-11.7c.5-.5.1-.1.2-.2v45.3c0,13.2,0,24.1-.1,31.5h-.1c0-.1,8.6,0,8.6,0h3-11.6c0,0-.1,0-.1,0h0c0-7.4,0-18.4,0-31.6v-45.3c.1-.1-.3.2.3-.3h11.8v.3c0,21.7,0,41-.1,54.8,0,6.9,0,12.4,0,16.2v5.5c0,.3,0,.4,0,.4Z"/>
    <rect class="st10" x="285.1" y="158.8" width="11.6" height="76.8"/>
    <path class="st4" d="M296.7,235.6c0-.1,0-.3,0-.4v-5.5c0-3.9,0-9.4,0-16.3,0-13.8,0-32.9-.1-54.6l.3.3h-11.7c.5-.5.1-.1.2-.2v45.3c0,13.2,0,24.1,0,31.5h-.1c0-.1,8.6,0,8.6,0h3-11.6c0,0-.1,0-.1,0h0c0-7.4,0-18.4,0-31.6v-45.3c.1-.1-.3.2.3-.3h11.8v.3c0,21.7,0,41-.1,54.8,0,6.9,0,12.4,0,16.2v5.5c0,.3,0,.4,0,.4Z"/>
    <rect class="st10" x="262.2" y="150" width="263.5" height="12.3"/>
    <path class="st4" d="M525.7,162.3v-12.3h0c0,0-263.5.3-263.5.3h0l.3-.3v12.3l-.3-.3h186.7c0,.1,56.2.2,56.2.2h20.6-76.6c0,0-187,.4-187,.4h-.3v-12.9h.3l263.5.2h0v11.6c0,.5,0,.7,0,.7Z"/>
    <rect class="st10" x="262.9" y="168.5" width="263.5" height="12.3"/>
    <path class="st4" d="M526.4,180.8v-12.3h0c0,0-263.5.3-263.5.3h0l.3-.3v12.3l-.3-.3h186.6c0,.1,56.2.2,56.2.2h20.6-76.6c0,0-186.9.2-186.9.2h-.3v-12.7h.3l263.5.2h0v11.6c0,.5,0,.7,0,.7Z"/>
    <rect class="st10" x="262.9" y="187.6" width="263.5" height="12.3"/>
    <path class="st4" d="M526.4,199.9v-12.3h0c0,0-263.5.3-263.5.3h0l.3-.3v12.3l-.3-.3h186.7c0,.1,56.2.2,56.2.2h20.6-76.6c0,0-186.9.2-186.9.2h-.3v-12.7h.3l263.5.2h0v11.7c0,.5-.2.7-.2.7Z"/>
    <rect class="st10" x="262.9" y="206.7" width="263.5" height="12.3"/>
    <path class="st4" d="M526.4,219v-12.3h0c0,0-263.5.3-263.5.3h0l.3-.3v12.3l-.3-.3h186.7c0,.1,56.2.2,56.2.2h20.6-76.6c0,0-186.9.2-186.9.2h-.3v-12.7h.3l263.5.2h0v11.6c0,.5-.2.7-.2.7Z"/>
    <rect class="st10" x="251.4" y="229.5" width="279.7" height="12.3"/>
    <path class="st4" d="M531.2,241.8v-12.3h0c0,0-279.7.3-279.7.3h0l.3-.3v12.3l-.3-.3h198.2c0,.1,59.7.2,59.7.2h21.9-81.5c0,0-198.4.2-198.4.2h-.3v-12.7h.3l279.7.2h0v11.6c0,.5,0,.7,0,.7Z"/>
    <g class="st8">
      <rect x="509.9" y="241.8" width="11.6" height="3.8"/>
    </g>
    <path class="st9" d="M379.9,87.9l-2.5,16.2-6.5,14.7-9.6-6.1-3.4-8.6-2.9-7.2s-10.1,2.4-14.1-7c-1.9-4.6-5.2-14.3-8-23.1-3-9.5,1.8-19.8,11-23.5l.9-.4c10.1-3.5,18.8,3.2,21.9,13.4l13.1,31.7"/>
    <path class="st11" d="M355.1,96.9c4.4-1.7,8.2-4.7,10.9-8.6,0,0-.1,8.1-9.9,11.1l-1-2.5Z"/>
    <path class="st4" d="M339.1,74.1c.3.7,1.1,1.1,1.9.8.7-.2,1.1-1,.9-1.8,0,0,0,0,0,0-.3-.7-1.1-1.1-1.9-.8-.7.2-1.1,1-.9,1.8,0,0,0,0,0,0Z"/>
    <path class="st4" d="M336.6,70.2c.2.1,1-1.1,2.4-1.7s2.8-.3,2.9-.6-.3-.4-.9-.5c-.8-.2-1.7-.1-2.5.2-.8.3-1.4.9-1.8,1.6-.3.6-.3.9-.2,1Z"/>
    <path class="st4" d="M351.8,68.4c.3.7,1.1,1.1,1.9.8.7-.2,1.1-1,.9-1.8,0,0,0,0,0,0-.3-.7-1.1-1.1-1.9-.8-.7.2-1.1,1-.9,1.8,0,0,0,0,0,0Z"/>
    <path class="st4" d="M350.9,63.8c.2.1,1.1-1,2.6-1.4s2.9,0,3-.2-.2-.4-.8-.6c-.8-.2-1.6-.2-2.4,0-.8.2-1.5.7-2,1.4-.4.5-.4.8-.3.9Z"/>
    <path class="st4" d="M350.5,78c-.9,0-1.7.3-2.5.6-.4.1-.8.2-.9,0-.2-.4-.3-.8-.2-1.2,0-1,0-2.1,0-3.3-.1-4.7-.4-8.4-.6-8.4s-.2,3.8-.1,8.5c0,1.1,0,2.2.1,3.3,0,.5,0,1.1.4,1.5.2.2.5.3.8.3.2,0,.5,0,.7-.2.8-.2,1.6-.6,2.4-1Z"/>
    <path class="st4" d="M348.1,57.6c.3.3,1.7-.4,3.5-1s3.4-.6,3.5-1c0-.2-.4-.5-1.1-.6-1.9-.3-3.9.2-5.3,1.5-.5.5-.7,1-.6,1.1Z"/>
    <path class="st4" d="M334.5,64.4c.4.2,1.3-.5,2.5-1.1s2.3-.7,2.4-1.1c0-.2-.3-.5-.8-.6-.8-.1-1.5,0-2.2.3-.7.3-1.3.8-1.7,1.5-.3.5-.3.9-.1,1Z"/>
    <path class="st9" d="M368.9,63.6c.1-.1,5.7-4.6,8.2,2s-4.6,7.7-4.7,7.5-3.5-9.5-3.5-9.5Z"/>
    <path class="st11" d="M373.4,69.8s.1,0,.4,0c.3,0,.6,0,.9-.3.7-.9.8-2,.4-3-.2-.6-.5-1.1-.9-1.5-.3-.4-.7-.6-1.2-.6-.3,0-.5.3-.6.6,0,.2,0,.3,0,.4s-.2,0-.2-.4c0-.2,0-.4.1-.5.1-.2.3-.4.6-.4.6,0,1.2.1,1.6.6.5.5.9,1,1.1,1.7.5,1.3.2,2.8-.6,3.5-.3.2-.7.3-1.1.2-.2-.1-.3-.3-.3-.3Z"/>
    <path class="st4" d="M327.3,56.2c-.3-1.4.2-2.8,1.4-3.7-1.3-1.2-1.3-3.2-.1-4.5.9-.9,2.1-1.2,3.3-.8-.6-1.7.3-3.6,2-4.2.3-.1.7-.2,1-.2-.7-1.4,0-3,1.3-3.7,1-.5,2.1-.3,2.9.3.5-2.6,3.1-4.2,5.6-3.7.3,0,.7.2,1,.3,2.4-2,5.8-1.9,8.1.2,2.2-.7,4.7,0,6.2,1.7,2.2-.7,4.6.5,5.3,2.7.2.7.3,1.5.1,2.2,1.7.2,2.9,1.8,2.7,3.5,0,.3-.1.5-.2.8,1.7.1,3,1.6,2.8,3.3,0,.7-.3,1.4-.8,1.9,1-.3,1.9.8,2,1.9,0,1-.1,2.1-.3,3.1,0,.9.2,1.7.3,2.6,0,1.6-.6,3.2-1.8,4.3h.2c.5.9-.4,1.9-1.3,1.9-.9-.1-1.8-.5-2.4-1.2-.9-.5-1.7-1.2-2.4-2-.7-.8-.8-2-.2-2.9-1.3,0-2.5-.7-3.2-1.8-.6-1.1-1.1-2.3-1.2-3.6l-1.2-5.5c-2.4.9-5.2.4-7.1-1.4-1.2,1.9-3.7,2.4-5.5,1.2-.1,0-.3-.2-.4-.3.1,2.7-1.9,5.1-4.6,5.4.8,1.2-1.1,3.5-2.3,4.4-1,.6-2.1.8-3.2.6,0,0-1.7,2.3-3.2,2.3s-3.7-.9-3.4-2.5c-.7-.8-1.1-1.7-1.4-2.7Z"/>
    <path class="st10" d="M368.4,47c0,.4-.1.8-.3,1.1-.2.4-.6.6-1,.6-.5,0-1-.2-1.3-.6l-.2-.4-.2.4c-.3.6-1,1-1.7,1-.8,0-1.5-.6-1.7-1.3v-.4c-.1,0-.4.3-.4.3-.4.3-.8.5-1.3.5-.4,0-.8-.1-1.1-.4-.5-.4-.7-.8-.7-.8s0,.5.5,1c.3.3.8.5,1.3.6.6,0,1.2-.2,1.7-.6h-.4c.3,1.1,1.6,1.8,2.8,1.5.7-.2,1.2-.6,1.5-1.3h-.4c.4.6,1.1.8,1.8.7.5,0,1-.4,1.2-.9.4-.7,0-1.2,0-1.2Z"/>
    <path class="st10" d="M371.9,52.8c0,0-.1.3-.6.6-.6.4-1.3.4-1.9,0l-.2-.2v.3c-.4.6-.9,1-1.6,1.1-.8,0-1.5-.3-1.8-1l-.2-.4-.3.4c0,0-.1.2-.2.3-.4.4-1,.4-1.5.1-.4-.3-.6-.8-.6-1.3v-.5c0,0-.4.3-.4.3-.5.3-1.1.4-1.6.2-.4,0-.8-.3-1.1-.7-.2-.3-.5-.7-.6-1.1,0,.5,0,.9.4,1.2.3.4.7.7,1.2.9.7.2,1.4.1,2-.2l-.3-.2c-.1.7.2,1.4.8,1.8.7.4,1.5.4,2.1-.1.1-.1.2-.2.4-.4h-.5c.5,1.1,1.9,1.6,3,1.1.6-.3,1-.7,1.2-1.3h-.3c.4.4.9.5,1.4.4.4,0,.7-.2,1-.4.4-.5.4-.8.4-.8Z"/>
    <path class="st10" d="M335.7,42.2c.1-.3.3-.5.6-.7.6-.5,1.6-.4,2.1.2,0,0,0,0,0,0l.2.3v-.4c.2-.9.8-1.6,1.6-1.9,1-.4,2.1,0,2.8.8l.3.4v-.5c.4-.9,1.1-1.6,1.9-2,.9-.4,2-.2,2.8.3.3.2.6.5.8.9v.2c.1,0,.4-.2.4-.2,1.1-.8,2.7-.7,3.7.2.9.8,1.2,2.1.8,3.2v.4c-.1,0,.2,0,.2,0,.8-.2,1.7,0,2.5.4.6.4,1,.9,1.2,1.5.2.5.3,1.1.3,1.7,0,0,0-.1.1-.5,0-.5,0-.9-.2-1.3-.2-.7-.7-1.3-1.3-1.7-.8-.5-1.8-.8-2.7-.6l.2.3c.7-1.7-.1-3.7-1.9-4.4-1.1-.5-2.4-.3-3.3.4h.4c-.3-.3-.6-.7-1-.9-1-.7-2.2-.8-3.3-.4-1,.4-1.8,1.3-2.1,2.4h.4c-1-1.3-2.8-1.5-4-.5-.6.5-1,1.2-1,1.9h.3c-.3-.5-.9-.8-1.4-.8-.4,0-.8.2-1.1.5-.2.2-.3.4-.4.6,0,.1,0,.2,0,.2Z"/>
    <path class="st4" d="M354.8,76.4c-.2,0,.4,1.7-.5,3.4s-2.6,2.2-2.6,2.4.5.1,1.2-.1c.9-.4,1.7-1.1,2.2-1.9.5-.8.6-1.8.3-2.8-.2-.7-.5-1-.7-.9Z"/>
    <path class="st3" d="M345.1,105.2l-7.9,22.3,1.8,24.4,5,42.1s18.6-6.3,19.4-5.6-8.2-42.7-8.2-42.7l6.6-35.3-.4-10.4-16.2,5.2Z"/>
    <path class="st3" d="M345.1,105.2l-8.7,20-18,7.1-18.8,5.8,2.6,13.5c.5,2.7,3.1,4.4,5.8,3.9.1,0,.2,0,.3,0l15.9-4.3,14.8-.7,7.7-17.9-1.7-27.3Z"/>
    <path class="st9" d="M305.7,132.5l1.3-1.6c1.3,0,2.6.3,3.8.8,1.7,1.4,3,3.3,3.6,5.5.1,1.5.1,3.1,0,4.6l-9-9.2"/>
    <path class="st4" d="M288.2,122.8c0,.3,17,18.3,17,18.3l3.2,3.2h10.2l-19.8-22-8.5-1.5-2.1,2Z"/>
    <path class="st4" d="M357.1,162.8c-.2-.2-.3-.4-.4-.6l-1-1.9c-.9-1.6-2.1-4-3.5-7-1.7-3.5-3.2-7-4.5-10.6-.4-1.1-.7-2.1-.9-3.2-.1-.6-.2-1.2-.3-1.7v-1.8c0-2.4,0-4.8.1-7.3.1-3.2.3-6.2.5-9.2h0c0-.1.1-.2.1-.2l5.3-2.3v.5c0,0-3.9-.5-3.9-.5h-.3l.2-.3c2.6-4.5,4.8-8.2,6.3-10.9l1.8-3,.5-.8c0,0,.1-.2.2-.3,0,.1,0,.2-.1.3l-.4.8-1.7,3.1-6.1,11-.2-.3,4,.5h.9c0,.1-.8.5-.8.5l-5.2,2.3v-.2c0,2.9-.2,6-.3,9.2,0,2.5-.1,4.9-.1,7.3v1.8c0,.6.1,1.1.2,1.7.2,1.1.5,2.1.9,3.2,1.4,4.1,3,7.7,4.4,10.6s2.5,5.4,3.3,7l.9,1.9c.1.2.2.4.3.7Z"/>
    <path class="st9" d="M298.2,132.5s-2.6,1.9-2.5,2.9c0,.9.5,1.8,1.2,2.4.6.2,2.4,1.1,2.4,1.1,0,0-1.6,1.5-1.1,3.1.2.9.7,1.6,1.5,2,0,1.1.3,2.2.7,3.2.6.8,1.5,1.4,2.5,1.6.6,1.1,1.2,2.2,2,3.2.8.7,1.7,1.2,2.8,1.4,0,0,2.4.3,3.6-.6,1.7-.9,2.8-2.7,2.7-4.6,0,0,5.7-2.8,5.7-4.3s-.6-1.9-.6-1.9l-2.8.5s-.4-1.5-1.2-1.6-11.2,2.4-11.2,2.4c0,0,7.1-1.1,7.3-2.5s.3-2.6-.8-2.8-8.6.5-8.6.5l-.4-1.3s2,0,2-1.7-1.1-2.2-1.1-2.2l-4-.8Z"/>
    <polygon class="st7" points="357.1 101.6 358 108.5 352.7 138.5 358.1 164.4 386.1 172.6 397.1 167.9 393.4 95.3 383.3 88.2 379.5 85.6 365.1 107.5 357.1 101.6"/>
    <path class="st3" d="M382.6,87.7l7,3.1,24.8,3.3,13.4,70.4,1.7,8.1,25.7,38.4c1.1,1.7.7,3.9-1,5.1,0,0-.1,0-.2.1l-21,12c-1.6.8-3.6.3-4.6-1.2l-26.7-40.2-13.2-17s-7.9-24-9-34.2c-.8-9-.8-18,0-26.9.6-6.1,3.2-21.1,3.2-21.1Z"/>
    <path class="st3" d="M414.4,94.1c3.3,1.7,5.6,4.8,6.3,8.5,1.6,8.4,6.3,22.9,8.1,38.5,2.5,21.8-3.4,28.5-6.1,32.3s-19.9,11.7-19.9,11.7l-12.9-17.1,14.2-11.7-1.2-30.2s-5-6.9-2.5-17.1,9.8-15.4,14-14.8h0Z"/>
    <g class="st8">
      <path d="M427.6,164c-1.9,5.3-4.2,9.7-8.7,12.2-4.8,2.7-11.6,6.5-16.2,8.9l3.4,5.2c5.3-.8,15-7,18.2-11.2,3.1-4.4,4.3-9.8,3.4-15.1Z"/>
    </g>
    <path class="st4" d="M402.6,127.6c0,.1,0,.3,0,.5,0,.3.1.8.2,1.3.2,1.2.4,2.9.8,5.1.7,4.5,1.6,11,2.8,19h0c0,.1,0,.2,0,.2l-16.4,14.4v-.3l12.9,17.1h-.3c4.3-2.2,8.7-4.6,13.1-7.2,1.2-.8,2.5-1.5,3.7-2.3,1.2-.8,2.3-1.6,3.3-2.6,1.7-2.2,3.1-4.6,4.1-7.2,1.8-5,2.6-10.2,2.4-15.5-.1-4.8-.6-9.5-1.4-14.2-.7-4.4-1.5-8.5-2.3-12.3-1.6-7.5-3.1-13.5-4.1-17.6-.5-2-1-3.6-1.2-4.8-.1-.5-.2-.9-.3-1.2,0-.1,0-.3-.1-.4,0,0,0,.1.1.4s.2.7.4,1.2c.3,1.1.8,2.7,1.4,4.7,1.1,4.1,2.7,10.1,4.3,17.6.8,3.7,1.6,7.8,2.4,12.3.8,4.7,1.3,9.5,1.4,14.3.2,5.3-.6,10.6-2.4,15.7-1,2.7-2.4,5.1-4.2,7.3-1,1-2.2,1.9-3.4,2.7-1.2.8-2.4,1.6-3.7,2.3-4.4,2.6-8.8,5-13.1,7.1h-.2c0,.1-.1,0-.1,0l-12.9-17.2v-.2c-.1,0,0-.1,0-.1l16.4-14.4v.2c-1.2-8-2.1-14.5-2.7-19-.3-2.2-.5-4-.7-5.1,0-.6-.1-1-.2-1.3,0-.2,0-.3,0-.5Z"/>
    <path class="st4" d="M384.4,153.5c0-.2,0-.5,0-.7,0-.5.1-1.2.2-2,.3-1.8.6-4.2,1.1-7.3.9-6.1,2.2-14.6,3.6-24,.6-4.5,1.2-8.9,1.7-12.8l.2.2-4.2-1.6-.4-.2.4-.2,4.3-2.8v.2c-.6-3.5-1-6.4-1.3-8.5-.1-1-.2-1.7-.3-2.3,0-.3,0-.5,0-.8,0,.3.1.5.2.8.1.6.2,1.4.4,2.3.3,2.1.8,4.9,1.4,8.5h0c0,.1-.1.2-.1.2l-4.2,2.8v-.4c0,0,4.2,1.6,4.2,1.6h.2v.3c-.5,3.9-1.1,8.3-1.7,12.8-1.3,9.4-2.8,17.8-3.7,24-.5,3-.9,5.5-1.2,7.2l-.4,2c0,.2,0,.4-.2.6Z"/>
    <path class="st4" d="M410.6,95.1c0,0-1.2,1-2.9,2.7-1,1-1.9,2.2-2.7,3.4-2,2.9-3.4,6.2-4,9.7-.3,1.4-.4,2.9-.4,4.3,0,2.5.3,4,.2,4-.1-.3-.2-.7-.3-1.1,0-.4-.1-.8-.2-1.2,0-.6,0-1.1-.1-1.7,0-1.5,0-2.9.3-4.4.3-1.8.8-3.5,1.5-5.2.7-1.7,1.6-3.2,2.6-4.7.8-1.2,1.8-2.3,2.8-3.4.4-.4.8-.8,1.2-1.1.3-.3.7-.5,1-.8.3-.2.6-.4,1-.6Z"/>
    <path class="st4" d="M338.9,150.5c-.1,0-.6-4.8-1-10.8s-.7-10.9-.5-10.9.6,4.9,1,10.8.6,10.9.5,10.9Z"/>
    <polygon class="st3" points="423.4 194.6 427.3 202.5 445.1 191.1 439 184.1 423.4 194.6"/>
    <path class="st4" d="M423.4,194.6c.3-.3.7-.6,1.1-.8l3.1-2.2,11.2-7.7h.2c0-.1.1,0,.1,0l6.2,7,.2.2-.3.2-.8.5-17.1,10.8h-.2c0,.1,0,0,0,0l-2.8-5.8c-.3-.6-.5-1.2-.7-1.6,0-.2-.2-.3-.2-.5.1.2.2.4.3.5.2.4.5.9.8,1.6l2.9,5.7h-.3c0,0,17-11.1,17-11.1l.8-.5v.4c-2.2-2.5-4.3-4.8-6.2-7h.3l-11.2,7.5-3.3,2.1-.9.6-.4.3Z"/>
    <g class="st8">
      <path d="M423.6,195c0,.1,4,12.1,4,12.1l16.6-11.8-1.4-2.6-15.5,9.9-3.7-7.6Z"/>
    </g>
    <g class="st8">
      <path d="M390,94.1l3,9.8-3,1.4,3.9,1.9s-6.2,34-7,37.1-1.7,4.1-1.7,4.1l6.1-41.5-4.2-1.6,4.2-2.8-1.3-8.3Z"/>
    </g>
    <path class="st4" d="M324.2,147.2c0-2.3-.5-4.7-1.1-6.9-.8-2.2-1.9-4.2-3.3-6.1.6.4,1.1.9,1.4,1.5,2,2.7,3.2,6,3.2,9.5,0,.7,0,1.4-.2,2.1Z"/>
    <g class="st8">
      <path d="M337.3,127.8c-3,7.4-1.9,15.5,1.6,22.7-.5-8.2-.9-14.7-1.6-22.7Z"/>
    </g>
    <path class="st4" d="M380.4,93.8c-.1.4-.3.7-.5,1l-1.6,2.6c-1.3,2.2-3,5.3-4.7,8.8-1.2,2.4-2.1,4.6-3,6.5v.3c-.1,0-.3-.2-.3-.2-1.3-1.1-2.6-2.2-3.7-3.4-.5-.4-.9-.9-1.2-1.5.5.4,1,.8,1.4,1.3,1.2,1.2,2.5,2.2,3.8,3.3h-.3c.8-1.8,1.7-4.1,2.9-6.5,1.5-3,3.1-5.9,4.9-8.7.7-1.1,1.3-1.9,1.7-2.5.2-.3.5-.6.7-.9Z"/>
    <path class="st4" d="M364,107.6c-.4,1.7-1,3.5-1.7,5.1v.4c-.1,0-.4-.2-.4-.2h-.1c-1.5-1.3-2.7-2.7-3.7-4.2.1-.1,1.8,1.7,4,3.7h.1c0,.1-.4.2-.4.2.6-1.7,1.3-3.3,2.2-4.9Z"/>
    <path class="st4" d="M366.9,158.8c0-.2,0-.3,0-.5,0-.4,0-.9-.1-1.4,0-1.3-.2-3.1-.3-5.2-.3-4.4-.6-10.4-.9-17.1s-.4-12.8-.4-17.1,0-4,0-5.2c0-.6,0-1,0-1.4,0-.2,0-.3,0-.5,0,.2,0,.3,0,.5v1.4c0,1.3,0,3.1.1,5.2,0,4.4.3,10.4.6,17.1s.5,12.7.7,17.1c0,2.1.1,3.9.2,5.2v1.4c0,.2,0,.3,0,.5Z"/>
    <path class="st3" d="M308.4,293.8l2.6,24.4s-24,10.8-23.9,15.4l47.5-3.3-2.5-38.2-23.7,1.7Z"/>
    <path class="st0" d="M325.5,315.2c1,.2,1.6,1.1,1.5,2.1-.2,1-1.1,1.6-2.1,1.5-1-.2-1.7-1.2-1.6-2.2.3-1,1.3-1.6,2.3-1.3"/>
    <path class="st0" d="M334.7,331.3l-.2-3.7-45.7,3.5s-2.1,1.1-1.7,2.5l47.6-2.3Z"/>
    <path class="st4" d="M310.2,318.1c0,.2,1.2.2,2.4.9s1.9,1.6,2.1,1.5-.2-1.4-1.7-2.2-2.8-.4-2.8-.2Z"/>
    <path class="st4" d="M305.3,320.5c0,.2,1,.5,1.8,1.5s1.2,1.9,1.4,1.9.3-1.4-.8-2.5-2.4-1.1-2.4-.9Z"/>
    <path class="st4" d="M302.9,326.6c.2,0,.4-1.1-.2-2.4s-1.8-1.7-1.9-1.5.6.8,1.2,1.9.7,2,.9,2Z"/>
    <path class="st4" d="M310.2,312.4c.1.2,1.2-.2,2.5-.2s2.4.3,2.5.1-.9-1-2.5-1-2.6.8-2.5,1Z"/>
    <path class="st3" d="M299.9,195.3l-22,10.9s-18.5-18.7-22.7-17.1l19.6,43.4,35-15.5-9.8-21.7Z"/>
    <path class="st0" d="M285.8,218.8c.1,1-.5,1.9-1.5,2.1-1,.2-1.9-.5-2.1-1.4-.2-1,.5-2,1.6-2.2,1,0,1.9.7,2,1.7"/>
    <path class="st0" d="M273.9,233l3.4-1.5-19.1-41.6s-1.7-1.5-3-.7l18.7,43.9Z"/>
    <path class="st4" d="M277.8,205.4c-.2.1.2,1.2,0,2.5s-.8,2.3-.7,2.5,1.3-.7,1.5-2.4-.6-2.8-.8-2.7Z"/>
    <path class="st4" d="M273.9,201.7c-.2,0-.2,1.1-.7,2.2s-1.4,1.8-1.3,2,1.4-.2,2-1.6.2-2.7,0-2.6Z"/>
    <path class="st4" d="M267.3,201.6c0,.2,1.2,0,2.2-1s.9-2.3.7-2.3-.6.9-1.3,1.8-1.6,1.3-1.5,1.5Z"/>
    <path class="st4" d="M283.1,203.5c-.2.2.6,1,1,2.3s.5,2.3.7,2.4.6-1.2,0-2.6-1.6-2.1-1.7-2Z"/>
    <path class="st4" d="M310.7,209.2c-4.9,1.2-8.6,5.1-9.5,10.1-1.6,8.5,4.2,93.7,4.2,93.7l29.9-2.4-1.8-57.4-.7-11.6,2.6-2,52.6-9.2-8-21.7-8.8-15.3-40.2,10-20.2,5.9Z"/>
    <path class="st4" d="M409.6,194.8s-21.7-31.4-28.1-36c-5.2-3.8-13.1-3.8-18-1.6s-81,40-81,40l11.2,28,72.5-25.1,10.8,17,10.1,13.3,28.2.2c1.3,0,7.4-12,7.4-12l-13-23.8Z"/>
    <path class="st10" d="M300.9,225.8c0,0,0-.2,0-.3v-2.3c0-.6.1-1.2.2-1.9s.3-1.5.5-2.4c0-.4.3-.9.4-1.3.1-.5.3-.9.5-1.4.9-2.2,2.4-4.1,4.3-5.5,1.1-.8,2.3-1.4,3.7-1.8l4.3-.7,9.5-1.6,21.8-3.6,19.8-3.2h.2c5.8,9.2,10.5,17.1,14.5,22.3,1.9,2.6,3.5,4.6,4.5,6.1.5.7.9,1.2,1.2,1.6l.3.4h.1q0,.1-.1,0l-.3-.4-1.3-1.6c-1.1-1.4-2.7-3.4-4.6-6-4.1-5.1-8.8-13-14.7-22h.2c0,.1-19.8,3.4-19.8,3.4l-21.8,3.6-9.5,1.5-4.3.7c-1.3.3-2.5.9-3.6,1.7-1.8,1.4-3.3,3.2-4.2,5.3-.2.4-.4.9-.6,1.4-.2.4-.3.9-.4,1.3-.2.8-.4,1.5-.5,2.3l-.3,1.9c0,.5,0,1,0,1.4s0,.6,0,.9c0,0,0,.1,0,.2Z"/>
    <path class="st10" d="M376.5,180.6c0,.3.1.6.1.9,0,.8,0,1.6,0,2.5-.1,1.2-.3,2.4-.7,3.6-.4,1.4-1,2.8-1.7,4.2-.7,1.3-1.6,2.6-2.5,3.8-.8.9-1.7,1.8-2.6,2.6-.6.5-1.3,1-2,1.4-.2.2-.5.3-.8.4,0,0,1-.8,2.6-2.1.9-.8,1.7-1.7,2.5-2.6.9-1.2,1.7-2.4,2.4-3.7.7-1.3,1.2-2.7,1.7-4.1.3-1.2.6-2.3.8-3.5.2-2,.2-3.3.3-3.3Z"/>
  </g>
  <g id="freepik--9kwdk1--inject-3835">
    <path class="st3" d="M183.3,83c-4.7,14.4-20.2,22.3-34.6,17.6-14.4-4.7-22.3-20.2-17.6-34.6,4.7-14.4,20.2-22.3,34.5-17.6,14.4,4.6,22.3,20.2,17.7,34.6h0Z"/>
    <path class="st1" d="M183.3,83c-4.7,14.4-20.2,22.3-34.6,17.6-14.4-4.7-22.3-20.2-17.6-34.6,4.7-14.4,20.2-22.3,34.5-17.6,14.4,4.6,22.3,20.2,17.7,34.6h0Z"/>
    <g class="st2">
      <path d="M149.4,98.8c-13.4-4.3-20.8-18.7-16.5-32.1s18.7-20.8,32.1-16.5c13.4,4.3,20.8,18.7,16.5,32.1h0c-4.4,13.4-18.7,20.8-32.1,16.5h0ZM178.9,82c4.2-11.9-2.2-25-14.2-29.2-11.9-4.2-25,2.2-29.2,14.2-4.1,11.9,2.1,24.9,14,29.1,11.9,4.2,25.1-2,29.3-13.9h0c0-.1,0-.2,0-.2Z"/>
      <path d="M162,59.2l2.5.8-.2.7c-.3,1-.6,2-1,2.9-.1.3,0,.5.3.7,1,.5,2,1,2.9,1.6,2.2,1.6,2.9,4,1.8,6.6-.2.5-.4,1-.7,1.4-.6,1.1-1.7,1.8-3,2h-1c.3.5.7.7,1,1,1.6,1.5,2.2,3.8,1.5,5.9-.3,1-.7,2-1.4,2.9-.9,1.2-2.2,1.8-3.6,2-1.6.1-3.3,0-4.9-.5-.4-.1-.5,0-.7.3-.3,1-.6,1.9-1,2.9,0,.2-.2.3-.4.3l-2.1-.7c.1-.3.2-.6.3-.9.3-.8.5-1.6.7-2.5,0-.3,0-.4-.3-.5-.5-.1-1-.3-1.4-.5-.4,1.3-.7,2.5-1.2,3.7l-2.5-.8c.4-1.2.7-2.5,1.2-3.7l-6.2-2c.5-1.4.9-2.8,1.4-4.2l1.8.6,4.7-14.4-1.8-.6c.5-1.4.9-2.8,1.4-4.2l6.2,2,1.3-4.1,2.5.8c-.4,1.4-.9,2.7-1.3,4l1.8.6c.5-1.4.9-2.7,1.3-4h0ZM156.2,76c-.4-.1-.8-.3-1.2-.4-.3,0-.4,0-.5.3-.5,1.7-1.1,3.3-1.6,5-.1.3,0,.5.3.5.7.2,1.4.5,2.2.7,1.4.5,2.9-.1,3.5-1.4.9-1.4.5-3.1-.9-4-.3-.2-.5-.3-.9-.3l-.8-.3h0ZM156.6,69.4c-.2.7-.5,1.4-.7,2.1,0,.2,0,.4.2.5.7.2,1.5.5,2.2.7.8.2,1.6-.1,2-.9.3-.5.5-1,.6-1.5.3-1.2-.3-2.4-1.6-2.7h0c-.5-.2-1.2-.3-1.7-.5-.3,0-.4,0-.5.3-.2.7-.4,1.4-.7,2.1h0Z"/>
    </g>
    <path class="st5" d="M177.6,64.1c1.4,2.7,2.3,5.6,2.7,8.6.3,3,0,6.1-1,9-.9,2.9-2.4,5.6-4.4,8-4,4.7-9.7,7.6-15.9,8.1-3.1.3-6.1-.1-9-1.1-2.9-1-5.5-2.5-7.8-4.5-2.2-2-4.1-4.4-5.5-7.2,4.4,8.1,13.1,12.9,22.2,12.1,5.9-.5,11.4-3.3,15.4-7.9,5.9-7,7.2-16.8,3.1-25.1h0Z"/>
    <path class="st1" d="M136.7,84.8c-1.4-2.7-2.3-5.6-2.6-8.6-.3-3,0-6.1,1-9,.9-2.9,2.4-5.6,4.4-7.9,4-4.7,9.7-7.6,15.9-8,3.1-.2,6.1.1,9,1.1s5.5,2.5,7.8,4.6c2.2,2,4.1,4.4,5.4,7.2-4.3-8.1-13-12.9-22.2-12.2-5.9.5-11.4,3.3-15.4,7.8-6,6.9-7.2,16.8-3.3,25.1h0Z"/>
    <path class="st5" d="M148.8,64.1c0-.3.2-.7.3-1.1s.2-.7.3-1.1l.6-2.1h0c0-.1.2-.1.2-.1,2,.6,4.2,1.3,6.2,2h-.2c0,0,.7-1.9.7-1.9l.3-1c.1-.3.3-.7.4-1,0,.3-.2.7-.3,1l-.3,1-.6,2h0c0,.1-.1.1-.1.1-2-.7-4.2-1.4-6.2-2h.2c0-.1-.7,1.9-.7,1.9-.1.3-.3.7-.4,1s-.3.7-.4,1v.3Z"/>
    <path class="st5" d="M142.8,82.7c.2-.7.4-1.4.6-2.1s.4-1.4.6-2.1h0c0-.1.1-.1.1-.1l1.8.5h-.2c0,0,1.2-3.5,1.2-3.5.4-1.2.7-2.4,1.2-3.6s.8-2.4,1.2-3.6.8-2.4,1.3-3.5c-.3,1.2-.7,2.5-1.1,3.6s-.7,2.4-1.1,3.6-.7,2.4-1.2,3.6l-1.2,3.6h0c0,.1-.2.1-.2.1l-1.8-.6h.1c-.3.6-.5,1.3-.7,2s-.5,1.4-.7,2h0Z"/>
    <path class="st5" d="M153.2,81.4c.4,0,.8.2,1.2.3l1.2.3c.7.2,1.6,0,2.2-.5,1-.7,1.4-2,1.2-3.2,0-.4-.3-.8-.5-1.2.6.6.9,1.5.7,2.4,0,.9-.5,1.7-1.2,2.2-.7.5-1.6.7-2.5.5-.8-.3-1.6-.5-2.3-.9h0Z"/>
    <path class="st5" d="M156.2,72c.7.1,1.4.3,2,.5.6,0,1.3-.1,1.8-.5.5-.5.7-1.1.8-1.7.1-.7,0-1.4-.3-2,.4.6.6,1.3.5,2,0,.7-.3,1.4-.9,2-.5.5-1.3.7-2,.6-.7-.2-1.3-.5-1.9-.7h0Z"/>
    <path class="st5" d="M149.1,84.7c-.1,1.3-.5,2.5-1.2,3.7,0-.7.2-1.3.4-1.9.2-.6.5-1.2.7-1.8h0Z"/>
    <path class="st5" d="M153.3,86.1c-.1,1.3-.5,2.5-1.2,3.7,0-.6.2-1.3.4-1.9.2-.6.5-1.2.7-1.8h0Z"/>
  </g>
  <g>
    <path class="st3" d="M116.2,75.8c2.4,15.4-8,29.8-23.3,32.3s-29.8-8-32.3-23.3c-2.4-15.3,8-29.8,23.3-32.3,15.4-2.5,29.8,7.9,32.4,23.3h0q0,0,0,0Z"/>
    <g class="st2">
      <path d="M92.6,106.1c-14.3,2.4-27.7-7.3-30.1-21.6-2.4-14.3,7.3-27.7,21.6-30.1,14.3-2.4,27.7,7.3,30.1,21.6h0c2.3,14.3-7.3,27.7-21.6,30.1ZM111.6,77c-1.8-12.9-13.7-21.8-26.6-19.9-12.9,1.8-21.8,13.7-19.9,26.6,1.8,12.8,13.6,21.7,26.4,20,12.9-1.7,21.9-13.6,20.2-26.4h0c0-.1,0-.2,0-.2Z"/>
      <path d="M85.6,64l2.7-.4v.8c.3,1,.5,2.1.6,3.1,0,.4.2.4.6.4,1.1,0,2.2,0,3.4,0,2.9.4,4.5,2.2,4.8,5.2,0,.5,0,1,0,1.5,0,1.3-.7,2.5-1.8,3.2-.3.2-.5.3-.8.6.5.1.9.2,1.3.3,2.2.6,3.8,2.4,4.1,4.7.3,1,.3,2.2,0,3.3-.3,1.5-1.1,2.7-2.4,3.5-1.5.9-3.1,1.5-4.8,1.8-.4,0-.6.2-.4.6.2,1,.3,2,.5,3.1,0,.3,0,.4-.3.4l-2.3.3c0-.3-.1-.6-.1-1-.1-.8-.3-1.7-.4-2.6,0-.3-.1-.4-.5-.3-.5,0-1,.1-1.5.3.2,1.3.4,2.6.6,3.9l-2.7.4c-.2-1.3-.4-2.6-.6-3.9l-6.6,1.1c-.3-1.5-.5-2.9-.8-4.5l2-.3-2.5-15.3-2,.3c-.2-1.5-.5-2.9-.7-4.5l6.6-1c-.2-1.5-.5-2.9-.7-4.3l2.7-.4.7,4.3,2-.3c-.3-1.4-.5-2.8-.8-4.3h.1ZM88.2,82.1c-.4,0-.9.1-1.3.2-.3,0-.3.1-.3.4.3,1.7.6,3.6.9,5.3,0,.3.2.4.5.3.8-.1,1.5-.3,2.3-.4,1.5-.2,2.5-1.5,2.4-2.9.1-1.6-1-3.1-2.7-3.2h-1.9c0,.1,0,.3,0,.3ZM85.4,75.9c.1.8.3,1.5.3,2.2,0,.3.1.3.4.3.8-.1,1.6-.3,2.4-.4.8-.1,1.4-.9,1.4-1.7s0-1.1-.1-1.7c-.3-1.2-1.5-2-2.7-1.7h0c-.6,0-1.2.2-1.8.3-.3,0-.3.1-.3.4.1.7.3,1.5.3,2.2h0Z"/>
    </g>
    <path class="st5" d="M102,61.2c2.6,1.7,4.8,4,6.4,6.6,1.7,2.7,2.8,5.6,3.4,8.7s.4,6.2-.3,9.3c-1.4,6.2-5.2,11.5-10.6,14.8-2.7,1.7-5.6,2.7-8.7,3.2-3.1.5-6.2.3-9.2-.4-3-.8-5.8-2.1-8.3-4,7.8,5.4,17.9,5.6,25.9.6,5.2-3.3,8.9-8.5,10.3-14.4,2.2-9.2-1.3-18.7-8.9-24.4h0Z"/>
    <path class="st1" d="M74.5,99.3c-2.6-1.7-4.8-4-6.4-6.6-1.7-2.7-2.8-5.6-3.4-8.7s-.4-6.2.3-9.3c1.4-6.2,5.3-11.5,10.7-14.8,2.7-1.6,5.7-2.7,8.7-3.2,6.2-1,12.5.6,17.5,4.5-7.8-5.4-17.9-5.7-25.9-.7-5.2,3.3-8.9,8.4-10.4,14.4-2.2,9.2,1.3,18.7,8.8,24.4h0Z"/>
    <path class="st5" d="M75.9,74.7c0-.3-.1-.8-.2-1.1s-.1-.8-.2-1.1l-.4-2.2h0c0-.1.1-.1.1-.1,2.2-.4,4.4-.8,6.6-1v.2c-.1,0-.4-2.2-.4-2.2v-1.1c-.1-.3-.2-.7-.3-1.1l.2,1.1.2,1,.4,2.2h0c0,.1-.1.1-.1.1-2.2.4-4.4.8-6.6,1.1v-.2c.1,0,.4,2.2.4,2.2,0,.3,0,.8.1,1.1s0,.8.1,1.1Z"/>
    <path class="st5" d="M79.2,94.5c-.1-.8-.3-1.5-.4-2.2s-.3-1.5-.4-2.2h0c0-.1.1-.1.1-.1l2-.3v.2c-.1,0-.8-3.8-.8-3.8-.2-1.3-.4-2.6-.6-3.8s-.4-2.6-.6-3.8-.3-2.6-.5-3.8c.3,1.3.5,2.5.8,3.8s.5,2.5.7,3.8.4,2.5.6,3.8l.6,3.8h0c0,.1-.1.1-.1.1l-2,.3h0c.2.6.3,1.3.4,2.1s.1,1.5.3,2.3h-.1Z"/>
    <path class="st5" d="M88,88.4c.4-.1.8-.2,1.3-.3l1.3-.3c.8-.2,1.5-.8,1.8-1.5.3-.8.3-1.6.1-2.4-.1-.4-.3-.8-.6-1.1s-.6-.6-1-.8c.8.3,1.5,1,1.8,1.8.3.8.3,1.8,0,2.7-.4.8-1.2,1.5-2.1,1.6-.8.1-1.7.2-2.6.3h0Z"/>
    <path class="st5" d="M86.3,78.5c.7-.2,1.4-.3,2-.5.6-.2,1.1-.7,1.3-1.3s.2-1.3,0-2c-.2-.6-.6-1.3-1.2-1.7.6.3,1.2.9,1.5,1.5.3.7.3,1.5.1,2.2-.3.8-.8,1.3-1.6,1.5-.8.1-1.4.1-2.1.2h0Z"/>
    <path class="st5" d="M85.7,93.4c.2.6.4,1.3.5,2,.1.6.1,1.3.1,2-.2-.6-.4-1.3-.5-2-.1-.6-.1-1.3-.1-2h0Z"/>
    <path class="st5" d="M90.2,92.8c.4,1.3.7,2.6.6,3.8-.5-1.3-.7-2.6-.6-3.8Z"/>
  </g>
  <g id="freepik--9kwdk1--inject-38351" data-name="freepik--9kwdk1--inject-3835">
    <path class="st3" d="M67.8,117.8c8.4,13.4,4.4,31-8.9,39.4-13.4,8.4-31,4.4-39.4-8.9-8.3-13.3-4.4-30.9,8.9-39.3,13.3-8.4,31-4.4,39.4,8.9h0Z"/>
    <path class="st1" d="M67.8,117.8c8.4,13.4,4.4,31-8.9,39.4-13.4,8.4-31,4.4-39.4-8.9-8.3-13.3-4.4-30.9,8.9-39.3,13.3-8.4,31-4.4,39.4,8.9h0Z"/>
    <g class="st2">
      <path d="M57.9,155.4c-12.4,7.9-28.7,4.2-36.6-8.2s-4.2-28.7,8.2-36.6c12.4-7.9,28.7-4.2,36.6,8.2h0c7.8,12.4,4.1,28.7-8.2,36.6h0ZM64.1,120.7c-6.7-11.2-21.4-14.9-32.7-8.1-11.2,6.7-14.9,21.4-8.1,32.7,6.7,11.1,21.2,14.9,32.5,8.2,11.3-6.7,15.1-21.3,8.4-32.6h-.1c0,0,0-.2,0-.2Z"/>
      <path d="M34.7,118.9l2.3-1.5.5.7c.5.9,1.2,1.8,1.7,2.7.2.3.4.3.8.2,1.1-.5,2.1-.9,3.2-1.2,2.8-.7,5.1.3,6.5,2.9.2.5.5,1,.6,1.4.5,1.2.3,2.6-.4,3.7l-.5.9c.5,0,.9-.2,1.3-.2,2.3-.3,4.5.7,5.7,2.7.6.9,1.1,2,1.4,3,.3,1.5,0,3-.8,4.2-1,1.4-2.2,2.7-3.7,3.6-.4.2-.4.4-.2.8.6.9,1.1,1.8,1.6,2.7.1.2.1.4,0,.5l-1.9,1.2c-.2-.3-.4-.6-.5-.8-.5-.8-.9-1.5-1.5-2.2-.2-.2-.3-.3-.6-.1-.4.3-.9.6-1.3.8.8,1.2,1.5,2.2,2.2,3.4l-2.3,1.5c-.7-1.1-1.5-2.2-2.2-3.4l-5.7,3.6c-.8-1.3-1.6-2.6-2.5-3.9l1.7-1.1-8.4-13.4-1.7,1.1c-.8-1.3-1.6-2.6-2.5-3.9l5.7-3.6-2.4-3.8,2.3-1.4c.8,1.2,1.5,2.5,2.3,3.7l1.7-1.1c-.8-1.3-1.5-2.5-2.3-3.7h.1ZM44.3,134.8c-.4.2-.8.5-1.1.7-.2.2-.3.3,0,.6,1,1.6,1.9,3.1,2.9,4.6.2.3.4.3.6.1.7-.5,1.3-.8,2-1.3,1.3-.8,1.8-2.4,1.2-3.7-.5-1.6-2.2-2.5-3.7-1.9-.3,0-.6.3-.9.5l-.8.5h0ZM39.2,130.1c.4.6.8,1.3,1.2,1.9.1.2.3.3.5.2.7-.5,1.4-.9,2-1.3.7-.5,1-1.4.6-2.2-.2-.5-.4-1-.8-1.5-.7-1-2.1-1.3-3.2-.5h0c-.5.3-1,.7-1.6,1-.2.2-.3.3,0,.6.4.6.9,1.3,1.2,1.9h0Z"/>
    </g>
    <path class="st5" d="M48.9,109.8c3.1.6,6,1.9,8.6,3.6,2.6,1.8,4.8,4,6.5,6.7,1.7,2.7,2.9,5.6,3.5,8.8,1.1,6.3-.3,12.8-4.1,18.1-1.8,2.6-4.1,4.7-6.9,6.4-2.7,1.6-5.7,2.7-8.8,3.3-3.1.5-6.3.3-9.3-.4,9.4,1.9,19-1.9,24.4-9.7,3.5-5.1,5-11.4,3.9-17.5-1.7-9.4-8.6-17-17.9-19.2h0Z"/>
    <path class="st1" d="M38.3,156.2c-3.1-.6-6-1.9-8.6-3.6-2.6-1.8-4.8-4-6.5-6.7-1.7-2.7-2.9-5.6-3.4-8.7-1.1-6.3.3-12.8,4.1-18,1.9-2.6,4.2-4.8,6.9-6.4s5.7-2.7,8.9-3.2c3.1-.5,6.3-.3,9.3.5-9.3-2-18.9,1.8-24.5,9.6-3.5,5.1-5,11.4-4,17.5,1.6,9.4,8.6,17,17.8,19.3h0Z"/>
    <path class="st5" d="M29.8,132.7c-.2-.3-.4-.6-.7-.9s-.4-.6-.7-.9l-1.3-1.9h-.1c0,0,.1-.3.1-.3,1.8-1.2,3.8-2.5,5.7-3.6v.2c0,0-1.2-1.8-1.2-1.8l-.6-1c-.2-.3-.4-.7-.5-1,.2.3.4.6.6.9l.6.9,1.2,1.8h.1c0,0,0,.2,0,.2-1.9,1.2-3.9,2.4-5.8,3.6v-.3s1.2,2,1.2,2c.2.3.4.7.5,1s.4.7.5,1h.3Z"/>
    <path class="st5" d="M40.7,149.9c-.4-.6-.9-1.3-1.3-1.9s-.9-1.3-1.3-1.9h-.1c0,0,0-.2,0-.2l1.7-1.1v.2c0,0-2.2-3.3-2.2-3.3-.7-1.1-1.4-2.2-2.1-3.3s-1.4-2.2-2.1-3.4-1.4-2.2-2-3.4c.8,1.1,1.5,2.2,2.2,3.3s1.4,2.2,2.2,3.3,1.4,2.2,2.1,3.3l2.1,3.3h.1c0,0-.1.3-.1.3l-1.7,1.1h0c.3.5.7,1.1,1.1,1.8s.8,1.3,1.1,2h.2Z"/>
    <path class="st5" d="M46.6,140.8c.3-.3.7-.5,1-.8l1.1-.8c.7-.5,1-1.3,1.1-2.1,0-1.3-.7-2.4-1.8-3.1-.4-.2-.8-.3-1.2-.4.9,0,1.8.3,2.4,1,.7.6,1,1.6,1,2.5,0,1-.5,1.8-1.3,2.3-.8.5-1.5.9-2.2,1.3h0Z"/>
    <path class="st5" d="M41,132.1c.6-.5,1.2-.9,1.7-1.3.5-.4.8-1.1.7-1.8,0-.7-.4-1.3-.8-1.8-.5-.6-1.1-.9-1.8-1.1.8,0,1.4.4,1.9.9.6.5.9,1.2,1,2,0,.8-.3,1.5-.9,2-.6.4-1.2.7-1.9,1h0Z"/>
    <path class="st5" d="M46.5,146.2c.9,1,1.6,2.1,2.2,3.4-.5-.5-.9-1-1.2-1.6-.4-.6-.7-1.2-.9-1.8h0Z"/>
    <path class="st5" d="M50.3,143.8c.9,1,1.6,2.1,2.2,3.4-.4-.5-.9-1-1.2-1.6-.4-.6-.7-1.2-.9-1.8h0Z"/>
  </g>
  <g>
    <path class="st3" d="M235.2,105.8c0,12.5-10,22.7-22.5,22.7-12.5,0-22.7-10-22.7-22.5,0-12.4,10-22.6,22.5-22.7,12.5,0,22.7,10,22.8,22.5h0q0,0,0,0Z"/>
    <g class="st2">
      <path d="M212.7,126.9c-11.6.1-21.1-9.3-21.1-20.9-.1-11.6,9.3-21.1,20.9-21.1,11.6-.1,21.1,9.3,21.1,20.9h0c0,11.6-9.3,21.1-20.9,21.1ZM231.4,106.2c.2-10.4-8.1-19-18.6-19.1-10.4-.2-19,8.1-19.1,18.6-.2,10.4,8,18.9,18.4,19.1,10.4.2,19-8,19.3-18.4h0c0-.1,0-.2,0-.2Z"/>
      <path d="M212.4,92.7h2.2s0,.6,0,.6c0,.8,0,1.7,0,2.5,0,.3.1.4.4.4.9.1,1.8.3,2.7.5,2.2.7,3.3,2.3,3.1,4.7,0,.4,0,.8-.2,1.2-.2,1.1-.9,1.9-1.8,2.3-.2.1-.4.2-.7.4.4.2.7.3,1,.4,1.6.7,2.8,2.4,2.7,4.2,0,.9,0,1.8-.4,2.6-.4,1.1-1.2,2-2.3,2.5-1.3.5-2.6.8-4,.8-.3,0-.5,0-.4.4,0,.9,0,1.7,0,2.5,0,.2,0,.3-.3.3h-1.9c0-.3,0-.5,0-.8,0-.7,0-1.4,0-2.1,0-.2,0-.3-.3-.3-.4,0-.8,0-1.3,0,0,1.1,0,2.1,0,3.2h-2.2c0-1.1,0-2.1,0-3.2h-5.3c0-1.2,0-2.3,0-3.6h1.6s0-12.5,0-12.5h-1.6c0-1.2,0-2.4,0-3.6h5.3c0-1.2,0-2.3,0-3.5h2.2s0,3.5,0,3.5h1.6c0-1.2,0-2.3,0-3.5h.1ZM212.2,107.3c-.3,0-.7,0-1.1,0-.2,0-.3,0-.3.3,0,1.4,0,2.9,0,4.3,0,.3.1.4.3.3.6,0,1.3,0,1.9,0,1.2,0,2.2-.8,2.3-2,.3-1.3-.4-2.6-1.7-2.9h-.8c0-.1-.7-.1-.7-.1h0ZM210.7,102.1c0,.6,0,1.3,0,1.8,0,.2,0,.3.3.3.6,0,1.3,0,1.9,0,.7,0,1.2-.5,1.3-1.2s.1-.9,0-1.3c0-1-.9-1.7-1.9-1.7h0c-.5,0-1,0-1.5,0-.2,0-.3,0-.3.3,0,.6,0,1.2,0,1.8h0Z"/>
    </g>
    <path class="st5" d="M225.7,92.5c1.8,1.7,3.3,3.8,4.3,6,1,2.3,1.5,4.8,1.6,7.3s-.4,5-1.4,7.3c-1.9,4.7-5.6,8.5-10.3,10.4-2.3,1-4.8,1.5-7.3,1.5-2.5,0-5-.5-7.3-1.5-2.3-1-4.3-2.4-6.1-4.2,5.5,5.2,13.5,6.7,20.5,3.7,4.5-2,8.1-5.6,10-10.1,2.9-7,1.3-15-4-20.4h0Z"/>
    <path class="st1" d="M199.2,119.3c-1.8-1.7-3.3-3.8-4.3-6.1-1-2.3-1.5-4.8-1.6-7.3s.4-5,1.4-7.3c1.9-4.7,5.6-8.5,10.3-10.4,2.3-.9,4.8-1.5,7.3-1.5,5.1,0,9.8,2.1,13.3,5.7-5.5-5.2-13.5-6.7-20.5-3.8-4.5,2-8.1,5.5-10,10.1-2.9,7-1.3,15,3.9,20.4h0Z"/>
    <path class="st5" d="M203.3,99.9c0-.3,0-.6,0-.9s0-.6,0-.9v-1.8c0,0,0-.1,0-.1h.1c1.8,0,3.6,0,5.3,0h-.1c0,.1,0-1.6,0-1.6v-.9c0-.3,0-.6,0-.9v.9s0,.9,0,.9v1.8c0,0,0,.1,0,.1h-.1c-1.8,0-3.6,0-5.3,0h.1c0-.1,0,1.7,0,1.7,0,.3,0,.6,0,.9s0,.6,0,.9Z"/>
    <path class="st5" d="M203.5,116c0-.6,0-1.2,0-1.8s0-1.2,0-1.8h0c0-.1.1,0,.1,0h1.6s-.1.1-.1.1v-3.1c0-1,0-2.1,0-3.1s0-2.1,0-3.1,0-2.1,0-3.1c0,1,0,2.1.1,3.1s0,2.1,0,3.1,0,2,0,3.1v3.1s0,.1,0,.1h-.1s-1.6,0-1.6,0h0c0,.5,0,1.1,0,1.7s0,1.2,0,1.9h-.1Z"/>
    <path class="st5" d="M211.2,112.3c.3,0,.7,0,1,0h1c.6-.1,1.3-.5,1.6-1,.4-.6.5-1.2.4-1.9,0-.3-.1-.6-.3-1s-.4-.6-.7-.8c.6.3,1.1,1,1.2,1.7.2.7,0,1.5-.3,2.1-.4.6-1.1,1-1.9,1-.7,0-1.4,0-2.1-.1h0Z"/>
    <path class="st5" d="M211.1,104.2c.6,0,1.2-.1,1.7-.1.5,0,1-.4,1.2-.9s.3-1,.2-1.6c0-.5-.3-1.1-.7-1.5.5.4.8.9,1,1.4.1.6,0,1.2-.2,1.7-.3.6-.8.9-1.5,1-.6,0-1.1,0-1.7,0h0Z"/>
    <path class="st5" d="M208.8,115.9c0,.5.2,1,.1,1.6,0,.5,0,1.1-.1,1.6,0-.5-.2-1-.1-1.6,0-.5,0-1.1.1-1.6h0Z"/>
    <path class="st5" d="M212.4,116c.2,1,.2,2.1,0,3.1-.2-1.1-.2-2.1,0-3.1Z"/>
  </g>
  <g>
    <path d="M196.5,158.5v-9.5h3.8c.7,0,1.3.1,1.7.3.5.2.8.5,1,.9.2.4.4.8.4,1.3s0,.7-.2,1c-.1.3-.4.5-.6.7-.3.2-.6.3-.9.4h0c.4.1.7.2,1,.4s.6.5.8.8.3.7.3,1.2-.1.9-.4,1.3-.6.7-1.1.9c-.5.2-1.1.3-1.8.3h-4ZM198.4,149.5v-1.7h.8v1.7h-.8ZM198.4,159.7v-1.7h.8v1.7h-.8ZM198.5,153h1.5c.3,0,.5,0,.7-.1s.4-.2.5-.4.2-.4.2-.6-.1-.6-.4-.8-.6-.3-1-.3h-1.5v2.3ZM198.5,156.9h1.6c.6,0,1-.1,1.2-.3s.4-.5.4-.9,0-.5-.2-.7c-.1-.2-.3-.4-.5-.5-.2-.1-.5-.2-.8-.2h-1.7v2.5ZM200.1,149.5v-1.7h.8v1.7h-.8ZM200.1,159.7v-1.7h.8v1.7h-.8Z"/>
    <path d="M205.1,158.5v-9.5h3.8c.7,0,1.3.1,1.7.3.5.2.8.5,1,.9.2.4.4.8.4,1.3s0,.7-.2,1c-.1.3-.4.5-.6.7-.3.2-.6.3-.9.4h0c.4.1.7.2,1,.4s.6.5.8.8.3.7.3,1.2-.1.9-.4,1.3-.6.7-1.1.9c-.5.2-1.1.3-1.8.3h-4ZM207,149.5v-1.7h.8v1.7h-.8ZM207,159.7v-1.7h.8v1.7h-.8ZM207.1,153h1.5c.3,0,.5,0,.7-.1s.4-.2.5-.4.2-.4.2-.6-.1-.6-.4-.8-.6-.3-1-.3h-1.5v2.3ZM207.1,156.9h1.6c.6,0,1-.1,1.2-.3s.4-.5.4-.9,0-.5-.2-.7c-.1-.2-.3-.4-.5-.5-.2-.1-.5-.2-.8-.2h-1.7v2.5ZM208.7,149.5v-1.7h.8v1.7h-.8ZM208.7,159.7v-1.7h.8v1.7h-.8Z"/>
    <path d="M213.7,158.5v-9.5h3.8c.7,0,1.3.1,1.7.3.5.2.8.5,1,.9.2.4.4.8.4,1.3s0,.7-.2,1c-.1.3-.4.5-.6.7-.3.2-.6.3-.9.4h0c.4.1.7.2,1,.4s.6.5.8.8.3.7.3,1.2-.1.9-.4,1.3-.6.7-1.1.9c-.5.2-1.1.3-1.8.3h-4ZM215.6,149.5v-1.7h.8v1.7h-.8ZM215.6,159.7v-1.7h.8v1.7h-.8ZM215.7,153h1.5c.3,0,.5,0,.7-.1s.4-.2.5-.4.2-.4.2-.6-.1-.6-.4-.8-.6-.3-1-.3h-1.5v2.3ZM215.7,156.9h1.6c.6,0,1-.1,1.2-.3s.4-.5.4-.9,0-.5-.2-.7c-.1-.2-.3-.4-.5-.5-.2-.1-.5-.2-.8-.2h-1.7v2.5ZM217.3,149.5v-1.7h.8v1.7h-.8ZM217.3,159.7v-1.7h.8v1.7h-.8Z"/>
    <path d="M222.3,158.5v-9.5h3.8c.7,0,1.3.1,1.7.3.5.2.8.5,1,.9.2.4.4.8.4,1.3s0,.7-.2,1c-.1.3-.4.5-.6.7-.3.2-.6.3-.9.4h0c.4.1.7.2,1,.4s.6.5.8.8.3.7.3,1.2-.1.9-.4,1.3-.6.7-1.1.9c-.5.2-1.1.3-1.8.3h-4ZM224.1,149.5v-1.7h.8v1.7h-.8ZM224.1,159.7v-1.7h.8v1.7h-.8ZM224.3,153h1.5c.3,0,.5,0,.7-.1s.4-.2.5-.4.2-.4.2-.6-.1-.6-.4-.8-.6-.3-1-.3h-1.5v2.3ZM224.3,156.9h1.6c.6,0,1-.1,1.2-.3s.4-.5.4-.9,0-.5-.2-.7c-.1-.2-.3-.4-.5-.5-.2-.1-.5-.2-.8-.2h-1.7v2.5ZM225.9,149.5v-1.7h.8v1.7h-.8ZM225.9,159.7v-1.7h.8v1.7h-.8Z"/>
  </g>
</svg>