<?xml version="1.0" encoding="UTF-8"?>
<svg id="Layer_1" xmlns="http://www.w3.org/2000/svg" xmlns:xlink="http://www.w3.org/1999/xlink" version="1.1" viewBox="0 0 600 225">
  <!-- Generator: Adobe Illustrator 29.8.2, SVG Export Plug-In . SVG Version: 2.1.1 Build 3)  -->
  <defs>
    <style>
      .st0 {
        opacity: .1;
      }

      .st0, .st1, .st2, .st3, .st4, .st5, .st6, .st7, .st8 {
        isolation: isolate;
      }

      .st1, .st7 {
        opacity: .6;
      }

      .st2, .st6 {
        opacity: .2;
      }

      .st9 {
        fill: url(#linear-gradient2);
      }

      .st10 {
        fill: url(#linear-gradient1);
      }

      .st11 {
        fill: url(#linear-gradient3);
      }

      .st12 {
        fill: url(#linear-gradient6);
      }

      .st13 {
        fill: url(#linear-gradient8);
      }

      .st14 {
        fill: url(#linear-gradient7);
      }

      .st15 {
        fill: url(#linear-gradient5);
      }

      .st16 {
        fill: url(#linear-gradient4);
      }

      .st17 {
        fill: #ff603b;
      }

      .st18 {
        fill: url(#linear-gradient);
      }

      .st19 {
        fill: #263238;
      }

      .st20 {
        fill: #ff5c00;
      }

      .st21, .st3, .st4, .st5, .st6, .st7, .st8 {
        fill: #fff;
      }

      .st22 {
        fill: #ffe4d6;
      }

      .st23 {
        fill: #eec1bb;
      }

      .st24, .st8 {
        opacity: .5;
      }

      .st25, .st5 {
        opacity: .3;
      }

      .st26 {
        fill: #d4827d;
      }

      .st27 {
        fill: #ebc0bb;
      }

      .st3 {
        opacity: .7;
      }

      .st4 {
        opacity: .8;
      }
    </style>
    <linearGradient id="linear-gradient" x1="643.9" y1="2654.2" x2="642.1" y2="2693.3" gradientTransform="translate(-475.9 2907.5) scale(1 -1)" gradientUnits="userSpaceOnUse">
      <stop offset="0" stop-color="#231f20" stop-opacity="0"/>
      <stop offset="1" stop-color="#231f20"/>
    </linearGradient>
    <linearGradient id="linear-gradient1" x1="643.9" y1="2662.6" x2="642.1" y2="2701.8" xlink:href="#linear-gradient"/>
    <linearGradient id="linear-gradient2" x1="643.9" y1="2671.9" x2="642.1" y2="2711" xlink:href="#linear-gradient"/>
    <linearGradient id="linear-gradient3" x1="643.9" y1="2681" x2="642.1" y2="2720.1" xlink:href="#linear-gradient"/>
    <linearGradient id="linear-gradient4" x1="643.9" y1="2689.4" x2="642.1" y2="2728.5" xlink:href="#linear-gradient"/>
    <linearGradient id="linear-gradient5" x1="643.9" y1="2698.7" x2="642.1" y2="2737.8" xlink:href="#linear-gradient"/>
    <linearGradient id="linear-gradient6" x1="643.9" y1="2707.2" x2="642.1" y2="2746.3" xlink:href="#linear-gradient"/>
    <linearGradient id="linear-gradient7" x1="636.8" y1="2757.9" x2="655.6" y2="2654.4" gradientTransform="translate(-475.9 2907.5) scale(1 -1)" gradientUnits="userSpaceOnUse">
      <stop offset="0" stop-color="#fff" stop-opacity="0"/>
      <stop offset=".9" stop-color="#fff"/>
    </linearGradient>
    <linearGradient id="linear-gradient8" x1="648.3" y1="2739" x2="639" y2="2690.2" xlink:href="#linear-gradient7"/>
  </defs>
  <g>
    <path class="st19" d="M340.3,351.9h-110.8c-13.3,0-24.1-10.9-24.1-24.2V49.8c0-13.3,10.9-24.1,24.2-24.1h110.8c13.3,0,24.1,10.9,24.1,24.2v277.9c0,13.3-10.9,24.1-24.2,24.1Z"/>
    <path class="st22" d="M340.3,35.6h-21.5c-2.9,0-5.3,2.5-5.2,5.4,0,0,0,0,0,0v3.9c0,2.9-2.3,5.4-5.2,5.5,0,0,0,0,0,0h-41.9c-3,0-5.3-2.5-5.2-5.5h0v-4c0-2.9-2.3-5.4-5.2-5.5,0,0,0,0,0,0h-26.4c-9.3,0-16.9,7.6-16.9,16.9v271.2c0,9.3,7.5,16.9,16.8,16.9h110.6c9.3,0,16.9-7.5,16.9-16.8h0s0-271.2,0-271.2c0-9.3-7.6-16.9-16.9-16.9s0,0,0,0Z"/>
    <path class="st19" d="M278.3,70.3c0,.7-.5,1-1.5,1h-2v-3.9h1.9c1,0,1.5.4,1.5,1,0,.4-.2.7-.5.8.4.1.7.5.7,1ZM275.6,68.1v.9h.9c.4,0,.7-.2.7-.5s-.2-.4-.7-.4h-.9ZM277.4,70.2c0-.3-.3-.5-.7-.5h-1v.9h1.1c.4,0,.7-.1.7-.4Z"/>
    <path class="st19" d="M281.5,70.5h-1.8l-.3.8h-.9l1.7-3.9h.9l1.7,3.9h-.9l-.4-.8ZM281.2,69.8l-.6-1.5-.6,1.5h1.2Z"/>
    <path class="st19" d="M286.7,67.5v3.9h-.7l-1.9-2.3v2.3h-.9v-3.9h.7l1.9,2.3v-2.3h.9Z"/>
    <path class="st19" d="M289,69.8l-.5.5v1h-.9v-3.9h.9v1.8l1.7-1.8h1l-1.6,1.7,1.7,2.1h-1l-1.2-1.5Z"/>
    <path class="st21" d="M285,142.6c0,0-.1-.4-.1-.9s0-.9,0-.9c.1.3.2.6.1.9,0,.3,0,.6,0,.9Z"/>
    <path class="st21" d="M287.4,130.7c-.2,0-.5,0-.7,0h-1.9c-.4,0-.8,0-1.3.1s-.9.1-1.5.2c-2.3.4-4.4,1.1-6.5,2.2-.5.3-.9.5-1.3.7s-.8.5-1.1.7-.6.4-.9.6-.5.4-.6.5c-.2.2-.4.3-.6.4.2-.2.3-.3.5-.5.2-.2.4-.3.6-.5s.5-.4.9-.7.7-.5,1.1-.7.8-.5,1.3-.8c1-.5,2.1-1,3.2-1.4,1.1-.4,2.2-.6,3.4-.8.5,0,1-.2,1.5-.2s.9,0,1.3,0,.8,0,1.1,0c.3,0,.5,0,.8,0,.2,0,.5,0,.7.1Z"/>
  </g>
  <g id="bitcoin_1_bitcoin-46">
    <path class="st20" d="M205.4,243.5c0,5.3-17,9.5-37.9,9.5s-37.9-4.3-37.9-9.5,0-3.2,0-5.9v-1c.7-2.7,6-5.2,14-6.8,6.9,1.6,15.3,4.3,23.8,4.3s16.5-2.6,23.2-4.3c8.3,1.6,13.9,4.1,14.6,6.9v1.1h0c0,2.8,0,5.3,0,5.9h0Z"/>
    <path class="st18" d="M205.4,243.5c0,5.3-17,9.5-37.9,9.5s-37.9-4.3-37.9-9.5,0-3.2,0-5.9v-1c.7-2.7,6-5.2,14-6.8,6.9,1.6,15.3,4.3,23.8,4.3s16.5-2.6,23.2-4.3c8.3,1.6,13.9,4.1,14.6,6.9v1.1h0c0,2.8,0,5.3,0,5.9h0Z"/>
    <path class="st20" d="M205.4,237.2c0,.1,0,.3,0,.5h0c-1,5-17.6,9.1-37.9,9.1s-37.1-4.1-37.9-9.1v-.4c0-.2,0-.4,0-.6.7-2.7,6-5.2,14-6.8,6.5-1.3,14.8-2.1,23.8-2.1s16.8.7,23.2,2c8.3,1.6,13.9,4.1,14.6,6.9,0,.2,0,.4,0,.6h0Z"/>
    <path class="st20" d="M205.4,235c0,5.3-17,9.5-37.9,9.5s-37.9-4.3-37.9-9.5,0-3.2,0-5.9v-1c.7-2.7,6-5.2,14-6.8,6.9,1.6,15.3,4.3,23.8,4.3s16.5-2.6,23.2-4.3c8.3,1.6,13.9,4.1,14.6,6.9v1.1h0c0,2.8,0,5.3,0,5.9h0Z"/>
    <path class="st10" d="M205.4,235c0,5.3-17,9.5-37.9,9.5s-37.9-4.3-37.9-9.5,0-3.2,0-5.9v-1c.7-2.7,6-5.2,14-6.8,6.9,1.6,15.3,4.3,23.8,4.3s16.5-2.6,23.2-4.3c8.3,1.6,13.9,4.1,14.6,6.9v1.1h0c0,2.8,0,5.3,0,5.9h0Z"/>
    <path class="st20" d="M205.4,228.7c0,.1,0,.3,0,.5h0c-1,5-17.6,9.1-37.9,9.1s-37.1-4.1-37.9-9.1v-.4c0-.2,0-.4,0-.6.7-2.7,6-5.2,14-6.8,6.5-1.3,14.8-2.1,23.8-2.1s16.8.7,23.2,2c8.3,1.6,13.9,4.1,14.6,6.9,0,.2,0,.4,0,.6h0Z"/>
    <path class="st20" d="M205.4,225.7c0,5.3-17,9.5-37.9,9.5s-37.9-4.3-37.9-9.5,0-3.2,0-5.9v-1c.7-2.7,6-5.2,14-6.8,6.9,1.6,15.3,4.3,23.8,4.3s16.5-2.6,23.2-4.3c8.3,1.6,13.9,4.1,14.6,6.9v1.1h0c0,2.8,0,5.3,0,5.9h0Z"/>
    <path class="st9" d="M205.4,225.7c0,5.3-17,9.5-37.9,9.5s-37.9-4.3-37.9-9.5,0-3.2,0-5.9v-1c.7-2.7,6-5.2,14-6.8,6.9,1.6,15.3,4.3,23.8,4.3s16.5-2.6,23.2-4.3c8.3,1.6,13.9,4.1,14.6,6.9v1.1h0c0,2.8,0,5.3,0,5.9h0Z"/>
    <path class="st20" d="M205.4,219.4c0,.1,0,.3,0,.5h0c-1,5-17.6,9.1-37.9,9.1s-37.1-4.1-37.9-9.1v-.4c0-.2,0-.4,0-.6.7-2.7,6-5.2,14-6.8,6.5-1.3,14.8-2.1,23.8-2.1s16.8.7,23.2,2c8.3,1.6,13.9,4.1,14.6,6.9,0,.2,0,.4,0,.6h0Z"/>
    <path class="st20" d="M205.4,216.7c0,5.3-17,9.5-37.9,9.5s-37.9-4.3-37.9-9.5,0-3.2,0-5.9v-1c.7-2.7,6-5.2,14-6.8,6.9,1.6,15.3,4.3,23.8,4.3s16.5-2.6,23.2-4.3c8.3,1.6,13.9,4.1,14.6,6.9v1.1h0c0,2.8,0,5.3,0,5.9h0Z"/>
    <path class="st11" d="M205.4,216.7c0,5.3-17,9.5-37.9,9.5s-37.9-4.3-37.9-9.5,0-3.2,0-5.9v-1c.7-2.7,6-5.2,14-6.8,6.9,1.6,15.3,4.3,23.8,4.3s16.5-2.6,23.2-4.3c8.3,1.6,13.9,4.1,14.6,6.9v1.1h0c0,2.8,0,5.3,0,5.9h0Z"/>
    <path class="st20" d="M205.4,210.4c0,.1,0,.3,0,.5h0c-1,5-17.6,9.1-37.9,9.1s-37.1-4.1-37.9-9.1v-.4c0-.2,0-.4,0-.6.7-2.7,6-5.2,14-6.8,6.5-1.3,14.8-2.1,23.8-2.1s16.8.7,23.2,2c8.3,1.6,13.9,4.1,14.6,6.9,0,.2,0,.4,0,.6h0Z"/>
    <path class="st20" d="M205.4,208.3c0,5.3-17,9.5-37.9,9.5s-37.9-4.3-37.9-9.5,0-3.2,0-5.9v-1c.7-2.7,6-5.2,14-6.8,6.9,1.6,15.3,4.3,23.8,4.3s16.5-2.6,23.2-4.3c8.3,1.6,13.9,4.1,14.6,6.9v1.1h0c0,2.8,0,5.3,0,5.9h0Z"/>
    <path class="st16" d="M205.4,208.3c0,5.3-17,9.5-37.9,9.5s-37.9-4.3-37.9-9.5,0-3.2,0-5.9v-1c.7-2.7,6-5.2,14-6.8,6.9,1.6,15.3,4.3,23.8,4.3s16.5-2.6,23.2-4.3c8.3,1.6,13.9,4.1,14.6,6.9v1.1h0c0,2.8,0,5.3,0,5.9h0Z"/>
    <path class="st20" d="M205.4,201.9c0,.1,0,.3,0,.5h0c-1,5-17.6,9.1-37.9,9.1s-37.1-4.1-37.9-9.1v-.4c0-.2,0-.4,0-.6.7-2.7,6-5.2,14-6.8,6.5-1.3,14.8-2.1,23.8-2.1s16.8.7,23.2,2c8.3,1.6,13.9,4.1,14.6,6.9,0,.2,0,.4,0,.6h0Z"/>
    <path class="st20" d="M205.4,198.9c0,5.3-17,9.5-37.9,9.5s-37.9-4.3-37.9-9.5,0-3.2,0-5.9v-1c.7-2.7,6-5.2,14-6.8,6.9,1.6,15.3,4.3,23.8,4.3s16.5-2.6,23.2-4.3c8.3,1.6,13.9,4.1,14.6,6.9v1.1h0c0,2.8,0,5.3,0,5.9h0Z"/>
    <path class="st15" d="M205.4,198.9c0,5.3-17,9.5-37.9,9.5s-37.9-4.3-37.9-9.5,0-3.2,0-5.9v-1c.7-2.7,6-5.2,14-6.8,6.9,1.6,15.3,4.3,23.8,4.3s16.5-2.6,23.2-4.3c8.3,1.6,13.9,4.1,14.6,6.9v1.1h0c0,2.8,0,5.3,0,5.9h0Z"/>
    <path class="st20" d="M205.4,192.6c0,.1,0,.3,0,.5h0c-1,5-17.6,9.1-37.9,9.1s-37.1-4.1-37.9-9.1v-.4c0-.2,0-.4,0-.6.7-2.7,6-5.2,14-6.8,6.5-1.3,14.8-2.1,23.8-2.1s16.8.7,23.2,2c8.3,1.6,13.9,4.1,14.6,6.9,0,.2,0,.4,0,.6h0Z"/>
    <path class="st20" d="M205.4,190.5c0,5.3-17,9.5-37.9,9.5s-37.9-4.3-37.9-9.5,0-3.2,0-5.9v-1c.7-2.7,6-5.2,14-6.8,6.9,1.6,15.3,4.3,23.8,4.3s16.5-2.6,23.2-4.3c8.3,1.6,13.9,4.1,14.6,6.9v1.1h0c0,2.8,0,5.3,0,5.9h0Z"/>
    <path class="st12" d="M205.4,190.5c0,5.3-17,9.5-37.9,9.5s-37.9-4.3-37.9-9.5,0-3.2,0-5.9v-1c.7-2.7,6-5.2,14-6.8,6.9,1.6,15.3,4.3,23.8,4.3s16.5-2.6,23.2-4.3c8.3,1.6,13.9,4.1,14.6,6.9v1.1h0c0,2.8,0,5.3,0,5.9h0Z"/>
    <path class="st20" d="M205.4,184.2c0,.1,0,.3,0,.5h0c-1,5-17.6,9.1-37.9,9.1s-37.1-4.1-37.9-9.1v-.4c0-.2,0-.4,0-.6.7-2.7,6-5.2,14-6.8,6.5-1.3,14.8-2.1,23.8-2.1s16.8.7,23.2,2c8.3,1.6,13.9,4.1,14.6,6.9,0,.2,0,.4,0,.6h0Z"/>
    <path class="st14" d="M198.1,183.6v.4h0c-.8,4.1-14.4,7.4-31,7.4s-30.4-3.3-31-7.5v-.3c0-.2,0-.3,0-.5.5-2.2,4.9-4.3,11.5-5.6,5.3-1.1,12.1-1.7,19.5-1.7s13.8.6,19,1.6c6.8,1.3,11.3,3.3,12,5.6,0,.2,0,.4,0,.5h0Z"/>
    <path class="st20" d="M159.7,188.3c-.9,0-1.7,0-2.6-.1-.7,0-1.4-.2-2.1-.3-.5,0-1.1-.2-1.6-.5-.6-.2-1.3-.5-1.8-1-.5-.4-.9-.7-1.3-1.1l-4.4-4.3h.5c.4.2.8.4,1.1.5.5.2,1,.3,1.6.3h.9c.4,0,.8,0,1.2,0,.5,0,.9,0,1.4,0s1,0,1.4-.1l1.6-.2,2.3-.2,2.6-.3,2.5-.3,2.3-.2,1.9-.2,2-.2c.7,0,1.4-.1,2.3-.3.5,0,1.1-.1,1.6-.2s1-.1,1.5-.2.9-.1,1.2-.2c.2,0,.5,0,.7-.2.3-.2.5-.3.5-.5,0-.2,0-.4-.2-.5h.5s4.3,4.2,4.3,4.2c.3.3.5.6.7.9.1.3.2.6.1.9-.1.5-.6.9-1.5,1.3s-2.1.7-3.9.9c-1.7.2-3.5.2-5.2,0-1.3-.1-2.6-.5-3.8-1.1h-.2c.2.3.2.7.1,1-.1.4-.4.7-.8,1-.5.4-1.2.6-1.8.8-1,.3-1.9.5-2.9.5-1,0-2,.1-3,.1h0ZM179.2,183.8c.9-.3,1.5-.7,1.6-1.1.2-.5,0-1-.6-1.5-.2-.2-.4-.3-.5-.5-.2-.1-.4-.2-.5-.3h-1.1c0,0-.8.2-.8.2h-1.3c0,.1-3.4.5-3.4.5l-3.5.4-2.8.3h-1.4c0,.1.7.8.7.8.2.1.3.3.5.5.9.7,2.2,1.2,3.9,1.5,1.8.2,3.7.3,5.5,0,1.2,0,2.4-.4,3.6-.7h0ZM162.9,186.3c.6-.1,1.1-.3,1.7-.5.4-.1.8-.4,1.1-.6.2-.2.4-.5.5-.7,0-.2,0-.4-.1-.6-.1-.2-.3-.5-.5-.6l-1.2-1.2-2.8.3-2.7.3c-.8,0-1.6.2-2.2.2l-1.7.2c-1.1.1-2,.2-2.7.3-.5,0-1.1.2-1.6.4-.2,0-.4.2-.5.4,0,.2,0,.4.3.7.3.3.6.5,1,.8.5.3,1.1.5,1.7.7,1.1.3,2.2.5,3.4.5,1.4,0,2.7,0,4.1-.1.8,0,1.5-.2,2.2-.4h0Z"/>
    <polygon class="st20" points="179.9 181 179.1 180.3 185.4 179.6 186.1 180.4 179.9 181"/>
    <polygon class="st20" points="181.5 182.6 180.7 181.8 186.9 181.1 187.7 181.9 181.5 182.6"/>
    <path class="st13" d="M138.1,178.2l49.8,13.5s10.9-1.3,13.3-4l-48.8-12.5s-13.1,2.1-14.2,3h0Z"/>
  </g>
  <g id="freepik--Plant--inject-270">
    <path class="st19" d="M444.3,242.3s1.4-10.2,7.9-11.3,4.5-6,6.2-7.9,6.1,3.7,2.3,9.1-.7,3.7-2.3,8.8-14.8,9.7-14.1,1.3Z"/>
    <path class="st6" d="M444.3,242.3s1.4-10.2,7.9-11.3,4.5-6,6.2-7.9,6.1,3.7,2.3,9.1-.7,3.7-2.3,8.8-14.8,9.7-14.1,1.3Z"/>
    <path class="st19" d="M446.4,249.3c-.2,0-.4-.2-.4-.5,0,0,0-.1,0-.2,0-.1,4-10.8.2-27.1-1.2-4.7-2.9-9.2-5-13.6-3.8-8.2-7-15.2-2.2-28.4,1.5-4.1,3-7.9,4.5-11.5,5.5-13.5,9.9-24.2,5.3-34.1-.1-.2,0-.5.2-.6.2-.1.5,0,.6.2,0,0,0,0,0,0,4.8,10.2.3,21.1-5.2,34.9-1.5,3.7-3,7.5-4.5,11.5-4.7,12.8-1.7,19.4,2.2,27.7,2.2,4.4,3.9,9,5.1,13.7,4,16.6-.2,27.5-.2,27.6,0,.2-.3.3-.5.3Z"/>
    <path class="st19" d="M448.3,246.9s4.2-6.3-1.9-9.6-7.3-.6-11-3-6.6-8-7.2-4.4,3.7,5.7,2.2,7.4,10.2,12.4,17.9,9.6Z"/>
    <path class="st19" d="M451.3,138.9s3.1-12.7-6.2-12.3,1.9,11.3,6.2,12.3Z"/>
    <path class="st19" d="M444,149.1s-3.7-11.1-10.1-8.2,3.5,8.9,10.1,8.2Z"/>
    <path class="st19" d="M455.3,149.2s-1.7-8.9,5.3-9.7,4.5,7.4-5.3,9.7Z"/>
    <path class="st19" d="M452.1,167.9s8.7-9.1,12.6-3.2-6.5,8.1-12.6,3.2Z"/>
    <path class="st19" d="M435.4,167.8s-2.9-13.8-10.1-8.8,3.6,10.7,10.1,8.8Z"/>
    <path class="st19" d="M430.3,188.2s4.5-14.5-5.8-12.1-1.8,9.3,5.8,12.1Z"/>
    <path class="st19" d="M446.7,192s8-11.1,14.9-8.3,2.3,13.5-14.9,8.3Z"/>
    <path class="st19" d="M440.5,215.5s-8.8-16-15-9.9,5.3,13.6,15,9.9Z"/>
    <path class="st19" d="M451.3,213.7s-3-12.7,4.5-12.3,6.2,8.5-4.5,12.3Z"/>
    <g class="st2">
      <path class="st21" d="M451.3,138.9s3.1-12.7-6.2-12.3,1.9,11.3,6.2,12.3Z"/>
      <path class="st21" d="M444,149.1s-3.7-11.1-10.1-8.2,3.5,8.9,10.1,8.2Z"/>
      <path class="st21" d="M455.3,149.2s-1.7-8.9,5.3-9.7,4.5,7.4-5.3,9.7Z"/>
      <path class="st21" d="M452.1,167.9s8.7-9.1,12.6-3.2-6.5,8.1-12.6,3.2Z"/>
      <path class="st21" d="M435.4,167.8s-2.9-13.8-10.1-8.8,3.6,10.7,10.1,8.8Z"/>
      <path class="st21" d="M430.3,188.2s4.5-14.5-5.8-12.1-1.8,9.3,5.8,12.1Z"/>
      <path class="st21" d="M446.7,192s8-11.1,14.9-8.3,2.3,13.5-14.9,8.3Z"/>
      <path class="st21" d="M440.5,215.5s-8.8-16-15-9.9,5.3,13.6,15,9.9Z"/>
      <path class="st21" d="M451.3,213.7s-3-12.7,4.5-12.3,6.2,8.5-4.5,12.3Z"/>
    </g>
    <path class="st19" d="M448.7,156.3h0c-.1,0-.2,0-.3-.2,0,0-4.1-6.6-7-8-.2-.1-.3-.4-.2-.6.1-.2.4-.3.6-.2h0c2.6,1.3,6.1,6.4,7.1,7.9,3.3-2.6,6.1-5.7,8.2-9.3.1-.2.4-.3.6-.2.2.1.3.4.2.6-.1.3-3.6,6.4-8.9,9.9,0,0-.2,0-.2,0Z"/>
    <path class="st19" d="M441.5,174.2h0c-.1,0-.2,0-.3-.2,0,0-5.1-7.1-11-10-.2-.1-.3-.4-.1-.6.1-.2.3-.2.5-.2,5.4,2.6,9.9,8.4,11.1,9.9,7.5-6.5,17.5-7,17.6-7,.2,0,.5.2.5.4,0,.2-.2.5-.4.5,0,0,0,0,0,0-.1,0-10.1.6-17.5,7.1-.1,0-.3.1-.4,0Z"/>
    <path class="st19" d="M437.9,197.4c0,0-.2,0-.2,0-6-4-11.1-14.9-11.4-15.3-.1-.2,0-.5.2-.6.2-.1.5,0,.6.2,0,0,0,0,0,0,0,.1,5.1,10.8,10.8,14.8,1.8-1.2,11.6-7.6,19.4-8.4.2,0,.5.2.5.4,0,.2-.1.5-.4.5,0,0,0,0,0,0-8.2.8-19.1,8.3-19.3,8.4,0,0-.2,0-.3,0Z"/>
    <path class="st19" d="M446.4,220.5c-.1,0-.3,0-.3-.2-3.5-3.6-8.1-6-13-7-.2,0-.4-.3-.3-.5,0,0,0,0,0,0,0-.2.3-.4.5-.3,0,0,0,0,0,0,5,1,9.6,3.4,13.2,7,3.8-3,8.4-13.8,8.4-13.9,0-.2.3-.3.6-.2,0,0,0,0,0,0,.2,0,.3.4.2.6,0,0,0,0,0,0-.2.5-4.9,11.8-9,14.6,0,0-.2,0-.3,0Z"/>
    <path class="st19" d="M447.7,245.4s3.6-5.7,7.7-6.5,5.8-5.5,7.3-2.7-2.6,12.2-15,9.2Z"/>
    <polygon class="st17" points="466.4 267.9 427 267.9 424.4 243.6 469 243.6 466.4 267.9"/>
    <polygon class="st17" points="469.9 248.2 423.4 248.2 422.8 243.1 470.5 243.1 469.9 248.2"/>
    <polygon class="st5" points="469.9 248.2 423.4 248.2 422.8 243.1 470.5 243.1 469.9 248.2"/>
  </g>
  <path class="st7" d="M285,39.2c0,1.1-.9,2-2,2s-2-.9-2-2,.9-2,2-2c1.1,0,2,.9,2,2Z"/>
  <path class="st7" d="M289.1,39.2c0,.7-.6,1.3-1.3,1.3s-1.3-.6-1.3-1.3.6-1.3,1.3-1.3h0c.7,0,1.3.6,1.3,1.3,0,0,0,0,0,0Z"/>
  <rect class="st17" x="216.5" y="246.7" width="136.9" height="29.9" rx="3.9" ry="3.9"/>
  <rect class="st17" x="216.5" y="60.7" width="136.9" height="29.9" rx="3.9" ry="3.9"/>
  <g class="st24">
    <path d="M286,221.9l1.3.7-.4.8-1.3-.8v1.5h-.9v-1.5l-1.3.8-.5-.8,1.3-.7-1.3-.7.5-.8,1.3.8v-1.5h.9v1.5l1.3-.8.4.8-1.3.7Z"/>
    <path d="M291,221.9l1.3.7-.5.8-1.3-.8v1.5h-.9v-1.5l-1.3.8-.4-.8,1.3-.7-1.3-.7.4-.8,1.3.8v-1.5h.9v1.5l1.3-.8.5.8-1.3.7Z"/>
    <path d="M296,221.9l1.3.7-.5.8-1.3-.8v1.5h-.9v-1.5l-1.3.8-.5-.8,1.3-.7-1.3-.7.5-.8,1.3.8v-1.5h.9v1.5l1.3-.8.5.8-1.3.7Z"/>
    <path d="M301,221.9l1.3.7-.4.8-1.3-.8v1.5h-.9v-1.5l-1.3.8-.5-.8,1.3-.7-1.3-.7.5-.8,1.3.8v-1.5h.9v1.5l1.3-.8.4.8-1.3.7Z"/>
    <path d="M308.9,221.9l1.3.7-.5.8-1.3-.8v1.5h-.9v-1.5l-1.3.8-.5-.8,1.3-.7-1.3-.7.5-.8,1.3.8v-1.5h.9v1.5l1.3-.8.5.8-1.3.7Z"/>
    <path d="M313.9,221.9l1.3.7-.4.8-1.3-.8v1.5h-.9v-1.5l-1.3.8-.5-.8,1.3-.7-1.3-.7.5-.8,1.3.8v-1.5h.9v1.5l1.3-.8.4.8-1.3.7Z"/>
    <path d="M318.9,221.9l1.3.7-.5.8-1.3-.8v1.5h-.9v-1.5l-1.3.8-.5-.8,1.3-.7-1.3-.7.5-.8,1.3.8v-1.5h.9v1.5l1.3-.8.5.8-1.3.7Z"/>
    <path d="M323.9,221.9l1.3.7-.5.8-1.3-.8v1.5h-.9v-1.5l-1.3.8-.5-.8,1.3-.7-1.3-.7.5-.8,1.3.8v-1.5h.9v1.5l1.3-.8.5.8-1.3.7Z"/>
    <path d="M331.8,221.9l1.3.7-.5.8-1.3-.8v1.5h-.9v-1.5l-1.3.8-.5-.8,1.3-.7-1.3-.7.5-.8,1.3.8v-1.5h.9v1.5l1.3-.8.5.8-1.3.7Z"/>
    <path d="M336.8,221.9l1.3.7-.5.8-1.3-.8v1.5h-.9v-1.5l-1.3.8-.5-.8,1.3-.7-1.3-.7.5-.8,1.3.8v-1.5h.9v1.5l1.3-.8.5.8-1.3.7Z"/>
    <path d="M341.7,221.9l1.3.7-.4.8-1.3-.8v1.5h-.9v-1.5l-1.3.8-.5-.8,1.3-.7-1.3-.7.5-.8,1.3.8v-1.5h.9v1.5l1.3-.8.4.8-1.3.7Z"/>
  </g>
  <rect class="st17" x="226.8" y="213.8" width="24.6" height="16.3" rx="2.6" ry="2.6"/>
  <g class="st24">
    <rect x="226.8" y="222.6" width="24.6" height="4.1"/>
  </g>
  <g class="st24">
    <path d="M249.4,219.7c0,.7-.5,1.2-1.2,1.2-.7,0-1.2-.5-1.2-1.2s.5-1.2,1.2-1.2c0,0,0,0,0,0,.7,0,1.2.5,1.2,1.2Z"/>
  </g>
  <path class="st21" d="M247.8,219.7c0,.7-.5,1.2-1.2,1.2-.7,0-1.2-.5-1.2-1.2s.5-1.2,1.2-1.2c0,0,0,0,0,0,.7,0,1.2.5,1.2,1.2Z"/>
  <path d="M238.5,71l-2.7,8h-.9l-2.4-6.8-2.3,6.8h-.9l-2.7-8h.9l2.3,6.9,2.4-6.9h.8l2.4,6.9,2.4-6.9h.8Z"/>
  <polygon class="st21" points="236.1 79.5 234.5 79.5 232.5 73.6 230.5 79.5 228.9 79.5 225.9 70.5 227.8 70.5 229.8 76.4 231.8 70.5 233.3 70.5 235.3 76.4 237.3 70.5 239.1 70.5 236.1 79.5"/>
  <path d="M243.9,75.3v3.7h-.8v-.9c-.5.7-1.3,1.1-2.1,1-1.4,0-2.2-.7-2.2-1.8s.6-1.7,2.3-1.7h1.9v-.4c0-1-.6-1.6-1.7-1.6-.7,0-1.4.2-2,.7l-.4-.6c.7-.5,1.6-.8,2.4-.8,1.2-.2,2.3.7,2.4,1.8,0,.2,0,.4,0,.6ZM243.1,77.2v-1h-1.9c-1.2,0-1.5.5-1.5,1.1s.6,1.1,1.5,1.1c.8,0,1.6-.4,1.9-1.2Z"/>
  <path class="st21" d="M241.1,79.5c-1.6,0-2.7-.9-2.7-2.2s.3-2.2,2.8-2.2h1.4c0-.5-.2-1-1.2-1-.6,0-1.2.2-1.7.6l-.4.4-.9-1.4.3-.3c.8-.6,1.8-1,2.8-.9,1.4-.2,2.7.9,2.9,2.3,0,.2,0,.4,0,.5v4.2h-1.7v-.3c-.5.2-1,.4-1.6.3ZM241.2,76.7c-1.1,0-1.1.4-1.1.6,0,.6.7.7,1,.7.6,0,1.2-.3,1.4-.9v-.4h-1.4Z"/>
  <path d="M246.1,70.5h.8v8.5h-.8v-8.5Z"/>
  <rect class="st21" x="245.6" y="70" width="1.8" height="9.4"/>
  <path d="M249.2,70.5h.8v8.5h-.8v-8.5Z"/>
  <rect class="st21" x="248.7" y="70" width="1.8" height="9.4"/>
  <path d="M257.5,76.2h-5c0,1.2,1.1,2.2,2.3,2.1,0,0,0,0,0,0,.7,0,1.4-.3,1.8-.8l.5.5c-1.2,1.3-3.2,1.3-4.5,0-.6-.6-.9-1.4-1-2.2,0-1.6,1.1-3,2.7-3.1,0,0,.2,0,.3,0,1.6,0,2.9,1.2,2.9,2.8,0,0,0,.2,0,.2,0,0,0,.2,0,.2ZM252.5,75.6h4.3c0-1.2-1.1-2.1-2.3-2-1.1,0-1.9.9-2,2Z"/>
  <path class="st21" d="M254.8,79.5c-1.9,0-3.5-1.4-3.6-3.3,0,0,0-.1,0-.2-.1-1.9,1.3-3.5,3.2-3.6s3.5,1.3,3.6,3.2c0,.1,0,.2,0,.4v.7h-4.9c.3.7,1,1.2,1.8,1.1.6,0,1.1-.2,1.5-.6l.4-.4,1.1,1.2-.3.3c-.7.8-1.7,1.2-2.7,1.1ZM253.1,75.2h3.1c-.3-.6-.9-1-1.6-1-.7,0-1.3.4-1.6,1Z"/>
  <path d="M262.3,78.6c-.4.3-.8.4-1.3.4-.9,0-1.7-.5-1.8-1.4,0-.1,0-.2,0-.3v-3.6h-1.1v-.7h1.1v-1.3h.8v1.3h1.8v.7h-1.8v3.6c0,.6.4,1,.9,1.1,0,0,0,0,0,0,.3,0,.6,0,.9-.3l.4.6Z"/>
  <path class="st21" d="M261.1,79.5c-1.1,0-2.1-.7-2.2-1.9,0-.1,0-.2,0-.3v-3.1h-1.1v-1.6h1.1v-1.4h1.8v1.3h1.8v1.7h-1.8v3.1c0,.5.2.6.6.6.2,0,.4,0,.6-.2l.5-.4.7,1.5-.3.2c-.5.3-1,.5-1.6.5Z"/>
  <path class="st21" d="M343.8,71.8h-9.9c-.5.2-1.1-.1-1.3-.7-.2-.5.1-1.1.7-1.3.2,0,.4,0,.6,0h9.9c.5-.2,1.1.1,1.3.7.2.5-.1,1.1-.7,1.3-.2,0-.4,0-.6,0Z"/>
  <path class="st21" d="M343.8,81.4h-9.9c-.5.2-1.1-.1-1.3-.6-.2-.5.1-1.1.6-1.3.2,0,.4,0,.6,0h9.9c.5-.2,1.1.1,1.3.6.2.5-.1,1.1-.6,1.3-.2,0-.4,0-.6,0Z"/>
  <path class="st21" d="M343.8,76.6h-9.9c-.5.2-1.1-.1-1.3-.7-.2-.5.1-1.1.7-1.3.2,0,.4,0,.6,0h9.9c.5-.2,1.1.1,1.3.7.2.5-.1,1.1-.7,1.3-.2,0-.4,0-.6,0Z"/>
  <g class="st25">
    <path d="M270.8,157.1h-42.1c-1.3,0-2.5-.9-2.5-2.2,0-1.3.9-2.5,2.2-2.5.1,0,.2,0,.3,0h42.1c1.3,0,2.3,1.2,2.2,2.5,0,1.2-1,2.2-2.2,2.2h0Z"/>
    <path d="M288.9,170.4h-60.2c-1.3,0-2.5-.9-2.5-2.2,0-1.3.9-2.5,2.2-2.5.1,0,.2,0,.3,0h60.2c1.3,0,2.3,1.2,2.2,2.5,0,1.2-1,2.2-2.2,2.2Z"/>
    <path d="M341.3,170.4h-16.4c-1.3,0-2.3-1.2-2.2-2.5,0-1.2,1-2.2,2.2-2.2h16.4c1.3,0,2.5.9,2.5,2.2,0,1.3-.9,2.5-2.2,2.5-.1,0-.2,0-.3,0Z"/>
    <path d="M256.5,180h-27.8c-1.3,0-2.5-.9-2.5-2.2,0-1.3.9-2.5,2.2-2.5.1,0,.2,0,.3,0h27.8c1.3,0,2.3,1.2,2.2,2.5,0,1.2-1,2.2-2.2,2.2Z"/>
    <path d="M341.3,180h-23c-1.3,0-2.3-1.2-2.2-2.5,0-1.2,1-2.2,2.2-2.2h23c1.3,0,2.5.9,2.5,2.2,0,1.3-.9,2.5-2.2,2.5-.1,0-.2,0-.3,0Z"/>
    <path d="M283.2,189.5h-54.5c-1.3,0-2.4-1.1-2.4-2.4s1.1-2.4,2.4-2.4h54.5c1.3,0,2.4,1.1,2.4,2.4s-1.1,2.4-2.4,2.4Z"/>
    <path d="M341.3,189.5h-13.5c-1.3,0-2.4-1.1-2.4-2.4s1.1-2.4,2.4-2.4h13.5c1.3,0,2.4,1.1,2.4,2.4s-1.1,2.4-2.4,2.4Z"/>
  </g>
  <path d="M329,260.3c0,1.7-1.2,2.7-3.3,2.7h-2.2v2.5h-.8v-8h3c2,0,3.3,1,3.3,2.7ZM328.1,260.3c0-1.3-.8-2-2.5-2h-2.1v4h2.1c1.6,0,2.5-.7,2.5-2Z"/>
  <path class="st21" d="M324,266h-1.8v-9h3.5c2.3,0,3.8,1.2,3.8,3.2s-1.4,3.2-3.8,3.2h-1.7v2.6ZM324,261.8h1.6c1.3,0,2-.5,2-1.5s-.7-1.5-2-1.5h-1.6v3.1Z"/>
  <path d="M335.4,263.4h-4.5l-1,2.1h-.9l3.7-8h.8l3.7,8h-.9l-.9-2.1ZM335.1,262.7l-1.9-4.3-1.9,4.3h3.8Z"/>
  <path class="st21" d="M338,266h-1.9l-1-2.1h-3.9l-1,2.1h-1.9l4.1-9h1.5l4.2,9ZM332,262.2h2.4l-1.2-2.7-1.2,2.7Z"/>
  <path d="M340.9,262.8v2.8h-.8v-2.8l-3.2-5.2h.9l2.7,4.5,2.8-4.5h.9l-3.2,5.2Z"/>
  <polygon class="st21" points="341.3 266 339.6 266 339.6 262.9 336 257 338 257 340.5 261.1 343 257 344.9 257 341.3 262.9 341.3 266"/>
  <path class="st21" d="M241.3,266.8h-10.6c-.2,0-.4-.2-.5-.4l-2.4-10.1c0-.3,0-.5.4-.6,0,0,0,0,.1,0h15.4c.2,0,.3,0,.4.2,0,.1.1.3.1.4l-2.4,10.1c0,.2-.3.4-.5.4ZM231.2,265.8h9.7l2.2-9.1h-14.1l2.2,9.1Z"/>
  <path class="st21" d="M236.1,266.8c-.3,0-.5-.2-.5-.5v-10.1c0-.3.4-.4.6-.4.2,0,.3.2.4.4v10.1c0,.3-.2.5-.5.5Z"/>
  <path class="st21" d="M238.9,266.8h0c-.3,0-.5-.3-.5-.6l1.2-10.1c.1-.3.4-.4.7-.3.2,0,.3.2.3.4l-1.2,10.1c0,.2-.2.4-.5.5Z"/>
  <path class="st21" d="M233.2,266.8c-.3,0-.5-.2-.5-.5l-1.2-10.1c0-.3.2-.5.4-.6,0,0,0,0,0,0,.3,0,.5.2.6.5l1.2,10.1c0,.3-.2.5-.5.6h0Z"/>
  <path class="st21" d="M242.9,260.1h-13.7c-.3,0-.4-.4-.4-.6,0-.2.2-.3.4-.4h13.8c.3,0,.4.4.4.6,0,.2-.2.3-.4.4h0Z"/>
  <path class="st21" d="M242.1,263.6h-12.1c-.3,0-.5-.2-.5-.5s.2-.5.5-.5h12.1c.3,0,.5.2.5.5,0,.3-.2.5-.5.5Z"/>
  <path class="st21" d="M231.2,270.5c-.9,0-1.7-.8-1.7-1.7s.8-1.7,1.7-1.7c.9,0,1.7.8,1.7,1.7h0c0,.9-.8,1.7-1.7,1.7ZM231.2,268.1c-.4,0-.7.3-.7.7h0c0,.4.3.7.7.7s.7-.3.7-.7h0c0-.4-.3-.7-.7-.7h0Z"/>
  <path class="st21" d="M240.9,270.5c-.9,0-1.7-.8-1.7-1.7s.8-1.7,1.7-1.7c.9,0,1.7.8,1.7,1.7h0c0,.9-.8,1.7-1.7,1.7ZM240.9,268.1c-.4,0-.7.3-.7.7,0,.4.3.7.7.7.4,0,.7-.3.7-.7,0-.4-.3-.7-.7-.7h0Z"/>
  <path class="st21" d="M228.4,256.7c0,0-.1,0-.2,0l-2.5-.9c-.3,0-.4-.4-.3-.6,0,0,0,0,0,0,0-.3.4-.4.7-.3l2.5.9c.3,0,.4.4.3.7,0,.2-.3.3-.5.3Z"/>
  <circle class="st17" cx="285" cy="124.4" r="20.4" transform="translate(-19 190.1) rotate(-35.8)"/>
  <path class="st21" d="M288.8,129.5c-2.8,0-5.1-2.3-5.1-5.1,0-.3,0-.6,0-.9.5-2.5,2.8-4.2,5.3-4.2h5.6c0,0,.1,0,.1-.1v-3c0-.7-.6-1.3-1.3-1.3h-18.4c-.7,0-1.3.6-1.3,1.3,0,0,0,0,0,0v16.5c0,.7.6,1.3,1.3,1.3h18.3c.7,0,1.3-.6,1.3-1.3v-3c0,0,0-.1-.1-.1h-5.9Z"/>
  <path class="st21" d="M294.7,121h-6c-1.9,0-3.5,1.5-3.5,3.5s1.5,3.5,3.5,3.5h6c.7,0,1.3-.6,1.3-1.3v-4.4c0-.7-.6-1.2-1.3-1.2ZM289,125.7c-.7,0-1.3-.6-1.3-1.3,0-.7.6-1.3,1.3-1.3.7,0,1.3.6,1.3,1.3,0,0,0,0,0,0,0,.7-.6,1.3-1.3,1.3,0,0,0,0,0,0Z"/>
  <g>
    <rect class="st1" x="238.9" y="46.2" width="1.8" height="2.4"/>
    <rect class="st1" x="235.9" y="45.4" width="1.8" height="3.3"/>
    <rect class="st1" x="232.9" y="44.6" width="1.8" height="4.1"/>
    <rect class="st1" x="229.9" y="43.7" width="1.8" height="4.9"/>
  </g>
  <g>
    <rect class="st1" x="332.6" y="43.3" width="1.1" height="2.4"/>
    <rect class="st1" x="334.5" y="42.4" width="8.7" height="4.2"/>
  </g>
  <g id="freepik--speech-bubble--inject-270">
    <path class="st17" d="M433.6,7.9h-28.7c-4.9,0-8.8,4-8.8,8.8h0v25c0,4.9,3.9,8.8,8.8,8.9h8.4l-7,13.9,13-13.9h14.4c4.9,0,8.9-4,8.9-8.8h0v-25c0-4.9-4-8.9-8.8-8.9,0,0,0,0,0,0Z"/>
    <path class="st3" d="M433.6,7.9h-28.7c-4.9,0-8.8,4-8.8,8.8h0v25c0,4.9,3.9,8.8,8.8,8.9h8.4l-7,13.9,13-13.9h14.4c4.9,0,8.9-4,8.9-8.8h0v-25c0-4.9-4-8.9-8.8-8.9,0,0,0,0,0,0Z"/>
    <circle class="st17" cx="419.2" cy="29.1" r="14.3" transform="translate(102.2 305) rotate(-45)"/>
    <path class="st21" d="M417.7,35.5c-.4,0-.8-.2-1-.5l-5.6-6.6c-.5-.6-.4-1.4.1-1.8.6-.5,1.4-.4,1.9.2l4.6,5.4,7.6-9c.5-.6,1.3-.6,1.9-.2.6.5.6,1.3.1,1.8l-8.6,10.1c-.2.3-.6.5-1,.5Z"/>
  </g>
  <g id="freepik--Character--inject-270">
    <path class="st27" d="M397.7,99.4c3.2,7.3,6.8,16,10.8,22.2-.4-.2-.8-.4-1.2-.4-.9,0-1,.3-.9.2,1.5-1,2.7-2.8,4-4.6,2.2-3.3,4.2-6.7,6.1-10.2.6-1.2,2.1-1.6,3.3-1,1,.6,1.5,1.8,1.2,2.9-1.4,4-3.1,7.9-5,11.6-2,3.9-6.3,11.2-11.8,7.7-2.8-2.2-4.4-5.3-6.2-8-3.3-5.4-6.2-10.8-9.1-16.4-2.8-6,6-10.1,8.8-4.1h0Z"/>
    <path class="st19" d="M394.8,96.1c4.4.3,11.6,14,11.6,14l-13.4,9.9s-2.4-20.3-2.4-20.3,4.1-3.6,4.1-3.6Z"/>
    <path class="st3" d="M406.5,110.1l-6.6,4.9-4.6,3.4-2.1,1.6s-1.4-12.2-2.1-17.7c-.2-1.6-.3-2.6-.3-2.6s4.1-3.6,4.1-3.6c3.6.2,9.2,9.7,11,12.9.4.7.6,1.1.6,1.1Z"/>
    <polygon class="st19" points="406.5 108.6 408.4 110.8 396.2 120 394.1 116.5 406.5 108.6"/>
    <polygon class="st4" points="408.3 110.8 400.3 116.9 396.2 120 395.2 118.4 394.1 116.5 399.2 113.2 405.9 109 406.5 108.6 408.3 110.8"/>
    <path class="st19" d="M408.4,105.7c0,.4.1.7.5.8,0,0,0,0,0,0l7.4,1c.4,0,.8-.2.9-.6l3.6-14.3c.1-.4-.1-.8-.5-.9,0,0,0,0,0,0l-7.4-1c-.4,0-.8.3-.9.7l-3.6,14.3Z"/>
    <path class="st8" d="M412.8,91.5l-3.6,14.4c-.1.3,0,.6.3.7,0,0,.1,0,.2,0l6.2.9c.4,0,1.2,0,1.3-.5l3.7-14.5c.1-.4-.6-.8-1-.9l-6.2-.9c-.4,0-.8.2-.8.6Z"/>
    <path class="st23" d="M421.1,108l-.9-8.3-5.4,6.3s-1.2,5.4,3.7,5l2.6-3Z"/>
    <polygon class="st23" points="414.9 98.2 413.1 104.3 414.8 106 420.2 99.7 414.9 98.2"/>
    <path class="st0" d="M402.5,115.2l-6.3,4.8-.9-1.6-2.1,1.6s-1.4-12.2-2.1-17.7c1.2,1,10.3,2.4,11.4,12.9Z"/>
    <path class="st23" d="M366,247.1l2.7,5.1s2.3-1.2,6-3.2c1-.6,2.2-1.2,3.5-1.9,3.5-1.9,7.6-4.2,12-6.7l2.9-1.6c15.2-8.7,27.7-17.1,27.7-21.6,0-7.7-5.5-22.2-13.4-36.8-5.2-9.7-9.6-17.6-9.6-17.6l-18.6,11.4s6.3,8.5,12.8,17.8c7.6,10.9,15.4,22.9,13.6,24.1-1.4.9-8.3,6.3-16,12.4l-1.4,1.1c-4.1,3.3-8.4,6.6-12.1,9.6l-3,2.4-7,5.6Z"/>
    <path class="st2" d="M379,174.1s6.3,8.5,12.8,17.8l15.4-11.6c-5.2-9.7-9.6-17.6-9.6-17.6l-18.6,11.4Z"/>
    <path class="st2" d="M373.1,241.5l1.6,7.5c4.6-2.5,11.3-6.2,18.3-10.2-1.2-3.6-2.6-7.7-3.5-10.3-5.7,4.5-11.9,9.4-16.4,13Z"/>
    <path class="st23" d="M357.8,183.6l3.6,10.9.7,2.2,5.5,16.6.6,1.9,3.6,11,4.2,12.8,1.9,5.9c0,.7,0,1.4.1,2,1.8,28.3,16.6,65.2,16.6,65.2l5.3-1.4c-1.9-22.2-5.9-48.1-9.8-70.5-.7-3.7-1.3-7.4-2-10.9-.4-2-.7-3.9-1.1-5.8-.8-4-1.5-7.7-2.2-11.2-.3-1.7-.6-3.2-1-4.8-.8-3.8-1.5-7.2-2.1-10.1s-1.1-5.3-1.5-7.2c-.6-2.7-.9-4.2-.9-4.2l-21.6-2.6Z"/>
    <path class="st19" d="M372.3,241.6c.7,0,.3,8.4.3,8.4,0,0-5.2,5.2-6.3,10.3s-4.1,2.3-4.2-3.3-.1-9.9-.2-13.9,3.4-1.6,10.4-1.5Z"/>
    <path class="st17" d="M370.5,254.4c.1-1.2.5-2.4,1-3.5h0c0,0,0,0,0,0,0,0,.1,0,.2,0,0,0,2,.7,2.5,1.8.2.3.2.7,0,1.1-.2.4-.4.6-.7.6-.4,0-.9-.6-1.3-1.3.1.6,0,1.3-.2,1.9-.1.2-.3.4-.6.5-.3.1-.7,0-.9-.2-.2-.2-.2-.5-.2-.8ZM371.7,251.7c-.5,1.2-1,2.8-.6,3.2,0,0,.1.1.5,0,.1,0,.2-.1.3-.2.2-1,.2-2-.1-3h0ZM374,253.2c0-.1,0-.2,0-.3-.4-.7-1.1-1.2-1.8-1.4.5,1.2,1.2,2.4,1.5,2.5.1,0,.2-.2.3-.3,0-.1,0-.2,0-.4h0Z"/>
    <path class="st19" d="M393.2,309.9c0-.7,8.4-.1,8.4-.1,0,0,5.2,5.2,10.2,6.4s2.2,4.2-3.4,4.2h-13.9c-4,0-1.5-3.4-1.3-10.5Z"/>
    <path class="st17" d="M406,311.9c-1.2-.1-2.4-.5-3.5-1.1h0c0-.2,0-.2,0-.3,0,0,.7-2,1.9-2.5.3-.2.7-.2,1.1,0,.4.2.6.4.5.7,0,.4-.6.9-1.3,1.2.6-.1,1.3,0,1.9.2.2.1.4.3.5.6.1.3,0,.7-.2.9-.2.2-.5.2-.8.2ZM403.3,310.7c1.2.5,2.8,1,3.2.7,0,0,.1-.1,0-.5,0-.1-.1-.2-.2-.3-.6-.4-2-.1-3,0h0ZM404.8,308.4c-.1,0-.2,0-.3,0-.7.4-1.2,1.1-1.4,1.8,1.2-.5,2.4-1.1,2.5-1.5,0-.1-.2-.2-.3-.3-.1,0-.2,0-.4,0h0Z"/>
    <path class="st3" d="M387.2,189.6l1.2,1.1,18.1-12.3-2.3-5.6c0,2-.3,3.9-.9,5.8-1,2.3-13,9.1-16.1,10.9Z"/>
    <path class="st2" d="M357.8,183.6l3.6,10.9c9.9,2.4,16.3,3.1,20.4,3.1-.6-2.9-1.1-5.3-1.5-7.2-.6-2.7-.9-4.2-.9-4.2l-21.6-2.6Z"/>
    <path class="st17" d="M406.5,178.5l-18.1,12.3-1.2-1.1-4.1-3.9v9.7l-25-4.5c-3.8-16.8-3.3-29.2-1.7-37.8.8-4.3,2.1-8.5,4-12.4h0l.3-3.2,33.8,3.5.3,2.2,1.6,10.9,7.6,18.6,2.3,5.6Z"/>
    <path class="st2" d="M383,185.8v-10.8s4.8,8.1,4.1,14.7l-4.1-3.9Z"/>
    <polygon class="st17" points="386.3 189.6 405.7 175.6 407.3 178.3 387.8 191.9 386.3 189.6"/>
    <polygon class="st3" points="386.3 189.6 405.7 175.6 407.3 178.3 387.8 191.9 386.3 189.6"/>
    <polygon class="st17" points="357 188.8 383.6 193.5 383.6 196.1 357.8 191.9 357 188.8"/>
    <polygon class="st3" points="357 188.8 383.6 193.5 383.6 196.1 357.8 191.9 357 188.8"/>
    <path class="st2" d="M367.6,141.8s-2.5,9.2-11.2,11.5c.8-4.3,2.1-8.5,4-12.4h0l7.2.9Z"/>
    <path class="st2" d="M396.6,154.3c-3.2-3.1-4.2-10.9-4.2-10.9h2.5l1.6,10.9Z"/>
    <path class="st2" d="M384.1,142.8c0,.6-.5,1.1-1.1,1.1-.6,0-1.1-.5-1.1-1.1,0-.6.5-1.1,1.1-1.1.6,0,1.1.5,1.1,1.1Z"/>
    <path class="st19" d="M361.1,138.9c-7.8-1.8-.1-1.7-2.6-37-.2-1.8,0-3.6.4-5.3.8-2.8,3.6-4.7,6.5-4.3,1.4.1,2.6.3,2.8.3.7,0,1.5,0,2.2.1,5.1.2,10.2.8,15.2,1.7,1.2.2,2.5.6,3.8.8.4.1,5,.8,5.4.9,0,0,5.3,8.2,4.8,14.1-.3,3.3-1.4,5.7-1.5,13.6-.2,18,3.6,17.4-4.2,18l-32.7-3Z"/>
    <path class="st3" d="M398.1,123.8c-.2,18,3.6,17.5-4.2,18l-32.7-2.9c-6.4-1.4-2.3-1.6-2.1-21.4,0-3.4,0-7.4-.3-12,0-1.1-.1-2.3-.2-3.6-.2-1.8,0-3.6.4-5.3.8-2.8,3.6-4.7,6.5-4.3,1.4.1,2.6.3,2.8.3.7,0,1.5,0,2.2.1,5.1.2,10.2.8,15.2,1.7,1.2.3,2.5.6,3.8.9.4.1,5,.8,5.4.9,0,0,5.3,8.2,4.8,14.1-.3,3.3-1.4,5.7-1.5,13.6Z"/>
    <path class="st0" d="M377.7,117s-6.9,7.5-18.6.5c0-3.4,0-7.4-.3-12,4.5-1.6,9.2-2.7,14-3.3l4.9,14.9Z"/>
    <path class="st23" d="M392.7,101.2l7.3-4.1,2.6,6.9s-4.7,3.6-8.9,1.1l-1-3.8Z"/>
    <polygon class="st23" points="405.9 96.9 406.6 102.5 402.5 103.9 400 97.1 405.9 96.9"/>
    <path class="st27" d="M368.6,97.7c1.9,7.7,5,15.1,9.1,22l.2.4c-.2-.3-.5-.6-.8-.8-.7-.5-1.7-.7-2.5-.4,3.1-1.6,5.6-4.6,8.2-7.1,3.1-3.2,6.2-6.6,9.3-10,.9-1,2.5-1,3.4,0,.8.8,1,1.9.5,2.9-3.5,6.2-7.6,12-12.2,17.4-1.6,2-3.7,3.6-5.9,4.8-2.7,1.3-5.9.4-7.5-2.2-5.5-7.5-9.3-16.1-11.3-25.1-1-6.4,8.2-8.1,9.6-1.8h0Z"/>
    <path class="st19" d="M364.7,92.2c-5.3-.6-8.5,5.5-6.9,19.7h16.6s-1-18.7-9.7-19.7Z"/>
    <path class="st3" d="M364.7,92.2c-5.3-.6-8.5,5.5-6.9,19.7h16.6s-1-18.7-9.7-19.7Z"/>
    <polygon class="st19" points="357 108.6 374.9 110.8 375 113.2 357.4 113.2 357 108.6"/>
    <polygon class="st4" points="357 108.6 374.9 110.8 375 113.2 357.4 113.2 357 108.6"/>
    <path class="st19" d="M378.1,51.8s3.8-2.8,10.2-.6,13.1,9.1,10.2,19-2.6,16.3-2.6,16.3c0,0-22.1-3.7-26.9-8s-4-29.2,9-26.7Z"/>
    <path class="st23" d="M373.5,75.6c.8,5,1.4,14.2-2.2,17.1,4.5,2.6,9.1,4.9,13.9,7,3.3-3.8,1.3-5.3,1.3-5.3-5.4-1.9-5.1-6-4-9.7l-9-9.1Z"/>
    <path class="st2" d="M377.2,79.3l5.3,5.4c-.3.9-.5,1.8-.6,2.7-2.1-.5-4.8-3.2-5-5.4,0-.9,0-1.8.2-2.6Z"/>
    <path class="st23" d="M374.6,62.8c-1.6,7.9-2.5,11.2.3,16.5,4.2,7.9,14,8.6,17.9,1.4,3.5-6.4,5.5-18.3-1.1-23.8-4.3-3.8-10.8-3.4-14.6.8-1.3,1.4-2.1,3.2-2.5,5.1Z"/>
    <path class="st19" d="M383.5,67.9c-.2.7,0,1.3.5,1.4s.9-.3,1-1,0-1.3-.5-1.4-.8.4-1,1Z"/>
    <path class="st19" d="M391.6,70.2c-.2.7,0,1.3.5,1.4s.9-.3,1-1,0-1.3-.5-1.4-.8.3-1,1Z"/>
    <path class="st19" d="M392.4,69.2h1.6s-1.1,1-1.6,0Z"/>
    <path class="st26" d="M388.8,70.8c.2,1.7.6,3.3,1.2,4.9-.8.3-1.7.2-2.4-.3l1.1-4.6Z"/>
    <path class="st19" d="M383.4,76.8c.3.2.7.3,1,.4,0,0,.2,0,.2,0,0,0,0,0,0,0,0-.1,0-.2-.1-.2-1.6-.5-2.9-1.8-3.6-3.4,0-.1-.1-.2-.2-.1,0,0,0,0,0,0-.1,0-.2.1-.1.2.5,1.4,1.5,2.5,2.8,3.2Z"/>
    <path class="st19" d="M383.4,63.3c0,0,.2,0,.3,0,.9-.4,1.9-.4,2.8,0,.2.1.4,0,.5,0,0,0,0,0,0,0,.1-.2,0-.4-.1-.6-1.1-.6-2.4-.7-3.5-.1-.2.1-.3.3-.2.5,0,0,.1.2.2.2Z"/>
    <path class="st19" d="M395.9,66.9c0,0,.2,0,.3,0,.2,0,.3-.3.3-.5,0,0,0,0,0,0-.3-1.3-1.2-2.3-2.4-2.8-.2,0-.4,0-.5.2,0,0,0,0,0,0,0,.2,0,.4.3.5.9.4,1.6,1.3,1.8,2.3,0,.1,0,.2.2.3Z"/>
    <path class="st19" d="M384.4,66.9h1.6s-1.1,1-1.6,0Z"/>
    <path class="st19" d="M376.4,68.6s5.8-3.6,6.5-12.4c0,0,9.7-.3,13.2,8.3,0,0-1.2-12.4-15.1-12.9s-10.1,14.8-9,16.4,4.4.7,4.4.7Z"/>
    <path class="st23" d="M370.4,68.4c.4,1.7,1.4,3.1,2.9,4,1.9,1.1,3.4-.6,3.3-2.9,0-2-1.1-5.1-3.2-5.2s-3.4,2-2.9,4.1Z"/>
  </g>
</svg>