<?xml version="1.0" encoding="UTF-8"?>
<svg xmlns="http://www.w3.org/2000/svg" version="1.1" viewBox="0 0 600 225">
  <!-- Generator: Adobe Illustrator 29.8.2, SVG Export Plug-In . SVG Version: 2.1.1 Build 3)  -->
  <defs>
    <style>
      .st0, .st1, .st2, .st3, .st4, .st5, .st6, .st7, .st8, .st9, .st10 {
        isolation: isolate;
      }

      .st0, .st6 {
        opacity: .1;
      }

      .st1, .st9 {
        opacity: .5;
      }

      .st2 {
        opacity: .2;
      }

      .st11, .st3 {
        fill: #ff603b;
      }

      .st12, .st5 {
        fill: #e6e6e6;
      }

      .st13 {
        fill: #5e2b2b;
      }

      .st14 {
        fill: #630f0f;
      }

      .st3, .st7 {
        opacity: .3;
      }

      .st15 {
        fill: #263238;
      }

      .st16, .st6, .st7, .st8, .st9, .st10 {
        fill: #fff;
      }

      .st17 {
        fill: #7f3e3b;
      }

      .st18 {
        fill: #f5f5f5;
      }

      .st5 {
        mix-blend-mode: color-dodge;
      }

      .st5, .st10 {
        opacity: .4;
      }

      .st8 {
        opacity: .6;
      }
    </style>
  </defs>
  <g class="st4">
    <g id="Layer_1">
      <g id="freepik--Shadow--inject-392">
        <ellipse class="st18" cx="300" cy="332.3" rx="193.9" ry="11.3"/>
      </g>
      <g id="freepik--Shield--inject-392">
        <path class="st11" d="M295.5,58.8c1.4,17,21,39.1,27.3,45.8,1,1.1,2.7,1.1,3.7.1,0,0,0,0,.1-.1,6.3-6.7,25.9-28.8,27.3-45.8,0-1.1-.5-2.1-1.4-2.6l-26.6-14.3c-.8-.4-1.7-.4-2.5,0l-26.6,14.3c-.9.5-1.5,1.5-1.4,2.6Z"/>
        <path class="st3" d="M322.7,98.1c-8-9-19.6-24.1-22.4-36.2-.3-1.1.3-2.3,1.3-2.9l21.7-12.5c.8-.5,1.8-.5,2.6,0l21.7,12.5c1,.6,1.6,1.8,1.3,3-2.8,12.1-14.3,27.1-22.4,36.2-1,1.1-2.6,1.2-3.7.2,0,0-.2-.1-.2-.2Z"/>
        <path class="st7" d="M322.7,98.1c-8-9-19.6-24.1-22.4-36.2-.3-1.1.3-2.3,1.3-2.9l21.7-12.5c.8-.5,1.8-.5,2.6,0l21.7,12.5c1,.6,1.6,1.8,1.3,3-2.8,12.1-14.3,27.1-22.4,36.2-1,1.1-2.6,1.2-3.7.2,0,0-.2-.1-.2-.2Z"/>
        <path class="st16" d="M321.7,79.9c-.4,0-.8-.2-1.1-.4l-7.4-7.4c-.6-.6-.5-1.6,0-2.1.6-.5,1.5-.5,2,0l6.4,6.3,15-14.9c.6-.6,1.5-.6,2.1,0,.6.6.6,1.5,0,2.1,0,0,0,0,0,0l-16,16c-.3.3-.7.5-1.1.5Z"/>
      </g>
      <g id="freepik--Vault--inject-392">
        <rect class="st15" x="234" y="120.3" width="162.7" height="205.9" rx="12" ry="12"/>
        <rect class="st11" x="243.3" y="120.3" width="162.7" height="205.9" rx="12" ry="12"/>
        <rect class="st15" x="257.5" y="326.3" width="15" height="3.7" rx=".8" ry=".8"/>
        <rect class="st15" x="376.8" y="326.3" width="15" height="3.7" rx=".8" ry=".8"/>
        <rect class="st2" x="243.3" y="120.3" width="162.7" height="205.9" rx="12" ry="12"/>
        <path class="st5" d="M377.7,302.5h-106c-2.5,0-4.6-2.1-4.6-4.6v-149.2c0-2.5,2-4.6,4.6-4.6h106c2.5,0,4.6,2.1,4.6,4.6v149.2c0,2.5-2.1,4.6-4.6,4.6ZM271.7,144.6c-2.3,0-4.1,1.8-4.1,4.1v149.2c0,2.3,1.8,4.1,4.1,4.1h106c2.3,0,4.1-1.8,4.1-4.1v-149.2c0-2.3-1.8-4.1-4.1-4.1h-106Z"/>
        <rect class="st11" x="269.3" y="146.3" width="110.7" height="153.9" rx="2.3" ry="2.3"/>
        <rect class="st6" x="269.3" y="146.3" width="110.7" height="153.9" rx="2.3" ry="2.3"/>
        <rect class="st11" x="408.5" y="162.8" width="1" height="8.4"/>
        <rect class="st11" x="408.5" y="132.3" width="1" height="21.6"/>
        <circle class="st0" cx="324.7" cy="226.2" r="34.1"/>
        <circle class="st11" cx="324.7" cy="167.2" r="8.3"/>
        <circle class="st8" cx="324.6" cy="167.2" r="8.3"/>
        <path class="st11" d="M324.7,173.8c-3.6,0-6.6-2.9-6.6-6.6s2.9-6.6,6.6-6.6c3.6,0,6.6,2.9,6.6,6.6h0c0,3.6-2.9,6.6-6.6,6.6ZM324.7,161.2c-3.4,0-6.1,2.7-6.1,6.1s2.7,6.1,6.1,6.1,6.1-2.7,6.1-6.1h0c0-3.4-2.7-6.1-6.1-6.1Z"/>
        <rect class="st11" x="264" y="165.9" width="6.7" height="23.3" rx="1.5" ry="1.5"/>
        <rect class="st8" x="264" y="165.9" width="6.7" height="23.3" rx="1.5" ry="1.5"/>
        <rect class="st11" x="264" y="257.4" width="6.7" height="23.3" rx="1.5" ry="1.5"/>
        <rect class="st8" x="264" y="257.4" width="6.7" height="23.3" rx="1.5" ry="1.5"/>
        <circle class="st11" cx="324.7" cy="223.3" r="34.1"/>
        <circle class="st8" cx="324.7" cy="223.3" r="34.1"/>
        <rect class="st11" x="323.7" y="198.4" width="2" height="49.7" transform="translate(-62.8 295) rotate(-45)"/>
        <rect class="st11" x="299.8" y="222.3" width="49.7" height="2" transform="translate(-62.8 295) rotate(-45)"/>
        <rect class="st2" x="299.7" y="222.2" width="49.7" height="2" transform="translate(-62.8 294.9) rotate(-45)"/>
        <rect class="st2" x="323.6" y="198.3" width="2" height="49.7" transform="translate(-62.8 294.9) rotate(-45)"/>
        <path class="st11" d="M324.6,249.1c-14.3,0-25.9-11.6-25.9-25.9s11.6-25.9,25.9-25.9,25.9,11.6,25.9,25.9h0c0,14.3-11.6,25.9-25.9,25.9ZM324.6,199.3c-13.2,0-23.9,10.7-23.9,23.9s10.7,23.9,23.9,23.9,23.9-10.7,23.9-23.9h0c0-13.2-10.7-23.9-23.9-23.9Z"/>
        <circle class="st11" cx="324.6" cy="223.2" r="10.8"/>
        <path class="st2" d="M324.6,249.1c-14.3,0-25.9-11.6-25.9-25.9s11.6-25.9,25.9-25.9,25.9,11.6,25.9,25.9h0c0,14.3-11.6,25.9-25.9,25.9ZM324.6,199.3c-13.2,0-23.9,10.7-23.9,23.9s10.7,23.9,23.9,23.9,23.9-10.7,23.9-23.9h0c0-13.2-10.7-23.9-23.9-23.9Z"/>
        <circle class="st2" cx="324.6" cy="223.2" r="10.8"/>
      </g>
      <g id="freepik--Character--inject-392">
        <path class="st17" d="M241,78.8c2.4,5.6,4.9,11.2,7.4,16.8s5.1,11.1,7.9,16.4c.7,1.3,1.4,2.6,2.1,3.9l.5.9.3.5s0,0-.1-.1c-.1,0,0,0,.2.2.9.5,1.9.8,2.9,1,1.3.2,2.7.4,4,.5,2.8.2,5.8.2,8.8.1l4.5-.2,4.5-.3,1.2,5.4c-6.2,2.1-12.6,3.3-19.1,3.8-1.8.1-3.5,0-5.3,0-2.1-.1-4.1-.6-6-1.4-1.3-.6-2.5-1.4-3.5-2.5-.3-.3-.6-.6-.8-1l-.4-.5-.7-1c-.9-1.4-1.8-2.8-2.6-4.1-3.2-5.6-6.1-11.2-8.9-16.8s-5.2-11.4-7.6-17.3l10.4-4.4Z"/>
        <path class="st11" d="M227.7,78c-2.3,6.6,11.1,26.2,11.1,26.2l12.8-7.1c-2.2-6.1-4.7-12-7.7-17.8-4.5-8.4-13.7-8.6-16.2-1.3Z"/>
        <path class="st9" d="M227.7,78c-2.3,6.6,11.1,26.2,11.1,26.2l12.8-7.1c-2.2-6.1-4.7-12-7.7-17.8-4.5-8.4-13.7-8.6-16.2-1.3Z"/>
        <path class="st11" d="M227.5,78.8c2.9-1.4,6.2-.2,9.6,5.3s6.4,14.6,6.8,17.2l-5.1,2.8s-12.3-18-11.3-25.3Z"/>
        <path class="st10" d="M227.5,78.8c2.9-1.4,6.2-.2,9.6,5.3s6.4,14.6,6.8,17.2l-5.1,2.8s-12.3-18-11.3-25.3Z"/>
        <path class="st11" d="M236.3,72.9s9.5,22.4,2.6,64.1h-39.6c-.5-6.1,2.3-35.8-4.6-64.5,4.4-.8,8.8-1.4,13.2-1.7,5.6-.3,11.2-.3,16.9,0,3.9.4,7.7,1.1,11.5,2.1Z"/>
        <path class="st9" d="M236.3,72.9s9.5,22.4,2.6,64.1h-39.6c-.5-6.1,2.3-35.8-4.6-64.5,4.4-.8,8.8-1.4,13.2-1.7,5.6-.3,11.2-.3,16.9,0,3.9.4,7.7,1.1,11.5,2.1Z"/>
        <path class="st11" d="M203.7,79.6c.8,4.7-.3,16-4.3,29.1-.3-11.2-1.6-22.3-3.9-33.3h0c2.6-.3,7.4-.2,8.2,4.2Z"/>
        <path class="st10" d="M203.7,79.6c.8,4.7-.3,16-4.3,29.1-.3-11.2-1.6-22.3-3.9-33.3h0c2.6-.3,7.4-.2,8.2,4.2Z"/>
        <polygon class="st17" points="185.3 314.6 191.2 319.9 202.4 308.3 196.5 303 185.3 314.6"/>
        <path class="st15" d="M192.8,317.8l-7.1-4.8c-.2-.2-.6-.2-.8,0l-5.5,5.5c-.4.5-.4,1.2,0,1.6,0,0,.1,0,.2.1,4.6,3.5,7.9,6.2,10.4,9.1,3,3.4,4.6,3.9,11.6,3.9s5.1-2.7,3.8-3.1c-11.7-3.7-8.5-5.3-11.4-10.7-.3-.6-.7-1.1-1.3-1.5Z"/>
        <polygon class="st13" points="202.4 308.3 196.6 314.3 190.7 309 196.5 303 202.4 308.3"/>
        <polygon class="st13" points="206.4 308.4 213.8 308.4 213.3 317.3 205.9 317.3 206.4 308.4"/>
        <path class="st11" d="M239,137s7.8,54.1,10.5,83.5c2.1,23.6-48.9,94-48.9,94l-9.9-9.3s37.3-63.1,34.4-89.4c-2.8-25.5-12.2-78.8-12.2-78.8h26.1Z"/>
        <path class="st1" d="M239,137s7.8,54.1,10.5,83.5c2.1,23.6-48.9,94-48.9,94l-9.9-9.3s37.3-63.1,34.4-89.4c-2.8-25.5-12.2-78.8-12.2-78.8h26.1Z"/>
        <polygon class="st17" points="205.4 325.6 212.9 325.6 213.8 308.4 206.4 308.4 205.4 325.6"/>
        <path class="st15" d="M213.2,324.7h-8.3c-.3,0-.5.2-.6.5l-.4,6.6c0,.7.6,1.3,1.3,1.3h0c2.9,0,4.3-.2,8-.2s11.8.2,14.9.2,3-3.1,1.7-3.4c-5.9-1.2-13.2-3-15.3-4.6-.4-.3-.8-.5-1.3-.5Z"/>
        <path class="st17" d="M282.6,118.9l6.8-2.7,1.7,7s-7.8,2.3-9,0l.5-4.4Z"/>
        <polygon class="st17" points="295.2 117.6 297.2 121.5 291.1 123.2 289.4 116.2 295.2 117.6"/>
        <path class="st12" d="M226.5,71l-1.6-.2c-5.6-.3-11.2-.3-16.9,0h-1c0,0,0,.3,0,.3,0,.2,1.9,5.2,12.6,5.2s7.1-.8,7.6-2.4c.2-1,0-2.1-.9-2.9Z"/>
        <path class="st17" d="M209,51.9c1.2,5.4,2.7,15.4-1,19,0,0,1.6,4.5,11.7,4.5s5.2-4.5,5.2-4.5c-6.1-1.4-6.1-5.9-5.2-10.1l-10.7-8.9Z"/>
        <path class="st13" d="M213.4,55.5l6.3,5.2c-.2,1-.4,2-.4,3-2.3-.3-5.6-2.9-5.9-5.3-.2-1-.2-2,0-2.9Z"/>
        <path class="st15" d="M224.8,35.8c3.4,2.2,3.9,12.7-1.1,14.2s-5.3-18.3,1.1-14.2Z"/>
        <path class="st17" d="M206.7,46.2c2.3,7,3.2,11.2,7.8,14.1,4.5,2.9,10.4,1.6,13.3-2.9,1.1-1.6,1.6-3.6,1.5-5.5,0-6.7-3.8-17.1-11.5-18.4-5.3-1-10.4,2.4-11.4,7.7-.3,1.7-.2,3.4.3,5Z"/>
        <path class="st15" d="M198.6,39.6c2.4,4.4,8.5,14.4,11.4,13.4s2.9-9-.8-14.1c0,0,29.7,3,30.3-13.9.6-17.3-13.7-.6-26.3,4.3-13.7,5.3-20.3,0-14.6,10.3Z"/>
        <path class="st15" d="M199.8,33.5c-.1,0-.2-.2-.2-.3,0,0,0-.2.2-.2.4,0,.9-.2,1.5-.3,4-.7,7.9-1.8,11.6-3.4,3.8-1.7,7.7-4.6,11.2-7.1,2.2-1.7,4.5-3.3,6.9-4.7.1,0,.3,0,.3,0,0,.1,0,.3,0,.3h0c-2.4,1.4-4.7,3-6.9,4.7-3.5,2.6-7.4,5.4-11.2,7.2-3.7,1.6-7.6,2.8-11.7,3.5-.5,0-1,.2-1.5.3h0Z"/>
        <path class="st17" d="M205.4,54.8c1.3,1.3,3.1,2,5,2.1,2.5,0,3-2.3,1.7-4.3-1.2-1.8-3.9-3.9-6.1-2.9s-2.2,3.5-.6,5.2Z"/>
        <path class="st2" d="M225.1,215.8c-1.4-13.1-4.6-33.6-7.4-50.5,1.4-2.8,5.5-8.5,5.5-8.5,3.6,12.5,11.5,59.7.3,123.4-11.7,18.9-22.9,34.3-22.9,34.3l-1.6-24.3c10.9-20.3,28.1-56.2,26.1-74.4Z"/>
        <path class="st15" d="M218,45.8c.1.6.6,1,1,.9s.6-.6.4-1.2-.6-1-1-.9-.6.6-.4,1.2Z"/>
        <path class="st15" d="M224.6,44.4c.1.6.6,1,1,.9s.6-.6.4-1.2-.6-1-1-.9-.6.6-.4,1.2Z"/>
        <path class="st14" d="M222.6,45.1c1.2,1.6,2.5,3.1,4.1,4.4-.7.8-1.6,1.2-2.7,1.1l-1.4-5.5Z"/>
        <path class="st15" d="M221.5,52.7c-1.2,0-2.4-.4-3.3-1.2,0,0,0-.2,0-.2,0,0,.2,0,.2,0,1.2,1,2.7,1.3,4.2,1,0,0,.2,0,.2.1,0,0,0,.2-.1.2-.4,0-.8.1-1.2.1Z"/>
        <path class="st15" d="M215.4,44.2s0,0-.1,0c-.2,0-.3-.3-.2-.4,0,0,0,0,0,0,.4-1,1.3-1.8,2.4-2,.2,0,.4.1.4.3,0,.2-.1.4-.3.4,0,0,0,0,0,0-.9.2-1.6.8-1.9,1.6,0,.1-.2.2-.3.1Z"/>
        <path class="st15" d="M226.9,41.5c-.1,0-.2,0-.3-.1-.6-.7-1.4-1.1-2.3-1.1-.2,0-.4-.1-.4-.3,0-.2.1-.4.3-.4,1.1,0,2.2.5,2.9,1.4.1.2,0,.4,0,.5,0,0-.1,0-.2,0Z"/>
        <path class="st17" d="M199.9,112.7c-2-.7-3.9-1.6-5.7-2.6-.4-.2-.8-.5-1.1-.9.5-2.1,1.1-4.3,1.7-6.5s1.4-4.4,2.3-6.6,1.7-4.4,2.6-6.5c.5-1.1.9-2.2,1.4-3.2l1.4-3.1-10-5.1c-.7,1.2-1.2,2.4-1.7,3.5s-1,2.3-1.5,3.5c-1,2.4-1.9,4.8-2.7,7.2-1.7,5-2.9,10.1-3.6,15.3v.8c0,.4,0,.7,0,1.1,0,.7.2,1.4.4,2.1.4,1.2,1,2.4,1.9,3.3,1.2,1.4,2.7,2.5,4.4,3.2,2.6,1.2,5.3,2.1,8.1,2.6,5.1,1,10.2,1.4,15.4,1.2l.5-5.6c-4.6-1-9.2-2.3-13.7-3.8Z"/>
        <path class="st11" d="M215.9,326c-.7,0-1.3-.1-2-.3,0,0-.1,0-.1-.1,0,0,0-.1,0-.2.2-.2,2.3-1.6,3.2-1.2.2,0,.4.3.4.5,0,.3,0,.7-.2.9-.4.3-.9.4-1.4.4ZM214.4,325.5c1.3.3,2.3.2,2.7-.1.1-.2.2-.4.1-.6,0-.1,0-.2-.2-.2-.5-.2-1.8.5-2.6,1Z"/>
        <path class="st11" d="M213.9,325.8s0,0,0,0c0,0,0,0,0-.1,0,0-.2-2.2.6-2.9.2-.2.5-.3.7-.2.3,0,.6.2.6.5.2.8-.9,2.4-1.7,2.8h0ZM214.9,322.8c-.1,0-.3,0-.4.1-.4.7-.6,1.5-.5,2.4.6-.5,1.4-1.7,1.3-2.3,0-.1,0-.2-.3-.3h0Z"/>
        <path class="st11" d="M197.6,321.8c-1.3-.2-2.6-.7-3.7-1.4,0,0-.1-.1,0-.2,0,0,0-.1.1-.1.4,0,3.9-.3,4.6.5.1.1.2.3.1.5,0,.3-.3.5-.5.6-.2,0-.3,0-.5,0ZM194.6,320.4c1.6.9,2.9,1.3,3.4,1,.2,0,.3-.2.3-.4,0,0,0-.1,0-.2-.4-.4-2.3-.5-3.8-.4h0Z"/>
        <path class="st11" d="M194,320.4c0,0-.1,0-.1,0,0,0,0-.1,0-.2,0-.1,1.4-2.8,3.1-2,.5.2.5.5.5.7-.2.8-2.4,1.5-3.4,1.6h0ZM196.3,318.3c-.9,0-1.7,1.2-2,1.7,1.1-.1,2.7-.8,2.8-1.3,0-.1,0-.2-.3-.3-.2,0-.3-.1-.5-.1Z"/>
        <path class="st17" d="M212.5,116.4l6.1-1.7.8,7.7s-6,1.8-7.5-1.4l.6-4.7Z"/>
        <path class="st17" d="M212.4,116.6c1.3-1.4,2-3.2,2.1-5.1l1.6.9s.3,3.4-.3,4.4-3.4-.2-3.4-.2Z"/>
        <polygon class="st17" points="221.4 115.5 221.1 122.5 219.4 122.5 218.6 114.8 221.4 115.5"/>
        <polygon class="st11" points="190.1 304.7 201.2 315.1 204.7 311.3 192.1 299.7 190.1 304.7"/>
        <polygon class="st0" points="190.1 304.7 201.2 315.1 204.7 311.3 192.1 299.7 190.1 304.7"/>
        <path class="st11" d="M224.9,137s.7,56.6-.5,77.9c-1.3,23.2-7.9,100.2-7.9,100.2h-13.6s.4-75.1-.4-98.1c-.9-25-3.2-80-3.2-80h25.6Z"/>
        <path class="st1" d="M224.9,137s.7,56.6-.5,77.9c-1.3,23.2-7.9,100.2-7.9,100.2h-13.6s.4-75.1-.4-98.1c-.9-25-3.2-80-3.2-80h25.6Z"/>
        <polygon class="st11" points="202.4 315.1 217 315.1 217.9 310 201.7 310.8 202.4 315.1"/>
        <polygon class="st0" points="202.4 315.1 217 315.1 217.9 310 201.7 310.8 202.4 315.1"/>
        <path class="st11" d="M194.8,72.6c-7,1-14.2,26.7-14.2,26.7l16.9,6.4s4.2-11,7.1-19.6c3-9-2.4-14.6-9.8-13.5Z"/>
        <path class="st9" d="M194.8,72.6c-7,1-14.2,26.7-14.2,26.7l16.9,6.4s4.2-11,7.1-19.6c3-9-2.4-14.6-9.8-13.5Z"/>
      </g>
    </g>
  </g>
</svg>