<?xml version="1.0" encoding="UTF-8"?>
<svg id="Layer_1" xmlns="http://www.w3.org/2000/svg" version="1.1" viewBox="0 0 600 225">
  <!-- Generator: Adobe Illustrator 29.8.2, SVG Export Plug-In . SVG Version: 2.1.1 Build 3)  -->
  <defs>
    <style>
      .st0, .st1 {
        opacity: .1;
      }

      .st0, .st2 {
        isolation: isolate;
      }

      .st3 {
        fill: #ff603b;
      }

      .st4 {
        fill: #ff98b9;
      }

      .st5 {
        fill: #ebebeb;
      }

      .st6 {
        fill: #dbdbdb;
      }

      .st7 {
        fill: #37474f;
      }

      .st8, .st2 {
        fill: #263238;
      }

      .st9 {
        fill: #f7a9a0;
      }

      .st10 {
        fill: #c7c7c7;
      }

      .st11 {
        fill: #fff;
      }

      .st12 {
        fill: #ffe4d6;
      }

      .st2 {
        opacity: .2;
      }

      .st13 {
        fill: #455a64;
      }

      .st14 {
        fill: #d3766a;
      }
    </style>
  </defs>
  <g>
    <g id="freepik--Plant--inject-383">
      <path class="st3" d="M65,78.5c-8.4,11.4-17.2,24.7-19.4,39,0,0,0,.2.2.2,0,0,0,0,.2,0,1-3.9,2.2-7.7,3.7-11.5,5.5-1.5,11-2.8,13.9-8.3,3-5.7,2.6-13,2-19.2,0-.3-.5-.3-.6,0Z"/>
      <path class="st8" d="M49.8,106c3.8-8.5,8.6-17,14.8-24,0,0,0,0,0,0-4,5-7.1,10.4-10.1,15.9,2.8-2.8,5.8-5.4,8.5-8.4,0,0,0,0,0,0-2.6,3.2-5.5,6.6-8.9,8.9-.9,1.7-1.8,3.4-2.8,5.1.2,0,.5-.2.7-.4h0c-.3,0-.5.3-.8.4-.4.8-.9,1.6-1.3,2.4,0,.2-.3,0-.2-.2v.3Z"/>
      <path class="st8" d="M52.6,103c2.3-1.3,4.4-2.7,6.5-4.3,0,0,0,0,0,0-2,1.7-4.1,3.2-6.4,4.4,0,0-.2,0,0-.2h0Z"/>
      <path class="st3" d="M44.7,115.4s0,.2.2.2c0,0,.2,0,.2-.2v-14.2c1.2-2.4,3.8-3.8,5.6-5.7,1.3-1.4,2.4-3,3.4-4.7,2.2-4,3.5-8.4,3.9-13,.5-5-1.4-21.7-3.5-21.1-1.1.3-4.7,8.5-5.6,11.3-1.5,4.5-2.7,9.1-3.4,13.8-1.7,11.1-1.6,22.5-.7,33.6h-.1Z"/>
      <path class="st8" d="M44.6,95h0c.3-6,1.6-12,2.9-17.8,1.3-6.2,2.9-12.1,6.1-17.7,0,0,.2,0,.2,0-2.1,4.3-3.8,8.9-4.9,13.6.2-.3.5-.7.7-1,0,0,.3,0,.2,0-.3.5-.6,1-1,1.4h0c-1.1,4.5-1.9,9-2.6,13.5v-.2h.2l-.3.4c-.3,2.3-.7,4.6-1,6.9,4.1-3.5,7.6-7.6,9.6-12.7h0c-1.9,5.3-5,10-9.7,13.2l-.3,1.8c0,0-.2,0-.2,0v-1.8h0v.3Z"/>
      <path class="st8" d="M46.6,86.4c3.1-4.7,6.1-9.2,8.4-14.4h0c-1.9,5.1-4.6,10.4-8.3,14.5,0,0-.2,0-.2,0Z"/>
      <path class="st8" d="M50.7,70.8c1.3-2.3,2.7-4.5,3.9-6.9h0c-1,2.4-2.3,4.8-3.8,6.9h-.2c0,0,0,0,0,0Z"/>
      <path class="st8" d="M50.2,71.8h0Z"/>
      <path class="st3" d="M41.5,101.7c0,3.1-.4,6.2-1.1,9.3,0,.3,0,.7,0,1,1-3.4,1.5-6.8,1.7-10.4v-.3h0c0-4.7-.2-9.4-1-14-1.5-8.7-4.6-17-10.7-23.5-.2-.2-.5,0-.6,0h0c-2.4,6.2-1.6,13.6.5,19.8,1.1,3.3,2.7,6.5,4.8,9.4,2.1,2.9,4.7,5.4,6.4,8.6h-.1Z"/>
      <path class="st8" d="M31.2,66.8c5.7,9.3,9.7,20.3,10.2,31.3,0,.2-.3.2-.3,0,0-1-.3-2-.4-2.9-.2-1.5,0,0,0,0-2.4-2.3-4.8-4.7-6.5-7.5h0c2,2.4,4.1,4.7,6.3,6.9-.4-2.4-.9-4.8-1.5-7.2l-.5-.5c0,0,0-.3.2-.2v.2c-.7-3.2-1.7-6.4-2.8-9.5-1.5-1.7-3.1-3.2-4.1-5.3h0c.9,1.2,1.7,2.4,2.7,3.5.4.4.8.9,1.2,1.3-1.3-3.4-2.9-6.6-4.7-9.8,0,0,0,0,.1,0h0v-.2Z"/>
      <path class="st8" d="M32.3,78.2c1.9,2.5,4,4.9,5.7,7.4,0,0,0,0,0,0-2.2-2.1-4.1-4.9-5.7-7.5,0,0,0,0,0,0h0Z"/>
      <path class="st8" d="M38.3,86.2h0v.2h0v-.2Z"/>
      <path class="st3" d="M22.2,84.6c.7,5.2,2.8,10.1,6,14.2,1.3,1.6,3,2.9,4.9,3.8,2.1,1.1,4.3,2.3,6.5,3.1,1,2.7,1.8,5.4,2.3,8.2,0-.2,0-.5.2-.7-1.4-12.1-9.2-22.4-19.2-29.1-.2,0-.5,0-.7,0v.3h0Z"/>
      <path class="st8" d="M25.7,88.2s0-.2.1,0c5.5,4.1,9.9,9.5,12.7,15.7,0,.2-.2.3-.2,0-.5-.8-.9-1.6-1.4-2.4h0c-2.3-.4-4.5-2-6.1-3.6,0,0,0,0,0,0,.9.8,1.8,1.5,2.9,2,.9.4,1.9.8,2.9,1.2-.8-1.3-1.7-2.6-2.6-3.9-2.5-.9-4.8-2.2-6.9-3.9,0,0,0-.2,0,0,2.1,1.2,4.2,2.4,6.4,3.4-1.4-1.8-2.9-3.6-4.5-5.3-.8-.4-1.6-.8-2.3-1.3h0c.6.2,1.2.5,1.8.9-.9-.9-1.8-1.8-2.8-2.7Z"/>
      <path class="st8" d="M25.9,92.4c.1,0,.3.2.4.3h0c-.1,0-.3,0-.4-.2,0,0,0-.2,0-.1Z"/>
      <polygon class="st13" points="57.9 140.2 30.4 140.2 32.6 115.2 33.1 109.7 55.2 109.7 55.6 115.2 57.9 140.2"/>
      <polygon class="st8" points="55.6 115.2 32.6 115.2 33.1 109.7 55.2 109.7 55.6 115.2"/>
      <rect class="st13" x="31.8" y="105.8" width="24.7" height="5.5"/>
    </g>
    <g id="freepik--Floor--inject-383">
      <polygon class="st8" points="18 140.2 72.3 140 126.7 139.9 140.3 139.8 162.8 139.9 119.4 140 173.7 140.2 119.4 140.3 162.8 140.4 140.3 140.5 126.7 140.4 72.3 140.3 18 140.2"/>
    </g>
  </g>
  <path class="st8" d="M-61,10.4h-.7v-.7h.7v.7Z"/>
  <g id="freepik--character-2--inject-383">
    <path class="st8" d="M572.5,77.9h-77.2c-4.4,0-7.9,3.6-7.8,8v159c0,4.4,3.5,7.9,7.8,8h77.2c4.4,0,7.9-3.6,7.8-7.9h0V85.9c0-4.4-3.5-7.9-7.8-8h0ZM575.5,239.9c0,4.2-3.1,7.6-7,7.6h-69.1c-3.9,0-7-3.4-7-7.6V91.9c0-8.5,3.1-8.9,7-8.9h13.8c.8,0,1.5.9,1.5,2v.5c0,2.7,1.4,2.7,3.2,2.7h32c1.8,0,3.2,0,3.2-2.7v-.5c0-1.1.7-2,1.5-2h13.8c3.9,0,7,1.1,7,8.9v148.1h0Z"/>
    <path class="st13" d="M538.3,84.8h-8.7c-.3,0-.5-.2-.5-.5h0c0-.3.2-.5.5-.5h8.7c.3,0,.5.2.5.5s0,0,0,0h0c0,.3-.2.5-.5.5Z"/>
    <path class="st12" d="M575.5,91.9v148.1c0,4.2-3.1,7.6-7,7.6h-69.1c-3.9,0-7-3.4-7-7.6V91.9c0-8.5,3.1-8.9,7-8.9h13.8c.8,0,1.5.9,1.5,2v.5c0,2.7,1.4,2.7,3.2,2.7h32c1.8,0,3.2,0,3.2-2.7v-.5c0-1.1.7-2,1.5-2h13.8c3.9,0,7,1.1,7,8.9h0Z"/>
    <path class="st3" d="M575.5,91.9v8.6h-83.1v-8.6c0-8.5,3.1-8.9,7-8.9h13.8c.8,0,1.5.9,1.5,2v.5c0,2.7,1.4,2.7,3.2,2.7h32c1.8,0,3.2,0,3.2-2.7v-.5c0-1.1.7-2,1.5-2h13.8c3.9,0,7,1.1,7,8.9h0Z"/>
    <g id="freepik--u5Zjqx--inject-383">
      <path class="st11" d="M510.8,86.3h-.1v.2c-.7-.7-1.9-.7-2.6,0h0v-.2h-.1l.2-.2c.1,0,.3-.2.4-.2.2,0,.3,0,.5-.2h.7c.3,0,.6,0,.8.3.1,0,.2,0,.3.2h.1c0,0-.2,0-.2,0Z"/>
      <path class="st11" d="M508.5,86.9l-.2-.2c.2-.2.5-.4.9-.4s1,0,1.3.4l-.2.2c-.5-.5-1.3-.5-1.7,0h0Z"/>
      <path class="st11" d="M510,87.1l-.2.2c-.1,0-.3-.2-.4-.2-.2,0-.3,0-.4.2l-.2-.2c.4-.4.9-.4,1.3,0h0Z"/>
      <path class="st11" d="M509.5,87.5c0,0,0,.2-.2.2s-.2,0-.2-.2c0,0,0,0,.2-.2.1,0,.2,0,.2.2Z"/>
    </g>
    <path class="st11" d="M497.8,86.7c0-.3.2-.5.5-.5s.5.2.5.5-.2.5-.5.5-.5-.2-.5-.5Z"/>
    <path class="st11" d="M499.5,86.7c0-.3.2-.5.5-.5s.5.2.5.5-.2.5-.5.5-.5-.2-.5-.5h0Z"/>
    <path class="st11" d="M501.3,86.7c0-.3.2-.5.5-.5s.5.2.5.5-.2.5-.5.5-.5-.2-.5-.5h0Z"/>
    <path class="st11" d="M503,86.7c0-.3.2-.6.5-.6s.6.2.6.5-.2.6-.5.6h0c-.3,0-.5-.2-.5-.5h-.1Z"/>
    <path class="st11" d="M504.7,86.7c0-.3.2-.5.5-.5s.5.2.5.5-.2.5-.5.5-.5-.2-.5-.5Z"/>
    <path class="st11" d="M569.3,87.9h-4.5v-2.1h4.5v2.1ZM565,87.6h4v-1.6h-4v1.6Z"/>
    <rect class="st11" x="565.1" y="86.2" width="2.9" height="1.4"/>
    <rect class="st11" x="569.3" y="86.3" width=".4" height="1.1"/>
    <path class="st7" d="M569.3,247.5h-29.2v-.3c0-.1,0-.3,0-.5s0-.4,0-.5c-4.1-19.1-7.7-41.7-8.9-47.2-1.5-3.7-2.8-7.6-3.8-11.5,0-.2,0-.4-.2-.6-.4-1.7-.9-3.4-1.2-5.3-.5-2.3-.9-4.7-1.2-7.2h33.1c1.1,2.4,2.1,4.7,2.9,7.2,2,5.9,3.8,14.4,1.2,21.2-.4.9,4.2,31.9,7.5,44.8h0Z"/>
    <path class="st8" d="M547.8,247.5h-.8c-.3-1.9-.6-3.7-.9-5.6-1.1-6.9-2.2-13.8-3.3-20.6v-.3l-.2-1.1c0-.4,0-.8-.2-1.2-.4-2.7-.9-5.3-1.2-8-.3-2.3-.6-4.5-1-6.8v-.9c-.3-1-.5-2-.6-3,0-.9-.3-1.7-.4-2.6,0-.2.2-.3.3,0,.4,1.9.7,3.8,1,5.7v.9c.3,1.3.5,2.5.8,3.8.3,1.8.7,3.5,1,5.3.2,1,.3,1.9.5,2.9,0,.4,0,.8.2,1.2s0,.8.2,1.1h0c1.1,7,2.2,14,3.3,20.9.5,2.8.9,5.6,1.4,8.4h0Z"/>
    <path class="st7" d="M557.6,174.4h0c0,2.5-.3,4.9-.7,7.2-.8,5.6-2.7,13.3-6.7,19.7,0,0-1.3.5-2.8,1.2-1.1.4-2.1.9-3.1,1.5h0v.3c0,1.2-.7,6.3-1.3,12.8,0,.9-.2,1.9-.3,2.8-1,9.4-2.1,20.6-2.7,26.8v.8h-27.9c.4-6.9,2.3-40.1,8.5-64.4,0-.5.3-1.1.4-1.6,0-.2,0-.5.2-.7.3-1,.5-1.9.8-2.9h0l.2-.8c.3-.9.6-1.8.9-2.7h34.7-.2Z"/>
    <path class="st8" d="M529.2,177.2c-.4,1.4-.7,2.9-1,4.3-.4,2-.8,3.9-1.2,5.9-.9,4.7-1.5,9.5-2.2,14.3-1,8.1-2,16.3-2.8,24.5-.7,7.1-1.3,14.2-1.7,21.4h-.7c.9-14.5,2.5-29,4.4-43.4.8-5.8,1.6-11.6,2.8-17.3.4-1.7.7-3.5,1.2-5.2.3-1.5.7-2.9,1.1-4.3h0v-.2Z"/>
    <path class="st8" d="M521,180.8h0c0,2-.5,4.1.4,6,.8,1.6,2.2,2.6,3.6,3.7,0,0,0,.1,0,0-1.8-.5-3.6-1.5-4.3-3.4-.8-2.1-.4-4.3.2-6.4h0Z"/>
    <path class="st8" d="M536,203c1.4,0,2.9,0,4.3.1h4.2c.7,0,1.4-.2,2.1-.3.7-.2,1.4-.4,2.1-.6.6-.1,1.3-.1,2,0,.8.2,1.5.3,2.3.4,1.7.3,3.5.3,5.2.1,0,0,0,0,0,.1-1.5.3-3,.5-4.5.5s-1.5,0-2.3-.2c-.7-.2-1.4-.3-2.2-.3-.7.2-1.4.4-2.1.7-.7.2-1.4.3-2.1.4-1.4.2-2.9.2-4.3.1-1.6,0-3.3-.3-4.8-.7v-.2h0Z"/>
    <path class="st8" d="M544.2,203.6v.6c0,2.8-.4,5.6-.6,8.4-.2,1.9-.3,3.8-.5,5.7,0,1-.2,2-.3,2.9v.4c-.6,6-1.1,12-1.8,18-.2,1.7-.4,3.4-.6,5.1,0,.8-.2,1.6-.4,2.4v.3h-.3v-1.3c0-1.8.2-3.6.4-5.3.3-3,.6-6,.9-9,.5-4.4.9-8.7,1.3-13.1,0-.9.2-1.9.3-2.8,0-.7,0-1.3.2-2.1.3-3.3.6-6.6,1.1-9.9v-.4h.3Z"/>
    <path class="st6" d="M523.2,163.1l-2.8,15.1s33.4.5,41.2,0c0,0-8.2-31.9-16.6-41.1-4.2-4.6-9.2-4.2-12.3-1-.8.8-10.3,13.4-11.3,18.2-.9,4.2,1.9,8.9,1.9,8.9h-.1Z"/>
    <path class="st10" d="M545.4,168.2c-.3.3-.6.7-.8,1.1.4-.2.8-.5,1.1-.8s.6-.7.8-1.1c-.4.2-.8.5-1.1.8ZM535.2,136.1c-.3.3-.6.7-.8,1.1.4-.2.8-.5,1.1-.8s.6-.7.8-1.1c-.4.2-.8.5-1.1.8h0ZM525.5,164.4c-.3.3-.6.7-.8,1.1.4-.2.8-.5,1.1-.8s.6-.7.8-1.1c-.4.2-.8.5-1.1.8h0ZM527.7,172.9c-.3-.3-.7-.6-1.1-.8.4.9,1.1,1.5,1.9,1.9-.2-.4-.5-.8-.8-1.1h0ZM538.7,152.1c-.3-.3-.7-.6-1.1-.8.4.9,1.1,1.5,1.9,1.9-.2-.4-.5-.8-.8-1.1h0ZM555.1,172.9c-.5,0-.9,0-1.3.2.4.2.9.2,1.3.2s.9,0,1.3-.2c-.4-.2-.9-.2-1.3-.2ZM546.9,156.6c-.5,0-.9,0-1.4.2.4.2.9.2,1.4.2s.9,0,1.3-.2c-.4-.2-.9-.2-1.3-.2ZM529.1,154.7c-.5,0-.9,0-1.3.2.4.2.9.2,1.3.2s.9,0,1.4-.2c-.4-.2-.9-.2-1.4-.2ZM537.5,172.6c-.5,0-.9,0-1.3.2.4.2.9.2,1.3.2s.9,0,1.3-.2c-.4-.2-.9-.2-1.3-.2h0ZM538.9,142.2c-.5,0-.9,0-1.3.2.9.3,1.8.3,2.7,0-.4-.2-.9-.2-1.4-.2h0ZM529.8,143.4c-.3.9-.3,1.8,0,2.7.2-.4.2-.9.2-1.3s0-.9-.2-1.4h0ZM545.8,177.7c0,.2-.2.4-.2.7h.4c0-.2,0-.5-.2-.7h0ZM536.6,161.4c-.3.9-.3,1.8,0,2.7.2-.4.2-.9.2-1.3s0-.9-.2-1.4ZM554.5,161.4c-.2.4-.2.9-.2,1.3s0,.9.2,1.3c.3-.9.3-1.8,0-2.7h0ZM547.4,145.8c-.3.9-.3,1.9,0,2.7.2-.4.2-.9.2-1.3s0-.9-.2-1.4Z"/>
    <g id="freepik--9kwdk1--inject-383">
      <path class="st3" d="M519.7,129c0,13.5-11,24.3-24.5,24.3s-24.3-11-24.3-24.5,11-24.3,24.4-24.3,24.4,11,24.4,24.4h0Z"/>
      <g class="st1">
        <path d="M495.3,106.3c-11.1,0-20.5,8-22.4,18.9-.2,1.1-.3,2.2-.3,3.3v.4c0,2.1.3,4.1.8,6.1,0,.1,0,.3.1.4,3.6,12,16.2,18.8,28.2,15.2,2.7-.8,5.2-2.1,7.4-3.8.1-.1.3-.2.4-.3.6-.5,1.3-1.1,1.8-1.7.1-.1.3-.3.4-.4,8.5-9.1,8-23.5-1.1-32-4.2-3.9-9.7-6.1-15.4-6.1h.1ZM507.4,112.6c.8.6,1.5,1.2,2.2,1.9l.2.2c7.8,8,7.7,20.8-.3,28.7l-.4.4c-.5.5-1.1,1-1.7,1.4l-.3.2c-.5.4-1,.7-1.5,1-3.3,2-7.1,2.9-11,2.8-4.1-.1-8.2-1.5-11.5-4-.5-.4-1.1-.8-1.6-1.3l-.2-.2c-1.4-1.3-2.5-2.8-3.5-4.4h0c-.4-.7-.8-1.5-1.2-2.3,0,0,0-.2-.1-.3-.9-2.3-1.5-4.7-1.5-7.1v-1.1c0-1.2.2-2.5.4-3.7,2.3-11,13.1-18,24.1-15.7,2.8.6,5.4,1.7,7.7,3.4l.2.2h0Z"/>
        <path d="M505.2,133.4c0-2-1.1-3.7-2.9-4.5-.3-.2-.7-.3-1.1-.4l.8-.4c1-.5,1.7-1.4,2-2.5,0-.4.1-.9.2-1.3.2-2.5-1-4.3-3.4-5.1-.9-.3-1.9-.4-2.9-.5-.3,0-.4,0-.4-.5v-3.4h-2.3v3.8h-1.7v-3.8h-2.3v3.8h-5.8v3.9h1.7v13.4h-1.7v3.9h5.8v3.4h2.3v-3.4h1.6s.1.2.1.3v3.1h2c.2,0,.3-.1.3-.3v-2.7c0-.4.1-.5.5-.5.7,0,1.5,0,2.2-.2.7-.1,1.4-.4,2.1-.7,1.2-.5,2.1-1.5,2.5-2.7.3-.9.4-1.9.4-2.8h0ZM493.4,124.8v-2c0-.2,0-.3.3-.3h1.6c.4,0,.8,0,1.2.3l.2.2h0l.2.2s0,0,.1.2v.2c.1.2.2.5.2.8v1.4c-.1.7-.7,1.3-1.5,1.3h-2.1c-.2,0-.3,0-.3-.3v-2h0ZM493.4,135.5v-4.7c0-.2,0-.3.3-.3h1.9c.5,0,1,.1,1.5.4h.1c.1.1.2.2.3.3.7.7.9,1.6.7,2.5-.2,1.3-1.2,2.2-2.5,2.2h-2c-.3,0-.4,0-.4-.3h.1Z"/>
      </g>
      <path class="st11" d="M509.7,114.6c1.9,1.9,3.5,4.1,4.6,6.5,4.4,10.3-.4,22.3-10.7,26.7-.1,0-.2,0-.3.1-2.5,1-5.2,1.5-7.9,1.5s-5.4-.6-7.8-1.7c-2.5-1.1-4.7-2.6-6.5-4.6,5.9,5.7,14.5,7.3,22,4.2s12.4-10.4,12.4-18.5-2-10.5-5.7-14.4v.2Z"/>
      <path class="st0" d="M480.8,143.3c-1.9-1.9-3.5-4.1-4.5-6.6s-1.6-5.1-1.6-7.8.5-5.4,1.6-7.9c2.1-5.1,6.1-9.1,11.2-11.1,2.5-1,5.2-1.5,7.9-1.5s5.4.6,7.8,1.7c2.5,1.1,4.7,2.6,6.5,4.6-5.8-5.7-14.5-7.3-22-4.2-4.9,2.1-8.8,5.9-10.9,10.8-3.2,7.5-1.6,16.2,4.1,22.1h-.1Z"/>
      <path class="st11" d="M485.4,122.4v-4h0c0,0,.1,0,.1,0h5.8-.1c0,0,0-1.8,0-1.8v-2,3.8h0c0,0-.1,0-.1,0h-5.8.1c0,0,0,1.8,0,1.8v2.2Z"/>
      <path class="st11" d="M485.4,139.8v-4h0c0-.1.1-.1.1-.1h1.7-.1c0,.1,0-3.2,0-3.2v-10.2c0,1.1,0,2.2.1,3.4v10.1h0c0,.1-.1.1-.1.1h-1.7.1v3.8h-.1Z"/>
      <path class="st11" d="M493.8,135.8h2.2c.7-.1,1.3-.5,1.7-1.1.4-.6.5-1.3.4-2,0-.4-.2-.7-.3-1-.2-.3-.4-.6-.7-.8.7.4,1.2,1,1.3,1.8.2.8,0,1.6-.4,2.2-.5.7-1.2,1.1-2,1.1s-1.5,0-2.2-.1h0Z"/>
      <path class="st11" d="M493.8,127.1c.6,0,1.2,0,1.8,0s1.1-.4,1.3-1c.3-.5.3-1.1.2-1.7,0-.6-.4-1.2-.8-1.6,1,.8,1.4,2.2.8,3.4-.3.6-.9,1-1.6,1.1-.7,0-1.3,0-1.9,0h.2Z"/>
      <path class="st11" d="M491.2,139.8c.1.6.2,1.1.2,1.7s0,1.2-.2,1.7c-.2-1.1-.2-2.3,0-3.4Z"/>
      <path class="st11" d="M495.1,139.8c.2,1.1.2,2.3,0,3.4-.2-1.1-.2-2.3,0-3.4Z"/>
    </g>
    <path class="st9" d="M540.8,134.6c-.2.7-3.7,4.8-6.7,4.4-1-.1-.6-5.6-.6-5.6v-.4l-.9-5.7,6.9-3.8,1-.5s0,1.6.3,3.5v8h0Z"/>
    <path class="st8" d="M540.8,126.7c-1.4,3.1-4,5.5-7.3,6.4l-.9-5.7,6.9-3.8,1-.5s0,1.6.3,3.5h0Z"/>
    <path class="st9" d="M525.8,115.8c-4.6,9,.3,12.9,2.3,13.8,1.8.8,7.9,3.7,13.4-4.8s2.7-13.5-1.2-15.8-9.9-2.3-14.5,6.8Z"/>
    <path class="st8" d="M527.2,114.1c.2,0,.4,0,.7,0h.7c0,0,.2-.2.2-.4,0-.3-.4-.5-.7-.5s-.7,0-.9,0-.2.3,0,.5c0,0,0,.2.2.2h-.1Z"/>
    <path class="st8" d="M533.1,116.9c-.2,0-.4-.3-.6-.4-.2-.2-.4-.3-.5-.5,0-.2,0-.3.2-.4.3,0,.6,0,.9,0,.3.2.5.4.6.7,0,.2,0,.4-.3.5h-.3Z"/>
    <path class="st8" d="M530.8,118.7h0c-.3.6-.5,1.4,0,1.9h0c-.6-.4-.3-1.4,0-2h0Z"/>
    <path class="st8" d="M531.7,118.3c1,.4.2,2.4-.8,2.1s0-2.4.8-2.1Z"/>
    <path class="st8" d="M532,118.6c0,.2.2.5.4.6s.5,0,.8-.2h0c0,.4-.5.7-.9.6-.4-.2-.6-.6-.5-1,0,0,0-.2.2,0Z"/>
    <path class="st8" d="M527.5,116.9h0c-.2.7-.6,1.3-1.3,1.3h0c.7.2,1.2-.8,1.3-1.4h0Z"/>
    <path class="st8" d="M527.2,116c-1-.5-1.9,1.6-1,2s1.8-1.6,1-2Z"/>
    <path class="st8" d="M526.7,116c-.2,0-.5.2-.7,0s-.3-.4-.3-.7h0c-.2.3-.2.8,0,1.1.3.2.7,0,1-.4v-.2.2Z"/>
    <path class="st8" d="M528.8,123.6c-.2,0-.4.3-.7.2-.3,0-.5-.2-.7-.4M527.4,123.4c0,.3.4.6.7.7.3,0,.6,0,.7-.4h0l-1.4-.2h0Z"/>
    <path class="st8" d="M527.1,120.2c-.3.4-.5.9-.7,1.3,0,0,0,0,.2.2h0c.7.5,1.7.5,2.4,0,0,0,0,0,0,0-.7.2-1.5,0-2.2-.3,0,0,1-1.5.9-1.5-.4,0-.7-.2-1.1-.2,1-1.9,2.4-3.6,3.4-5.5h0c-1.5,1.8-2.8,3.7-3.9,5.8,0,.3.9.3,1.2.3h-.2Z"/>
    <path class="st8" d="M526.8,121.4c0,.5.3,1,.6,1.3.2.2.4.4.7.4.6,0,.8-.3.9-.7,0-.2,0-.4,0-.7-.8,0-1.6,0-2.3-.4h0Z"/>
    <path class="st4" d="M527.4,122.7c.2.2.4.4.7.4.6,0,.8-.3.9-.7-.5-.3-1.2,0-1.6.3h0Z"/>
    <path class="st8" d="M539.2,125.9c-1.7-1.2,1-5.3,1-5.3,0,0-2.6-2.6-2.4-5.5,0,0-.4,2.3.3,3.9,0,.3-5.5-4.6-2.8-9.6,0,0-4.1,3.9-7.5,2.9-.2,0,3.3-3.9,4.9-4.2,3.6-.8,7.4,0,10.2,2.5,3.4,3.1,3,8.7,2.2,10.5-1.6,3.5-5,5.4-5.8,4.8h-.1Z"/>
    <path class="st8" d="M537.8,118.9c-3.2-2.4-4.3-6.4-2.3-9.9h0c-2.8,3-.9,8.1,2.4,10h-.1Z"/>
    <path class="st8" d="M539.3,125.7c-1.1-2.2-.2-4.1,1-6,0,0,0,0,0,0-1.3,1.8-2.5,4.2-1,6.2h.2v-.2h-.2Z"/>
    <path class="st8" d="M535.7,108.6h0c-1.7,1.6-4,4.7-6.8,3.5h0c2.5,1.4,5.8-1.5,6.9-3.6h-.1Z"/>
    <path class="st9" d="M537.8,142.7c-4.1,5.2-21.3,21.5-27.6,20.5-9.8-1.6-22.9-8.5-28.7-11.1-3.1-1.4,8.8-19.6,11.6-17,3.7,3.4,17.2,9.2,18.8,9.9s13-5.4,21.5-9.4c7.1-3.4,9.7.4,4.4,7h0Z"/>
    <path class="st9" d="M472.6,125.4c-.9.8-1.2,2.1-.7,3.2-1,.1-1.9.6-2.6,1.3-1.1,1.3.5,3.7.5,3.7-1,.4-1.9,1-2.5,1.9-.9,1.4.4,4,.4,4-.7.8-1.1,1.9-1.1,3,.1,3,4,5.2,6.5,6.7s10.9,3.3,12.4,3.8l10.2-14.6s-4-8.5-13-12.2c-2.6-1.1-8.3-2.3-10.1-.8h0Z"/>
    <path class="st8" d="M472.2,128.4c3.1.5,5.9,1.9,8.7,3.1h0c-2.8-1.3-5.9-1.9-8.7-3.1h0Z"/>
    <path class="st8" d="M470,133.5c.7.2,1.4.5,2,.8.7.3,1.3.7,2,1,1.3.7,2.7,1.5,4,2.2h0c-1.3-.6-2.7-1.3-4.1-2-.7-.3-1.3-.7-2.1-1-.7-.3-1.3-.6-1.9-1v-.2h0v.2Z"/>
    <path class="st8" d="M467.8,139.5c.6.2,1.2.5,1.7.8l1.8,1c1.2.7,2.4,1.3,3.7,1.9h0c-1.3-.5-2.5-1.1-3.8-1.8l-1.9-.9c-.6-.2-1.1-.6-1.6-1h0Z"/>
    <path class="st6" d="M507.2,142.3l-7.4,19.9s9,2.9,12.3,1.8c3.3-1.1,18.6-11.4,25.5-20.3,6.9-8.9,2.5-11.1-4.6-8s-20.1,8.9-20.6,8.9-5.2-2.2-5.2-2.2h0Z"/>
    <path class="st10" d="M513,150.7c-.5,0-1,0-1.5.1.5.2,1,.3,1.5.3s1,0,1.5-.1c-.5-.2-1-.3-1.5-.3ZM530.8,146.6c-.4-.1-.8-.2-1.3-.2h-1.3c.4.2.8.3,1.3.3h1.6-.3ZM512.8,158.8c-.2.5-.3,1-.3,1.5s0,1,0,1.5c.2-.5.3-1,.3-1.5s0-1,0-1.5h0ZM528.9,137.5l-.3.2v.4h0c0,.6,0,1.1,0,1.7.2-.5.3-1,.3-1.5v-.8h0ZM506,156.8c-.2.1-.4.3-.6.4l-.3.3c-.4.3-.7.7-1,1.2.4-.2.8-.4,1.1-.7l.2-.2c.1-.1.3-.3.4-.4.2-.2.4-.5.6-.8-.1,0-.3.1-.4.2h0ZM522.3,152.9c-.4.3-.7.7-1,1.2.9-.5,1.7-1.2,2.3-2.1-.5.2-.9.5-1.3.8h0ZM507.7,145.5h0l-.2-.2s-.1-.1-.2-.2c-.2-.2-.5-.5-.8-.6.1.3.3.6.5.8,0,0,.1.2.2.2l.2.2h0c.3.4.7.8,1.1,1-.2-.5-.5-.9-.8-1.3h0ZM520.1,145.6c-.3-.4-.7-.7-1.2-1,.2.5.5.9.9,1.3.3.4.7.7,1.2,1-.2-.5-.5-1-.9-1.4h0ZM540.3,138.4h0c-.3-.4-.7-.8-1.2-1.1.2.5.5.9.9,1.3l.2.2s.2.2.3.3v-.2c0,0,0-.1,0-.2s-.2-.3-.3-.4h0Z"/>
    <path class="st8" d="M503.9,161.7c1.8-5.6,3.7-11.2,6-16.6,0,0,.1,0,0,0-1.6,5.6-3.8,11.1-6,16.6,0,0-.1,0,0,0Z"/>
    <path class="st8" d="M521.4,158.3c2.6-2.3,11.3-9.5,13.9-11.8M535.4,146.6c-.9,1.1-1.9,2.1-3,3.1.5-.3.9-.6,1.4-.9h0c-.4.3-.8.6-1.2.9-.2.1-.5.3-.7.4-2.4,2.8-8.9,7.2-10.4,8.3,0,0,0,0,0,0l13.9-11.7h0Z"/>
    <path class="st8" d="M541.7,109.6c3.9,1.7,7.9,5.6,9.1,19.7s-1,24.4-5.2,26.9c-4.1,2.5-13.2,1.2-18-2.5,0,0,9.9-10.5,11.4-26,.5-4.9-2.5-12.7-.6-16.3,0,0,3.3-1.8,3.3-1.8Z"/>
    <path class="st8" d="M527,152.9c.7-1.1,1.4-2.3,2.1-3.4s1.4-2.2,2.1-3.3c1.4-2.2,2.6-4.6,3.7-6.9,2.3-4.7,3.6-9.9,3.8-15.1,0-3.1-.2-6.2-.4-9.4h0c.9,5.4,1.3,11,0,16.4-1.3,5.1-3.4,10-6.2,14.4-.8,1.3-1.6,2.5-2.4,3.7s-1.9,2.4-2.8,3.7c0,0,0,0,0,0h0Z"/>
    <path class="st8" d="M545.7,113.7s0,0,0,0c3.5,4.3,4.9,9.9,5.8,15.2,1.1,6,1,12.1-.4,18-.4,1.5-.9,3-1.5,4.5-.6,1.4-1.4,2.7-2.3,3.9,0,0,0,0,0,0,.9-1.1,1.6-2.4,2-3.7.5-1.3.8-2.5,1.1-3.9.6-2.9,1-5.8,1.1-8.8.2-5.7-.5-11.4-2-17-.8-2.9-2-5.7-3.8-8.1h0Z"/>
    <path class="st8" d="M549.2,150.1c.6-1.3,1.1-2.6,1.5-3.9.8-2.6,1.4-5.4,1.7-8.1.5-5.5-.2-11-2.1-16.2-1.1-2.9-2.5-5.7-4.3-8.3,0,0,0,0,0,0,6.9,9.1,8.9,21,5.4,31.9-.5,1.5-1.1,2.9-1.8,4.3-.7,1.5-1.6,2.8-2.4,4.3,0,0,0,0,0,0,.8-1.2,1.5-2.5,2-3.8v-.2Z"/>
    <path class="st9" d="M538.3,121.5s2.5-2.9,3.8-2-.7,5.3-2.4,5.8c-.9.3-1.9-.2-2.2-1.1h0l.8-2.7h0Z"/>
    <path class="st8" d="M541.5,120.8c-1.1.4-2,1.4-2.5,2.5.3-.4.9-.5,1.3-.2h0c-.4-.2-.9,0-1.2.3-.2.3-.5.6-.6.9,0,0-.2,0-.2,0h0c0-1.5,1.5-3.5,3.1-3.5h0Z"/>
  </g>
  <g id="freepik--character-1--inject-383">
    <rect class="st6" x="120.9" y="17.6" width="164.6" height="110.1"/>
    <rect class="st8" x="122.1" y="18.9" width="162.2" height="107.4"/>
    <rect class="st10" x="99.5" y="135.9" width="207.5" height="7.6"/>
    <polygon class="st6" points="99.5 135.9 120.9 127.7 285.5 127.7 307 135.9 99.5 135.9"/>
    <polygon class="st8" points="122.8 133 136.6 127.7 269.8 127.7 283.6 133 122.8 133"/>
    <rect class="st12" x="131.3" y="27.1" width="143.9" height="91.1"/>
    <rect class="st3" x="131.3" y="30.6" width="143.9" height="22.4"/>
    <rect class="st11" x="232.6" y="34.9" width="35" height="4.7"/>
    <path class="st10" d="M267.7,39.6h-35.1v-4.8h35.1v4.8ZM232.7,39.5h34.9v-4.6h-34.9v4.6h0Z"/>
    <rect class="st13" x="262.9" y="34.9" width="4.8" height="4.8"/>
    <path class="st11" d="M266.8,38.6l-.4.3-.8-1.1-.3-.4h.2s.2-.2.2-.3l.3.4.8,1.1h0Z"/>
    <path class="st11" d="M265.9,36.1c-.4-.5-1.1-.6-1.7-.2-.5.4-.6,1.1-.2,1.7.4.5,1,.6,1.5.3,0,0,.1,0,.2,0,0,0,.2-.2.2-.3.3-.4.3-1,0-1.4ZM265.4,37.3c-.3.2-.8.2-1,0s-.2-.8.1-1,.8-.2,1,0h0c.2.2.2.5,0,.7,0,0-.1.2-.2.3h.1Z"/>
    <rect class="st10" x="233.6" y="35.8" width=".2" height="2.8"/>
    <rect class="st11" x="150.2" y="34.9" width="80.6" height="4.7"/>
    <path class="st10" d="M230.9,39.6h-80.7v-4.8h80.7v4.8ZM150.3,39.5h80.6v-4.6h-80.5v4.6h0Z"/>
    <rect class="st10" x="151.2" y="35.8" width=".2" height="2.8"/>
    <polygon class="st11" points="141.4 38.9 139.7 37.3 141.4 35.7 141.7 35.9 140.3 37.3 141.7 38.6 141.4 38.9"/>
    <polygon class="st11" points="145.5 35.7 147.2 37.2 145.5 38.9 145.3 38.6 146.7 37.2 145.3 35.9 145.5 35.7"/>
    <rect class="st13" x="131.3" y="27.1" width="143.9" height="3.5"/>
    <path class="st10" d="M134.6,28.8c0,.4-.3.7-.7.7s-.7-.3-.7-.7.3-.7.7-.7.7.3.7.7h0Z"/>
    <path class="st11" d="M137.3,28.8c0,.4-.3.7-.7.7s-.7-.3-.7-.7.3-.7.7-.7h0c.4,0,.7.3.7.7h0Z"/>
    <circle class="st3" cx="139.3" cy="28.8" r=".7"/>
    <g id="freepik--9kwdk1--inject-3831">
      <path class="st5" d="M193.3,59.4c2.5,8.1-2,16.7-10.1,19.2s-16.7-2-19.2-10.1,2-16.7,10.1-19.2,16.7,2,19.3,10h-.1Z"/>
      <path class="st6" d="M182.9,77.6c-7.5,2.4-15.5-1.8-17.9-9.3s1.8-15.5,9.3-17.9,15.5,1.8,17.9,9.3h0c2.3,7.5-1.8,15.5-9.3,17.8h0ZM190.9,60.4c-2-6.8-9.1-10.7-15.9-8.7-6.8,2-10.7,9.1-8.7,15.9,2,6.7,9,10.6,15.8,8.7s10.8-9,8.8-15.8h0Z"/>
      <path class="st6" d="M175.8,55.4l1.4-.4v.4c.3.5.5,1.1.6,1.6,0,.2.1.2.4.2.6,0,1.2-.2,1.8-.2,1.6,0,2.6.9,3,2.4,0,.3.1.6.2.8,0,.7-.2,1.4-.7,1.9l-.4.4h.7c1.2,0,2.2,1,2.6,2.2.2.6.3,1.2.3,1.8s-.4,1.6-1,2.1c-.7.6-1.5,1.1-2.4,1.3-.2,0-.3,0-.2.4.2.5.3,1.1.5,1.6,0,0,0,.2-.1.3l-1.2.4c0-.2-.1-.3-.2-.5-.1-.5-.3-.9-.4-1.4,0-.2-.1-.2-.3-.2-.3,0-.5.2-.8.3l.7,2.1-1.4.4c-.2-.7-.4-1.4-.7-2.1l-3.5,1.1c-.3-.8-.5-1.6-.7-2.4l1-.3c-.8-2.7-1.7-5.4-2.5-8.1l-1,.3c-.2-.8-.5-1.5-.7-2.3l3.5-1.1-.7-2.3,1.4-.4.7,2.3,1-.3c-.2-.8-.5-1.5-.7-2.3h-.2ZM178.6,65c-.2,0-.5.2-.7.2s-.2,0-.1.3c.3.9.6,1.9.9,2.8,0,.2.1.2.3,0,.4,0,.8-.3,1.2-.4.8-.2,1.2-1,1.1-1.8,0-.9-.8-1.6-1.7-1.5-.2,0-.4,0-.5,0h-.5v.2ZM176.7,61.8c.1.4.3.8.4,1.2,0,0,.1.2.2,0,.4,0,.8-.3,1.3-.4.4-.2.7-.6.6-1.1,0-.3-.1-.6-.2-.9-.2-.6-.9-1-1.6-.7h0c-.3,0-.6.2-.9.3-.2,0-.2,0-.1.3.1.4.2.8.4,1.2h0Z"/>
      <path class="st11" d="M184.5,52.6c1.5.7,2.9,1.8,4,3.1s1.9,2.8,2.5,4.4c.5,1.6.7,3.3.6,5-.3,3.4-1.9,6.6-4.6,8.8-4,3.4-9.7,3.9-14.3,1.4,4.6,2.3,10.1,1.6,14-1.7,2.5-2.2,4.1-5.2,4.5-8.6.5-5.1-2.2-10-6.7-12.5h0Z"/>
      <path class="st10" d="M172.6,75.3c-1.5-.8-2.9-1.8-4-3.1-1.1-1.3-1.9-2.8-2.5-4.4-.5-1.6-.7-3.3-.6-5,.3-3.4,2-6.6,4.6-8.8,1.3-1.1,2.8-1.9,4.5-2.4,1.6-.5,3.3-.6,5-.5,1.7.2,3.3.7,4.8,1.5-4.6-2.3-10.1-1.7-14,1.6-2.6,2.2-4.2,5.2-4.5,8.5-.5,5.1,2.1,10,6.6,12.5h0Z"/>
      <path class="st11" d="M171.4,61.9c0-.2-.1-.4-.2-.6s-.1-.4-.2-.6l-.4-1.2h0c1.1-.5,2.3-.8,3.5-1.2h0c0,0-.3-1-.3-1l-.2-.6c0-.2-.1-.4-.2-.6,0,.2.1.4.2.6l.2.6.4,1.1h0c-1.1.5-2.3.8-3.5,1.2h0c0,0,.3,1.1.3,1.1,0,.2.1.4.2.6s.1.4.2.6Z"/>
      <path class="st11" d="M174.7,72.3c-.1-.4-.3-.8-.4-1.2s-.3-.8-.4-1.2h0l1-.3h0c0,0-.7-1.9-.7-1.9-.2-.7-.4-1.4-.6-2s-.4-1.4-.6-2-.4-1.4-.6-2c.2.7.5,1.3.7,2,.2.7.5,1.3.7,2s.4,1.3.6,2l.6,2h0c0,0-1,.4-1,.4h0c.1.3.2.7.3,1.1s.2.8.3,1.2h0Z"/>
      <path class="st11" d="M179,68.4c.2,0,.4-.2.7-.3l.7-.2c.4-.2.7-.5.8-.9s0-.9-.1-1.3c0-.2-.2-.4-.4-.5-.2-.2-.4-.3-.6-.4.5,0,.9.4,1.1.8.3.4.3.9.2,1.4-.2.5-.5.9-1,1-.4,0-.9.2-1.3.3h0Z"/>
      <path class="st11" d="M177.4,63.1c.4-.2.7-.3,1.1-.4.3-.2.6-.5.6-.8s0-.7-.2-1.1c-.2-.3-.4-.6-.8-.8.4,0,.7.4.9.7s.3.8.2,1.2c0,.4-.4.8-.8.9s-.8.2-1.1.3h.1Z"/>
      <path class="st11" d="M178.2,71.2c.2.3.3.7.4,1,.1.3.2.7.2,1.1-.2-.3-.3-.7-.4-1-.1-.3-.2-.7-.2-1.1Z"/>
      <path class="st11" d="M180.6,70.5c.2.3.3.7.4,1,.1.3.2.7.2,1.1-.2-.3-.3-.7-.4-1-.1-.3-.2-.7-.2-1.1Z"/>
    </g>
    <g id="freepik--9kwdk1--inject-3832">
      <path class="st5" d="M242.8,51.4c-1.8,8.3-10.1,13.5-18.3,11.7s-13.5-10.1-11.7-18.3c1.8-8.3,10-13.5,18.3-11.7s13.5,10,11.7,18.3h0Z"/>
      <path class="st6" d="M224.8,62c-7.7-1.7-12.6-9.3-10.9-17,1.7-7.7,9.3-12.6,17-10.9,7.7,1.7,12.6,9.3,10.9,17h0c-1.7,7.7-9.3,12.5-17,10.8h0ZM240.3,51.1c1.7-6.9-2.6-13.8-9.4-15.5-6.9-1.7-13.8,2.6-15.5,9.4-1.7,6.8,2.5,13.7,9.3,15.4,6.9,1.7,13.8-2.4,15.5-9.3h0c0,0,0,0,0,0Z"/>
      <path class="st6" d="M229.7,39.3l1.4.3v.4c-.2.6-.3,1.1-.5,1.7,0,.2,0,.3.2.3.6.2,1.1.4,1.7.7,1.4.8,1.8,2.1,1.4,3.6,0,.3-.2.5-.3.8-.3.6-.9,1.1-1.5,1.3-.2,0-.3,0-.5,0,.2.2.4.3.6.4,1,.7,1.5,2,1.2,3.2,0,.6-.3,1.2-.6,1.7-.4.7-1.1,1.1-1.9,1.3-.9.2-1.9,0-2.8,0-.2,0-.3,0-.4.2-.1.6-.2,1.1-.4,1.7,0,0,0,.2-.2.2l-1.2-.3c0-.2,0-.4.1-.5.1-.5.2-.9.3-1.4q0-.2-.2-.3c-.3,0-.5,0-.8-.2-.2.7-.3,1.4-.5,2.1l-1.4-.3c.2-.7.3-1.4.5-2.1l-3.6-.8c.2-.8.4-1.6.5-2.4l1.1.2c.6-2.8,1.2-5.5,1.8-8.3l-1-.2c.2-.8.3-1.6.5-2.4l3.5.8c.2-.8.3-1.6.5-2.3l1.4.3c-.2.8-.3,1.5-.5,2.3l1.1.2c.2-.8.4-1.5.5-2.3h0ZM227.4,49c-.2,0-.5,0-.7-.2q-.2,0-.2.2c-.2,1-.4,1.9-.6,2.9q0,.2.2.3c.4,0,.8.2,1.2.3.8.2,1.6-.2,1.8-1,.4-.8,0-1.8-.7-2.2-.2,0-.3,0-.5-.2h-.5ZM227.2,45.2c0,.4-.2.8-.3,1.2,0,0,0,.2.1.2.4,0,.8.2,1.3.3.5,0,.9-.2,1.1-.6.1-.3.2-.6.2-.9.1-.7-.3-1.3-1-1.4h0c-.3,0-.6,0-1-.2q-.2,0-.2.2c0,.4-.2.8-.3,1.2h0Z"/>
      <path class="st11" d="M238.6,41.2c.9,1.4,1.6,3,1.9,4.6.3,1.7.3,3.4,0,5.1-.4,1.7-1,3.2-2,4.6-1,1.4-2.2,2.6-3.6,3.5-1.4.9-3,1.5-4.7,1.8-3.4.6-6.9-.2-9.7-2.2-1.4-1-2.5-2.2-3.4-3.7,2.8,4.3,8,6.4,13,5.5,3.3-.6,6.2-2.5,8.1-5.2,2.9-4.2,3.1-9.8.4-14.1h0Z"/>
      <path class="st10" d="M217,54.9c-.9-1.4-1.6-3-1.9-4.6-.3-1.7-.3-3.4,0-5,.4-1.7,1-3.2,2-4.6,2-2.8,5-4.8,8.4-5.3,1.7-.3,3.4-.2,5.1,0,1.7.4,3.2,1.1,4.6,2.1,1.4,1,2.5,2.3,3.4,3.7-2.8-4.3-7.9-6.4-13-5.5-1.6.3-3.2.9-4.6,1.8-1.4.9-2.6,2-3.6,3.4-3,4.2-3.1,9.7-.5,14.1h0v-.2Z"/>
      <path class="st11" d="M222.6,42.7c0-.2,0-.4.1-.6s0-.4.1-.6l.2-1.2h0c1.2.2,2.4.5,3.5.8h-.1l.3-1.1v-.6c.2-.2.3-.4.3-.6v.6c-.1,0-.2.6-.2.6l-.2,1.2h0c-1.2-.2-2.4-.5-3.5-.8h.1l-.3,1.1c0,.2-.1.4-.2.6s-.1.4-.2.6h0Z"/>
      <path class="st11" d="M220.3,53.4c0-.4.1-.8.2-1.2s.2-.8.2-1.2h0l1.1.2h-.1l.4-2c.1-.7.3-1.4.5-2.1s.3-1.4.5-2.1.3-1.4.5-2.1c-.1.7-.3,1.4-.4,2.1s-.3,1.4-.4,2.1-.3,1.4-.4,2.1l-.5,2.1h0l-1-.2h0c0,.3-.2.7-.3,1.1s-.2.8-.3,1.2Z"/>
      <path class="st11" d="M226,52.1c.2,0,.5,0,.7,0h.7c.4.2.9,0,1.2-.3s.5-.7.5-1.2v-.7c0-.2-.2-.4-.3-.6.4.3.6.8.6,1.3s-.2,1-.6,1.3c-.4.3-.9.5-1.4.4-.5,0-.9-.2-1.4-.4h0Z"/>
      <path class="st11" d="M227.1,46.7c.4,0,.8,0,1.1.2.4,0,.7,0,.9-.4.2-.3.4-.6.4-1s0-.8-.3-1.1c.3.3.4.7.4,1.1s-.1.8-.4,1.1c-.3.3-.7.5-1.1.4-.4,0-.8-.2-1.1-.3h.1Z"/>
      <path class="st11" d="M223.8,54.2c0,.4,0,.7-.1,1.1,0,.4-.2.7-.3,1,0-.4,0-.7.1-1.1,0-.4.2-.7.3-1Z"/>
      <path class="st11" d="M226.3,54.7c0,.4,0,.7-.1,1.1,0,.4-.2.7-.3,1,0-.4,0-.7.1-1.1,0-.4.2-.7.3-1Z"/>
    </g>
    <g id="freepik--9kwdk1--inject-3833">
      <path class="st5" d="M237,105.6c-1.8,8.3-10.1,13.5-18.3,11.6s-13.5-10.1-11.6-18.3c1.8-8.3,10-13.5,18.3-11.7s13.5,10,11.7,18.3h0Z"/>
      <path class="st6" d="M218.9,116.2c-7.7-1.7-12.6-9.3-10.9-17,1.7-7.7,9.3-12.6,17-10.9s12.6,9.3,10.9,17h0c-1.7,7.7-9.3,12.5-17,10.8h0ZM234.4,105.3c1.7-6.9-2.6-13.8-9.4-15.5s-13.8,2.6-15.5,9.4c-1.6,6.8,2.5,13.7,9.3,15.4,6.9,1.7,13.8-2.4,15.5-9.3h0c0,0,0,0,0,0Z"/>
      <path class="st6" d="M223.8,93.5l1.4.3v.4c-.2.6-.3,1.1-.5,1.7,0,.2,0,.3.2.3.6.2,1.1.4,1.7.7,1.4.8,1.8,2,1.4,3.6,0,.3-.2.5-.3.8-.3.6-.9,1.1-1.5,1.3-.2,0-.3,0-.5,0,.2.2.4.3.6.4,1,.7,1.5,2,1.2,3.2,0,.6-.3,1.2-.6,1.7-.4.7-1.1,1.1-1.9,1.3-.9.2-1.9.2-2.8,0-.2,0-.3,0-.4.2-.1.6-.2,1.1-.4,1.7,0,0,0,.2-.2.2l-1.2-.3c0-.2,0-.4.1-.5.1-.5.2-.9.3-1.4q0-.2-.2-.3c-.3,0-.5,0-.8-.2-.2.7-.3,1.4-.5,2.1l-1.4-.3c.2-.7.3-1.4.5-2.1l-3.6-.8c.2-.8.4-1.6.5-2.4l1.1.2c.6-2.8,1.2-5.5,1.8-8.3l-1-.2c.2-.8.3-1.6.5-2.4l3.5.8c.2-.8.3-1.6.5-2.3l1.4.3c-.2.8-.3,1.5-.5,2.3l1.1.2c.2-.8.4-1.5.5-2.3h0ZM221.5,103.2c-.2,0-.5,0-.7-.2q-.2,0-.2.2c-.2,1-.4,1.9-.6,2.9q0,.2.2.3c.4,0,.8.2,1.2.3.8.2,1.6-.2,1.8-1,.4-.8,0-1.8-.7-2.2-.2,0-.3,0-.5-.2h-.5ZM221.4,99.5c0,.4-.2.8-.3,1.2,0,0,0,.2.1.2.4,0,.9.2,1.3.3.5,0,.9-.2,1.1-.6.1-.3.2-.6.2-.9.1-.7-.3-1.3-1-1.4h0c-.3,0-.6,0-1-.2q-.2,0-.3.2c0,.4-.2.8-.3,1.2h.2Z"/>
      <path class="st11" d="M232.8,95.4c.9,1.4,1.6,3,1.9,4.6.3,1.7.3,3.4,0,5-.3,1.7-1,3.2-2,4.6s-2.2,2.6-3.6,3.5c-1.4.9-3,1.5-4.7,1.8-3.4.6-6.9-.2-9.7-2.2-1.4-1-2.5-2.2-3.4-3.7,2.8,4.3,8,6.4,13,5.5,3.3-.6,6.2-2.5,8.1-5.2,2.9-4.2,3.1-9.8.4-14.1h0v.2Z"/>
      <path class="st10" d="M211.1,109.1c-.9-1.4-1.6-3-1.9-4.6-.3-1.7-.3-3.4,0-5,.4-1.7,1-3.2,2-4.6,2-2.8,5-4.8,8.4-5.3,1.7-.3,3.4-.2,5.1,0,1.7.4,3.2,1.1,4.6,2.1,1.4,1,2.5,2.3,3.4,3.7-2.8-4.3-7.9-6.5-13-5.6-3.3.6-6.2,2.5-8.2,5.2-3,4.2-3.1,9.7-.5,14.1h0Z"/>
      <path class="st11" d="M216.8,96.9c0-.2,0-.4.1-.6s0-.4.1-.6l.2-1.2h0c1.2.2,2.4.5,3.5.8h-.1l.3-1.1.2-.6c0-.2.1-.4.2-.6,0,.2,0,.4-.1.6v.6c-.1,0-.3,1.2-.3,1.2h0c-1.2-.2-2.4-.5-3.5-.8h.1l-.3,1.1c0,.2-.1.4-.2.6s-.1.4-.2.6Z"/>
      <path class="st11" d="M214.4,107.6c0-.4.1-.8.2-1.2s.2-.8.2-1.2h0l1.1.2h-.1l.4-2c.1-.7.3-1.4.5-2.1s.3-1.4.5-2.1.3-1.4.5-2.1c-.1.7-.3,1.4-.4,2.1s-.3,1.4-.4,2.1-.3,1.4-.4,2.1l-.5,2.1h0l-1.1-.2h0c0,.3-.2.8-.3,1.1s-.2.8-.3,1.2h.1Z"/>
      <path class="st11" d="M220.1,106.3c.2,0,.5,0,.7,0h.7c.4.2.9,0,1.2-.3.5-.5.7-1.2.5-1.9,0-.2-.2-.4-.3-.6.4.3.6.8.5,1.3,0,.5-.2,1-.6,1.3-.4.3-.9.5-1.4.4-.5,0-.9-.2-1.4-.4h.1Z"/>
      <path class="st11" d="M221.3,100.9c.4,0,.8,0,1.1.2.4,0,.7,0,.9-.4s.4-.6.4-1,0-.8-.3-1.1c.3.3.4.7.4,1.1s-.1.8-.4,1.1c-.3.3-.7.5-1.1.4-.4,0-.7-.2-1.1-.3h.1Z"/>
      <path class="st11" d="M218,108.4c0,.4,0,.7-.1,1.1,0,.4-.2.7-.3,1,0-.4,0-.7.1-1.1,0-.4.2-.7.3-1Z"/>
      <path class="st11" d="M220.4,108.9c0,.4,0,.7-.1,1.1,0,.4-.2.7-.3,1,0-.7.2-1.4.5-2.1h0Z"/>
    </g>
    <path class="st8" d="M209.3,118.2h-14.3l-.2.6v-.6h-2.6l-.2-26h0v-6.1h0v-5.8h15.9l.2,4h0v4.4l.2,3,1.1,26.4h0Z"/>
    <path class="st7" d="M195.3,118.2h-.3l-.2.6v-36.2c0-2.4,0,0,0,0v19c0,2.6,0,5.2.1,7.7h0c0,2.6,0,5.2.1,7.8v1h.3Z"/>
    <path class="st7" d="M205.1,80.3v.5h-.1v.2l-.5,1.7-.4,1.3-.3,1.1-.3,1.3-.7,2.5-1.2,4.6-.4,1.6v.2h0c0,0-.3,1.4-.3,1.4v.5c-.1,0-5.4,19.9-5.4,19.9l-.3,1-.2.6v-.6h-2.6l-.2-26h0v-6.1h0v-5.8h13.1-.2Z"/>
    <path class="st8" d="M206.2,80.3h0c0,0-.2.8-.4,1.8h0c-.1.6-.2,1.2-.4,1.8,0,.4-.2.8-.3,1.3h0c-.3,1.2-.6,2.4-.9,3.7-.1.4-.2.8-.3,1.3-.2.9-.5,1.8-.7,2.5-.3,1.2-.7,2.4-1.3,3.6,0,0-.1.2-.2.3-.2,0-.5.3-1,.5h-.2l-.2.2c-1,.4-2.2,1-2.7,1.2h0c0,.4-1,4.9-2.3,10.9h0c-.1.6-.3,1.2-.4,1.8-.5,2.2-1,4.6-1.5,7h-18.5c3-11,6.3-23.4,6.3-23.4,0-1.9.2-3.9.4-5.8.1-.9.3-1.9.5-2.9v-.2h0v-.2c.5-2,1.2-4,2.3-5.3h21.8Z"/>
    <path class="st7" d="M185.7,92c.5,0,1-.2,1.5-.2s.8,0,1.2-.2c.8,0,1.5-.4,2.1-.9.7-.5,1-1.4,1.4-2.1.2-.5.4-.9.6-1.4.1-.2.2-.5.3-.7.1-.3.3-.5.4-.8h0c0,.2-.1.4-.2.6l-.2.7c-.1.4-.2.8-.4,1.2-.2.7-.5,1.4-.8,2.1-.7,1.2-2.1,1.7-3.4,1.8h-2.5Z"/>
    <path class="st7" d="M203.1,95.8c-1.9.7-3.8,1.6-5.6,2.6h0c1.9-.8,3.8-1.6,5.7-2.5v-.2h-.1,0Z"/>
    <path class="st7" d="M203.7,82.9h-.1c0,2.2-.1,4.2-.3,6.3,0,1-.9,6.4-2.6,6-.3,0-.4-.3-.5-.8,0-.6,0-1.1.2-1.7.2-1.1.3-2.3.4-3.4.2-2.1.2-4.3,0-6.4h0c0,2.9-.1,5.9-.5,8.8-.2,1.4-.9,3.5.5,3.7s2.5-3.3,2.6-4.3c.5-2.8.6-5.6.3-8.3h0Z"/>
    <path class="st7" d="M200.7,95.3c-.1.4-.3.7-.4,1.1-.1.3-.2.6-.2.9h0c.2-.3.3-.6.4-.9.1-.3.3-.7.4-1,0,0,0-.2-.1-.2,0,0-.2,0-.2,0h.1Z"/>
    <path class="st7" d="M183.8,89.5c0,1.3.4,2.5.4,3.8s-.3,2.6-.7,3.8c-1.2,5.3-2.5,10.5-3.9,15.7-.5,1.8-1,3.6-1.5,5.4h-.4c.3-1.2.7-2.5,1-3.7,1.4-5.2,2.7-10.4,4-15.6.3-1.3.7-2.6.9-3.9s.2-2.7,0-4c0-.6-.1-1.3-.1-2s0-1.1.1-1.6h0v-.2h0v-.4c.2-1.1.5-2.1.8-3.2.2-.6.4-1.3.6-1.9h0c-.6,1.7-1,3.5-1.3,5.2v.3h0v2.3h0Z"/>
    <path class="st14" d="M197.7,57c1.1,5.3,7.9,19.7,12.2,22.7,2.5,1.7,17.9,8.4,18.8,6.7.8-1.5.6-13.4.6-13.4-3.6-1.1-13.6-3.9-14.8-4.1-.8,0-6.3-6.8-12.2-13.6-3.3-3.7-5.2-1.4-4.6,1.7Z"/>
    <path class="st13" d="M226,71.2l-.9,16s-12.6-4.3-16.4-7.4-9.5-15-11.2-21.3,1.2-7.6,6.3-1.9c4.2,4.6,9.8,11.3,10.6,11.6s11.5,3.1,11.5,3.1h0Z"/>
    <path class="st8" d="M197.6,58.4c1.7,6.3,7.5,18.2,11.2,21.3,2,1.6,6.4,3.6,10.2,5.1h.1l-21.2-31.5h-.3c-.6.8-.7,2.5,0,5h0Z"/>
    <path class="st8" d="M221.8,85.1c.2-2.3.9-11.5.9-13.5s0-.2-.1,0c-.9,6.7-.7,11.3-.9,13.5h.1Z"/>
    <path class="st13" d="M180.1,89s29.5,0,29.7-.3c.4-.4-6.9-30.8-8.9-35.3-.9-1.9-5.6-2.5-7.6-.9-5,4.1-9.2,18.1-10.2,22.3-1.6,7-3.3,13.8-3.1,14.1h.1Z"/>
    <path class="st8" d="M201.1,53.9h0c0,1.3.2,4.4-1.9,4.2-.8,0-1.6-.5-2.3-1.1-.7-.5-1.3-1.1-1.8-1.8-.6-.7-1.2-1.5-1.7-2.3h0c.5.8.9,1.7,1.5,2.4.5.7,1.2,1.4,1.9,2,.7.5,1.5,1.1,2.4,1.1s1.5-.5,1.7-1.3c.3-1.1.3-2.2.1-3.3h.1Z"/>
    <path class="st14" d="M199.3,56.7c-1.5.2-4-2.6-4.8-4.6,0,0,.3-1.4.7-3,.2-1,.4-2,.6-3l6,2.3c-.5,1.2-.9,2.4-1.1,3.7v.4h0c0,.8,0,3.9-1.4,4v.2Z"/>
    <path class="st8" d="M200,52.6h.6v-.5c.2-1.3.6-2.5,1.1-3.7l-5.8-2.3c0,1.5.6,5.9,4.1,6.4h0Z"/>
    <path class="st14" d="M194.2,40.4c-.4,2.3,1.6,8.5,3.4,9.7,2.5,1.8,6.3,1.5,7.7-1.5,1.3-2.9-1.4-10.9-3.3-12-2.8-1.5-7.2.4-7.7,3.8h0Z"/>
    <path class="st8" d="M201.2,43.6h0c.1.4.2.9,0,1.2h0c.5-.2.3-.9.1-1.2h-.1Z"/>
    <path class="st8" d="M200.7,43.3c-.7.2-.3,1.5.3,1.4s.3-1.5-.3-1.4Z"/>
    <path class="st8" d="M203.6,42.9h0c.1.4.3.9.7.9h0c-.5,0-.7-.5-.8-1h.1Z"/>
    <path class="st8" d="M203.8,42.4c.7-.2,1.1,1.1.5,1.3s-1-1.1-.5-1.3Z"/>
    <path class="st8" d="M200,42.8c.2,0,.3-.2.5-.3s.3-.2.4-.4c0,0,0-.3-.1-.3-.3,0-.5,0-.7,0s-.4.4-.5.6c0,.2,0,.3.2.4h.2Z"/>
    <path class="st8" d="M204.1,41.6h-.6c-.2,0-.4,0-.6,0-.1,0-.1-.2,0-.4s.4-.4.7-.3c.3,0,.5,0,.8.2.1,0,.2.3,0,.5,0,0-.1,0-.2,0h0Z"/>
    <path class="st8" d="M201.7,47.6c.1,0,.3.2.4.2.2,0,.3,0,.4-.2h0c0,.2-.3.3-.5.4-.2,0-.4,0-.4-.3h.1Z"/>
    <path class="st8" d="M201.7,46.2c.3.3.7.4,1.1.4s.4,0,.5,0h0v-.2h0c0-.4-.3-.9-.3-.9.1,0,.8,0,.8,0-.4-1.5-1-2.9-1.8-4.2h0c.4,1.4,1,2.6,1.5,4h-.7s.3.9.4,1.1h0c-.5.2-1.1.2-1.6,0h.1Z"/>
    <path class="st8" d="M203.2,46.4c-.1.3-.3.5-.5.7-.1,0-.3.2-.5.2-.4,0-.5-.3-.5-.6v-.5c.4.2.9.3,1.4.2h.1Z"/>
    <path class="st4" d="M202.6,47.1c-.1,0-.3.2-.5.2-.4,0-.5-.3-.5-.6.4,0,.8,0,.9.4h.1Z"/>
    <path class="st2" d="M195,45.2c.4-.3.8-2,1.1-2.7s-.5-3.5-.8-4.4c0,0-.1.2-.2.3,0,0-.1.2-.2.3-.1.2-.2.4-.3.6-.2.4-.3.7-.4,1.1-.2,1,.2,2.9.7,4.8h0Z"/>
    <path class="st8" d="M201.4,38.9c-.3.7-1,1.2-1.8,1.3s-1.6-.2-2.1-.8h0c.5.7,1.3,1.1,2.2,1,.8,0,1.5-.7,1.8-1.5h0Z"/>
    <path class="st8" d="M197.5,34.2c-1.2.4-2.1,1.3-2.4,2.5-.1.6,0,1.2.2,1.7h0c-.4-1-.2-2.1.5-2.8.7-.9,1.8-1.3,3-1.3s1.1.2,1.5.6c0,0,.1,0,0,0-.6-.7-1.8-.9-2.9-.5v-.2Z"/>
    <path class="st8" d="M205.8,34.7c-.4-.6-1-1-1.6-1.1-.9-.2-1.8,0-2.6.4h0c.7-.4,1.5-.5,2.3-.4.7,0,1.3.5,1.7,1,.9,1.1.8,2.6-.1,3.7-.5.6-1.3.9-2.1.9h0c1.6,0,2.9-1.1,3-2.7,0-.6-.1-1.2-.5-1.8h0Z"/>
    <path class="st8" d="M194.2,41.9s-1.9-1.9-1.3-3.5c.4-.9,2.3-1.4,2.3-1.4.3-.9.9-1.7,1.8-2.1,1.5-.8,3.6-.5,3.6-.5,0,0,1.3-1.3,2.9-.9,2.3.5,3,3.6,1.2,5.2-1.2,1.1-3.5.4-3.5.4-.2,0-1.7,1.8-3.6.5,0,0-.8,1.4-2.1.9-.1.7-.7,1.2-1.4,1.4h.1Z"/>
    <path class="st14" d="M196.3,45.4s-1.8-1.8-2.6-1.2.7,3.5,1.8,3.7c.6.2,1.2-.2,1.4-.8h0l-.6-1.7h0Z"/>
    <path class="st8" d="M194.1,45h0c.8.2,1.3.9,1.7,1.6-.2-.3-.6-.3-.9,0h0c.3,0,.6,0,.8,0,.2.2.3.4.5.6,0,0,.2,0,.1,0h0c-.1-1-1.1-2.3-2.2-2.2h0Z"/>
    <g id="freepik--9kwdk1--inject-3834">
      <path class="st3" d="M231.4,74.5c0,8.5-6.9,15.3-15.4,15.3s-15.3-6.9-15.3-15.4,6.9-15.3,15.4-15.3,15.4,6.9,15.3,15.4h0Z"/>
      <g class="st1">
        <path d="M230.2,73.1c-.7-7.9-7.7-13.6-15.6-12.9-2,.2-4,.8-5.7,1.8-.2,0-.3.2-.5.3-1,.7-2,1.4-2.8,2.3-.3.4-.7.8-1,1.2-.8,1.1-1.4,2.2-1.9,3.4-.1.3-.2.5-.3.8-1,3.1-.9,6.4.3,9.4.1.3.2.5.3.8h0c.4.9.9,1.7,1.4,2.4.3.4.6.8.9,1.2.8.9,1.7,1.7,2.7,2.3.5.4,1.1.7,1.6,1,2,1,4.1,1.5,6.3,1.5h.8c2.4,0,4.7-.9,6.7-2.1.3-.2.6-.4.9-.6s.6-.4.8-.7l.2-.2.2-.2c.2-.2.4-.3.5-.5.9-1,1.8-2.1,2.4-3.2,0,0,.1-.3.2-.4.2-.4.4-.8.5-1.2.3-.7.5-1.3.6-2,0-.2,0-.3.1-.5.2-.9.2-1.7.2-2.6v-1.4h.2ZM223.6,64.1c.5.4,1,.8,1.4,1.2h0c2,2,3.2,4.6,3.6,7.3v.2c0,.6.1,1.1,0,1.7,0,.8-.1,1.5-.3,2.2,0,.2,0,.3-.1.5-.3,1.1-.7,2.2-1.2,3.1,0,0,0,.2-.2.3-.5.8-1,1.6-1.7,2.3l-.7.7c-.6.6-1.3,1.1-2,1.5,0,0-.2,0-.3.2-.2,0-.4.2-.7.4h-.2c-.6.4-1.1.6-1.7.8h0c-1.3.4-2.7.6-4.1.5h-1.7c-2.2-.4-4.2-1.3-5.9-2.7-.2-.2-.4-.3-.6-.5,0,0-.2,0-.2-.2-.5-.5-1-1-1.4-1.6-.3-.3-.5-.7-.7-1.1h0v-.2c-.2-.2-.3-.3-.4-.5h0c-.2-.3-.3-.7-.5-1.1-.7-1.6-1-3.4-.9-5.1,0-.7,0-1.4.2-2,0-.3.1-.6.2-1,.3-1.2.8-2.3,1.4-3.4.4-.6.8-1.2,1.3-1.8.9-1,1.8-1.8,3-2.5.2,0,.4-.2.5-.3,4.3-2.3,9.6-2,13.6.9h.1l.2.2Z"/>
        <path d="M222.1,76.2c-.3-.8-.9-1.5-1.7-1.8-.2,0-.4-.2-.7-.3.2,0,.3-.2.5-.2.6-.3,1.1-.9,1.2-1.6,0-.3,0-.6.1-.8v-.7c0-.3,0-.5-.2-.7-.3-.9-1-1.6-1.9-1.8-.6-.2-1.2-.3-1.8-.3s-.3,0-.3-.3v-2.1h-1.5v2.4h-1.1v-2.4h-1.5v2.4h-3.6v2.5h1.1v8.5h-1.1v2.5h3.6v2.2h1.5v-2.2h1v.2h0v2h1.3c.1,0,.2,0,.2,0h0v-1.7q0-.3.3-.3h.1c.9,0,1.8-.2,2.6-.5.6-.3,1.2-.8,1.5-1.4,0,0,0-.2.1-.3.2-.6.3-1.2.2-1.8,0-.4,0-.7-.2-1l.3-.4ZM215,78.8c-.1,0-.2,0-.2-.2h0v-2.9q0-.2.2-.2h1.2c.3,0,.7,0,1,.2h.1c.5.5.7,1.1.5,1.7,0,.8-.8,1.4-1.6,1.4h-1.3.1ZM214.8,70.5q0-.2.2-.2h1c.3,0,.5,0,.7.2,0,0,.1,0,.2,0h0c0,0,.1.2.2.3.1.2.2.4.2.6v.9c0,.5-.5.8-.9.8h-1.3c-.1,0-.2,0-.2-.2v-2.5h0Z"/>
      </g>
      <path class="st11" d="M225.1,65.4c1.2,1.2,2.2,2.6,2.9,4.1.7,1.6,1,3.2,1,4.9s-.3,3.4-1,5c-1.3,3.2-3.8,5.7-7,7-1.6.7-3.3,1-5,1s-3.4-.4-4.9-1c-1.5-.7-2.9-1.7-4.1-2.9,3.7,3.6,9.1,4.6,13.9,2.6,3.1-1.3,5.5-3.8,6.8-6.8,2-4.7,1-10.2-2.6-13.9h0Z"/>
      <path class="st0" d="M206.8,83.4c-1.2-1.2-2.2-2.6-2.9-4.1-.7-1.6-1-3.2-1-4.9s.3-3.4,1-5c1.3-3.2,3.9-5.7,7.1-7,1.6-.6,3.3-1,5-.9,1.7,0,3.4.4,4.9,1.1,1.5.7,2.9,1.7,4.1,2.9-3.7-3.6-9.1-4.6-13.9-2.7-3.1,1.3-5.5,3.7-6.9,6.8-2,4.7-1,10.2,2.6,13.9h0Z"/>
      <path class="st11" d="M209.8,70.3v-2.4h3.6v-2.3,2.4h-3.6v2.3Z"/>
      <path class="st11" d="M209.8,81.2v-2.4h1.1v-8.3,8.4h-1.1v2.4h0Z"/>
      <path class="st11" d="M215.1,78.8h1.4c.4,0,.9-.3,1.1-.7.2-.4.3-.8.3-1.3s0-.4-.2-.6c-.1-.2-.3-.4-.4-.5.4.2.7.7.8,1.1.1.5,0,1-.3,1.4s-.8.7-1.3.7h-1.4Z"/>
      <path class="st11" d="M215.1,73.2h1.2c.4,0,.7-.3.8-.6.2-.3.2-.7.2-1.1s-.2-.7-.5-1c.3.2.6.6.6,1,.1.4,0,.8-.1,1.2-.2.4-.6.6-1,.7h-1.2v-.2Z"/>
      <path class="st11" d="M213.4,81.2c.1.7.1,1.5,0,2.2-.1-.7-.1-1.5,0-2.2Z"/>
      <path class="st11" d="M215.9,81.3c.1.7.1,1.4,0,2.2,0-.4-.1-.7-.1-1.1s0-.7.1-1.1Z"/>
    </g>
    <path class="st14" d="M231.7,69.2c1.2,1.8,3.8,3.9,4.2,5.4.2.8,0,1.6-.8,2,0,0,1.7.6,1.8,2,0,.8-1.1,1.5-1.1,1.5,0,0,1.3.5,1.4,1.8,0,1-1.1,1.7-1.1,1.7,0,0,1,1.1.7,2.2-.6,2.2-9.5,3.3-11.3.2-.8-1.4,1.3-1.6,1.3-1.6,0,0-3.2-.5-3.5-2.3s2.6-1.9,2.6-1.9c0,0-3.1-.5-3.2-2.5-.1-2,2.7-1.6,2.7-1.6,0,0-2.1-1.1-1.9-2.6.4-2.5,5.3,0,7.2-.8l-.2-3.2,1.2-.6v.3Z"/>
    <path class="st14" d="M233.7,71.8c-1-1.8.3-2.8,0-4.7-.5-2.1-3-1.2-3.1,2.6l.3,3.3,2.9-1.2h0Z"/>
    <path class="st8" d="M235.9,83.9h0c-2.9,1.1-6.1,1.4-9.2.6v-.2c3.1.3,6.2,0,9.2-.5h0Z"/>
    <path class="st8" d="M235.9,80.3h0c-2.9,1.1-6.8,1.4-10.1,0-.1,0-.2-.2,0-.2,2.3.7,7.3.6,10.1,0v.2Z"/>
    <path class="st8" d="M225.2,76.2c3.2,1.1,6.4,1.1,9.8.6h0c-1.6.7-3.7.8-5.4.7-1.6,0-3.1-.5-4.4-1.3,0,0,0-.2,0,0h0Z"/>
    <path class="st14" d="M189.6,56.1c-5.2,6.3-13.9,23.1-11.7,25.6,5.1,5.7,14.4,10.9,18.1,12.3,1.6.6,8.3-11,6.8-12-1.8-1.3-13.4-6.8-13.4-7.4s2.8-8.7,3.9-15.1c1.5-8-1.6-6.1-3.8-3.4h0Z"/>
    <path class="st14" d="M196.9,80.7s5.1-1.1,8.5-1.7c1.9-.3,5.2-.6,6.7-.2,2.2.6,11.2,4.5,10.3,6.7-.8,2-8.1-2.3-8.1-2.3,0,0,7.7,3.7,6.3,5.9s-9-3.8-9-3.8c0,0,7.9,4,6,6-1.4,1.5-8.5-3.5-8.5-3.5,0,0,6.7,3.5,5.4,5.1-1.5,1.8-8.4-2.4-8.4-2.4-4.1,3.6-7.5,3.9-10,3.4-.6,0,.9-13.3.9-13.3h0Z"/>
    <path class="st8" d="M212.1,81.8c5.9,2.3,8.1,5.2,8,5.2-1.7-1.6-4.9-3.3-5.8-3.8s-1.4-.8-2.3-1.3h.1Z"/>
    <path class="st8" d="M209.9,84.8c2.4.8,4.7,2.1,6.7,3.7h0c-1.1-.6-5.5-3.1-6.6-3.7h0Z"/>
    <path class="st8" d="M207.9,87.3c1.9.7,3.6,1.7,5.1,3h0c-1.7-1-3-1.9-5-3h-.1Z"/>
    <path class="st13" d="M199.5,79.6l-7.9,13.2s-14.2-9.2-14.4-12.5c-.3-4.7,9.6-21.4,12.5-24.6,2.8-3.2,4.8-2.8,4.2,1.8-.6,4.1-3.8,16.6-3.8,16.8s9.4,5.3,9.4,5.3Z"/>
    <path class="st8" d="M189.4,90.3c1.2-1.9,5.9-9.9,6.8-11.7,0,0,0-.2,0,0-3.8,5.6-5.7,9.8-6.8,11.7h0Z"/>
    <path class="st8" d="M193.2,60.9h.1c0,.6-.3,1.4-.5,2.4v-.2c.2-.4.3-.8.4-1.2h0c-.1.4-.3.8-.4,1.3,0,.3-.2.6-.3.8-.9,4.1-2.3,9.9-2.3,10.1s7.6,4.4,9.2,5.3c0,0-.2.4-.3.5h0c0,0,0-.2.1-.3-1.5-.7-9.2-5-9.4-5.3s2.7-11.6,3.2-13.4h.2Z"/>
    <path class="st8" d="M180.9,84.9c.5.3,4.7,3.7,5.2,4.1h0c-1.8-.9-4.7-3.4-5.1-4.1h0Z"/>
  </g>
  <g>
    <polygon class="st8" points="402.8 184.8 402.7 183.7 403.8 183.7 403.9 184.8 402.8 184.8"/>
    <path class="st8" d="M406.2,184.6v-1.1c.7,0,1.4-.1,2.1-.2v1.1c-.6,0-1.3.2-2.1.2ZM410.7,184.1v-1.1c-.1,0,2.1-.3,2.1-.3l.2,1.1-2.3.3h0ZM415.2,183.3l-.2-1.1,2.2-.4.2,1.1c-.8.2-1.5.3-2.3.4h0ZM419.6,182.4l-.3-1.1,2.2-.5.3,1.1c-.7.2-1.5.4-2.2.5h0ZM424.1,181.3l-.3-1.1c.7-.2,1.4-.4,2.2-.7l.3,1.1c-.7.2-1.5.4-2.2.7h0ZM428.4,179.9l-.4-1,2.1-.8.4,1-2.1.8ZM432.6,178.2l-.4-1,2.1-.9.5,1-2.1.9h-.1ZM436.8,176.4l-.5-1c.7-.3,1.4-.7,2-1l.5,1c-.7.3-1.3.6-2,1h0ZM440.8,174.2l-.6-1c.7-.4,1.3-.8,1.9-1.1l.6,1c-.6.3-1.3.7-2,1.1h.1ZM444.7,171.8l-.6-.9c.6-.4,1.3-.8,1.9-1.3l.6.9c-.6.4-1.3.8-1.9,1.2h0ZM448.4,169.2l-.7-.9c.6-.5,1.2-.9,1.8-1.4l.7.9c-.6.4-1.2.9-1.8,1.4h0ZM452,166.3l-.7-.8c.6-.5,1.1-1,1.7-1.5l.8.8c-.6.5-1.1,1-1.7,1.5h0ZM455.3,163.3l-.8-.8,1.6-1.6.8.8-1.6,1.6h0ZM458.4,159.9l-.8-.7c.5-.6,1-1.1,1.5-1.7l.9.7c-.4.5-.9,1.1-1.5,1.7h-.1ZM461.3,156.4l-.9-.7c.5-.6.9-1.2,1.3-1.8l.9.6c-.4.5-.8,1.1-1.3,1.8h0Z"/>
    <path class="st8" d="M463.9,152.6l-.9-.6.6-.9,1,.6c-.2.3-.4.6-.6,1h-.1Z"/>
    <polygon class="st8" points="463.4 158.7 462.3 158.4 463.8 151.3 458.1 155.8 457.4 155 465.5 148.6 463.4 158.7"/>
    <path class="st8" d="M247.7,129c-.3-.7-.4-1.1-.4-1.1l1-.4s.1.4.4,1l-1,.5Z"/>
    <path class="st8" d="M288.4,166.7l-2-.9.5-1,1.9.9-.5,1h.1ZM284.5,164.8c-.7-.3-1.3-.7-1.9-1l.5-1,1.9,1-.5,1ZM280.7,162.8c-.6-.4-1.3-.7-1.9-1.1l.6-.9c.6.4,1.2.7,1.9,1.1l-.5.9h-.1ZM276.9,160.6c-.6-.4-1.2-.8-1.8-1.2l.6-.9,1.8,1.1-.6,1h0ZM273.3,158.2c-.6-.4-1.2-.8-1.8-1.3l.7-.9c.6.4,1.1.8,1.7,1.3l-.6.9h0ZM269.8,155.6l-1.7-1.4.7-.9c.5.4,1.1.9,1.7,1.3l-.7.9h0ZM266.5,152.9c-.6-.5-1.1-1-1.6-1.4l.7-.8c.5.5,1.1,1,1.6,1.4l-.7.8ZM263.3,150c-.5-.5-1.1-1-1.6-1.5l.8-.8,1.5,1.5-.8.8h.1ZM260.2,146.9c-.5-.5-1-1.1-1.5-1.6l.8-.7c.5.5,1,1.1,1.5,1.6l-.8.8h0ZM257.3,143.7c-.5-.6-.9-1.1-1.4-1.7l.9-.7c.4.5.9,1.1,1.4,1.7l-.8.7h-.1ZM254.6,140.3c-.4-.6-.9-1.2-1.3-1.8l.9-.6c.4.6.8,1.1,1.3,1.7l-.9.7h0ZM252.1,136.7c-.4-.6-.8-1.3-1.2-1.8l.9-.6c.4.6.7,1.2,1.1,1.8l-.9.6h0ZM249.7,132.9c-.4-.7-.8-1.3-1-1.9l1-.5c.3.6.6,1.2,1,1.9l-1,.5Z"/>
    <polygon class="st8" points="291.4 168.1 290.4 167.6 290.8 166.6 291.8 167.1 291.4 168.1"/>
    <polygon class="st8" points="284.2 168.1 284.3 167 291.5 167.5 286.3 162.4 287 161.6 294.5 168.8 284.2 168.1"/>
    <g id="freepik--9kwdk1--inject-3835">
      <path class="st3" d="M405.2,169.6c-6.9,21.2-29.7,32.8-50.8,25.9-21.2-6.9-32.8-29.7-25.9-50.8,6.9-21.1,29.6-32.7,50.7-25.9,21.2,6.8,32.8,29.6,26,50.8h0Z"/>
      <path class="st0" d="M405.2,169.6c-6.9,21.2-29.7,32.8-50.8,25.9-21.2-6.9-32.8-29.7-25.9-50.8,6.9-21.1,29.6-32.7,50.7-25.9,21.2,6.8,32.8,29.6,26,50.8h0Z"/>
      <g class="st1">
        <path d="M355.4,192.8c-19.7-6.3-30.5-27.4-24.2-47.1s27.4-30.5,47.1-24.2,30.5,27.4,24.2,47.1h0c-6.4,19.7-27.4,30.5-47.1,24.2h0ZM398.7,168.1c6.1-17.5-3.2-36.7-20.8-42.8-17.5-6.1-36.7,3.2-42.8,20.8-6,17.4,3.1,36.5,20.5,42.7,17.5,6.2,36.8-2.9,43-20.4v-.2h0Z"/>
        <path d="M374,134.6l3.7,1.2-.3,1.1c-.5,1.4-.9,2.9-1.4,4.3-.2.5,0,.7.5,1,1.5.7,2.9,1.4,4.2,2.3,3.3,2.4,4.2,5.8,2.7,9.7-.3.7-.6,1.4-1,2-.9,1.6-2.5,2.7-4.4,2.9l-1.4.2c.5.5,1,.8,1.4,1.2,2.4,2.2,3.3,5.6,2.2,8.6-.4,1.5-1.1,3-2,4.2-1.3,1.7-3.2,2.7-5.3,2.9-2.4.2-4.9,0-7.2-.8-.6-.2-.8,0-1,.5-.4,1.4-.9,2.8-1.4,4.2-.1.3-.3.5-.6.4l-3.1-1c.2-.5.3-.9.4-1.3.4-1.2.8-2.4,1.1-3.6.1-.4,0-.6-.4-.8-.7-.2-1.4-.4-2.1-.7-.6,1.9-1.1,3.6-1.7,5.4l-3.7-1.2c.6-1.8,1.1-3.6,1.7-5.4l-9.1-2.9c.7-2.1,1.3-4.1,2-6.2l2.7.9,6.9-21.2-2.7-.9c.7-2.1,1.3-4.1,2-6.2l9.1,2.9,1.9-6,3.6,1.2c-.6,2-1.3,3.9-1.9,5.9l2.7.9c.7-2,1.3-3.9,1.9-5.9v.2ZM365.5,159.4c-.6-.2-1.2-.4-1.8-.6-.4-.1-.6,0-.7.4-.8,2.5-1.6,4.9-2.4,7.3-.2.5,0,.7.4.8,1.1.3,2.1.7,3.2,1,2,.7,4.2-.2,5.1-2.1,1.3-2,.7-4.6-1.3-5.8-.4-.3-.8-.4-1.3-.5l-1.2-.4h0ZM366,149.6c-.3,1-.7,2.1-1,3.1-.1.3,0,.6.3.7,1.1.3,2.2.7,3.3,1,1.2.3,2.4-.2,2.9-1.3.4-.7.7-1.4.9-2.2.5-1.7-.5-3.5-2.3-3.9h0c-.8-.3-1.7-.5-2.5-.8-.4-.1-.6,0-.7.4-.3,1-.6,2.1-1,3.1h.1Z"/>
      </g>
      <path class="st11" d="M396.8,141.8c2.1,3.9,3.4,8.2,3.9,12.6.4,4.4,0,8.9-1.4,13.2-1.3,4.3-3.5,8.2-6.4,11.7-5.8,6.9-14.2,11.2-23.3,11.9-4.5.4-8.9-.2-13.2-1.6-4.2-1.4-8.1-3.7-11.5-6.6-3.3-2.9-6-6.5-8-10.5,6.4,11.9,19.2,18.9,32.6,17.7,8.7-.8,16.8-4.9,22.6-11.6,8.7-10.3,10.6-24.7,4.6-36.8h0Z"/>
      <path class="st0" d="M336.8,172.3c-2.1-3.9-3.4-8.2-3.8-12.6-.4-4.4,0-8.9,1.4-13.2,1.3-4.3,3.5-8.2,6.4-11.6,5.8-6.9,14.2-11.2,23.3-11.8,4.5-.3,9,.2,13.2,1.6s8.1,3.7,11.5,6.7c3.3,2.9,6,6.5,7.9,10.5-6.3-11.9-19.1-18.9-32.6-17.9-8.7.8-16.8,4.9-22.6,11.5-8.8,10.2-10.6,24.7-4.8,36.8h.1Z"/>
      <path class="st11" d="M354.6,141.8c.1-.5.3-1,.4-1.6s.3-1,.4-1.6l.9-3.1v-.2h.3c3,.9,6.1,1.9,9.1,2.9h-.3c0,.1,1-2.8,1-2.8l.5-1.5c.2-.5.4-1,.6-1.5-.1.5-.3,1-.4,1.5l-.4,1.5-.9,3v.2h-.2c-3-1-6.1-2-9.1-3l.3-.2-1.1,3c-.2.5-.4,1-.6,1.5s-.4,1-.6,1.5v.4Z"/>
      <path class="st11" d="M345.8,169.2c.3-1,.6-2.1.9-3.1s.6-2.1.9-3.1v-.2h.2l2.7.8h-.3c0,.1,1.7-5.2,1.7-5.2.6-1.8,1.1-3.5,1.7-5.3s1.2-3.5,1.8-5.3,1.2-3.5,1.9-5.2c-.5,1.8-1,3.6-1.6,5.3s-1.1,3.5-1.6,5.3-1.1,3.5-1.7,5.3l-1.7,5.3v.2h-.3l-2.7-.9h.2c-.4.9-.7,1.9-1.1,2.9s-.7,2-1.1,3v.2Z"/>
      <path class="st11" d="M361,167.3c.6.1,1.2.3,1.8.4l1.8.5c1.1.3,2.3,0,3.3-.7,1.4-1.1,2-3,1.7-4.7-.1-.6-.4-1.2-.7-1.7.9.9,1.3,2.2,1.1,3.5-.1,1.3-.8,2.5-1.8,3.3-1.1.8-2.4,1.1-3.7.7-1.2-.4-2.3-.8-3.4-1.3h0Z"/>
      <path class="st11" d="M365.5,153.4c1,.2,2,.5,2.9.7.9.1,1.9-.2,2.6-.8.7-.7,1.1-1.6,1.2-2.5.2-1,0-2-.4-2.9.6.9.9,1.9.8,2.9,0,1.1-.5,2.1-1.3,2.9-.8.8-1.9,1.1-3,.9-1-.3-1.9-.7-2.8-1.1h0Z"/>
      <path class="st11" d="M355,172.1c-.2,1.9-.8,3.7-1.7,5.4.1-1,.3-1.9.6-2.8.3-.9.7-1.8,1.1-2.6h0Z"/>
      <path class="st11" d="M361.1,174.1c-.2,1.9-.8,3.7-1.7,5.4.1-.9.3-1.9.6-2.8.3-.9.7-1.8,1.1-2.6h0Z"/>
    </g>
    <g id="freepik--9kwdk1--inject-3836">
      <path class="st3" d="M383.7,165.7c3.5,22-11.4,42.7-33.4,46.2s-42.7-11.4-46.2-33.4c-3.5-21.9,11.4-42.6,33.3-46.2,22-3.6,42.7,11.3,46.3,33.3h0q0,.1,0,0Z"/>
      <g class="st1">
        <path d="M349.9,209c-20.4,3.4-39.7-10.5-43-30.9-3.4-20.4,10.5-39.7,30.9-43,20.4-3.4,39.7,10.5,43,30.9h0c3.3,20.5-10.5,39.7-30.9,43ZM377.1,167.3c-2.6-18.4-19.6-31.2-38-28.5-18.4,2.6-31.2,19.6-28.5,38,2.6,18.3,19.4,31,37.7,28.6,18.4-2.5,31.3-19.4,28.9-37.8v-.2h-.1Z"/>
        <path d="M339.9,148.8l3.8-.6.2,1.1c.2,1.5.5,3,.7,4.4,0,.6.3.6.9.6,1.6,0,3.2,0,4.8.1,4.1.6,6.4,3.2,6.8,7.4,0,.7.1,1.5,0,2.2,0,1.9-1,3.6-2.6,4.6-.4.3-.7.5-1.2.9.7.2,1.3.3,1.9.4,3.1.8,5.5,3.4,5.9,6.7.4,1.5.4,3.1.1,4.7-.4,2.1-1.6,3.9-3.4,5-2.1,1.3-4.4,2.2-6.8,2.6-.6.1-.8.3-.6.9.3,1.5.5,2.9.7,4.4,0,.4,0,.6-.4.6l-3.3.5c0-.5-.2-.9-.2-1.4-.2-1.2-.4-2.5-.6-3.7,0-.4-.2-.6-.7-.5-.7.1-1.4.2-2.2.4.3,1.9.6,3.7.9,5.6l-3.8.6c-.3-1.9-.6-3.7-.9-5.6l-9.4,1.6c-.4-2.2-.7-4.2-1.1-6.4l2.8-.5-3.6-21.9-2.8.5c-.3-2.1-.7-4.2-1-6.4l9.4-1.5c-.3-2.1-.7-4.1-1-6.2l3.8-.6,1,6.1,2.8-.5c-.4-2-.7-4-1.1-6.1h.2ZM343.6,174.7c-.6,0-1.3.2-1.9.3-.4,0-.5.2-.5.6.4,2.5.9,5.1,1.3,7.6,0,.5.3.6.7.5,1.1-.2,2.2-.4,3.3-.6,2.1-.3,3.6-2.1,3.5-4.2.2-2.3-1.5-4.4-3.8-4.6h-1.4l-1.3.2v.2ZM339.6,165.8c.2,1.1.4,2.2.5,3.2,0,.4.2.5.6.4,1.1-.2,2.3-.4,3.4-.6,1.2-.2,2-1.3,2-2.5s0-1.6-.2-2.4c-.4-1.7-2.1-2.8-3.8-2.5h0c-.9.1-1.7.3-2.6.4-.4,0-.5.2-.5.6.2,1,.4,2.1.5,3.2h0v.2Z"/>
      </g>
      <path class="st11" d="M363.4,144.8c3.7,2.5,6.8,5.7,9.2,9.4,2.4,3.8,4,8,4.8,12.4s.6,8.9-.4,13.3c-2,8.8-7.5,16.5-15.2,21.2-3.8,2.4-8,3.9-12.5,4.6-4.4.7-8.9.5-13.2-.6-4.3-1.1-8.3-3-11.9-5.7,11.1,7.7,25.6,8,37.1.9,7.4-4.7,12.8-12.1,14.8-20.6,3.1-13.1-1.9-26.8-12.7-34.9h0Z"/>
      <path class="st0" d="M324,199.3c-3.7-2.5-6.8-5.7-9.2-9.5-2.4-3.8-4-8-4.8-12.4s-.6-8.9.4-13.3c2-8.8,7.6-16.5,15.3-21.2,3.8-2.3,8.1-3.9,12.5-4.6,8.9-1.4,17.9.9,25.1,6.4-11.1-7.7-25.6-8.1-37.1-1-7.4,4.7-12.8,12-14.9,20.6-3.2,13.1,1.8,26.8,12.6,34.9h.1Z"/>
      <path class="st11" d="M326,164.1c-.1-.5-.2-1.1-.3-1.6s-.2-1.1-.3-1.6l-.6-3.2v-.2h.2c3.1-.6,6.3-1.1,9.4-1.5l-.2.3-.4-3.1-.2-1.6c0-.5-.1-1-.2-1.6l.3,1.6.3,1.5.6,3.1v.2h-.2c-3.1.6-6.3,1.1-9.4,1.6l.2-.3.4,3.2c0,.5.1,1.1.2,1.6s.1,1.1.2,1.6Z"/>
      <path class="st11" d="M330.7,192.4c-.2-1.1-.4-2.1-.6-3.2s-.4-2.1-.6-3.2v-.2h.2l2.8-.5-.2.3-.9-5.5c-.3-1.8-.6-3.7-.9-5.5s-.6-3.7-.8-5.5-.5-3.7-.7-5.5c.4,1.8.7,3.6,1.1,5.5s.7,3.6,1,5.5.6,3.6.9,5.5l.9,5.5v.2h-.2l-2.8.4v-.2c.3,1.1.5,2.1.6,3.2s.2,2.2.4,3.3h-.2Z"/>
      <path class="st11" d="M343.3,183.7c.6-.2,1.2-.3,1.8-.4l1.8-.4c1.1-.3,2.1-1.1,2.6-2.1.5-1.1.5-2.3.2-3.4-.2-.6-.4-1.1-.8-1.6s-.8-.9-1.4-1.2c1.2.4,2.2,1.4,2.6,2.6.5,1.2.5,2.6,0,3.8-.6,1.2-1.7,2.1-3,2.3-1.2.2-2.4.3-3.7.4h-.1Z"/>
      <path class="st11" d="M340.9,169.5c1-.3,2-.5,2.9-.7.9-.3,1.6-1,1.9-1.9s.3-1.9,0-2.8c-.3-.9-.9-1.8-1.7-2.4.9.5,1.7,1.3,2.1,2.2.4,1,.5,2.1.2,3.1-.4,1.1-1.2,1.9-2.3,2.2-1.1.2-2,.2-3,.3h-.1Z"/>
      <path class="st11" d="M340,190.8c.3.9.6,1.8.7,2.8.2.9.2,1.9.2,2.8-.3-.9-.6-1.8-.7-2.8-.2-.9-.2-1.9-.2-2.9h0Z"/>
      <path class="st11" d="M346.5,189.9c.6,1.8,1,3.7.9,5.5-.7-1.8-1-3.7-.9-5.5Z"/>
    </g>
  </g>
</svg>