<?xml version="1.0" encoding="UTF-8"?>
<svg id="Layer_1" xmlns="http://www.w3.org/2000/svg" version="1.1" viewBox="0 0 25 25">
  <!-- Generator: Adobe Illustrator 29.4.0, SVG Export Plug-In . SVG Version: 2.1.0 Build 152)  -->
  <defs>
    <style>
      .st0 {
        fill: #fff;
      }
    </style>
  </defs>
  <path class="st0" d="M18,25c-.1,0-.2,0-.3,0l-6.4-4.2h-5.8c-1.8,0-3.3-1.5-3.3-3.3V3.3c0-1.8,1.5-3.3,3.3-3.3h14c1.8,0,3.3,1.5,3.3,3.3v14c0,1.8-1.5,3.3-3.3,3.3h-2.5l1.5,3.6c0,.2,0,.5-.2.6,0,0-.2.1-.3.1ZM5.5,1.1c-1.3,0-2.3,1-2.3,2.3v14c0,1.3,1,2.3,2.3,2.3h6c.1,0,.2,0,.3,0l5.1,3.4-1.1-2.7c0-.2,0-.3,0-.5,0-.1.3-.2.4-.2h3.2c1.3,0,2.3-1,2.3-2.3V3.3c0-1.3-1-2.3-2.3-2.3H5.5Z"/>
  <path class="st0" d="M11.6,5.3c0-.2,0-.5.3-.6.2-.2.4-.3.7-.3s.5,0,.7.3c.2.2.3.4.3.6s0,.5-.3.6c-.2.2-.4.3-.7.3s-.5,0-.7-.3c-.2-.2-.3-.4-.3-.6ZM11.8,15.4v-7.8h1.5v7.8h-1.5Z"/>
</svg>