<?xml version="1.0" encoding="UTF-8"?>
<svg id="Layer_1" xmlns="http://www.w3.org/2000/svg" version="1.1" viewBox="0 0 100 100">
  <!-- Generator: Adobe Illustrator 29.2.1, SVG Export Plug-In . SVG Version: 2.1.0 Build 116)  -->
  <defs>
    <style>
      .st0 {
        fill: #3cc6f2;
      }
    </style>
  </defs>
  <path class="st0" d="M61.2,54.9c3.9,1.5,8.3,0,10.4-3.6s1.5-7-.8-9.7c-.2-.3-.6-.5-.8-.8-.3-.4-.3-1.6-.5-2.2s-.4-1.5-.6-2.2,0-.3,0-.3c3.3,1.5,5.9,4.4,6.7,8,2.2,9.2-6.6,17.1-15.5,13.9-2.1-.8-3.1-1.7-4.7-3.2-4.9-4.7-9.7-9.6-14.5-14.4-4.4-3.7-11.3-1.9-13.3,3.5-2.2,5.9,2.3,11.7,8.5,11.6.9,1,2,1.9,3.1,2.8-.8,0-1.5.4-2.3.5-8.4.9-15-6.9-12.7-15s6.1-8.5,11.3-8.5c3.4-8.1,9-15.1,14.9-21.5,0,0,.3.2.4.3,4.5,5,8.9,10.3,12.2,16.2,3.3,5.9,5.6,12.1,2.5,18.9s-2.5,4.1-4.3,5.8h0ZM61.9,35.5s-.2-.7-.3-.9c-1.8-4.2-5.3-9-8.2-12.6s-1.8-2.3-2.7-3.3,0-.2-.2-.1c-4.4,5.2-8.7,10.7-11.4,16.9,0,.3.9.4,1.2.6,1.2.5,2.3,1.3,3.4,2.1l14.7,14.6c3.9-2.7,5.9-7.7,5.2-12.3s-.3-1.6-.4-1.8c-.2-.3-1.4,0-1.6.2-1.2.4-2.3,1.1-3.2,2-1.3,1.2-2.5,2.7-3.9,3.9l-2.4-2.3c2.9-2.8,5.5-6.4,9.8-7Z"/>
  <path class="st0" d="M37.3,41.8c-.2,4.1,1.6,8.1,4.8,10.7l3.4-3.4,2.3,2.4c0,.2-2.3,2.2-2.6,2.6s0,0,0,.2c2.1.8,4.4,1.3,6.7,1l3,2.9c-.8.2-1.6.4-2.5.5-1.7.2-3.6,0-5.3-.3-7.7-1.7-13.3-8.8-13-16.7,1.1-.3,2.3-.3,3.3,0h-.1Z"/>
  <path d="M25.5,68.4c.2,0,.5.5.5.7v2.5c0,.2-.5.2-.4.5.1,0,.2,0,.3.2.2.3.2,2.3.1,2.7s-.3.7-.5.7h-8.2v-7.4h8.2ZM19.3,71.1h4.7c.2-.2.2-.9,0-1.1h-4.7v1.1ZM23.9,73h-4.6v1.2h4.6c.3,0,.3-.8.2-1h0c0,0-.2-.2-.2-.2Z"/>
  <polygon points="81.9 73 81.9 68.4 83.8 68.4 83.8 75.8 81.9 75.8 76.9 71.6 76.1 71 76.1 75.8 74.3 75.8 74.3 68.4 76.2 68.4 81.9 73"/>
  <path d="M46.4,73v-4.7h1.9v7.4h-1.9l-5.7-4.8v4.7h-1.9v-7.4h1.8c1.8,1.4,3.4,2.9,5.2,4.3s.4.3.6.4h0Z"/>
  <path d="M50.3,75.8v-7.4h7c0,0,.8.3,1,.4,2.1,1.1,2.2,5.2.2,6.5s-1,.5-1.1.5h-7.1ZM52.1,74.3h4.3c.3,0,.9-.4,1.1-.7.6-.8.6-2.3,0-3.1s-.9-.6-1.2-.6h-4.2s0,4.4,0,4.4Z"/>
  <path d="M15.5,75.8h-2.1l-.9-1.3h-4.5l-.7,1.3h-2.4l4.4-7.4c.4,0,1.8,0,2.1,0l4.1,7.3h0ZM9,72.9h2.7l-1.3-2.3c-.2,0-.2,0-.3.2-.4.7-.7,1.5-1.2,2.1h.1Z"/>
  <path d="M72.5,75.8h-2.1l-.9-1.3c-1.3,0-2.8,0-4.1,0s-.7.9-1.1,1.3h-2.4l4.3-7.2s0,0,.2,0h2s4.1,7.3,4.1,7.3ZM66.1,72.9h2.6l-1.3-2.3c-.2,0-.2,0-.3.2-.3.4-.6,1.1-.9,1.6s-.3.5-.2.6h.1Z"/>
  <path d="M30,74.2h4.7v-5.8h1.9v6.6c0,.4-.7.8-1.1.8-2.1.2-4.5,0-6.6,0-.2,0-.7-.5-.7-.7v-6.7h1.8v5.7h0Z"/>
  <path d="M95,69.9h-3.5v5.9h-2.1v-5.9h-3.4v-1.5h9v1.5Z"/>
  <path class="st0" d="M27.6,80.8h1.2l1.5,3.5.3.5,1.7-3.9c.2-.2.9,0,1.3,0v5.4h-1.1v-3.5l-1.4,3.4c-.1,0-.8,0-.9,0l-1.5-3.5v3.5h-1v-5.4h-.1Z"/>
  <path class="st0" d="M51.3,84.5v-3.7h1v5.4h-1.1c-.7-1.2-1.6-2.4-2.3-3.6s0-.2-.2,0v3.7h-1v-5.4h1.1l2.5,3.7Z"/>
  <path class="st0" d="M72.2,82.2h-1.1s0-.3-.3-.4c-.6-.5-1.7-.2-1.4.7s2.5.5,2.8,1.8c.5,2.5-3.8,2.7-3.9.4h1.1c.3,1.1,2.1,1,1.7-.3s-1.5-.7-1.9-.9c-1.3-.6-1-2.3.3-2.8s2.7,0,2.7,1.4h0Z"/>
  <polygon class="st0" points="62 80.8 62 81.6 60 81.6 60 83 61.8 83 61.8 83.9 60 83.9 60 85.4 62 85.4 62 86.2 58.9 86.2 58.9 80.8 62 80.8"/>
  <rect class="st0" x="40.1" y="80.8" width="1" height="5.4"/>
</svg>