<?xml version="1.0" encoding="UTF-8"?>
<svg id="Layer_1" xmlns="http://www.w3.org/2000/svg" version="1.1" viewBox="0 0 25 25">
 <defs>
   <style>
     :where(path, polygon, rect, circle, ellipse) { fill: #000; }
     @media (prefers-color-scheme: dark) {
       :where(path, polygon, rect, circle, ellipse) { fill: #fff; }
     }
   </style>
 </defs>
  <path d="M23.9,10.8h-4.9l-2-6.6c-.1-.5-.5-.8-1-.8s-.9.3-1,.8l-3.7,13-3.4-8c-.1-.4-.5-.7-1-.7s-.9.3-1,.6l-2,5H1.1c-.6,0-1.1.5-1.1,1.1s.5,1.1,1.1,1.1h3.5c.4,0,.9-.3,1-.6l1.2-3.2,3.5,8.3c.1.4.6.7,1,.7s.9-.3,1-.8l3.5-12.4,1.2,3.8c.1.5.5.8,1,.8h5.7c.6,0,1.1-.5,1.1-1.1s-.5-1.1-1.1-1.1Z"/>
</svg>