<?xml version="1.0" encoding="UTF-8"?>
<svg id="Layer_1" xmlns="http://www.w3.org/2000/svg" version="1.1" viewBox="0 0 100 100">
  <!-- Generator: Adobe Illustrator 29.2.1, SVG Export Plug-In . SVG Version: 2.1.0 Build 116)  -->
  <defs>
    <style>
      .st0 {
        fill: #147c80;
      }
    </style>
  </defs>
  <g>
    <path class="st0" d="M23.4,18.8l4.3,3.8c-17.6,21.3,1.5,52.5,28.6,46.8,21-4.4,29.5-30,16.4-46.8,0-.4,2.7-2.6,3.3-3s.4-.6,1.1-.2c1.8.9,5.4,8.6,6,10.8,9.6,30.6-23.4,57.1-51.1,40.7-18.2-10.8-22.8-36-8.7-52.1h0Z"/>
    <path class="st0" d="M47.2,12.4c-2.4-.3-4.6.7-6.8,1.2-.7-.5-2.2-5.4-1.8-5.7,4.3-.9,8.5-2.1,12.9-1.8,1.5,0,9.9,1.5,10.2,2.5l-1.8,5.2-6.8-1.4v45.8c5.2-.9,8.9-4.1,12-8.1l4.8,2.9c-8.8,14.6-30.9,15.1-39.5,0l5-3c.9,2.4,3.2,4.5,5.3,5.8s4.5,2.2,5.5,2.3,1-.3,1-.6c0,0,0-45.1,0-45.1Z"/>
  </g>
  <g>
    <path class="st0" d="M53.8,84.9l2.1,6.6,1.9-6.6c.3,0,1.3,0,1.5,0l2,6.5,1.9-6.6h1.4l-2.7,8.9h-1.5c-.7-2-1.1-4.3-1.8-6.3,0,0,0-.2-.2-.2l-1.8,6.6h-1.5l-2.7-8.9h1.4Z"/>
    <path class="st0" d="M11.3,93.9l3.5-8.9h1.5l3.6,8.9h-1.4c-.2-.3-.7-2.1-.9-2.2-1.2.2-2.6.3-3.8,0l-1,2.2h-1.5ZM17.1,90.4l-1.5-3.6-1.5,3.6c0,0,.8.2,1,.2.7,0,1.3,0,2-.2Z"/>
    <path class="st0" d="M36,84.9v3c1.2-1,3.6-.7,4.1.9s.2.8.2.9v4.1c-.3,0-1.3,0-1.4-.2,0-1.2,0-2.6,0-3.7,0-.3-.2-.8-.4-1-.5-.5-1.6-.4-2.1,0s-.4.7-.4.8v4c-.3,0-1.3,0-1.4-.2v-8.1l1.4-.7h0Z"/>
    <path class="st0" d="M68.4,90v-.2c0-1.1-.8-1.6-1.9-1.2s-.7.6-.7.6c-.3,0-.9-.3-1.3-.4.7-1.3,1.8-1.6,3.2-1.5.9,0,1.7.7,2,1.5.5,1.6,0,3.3,0,4.9h-1.2c0-.2,0-.4,0-.6-.9,1.3-3.9.9-4.1-.7s0-1.6.8-2.1.9-.4,1-.4h2.2ZM68.5,91.1h-2s-.5.3-.6.3c-.5.5,0,1.3.5,1.4,1.1.2,2.1-.6,2-1.7h0Z"/>
    <path class="st0" d="M84.5,84.9v3c1-.8,2.9-.8,3.7.2,0,0,.4.5.4.6v5.1h-1.2v-3.6s0-.5,0-.6c-.3-1.2-2-1.3-2.6-.4s-.3.6-.3.7v3.9h-1.3v-8.2l1.3-.7h0Z"/>
    <path class="st0" d="M44,87.4c4.9-.6,5.2,7.2,0,6.6-3.4-.4-3.6-6.1,0-6.6ZM44.3,88.6c-2.2.3-2.1,3.8,0,4.1,3,.4,2.8-4.5,0-4.1Z"/>
    <path class="st0" d="M20.8,87.5h1.3v.5c.7-.6,1.6-.8,2.4-.6,2.8.4,1.8,4.4,2,6.3,0,.3-1.2.2-1.4,0-.2-.3,0-3.4,0-4.1s-1.4-1.3-2.2-.8c-1.1.7-.4,3.7-.7,4.9,0,0-1.3.2-1.4,0,0,0,0-6.2,0-6.2Z"/>
    <path class="st0" d="M80.9,89.6c-1.2-2-3.7-.9-3.5,1.4s2.9,2.4,3.4.5c0,0,1,.4,1.1.5s.2,0,0,.2c0,.7-1.3,1.5-2,1.7-2.9.5-4.9-1.9-3.9-4.6.8-2,3.8-2.6,5.3-1.1,0,0,.6.7.6.8s0,.2,0,.2c-.2,0-.9.6-1.1.5h0Z"/>
    <path class="st0" d="M30.3,87.4c1.3-.2,2.7.4,3.3,1.6,0,.3-.9.5-1.1.8-1.2-2.3-4.2-.8-3.5,1.7.5,1.7,2.8,1.8,3.5.2l1.1.6c.2.3-.5,1-.7,1.2-1,.8-2.5.9-3.6.3-2.7-1.4-2.1-5.9,1.1-6.3h0Z"/>
    <path class="st0" d="M75.3,87.6v1.2h-2v3.7s0,.2.2,0l1.2-.4.5,1.2-1.8.6h-1.5v-5.2q-1.2,0-1.2-1.2h1.1v-1.4c0,0,1.4-.8,1.4-.8v2.1h0c0,0,1.9,0,1.9,0h.1Z"/>
    <path class="st0" d="M50.1,87.5c0,.2,0,.5,0,.7.5-.4,1.1-.6,1.8-.7l.4,1.2c0,.2-.7,0-.9.2-.4,0-1,.4-1.2.8s-.2.6-.2.7v3.5h-1.3v-6.3h1.3Z"/>
  </g>
</svg>