<?xml version="1.0" encoding="UTF-8"?>
<svg id="Layer_1" xmlns="http://www.w3.org/2000/svg" version="1.1" viewBox="0 0 100 100">
  <!-- Generator: Adobe Illustrator 29.7.1, SVG Export Plug-In . SVG Version: 2.1.1 Build 8)  -->
  <defs>
    <style>
      .st0 {
        fill: #25b135;
      }
    </style>
  </defs>
  <g id="bisq_logo_green">
    <g id="Group-3-Copy">
      <g id="Group-2">
        <rect id="Rectangle-path" class="st0" x="43.4" y="73.7" width="3" height="11.3"/>
        <path id="Shape" class="st0" d="M52.7,78.1l-1.1-.2c-.7-.1-1.1-.5-1.1-1s.6-.9,1.3-.9c.6,0,1.2.3,1.5.8l2.2-1.4c-.8-1.2-2.1-2-3.5-2-1,0-2,.3-2.8.8-.8.6-1.3,1.5-1.4,2.6,0,1.7,1.1,3,3.2,3.6.3,0,.7.2,1.1.3,1,.2,1.1.5,1.1.9,0,.6-.6,1-1.4,1-.9,0-1.8-.5-2.2-1.3l-1.8,1.6c.8,1.5,2.3,2.4,4,2.4,2.3,0,4.2-1.5,4.3-3.5,0-1.8-1.1-3-3.2-3.5Z"/>
        <path id="Shape1" data-name="Shape" class="st0" d="M36.7,73.5c-1.1,0-2.1.4-2.9,1v-4.9h-2.9v9c0,.3,0,.5,0,.8h0c0,1.7.6,3.2,1.7,4.3.9.9,2.1,1.5,3.4,1.6h.7c1.5,0,3-.6,4.1-1.7,1.1-1.1,1.7-2.7,1.7-4.3,0-1.6-.6-3.1-1.7-4.3-1.1-1-2.6-1.6-4.1-1.6ZM36.7,82.8c-.2,0-.3,0-.5,0h0c0,0-.1,0-.1,0-1.2-.2-2.1-1.2-2.2-2.4,0-.3,0-.6,0-.8,0-.8.3-1.7.8-2.3.6-.6,1.4-1,2.2-1,2.2,0,3,1.7,3,3.3s-.7,3.3-2.9,3.3h0Z"/>
        <path id="Shape2" data-name="Shape" class="st0" d="M68.1,79.2c0-1.5-.6-3-1.7-4.1-.9-.9-2.1-1.4-3.4-1.6h-.7c-1.5,0-3,.6-4.1,1.7-1.1,1.1-1.7,2.7-1.7,4.3,0,1.6.6,3.1,1.7,4.3,1.1,1.1,2.6,1.7,4.1,1.7,1.1,0,2.1-.4,2.9-1v4.9h2.9v-10ZM62.2,82.6c-2.2,0-3-1.7-3-3.3s.8-3.3,2.9-3.3c.2,0,.3,0,.5,0h0c0,0,.1,0,.1,0,1.4.3,2.4,1.6,2.3,3v.2c0,.8-.2,1.7-.8,2.3-.6.6-1.4,1-2.2,1Z"/>
      </g>
    </g>
  </g>
  <path id="Combined-Shape" class="st0" d="M70.1,23.7c1.9,4.2,2.3,5,3.8,9.3.8,2.7-.8,6.6-7.8,3.3-5-2.4-8.6-4.1-5.6-8,1.4-1.9,3.1-3.7,4.9-5.3,1.9-1.7,3.1-2.7,4.8.8ZM68.5,50.5c3.7-3.6,8.7.4,5.2,5.3-7.2,9.8-19.7,13.7-30.8,9.8-11.2-3.9-18.7-14.7-18.7-27,0-7.4,2.4-13.5,7.1-19.1,4.5-5,11.2-9.1,17.8-9.1,9.3,0,13.4,8.1,10.2,12.6-3.7,5-7.9,4.6-11.1,2.5,0,0-4.3-3.1-5.6-4.1-2-1.5-4.1-1.5-4.9.9-1.4,4.4-2.1,7.2-3.2,11.6-.5,2.2-.8,4.5-.8,6.8,0,4.2,1.9,8.2,5,10.8,2.2,2,4.5,3.9,7,5.5,2,1.4,4.3,2.1,6.7,2.2h.2c2.4,0,4.7-.8,6.7-2.2,3.2-1.9,6.3-4.1,9.3-6.5ZM42.4,45.4c-1.3-.5-4.3-3.1-3.4-5,.4-1.1,2.9-1.3,3.7-1.3,4.7,0,4.8,8.2-.3,6.4ZM50.6,54.2c-.6-.5-1.7-1.6-2.7-2.5-.3-.3-.3-.7-.1-1.1.2-.3.6-.6,1-.5,1.7,0,3.5,0,5.2,0,.4,0,.8.3.9.6.1.3,0,.7-.2,1-1,.9-2.1,2-2.6,2.5-.2.2-.5.3-.8.3-.3,0-.6,0-.8-.3ZM61,45.4c-5.1,1.8-4.9-6.5-.3-6.4.8,0,3.2.3,3.7,1.3.9,1.9-2.1,4.5-3.4,5Z"/>
</svg>