<?xml version="1.0" encoding="UTF-8"?>
<svg id="Layer_1" xmlns="http://www.w3.org/2000/svg" version="1.1" viewBox="0 0 100 100">
  <!-- Generator: Adobe Illustrator 29.7.1, SVG Export Plug-In . SVG Version: 2.1.1 Build 8)  -->
  <defs>
    <style>
      .st0 {
        fill: #25b135;
      }
    </style>
  </defs>
  <g id="bisq_logo_green">
    <g id="Group-3-Copy">
      <g id="Group-2">
        <rect id="Rectangle-path" class="st0" x="43.4" y="78.7" width="3" height="11.3"/>
        <path id="Shape" class="st0" d="M52.7,83.1l-1.1-.2c-.7-.1-1.1-.5-1.1-1s.6-.9,1.3-.9c.6,0,1.2.3,1.5.8l2.2-1.4c-.8-1.2-2.1-2-3.5-2-1,0-2,.3-2.8.8-.8.6-1.3,1.5-1.4,2.6,0,1.7,1.1,3,3.2,3.6.3,0,.7.2,1.1.3,1,.2,1.1.5,1.1.9,0,.6-.6,1-1.4,1-.9,0-1.8-.5-2.2-1.3l-1.8,1.6c.8,1.5,2.3,2.4,4,2.4,2.3,0,4.2-1.5,4.3-3.5,0-1.8-1.1-3-3.2-3.5Z"/>
        <path id="Shape1" data-name="Shape" class="st0" d="M36.7,78.5c-1.1,0-2.1.4-2.9,1v-4.9h-2.9v9c0,.3,0,.5,0,.8h0c0,1.7.6,3.2,1.7,4.3.9.9,2.1,1.5,3.4,1.6h.7c1.5,0,3-.6,4.1-1.7,1.1-1.1,1.7-2.7,1.7-4.3,0-1.6-.6-3.1-1.7-4.3-1.1-1-2.6-1.6-4.1-1.6ZM36.7,87.8c-.2,0-.3,0-.5,0h0c0,0-.1,0-.1,0-1.2-.2-2.1-1.2-2.2-2.4,0-.3,0-.6,0-.8,0-.8.3-1.7.8-2.3.6-.6,1.4-1,2.2-1,2.2,0,3,1.7,3,3.3s-.7,3.3-2.9,3.3h0Z"/>
        <path id="Shape2" data-name="Shape" class="st0" d="M68.1,84.2c0-1.5-.6-3-1.7-4.1-.9-.9-2.1-1.4-3.4-1.6h-.7c-1.5,0-3,.6-4.1,1.7-1.1,1.1-1.7,2.7-1.7,4.3,0,1.6.6,3.1,1.7,4.3,1.1,1.1,2.6,1.7,4.1,1.7,1.1,0,2.1-.4,2.9-1v4.9h2.9v-10ZM62.2,87.6c-2.2,0-3-1.7-3-3.3s.8-3.3,2.9-3.3c.2,0,.3,0,.5,0h0c0,0,.1,0,.1,0,1.4.3,2.4,1.6,2.3,3v.2c0,.8-.2,1.7-.8,2.3-.6.6-1.4,1-2.2,1Z"/>
      </g>
    </g>
  </g>
  <path id="Combined-Shape" class="st0" d="M72.6,23.9c2.2,4.7,2.6,5.6,4.3,10.4.9,3-1,7.4-8.8,3.7-5.6-2.7-9.6-4.5-6.3-9,1.6-2.1,3.5-4.2,5.5-6,2.2-1.9,3.5-3.1,5.3.9ZM70.8,53.9c4.1-4,9.8.5,5.8,5.9-8,11-22,15.3-34.5,10.9-12.5-4.4-21-16.4-21-30.2,0-8.2,2.7-15.1,7.9-21.3,5-5.6,12.5-10.1,19.9-10.2,10.4,0,15,9.1,11.4,14.2-4.1,5.6-8.8,5.2-12.4,2.8,0,0-4.9-3.4-6.3-4.6-2.2-1.7-4.6-1.7-5.5,1-1.5,4.9-2.3,8.1-3.5,13-.6,2.5-.9,5-.9,7.6,0,4.7,2.1,9.1,5.6,12.1,2.4,2.3,5.1,4.4,7.8,6.2,2.2,1.5,4.8,2.4,7.5,2.4h.2c2.7,0,5.3-.9,7.5-2.4,3.6-2.2,7.1-4.6,10.4-7.2ZM41.5,48.2c-1.5-.5-4.8-3.5-3.8-5.6.4-1.2,3.2-1.5,4.1-1.5,5.2-.1,5.4,9.2-.3,7.1ZM50.7,58.1c-.7-.6-1.9-1.8-3-2.8-.3-.3-.4-.8-.2-1.2.2-.4.7-.6,1.1-.6,2,0,3.9,0,5.9,0,.5,0,.8.3,1,.7.2.4,0,.8-.2,1.1-1.1,1-2.3,2.2-2.9,2.8-.2.2-.6.3-.9.3-.3,0-.6-.1-.9-.3ZM62.4,48.2c-5.7,2.1-5.5-7.2-.3-7.1.9,0,3.6.3,4.1,1.5,1,2.2-2.4,5.1-3.8,5.6Z"/>
</svg>