<?xml version="1.0" encoding="UTF-8"?>
<svg id="Layer_1" xmlns="http://www.w3.org/2000/svg" version="1.1" viewBox="0 0 25 25">
  <!-- Generator: Adobe Illustrator 29.8.2, SVG Export Plug-In . SVG Version: 2.1.1 Build 3)  -->
  <defs>
    <style>
      .st0 {
        fill: none;
      }
    </style>
  </defs>
  <g>
    <path class="st0" d="M18.3,12.6c2.5,0,4.5-2,4.5-4.5s-2-4.5-4.5-4.5-4.5,2-4.5,4.5,2,4.5,4.5,4.5Z"/>
    <path class="st0" d="M18.3,13.9c3.2,0,5.8-2.6,5.8-5.8s-2.6-5.8-5.8-5.8-5.8,2.6-5.8,5.8,2.6,5.8,5.8,5.8ZM18.3,2.7c3,0,5.4,2.4,5.4,5.4s-2.4,5.4-5.4,5.4-5.4-2.4-5.4-5.4,2.4-5.4,5.4-5.4Z"/>
    <rect class="st0" x=".9" y="15.7" width="3.6" height="6.2"/>
    <path class="st0" d="M23.7,17.6l-5.2.7c-.3.5-.9.9-1.6.9h-4c-.1,0-.2,0-.3-.1,0,0-.1-.2-.1-.3,0-.1,0-.2.1-.3,0,0,.2-.1.3-.1h4c.5,0,.9-.4.9-.9s-.2-.4-.4-.4h-2.4c-.8,0-1.7-.2-2.5-.5h0c-.4-.2-.8-.2-1.3-.2h0c-.3,0-.5,0-.8,0l-2.5.6v3.7c.7,0,1.5.2,2.2.5h0c.7.3,1.4.4,2.1.4h1.9c1.1,0,2.2-.2,3.3-.6l6-2.2c.3-.1.5-.4.5-.8s-.2-.4-.4-.3Z"/>
    <path class="st0" d="M5.4,21.9h1.8v-6.2h-1.8v6.2Z"/>
    <path d="M23.6,16.7l-4.9.7c0-.7-.6-1.3-1.3-1.3h-2.4c-.7,0-1.5-.1-2.1-.4h0c-.8-.3-1.7-.4-2.5-.2l-2.3.5v-.8c0-.2-.2-.4-.4-.4H.4c-.2,0-.4.2-.4.4v7.1c0,.2.2.4.4.4h7.1c.2,0,.4-.2.4-.4v-.9c.6,0,1.3.2,1.8.4h0c.8.3,1.6.5,2.5.5h1.9c1.2,0,2.5-.2,3.6-.6l6-2.2c.7-.2,1.1-.9,1.1-1.6s-.7-1.3-1.4-1.2ZM4.5,21.9H.9v-6.2h3.6v6.2ZM7.1,21.9h-1.8v-6.2h1.8v6.2ZM23.6,18.7l-6,2.2c-1.1.4-2.2.6-3.3.6h-1.9c-.7,0-1.5-.1-2.1-.4h0c-.7-.3-1.4-.4-2.2-.5v-3.7l2.5-.6c.3,0,.5,0,.8,0h0c.4,0,.9,0,1.3.2h0c.8.3,1.6.5,2.5.5h2.4c.3,0,.4.2.4.4,0,.5-.4.9-.9.9h-4c-.1,0-.2,0-.3.1,0,0-.1.2-.1.3,0,.1,0,.2.1.3,0,0,.2.1.3.1h4c.7,0,1.3-.4,1.6-.9l5.2-.7c.2,0,.4.1.4.3,0,.4-.2.7-.5.8Z"/>
    <path d="M18.3,13.4c3,0,5.4-2.4,5.4-5.4s-2.4-5.4-5.4-5.4-5.4,2.4-5.4,5.4,2.4,5.4,5.4,5.4ZM18.3,3.6c2.5,0,4.5,2,4.5,4.5s-2,4.5-4.5,4.5-4.5-2-4.5-4.5,2-4.5,4.5-4.5Z"/>
    <path d="M18.3,14.8c3.7,0,6.7-3,6.7-6.7s-3-6.7-6.7-6.7-6.7,3-6.7,6.7,3,6.7,6.7,6.7ZM18.3,2.3c3.2,0,5.8,2.6,5.8,5.8s-2.6,5.8-5.8,5.8-5.8-2.6-5.8-5.8,2.6-5.8,5.8-5.8Z"/>
  </g>
  <path d="M16.8,11.7c.5,0,.5-.6.5-.9h.9c0,.3,0,.9.5.9s.5-.6.5-.9c.6,0,1.1,0,1.6-.5h0c.7-.7.6-1.9-.2-2.5.7-.9.3-2.4-1.4-2.4v-.5c0-.6-.9-.6-.9,0v.5h-.9v-.5c0-.6-.9-.6-.9,0v5.4c0,.6-.1,1.4.5,1.4ZM17.2,6.3h2c.8,0,.8,1.2,0,1.2h-2v-1.2ZM19.5,8.4c.6,0,1,.8.5,1.2h0c-.1.1-.3.2-.5.2h-2.3v-1.5s2.3,0,2.3,0Z"/>
</svg>