<?xml version="1.0" encoding="UTF-8"?>
<svg id="Layer_1" xmlns="http://www.w3.org/2000/svg" version="1.1" viewBox="0 0 100 100">
  <!-- Generator: Adobe Illustrator 29.2.1, SVG Export Plug-In . SVG Version: 2.1.0 Build 116)  -->
  <defs>
    <style>
      .st0 {
        fill: #3d889b;
      }
    </style>
  </defs>
  <path class="st0" d="M33.8,49.5c0,.2.3.2.5.3,1.3.7,2.3,2,2.5,3.5s.1.9.1,1c-.1.9-.2,1.9-.7,2.7-1,1.9-3.3,2.7-5.3,3h-8.4c-.2,0-.3-.3-.4-.5v-19.3s.2-.3.2-.3h8c2.8.2,5.5,1.7,5.8,4.7s-.5,4.2-2.4,4.9ZM25.8,48.3h4.2s.5,0,.6,0c1.1-.2,2.1-.9,2.3-2.1s-.5-2.8-2.1-3.1-.4-.1-.4-.1h-4.6v5.4ZM25.8,56.9h5s.4,0,.5-.1c2.7-.7,3-4.3.5-5.4s-.7-.2-1.2-.2,0,0-.1,0h-4.7v5.8Z"/>
  <path class="st0" d="M10.7,36.5c.4,0,.7,0,1.1.2,1.4,1,3.1,1.7,4.6,2.6s.4.3.6.5v6.8s-.3.4-.3.4l-3.6,2-.4.4v11.8c0,.4-.3.7-.7.8s-1.9,0-2.2,0-.5-.4-.6-.7v-11.9s-.8-.7-.8-.7l-3.3-1.9-.2-.4v-6.4c0-.5.8-.8,1.2-1.1,1.5-.9,3-1.7,4.5-2.5ZM11.1,40.3l-.7.3-1.8,1.1c0,0-.2.3-.2.4-.1.8,0,1.9,0,2.7.1.4,1.8,1,2.1,1.4.5.3.6.3,1.1,0,.6-.5,1.5-.8,2.1-1.3v-3s-.2-.2-.2-.2l-2.4-1.4Z"/>
  <path class="st0" d="M64.5,59.9s-.2-.4-.3-.5c-1.3-1.8-2.7-3.7-4-5.5s-.7-1.2-.8-1.2c-.3,0-.8,0-.9.3v6.5c0,.2-.1.4-.4.5-.8,0-1.8,0-2.7,0s-.2-.1-.3-.1v-.3c-.1,0-.1-17.5-.1-17.5l.3-.4c.9,0,2-.1,2.8,0s.3.1.3.3v8.2c0,.3.6.6.8.4,1.7-1.6,3.2-3.4,4.8-5h.3c1,0,2.1-.2,3.1-.1s.6.5.3.9c-.6.8-1.9,1.9-2.7,2.6s-.1.2-.2.3c-.8.8-1.6,1.5-2.3,2.3,0,.3.3.7.5,1,1.4,2.1,3,4.1,4.5,6.2s.9.9.3,1.3c-1,0-2.1.1-3,0s-.3-.1-.3-.1Z"/>
  <path class="st0" d="M80.4,55.4c.2,0,.2.4.1.5-.2,1.2-1.3,2.8-2.4,3.4-2.9,1.7-7.2,1.1-9.1-1.7s-1.6-10.5,3.1-12.2c2.5-.9,5.7-.3,7.3,1.9s1.3,2.7,1.4,4,0,1.7,0,1.9-.2.2-.2.2h-9.5c-.2,0-.2.4-.2.6,0,.7.5,1.7.9,2.2,1.3,1.6,4.4,1.6,5.5-.2s.2-.6.4-.6h2.7ZM77.4,50.9c0-2.6-2.6-3.8-4.8-2.5s-1.3,1.4-1.6,2.4l.2.2h5.9c0,0,.4,0,.4,0Z"/>
  <path class="st0" d="M81,45.4h3.2s.2.2.2.3l3.4,9.5c.4.6.6,0,.7-.4,1-2.8,1.8-5.6,2.9-8.4s.2-.7.4-.9h3.1c.3,0,0,.6,0,.7-2,5.8-4.5,11.4-6.5,17.2-1,2.3-2.7,3.3-5.3,3.1s-.8-.2-.9-.3-.2-.3-.2-.4c0-.3,0-1.5,0-1.8s.3-.4.4-.4.1,0,.2,0c.5,0,1.3,0,1.8-.1s.9-.7,1.1-1.3.4-1.1.6-1.6v-.3s-5.3-14-5.3-14c0-.3-.3-.6,0-.8Z"/>
  <path class="st0" d="M49.8,41.6c0,.1.1.2.1.3v3.5s.1.2.2.2h2.9s.3.3.3.4c0,.8.1,1.6-.1,2.4h-2.9s-.1.2-.3.1v8s.2.4.3.5c.4.5,1.1.7,1.7.6s1-.4,1.3-.3.3.2.3.2v2.4c-.1.1-.3.2-.5.3-1.2.5-3.4.3-4.5-.3s-1.7-1.7-1.9-2.9v-8.4c0,0-.2-.4-.3-.4h-2c-.2-.8,0-1.6-.1-2.4,0,0,.2-.4.3-.4h1.8s.3-.2.3-.3v-3.5s.1-.2.2-.2h3.1Z"/>
  <path class="st0" d="M39.1,45.4h3.1s.2.1.2.2v14.3s-.1.2-.2.2h-3.1s-.3-.3-.3-.4v-13.9l.3-.4Z"/>
  <path class="st0" d="M13.9,60.8s-.2-.5-.2-.5c-.2-1.2.1-2.8,0-4.1.3-.7.7-.8,1.4-.4s.8.5,1.1.6.4.4.4.4c0,.9.1,1.9,0,2.7s-.2.4-.3.5-1.3.8-1.5.9-.7,0-.8,0Z"/>
  <path class="st0" d="M40,39.5c.2,0,.8,0,1,0,.6,0,1.3.8,1.5,1.3.3.9,0,1.7-.7,2.3s-.7.3-1.1.4c-.3-.1-.7-.1-1-.3-1-.5-1.3-1.8-.8-2.7s.7-.9,1.2-1Z"/>
</svg>