<?xml version="1.0" encoding="UTF-8"?>
<svg id="Layer_1" xmlns="http://www.w3.org/2000/svg" version="1.1" viewBox="0 0 100 100">
<defs>
  <style><![CDATA[
    @media (prefers-color-scheme: dark) {
      /* Force every filled shape to white in dark mode */
      path, polygon, rect, circle, ellipse {
        fill: #fff !important;
        stroke: none !important; /* prevent stray outlines from staying colored */
      }
    }
  ]]></style>
</defs>

  <defs>
    <style>
      .st0 {
        fill: #00d920;
      }
    </style>
  </defs>

  <g>
    <path d="M42.7,72.6c-1.3-1.5-2.4-3.5-3.4-5.3-4.6-7.8-9.6-16-13.9-23.9-1.1-2.2-2-3.5-1.4-6.1.2-.9,4-7.4,4.7-8.2s2.4-1.8,2.8-1.8h11.9l-5.2,9.1c-.8,2.1-.9,3.3,0,5.3,4,7,8.2,13.9,12.2,20.8,0,.2,0,.5.2.8,1.8,3.1,3.6,6.3,5.6,9.3h-13.5Z"/>
    <path class="st0" d="M50.4,62.5h13.5s-5.9,10.1-5.9,10.1h-1.8c-2-3-3.8-6.2-5.6-9.3s-.1-.7-.2-.8Z"/>
    <path class="st0" d="M56.3,5.1c.9,0,1.8-.1,2.4.8,5.2,9.9,11.8,19.5,17,29.4,1.1,2.1,1.5,3.4.7,5.7s-4.1,7.5-5,8.3-2.8,1.5-3.3,1.5h-10.9c0-.5.3-1,.6-1.4,1.4-2.6,3.5-5.4,4.6-8,1-2.2.8-3.2-.1-5.3-2.7-6.1-7.8-12.7-11-18.8-.3-.7-.8-1.3-.9-2l5.9-10.1Z"/>
    <path d="M56.3,5.1l-5.9,10.1h-13.5c-.2-.2.7-1.7.9-2,.7-1.3,4.3-7.8,5.2-8,4.4,0,8.9-.3,13.3,0Z"/>
  </g>
  <g>
    <path d="M21,78.3v5c2.9-1.9,6.6-.6,7.4,2.8s-.1,4.9-2.2,6.3-5.4,1-7.8.3v-14.5h2.6ZM23.1,84.7c-1,0-1.8.6-2.1,1.5v4.5c0,.4,1.3.4,1.7.4,4.3-.2,4.2-6.7.4-6.5Z"/>
    <path d="M49.1,82.4c4-.5,7.2,2.5,6.5,6.6-.9,4.9-7.5,6.1-10.2,2-2.2-3.2-.2-8.1,3.7-8.6ZM49.9,84.6c-3.8.2-3.6,6.7.2,6.6s3.8-6.9-.2-6.6Z"/>
    <path d="M67.4,93h-2.6v-6.7c0-.4-.5-1.1-.8-1.3-1.2-.9-3,0-3.5,1.3s-.2.6-.2.7v6h-2.6v-10.3h2.6v1.1c1.1-.9,2.2-1.4,3.6-1.3s3.6,1.7,3.6,3.6v7Z"/>
    <path d="M39.9,78.9v3.8h2.8v2.1h-2.8v5.1c0,0,.2.7.3.8.3.5,1,.5,1.6.4s1.1-.6,1.2-.5l1,1.5c0,.2,0,.1-.1.2-.4.4-1.6.9-2.2,1-2.3.4-4.4-.7-4.4-3.3v-5.3h-1.8v-2.1h1.8v-2.5l2.6-1.3Z"/>
    <path d="M82.7,90.2s0,0,0-.1h.2s1.5,1.7,1.5,1.7c-2.2,2.4-6.9,2.2-8.7-.5s-1.1-6.6,1.8-8.2,5.4-.9,6.9,1l-1.6,1.6c-1.7-1.8-4.7-1.3-5.3,1.2s2.4,5.6,5.2,3.3Z"/>
    <rect x="30.8" y="82.7" width="2.6" height="10.3"/>
    <rect x="70" y="82.7" width="2.6" height="10.3"/>
    <path d="M70.9,78.1c2.6-.4,2.7,3.7,0,3.2s-1.7-2.9,0-3.2Z"/>
    <path d="M33.3,78.5c1.5,1.6-.9,3.9-2.4,2.3s1-3.8,2.4-2.3Z"/>
  </g>
</svg>