<?xml version="1.0" encoding="UTF-8"?>
<svg id="Layer_1" xmlns="http://www.w3.org/2000/svg" version="1.1" viewBox="0 0 25 25">
  <!-- Generator: Adobe Illustrator 29.7.1, SVG Export Plug-In . SVG Version: 2.1.1 Build 8)  -->
  <defs>
    <style>
      .st0 {
        fill: #fff;
      }
    </style>
  </defs>
  <path class="st0" d="M19.1,12.6h0c-.3,0-.6.3-.6.6v5.1c0,.5-.4.9-.9.9h-4.8c0,0-.2,0-.2,0,0,0-.1,0-.2.1l-2.6,2.6-2.6-2.6s-.1,0-.2-.1c0,0-.1,0-.2,0H2c-.5,0-.9-.4-.9-.9V6.8c0-.5.4-.9.9-.9h12.8c.3,0,.6-.3.6-.6s-.3-.6-.6-.6H2C.9,4.8,0,5.7,0,6.8v11.5c0,1.1.9,2,2,2h4.5l2.9,2.9c.1.1.3.2.4.2s.3,0,.4-.2l2.9-2.9h4.5c1.1,0,2-.9,2-2v-5.1c0-.3-.3-.6-.6-.6Z"/>
  <path class="st0" d="M24.2,2.1l-.2-.2h0c-.5-.4-1.1-.6-1.8-.6s-1.4.3-2,.8l-7.5,7.5s0,0-.1.1l-1.6,4.8c0,.2,0,.4.1.6.1.1.3.2.4.2s.1,0,.2,0l4.7-1.6h0c0,0,.1,0,.2-.1l7.5-7.5c1.1-1.1,1.1-2.8,0-3.9ZM15.2,12.8l-2.7.9.9-2.7,1.8,1.8ZM23.4,5.2l-.6.6s0,0,0,0l-2.1-2.1s0,0-.1,0l.6-.6c.6-.6,1.7-.6,2.3,0,.6.6.6,1.7,0,2.3ZM21.9,6.6l-5.6,5.6-2.3-2.3,5.6-5.6s0,0,0,.1l2.1,2.1s0,0,0,0Z"/>
  <path class="st0" d="M4.2,17.8h11.3c.3,0,.6-.3.6-.6s-.3-.6-.6-.6H4.2c-.3,0-.6.3-.6.6s.3.6.6.6Z"/>
  <path class="st0" d="M4.2,14.7h5.5c.3,0,.6-.3.6-.6s-.3-.6-.6-.6h-5.5c-.3,0-.6.3-.6.6s.3.6.6.6Z"/>
  <path class="st0" d="M11.2,11c0-.3-.3-.6-.6-.6h-6.5c-.3,0-.6.3-.6.6s.3.6.6.6h6.5c.3,0,.6-.3.6-.6Z"/>
  <path class="st0" d="M12.9,8.1h0c0-.4-.3-.7-.6-.7H4.2c-.3,0-.6.3-.6.6s.3.6.6.6h8.1c.3,0,.5-.2.6-.5Z"/>
</svg>