<?xml version="1.0" encoding="UTF-8"?>
<svg id="Layer_1" xmlns="http://www.w3.org/2000/svg" version="1.1" viewBox="0 0 100 100">
  <!-- Generator: Adobe Illustrator 29.2.1, SVG Export Plug-In . SVG Version: 2.1.0 Build 116)  -->
  <defs>
    <style>
      .st0 {
        fill: #0083ff;
      }
    </style>
  </defs>
  <path class="st0" d="M20.5,36.8c-.1-1.1.3-2.3,1.5-2.4s2.2.9,2,2.4h1.6c2.9,0,5.7,3,6.2,5.7s-.2,3.7-1.2,5.3c1,.6,2,1.2,2.8,2.1,3.5,4,2.1,10.4-2.7,12.5s-4.4.7-6.7.7c0,1,0,1.9-1.1,2.3-1.6.6-2.7-.8-2.5-2.3h-6c-.2,0-.8-.3-1-.4-1.2-1-.7-2.6.7-3.1h13.3c5.6-.5,5.9-8.3,0-8.9s-3.1.2-4.2,0-1.8-2-.9-2.8,1.7-.4,2.7-.5c4.4-.4,4.4-6.8.3-7.2s-5.3.2-7.7,0-2.1-1.9-1.1-2.9.7-.5.8-.5h3.2Z"/>
  <path class="st0" d="M70,54.9c-.1.2-.1.4-.1.7.2,4,4,5.3,7.2,3.6s.5-.4.8-.5c1.6-.7,2.9,1.3,1.6,2.7-3.1,3.2-10.2,1.9-12.2-2.1-1-2.1-1.1-7.4-.5-9.6,1.6-5.5,8.6-7.1,12.2-2.5s1.5,3.8,1.4,5.8-.8,1.8-1.7,1.9c-2.5.3-5.5-.2-8,0s-.4,0-.7.1ZM72.7,47.4c-1.7.3-2.8,2.1-2.9,3.7s.3.8.9.9c1.8.1,3.9-.1,5.8,0,1.2-.1.6-2.2.1-2.9-.9-1.4-2.2-2-3.9-1.7Z"/>
  <path class="st0" d="M53.8,54.9c-.2.2-.1.8-.1,1.1.2,3.3,3.7,4.7,6.5,3.5s1.7-1.6,3.1-.7.7,1.5.2,2.2c-1.8,2.2-5.9,2.3-8.4,1.4-5-1.8-5-6.8-4.7-11.3s5.9-8.6,10.5-5.9,3.6,4.5,3.4,7.5-.7,1.9-1.7,2c-2.6.3-5.5-.2-8.2,0s-.4,0-.5.1ZM59.7,48.2c-1.8-1.7-4.8-.9-5.7,1.3s-.7,2.3.5,2.4c1.8.2,4-.2,5.9,0,1.1-.1.6-2,.2-2.7s-.6-.8-.8-1Z"/>
  <path class="st0" d="M83.3,44.9h9.8c1.1.1,1.6,1.3,1.1,2.2l-7.3,12c0,.3.2.3.5.4,2,.2,4.5-.2,6.5,0,1.7.6,1.4,3-.5,3.2-3.2.3-6.7-.2-9.9,0-1.2-.1-1.9-1.5-1.2-2.5l7.2-11.5c.1-.3.2-.7-.2-.7-1.8-.1-3.8.1-5.6,0s-2-2.6-.3-3.1Z"/>
  <path class="st0" d="M39,62.7c-.3-.3-.4-.8-.5-1.2v-15.4c.1-1.8,2.5-2.3,3.3-.7s0,.3.2.5,0,.2.2.1.5-.5.6-.6c1.3-1,4-1.4,5.5-.7s.9,1.9.1,2.6-1.1.3-1.9.4c-6.8.7-3.7,9.6-4.5,14.1-.3,1.3-2.1,1.7-2.9.8Z"/>
  <path class="st0" d="M9.1,54c.2-.2.8-.4,1.1-.5h11.8c1.9.3,1.9,2.9.1,3.4h-12.1c-1.2-.3-1.7-2.1-.9-3Z"/>
  <path class="st0" d="M13,42.1h8.5c2,.6,2,3.2,0,3.6h-8.5c-1.9-.5-1.8-3.2.1-3.6Z"/>
  <path class="st0" d="M6.7,47.5c2.5,0,5.3-.2,7.8,0s1.9.3,2,1.4-.4,1.8-1.4,2H6.3c-1.9-.8-1.7-3.1.4-3.4Z"/>
</svg>