<?xml version="1.0" encoding="UTF-8"?>
<svg id="Layer_1" xmlns="http://www.w3.org/2000/svg" xmlns:xlink="http://www.w3.org/1999/xlink" version="1.1" viewBox="0 0 100 100">
  <!-- Generator: Adobe Illustrator 29.2.1, SVG Export Plug-In . SVG Version: 2.1.0 Build 116)  -->
  <defs>
    <style>
      .st0 {
        fill: #007d3e;
      }

      .st1 {
        fill: #01b422;
      }

      .st2 {
        fill: #fff;
      }

      .st3 {
        fill: #c9dd00;
      }
      .wordmark { fill: #000; }

@media (prefers-color-scheme: dark) {
  .wordmark { fill: #fff; }
}

    </style>
  </defs>
  <g>
    <g>
      <path class="st3" d="M34,76.7c-2.3,0-4.2-1.9-4.2-4.2V8.7c0-2.3,1.8-4.3,4.1-4.4,2.3,0,4.3,1.8,4.4,4.1v64.1c0,2.3-1.9,4.2-4.2,4.2h0Z"/>
      <path class="st1" d="M34,76.7c-2.3,0-4.2-1.9-4.2-4.3s.9-3.1,2.4-3.8l25.6-12.1-26.3-19.4c-1.9-1.4-2.3-4-.9-5.9s4-2.3,5.9-.9h0l32,23.6c1.9,1.4,2.3,4,.9,5.9-.4.6-1,1-1.6,1.3l-32,15.2c-.6.3-1.2.4-1.8.4h0Z"/>
      <path class="st3" d="M34,51.6c-2.3,0-4.3-1.9-4.3-4.2s.6-2.7,1.8-3.5l26.3-19.4-25.6-12.1c-2.1-1-3-3.5-2-5.7,1-2.1,3.5-3,5.7-2h0l32,15.2c2.1,1,3,3.5,2,5.6-.3.6-.8,1.2-1.3,1.6l-32,23.6c-.7.5-1.6.8-2.5.8h0Z"/>
    </g>
    <path class="st0" d="M38.3,31.6v17.9l12.2-9-12.2-9h0Z"/>
    <path class="st2" d="M29.8,24.1h8.5v20.7h-8.5v-20.7Z"/>
    <path class="st3" d="M38.3,8.7c0-2.3-1.8-4.3-4.1-4.4-2.3,0-4.3,1.8-4.4,4.1v53.6h8.5s0-53.3,0-53.3Z"/>
  </g>
  <g>
    <path class="wordmark" d="M27.4,94.2v-10.2c2.7,0,6.2-.7,5.9,3.1s-.8,1.4-.7,1.8c0,.5,1,.6,1.1,2.2,0,4-3.3,3-6.2,3.1h0ZM32.1,88.3c.5-.9.8-2.5,0-3.2l-3.9-.3v4l3.9-.4h0ZM32.4,93c.6-.6.7-2.4,0-3-1.1-1.3-3.1,0-4.4-.9v4.4c1.1,0,3.5.3,4.3-.4h0Z"/>
    <path class="wordmark" d="M61.6,84c.4.3,3.3,8.9,3.6,10.2-1,0-1.4-2.9-1.7-2.9h-4.3c-.7.3-.9,1.6-1.2,2.2s0,.9-.9.7l3.6-9.7c-.2-.6.5-.7.8-.5h.1ZM63.1,90.6c0-1.8-1.2-3.3-1.6-5.1l-2,5.1h3.6Z"/>
    <path class="wordmark" d="M50.7,84c2.6,0,5.9-.7,6.2,2.7.3,4.3-1.9,3.9-5.5,3.8v3.1c0,1,0,.6-.7.5v-10.2h0ZM51.4,89.8c2.8,0,5,.9,4.8-2.7s-2.4-2.3-4.8-2.3v5.1h0Z"/>
    <path class="wordmark" d="M48.9,86.9c-1.1.2-.7-1-1.5-1.6-2.2-1.9-5.4-.3-5.8,2.6-.8,5.6,4.1,8,7.1,3.1.6,1.2-1.1,2.9-2.3,3.2-7.1,1.6-7-9.4-2.5-10.1s4.4.4,4.9,2.9h0Z"/>
    <path class="wordmark" d="M68.9,89.1c.3-1.2,1-2.6,1.7-3.6s.7-1.6,1.6-1.5c.2.2-2.9,5-3.1,5.8-.3,1.1,0,2-.2,3.1s.3,1.5-.5,1.3,0-3.6-.3-4.5-3.2-5.3-2.8-5.7c.7,0,.8.3,1.2.8.8,1.3,1.2,3.3,2.5,4.3h0Z"/>
    <path class="wordmark" d="M40.5,84v.7h-2.9v9.5h-.7v-9.5c-1,0-2.5.4-2.9-.7h6.5Z"/>
  </g>
</svg>