<?xml version="1.0" encoding="UTF-8"?>
<svg id="Layer_1" xmlns="http://www.w3.org/2000/svg" version="1.1" viewBox="0 0 100 100">
  <!-- Generator: Adobe Illustrator 29.2.1, SVG Export Plug-In . SVG Version: 2.1.0 Build 116)  -->
  <defs>
    <style>
      .st0 {
        fill: #eb0000;
      }
    </style>
  </defs>
  <g id="u0CJTd.tif">
    <g>
      <path d="M91.8,94.8h-2.4l-2.9-10.7v10.7h-1.9v-14.8h2.9c.6,2.6,1.1,5.4,1.9,7.9,0,.3,0,.7.5.8v-8.7h1.9s0,14.8,0,14.8Z"/>
      <path d="M12.2,80c.2,0,1.3.3,1.5.4,2,.9,2,5.5,0,6.5,2.1,1.1,2.2,5.5.7,7.1s-1.4.8-1.6.8h-4.7v-14.8c1.3,0,2.8,0,4,0h.1ZM10.4,86.1c.7,0,1.7.2,2.2-.3.5-2.2.6-4.1-2.2-3.5v3.9h0ZM10.4,88.2v4.3c0,.5,2.2.5,2.6,0,.2-2.5.9-4.7-2.6-4.1h0Z"/>
      <path d="M47.4,80c.4,0,1.8.6,2.1.9,1.2,1.1,1.2,5.5-.7,6.1.7.5,1.3.7,1.5,1.6s.4,4.5-.6,5.5-1.4.8-1.5.8h-4.7v-14.8c1.3,0,2.8-.2,4,0h0ZM45.6,82.2v3.9c2.8.6,3-1.8,2-3.8h-2ZM45.6,88.2v4.6c2.7.3,2.9-.6,2.7-3s-1-1.5-2.7-1.6Z"/>
      <path d="M74,80c2.1-.4,4.4,0,4.7,2.5s.3,8.7,0,10.1c-.6,2.9-5.3,3.2-6.5.7s-.7-7.2-.6-9.2.4-3.8,2.4-4.2h0ZM74.4,92.8c.7.5,2,0,2.1-.8-.2-2.8.3-6,0-8.8-.2-1.9-2.2-1.7-2.4-.5.2,2.9-.3,6.1,0,9s0,.9.3,1h0Z"/>
      <path d="M18.9,80v11.5s.3,1,.4,1.1c.6,1,2.3.2,2.3-.6v-12c.5,0,1.8-.2,2.1.2s.2,9.4.1,10.6c-.1,2-.6,3.9-2.8,4.2s-2.6,0-3.3-.8-1-1.9-1-2.2v-12s2.2,0,2.2,0Z"/>
      <path d="M70.4,85.1h-2.2c0-1.3.6-3.3-1.3-3.2s-1,.7-1.1,1.6c-.2,2.1-.2,6.3,0,8.3s.4,1,1.1,1.3c1.9-.3,1.2-2.2,1.3-3.6h2.2c0,2.2,0,5.1-2.6,5.5s-4-.7-4.2-3-.2-7.1,0-9.2.9-2.6,2.3-2.8c3.7-.6,4.8,1.7,4.5,5.1Z"/>
      <polygon points="62.6 80 62.6 82.2 60.2 82.2 60.2 94.8 58 94.8 58 82.2 55.6 82.2 55.6 80 62.6 80"/>
      <polygon points="27.6 80 27.6 92.9 31.5 92.9 31.5 94.8 25.5 94.8 25.5 80 27.6 80"/>
      <polygon points="34.9 80 34.9 92.9 38.8 92.9 38.8 94.8 32.7 94.8 32.7 80 34.9 80"/>
      <rect x="51.9" y="80" width="2.2" height="14.8"/>
      <rect x="80.4" y="80" width="2.2" height="14.8"/>
    </g>
  </g>
  <g>
    <path class="st0" d="M84,46c-3.1,0-6.7,2.1-9.6,2.3s-3.6-1.2-5.9-1c-5.4.4-12,3.4-17.5,4.2l-.6-28.1,9.7-3.7,4.7,7.4,17.4-5.6-4.3-16.5,14,19.4-.2.8-16.8,12.6c-.3,1.6,8.5,6,9.2,8.2h-.1Z"/>
    <path class="st0" d="M49.1,51.5l-17.5-4.2c-2-.5-4.1,1.1-5.9,1-2.9,0-6.5-2.4-9.6-2.3,2-3,5.5-4.5,8.2-6.8s1.2-.5,1-1.4-15-10.7-16.8-12.5l-.3-.9L21.9,5.1l-4,16.5,16.3,5.4c1.8.1,5.2-7,6-7.1l8.9,3.5v28.1Z"/>
    <path class="st0" d="M51,57.9l17.4-9.5c.5,2,.6,4.5-.3,6.5s-5,5.3-6.3,7.8c-1.3,2.5-1.1,6-1.9,7-1,1.3-7.3,3.9-9,5v-16.8h.1Z"/>
    <path class="st0" d="M49.1,74.8l-9.2-5.3c-.8-2-.7-4.3-1.5-6.3s-4.9-5.3-6.3-7.8-.6-4.2-.7-6.3h1.4c0,0,16.3,8.9,16.3,8.9v16.8Z"/>
  </g>
</svg>