<?xml version="1.0" encoding="UTF-8"?>
<svg id="Layer_1" xmlns="http://www.w3.org/2000/svg" version="1.1" viewBox="0 0 100 50">
  <!-- Generator: Adobe Illustrator 29.5.1, SVG Export Plug-In . SVG Version: 2.1.0 Build 141)  -->
  <defs>
    <style>
      .st0 {
        fill: #ff603b;
      }
    </style>
  </defs>
  <path class="st0" d="M17.8,9.4H5.6s0,13.6,0,13.6h12.4c4,0,7.1-3.4,6.8-7.4s-3.4-6.2-6.9-6.2Z"/>
  <path class="st0" d="M18,27H5.6s0,13.6,0,13.6h12.4c3.8,0,6.8-3.1,6.8-6.8s-3.1-6.8-6.8-6.8Z"/>
  <g>
    <path d="M38.1,19.8c.3-.5.9-.9,1.6-1.2.7-.3,1.5-.5,2.3-.5,1.8,0,3.3.6,4.6,1.9,1.3,1.3,1.9,3,1.9,5.1s-.7,3.8-2,5.1c-1.3,1.3-2.9,2-4.7,2s-1.6-.2-2.3-.5-1.2-.7-1.6-1.3v.8c0,.2,0,.3-.2.4s-.2.2-.4.2h-2.7c-.2,0-.3,0-.4-.2-.1-.1-.2-.2-.2-.4V13.2c0-.2,0-.3.2-.4.1-.1.3-.2.4-.2h2.8c.1,0,.3,0,.4.2.1.1.2.2.2.4v6.6ZM39,22.7c-.6.7-.9,1.5-.9,2.4s.3,1.7.9,2.4c.6.7,1.4,1,2.3,1s1.7-.3,2.3-1c.6-.7.9-1.5.9-2.4s-.3-1.7-.9-2.4c-.6-.7-1.4-1-2.3-1s-1.7.3-2.3,1Z"/>
    <path d="M54.1,19v6.8c0,.9.2,1.6.7,2.2.5.5,1.1.8,2,.8s1.5-.3,2-.8c.5-.5.7-1.2.7-2.1v-6.9c0-.1,0-.3.2-.4.1-.1.2-.2.4-.2h2.8c.2,0,.3,0,.4.2.1.1.2.3.2.4v12.1c0,.2,0,.3-.2.4s-.3.2-.4.2h-2.8c-.2,0-.3,0-.4-.2-.1,0-.2-.2-.2-.4v-.8c-1,1.2-2.3,1.8-4,1.8s-3-.5-3.9-1.5c-1-1-1.5-2.4-1.5-4.1v-7.5c0-.1,0-.3.2-.4s.3-.2.4-.2h2.7c.2,0,.3,0,.4.2.1.1.2.2.2.4Z"/>
    <path d="M67.3,30.1c-1.4-1.3-2.1-3-2.1-5s.7-3.6,2.1-5c1.4-1.4,3.1-2.1,5.1-2.1s3.7.7,5.1,2c1.4,1.4,2.1,3,2.1,5s-.7,3.6-2.1,5c-1.4,1.3-3.1,2-5.1,2s-3.7-.7-5.1-2ZM70.1,22.7c-.6.7-.9,1.5-.9,2.4s.3,1.7.9,2.4c.6.7,1.4,1,2.3,1s1.7-.3,2.3-1c.6-.7.9-1.4.9-2.4s-.3-1.7-.9-2.4c-.6-.7-1.4-1-2.3-1s-1.7.3-2.3,1Z"/>
    <path d="M84.4,38.1c-1.7,0-3-.5-4-1.4-.3-.3-.3-.6,0-1l1-1.4c.3-.5.7-.5,1.2-.2.6.4,1.1.6,1.6.6.8,0,1.4-.4,1.7-1.3l.6-1.7h-1.4c-.4,0-.6-.2-.7-.6l-3.9-11.8c-.2-.6,0-.9.6-.9h3.2c.3,0,.5.2.6.6l2.6,9.1,2.5-9.1c.1-.4.4-.6.7-.6h3.1c.6,0,.7.3.5.9l-4.5,14.6c-.4,1.3-1.1,2.3-2,3-.9.7-2,1.1-3.4,1.1Z"/>
  </g>
  <path d="M15.2,45.2v.8c0,.2,0,.3-.2.4s-.2.2-.4.2h-2.7c-.2,0-.3,0-.4-.2-.1-.1-.2-.2-.2-.4V4.1c0-.2,0-.3.2-.4.1-.1.3-.2.4-.2h2.8c.1,0,.3,0,.4.2.1.1.2.2.2.4v41.1Z"/>
</svg>