<?xml version="1.0" encoding="UTF-8"?>
<svg id="Layer_1" xmlns="http://www.w3.org/2000/svg" version="1.1" viewBox="0 0 123.4 36.2">
  <!-- Generator: Adobe Illustrator 29.7.1, SVG Export Plug-In . SVG Version: 2.1.1 Build 8)  -->
  <defs>
    <style>
      .st0 {
        fill: #ff603b;
      }

      .st1 {
        fill: #fff;
      }
    </style>
  </defs>
  <g>
    <path class="st1" d="M60.9,12.7c.3-.5.9-.9,1.6-1.2.7-.3,1.5-.5,2.3-.5,1.8,0,3.3.6,4.5,1.9,1.3,1.3,1.9,2.9,1.9,5s-.6,3.7-1.9,5-2.8,1.9-4.6,1.9-1.5-.2-2.2-.5-1.2-.7-1.6-1.2v.8c0,.2,0,.3-.2.4s-.2.2-.4.2h-2.7c-.2,0-.3,0-.4-.2,0-.1-.2-.2-.2-.4V6.2c0-.2,0-.3.2-.4,0,0,.3-.2.4-.2h2.7c0,0,.3,0,.4.2,0,0,.2.2.2.4,0,0,0,6.5,0,6.5ZM61.8,15.6c-.6.7-.9,1.4-.9,2.3s.3,1.7.9,2.3c.6.7,1.4,1,2.3,1s1.7-.3,2.3-1c.6-.7.9-1.4.9-2.3s-.3-1.7-.9-2.3c-.6-.7-1.4-1-2.3-1s-1.7.3-2.3,1Z"/>
    <path class="st1" d="M76.6,11.9v6.7c0,.9.2,1.6.7,2.1.4.5,1.1.8,2,.8s1.5-.3,2-.8.7-1.2.7-2.1v-6.8c0-.1,0-.3.2-.4,0-.1.2-.2.4-.2h2.7c.2,0,.3,0,.4.2,0,.1.2.3.2.4v11.9c0,.2,0,.3-.2.4s-.3.2-.4.2h-2.7c-.2,0-.3,0-.4-.1,0,0-.2-.2-.2-.4v-.8c-1,1.2-2.3,1.7-3.9,1.7s-2.9-.5-3.9-1.5-1.4-2.3-1.4-4v-7.4c0-.1,0-.3.2-.4s.3-.2.4-.2h2.7c.2,0,.3,0,.4.2,0,.1.2.2.2.4h0Z"/>
    <path class="st1" d="M89.6,22.8c-1.4-1.3-2.1-3-2.1-4.9s.7-3.6,2.1-4.9c1.4-1.4,3.1-2,5-2s3.6.7,5,2,2.1,3,2.1,4.9-.7,3.6-2.1,4.9-3.1,2-5,2-3.6-.7-5-2ZM92.4,15.6c-.6.7-.9,1.4-.9,2.3s.3,1.7.9,2.3c.6.6,1.4,1,2.3,1s1.7-.3,2.3-1c.6-.6.9-1.4.9-2.3s-.3-1.7-.9-2.3c-.6-.7-1.4-1-2.3-1s-1.6.3-2.3,1Z"/>
    <path class="st1" d="M106.5,30.7c-1.6,0-3-.5-4-1.4-.3-.3-.3-.6,0-1l1-1.4c.3-.4.7-.5,1.2-.2.6.4,1.1.6,1.6.6.8,0,1.4-.4,1.6-1.2l.6-1.7h-1.4c-.4,0-.6-.2-.7-.6l-3.8-11.6c-.2-.6,0-.9.6-.9h3.1c.3,0,.5.2.6.6l2.6,8.9,2.4-8.9c0-.4.3-.6.7-.6h3c.6,0,.7.3.5.9l-4.5,14.4c-.4,1.3-1,2.3-1.9,3s-2,1.1-3.3,1.1h.1Z"/>
  </g>
  <path class="st0" d="M12.9,12.5v12h13.4v-12.2c0-3.9-3.3-7-7.3-6.7s-6.1,3.3-6.1,6.8h0Z"/>
  <path class="st0" d="M30.2,12.3v12.2h13.4v-12.2c0-3.7-3-6.7-6.7-6.7s-6.7,3-6.7,6.7Z"/>
  <path class="st1" d="M48.1,15h.7c.2,0,.3,0,.4.2s.2.2.2.4v2.7c0,.2,0,.3-.2.4,0,.1-.2.2-.4.2H7.7c-.2,0-.3,0-.4-.2,0-.1-.2-.3-.2-.4v-2.7c0-.1,0-.3.2-.4,0-.1.2-.2.4-.2h40.5-.1Z"/>
</svg>