<?xml version="1.0" encoding="UTF-8"?>
<svg id="Layer_1" xmlns="http://www.w3.org/2000/svg" version="1.1" viewBox="0 0 25 25">
  <!-- Generator: Adobe Illustrator 29.4.0, SVG Export Plug-In . SVG Version: 2.1.0 Build 152)  -->
  <defs>
    <style>
      .st0 {
        fill: #fff;
      }
    </style>
  </defs>
  <path class="st0" d="M3.9,6.4c-.7,0-1.4.6-1.4,1.4v9.5c0,.7.6,1.4,1.4,1.4h17.3c.7,0,1.4-.6,1.4-1.4V7.7c0-.7-.6-1.4-1.4-1.4H3.9ZM4.1,7.3h16.7l-7.9,6.9c-.2.2-.6.2-.8,0,0,0-7.9-6.9-7.9-6.9ZM3.4,7.8l5.6,4.9-5.6,4.5V7.8ZM21.6,7.8v9.3l-5.6-4.5,5.6-4.9ZM9.7,13.3l1.8,1.5c.6.5,1.5.5,2,0l1.8-1.5,5.5,4.4H4.2l5.5-4.4h0Z"/>
</svg>