<?xml version="1.0" encoding="UTF-8"?>
<svg id="Layer_1" xmlns="http://www.w3.org/2000/svg" version="1.1" viewBox="0 0 25 25">
  <!-- Generator: Adobe Illustrator 29.8.3, SVG Export Plug-In . SVG Version: 2.1.1 Build 3)  -->
  <path d="M17.2,1.3h0c.9,0,1.6.7,1.6,1.6v16.5c0,.2,0,.4-.1.6h0c-.2.6-.8,1-1.5,1H4.8c-.9,0-1.6-.7-1.6-1.6V2.8c0-.9.7-1.6,1.6-1.6h12.3ZM17.2,0h0S4.9,0,4.9,0C3.3,0,2,1.3,2,2.8s0,16.5,0,16.5c0,1.6,1.3,2.8,2.8,2.8h12.3c1.6,0,2.8-1.3,2.8-2.8,0,0,0-16.5,0-16.5C20,1.3,18.7,0,17.2,0h0ZM20.9,1.8c0,.3.1.7.1,1.1v.4c.4.3.7.8.7,1.3v17.6c0,.2,0,.4-.1.6-.2.6-.8,1-1.5,1H7.8c-.5,0-.9-.2-1.2-.5h-1.4c.4,1.1,1.4,1.8,2.6,1.8h12.3c1.6,0,2.8-1.3,2.8-2.8V4.5c0-1.3-.9-2.4-2.1-2.7h0Z"/>
</svg>