<?xml version="1.0" encoding="UTF-8"?>
<svg id="Layer_1" xmlns="http://www.w3.org/2000/svg" version="1.1" viewBox="0 0 25 25">
  <!-- Generator: Adobe Illustrator 29.2.1, SVG Export Plug-In . SVG Version: 2.1.0 Build 116)  -->
  <defs>
    <style>
      .st0 {
        fill: #f73540;
      }
    </style>
  </defs>
  <path class="st0" d="M12.5,0C5.6,0,0,5.6,0,12.5s5.6,12.5,12.5,12.5,12.5-5.6,12.5-12.5S19.4,0,12.5,0ZM12.5,22.7c-5.6,0-10.2-4.6-10.2-10.2S6.9,2.3,12.5,2.3s10.2,4.6,10.2,10.2-4.6,10.2-10.2,10.2Z"/>
  <polygon class="st0" points="16.5 6.9 12.5 10.9 8.5 6.9 6.9 8.5 10.9 12.5 6.9 16.5 8.5 18.1 12.5 14.1 16.5 18.1 18.1 16.5 14.1 12.5 18.1 8.5 16.5 6.9"/>
</svg>