<?xml version="1.0" encoding="UTF-8"?>
<svg id="Layer_1" xmlns="http://www.w3.org/2000/svg" version="1.1" viewBox="0 0 122.4 44.8">
  <!-- Generator: Adobe Illustrator 29.6.1, SVG Export Plug-In . SVG Version: 2.1.1 Build 9)  -->
  <path d="M44.4,40.5h9v-4.2h-19.3c-1.5,0-2.8-1.3-2.8-2.8V2.8C31.2,1.3,32.5,0,34,0h52.3c1.5,0,2.8,1.3,2.8,2.8v30.6c0,1.5-1.3,2.8-2.8,2.8h-19.3v4.2h9c2,0,3.5,1.6,3.5,3.5v.8h-38.7v-.8c0-2,1.6-3.5,3.5-3.5ZM86.4,34.7c.7,0,1.3-.6,1.3-1.3V2.8c0-.7-.6-1.3-1.3-1.3h-52.3c-.7,0-1.3.6-1.3,1.3v30.6c0,.7.6,1.3,1.3,1.3,0,0,52.3,0,52.3,0ZM55,40.5h10.5v-4.2h-10.5v4.2ZM76,42h-31.6c-.9,0-1.7.6-1.9,1.3h35.4c-.3-.8-1-1.3-2-1.3h0Z"/>
</svg>