<?xml version="1.0" encoding="UTF-8"?>
<svg id="Layer_1" xmlns="http://www.w3.org/2000/svg" version="1.1" viewBox="0 0 94.7 73.3">
  <!-- Generator: Adobe Illustrator 29.6.1, SVG Export Plug-In . SVG Version: 2.1.1 Build 9)  -->
  <path d="M21.5,66.1h14.7v-6.9H4.6c-2.5,0-4.6-2.1-4.6-4.6V4.6C0,2.1,2.1,0,4.6,0h85.5c2.5,0,4.6,2.1,4.6,4.6v50c0,2.5-2.1,4.6-4.6,4.6h-31.6v6.9h14.7c3.2,0,5.8,2.6,5.8,5.8v1.3H15.7v-1.3c0-3.2,2.6-5.8,5.8-5.8ZM90.1,56.7c1.2,0,2.1-1,2.1-2.1V4.6c0-1.2-1-2.1-2.1-2.1H4.6c-1.2,0-2.1,1-2.1,2.1v50c0,1.2,1,2.1,2.1,2.1h85.5ZM38.8,66.1h17.2v-6.9h-17.2v6.9ZM73.2,68.6H21.5c-1.4,0-2.7.9-3.1,2.2h57.9c-.5-1.3-1.7-2.2-3.2-2.2Z"/>
</svg>