<?xml version="1.0" encoding="UTF-8"?>
<svg id="Layer_1" xmlns="http://www.w3.org/2000/svg" version="1.1" viewBox="0 0 25 25">
  <!-- Generator: Adobe Illustrator 29.4.0, SVG Export Plug-In . SVG Version: 2.1.0 Build 152)  -->
  <defs>
    <style>
      .st0 {
        fill: #fff;
      }
    </style>
  </defs>
  <path class="st0" d="M18,25c-.1,0-.2,0-.3,0l-6.4-4.2h-5.8c-1.8,0-3.3-1.5-3.3-3.3V3.3c0-1.8,1.5-3.3,3.3-3.3h14c1.8,0,3.3,1.5,3.3,3.3v14c0,1.8-1.5,3.3-3.3,3.3h-2.5l1.5,3.6c0,.2,0,.5-.2.6,0,0-.2.1-.3.1ZM5.5,1.1c-1.3,0-2.3,1-2.3,2.3v14c0,1.3,1,2.3,2.3,2.3h6c.1,0,.2,0,.3,0l5.1,3.4-1.1-2.7c0-.2,0-.3,0-.5,0-.1.3-.2.4-.2h3.2c1.3,0,2.3-1,2.3-2.3V3.3c0-1.3-1-2.3-2.3-2.3H5.5Z"/>
  <path class="st0" d="M11.6,12.8h0c0-.7,0-1.2.2-1.6.1-.4.3-.7.6-.9.2-.2.5-.5.9-.7.2-.1.4-.3.5-.4.2-.2.3-.4.4-.6,0-.2.1-.5.1-.7s0-.6-.2-.9c-.2-.2-.4-.4-.6-.6-.3-.1-.6-.2-.9-.2s-.6,0-.8.2c-.3.1-.5.3-.7.5-.2.3-.3.6-.3,1h-1.3c0-.6.2-1.1.5-1.5.3-.4.6-.7,1.1-1,.5-.2,1-.3,1.5-.3s1.1.1,1.6.4c.4.2.8.6,1,1,.2.4.4.9.4,1.4s0,.7-.2,1c-.1.3-.3.6-.5.8-.2.2-.5.5-.8.6-.3.2-.5.4-.7.6-.2.2-.3.5-.4.7s-.1.6-.1,1.1h0c0,0-1.2,0-1.2,0ZM12.3,15.9c-.3,0-.5,0-.7-.3s-.3-.4-.3-.7,0-.5.3-.7.4-.3.7-.3.5,0,.7.3.3.4.3.7,0,.3-.1.5c0,.1-.2.3-.3.3s-.3.1-.5.1Z"/>
</svg>