<?xml version="1.0" encoding="UTF-8"?>
<svg id="Layer_1" xmlns="http://www.w3.org/2000/svg" version="1.1" viewBox="0 0 25 25">
  <!-- Generator: Adobe Illustrator 29.6.1, SVG Export Plug-In . SVG Version: 2.1.1 Build 9)  -->
  <defs>
    <style>
      .st0 {
        fill: #fff;
      }
    </style>
  </defs>
  <path class="st0" d="M15.3,13.8v-.2s0,0,0,0c0-.3,0-.6-.2-.9.4-.3.6-.7.7-1.2,0-.4,0-.7-.2-1,.4-.3.6-.7.7-1.2,0-.5-.1-1-.4-1.3,0,0-.2-.2-.2-.2.2-.3.3-.7.2-1,0-.8-.9-1.5-1.7-1.5h-.2s0,0-.1,0c0,0,0,0-.1,0h-2.8l.7-1.6c.5-1.2.2-2.7-.9-3.5-.4-.3-1.1-.2-1.4.2l-3.1,4.2c-.2.3-.4.5-.5.8-.2,0-.4-.1-.6-.1h-1.8c-.8,0-1.5.7-1.5,1.5v7.1c0,.8.7,1.5,1.5,1.5h1.8c.4,0,.7-.2,1-.4.3.3.8.4,1.2.4h6.3c.9,0,1.7-.7,1.7-1.5ZM10.4,3.2l-1.1,2.4c0,.2,0,.4,0,.6.1.2.3.3.5.3h3.7s0,0,.1,0c0,0,0,0,.1,0h.2c.3,0,.6.2.6.5,0,.2,0,.3-.1.4-.1.1-.2.2-.4.2-.3,0-.6.3-.6.6s.3.6.6.6h.4c.1,0,.3,0,.4.2.1.1.1.3.1.4,0,.3-.3.5-.6.5h-.4c-.3,0-.6.3-.6.6s.3.6.6.6.3,0,.4.2c.1.1.1.3.1.4,0,.3-.3.5-.6.5h-.4c-.3,0-.6.3-.6.6s.3.6.6.6.3,0,.4.2c.1.1.1.3.1.4,0,.3-.3.5-.6.5h-6.3c-.4,0-.7-.3-.7-.7v-6.8c0-.3,0-.7.6-1.3l3-4.1c.6.5.7,1.3.4,2ZM5.3,6.8v7.1c0,.2-.1.3-.3.3h-1.8c-.2,0-.3-.1-.3-.3v-7.1c0-.2.1-.3.3-.3h1.8c.2,0,.3.1.3.3Z"/>
  <path class="st0" d="M23.2,15.6c0-.5-.3-.9-.7-1.2.2-.3.3-.7.2-1,0-.5-.3-.9-.7-1.2.2-.3.3-.7.2-1,0-.8-.9-1.5-1.7-1.5h-3.5c-.3,0-.6.3-.6.6s.3.6.6.6h3.5c.3,0,.6.2.6.5,0,.2,0,.3-.1.4-.1.1-.2.2-.4.2-.3,0-.6.3-.6.6s.3.6.6.6h.4c.3,0,.6.2.6.5,0,.2,0,.3-.1.4-.1.1-.2.2-.4.2-.3,0-.6.3-.6.6s.3.6.6.6h.4c.3,0,.6.2.6.5,0,.2,0,.3-.1.4-.1.1-.2.2-.4.2h-.4c-.3,0-.6.3-.6.6s.3.6.6.6.3,0,.4.2c.1.1.1.3.1.4,0,.3-.3.5-.6.5h-4.1c-.2,0-.4,0-.5.3-.1.2-.1.4,0,.6l1.1,2.4c.3.7.1,1.5-.4,2l-3-4.1c-.5-.6-.6-1-.6-1.3v-1.9c0-.3-.3-.6-.6-.6s-.6.3-.6.6v1.8c0,.2-.1.3-.3.3h-1.8c-.2,0-.3-.1-.3-.3v-1.8c0-.3-.3-.6-.6-.6s-.6.3-.6.6v1.8c0,.8.7,1.5,1.5,1.5h1.8c.2,0,.4,0,.6-.1.1.3.3.5.5.8l3.1,4.2c.2.3.5.4.8.4s.4,0,.6-.2c1.1-.8,1.4-2.2.9-3.5l-.7-1.6h3.2c.9,0,1.7-.7,1.7-1.5,0-.4,0-.7-.2-1,0,0,.2-.1.2-.2.3-.3.4-.7.4-1.1h0v-.2Z"/>
</svg>