<?xml version="1.0" encoding="UTF-8"?>
<svg id="Layer_1" xmlns="http://www.w3.org/2000/svg" version="1.1" viewBox="0 0 100 100">
  <!-- Generator: Adobe Illustrator 29.2.1, SVG Export Plug-In . SVG Version: 2.1.0 Build 116)  -->
  <defs>
    <style>
      .st0 {
        fill: #00f0c4;
      }
    </style>
  </defs>
  <path class="st0" d="M32.2,45.5v-.6c0-.3-.5-.6-.9-.6h-8.9c-.4,0-.8.3-.9.6l-1.9,5.8c0,.2-.1.4,0,.5,0,0,.3,0,.5,0h3.6s.2,0,.2,0-.1.3-.1.3l-6.4,6.7c-.2.2-.6.6-.9.9l-1.6,1.7h0c-.2.2-.3,0-.2-.2l.8-2.9c.1-.4.3-.9.4-1.3l.5-1.6c0-.3.2-.6.2-.8v-.3h-4c-.4,0-.5-.2-.3-.4s.6-.6.9-.9l2.7-2.8c.3-.3.6-.7.9-.9.2-.2.6-.6.9-.9l.5-.5c.3-.3.7-.7.9-1l.9-1c.3-.3.7-.7.9-.9.2-.2.5-.5.6-.6,0,0,.3-.4.6-.6l5.2-5.4c.3-.3.2-.6-.1-.8,0,0-.7-.4-1.4-.7-1.8-.8-3.8-1-5.7-.8-.6,0-1.1,0-1.7.3-1.5.3-3,.9-4.3,1.7-.9.5-1.7,1.1-2.5,1.7-1.8,1.5-3.4,3.5-4.4,5.7-.5,1.1-.9,2.3-1.2,3.4-.6,2.3-.6,4.7,0,6.7.3,1.4.9,2.7,1.6,3.8,0,0,0,0,0,.2.4.6.8,1.1,1.3,1.6.7.8,1.6,1.4,2.6,2,.5.3,1,.5,1.5.7.3,0,.6.2.9.3.5,0,1,.3,1.5.3,4.5.6,9.8-1.4,13.5-5.8.7-.8,1.3-1.7,1.8-2.7.7-1.2,1.2-2.5,1.6-3.8.3-1.1.5-2.2.5-3.3s0-2.2-.2-3.2l-.5.2Z"/>
  <path class="st0" d="M32.2,59.4l2.8-14.5v-.3l.2-.2h8.9c.4,0,.6.2.5.6l-.5,2.7c0,.3-.2.5-.7.5h-4.6l-.4,1.9h4.2c.4,0,.5.2.5.5l-.5,2.7c0,.4-.2.6-.7.6h-4.2l-.5,2.4h5.2c.3,0,.5.2.4.5l-.5,2.7v.3s0,0-.2.2h-9.5c-.3,0-.4,0-.5,0v-.4h.1Z"/>
  <path class="st0" d="M51.4,50.6h.2c.8-1.5,1.3-2.4,1.5-2.8l1.5-2.7c.2-.3.4-.6.6-.7.2,0,.4-.2.8-.2h3.2c.2,0,.4,0,.5.2v.4l-6.7,9.9-.9,4.6c0,.4-.3.6-.8.6h-3.2c-.5,0-.6-.2-.6-.6l.9-4.6h0l-2.6-9.8c0-.2,0-.4,0-.5s.3-.2.6-.2h2.9c.4,0,.6,0,.7,0,0,0,.2.3.3.6l.5,2.8c.2,1.2.3,2.1.4,2.8h0Z"/>
  <path class="st0" d="M65.7,44.2c1.6,0,2.9.2,3.8.7.7.3.9.8.7,1.2l-.6,1.7c0,.3-.3.6-.5.6h-.8c-1-.2-2-.3-2.8-.3s-.8,0-1,.2c-.2,0-.3.4-.3.8s.2.5.5.8l.5.2s.2,0,.4,0c.2,0,.4,0,.6.2.2,0,.3,0,.4.2.9.3,1.6.8,2,1.4.5.6.7,1.3.7,2.3,0,2.2-.8,3.8-2.3,4.7-1.3.8-3,1.2-4.9,1.2s-3.1-.3-4.1-.8c-.7-.3-.9-.7-.6-1.2l.6-1.7c0-.4.3-.6.5-.7h.9c1.4.2,2.6.3,3.5.3s1.5-.4,1.5-1.2,0-.5-.2-.6c-.2,0-.5-.3-.9-.4-1.1-.3-2-.8-2.8-1.3-.9-.7-1.3-1.7-1.3-3s.2-1.9.5-2.6c.3-.7.8-1.3,1.4-1.7.6-.4,1.3-.7,2-.9s1.5-.3,2.4-.3h.2Z"/>
  <path class="st0" d="M70,59.4l2.8-14.5v-.3s0,0,.2-.2h8.9c.4,0,.6.2.5.6l-.5,2.7c0,.3-.2.5-.7.5h-4.6l-.4,1.9h4.2c.4,0,.5.2.5.5l-.5,2.7c0,.4-.2.6-.7.6h-4.2l-.5,2.4h5.2c.3,0,.5.2.4.5l-.5,2.7v.3s0,0-.2.2h-9.5c-.3,0-.4,0-.5,0v-.4h0Z"/>
  <path class="st0" d="M85.6,44.4h5.4c1.2,0,2.2.3,2.9,1,.7.7,1.1,1.7,1.1,2.9,0,2.3-1,4-2.9,5.2l1.2,5.8c0,.2,0,.4,0,.5s-.3.2-.6.2h-2.9c-.7,0-1-.2-1.1-.6l-.6-5.1h-.6l-1,5.1c0,.4-.3.6-.8.6h-3.2c-.3,0-.4,0-.5,0,0,0,0-.2,0-.4l2.8-14.5c0-.2,0-.3.2-.4,0,0,.3,0,.6,0h0ZM89.6,48.1h-.9l-.5,2.5h.9c.3,0,.6,0,.9-.4.2-.3.4-.7.4-1.3s-.2-.8-.7-.8h-.1Z"/>
</svg>