<?xml version="1.0" encoding="UTF-8"?>
<svg id="Layer_1" xmlns="http://www.w3.org/2000/svg" version="1.1" viewBox="0 0 25 25">
   <defs>
   <style>
     :where(path, polygon, rect, circle, ellipse) { fill: #000; }
     @media (prefers-color-scheme: dark) {
       :where(path, polygon, rect, circle, ellipse) { fill: #fff; }
     }
   </style>
 </defs>
  <path d="M22.7,5.3c-.2-.3-.4-.5-.6-.8C19.8,1.8,16.4,0,12.5,0s0,0,0,0,0,0,0,0c0,0,0,0,0,0-3.8,0-7.2,1.8-9.5,4.5-.2.3-.4.5-.6.8C.9,7.3,0,9.8,0,12.5s.9,5.2,2.3,7.2c.2.3.4.5.6.8,2.3,2.7,5.7,4.5,9.5,4.5,0,0,0,0,0,0s0,0,0,0c0,0,0,0,0,0,3.9,0,7.3-1.8,9.6-4.5.2-.3.4-.5.6-.8,1.4-2,2.3-4.5,2.3-7.2,0-2.7-.9-5.2-2.3-7.2ZM8.8,1.6c-1.1,1.1-2.1,2.7-2.8,4.7-.9-.3-1.7-.7-2.4-1.2,1.3-1.6,3.1-2.8,5.1-3.5ZM3.1,5.9c.8.5,1.7,1,2.7,1.3-.4,1.6-.7,3.3-.7,5.1H1c0-2.4.8-4.6,2.1-6.5ZM1.1,13.4h4.1c0,1.5.3,3,.7,4.3-1,.4-1.9.8-2.7,1.3-1.1-1.6-1.9-3.6-2.1-5.7ZM3.7,19.9c.7-.4,1.5-.8,2.4-1.2.7,1.9,1.6,3.6,2.8,4.7-2-.7-3.8-1.9-5.1-3.5ZM12,23.9c-2.1-.3-3.9-2.4-5-5.6,1.5-.4,3.2-.7,5-.8v6.3ZM12,16.6c-1.9,0-3.7.3-5.2.8-.3-1.2-.5-2.6-.6-4h5.8v3.2ZM12,12.4h-5.9c0-1.7.2-3.3.6-4.8,1.6.5,3.4.8,5.2.8v4h0ZM12,7.4c-1.8,0-3.5-.3-4.9-.8,1-3.1,2.8-5.3,4.9-5.6v6.3ZM24,12.4h-4.1c0-1.8-.3-3.6-.7-5.1,1-.4,1.9-.8,2.7-1.4,1.3,1.8,2.1,4.1,2.1,6.5ZM21.3,5.1c-.7.5-1.5.9-2.4,1.2-.7-2-1.6-3.6-2.8-4.7,2.1.7,3.8,1.9,5.2,3.5ZM13,1.1c2.1.3,3.9,2.5,4.9,5.6-1.5.4-3.1.7-4.9.7V1.1ZM13,8.4c1.9,0,3.6-.3,5.2-.8.4,1.5.6,3.1.6,4.8h-5.8v-4ZM13,13.4h5.8c0,1.4-.3,2.8-.6,4-1.6-.5-3.3-.8-5.2-.8v-3.2h0ZM13,23.9v-6.3c1.8,0,3.4.3,4.9.7-1,3.1-2.8,5.2-4.9,5.6ZM16.1,23.4c1.2-1.1,2.1-2.8,2.8-4.7.9.3,1.7.7,2.4,1.2-1.4,1.6-3.2,2.9-5.2,3.5ZM21.9,19.1c-.8-.5-1.7-1-2.7-1.4.4-1.3.6-2.8.7-4.3h4.1c-.2,2.1-.9,4-2.1,5.7Z"/>
</svg>