<?xml version="1.0" encoding="UTF-8"?>
<svg id="Layer_1" xmlns="http://www.w3.org/2000/svg" version="1.1" viewBox="0 0 100 100">
  <!-- Generator: Adobe Illustrator 29.2.1, SVG Export Plug-In . SVG Version: 2.1.0 Build 116)  -->
  <defs>
    <style>
      .st0 {
        fill: #fff;
      }

      .st1 {
        fill: #146ec5;
      }
    </style>
  </defs>
  <g>
    <path class="st1" d="M69.8,12.3c4.5,4.5,8.9,9.2,13.5,13.6l.8,1.6v26l-.4,1.5-18,18.2-1,.7-28.2.2c-1.6,0-2.6-1.8-3.7-2.7-5.5-5.3-10.7-10.6-16.2-15.9l-.5-1.7v-25.9l.5-1.8,18.1-17.9,1.2-.7h28.3c.5,0,.9.3,1.3.6,1.3,1,3.1,3,4.4,4.2h0ZM42.5,37.5v-11.3l-.2-.2h-6.5l-.2.2v7.4l-.2.2h-6.7l-.2.4c.4.6,1.7,3.9,2.1,3.9h5.1v5.5h-5.1c-.4,0-.3.4-.5.6-.4.6-.8,1.4-1.1,2s-1,1.9-.4,1.9h6.7l.2.2v7.4l.2.2h6.8v-11.5c.6,0,1.3-.2,1.9-.2,3.7,0,8.2-.2,11.9,0s1.7,0,1.7.4v11l.2.2h6.5l.2-.2v-7.4l.2-.2h6.7l.2-.4c-.3-.6-1.7-3.9-2.1-3.9h-5.1v-5.5h5.1c.9-.7,1.2-2,1.7-3s.5-.6.5-1l-.2-.4h-6.7l-.2-.2v-7.4l-.2-.2h-6.8v11.5h-15.4Z"/>
    <path class="st0" d="M42.5,37.5h15.4v-11.5h6.8l.2.2v7.4l.2.2h6.7l.2.4c0,.4-.4.6-.5,1-.5,1.1-.8,2.3-1.7,3h-5.1v5.5h5.1c.5,0,1.9,3.3,2.1,3.9l-.2.4h-6.7l-.2.2v7.4l-.2.2h-6.5l-.2-.2v-11c0-.4-1.4-.4-1.7-.4-3.7-.2-8.2,0-11.9,0s-1.3,0-1.9.2v11.5h-6.8l-.2-.2v-7.4l-.2-.2h-6.7c-.6,0,.3-1.6.4-1.9.3-.6.7-1.4,1.1-2s0-.5.5-.6h5.1v-5.5h-5.1c-.5,0-1.9-3.4-2.1-3.9l.2-.4h6.7l.2-.2v-7.4l.2-.2h6.5l.2.2v11.3h0Z"/>
  </g>
  <g id="Vv4QIQ">
    <g>
      <path class="st1" d="M76.8,95.3v-9.2c0,0-.8-.6-.6-.8,4.8,0,10.8-1.4,10.6,5.3s-5.7,4.7-10,4.7ZM79.1,93.6c7.6,1,7.6-7.8,0-6.7v6.7Z"/>
      <path class="st1" d="M30.2,95.3v-10c3.2.3,7.4-1.1,9.4,2s1.3,4,0,6c-2,3.1-6.2,1.7-9.4,2ZM32.4,93.6c7.6,1.1,8.2-7.9,0-6.7v6.7Z"/>
      <polygon class="st1" points="5.2 85.3 7.4 85.3 7.4 89.2 13.5 89.2 13.5 85.3 15.7 85.3 15.7 95.3 13.5 95.3 13.5 91.4 7.4 91.4 7.4 95.3 5.2 95.3 5.2 85.3"/>
      <polygon class="st1" points="51.8 85.3 54.1 85.3 54.1 89.2 60.2 89.2 60.2 85.3 62.4 85.3 62.4 95.3 60.2 95.3 60.2 91.4 54.1 91.4 54.1 95.3 51.8 95.3 51.8 85.3"/>
      <path class="st1" d="M66.1,85.4c1-.3,5.5-.3,6.5,0,3.5,1,3.7,8.1.4,9.6s-5.2.5-6.4.3c-3.7-.6-3.4-9-.5-9.9ZM72.9,86.9h-6.7v6.7c1.4-.2,5.7.6,6.4-.5l.2-6.1h0Z"/>
      <path class="st1" d="M20,85.4c1.1-.3,4.8-.3,6,0,3.7.6,3.4,8.3.3,9.7s-5.2.5-6.3.2c-3.4-1-4.1-8.6,0-9.8ZM26.3,86.9h-6.7v6.7h6.7v-6.7Z"/>
      <path class="st1" d="M44.1,85.3v8.3h6.1v1.7c-1.4,0-8.3.6-8.3-1.4v-8.6h2.2Z"/>
      <path class="st1" d="M90.7,85.3v8.3h4.4v1.7c-1.2,0-6.7.4-6.7-1.4v-8.6h2.3Z"/>
    </g>
  </g>
</svg>