<?xml version="1.0" encoding="UTF-8"?>
<svg id="Layer_1" xmlns="http://www.w3.org/2000/svg" version="1.1" viewBox="0 0 25 25">
  <!-- Generator: Adobe Illustrator 29.8.2, SVG Export Plug-In . SVG Version: 2.1.1 Build 3)  -->
  <path d="M22.6,2.9L12.8,0c-.2,0-.4,0-.6,0L2.4,2.9c-.4.1-.7.5-.8,1v6.8c0,9,10,14,10.4,14.2.1,0,.3.1.5.1s.3,0,.5-.1c.4-.2,10.4-5.1,10.4-14.2V3.9c0-.5-.4-.9-.8-1ZM21.3,4.7v6.1c0,6.8-6.9,11-8.8,12.1-1.9-1-8.8-5.3-8.8-12.1v-6.1l8.8-2.5,8.8,2.5Z"/>
  <path d="M9.8,6.4v2h-2c-.6,0-1,.5-1,1v3.4c0,.6.5,1,1,1h2v2c0,.6.5,1,1,1h3.4c.6,0,1-.5,1-1v-2h2c.6,0,1-.5,1-1v-3.4c0-.6-.5-1-1-1h-2v-2c0-.6-.5-1-1-1h-3.4c-.6,0-1,.5-1,1ZM14.2,10.5h2v1.3h-2c-.6,0-1,.5-1,1v2h-1.3v-2c0-.6-.5-1-1-1h-2v-1.3h2c.6,0,1-.5,1-1v-2h1.3v2c0,.6.5,1,1,1Z"/>
</svg>