<?xml version="1.0" encoding="UTF-8"?>
<svg id="Layer_1" xmlns="http://www.w3.org/2000/svg" version="1.1" viewBox="0 0 25 25">
  <!-- Generator: Adobe Illustrator 29.8.2, SVG Export Plug-In . SVG Version: 2.1.1 Build 3)  -->
  <path d="M25,16.1c0-.8-.3-1.6-.9-2.1.2-.8.2-1.6-.3-2.3-.4-.7-1.1-1.2-1.9-1.4-.2-.8-.7-1.5-1.4-1.9-.7-.4-1.5-.5-2.3-.3-.5-.6-1.3-.9-2.1-.9h0c-.8,0-1.6.3-2.1.9-.8-.2-1.6-.2-2.3.3-.7.4-1.2,1.1-1.4,1.9-.8.2-1.5.7-1.9,1.4-.4.7-.5,1.5-.3,2.3-.6.5-.9,1.3-.9,2.1,0,.8.3,1.6.9,2.1-.2.8-.2,1.6.3,2.3.4.7,1.1,1.2,1.9,1.4.2.8.7,1.5,1.4,1.9.7.4,1.5.5,2.3.3.5.6,1.3.9,2.1.9h0c.8,0,1.6-.3,2.1-.9.8.2,1.6.2,2.3-.3.7-.4,1.2-1.1,1.4-1.9.8-.2,1.5-.7,1.9-1.4.4-.7.5-1.5.3-2.3.6-.5.9-1.3.9-2.1ZM22.5,17.1c-.3.1-.4.3-.5.6,0,.3,0,.6.1.8.3.4.3.8,0,1.2-.2.4-.6.6-1,.5-.3,0-.5,0-.7.3-.2.2-.3.5-.3.8,0,.2,0,.4-.1.6-.1.3-.4.5-.7.6-.3,0-.6,0-.9-.2-.2-.2-.5-.2-.8-.1-.3,0-.5.3-.6.5,0,.2-.2.3-.4.5-.3.2-.6.2-.9.1-.3,0-.5-.3-.7-.6-.1-.3-.3-.4-.6-.5,0,0-.2,0-.2,0-.2,0-.4,0-.5.2-.2.1-.4.2-.6.2-.3,0-.6-.1-.8-.3-.2-.2-.3-.5-.3-.9,0-.3,0-.5-.3-.7-.2-.2-.5-.3-.8-.3-.2,0-.4,0-.6-.1-.3-.1-.5-.4-.6-.7s0-.6.2-.9c.2-.2.2-.5.1-.8,0-.3-.3-.5-.5-.6-.2,0-.3-.2-.5-.4-.2-.3-.2-.6-.1-.9,0-.3.3-.5.6-.7.3-.1.4-.3.5-.6,0-.3,0-.6-.1-.8-.1-.2-.2-.4-.2-.6,0-.3.1-.6.3-.8.2-.2.5-.3.9-.3.3,0,.6,0,.7-.3.2-.2.3-.5.3-.8,0-.2,0-.4.1-.6.1-.3.4-.5.7-.6.3,0,.6,0,.9.2.2.2.5.2.8.1.3,0,.5-.3.6-.5,0-.2.2-.3.4-.5.3-.2.6-.2.9-.1.3,0,.5.3.7.6.1.3.3.4.6.5.3,0,.6,0,.8-.1.3-.3.8-.3,1.2,0,.4.2.6.6.5,1,0,.3,0,.5.3.7.2.2.5.3.8.3.2,0,.4,0,.6.1.3.1.5.4.6.7,0,.3,0,.6-.2.9-.2.2-.2.5-.1.8,0,.1.1.3.2.4,0,.1.2.2.3.2,0,0,.2,0,.3.2,0,0,0,0,0,0,0,0,.1.1.2.2.2.3.2.6.1.9,0,.3-.3.5-.6.7Z"/>
  <path d="M16.1,10.7c-3,0-5.5,2.5-5.5,5.5s2.5,5.5,5.5,5.5,5.5-2.5,5.5-5.5-2.5-5.5-5.5-5.5ZM13.5,18.7c-1.4-1.4-1.4-3.8,0-5.2.7-.7,1.7-1.1,2.6-1.1s1.9.4,2.6,1.1c1.4,1.4,1.4,3.8,0,5.2s-3.8,1.4-5.2,0Z"/>
  <path d="M8.3,21.3H3c-.7,0-1.2-.5-1.2-1.2V3c0-.5.3-1,.8-1.1v4.6c0,.4.2.7.6.8.3.1.7,0,1-.2l1.3-1.3,1.3,1.2c.3.3.7.4,1,.2.3-.1.6-.5.6-.8V1.8h4.2v2.9c0,.5.4.9.9.9h2.9v.4c0,.5.4.9.9.9s.9-.4.9-.9v-1.3c0-.2,0-.5-.3-.6L14,.3C13.9,0,13.6,0,13.4,0H3C1.4,0,0,1.4,0,3v17.1C0,21.8,1.4,23.2,3,23.2h5.3c.5,0,.9-.4.9-.9s-.4-.9-.9-.9ZM6.5,1.8v2.5l-.4-.4c-.4-.3-.9-.3-1.3,0-.1.1-.3.2-.4.4V1.8h2Z"/>
  <path d="M18.8,14.2c-.4-.4-.9-.4-1.3,0l-2.3,2.3-.7-.7c-.4-.4-.9-.4-1.3,0-.4.4-.4.9,0,1.3l1.3,1.3c.2.2.4.3.6.3s0,0,0,0,0,0,0,0c.2,0,.5,0,.6-.3l2.9-2.9c.2-.2.3-.4.3-.6s0-.5-.3-.6Z"/>
</svg>