<?xml version="1.0" encoding="UTF-8"?>
<svg id="Layer_1" xmlns="http://www.w3.org/2000/svg" version="1.1" viewBox="0 0 100 100">
  <!-- Generator: Adobe Illustrator 29.6.1, SVG Export Plug-In . SVG Version: 2.1.1 Build 9)  -->
  <polygon points="54.2 32.7 76.7 18.2 89.3 18.2 63.3 36.5 93.1 36.5 81.9 44 54.2 44.2 54.2 62.1 45.8 67.8 45.8 48 23.3 62.5 10 62.5 36.7 44.2 6.9 44.2 18.1 36.7 45.8 36.5 45.8 18.6 54.2 12.9 54.2 32.7"/>
  <g>
    <path d="M27.5,87.5c-.6,4.5-7.6,4.8-8.7.6h1.9c1.9,2.8,5.5,1.1,4.7-2.3-1.3,1.4-2.5,1.9-4.4,1.3s-2.9-3.3-2.7-5.6c.3-3.9,4.6-5.2,7.1-2.4v-1.4s2.1,0,2.1,0v9.8ZM22.1,79.3c-2.6.6-2.4,6.4.8,6.3,3.5-.1,3.2-6,.7-6.4s-1.1,0-1.6,0Z"/>
    <path d="M55.1,86.2v4c-.5.6-1.4.3-2.1.3v-12.9h2.1s0,1.4,0,1.4c4-3.6,8-.2,7.3,4.7s-4.7,5.3-7.3,2.4ZM56.8,79.3c-2.3.5-2.5,5.3-.3,6.4,4.4,2.4,5.5-7.6.3-6.4Z"/>
    <path d="M72.3,87.6h-2.1s0-1.4,0-1.4c-.4.2-.4.6-.8.9-1.2.8-2.7.9-3.9.3-2.4-1.1-2.8-4.7-2.1-7s4.8-3.8,6.8-1.3v-1.4s2.1,0,2.1,0v9.9ZM66.9,79.3c-2.2.5-2.6,6.2.5,6.8s4.4-7.8-.5-6.8Z"/>
    <path d="M81.7,74.2v7.6c1.5-1.1,2.4-2.7,3.7-4h2.5c0-.1-3.5,3.9-3.5,3.9l3.9,5.9h-2.5s-2.9-4.4-2.9-4.4c-1.7,1.1-1.2,2.5-1.3,4.4h-2.1v-13.3h2.1Z"/>
    <path d="M30.9,74.5v4.6c1.2-1.5,4.5-2.2,5.8-.5s.7,1.8.7,2v7h-2.1v-7c0-.2-.8-1.1-1.1-1.2-1.1-.3-2.2,0-2.8,1s-.5,1.3-.5,1.4v5.9h-1.8v-12.9l1.8-.2Z"/>
    <path d="M51.8,80.4c-.5,0-1.2.1-1.7,0s-.4-.6-.8-.9c-1.1-.9-3.8-.6-3.5,1.2.4,1.2,5.8.5,6.2,3.3.7,4.9-8.2,5-8.3.3h1.8c.3,1.1,1.1,1.8,2.2,1.8s3.1-.7,2.1-2.1-5-.3-5.9-2.9c-1.5-4.3,7.6-5.3,7.8-.8Z"/>
    <path d="M41.3,85.4c.2.8,1.6.5,1.8.6s.6,1.4.5,1.6c-2.6,0-4.1.4-4.4-2.6s.1-3.8,0-5.6c-1.1.2-1.3-.6-1.6-1.5h1.6c0-.1,0-2.6,0-2.6h2.1s0,2.5,0,2.5h2.1s0,1.5,0,1.5h-2.1v6.2Z"/>
    <rect x="11.6" y="74.2" width="1.8" height="13.3"/>
    <path d="M73.9,77.7h1.8s0,1.6,0,1.6c.9-1,1.7-1.8,3.2-1.6v2.1c-1,0-2.2-.2-2.7.8s-.5,1.3-.5,1.4v5.6h-1.8v-9.9Z"/>
    <rect x="15.1" y="77.7" width="2.1" height="9.9"/>
    <path d="M17.1,74.2v2.1s-2.1,0-2.1,0c-.2-2,0-2.3,2.1-2.1Z"/>
  </g>
</svg>