<?xml version="1.0" encoding="UTF-8"?>
<svg id="Layer_1" xmlns="http://www.w3.org/2000/svg" version="1.1" viewBox="0 0 25 25">
  <!-- Generator: Adobe Illustrator 29.6.1, SVG Export Plug-In . SVG Version: 2.1.1 Build 9)  -->
  <defs>
    <style>
      .st0 {
        fill: #fff;
      }
    </style>
  </defs>
  <path class="st0" d="M19.8,11.1l-10.7,13.8c0,0-.2.1-.3.1,0,0-.1,0-.2,0-.2,0-.3-.3-.2-.5l2.9-9.5h-5.7c-.1,0-.3,0-.3-.2,0-.1,0-.3,0-.4L15.6.1c.1-.2.4-.2.5,0,.1,0,.2.2.2.4l-1.4,10h4.5c.1,0,.3,0,.4.2,0,.1,0,.3,0,.4Z"/>
</svg>