<?xml version="1.0" encoding="UTF-8"?>
<svg id="Layer_1" xmlns="http://www.w3.org/2000/svg" version="1.1" viewBox="0 0 42 80">
  <!-- Generator: Adobe Illustrator 29.6.1, SVG Export Plug-In . SVG Version: 2.1.1 Build 9)  -->
  <defs>
    <style>
      .st0 {
        fill-rule: evenodd;
      }
    </style>
  </defs>
  <path d="M14,6c0-1.1.9-2,2-2h10c1.1,0,2,.9,2,2s-.9,2-2,2h-10c-1.1,0-2-.9-2-2Z"/>
  <path class="st0" d="M9.3,0C8.3,0,7.4,0,6.6,0c-.8,0-1.6.2-2.3.6-1.1.6-2,1.5-2.6,2.6-.4.8-.5,1.5-.6,2.3,0,.8,0,1.7,0,2.7v7.7c-.6,0-1,.4-1,1v4c0,.6.4,1,1,1v1c-.6,0-1,.4-1,1v4c0,.6.4,1,1,1v42.7c0,1.1,0,2,0,2.7,0,.8.2,1.6.6,2.3.6,1.1,1.5,2,2.6,2.6.8.4,1.5.5,2.3.6.8,0,1.7,0,2.7,0h23.4c1.1,0,2,0,2.7,0,.8,0,1.6-.2,2.3-.6,1.1-.6,2-1.5,2.6-2.6.4-.8.5-1.5.6-2.3,0-.8,0-1.7,0-2.7V29c.6,0,1-.4,1-1v-11c0-.6-.4-1-1-1v-7.7c0-1.1,0-2,0-2.7,0-.8-.2-1.6-.6-2.3-.6-1.1-1.5-2-2.6-2.6-.8-.4-1.5-.5-2.3-.6-.8,0-1.7,0-2.7,0H9.3ZM3,8.4c0-2.2,0-3.4.4-4.2.4-.8,1-1.4,1.7-1.7.9-.4,2-.4,4.2-.4h23.2c2.2,0,3.4,0,4.2.4.8.4,1.4,1,1.7,1.7.4.9.4,2,.4,4.2v63.2c0,2.2,0,3.4-.4,4.2-.4.8-1,1.4-1.7,1.7-.9.4-2,.4-4.2.4H9.4c-2.2,0-3.4,0-4.2-.4-.8-.4-1.4-1-1.7-1.7-.4-.9-.4-2-.4-4.2V8.4Z"/>
  <path d="M12,75.5c0-.3.2-.5.5-.5h17c.3,0,.5.2.5.5s-.2.5-.5.5H12.5c-.3,0-.5-.2-.5-.5Z"/>
</svg>