<?xml version="1.0" encoding="UTF-8"?>
<svg id="Layer_1" xmlns="http://www.w3.org/2000/svg" version="1.1" viewBox="0 0 122.4 44.8">
  <!-- Generator: Adobe Illustrator 29.6.1, SVG Export Plug-In . SVG Version: 2.1.1 Build 9)  -->
  <defs>
    <style>
      .st0 {
        font-family: ArialMT, Arial;
        font-size: 19px;
      }
    </style>
  </defs>
  <g>
    <path d="M5.4,0C2.4,0,0,2.4,0,5.3v34.1c0,2.9,2.4,5.4,5.4,5.4h15.6c2.9,0,5.4-2.4,5.4-5.4V5.3C26.3,2.4,23.8,0,20.9,0H5.4ZM24.6,5.3v34.1c0,2-1.6,3.7-3.7,3.7H5.4c-2,0-3.7-1.6-3.7-3.7V5.3c0-2,1.6-3.7,3.7-3.7h15.6c2,0,3.7,1.6,3.7,3.7Z"/>
    <path d="M15.4,3.1h-4.6c-.5,0-.8.4-.8.8s.4.8.8.8h4.6c.5,0,.8-.4.8-.8s-.4-.8-.8-.8Z"/>
  </g>
  <path d="M77.6,40.5h9v-4.2h-19.3c-1.5,0-2.8-1.3-2.8-2.8V2.8c0-1.5,1.3-2.8,2.8-2.8h52.3c1.5,0,2.8,1.3,2.8,2.8v30.6c0,1.5-1.3,2.8-2.8,2.8h-19.3v4.2h9c2,0,3.5,1.6,3.5,3.5v.8h-38.7v-.8c0-2,1.6-3.5,3.5-3.5ZM119.6,34.7c.7,0,1.3-.6,1.3-1.3V2.8c0-.7-.6-1.3-1.3-1.3h-52.3c-.7,0-1.3.6-1.3,1.3v30.6c0,.7.6,1.3,1.3,1.3,0,0,52.3,0,52.3,0ZM88.2,40.5h10.5v-4.2h-10.5v4.2ZM109.2,42h-31.6c-.9,0-1.7.6-1.9,1.3h35.4c-.3-.8-1-1.3-2-1.3h0Z"/>
  <text class="st0" transform="translate(38.9 27.8)"><tspan x="0" y="0">+</tspan></text>
</svg>