<?xml version="1.0" encoding="UTF-8"?>
<svg id="Layer_1" xmlns="http://www.w3.org/2000/svg" version="1.1" viewBox="0 0 122.4 44.8">
   <defs>
   <style>
     :where(path, polygon, rect, circle, ellipse) { fill: #000; }
     @media (prefers-color-scheme: dark) {
       :where(path, polygon, rect, circle, ellipse) { fill: #fff; }
     }
   </style>
 </defs>
  <path d="M53.4,0c-2.9,0-5.4,2.4-5.4,5.4v34.1c0,2.9,2.4,5.4,5.4,5.4h15.6c2.9,0,5.4-2.4,5.4-5.4V5.3c0-2.9-2.4-5.4-5.4-5.4h-15.6ZM72.6,5.3v34.1c0,2-1.6,3.7-3.7,3.7h-15.6c-2,0-3.7-1.6-3.7-3.7V5.3c0-2,1.6-3.7,3.7-3.7h15.6c2,0,3.7,1.6,3.7,3.7Z"/>
  <path d="M63.5,3.1h-4.6c-.5,0-.8.4-.8.8s.4.8.8.8h4.6c.5,0,.8-.4.8-.8s-.4-.8-.8-.8Z"/>
</svg>