<?xml version="1.0" encoding="UTF-8"?>
<svg id="Layer_1" xmlns="http://www.w3.org/2000/svg" version="1.1" viewBox="0 0 100 100">
  <!-- Generator: Adobe Illustrator 29.2.1, SVG Export Plug-In . SVG Version: 2.1.0 Build 116)  -->
  <defs>
    <style>
      .st0 {
        fill: #0073d4;
      }
    </style>
  </defs>
  <path class="st0" d="M28.2,56.1h-3.4v-11.2c0-.2-.5-1.1-.8-1.3-1.2-1-4.7-.9-6,.2v12.4h-3v-11.4c0-.1-.6-1-.8-1.1-1.3-1.1-4.4-.7-5.8,0v12.5h-3.4v-15c.8-.5,2-.6,3-.8,1.9-.3,4-.5,5.9-.2s2,.7,2.7.7c1.1,0,3.1-.9,4.6-.9,2.4,0,5.5,1,6.4,3.3s.6,2.1.6,2.6v10.3Z"/>
  <path class="st0" d="M61.4,39.9v10.8c0,0,.3.8.4.9,1.2,2.1,5.5,1.5,7.5.9v-12.6h3.4v15c-.5.4-1.4.5-2,.6-3.6.7-10.1,1.4-12-2.6s-.5-1.4-.5-1.5v-11.4h3.2Z"/>
  <path class="st0" d="M39.2,39.9v11.2c0,.1.6,1,.8,1.1,1.7,1.4,5.2.8,7.2.3v-12.6h3.2v15c-.8.4-2,.7-3,.8-4.1.6-11.5.8-11.5-5.1v-10.7h3.4Z"/>
  <path class="st0" d="M95,56.1h-3.2v-10.5c0-.1-.4-1.3-.6-1.5-1.2-1.9-5.7-1.1-7.5-.7v12.6h-3.2v-15c1.4-.6,3.3-.9,4.8-1,2.9-.3,7.4-.2,9,2.9s.7,1.6.7,2v11.2Z"/>
</svg>