<?xml version="1.0" encoding="UTF-8"?>
<svg id="Layer_1" xmlns="http://www.w3.org/2000/svg" version="1.1" viewBox="0 0 100 100">
  <!-- Generator: Adobe Illustrator 29.6.1, SVG Export Plug-In . SVG Version: 2.1.1 Build 9)  -->
  <defs>
    <style>
      .st0 {
        fill: #f9c132;
      }

      .st1 {
        fill: #f7931a;
      }
    </style>
  </defs>
  <path class="st0" d="M7.8,41.2l3.9,8,3.7-8h4.4v15.6h-4.5v-7.4l-3.6,7.4-4-7.2v7.2h-.1c0,.1-4.2.1-4.2.1v-15.6h4.5-.1Z"/>
  <path class="st1" d="M46.5,41.2h4.3v15.6h-4.3l-6.1-7.8h-.3c0-.1,0,7.7,0,7.7h-.1c0,.1-6.3.1-6.3.1v-.2c-.1,0,4.2-7.2,4.2-7.2h0c-.2-.4-2.4-1.4-2.9-1.8v-.2c-.1,0,1.7-6.3,1.7-6.3h3.3c.4,0,.2,0,.3,0l6.2,7.9h.2v-7.9h-.2Z"/>
  <path class="st1" d="M69.9,41.4c0-.1.3-.2.4-.2,1.5-.2,3.3.1,5,0,3.7.1,6.8.7,8.5,4.4s0,9.8-4.6,11-1,.2-1.1.2h-8v-15.4h-.1ZM74.6,44.6h-.1v8.6h.1c0,.1,1.9.1,1.9.1,4.1,0,5.2-6.4,1.8-8.3s-1.1-.4-1.3-.4c0,0-2.3,0-2.3,0Z"/>
  <path class="st1" d="M59.6,40.7c6.1-.6,10,5.2,8.4,10.8-1.7,5.6-11,7.6-14.4,1.7-2.9-5.1,0-11.9,6.1-12.5ZM61,43.5l-1-.2c0,.2-.2,1.4-.4,1.5l-1.9-.3-.3,1c1.4.3,1.2.4,1,1.7s-.7,2.4-.9,3.6c-.3.3-.9-.2-1.1,0l-.4,1c0,.2,1.7.4,1.9.6l-.3,1.7,1,.2.3-1.5h.8l-.3,1.7,1,.3.4-1.7c1.5.2,2.9.3,3.5-1.3s.1-1.9-.9-2.3c1.1-.3,1.5-1.8.9-2.6s-1.1-.8-1.7-1.1l.3-1.5-1-.3-.3,1.7-.8-.2.3-1.5h-.1Z"/>
  <path class="st1" d="M96.7,41.2v3.4h-6.1v2.2h.1c0,.1,5.6.1,5.6.1l.2.2v3.3h-.1c0,.1-5.6.1-5.6.1h-.1v2.4h.1c0,.1,5.8.1,5.8.1h.1v3.5h-.1c0,.1-10.4.1-10.4.1h-.1v-15.6h10.7-.2Z"/>
  <path class="st0" d="M25.7,41.2v3.5l2.2,3.3,2.1-3.2v-3.6h5.2l-5.1,8.5v.2c0,.3,2.9,1.4,3,1.8l-1.5,5.2h-6v-4.2l-4.4-6.5v-5h4.5Z"/>
  <path class="st1" d="M59.1,51.4l.6-2.1c.9,0,3.1.8,2.3,2s-2.1.3-2.9.1Z"/>
  <path class="st1" d="M59.9,48.2l.4-1.9c.7,0,2.2.4,2.1,1.4s-1.8.7-2.5.4Z"/>
</svg>