<?xml version="1.0" encoding="UTF-8"?>
<svg id="Layer_1" xmlns="http://www.w3.org/2000/svg" version="1.1" viewBox="0 0 25 25">
  <!-- Generator: Adobe Illustrator 29.7.1, SVG Export Plug-In . SVG Version: 2.1.1 Build 8)  -->
  <defs>
    <style>
      .st0 {
        fill: #8d8d8d;
      }
    </style>
  </defs>
  <path class="st0" d="M12.5,25C5.6,25,0,19.4,0,12.5S5.6,0,12.5,0s12.5,5.6,12.5,12.5-5.6,12.5-12.5,12.5ZM12.5,2.3C6.9,2.3,2.3,6.9,2.3,12.5s4.6,10.2,10.2,10.2h0c5.6,0,10.2-4.6,10.2-10.2S18.1,2.3,12.5,2.3Z"/>
  <polygon class="st0" points="13.6 13.6 19.3 13.6 19.3 11.4 13.6 11.4 11.4 11.4 5.7 11.4 5.7 13.6 11.4 13.6 13.6 13.6"/>
</svg>