<?xml version="1.0" encoding="UTF-8"?>
<svg id="Layer_1" xmlns="http://www.w3.org/2000/svg" version="1.1" viewBox="0 0 25 25">
 <defs>
   <style>
     :where(path, polygon, rect, circle, ellipse) { fill: #000; }
     @media (prefers-color-scheme: dark) {
       :where(path, polygon, rect, circle, ellipse) { fill: #fff; }
     }
   </style>
 </defs>
  <path d="M25,13.3c0-3.4-1.4-6.7-3.9-9.1C16.1-.5,8.2-.3,3.4,4.7c-4.7,5-4.5,12.9.4,17.6.7.6,1.4,1.2,2.1,1.6h0c.7.4,1.7.2,2.1-.5,0,0,0-.2.1-.3l2-5.4c.4-1,.3-2.2-.2-3.1-.3-.5-.4-1.1-.3-1.6.1-1.3,1.2-2.4,2.5-2.5.1,0,.2,0,.3,0,.7,0,1.4.3,1.9.7.6.5.9,1.3.9,2.1,0,.5-.1.9-.3,1.3-.5,1-.6,2.1-.2,3.1l2,5.4c.3.8,1.2,1.2,2,.9,0,0,.2,0,.3-.1,3.7-2.3,6-6.3,6-10.6ZM19.1,20.9l-.4.4-1.6-4.4c-.1-.4-.1-.8,0-1.2,1.4-2.5.4-5.7-2.1-7.1s-5.7-.4-7.1,2.1c-.8,1.6-.8,3.4,0,5,.2.3.2.8,0,1.1l-1.6,4.4-.4-.4c-4.2-3.6-4.7-10-1-14.2,3.6-4.2,10-4.7,14.2-1,4.2,3.6,4.7,10,1,14.2-.3.4-.7.7-1,1h0Z"/>
</svg>