<?xml version="1.0" encoding="UTF-8"?>
<svg id="Layer_1" xmlns="http://www.w3.org/2000/svg" xmlns:xlink="http://www.w3.org/1999/xlink" version="1.1" viewBox="0 0 100 100">
  <!-- Generator: Adobe Illustrator 29.2.1, SVG Export Plug-In . SVG Version: 2.1.0 Build 116)  -->
  <defs>
    <style>
      .st0 {
        fill: url(#radial-gradient);
        fill-rule: evenodd;
      }

      .st1 {
        fill: #05a85a;
      }

      .st2 {
        fill: url(#radial-gradient1);
      }
    </style>
    <radialGradient id="radial-gradient" cx="1.3" cy="-.4" fx="1.3" fy="-.4" r=".3" gradientTransform="translate(226.1 -358.2) rotate(131.4) scale(294.7 333.3)" gradientUnits="userSpaceOnUse">
      <stop offset="0" stop-color="#ffa24c"/>
      <stop offset=".5" stop-color="#ff7a50"/>
      <stop offset="1" stop-color="#ff4d42"/>
    </radialGradient>
    <radialGradient id="radial-gradient1" cx="79.6" cy="13" fx="79.6" fy="13" r="60.2" gradientTransform="translate(0 100) scale(1 -1)" gradientUnits="userSpaceOnUse">
      <stop offset="0" stop-color="#ffa24c"/>
      <stop offset=".5" stop-color="#ff7a50"/>
      <stop offset="1" stop-color="#ff4d42"/>
    </radialGradient>
  </defs>
  <g>
    <path class="st1" d="M42.8,5.5c3-.3,5.6,1.4,6.5,4.3,0,.5.2,1,.2,1.6v3.4c0,1.2,0,.2-.2.2-.8,0-1.6,0-2.4-.3-2.5-.8-4.1-3.1-4.1-5.7v-3.2M57.1,10.5h0c.3,2.3-1.4,4.3-3.7,4.4-1.3,0-2.4-1.1-1.9-2.2.3-.6.6-1,1.2-1.5.6-.5,1.3-.7,2.1-.7h2.3Z"/>
    <path class="st0" d="M76,35c0,13.3-11.7,25.9-26,25.9s-10.1-1.7-14.2-4.4v13.2c0,3.3-2.7,5.9-5.9,5.9s-5.9-2.7-5.9-5.9v-34.3h0v-.5c0-11.5,8.7-19.2,20.4-18.3,3.8.3,7.5.3,11.3,0,11.7-.9,20.4,6.8,20.4,18.3h0ZM35.8,37.1h0c0-6.5,5.2-10.8,11.9-9.8,1.4.2,2.8.2,4.1,0,6.7-1,11.9,3.2,11.9,9.7s-6.2,13.9-13.9,13.9-13.9-6.7-13.9-13.8h0Z"/>
  </g>
  <path class="st2" d="M23.5,87.1c.7,0,1.2-.2,1.6-.5s.6-.8.6-1.5-.2-1.1-.6-1.4-.9-.5-1.7-.5-.5,0-.7,0h-.5v3.8h1.3ZM22.2,95c-.2,0-.5,0-.9,0h-2.1c-.3,0-.5,0-.7-.3-.2,0-.3-.4-.4-.6,0-.3-.1-.6-.1-1v-11.6c0-.3,0-.6.3-.8.2-.2.5-.4.8-.5.6-.2,1.2-.3,1.9-.4.7,0,1.4,0,2.2,0,2.3,0,4,.5,5.2,1.4,1.2,1,1.8,2.3,1.8,3.9s-.1,1.5-.4,2.2c-.2.6-.6,1.2-1.1,1.7s-1.1.8-1.9,1.1c-.8.2-1.6.4-2.6.4h-1.7v4.5h-.3ZM37.8,95.5c-1,0-1.9,0-2.7-.4s-1.5-.7-2.2-1.2c-.6-.5-1.1-1.2-1.4-2s-.5-1.8-.5-2.9.2-2,.5-2.8c.4-.8.8-1.4,1.4-1.9s1.2-.9,2-1.1c.7-.2,1.5-.4,2.3-.4s1.7,0,2.4.4,1.3.6,1.8,1.1.9,1,1.2,1.6.4,1.3.4,2.1-.2,1-.5,1.3-.7.5-1.3.6l-6.1.9c.2.5.5.9,1.1,1.2.6.3,1.2.4,1.9.4s1.3,0,1.9-.2c.6-.2,1.1-.4,1.5-.6.3.2.5.4.7.7.2.3.3.6.3.9,0,.7-.3,1.3-1,1.6-.5.3-1.1.5-1.8.6-.7,0-1.3,0-1.8,0h-.1ZM37.1,85.8c-.4,0-.7,0-1,.2-.3,0-.5.3-.7.5s-.3.4-.4.7c0,.2,0,.5,0,.8l4.2-.7c0-.3-.2-.7-.5-1s-.8-.5-1.4-.5h0ZM50.1,92.4h.9c.3,0,.6,0,.8-.2v-2h-1.8c-.5.2-.8.3-1.1.4s-.4.4-.4.7,0,.6.4.8c.3.2.7.3,1.3.3h-.1ZM49.9,82.8c.9,0,1.7,0,2.4.3.7.2,1.4.5,1.9.8.5.4.9.8,1.2,1.4s.4,1.2.4,2v5.5c0,.4,0,.8-.4,1.1-.2.3-.5.5-.8.7-1.1.6-2.6,1-4.5,1s-1.7,0-2.4-.2-1.3-.4-1.8-.7c-.5-.3-.9-.7-1.2-1.3-.3-.5-.4-1.1-.4-1.8,0-1.1.3-2,1-2.6s1.7-1,3.1-1.1l3.2-.3v-.2c0-.5-.2-.8-.6-1-.4-.2-1-.3-1.8-.3s-1.2,0-1.8.2c-.6,0-1.1.3-1.6.5-.2,0-.4-.4-.5-.7,0-.3-.2-.6-.2-1s0-.8.3-1c.2-.3.5-.5,1-.7s1-.3,1.7-.4c.7,0,1.3,0,1.8,0h0ZM65,86.1c-.4,0-.8,0-1.2.2-.4,0-.7.3-1,.6-.3.2-.5.6-.6.9-.2.4-.2.8-.2,1.3,0,1,.3,1.8.9,2.3.6.5,1.3.8,2.1.8s.9,0,1.3-.2c.4,0,.7-.2,1-.4.3.2.6.5.7.8.2.3.2.6.2,1,0,.7-.3,1.2-1,1.6-.6.4-1.5.5-2.7.5s-2,0-2.8-.4-1.6-.7-2.2-1.3c-.6-.6-1-1.2-1.4-2-.3-.8-.5-1.6-.5-2.6s.2-2,.5-2.8c.4-.8.8-1.5,1.4-2,.6-.5,1.3-.9,2.1-1.2.8-.3,1.6-.4,2.5-.4s2.1.2,2.7.6,1,1,1,1.6,0,.6-.2.9c0,.3-.3.5-.5.7-.3,0-.6-.3-1-.4s-.8-.2-1.3-.2h.2ZM82.1,95c-.2,0-.4,0-.8,0h-2.1c-.3,0-.5,0-.7-.3-.2,0-.4-.3-.5-.6,0-.3,0-.6,0-1v-5.4c0-.7-.2-1.1-.5-1.4s-.7-.4-1.2-.4-.6,0-.9,0c-.3,0-.5.2-.7.3v8.6c-.2,0-.4,0-.8,0h-2.1c-.3,0-.5,0-.7-.3-.2,0-.4-.3-.5-.6,0-.3,0-.6,0-1v-14.2c.2,0,.4,0,.8,0h2.1c.3,0,.5,0,.7.3.2,0,.3.4.4.6s.2.6.2,1v2.4c.2,0,.5-.2,1-.3.4,0,.9-.2,1.4-.2,1.6,0,2.9.4,3.8,1.2.9.8,1.4,2,1.4,3.6v7.4h-.1Z"/>
</svg>