<?xml version="1.0" encoding="UTF-8"?>
<svg id="Layer_1" xmlns="http://www.w3.org/2000/svg" version="1.1" viewBox="0 0 100 100">
  <!-- Generator: Adobe Illustrator 29.2.1, SVG Export Plug-In . SVG Version: 2.1.0 Build 116)  -->
  <defs>
    <style>
      .st0 {
        fill: #00b611;
      }
        .wordmark { fill: #000; }

@media (prefers-color-scheme: dark) {
  .wordmark { fill: #fff; }
}
    </style>
  </defs>

  <g id="QfF9MM">
    <g class="wordmark">
      <path d="M26.9,81.6c.3,0,1.3.4,1.6.6,1.5,1,1.7,3.5,1.1,5-.9,2.4-3.4,2.2-5.6,2.2v3.3h-2.1v-11.1c1.5,0,3.4-.2,4.9,0h.1ZM24.1,87.6c1.3,0,3.4.4,3.6-1.5s0-1.7-.3-2.2-.5-.4-.6-.4h-2.7v4.1Z"/>
      <path d="M33.6,81.3v3.6c1.4-.5,3.7-1,4.5.7s.5,1.7.5,1.9v5.2h-2.1v-4.7s-.3-1.1-.3-1.2c-.4-.9-1.8-.4-2.6-.4v6.3h-2.1v-11.5h2.1,0Z"/>
      <path d="M56.1,89.5h-4.8c0,.5,0,1,.5,1.3.7.5,3.2.3,4.1,0l.2,1.5c-2.9.6-6.5,1.3-6.9-2.6s.4-5.5,3.7-5.4c2.9,0,3.8,2.6,3.2,5.2ZM54.2,87.9c.4-2.6-3.3-2.6-2.9,0h2.9Z"/>
      <path d="M43.5,84.4c3.6-.4,4.5,2.4,4.1,5.5s-5.8,4-7,1-.4-6.2,2.8-6.5h.1ZM44,86.1c-2.7,0-1.9,6.6,1,4.7s1.2-4.8-1-4.7Z"/>
      <path d="M65.2,92.7h-2.1v-4.9s-.3-1-.3-1.1c-.4-.8-2-.7-2.6,0v6.1h-2.1v-8.2h2v.5c1.3-.8,3.7-1.1,4.5.6s.5,1.6.5,1.8v5.4h0Z"/>
      <polygon points="74.6 87.1 75.8 84.5 78 84.5 75.8 88.5 78 92.7 75.8 92.7 74.6 90.2 73 92.6 71 92.7 73 88.5 71 84.5 73 84.6 74.6 87.1"/>
      <rect x="67.4" y="84.5" width="2.1" height="8.2"/>
      <rect x="67.4" y="81.3" width="2.1" height="2.1"/>
    </g>
  </g>
  <path class="st0" d="M76.1,58.7c-6.7,6.9-21.2,8-30.2,7.6-2.5,0-5.7-1-8-.9-5.7,0-9.1,8.8-15,9.8-4.9.8-8.9-.8-10.3-5.7-2.2-7.6,1.3-21.8,3.4-29.6,3.4-13.2,7.5-27.4,22.7-30.7,8.7-1.9,26.6-1.4,35.2,1.4,6.3,2.1,12.5,6.8,11.4,14.3-.2,1.7-1.3,3.1-2.2,4.4,7,4.7,7.3,15.1-.9,18.7-.6.3-3.6,1.1-3.7,1.4,1.3,3.2.2,6.9-2.2,9.3h-.2ZM48.7,43.9c.7-.7,2.6,0,3.4,0,7.4.2,17.9,1.2,24.9-.6s6.5-7.1.6-10c-4.5-2.2-11.5-3.1-16.6-3.8-2-.3-4.7-.2-6.6-.6s-1.8-2.1,0-2.3,4.2.4,5.9.5c4.7.3,10.7.6,15.3-.7,2.9-.9,4.6-2.1,3.1-5.3-2.4-5.1-14.4-6.7-19.4-6.9-16.9-.8-27.9-.9-34.4,16.6s-7.4,23.9-6.4,32.2.9,3.8,2.9,4c4.6.5,6.9-3.3,10.4-5.4,4.8-2.9,7.3-1.7,12.3-1.3,6.6.4,14.3,0,20.7-2,2.5-.8,8.1-2.9,8.1-6.1s-4.2-3.2-5.9-3.7c-6-1.6-12.3-1.8-18.3-3-.4-.4-.4-1.3,0-1.7h0Z"/>
</svg>