<?xml version="1.0" encoding="UTF-8"?>
<svg id="Layer_1" xmlns="http://www.w3.org/2000/svg" version="1.1" viewBox="0 0 25 25">
  <!-- Generator: Adobe Illustrator 29.8.2, SVG Export Plug-In . SVG Version: 2.1.1 Build 3)  -->
  <path d="M22.7,10.1h0c.2,0,.3-.2.3-.3v-1.8h1.6c.2,0,.3-.2.3-.3v-1.2c0-.1,0-.3-.2-.3L12.6.9c0,0-.2,0-.3,0L.2,6.1C0,6.1,0,6.3,0,6.4v1.2C0,7.7,0,7.8.1,7.9c0,0,.2.1.2.1h1.6v1.8c0,.2.2.3.3.3h.8v9.4h-.8c-.2,0-.3.2-.3.3v1.8H.3c-.2,0-.3.2-.3.3v1.8c0,0,0,.2.1.2,0,0,.2.1.2.1h24.3c0,0,.2,0,.2-.1,0,0,.1-.2.1-.2v-1.8c0-.2-.2-.3-.3-.3h-1.6v-1.8c0-.2-.2-.3-.3-.3h-.8v-9.4h.8ZM22.3,9.4h-4.2v-1.4h4.2v1.4ZM17.7,19.5h0c0,0-.2,0-.2.1,0,0-.1.2-.1.2v1.8h-2.1v-1.8c0-.2-.2-.3-.3-.3h-4.9c-.2,0-.3.2-.3.3v1.8h-2.1v-1.8c0,0,0-.2-.1-.2,0,0-.2-.1-.2-.1h-.8v-9.4h.8c.2,0,.3-.2.3-.3v-1.8h1.9l.4,1.4c-.1.3-.3.6-.5,1.1-.8,1.5-1.9,3.5-1.8,5,0,1.1.7,2,1.6,2.5,1,.5,2.1.7,3.2.7h0c1.1,0,2.2-.2,3.2-.7,1-.5,1.6-1.4,1.6-2.5,0-1.5-1-3.5-1.8-5-.2-.4-.4-.8-.5-1.1l.4-1.4h1.9s0,1.8,0,1.8c0,.2.2.3.3.3h.8v9.4h-.8ZM14.6,21.6h-4.2v-1.4h4.2v1.4ZM10.1,7.4h4.8,0c0,.1-.5,1.6-.5,1.6h-3.7l-.5-1.5h0s0-.1,0-.1ZM10.1,10.7c.2-.4.4-.7.5-1h3.8c.1.3.3.6.5,1,.7,1.3,1.8,3.3,1.7,4.6,0,.8-.4,1.4-1.3,1.9-.9.4-1.9.7-2.9.6-1,0-2-.2-2.9-.6-.8-.4-1.2-1.1-1.3-1.9,0-1.3,1-3.3,1.7-4.6h0ZM.7,6.6L12.5,1.6l11.8,5v.7h-8.6s0-.1,0-.1c0-.1,0-.2,0-.3,0,0-.2-.1-.3-.1h-5.8c-.1,0-.2,0-.3.1,0,0,0,.2,0,.3h0c0,.1-8.6.1-8.6.1v-.7ZM2.7,8h4.2v1.4H2.7s0-1.4,0-1.4ZM3.8,10.1h1.9s0,9.4,0,9.4h-1.9v-9.4ZM2.7,20.2h4.2v1.4H2.7s0-1.4,0-1.4ZM24.3,23.4H.7v-1.1h23.6v1.1ZM22.3,21.6h-4.2v-1.4h4.2v1.4ZM21.2,19.5h-1.9v-9.4h1.9v9.4ZM12.5,6.4c.8,0,1.4-.5,1.7-1.2.3-.7.1-1.5-.4-2.1-.5-.5-1.3-.7-2.1-.4-.7.3-1.2,1-1.2,1.7,0,1,.8,1.9,1.9,1.9h0ZM12.5,3.3c.5,0,.9.3,1.1.7.2.4,0,1-.3,1.3-.3.3-.9.4-1.3.3-.4-.2-.7-.6-.7-1.1,0-.7.5-1.2,1.2-1.2h0Z"/>
  <path d="M11.2,16.6c.4,0,.4-.5.4-.7h.7c0,.2,0,.7.4.7s.4-.5.4-.7c.5,0,.8,0,1.2-.4h0c.5-.5.5-1.5-.2-1.9.5-.7.2-1.8-1.1-1.8v-.4c0-.5-.7-.5-.7,0v.4h-.7v-.4c0-.5-.7-.5-.7,0v4.1c0,.5,0,1.1.4,1.1h-.2ZM11.5,12.4h1.5c.6,0,.6.9,0,.9h-1.5v-.9ZM13.3,14c.5,0,.8.6.4.9h0c0,0-.2.2-.4.2h-1.8v-1.1h1.8Z"/>
</svg>