<?xml version="1.0" encoding="UTF-8"?>
<svg id="Layer_1" xmlns="http://www.w3.org/2000/svg" version="1.1" viewBox="0 0 25 25">
 <defs>
   <style>
     :where(path, polygon, rect, circle, ellipse) { fill: #000; }
     @media (prefers-color-scheme: dark) {
       :where(path, polygon, rect, circle, ellipse) { fill: #fff; }
     }
   </style>
 </defs>
  <path d="M16.5,10c-4.1,0-7.5,3.4-7.5,7.5s3.4,7.5,7.5,7.5,7.5-3.4,7.5-7.5-3.4-7.5-7.5-7.5ZM16.5,23.2c-3.1,0-5.7-2.6-5.7-5.7s2.6-5.7,5.7-5.7,5.7,2.6,5.7,5.7-2.6,5.7-5.7,5.7Z"/>
  <path d="M15.8,4.9c0-.6-.5-1.1-1.1-1.1H4.9c-.6,0-1.1.5-1.1,1.1s.5,1.1,1.1,1.1h9.8c.6,0,1.1-.5,1.1-1.1Z"/>
  <path d="M11.6,9.5c0-.6-.5-1.1-1.1-1.1h-5.7c-.6,0-1.1.5-1.1,1.1s.5,1.1,1.1,1.1h5.7c.6,0,1.1-.5,1.1-1.1Z"/>
  <path d="M4.8,12.9c-.6,0-1.1.5-1.1,1.1s.5,1.1,1.1,1.1h2.9c.6,0,1.1-.5,1.1-1.1s-.5-1.1-1.1-1.1h-2.9Z"/>
  <path d="M16.4,17.6c-3.3,0-3.5,2.6-3.5,2.6v.8c0,.2.2.4.4.4h6.2c.2,0,.4-.2.4-.4v-.8s-.2-2.6-3.5-2.6Z"/>
  <ellipse cx="16.5" cy="15" rx="1.7" ry="1.9"/>
  <path d="M9.7,23.1H3.7c-.4,0-.8-.4-.8-.8V2.6c0-.4.4-.8.8-.8h15.5c.4,0,.8.4.8.8v7c0,.6.4,1,1,1s1-.4,1-1V2.6c0-1.4-1.2-2.6-2.6-2.6H3.7c-.8,0-1.5.3-2,.8-.5.5-.7,1.1-.6,1.8v19.8c0,1.4,1.2,2.6,2.6,2.6h6.1c.6,0,1-.4,1-1s-.4-1-1-1Z"/>
</svg>