<?xml version="1.0" encoding="UTF-8"?>
<svg id="Layer_1" xmlns="http://www.w3.org/2000/svg" version="1.1" viewBox="0 0 100 100">
  <!-- Generator: Adobe Illustrator 29.2.1, SVG Export Plug-In . SVG Version: 2.1.0 Build 116)  -->
 <defs>
   <style>
     :where(path, polygon, rect, circle, ellipse) { fill: #13227f; }
     @media (prefers-color-scheme: dark) {
       :where(path, polygon, rect, circle, ellipse) { fill: #fff; }
    }
    </style>
</defs>
  <g>
    <path class="st0" d="M51.3,5c24.1,1.5,38.7,28,26.2,49.1-11.9,20-40.7,21.3-54.3,2.3-15-20.9-.7-50,24.7-51.4h3.4ZM48.3,10.9c-20.7,1.1-32.5,24.6-20.5,41.8,11.2,16,35.3,14.9,45-2,10.3-18.2-3.6-40.8-24.4-39.7Z"/>
    <path class="st0" d="M51.7,19v3.6c6,.6,9.5,4.3,9.1,10.5-.2,3.1-2.1,6.4-5.3,7.3l6.4,11.9h-6l-5.7-11h-5.4l-.3.3v10.7h-5l-.3-.3v-29.4h8.1v-3.6h4.3ZM44.5,27.1v9.5l.3.3h6.2c.4,0,1.9-.6,2.4-.8,2.8-1.6,2.7-6.7,0-8.3s-1.7-.7-1.9-.7h-6.9Z"/>
    <rect class="st0" x="47.4" y="48.5" width="4.3" height="7.7"/>
  </g>
  <g>
    <path class="st0" d="M35.1,94.7h-5.9l-3.4-6.5h-1.9v6.5h-5.3v-19.8c2.9.1,5.8-.1,8.7,0,3.3.2,6.1,1.5,7,4.9s-.1,5.6-2.5,7.2c-.2.1-.6.2-.6.4l4,7.3ZM23.9,84.1h2.6c.1,0,.9-.2,1-.2,1.2-.4,1.7-1.8,1.3-3-.6-1.9-3.3-1.6-4.9-1.6v4.9Z"/>
    <path class="st0" d="M75.1,94.7h-5v-2.1c-.3.1-.5.6-.7.9-1.9,2.2-7,1.9-8.2-.9s-.4-4,1-5.2c1.5-1.3,3.5-1.3,5.4-1.5s2.2-.2,2.2-1.3c0-1.7-3.4-1.5-3.4.2h-4.9c0-.3,0-.6.1-.8,1.5-6.2,13.5-5.1,13.5.5v10.3ZM69.8,88.2c-1,.6-3.4.4-3.9,1.6-.8,2.1,2.7,2.4,3.7.6s.2-.6.2-.7v-1.6Z"/>
    <path class="st0" d="M51,88.5h-9.7c0,1.1.4,2.2,1.6,2.6s2.8.1,3.2-1.1h4.9c-.5,3-3.3,4.7-6.2,5-4.9.4-8.4-2-8.7-7.1s3.4-8.8,8.7-8.1,6.5,4.4,6.2,8.7ZM46.1,85.6c-.1-3-4.6-2.9-4.8,0h4.8Z"/>
    <rect class="st0" x="53.4" y="75" width="5.3" height="19.8"/>
    <rect class="st0" x="77.6" y="80.5" width="5.3" height="14.2"/>
    <path class="st0" d="M79.8,72.6c3.9-.5,4.1,4.9.4,4.8s-3.4-4.4-.4-4.8Z"/>
  </g>
</svg>