<?xml version="1.0" encoding="UTF-8"?>
<svg id="Layer_1" xmlns="http://www.w3.org/2000/svg" version="1.1" viewBox="0 0 100 100">
  <!-- Generator: Adobe Illustrator 29.2.1, SVG Export Plug-In . SVG Version: 2.1.0 Build 116)  -->
  <defs>
    <style>
      .st0 {
        fill: #cb9e58;
      }
        .wordmark { fill: #000; }  /* light mode: black text */

@media (prefers-color-scheme: dark) {
  .wordmark { fill: #fff; }  /* dark mode: white text */
}
    </style>
  </defs>
  <path class="st0" d="M23.1,64.9l22.1-48.4c0-.2.4,0,.3.1l-15.8,45.9c2.4-.7,4.8-1.4,7.3-1.8l10.5-43.4c0-.2.4-.1.3,0l-6.1,42.6c2-.2,4.1-.4,6.1-.5l2-42c0-.2.3-.2.3,0l2,42c2.1,0,4.1.2,6.1.5l-6.1-42.6c0-.2.3-.3.3,0l10.5,43.4c2.5.5,4.9,1.1,7.3,1.8l-15.8-45.9c0-.2.2-.3.3-.1l22.1,48.4c4,1.7,7.8,3.8,11.3,6.3L50,5,11.8,71.2c3.5-2.4,7.3-4.5,11.3-6.3"/>
  <path class="wordmark" d="M30.8,95h-3.5l-2.5-4.8h-4.1v4.8h-3.1v-13.9h7.6c1.6,0,2.8.4,3.7,1.3.9.9,1.3,1.9,1.3,3.2s-.2,1.6-.6,2.4c-.4.7-1,1.3-1.8,1.6l2.9,5.4h0ZM20.8,87.1h4.6c.6,0,1-.1,1.3-.4.3-.3.5-.6.5-1.1s-.2-.8-.5-1.1c-.3-.3-.8-.4-1.3-.4h-4.6v2.9h0ZM36,95h-3.1v-13.9h3.1v13.9ZM45.4,94.9l4-13.8h3.4l-4,13.9h-6.8l-3.8-13.9h3.4l3.9,13.8h0ZM66.8,91.9v3.1h-12.3v-13.9h12.2v3.1h-9.1v2.3h9v3.1h-9v2.3h9.2,0ZM82.2,95h-3.5l-2.5-4.8h-4.1v4.8h-3.1v-13.9h7.6c1.6,0,2.8.4,3.7,1.3.9.9,1.3,1.9,1.3,3.2s-.2,1.6-.6,2.4c-.4.7-1,1.3-1.8,1.6l2.9,5.4h0ZM72.2,87.1h4.6c.6,0,1-.1,1.3-.4.3-.3.5-.6.5-1.1s-.2-.8-.5-1.1c-.3-.3-.8-.4-1.3-.4h-4.6v2.9h0Z"/>
</svg>