<?xml version="1.0" encoding="UTF-8"?>
<svg id="Layer_1" xmlns="http://www.w3.org/2000/svg" xmlns:xlink="http://www.w3.org/1999/xlink" version="1.1" viewBox="0 0 100 100">
  <!-- Generator: Adobe Illustrator 29.7.1, SVG Export Plug-In . SVG Version: 2.1.1 Build 8)  -->
  <defs>
    <style>
      .st0 {
        fill: url(#linear-gradient2);
      }

      .st1 {
        fill: url(#linear-gradient1);
      }

      .st2 {
        fill: url(#linear-gradient3);
      }

      .st3 {
        fill: url(#linear-gradient4);
      }

      .st4 {
        fill: url(#linear-gradient);
      }

      .st5 {
        fill: #9b27af;
      }
    </style>
    <linearGradient id="linear-gradient" x1="32.4" y1="12.4" x2="74" y2="60.7" gradientUnits="userSpaceOnUse">
      <stop offset="0" stop-color="#1676d1"/>
      <stop offset=".1" stop-color="#1c72cf"/>
      <stop offset=".3" stop-color="#2d68cb"/>
      <stop offset=".5" stop-color="#4957c3"/>
      <stop offset=".8" stop-color="#7040b9"/>
      <stop offset="1" stop-color="#9b27af"/>
    </linearGradient>
    <linearGradient id="linear-gradient1" x1="19.5" y1="23.5" x2="61" y2="71.8" gradientUnits="userSpaceOnUse">
      <stop offset=".3" stop-color="#1676d1"/>
      <stop offset="1" stop-color="#9b27af"/>
    </linearGradient>
    <linearGradient id="linear-gradient2" x1="16.8" y1="25.8" x2="58.4" y2="74.1" gradientUnits="userSpaceOnUse">
      <stop offset=".4" stop-color="#1676d1"/>
      <stop offset="1" stop-color="#9b27af"/>
    </linearGradient>
    <linearGradient id="linear-gradient3" x1="6.5" y1="34.7" x2="48.1" y2="83" gradientUnits="userSpaceOnUse">
      <stop offset=".4" stop-color="#1676d1"/>
      <stop offset="1" stop-color="#9b27af"/>
    </linearGradient>
    <linearGradient id="linear-gradient4" x1="8" y1="33.4" x2="49.6" y2="81.7" gradientUnits="userSpaceOnUse">
      <stop offset=".4" stop-color="#1676d1"/>
      <stop offset="1" stop-color="#9b27af"/>
    </linearGradient>
  </defs>
  <g>
    <path class="st4" d="M24.8,12.2h24c4.6.3,8.9.7,12.8,3.4,5.9,4.2,6.8,11,5,17.6-1.2,4.6-5.3,8.4-9.5,10.4v.2s18.1,23.1,18.1,23.1h-17.7s-.2.2-.1,0c5-5.4,5-12.3-.4-17.4-4.7-4.4-9.9-8.7-14.7-13.1s-1.4-1-1.4-1.1l4.2-2.9-.2-.3-1.8-1.4c.4-.6.9-1.1,1.4-1.7s.4-.4.5-.6.4-.8.5-.8c.6,0,1.1.3,1.7.2s1.4-1.4,1.2-2.2-.2,0-.2-.1c-.3-.6-.5-.9-1.3-1-1.7-.2-2.3,1.3-1.8,2.7l-5.1,3.6c0,.1,0,.2.1.2.5.5,1.3.9,1.9,1.3,0,.2-1.7,1.6-1.9,1.9-.2,0-.9-.6-1.1-.7-4.1-2.3-7.9-2.2-11.9,0l-2.1,1.3V12.2Z"/>
    <path class="st1" d="M48.4,54.1c3.1-.3,5.2,3.2,3.1,5.7s-4.6,1.6-5.8-.6.4-4.8,2.7-5.1Z"/>
    <path class="st0" d="M29.7,45.7c0-.2-.2-.3-.2-.7-.4-4.7,6.2-5.5,6.9-1s-5,5.7-6.6,1.7Z"/>
    <path class="st2" d="M24.8,53.5l5.1,4.4-1.1,1.3c-.4-.2-1.2-1.3-1.7-1.2s-1.8,1.8-2.4,2.1v-6.6Z"/>
    <path class="st3" d="M40,66.9h-6.3c.6-.6,1.1-1.4,1.8-1.8h0c0-.1-1.4-1.3-1.4-1.3l1.2-1.2,4.8,4.3Z"/>
  </g>
  <g>
    <g>
      <path class="st5" d="M32.9,75.9c1.4,0,2.9,0,4.2,0s1.7.3,2.3.8c1,.8,1.2,2.5.4,3.6s-.6.5-1,.7c.7,0,1.4.8,1.6,1.5.6,2.4-1,3.7-3.3,3.8s-2.9,0-4.3,0v-10.4ZM35.1,80.2h2c.1,0,.5-.1.7-.2.9-.5.8-2-.2-2.3s-.5-.1-.7-.1h-1.8v2.6ZM37.3,81.8c-.7,0-1.5,0-2.2,0v2.8h0c0,0,2,0,2,0,.3,0,.8-.2,1.1-.4s.4-.7.4-.9-.2-.9-.3-1c-.2-.2-.6-.4-.9-.5Z"/>
      <path class="st5" d="M26.5,75.8c2.7-.3,4.5,1.7,4.8,4.3s-.7,6-4.2,6.4-1.5-.2-1.9-.3c-2.3-.9-2.8-3.4-2.7-5.6s1.4-4.5,4-4.7ZM25.5,78.1c-.9.9-.9,2.8-.8,4s1.2,3.1,3,2.5,1.7-4.2,1.2-5.6-2.3-2-3.4-.9Z"/>
      <path class="st5" d="M48.5,76.2c3.4,1.8,3.2,9-.8,10s-1.2.2-1.5.2c-1.4-.2-2.7-.7-3.4-2s-1.1-5,0-6.8,3.7-2.5,5.7-1.4ZM46.2,77.5c-2.1.2-2.1,2.9-2,4.5s1.2,3.1,3,2.5,1.7-4,1.2-5.5-1.1-1.7-2.2-1.6Z"/>
      <path class="st5" d="M80.9,83c0,0,.1.6.2.7,0,.3.3.5.5.7.9.6,3.2.5,3.1-.9s-1.9-1.5-2.8-1.8c-1.4-.6-2.8-1.4-2.8-3.2.1-3.4,6.5-3.8,7.5-.5s0,.5,0,.6.2,0,0,.2c0,0,0,0-.1,0h-2.1c0-1.2-1-1.6-2-1.5s-2,1.3-.8,2.1,3.5.8,4.5,2.5.2.7.4,1.2,0,0,0,0c0,0,0,.4,0,.5s0,0,0,0c0,0,0,.2,0,.2-.3,1.5-1.5,2-2.9,2.2-2,.3-4.6-.5-5-2.8s0-.4,0-.5h2.1Z"/>
      <path class="st5" d="M59.9,79h-2.1c0-.4-.1-.9-.5-1.2-.9-.6-3-.4-2.8,1.1s1.6,1.1,2.2,1.4,1.6.6,2.3,1.2c1.1.9,1.3,2.7.4,3.8s-1.9,1.2-3,1.3-1,0-1.3-.1c-1.5-.3-2.8-1.2-3.1-2.8s0-.4,0-.5h2.1c0,.7.3,1.3.9,1.5,1,.4,2.8.3,2.8-1.1s-1.9-1.4-2.8-1.8c-1.5-.6-2.9-1.5-2.7-3.3.2-2.8,4.5-3.3,6.4-1.9s1.3,1.5,1.2,2.5Z"/>
      <path class="st5" d="M60.5,86.3l3.8-10.3c0,0,0,0,.1,0,.6,0,1.3,0,1.8,0l3.9,10.4h-2.2l-.7-2.1h-3.7s-.8,2.1-.8,2.1h-2.2ZM64.1,82.4h2.5l-1.3-3.8-1.3,3.7h0Z"/>
      <polygon class="st5" points="78.2 75.9 78.2 77.6 78.1 77.6 75 77.6 74.9 77.7 74.9 86.3 72.9 86.3 72.9 77.7 72.8 77.6 69.7 77.6 69.7 75.9 78.2 75.9"/>
    </g>
    <path class="st5" d="M13.1,86.3v-10.4h4.1c.8,0,1.4.1,2,.4.6.3,1,.7,1.3,1.2.3.5.4,1.1.4,1.8s-.1,1.3-.4,1.8c-.3.5-.7.9-1.3,1.1-.6.3-1.2.4-2,.4h-2.7v-1.8h2.4c.4,0,.8,0,1-.2.3-.1.5-.3.6-.5.1-.2.2-.5.2-.9s0-.6-.2-.9c-.1-.2-.3-.4-.6-.5-.3-.1-.6-.2-1-.2h-1.5v8.6h-2.2ZM18.7,81.6l2.6,4.7h-2.4l-2.5-4.7h2.4Z"/>
  </g>
</svg>