<?xml version="1.0" encoding="UTF-8"?>
<svg id="Layer_1" xmlns="http://www.w3.org/2000/svg" xmlns:xlink="http://www.w3.org/1999/xlink" version="1.1" viewBox="0 0 100 100">
  <!-- Generator: Adobe Illustrator 29.2.1, SVG Export Plug-In . SVG Version: 2.1.0 Build 116)  -->
  <defs>
    <style>
      .st0 {
        fill: url(#linear-gradient);
      }

      .st1 {
        fill: #0b9d94;
      }
    </style>
    <linearGradient id="linear-gradient" x1="34.3" y1="12.4" x2="65.7" y2="67.9" gradientTransform="translate(0 2)" gradientUnits="userSpaceOnUse">
      <stop offset="0" stop-color="#00b597"/>
      <stop offset=".2" stop-color="#00b597"/>
      <stop offset=".5" stop-color="#00b597" stop-opacity=".9"/>
      <stop offset=".9" stop-color="#00b597" stop-opacity=".7"/>
      <stop offset="1" stop-color="#00b597" stop-opacity=".6"/>
    </linearGradient>
  </defs>
  <path class="st0" d="M30.2,37.8c-.2,2.6,2.6,4.3,2.6,4.3l13.6,7.8-8.4,4.9-11.1-6.3c-5.2-2.3-4.7-7-4.7-7v-18.6c-.1,0,5.7-4.8,5.7-4.8l2.3,19.8h0ZM72.1,66.4l6.6-4.6-.8-18.6s.3-4.8-4.9-6.9l-11.3-6-8.2,5.2,13.9,7.4s2.8,1.7,2.7,4.3c0,0,2,19.2,2,19.2ZM60.3,11.6l-6.9-3.6-16,9.6s-4.4,2-3.7,7.6l.2,12.8,8.6,4.7-.2-15.7s0-3.1,2.2-4.3l15.8-11.1h0ZM82.1,35.6l-.7-8.1-16.3-9s-3.9-2.8-8.4.7l-11,6.6.2,9.7,13.5-8.1s2.7-1.4,4.9,0l17.9,8.1h-.1ZM40.7,72.2l6.4,4.2,16.1-9.4s4.4-2,3.7-7.6v-12.8l-8.6-4.8v15.7s-.4,3.6-2.7,4.7l-14.9,10h0ZM17.9,48.7l.7,8.1,16.3,9s3.9,2.8,8.4-.6l11-6.6-.2-9.7-13.5,8s-2.7,1.4-4.9,0c0,0-17.8-8.2-17.8-8.2Z"/>
  <path class="st1" d="M16.6,92c-.6,0-1.1,0-1.6-.2-.5,0-.9-.3-1.3-.6l.4-1.1c.2.2.5.3.7.4.3,0,.5.2.8.3h.9c.6,0,1,0,1.2-.3.2-.2.4-.4.4-.7s0-.4-.3-.6-.6-.3-.9-.3l-1.2-.2c-.7,0-1.2-.4-1.5-.7-.3-.4-.5-.8-.5-1.3s.1-.9.4-1.2c.3-.4.6-.6,1-.8.5-.2,1-.3,1.5-.3s1,0,1.5.2c.4,0,.8.3,1.1.6l-.4,1c-.3-.2-.6-.4-1-.6-.4,0-.8-.2-1.2-.2s-.8,0-1.2.3c-.3.2-.4.5-.4.8s0,.5.3.6c.3.2.6.3.9.4l1.2.2c.7,0,1.2.4,1.6.7.3.3.5.8.5,1.3s-.1.8-.4,1.2c-.3.3-.6.6-1,.8-.5.2-1,.3-1.5.3h0ZM21.7,91.9l3.4-7.4h1.1l3.4,7.4h-1.4l-.9-2.1.5.4h-4.4l.6-.4-.9,2.1h-1.4ZM25.6,85.9l-1.5,3.5-.3-.3h3.5l-.2.3-1.5-3.5h0ZM31.7,91.9v-1l4.2-5.7v.4h-4.2v-1.1h5.4v1l-4.2,5.7v-.4h4.3v1.1h-5.6.1ZM40.2,91.9v-7.4h1.2l2.7,6.1h-.3l2.7-6.1h1.2v7.4h-1.2v-5.5h.4l-2.5,5.5h-.8l-2.5-5.5h.4v5.5h-1.3ZM51.2,91.9v-7.4h1.4v7.4h-1.4ZM55.9,91.9v-7.4h1l4.3,5.6h-.3v-5.6h1.3v7.4h-1l-4.3-5.6h.3v5.6h-1.3ZM65.6,91.9v-7.4h1.4v7.4h-1.4ZM70.4,91.9v-7.4h1l4.3,5.6h-.3v-5.6h1.3v7.4h-1l-4.3-5.6h.3v5.6h-1.3ZM83.7,92c-.7,0-1.5,0-2.1-.5-.6-.3-1-.8-1.3-1.3-.3-.6-.4-1.3-.4-2s0-1.4.5-2c.3-.6.8-1,1.3-1.3.6-.3,1.4-.5,2.1-.5s1,0,1.4.2c.4,0,.8.3,1.1.6l-.5,1.1c-.2-.2-.4-.3-.6-.4s-.4-.2-.6-.2h-.8c-.8,0-1.4.2-1.8.7s-.6,1.1-.6,2,.2,1.5.6,2,1,.7,1.9.7h.9c.3,0,.6,0,.9-.2l-.3.6v-2.2h-1.7v-1h2.9v3.6c-.4.2-.8.3-1.2.4-.5,0-.9,0-1.4,0h0l-.3-.4Z"/>
</svg>