<?xml version="1.0" encoding="UTF-8"?>
<svg id="Layer_1" xmlns="http://www.w3.org/2000/svg" version="1.1" viewBox="0 0 25 25">
  <!-- Generator: Adobe Illustrator 29.8.2, SVG Export Plug-In . SVG Version: 2.1.1 Build 3)  -->
  <path d="M22.6,2.9L12.8,0h-.6L2.4,2.9c-.4,0-.7.5-.8,1v6.8c0,9,10,14,10.4,14.2.1,0,.3.1.5.1s.3,0,.5-.1c.4-.2,10.4-5.1,10.4-14.2V3.9c0-.5-.4-.9-.8-1ZM21.3,4.7v6.1c0,6.8-6.9,11-8.8,12.1-1.9-1-8.8-5.3-8.8-12.1v-6.1l8.8-2.5s8.8,2.5,8.8,2.5Z"/>
  <path d="M17.2,9h-1.3v-.8c0-1.9-1.5-3.4-3.4-3.4s-3.4,1.5-3.4,3.4v.8h-1.3v7.3h9.3v-7.3h0ZM11.3,8.1c0-.6.5-1.2,1.2-1.2s1.2.5,1.2,1.2v.8h-2.3v-.8ZM14.9,14h-4.9v-2.9h4.9v2.9Z"/>
</svg>