<?xml version="1.0" encoding="UTF-8"?>
<svg id="Layer_1" xmlns="http://www.w3.org/2000/svg" version="1.1" viewBox="0 0 100 100">
  <!-- Generator: Adobe Illustrator 29.2.1, SVG Export Plug-In . SVG Version: 2.1.0 Build 116)  -->
  <defs>
    <style>
      .st0 {
        fill: #846121;
      }

      .st1 {
        fill: #3c4543;
      }

      .st2 {
        fill: #898b8b;
      }

      .st3 {
        fill: #cfd1d1;
      }

      .st4 {
        fill: #4d5858;
      }

      .st5 {
        fill: #555759;
      }

      .st6 {
        fill: #ff3b00;
      }

      .st7 {
        fill: #bfc3c5;
      }

      .st8 {
        fill: #ff9f00;
      }

      .st9 {
        fill: #8b9a9a;
      }

      .st10 {
        fill: #7b848b;
      }

      .st11 {
        fill: #979798;
      }

      .st12 {
        fill: #303e49;
      }

      .st13 {
        fill: #de8d00;
      }

      .st14 {
        fill: #4a4f55;
      }

      .st15 {
        fill: #9e9fa0;
      }

      .st16 {
        fill: #596771;
      }

      .st17 {
        fill: #bbb7ac;
      }

      .st18 {
        fill: #ff6e00;
      }
        
        .wordmark { fill: #000; }            /* light mode: black text */
@media (prefers-color-scheme: dark) {
  .wordmark { fill: #fff; }          /* dark mode: white text */
}

    </style>
  </defs>
  <g>
    <g>
      <path class="st4" d="M41.9,7.8c.2,0,.4.2.6.3s.3.1.4.2.3.2.5.2.5.2.7.3,0,0,.2,0l16.7,14.5c.2,1.1.6,2.3.8,3.4s0,.2,0,.1.4-.4.4-.5c1-1.4,2-2.8,3-4.1s0-.2.3-.2c0,.1.2.3.2.4.3.9.6,1.8,1,2.7v.4c0,.1,0,0,0,0q-.2.1-.3.3c-1.5,3.2-2.8,6.6-4.3,9.8-.4.8-.8,1.7-1.2,2.5s-.3.5-.4.7v-.3c.2-1.8.3-3.5.5-5.3s.2-2.2.3-3.3.2-2.1.3-3.1c0,0-.2-.2-.4-.3l-17.7-13.9c0-.2-.3-.4-.4-.5-.7-.8-1.4-1.6-2.1-2.4s-.2-.2-.2-.2c0,0,0-.1,0,0v-1.2l1.1-.7h.3l-.3.2Z"/>
      <path class="st10" d="M40.6,11.3c.3.1.7.3,1,.5s.4.2.5.3.2,0,.2.1.3.1.4.2.2.1.3.2c.2.1.4.3.7.3l17.7,13.9c-2.6-1.4-5.3-2.8-7.9-4.3-4.7-1.4-9.3-3.1-14-4.5s0,0,0,0c0-.1,0-.3-.2-.3q0-.2,0-.3c0,0,0-.2,0-.2v-.3c0-.1.2-.7.3-.8s0,0,0,0h1.1c.4,0,.5.2.7.2.3.1.6.3.9.3,0,.1.4.2.5.2,0,.1.3.2.4.2,0,0,.6.3.7.3,0,.1.5.2.7.3l-.9-1c-1.3-1-2.3-2.3-3.5-3.4s0-.1-.2-.1c0-.2-.2-.2-.2-.2v-.2q0,0,0-.1v-1c.3,0,.7-.5.9-.4s.4.2.5.2h-.2Z"/>
      <path class="st12" d="M15.2,23.9c.3.1.6.2.9.3q.3,0,.5.2c.2.1.3.1.5.2s.3.1.4.2c.5.2.9.4,1.4.6,3.9,1.8,7.6,3.9,11.5,5.7l7.1,5.9h-.3c-5.9-2.3-11.7-4.8-17.6-7.2s-.8-.3-1.2-.5c0,0,0-.1-.2-.2-.8-.5-1.8-1-2.5-1.6s-1.2-1.3-1.8-1.9,0-.1-.2-.1c0-.2-.3-.4-.3-.6s0-.3-.1-.4-.1-.2-.1-.3,0-.2-.1-.3v-.2l.3-.6c.6.2,1.2.5,1.8.8Z"/>
      <path class="st10" d="M41.7,20.3h0c.3.1.6.2.9.3s.7.2,1,.3.7.3,1,.5l16.9,8.8c0,1.1-.2,2.2-.3,3.3-.2,0-.4-.2-.5-.3-4.7-2.6-9.3-5.2-14-7.7s-.9-.5-1.1-.5c-.3-.2-.6-.4-.9-.6-1.3-.8-2.4-1.4-3.6-2.2s-.2,0-.2-.1,0,0,0,0v-.3c0-.2,0-.3,0-.5s0-.3,0-.3v-.3c0,0,0-.2.2-.2h.2c.1,0,0,0,0-.1,0,0,.3,0,.3-.1.2,0,.5.1.6.2l-.3-.2Z"/>
      <path class="st3" d="M35.5,28.8c.3,0,.9.2,1.1.3,2.5,1.9,5.4,3.6,8,5.4h-.3c-4.6-1.1-9.2-2.3-13.9-3.4-3.9-1.8-7.6-3.9-11.5-5.7,0,0,16.6,3.4,16.6,3.4Z"/>
      <path class="st11" d="M14.4,28.1c.2,0,.6.1.7.2s.4.1.5.2.5.2.5.2h.2c.1,0,0,.1.1.1h.1c.1,0,.3.2.3,0,.2,0,.6.1.9.2s.2.1.6.2.8.3,1.2.5c5.9,2.3,11.7,4.9,17.6,7.2h-.5l-17.9-3.8-.3-.2-3.6-1.5c-.4,0,.3.5.4.6l2.2.9h-.7c0,0,0,0-.2,0-.4,0-1.5-.6-1.8-.8s-1.3-1.4-1.4-1.7,0-.2,0-.2c0,0-.2-.2-.3-.4s-.1-.3-.1-.3v-.2c0-.1-.1-.3-.1-.4v-.3c0,0,.5-.4.5-.4.2,0,.7.2.9.2l.2-.2Z"/>
      <path class="st9" d="M60.9,18.4c0,0,.2.2.3.3v1.6c0,.8,0,1.7,0,2.5s0,.6,0,.8l-16.7-14.5c.4.2.8.4,1.2.6,5,2.8,9.8,5.8,14.8,8.5,5,2.7.2.1.3.2s.2.1.2,0Z"/>
      <path class="st11" d="M35.5,28.8l-16.6-3.4c-.5-.2-.9-.4-1.4-.6,0,0,0-.1-.1-.2-.6-.7-1.4-1.3-2-2s-.5-.6-.6-.8c0-.3,0-.1-.2-.5s-.1-.1-.1-.2v-1c0-.1.5-.5.5-.5l6.6,4c4.7,1.7,9.2,4,14,5.3h0Z"/>
      <path class="st10" d="M45.7,63.8v.2c-.3.4-.8.8-1.2,1.2-3.5,3.8-7,7.6-10.5,11.4s-.5.4-.6.7-.2.3-.3.3h0c-.3,0-.6.2-.8,0,0,.2-.2,0-.4,0-.1.3-.5,0-.7-.2s-.2,0-.2,0c0,0-.2,0-.3,0h-.2v-1.4c.3,0,.4-.4.6-.6s.6-.4.9-.6c4.7-3.5,9.3-7.2,14.1-10.7l-.3-.2Z"/>
      <path class="st16" d="M60.9,18.4h-.2s-.2-.1-.3-.2c-5-2.8-9.8-5.8-14.8-8.5-.4-.2-.8-.4-1.2-.6s0,0-.2,0l-1.1-1.5h0s0-.2-.2-.3,0-.3-.2-.2c0,0,0-.2,0-.2h0c0,0,.5-.7.6-.8l1.4.4c5.5,4.1,11,8,16.4,12.2v-.3Z"/>
      <path class="st16" d="M46.1,31.7h.3c0,0,.3.1.5,0,.2.1.2,0,.4.1s.3,0,.5.1l.7,5c-1.3-.9-2.7-1.8-4-2.7-2.6-1.8-5.5-3.5-8-5.4h.4c3.1.8,6.1,1.7,9.2,2.5v.4Z"/>
      <path class="st16" d="M71.6,33.7l-2.6,6.1h0l-5.2-.6h0c-1,0-2,.2-3,.2v-.3c0-.2.3-.5.4-.7.4-.8.7-1.8,1.2-2.5l1.4,3.2h0c.9-.7,1.9-1.5,2.8-2.2s0,0,0,0l.3-.2c1.3-1.1,3.1-1.9,4.5-2.8h.2Z"/>
      <path class="st11" d="M45.1,61.7l.9,1.8c0,0-.2.3-.3.4-4.7,3.5-9.4,7.2-14.1,10.7s-.6.4-.9.6c.7-.7,1.3-1.3,2-2,3.9-3.8,7.9-7.4,11.9-11,0,0,.2-.2.2-.3s.3,0,.3,0h0Z"/>
      <path class="st10" d="M61.2,18.7h0c1.5,1.1,2.7,2.4,4.4,3.3h0c-.2.1-.2.2-.3.3-1,1.4-2,2.8-3,4.1s-.4.5-.4.5h0c-.3-1.2-.6-2.4-.8-3.5s0-.6,0-.8c0-.8,0-1.7,0-2.5s0-1,0-1.6v.2Z"/>
      <path class="st2" d="M81.4,35.9l-4.2,2.7s0,0,0,0,.4.2.5.3c-.2.4-.5.7-.8,1.1s0,0,0,0c-.2,0-.7-.9-.8-1s0,0,0,0-.5.4-.6.5,0,0-.2.2h0v-1l.4-.4c.6,0,1.1.2,1.7.3l-1.4-5.2c1.7.7,3.5,1.4,5.3,2.1s.4,0,.5.3h-.3Z"/>
      <path class="st10" d="M71.7,33.6l2.7,4.5h0l-5.3,1.7,2.6-6.1h0Z"/>
      <path class="st11" d="M82.8,39.4c-.3,0-.5,0-.8.2s-.4,0-.5.2c-.6.2-1.2.2-1.8.4-.7-.4-1.4-.7-2-1.1s-.5-.3-.5-.3h0c0,0,4.2-2.8,4.2-2.8l1.4,3.5h0Z"/>
      <path class="st3" d="M82.8,39.4l4.1,2.9c0,0,0,.3,0,.5h0c-.2,0-.4-.2-.6-.2-1.9-.6-3.8-1.1-5.7-1.7l1-1.3c.2,0,.4,0,.5-.2s.5,0,.8-.2v.2Z"/>
      <path class="st17" d="M75.3,33.4v.6l-.9,4.1-2.7-4.5h1.2c.7,0,1.5-.2,2.1,0s.2,0,.2,0h0v-.2Z"/>
      <path class="st3" d="M75.6,33.5l1.4,5.2c-.6,0-1.1-.2-1.7-.3s-.7-.2-1-.2h0l.9-4.1v-.6h.4Z"/>
      <path class="st12" d="M62.9,70.3c.4,0,1.3,1.1,1.4,1.5s.2.9.2,1.1v.3c0,0-.2.2-.4.3s-.3.3-.5.3-.2,0-.3,0h0q0,0,0-.2c0,0,0,0,.2,0s0,0,0,0,0,0,0,0h0c0-.4-.2-.6-.2-.9s0-.4-.2-.6l-1.4-.8h0l.5,1.1v.5c0,0,0,.3,0,.3l-.2.4s-.4.2-.5.3c-.2,0-.3.2-.5.3s-.3,0-.4,0c0,0,.2-.3.3-.4s.2-.2.2-.3c.2,0,.2-.2.2-.3s0,0,0,0c0-.3,0-.4,0-.6s0-.2,0-.3,0-.5-.2-.5v-.2c-.5-.8-1-1.2-1.8-1.6h.2c1,0,2,.4,3,.5h.2Z"/>
      <path class="st10" d="M62.7,64.2c0,0,.3,0,.5,0h.4c1.4.4,2.7.8,4.1,1.1l-2.1.2.3.6c0,0-.3,0-.4,0s-.3,0-.4,0h-.2c-.2,0-.9.2-1,.3s-.2.7-.2.7c0,0,0,.3.2.4.1,0,0,0,0,0v.4h-.2c-.2,0-.3-.3-.5-.4s0,0-.2,0c0-.2,0-.5,0-.8s0-.2,0-.3l.3-.2h.3c0,0,.3,0,.4-.2.2,0,.5-.2.7-.3s.3,0,.4,0,0,0,0,0c0,0-.2,0-.3,0-1-.5-2-1-2.9-1.5h.7Z"/>
      <path class="st1" d="M59.2,68c.2,0,0,0,0,0l.2,1.6c0,0-.2.3-.3.4s-.2.3-.3.4h0c0,.2-.2,1.1-.2,1.3h0c0,.2,0,.2.2.4s.2.4.3.5,0,0,0,.2h-.3c0,0-.2,0-.3-.2-.2,0-.4-.3-.6-.4,0-.2,0-.5-.2-.7s0-.2,0-.3v-.4c0-.3.4-.6.4-.9.2,0,.2-.2.2-.3s0-.2,0-.2,0,0,0,0c0,0,.3-.4.3-.5,0-.2-.3-.3-.4-.5-.5-.5-.9-1-1.4-1.4.6.2,1.2.6,1.8.9s0,0,.2,0h.3Z"/>
      <path class="st10" d="M62.9,70.3c-1,0-2-.4-3-.5s-.2,0-.2,0h0l-.2-1.6h0c.9.4,1.8.9,2.7,1.5s.5.4.7.6h0Z"/>
      <path class="st12" d="M57.3,65.6s0,.2.2.2,0,0,.2.2,0,0,0,0c0,0,.3.2.3.3.3.4.7.9,1,1.3s0,0,0,.2h-.2c-.6-.3-1.2-.7-1.8-.9,0,0,0,0-.2-.2,0-.5,0-1.1,0-1.6h0c0,0,.2.3.3.4h.2Z"/>
      <path class="st3" d="M75.2,33.4h0c0,0-.2,0-.2,0h.2Z"/>
      <path class="st14" d="M60.7,33.3c.2,0,.4.2.5.3-.2,1.8-.4,3.5-.5,5.3s0,.2,0,.3v.3l-13.3-9.8c-.5-.5-1.3-.9-1.7-1.5s-.4-.7-.7-1h0c0-.1,15.8,6.1,15.8,6.1h0Z"/>
      <path class="st9" d="M39.6,18.2c4.7,1.4,9.3,3,14,4.5,2.6,1.5,5.3,2.8,7.9,4.3,2.6,1.5.2.2.4.3,0,1-.2,2.1-.3,3.1l-16.9-8.8c-.3-.2-.7-.3-1-.5q0-.1,0-.2c-.2-.2-.5-.3-.7-.5-1-.7-2-1.3-3-1.9,0,0-.2,0-.2.1h0v-.3h0Z"/>
      <path class="st14" d="M66.8,25.8h0v.2h0v.3c-.3,2.3-.7,4.5-1,6.8v.2h0c0,0-1.9,5.6-1.9,5.6l-1.4-3.2c1.4-3.2,2.7-6.6,4.3-9.8,0-.2,0-.2.3-.3l-.2.2Z"/>
      <path class="st17" d="M44.6,34.5c1.3.9,2.7,1.8,4,2.7s.6.4.9.6h-.8c-2.5-.2-5-.3-7.6-.5s-2.3,0-3.3-.2-.2,0-.2,0l-7.1-5.9c4.6,1.1,9.2,2.3,13.9,3.4s.2,0,.3,0h-.1Z"/>
      <path class="st16" d="M36.8,36.9c.2,0,.4,0,.5,0,.2,0,.2,0,.3,0h.2l-3.8,2.5c-4.2-.8-8.5-1.4-12.8-2.3s-2.2-.5-3.3-.8h.3c1.4,0,2.8,0,4.2,0,4.3,0,8.5.2,12.8.3s1.1,0,1.6,0v.3Z"/>
      <path class="st15" d="M17.5,24.8c-.2,0-.3-.1-.4-.2,0,0,0-.1-.1-.2-.6-.6-1.3-1.2-1.9-1.9s-.7-.8-.4-1.2c.3.4,0,.2.2.5s.4.6.6.8c.6.7,1.4,1.3,2,2s.1,0,.1.2h-.1Z"/>
      <path class="st1" d="M44.9,25h.7c.2,0,.8.4,1.1.5,4.7,2.5,9.3,5.1,14,7.7l-15.8-6.2s-.2-.1-.2-.2v-1.5c0-.5,0-.2,0-.2h0c0-.1.2-.1.2,0Z"/>
      <path class="st12" d="M16.2,32.7h1.4c.4,0,.9.2,1.3.2l17.9,3.8h-1.6c-4.3,0-8.5-.2-12.8-.3s-2.8,0-4.2,0-.2,0-.3,0h-.3c-.4-.2-.8-.8-1.2-1s-.2,0-.2,0h0c0,0-.2-.2-.3-.3s0-.4-.2-.4c0-.2,0-.3-.1-.5s0-.2,0-.2h0c0,0-.2-.5-.2-.5.1-.2.1-.3.2-.5s0,0,0,0h.7v-.2Z"/>
      <path class="st2" d="M17.6,32.9l-2.2-.9c-.1,0-.8-.5-.4-.6l3.6,1.5.3.2c-.4,0-.9,0-1.3-.2Z"/>
      <path class="st16" d="M45.2,61.6l12.7,1.8h-5.9l2.1,2.2h-.3c-.5,0-1,0-1.5.2l-3.5.4c.2-.2.4-.4.5-.5.8-.7,1.6-1.3,2.3-2s.2-.2.2-.3h-6l.7,1.6c.3.2.7.4,1,.6s0,0,0,0h0c-4.6,3.5-9.1,7.2-13.6,10.7s-.6.6-1,.7c.2-.3.4-.4.6-.7,3.5-3.8,7-7.6,10.5-11.4s.8-.8,1.2-1.2,0,0,0-.2c0,0,.4-.2.3-.4l-.9-1.8h0l.6.3Z"/>
      <path class="st2" d="M40.4,79.7c.9,0,1.7-.2,2.6-.3s.5,0,.7,0,.9-.6,1-.8c0,0,.3,0,.3-.2h1.6c.1,0,0,0,0,0h0c.2-.3.6-.4.8-.7,0,0,.2,0,0,0s-.4.4-.5.5c-.7.6-.8.5-1.7.6s-1.4.9-2.5,1.1-3.4.4-4.9.3-.7,0-1.3-.3-1,0-1.6,0-1.1-.3-1.3-.5,0,0,0-.2.2,0,0,0-.4,0-.4,0h0c0-.3,0-.2,0-.4s-.2-.2-.2-.2h-1.7c-.4,0-.9-.3-.9-.6s0,0,0,0h.2c.2,0,.6.4.7.2.2,0,.3,0,.4,0,.3,0,.6,0,.8,0s0,0,0,0,.2-.2.3-.3c.4-.2.7-.5,1-.7,4.5-3.6,9-7.2,13.6-10.7l-11.1,13.3h0c0,.3.3.4.5.5,1.1,0,2.2,0,3.2,0v-.4Z"/>
      <path class="st5" d="M48,32.2c.3,0,.7.6,1,.8,3.8,3.1,7.5,6.3,11.3,9.5,0,.8-.2,1.6-.2,2.4l3.6-5.7h0l1.2,6.1h0c0,0-.2,0-.3,0h-1.5c-1.1,0-2.1,0-3.2,0-3.4-2.4-6.9-4.8-10.3-7.1s0,0,0,0c-.3-.2-.6-.4-.9-.6l-.7-5h0v-.2Z"/>
      <path class="st1" d="M47.5,29.7l13.3,9.8c1,0,2-.2,3-.2l-3.6,5.7c0-.8.3-1.6.2-2.4-3.8-3.1-7.5-6.4-11.3-9.5s-.7-.7-1-.8c-.2-.3-.5-.6-.7-1s-.2-.1-.2-.2h0c0-.2-.2-.3-.3-.4v-1.1c.2,0,.6.1.9.1h-.3Z"/>
      <path class="st12" d="M74.3,38.1c.4,0,.7,0,1,.2l-.5.4v1h-5.5c-1.5,0-.2,0-.2,0l6,1.4-4,1.4-1.6.6h9.9c0,.2,0,0-.2.2-.6.5-1.3.9-1.9,1.4s-.8.9-1.3,1.3-1.2,1-1.8,1.6l-5-4.4-.4-3.6h0l5.3-1.7.2.2Z"/>
      <path class="st17" d="M69,39.8l.4,3.6s-.3,0-.4,0c-1.4.5-2.7,1.2-4,1.7h0l-1.2-6.1,5.2.6h0Z"/>
      <path class="st1" d="M65.8,33.5h0c0,.3,0,.5.2.6s0,.2,0,.3c.2.8.5,1.5.7,2.3h0c-.9.8-1.9,1.6-2.8,2.3h0l1.9-5.5h0,0Z"/>
      <path class="st2" d="M48.1,52.6c-1-.4-2.1-.2-3.1-.4s-1-.3-1.4-.6c-.7-.4-1.1-1.2-2-1.2h-1.9c-.6,0-1.1-.5-1.4-.8s-.5-.4-.4-.5c0,0,.2,0,.3.2s.2,0,.3.2c.2,0,.7.3.9.4s0,0,0,.2h0c.2,0,.3,0,.4,0h2.1c0,0,0,.3.2.3.3.3.7.6,1.1.9s0,0,.2,0c.4.2,1,.5,1.5.6.9,0,1.8,0,2.7.2s.3.2.5.3l6.6-2.4h0l-2,4.4h0l6.2,2.7c-4.5,1.6-9.2,2.8-13.7,4.4s-.2,0-.2,0h0l7.6-7.2h0s-.2,0-.3,0c-1.3-.6-2.7-1.1-4-1.7h-.2,0Z"/>
      <path class="st12" d="M48.1,52.6h0c0,0,.2,0,.2,0,1.3.6,2.7,1.1,4,1.8s.2,0,.3,0,0,0,0,0l-7.6,7.2c.5-1.5.9-3.1,1.4-4.7s.9-2.4,1.2-3.6,0,0,0-.2,0,0,0,0h0v-.2q0-.1,0,0l.4-.2Z"/>
      <path class="st7" d="M75,39.7h0c.5,0,1.1.4,1.7.5s1.1.2,1.6.2q0,0,0,0c-.8.3-1.8.4-2.6.7s-.2,0-.2,0h0l-6-1.4h4.8c1.5,0,.6,0,1,0h-.2Z"/>
      <path class="st1" d="M79.7,40.1c-.3,0-.6.3-1,.3h-.4c-.5,0-1.1,0-1.6-.2h0c.3-.4.6-.8.8-1.2.7.4,1.3.8,2,1.1h.2Z"/>
      <path class="st5" d="M76.8,40.1h0c-.5,0-1.2-.3-1.7-.4,0,0,0,0,.2-.2,0,0,.5-.4.6-.5s0,0,0,0,.6.9.8,1h0Z"/>
      <path class="st15" d="M81.5,39.7l-1,1.3c-.6-.2-1.2-.3-1.9-.5h0c.3,0,.7-.2,1-.3.6,0,1.2-.2,1.8-.4h0Z"/>
      <path class="st12" d="M67.7,65.6c1,.2,2.1.4,3.1.7h0v1.1s-.2-.2-.2-.3v-.4c0,0-1.1-.3-1.3-.4h0c.2,0,.9.6,1,.7,0,.2.2.4.2.6s.2.2.2.3v.7l-.7.8-.3.2c0-.2,0-.6.2-.8s0-.2.2-.3,0,0,0,0c.2-.4,0-.3,0-.7s-.2-.4-.3-.6h-.3c-.6-.2-1.2-.5-1.9-.6.2.3.4.6.6,1s0,0,0,.2v.2c0,.2.2.4.2.5s0,.3,0,.4h0s-.2,0-.2,0c-.3.2-.4.3-.7.6s-.6.5-.6.6c-.2,0,0-.3,0-.3,0-.4,0-.6.4-.9s0,0,0,0h0c0-.2,0,0,.2-.2,0-.2-.2-.5-.3-.7s0-.2-.2-.4-.2-.2-.4-.4-.9-.7-1-.7l-.3-.6,2.1-.2h.1Z"/>
      <path class="st2" d="M80.5,41c1.9.5,3.8,1.1,5.7,1.7s.4,0,.6.2h-.6c-.1,0,0,0,0,0h-1c0,.3.2.2.3.2s.2,0,0,0c0,.2-1.1.2-1.3.2-.9,0-1.8,0-2.8.2s-1.7,0-2.6.4-.8.7-1.2.8-.2,0-.3,0c.6-.5,1.3-.9,1.9-1.4s0,0,.2-.2,0,0,0,0l-.9-2.7h0c.6,0,1.3.3,1.9.5h0Z"/>
      <path class="st7" d="M62.3,64.2c.9.5,2,1.1,2.9,1.5s.2,0,.3,0h0c0,0-.3,0-.4.2,0,0-.3-.2-.4-.2-.4,0-.9-.2-1.3-.3s-1-.4-1.5-.6-.2,0-.3,0c-.4,0-.8-.2-1.2-.5.6,0,1.2-.2,1.7-.3,0,0,0,.1.2.1h0Z"/>
      <path class="st7" d="M56.9,65.2c0,.5.2,1.1,0,1.6,0,0-.2-.2-.3-.2l-1.5-1.2,3-1.9c0,.3-.9,1.1-1.1,1.4s0,.2-.2.3Z"/>
      <path class="st16" d="M58.4,63.5c.5.3,1.2.5,1.7.8s.2,0,0,0c-.9.2-1.9.4-2.8.7s-.5,0-.6.2h0s0-.2.2-.3c.2-.4,1-1.1,1.1-1.4s0,0,0,0h.3Z"/>
      <path class="st7" d="M66.8,26.1h0c0,.1,0,0,0,0Z"/>
      <path class="st17" d="M41.8,20.3h0Z"/>
      <path class="st11" d="M41.1,37.3l4.5,7.3s-.3,0-.4,0c-2-1-3.9-1.9-5.9-2.8l-2.4,5.8,8.8-2.8-3.6,5.2h-.3c0,0-.2,0-.2,0h-1.6c-.2,0-.2.2-.4,0h0c0,0,0,0,0-.1-.2,0-.7-.3-.9-.4s-.2,0-.3-.2-.2-.2-.3-.2c0,0,.4.4.4.5.3.3,1,.7,1.4.8h1.9c.6,0,1.3.8,2,1.2s1,.5,1.4.6c1,.2,2.1,0,3.1.4h0c-.3,0-.5-.1-.8-.1-1.4-.2-2.3,0-3.6-.7s-1.2-1.2-2.1-1.3-1.2,0-1.8,0c-1.1,0-2-1.3-2.7-1.9s-1.2-.3-1.9-.4-2.2-.5-2.6-1.4,0-.3-.3-.5-.2-.4-.5-.5c-.7-.3-2.2-.3-3-.4s-1.3-.6-1.6-1.4,0-.2,0,0c.2.3.5.5.7.8s0,0,0,0c.1.2.3.3.5.3.7.2,1.7.2,2.5.3s.7,0,1,.2c0,0,0-.3,0-.4,0,0,.9-.4,1-.4,2.1-.9,4.1-1.9,6.1-2.9h0l-5.2-2.1,3.8-2.5c1,.2,2.3.2,3.3.2h-.1ZM36.7,47.7h-.3c0,0-.2,0-.2,0h-.7c-.7,0-1.3-.2-2-.4s-.4,0-.6-.2l.3.4c.4.3,1.2.6,1.8.6s1.3,0,1.8.3.2.3.3,0h-.2v-.2c0-.1-.2-.2-.2-.2v-.2Z"/>
      <path class="st10" d="M49.5,37.8h0l-3.7,6.8h0c0,0,5.9,2.9,5.9,2.9h0c-2.7,1.2-5.4,2.4-8.1,3.5h-.2c-.4-.2-.7-.6-1.1-.9s0-.2-.2-.2l3.6-5.2h0l-4.5-7.3c2.5.2,5.1.3,7.6.5h.8Z"/>
      <path class="st3" d="M34,39.6l5.2,2.1h-12.7l-4.2-1.9c0,0-.3,0-.4-.2s-.4-.6-.4-.7,0,0,0,0c-.1-.3-.3-.4-.3-.7v-.3c0,0,.2-.3,0-.4,4.2.9,8.5,1.5,12.8,2.3h0Z"/>
      <path class="st15" d="M58.2,63.4h-.2l-12.7-1.8s0,0,.2,0c4.5-1.6,9.2-2.8,13.7-4.4h0c-.2,2.1-.7,4.2-1,6.3Z"/>
      <path class="st5" d="M48.9,66.3c0,0,0,.2,0,.3l-8.4,13.1h-3.2c-1,0-.4-.2-.5-.4h0c0,0,11.1-13.4,11.1-13.4h0c.2,0,.7.5.9.5h0Z"/>
      <path class="st11" d="M52.4,65.9c0,.2,0,.3-.2.4,0,0-.2,0-.2.2-2.3,3.8-4.5,7.6-6.8,11.4s0,.3-.2.4-.2.2-.3.2c.2-.4.3-1,.4-1.4,1.2-3.5,2.4-7,3.6-10.5s0-.2,0-.3h0l3.5-.4h.1Z"/>
      <path class="st2" d="M47.9,65.7h0c-.3-.2-.7-.4-1-.6l-.7-1.5h6l-.2.2c-.8.7-1.6,1.3-2.3,2s-.4.4-.5.5h0c-.2,0-.7-.4-.9-.5s0,0,0,0h-.3Z"/>
      <path class="st5" d="M54.2,65.7c0,.2-.2.5-.3.6-.2.3-.4.7-.6,1.1-1.5,2.9-3,5.8-4.6,8.7,1.1-3.3,2.4-6.5,3.5-9.8s0-.3.2-.4c.5,0,1,0,1.5-.2s.2,0,.3,0Z"/>
      <path class="st10" d="M58.2,63.4h0l-3,1.9c-.3,0-.6.2-.9.2s0,0,0,0l-2.1-2.2h6.1,0Z"/>
      <path class="st16" d="M48.8,66.6c-1.2,3.5-2.4,7-3.6,10.5s-.3,1-.4,1.4-.8.7-1,.8-.5,0-.7,0c-.9,0-1.7.3-2.6.3l8.4-13.1h-.1Z"/>
      <path class="st10" d="M52.2,66.3c-1.1,3.3-2.4,6.5-3.5,9.8-.2.6-.6,1-1,1.4s-.6.4-.8.7,0,0,0,0,0,0,0,0h-1.6s0-.3.2-.4c2.3-3.8,4.5-7.6,6.8-11.4s0-.2.2-.2h-.2Z"/>
      <path class="st10" d="M30.7,77.6h0Z"/>
      <path class="st16" d="M64.9,45.3c0,.7,0,1.5,0,2.2,0,2.1-.2,4.2-.2,6.3h0c-.3,0-.7,0-1.1-.2-2.1-.3-4.4-.7-6.5-.9s-.2,0-.3,0v.2l2.5,4h0c0,0-6.2-2.6-6.2-2.6h0l3.6-1.6s-.7-1.3-.8-1.4c-.2-.4-.5-.8-.7-1.2s0,0-.2-.2h0l5.1-4.8h-.3l-13.8-.4,3.7-6.8c3.5,2.4,6.9,4.7,10.3,7.1,1.1,0,2.1,0,3.2,0,1.1,0,1.1,0,1.5,0s.2,0,.3,0h0Z"/>
      <path class="st11" d="M85.7,43c-.2.3.2,0,.3.2.2.3-.2.4-.5.4-1.6.3-3.5.2-5.2.3s-1,.2-1.7.6-1.5,1.1-2.2,1.8-1.7,1.6-2.5,2.3-.3.4-.6.5v-.2l-8.8,5c0-2.1.2-4.2.2-6.3s0-1.5,0-2.2,0,0,0,0h0c0,0,0,0,0,0,2.7,1.1,5.4,2.3,8.2,3.5.2,0,0,0,.2-.2s.4-.3.5-.4.3-.3.4-.5c.6-.5,1.2-1,1.8-1.6s.8-.9,1.3-1.3h.3c.4-.2.8-.6,1.2-.8.9-.5,1.6-.3,2.6-.4s1.8,0,2.8-.2,1.2,0,1.3-.2,0,0,0,0c-.2,0-.4,0-.3-.2h.6v-.2Z"/>
      <path class="st3" d="M69.4,43.4l5,4.4c0,0-.3.3-.4.5s-.4.3-.5.4,0,.2-.2.2c-2.7-1.1-5.4-2.3-8.2-3.5s-.2,0,0,0c1.4-.5,2.7-1.2,4-1.7s.3,0,.4,0h0Z"/>
      <path class="st2" d="M75.3,41.3h0c1.2.6,2.4,1.2,3.6,1.7s.3,0,.4.2.2,0,0,0h-9.8l1.6-.6,4-1.4h.1Z"/>
      <path class="st3" d="M78.7,40.4h0l.9,2.7h0q0,0,0,0c0,0-.3,0-.4-.2-1.2-.6-2.4-1.2-3.6-1.7h.2c.9-.2,1.8-.4,2.6-.7s.2,0,0,0h.4Z"/>
      <path class="st5" d="M59.6,45.2h.3l-5.1,4.8-6.6,2.4c-.2,0-.3-.3-.5-.3-.9,0-1.8,0-2.7-.2s-1.1-.4-1.5-.6c2.7-1.1,5.4-2.4,8.1-3.4s0,0,0,0c.2,0,.6,0,.9-.2,2.3-.8,4.6-1.5,6.9-2.2v-.2Z"/>
      <path class="st12" d="M54.9,50s0,0,.2.2c.2.4.5.8.7,1.2s.9,1.4.8,1.4l-3.6,1.6h0l2-4.3h-.1Z"/>
      <path class="st10" d="M62.8,63.1s0,0,0,.2l-.6.6h0c-.6.2-1.2.2-1.7.3s0,0,0,0q0,0,0,0c-.6-.3-1.2-.4-1.7-.8,1.5,0,3-.2,4.4-.3h-.1Z"/>
      <path class="st10" d="M70.5,57h0c-.3.3-.6.7-.9,1-.9,1-1.8,2-2.7,3s0,.2-.2.3,0,0-.2,0c-.9.4-2,.9-3,1.4s-.4.2-.6.3v-.2c-1.1-1.9-2.5-3.8-3.6-5.7h11.3-.1Z"/>
      <path class="st5" d="M73.4,49.1h0c0,.3,0,.5-.2.8,0,0-.8,2.4-.9,2.7-.5,1.4-1.1,2.7-1.5,4.1h0l-6-2.9h0l8.8-5v.2h-.1Z"/>
      <path class="st3" d="M64.6,53.9l6,2.9v.2h-11.3q0,0,0,0h0c0,0,5.3-3.2,5.3-3.2h0,0Z"/>
      <path class="st16" d="M39.1,41.7c-2,.9-4.1,1.9-6.1,2.9s-.9.4-1,.4-.1,0-.2,0l-3.9-.4c-.2-.3-.5-.5-.7-.8s-.2-.3-.3-.4,0,0,0,0v-.4c0-.2,0-.4-.1-.6s0-.3,0-.5h12.6-.3Z"/>
      <path class="st16" d="M45.6,44.7h0l-8.8,2.8,2.4-5.8c2,.9,4,1.9,5.9,2.8s.3,0,.4,0h0Z"/>
      <path class="st2" d="M31.9,45v.4c-.3,0-.7,0-1-.2-.7,0-1.8,0-2.5-.3s-.4-.2-.5-.3,0,0,0,0l3.9.4h.2-.1Z"/>
      <path class="st2" d="M36.7,47.7l.2.2v.2h.2c0,.3,0,0-.3,0-.6-.3-1.2-.2-1.8-.3s-1.3-.3-1.8-.6-.4-.3-.3-.4c.2,0,.4,0,.6.2.7.2,1.3.4,2,.4h.9c.1,0,.3,0,.3,0v.2Z"/>
      <path class="st7" d="M59.6,45.2c-2.3.8-4.6,1.5-6.9,2.2s-.7.2-.9.2l-5.9-2.8h0c0,0,13.8.3,13.8.3h0Z"/>
      <path class="st2" d="M22.3,39.8l4.2,1.9v.5c-.2,0-.5-.2-.7-.3-1-.5-2.2-.9-3.2-1.5s-.6-.3-.7-.6h.4Z"/>
      <path class="st12" d="M59.2,57.2c1.1,1.9,2.6,3.8,3.6,5.7s0,0,0,.2h0c-1.4,0-3,.3-4.4.3s-.2,0-.2,0h0c.3-2.1.7-4.2,1-6.3h0Z"/>
      <path class="st11" d="M64.4,53.9l-5.3,3.1-2.4-4v-.2h.2c2.1.2,4.4.6,6.5.9s.7,0,1.1.2h0Z"/>
    </g>
    <polygon class="st8" points="76 39 77.4 39.4 76.8 40.1 76 39"/>
    <polygon class="st18" points="75.4 38.3 76.6 38.5 76 39 75.4 38.3"/>
    <polygon class="st6" points="77.6 39 77 38.6 76.6 38.5 76 39 77.4 39.4 77.6 39"/>
    <polygon class="st13" points="75 39.7 74.9 38.6 75.4 38.3 76 39 75 39.7"/>
    <polygon class="st0" points="75.7 39.9 76.7 40.2 76.8 40.1 76 39 75 39.7 75.7 39.9"/>
  </g>
  <g class="wordmark">
    <path d="M22.3,91.5c0,0,.2.2.3.3.1,0,.3,0,.4.2h.9c.1,0,.3,0,.4,0,.1,0,.2,0,.3-.2,0,0,.1-.2.1-.4s0-.3-.1-.4c-.1,0-.2-.2-.4-.2s-.3,0-.6-.2c-.2,0-.4,0-.6-.2-.2,0-.4,0-.6-.2-.2,0-.4-.2-.6-.3-.2,0-.3-.3-.4-.5s-.1-.4-.1-.7,0-.6.2-.8.3-.4.5-.5.4-.3.7-.3.5,0,.8,0,.6,0,.9,0c.3,0,.5.2.7.3.2.2.4.3.5.6.1.2.2.5.2.9h-1.2c0-.2,0-.3-.1-.4s-.1-.2-.2-.3c-.1,0-.2,0-.4,0h-.7c0,0-.2,0-.3,0,0,0-.2,0-.2.2v.6s.1,0,.3.2c.1,0,.3,0,.5.2s.5,0,.9.2c.1,0,.3,0,.4,0,.2,0,.4,0,.6.3s.4.3.5.5.2.5.2.8,0,.5-.2.7c-.1.2-.3.4-.5.6s-.5.3-.8.4c-.3,0-.6,0-1,0s-.6,0-.9,0c-.3,0-.6-.2-.8-.4-.2-.2-.4-.4-.5-.6s-.2-.6-.2-.9h1.2c0,.2,0,.4.1.5h-.2Z"/>
    <path d="M27.5,88.8v.5h0c.1-.2.3-.4.5-.5s.5-.2.7-.2.6,0,.9.2c.2,0,.4.3.6.5s.3.4.3.7.1.6.1.9,0,.6-.1.8c0,.3-.2.5-.3.7-.2.2-.3.4-.6.5-.2,0-.5.2-.8.2s-.5,0-.7-.2-.4-.3-.5-.5h0v2h-1.1v-5.7h1.1-.1ZM29,92.1c.1,0,.2-.2.3-.3,0,0,.1-.3.2-.4v-1c0-.2,0-.3-.2-.4s-.2-.2-.3-.3c-.1,0-.3,0-.5,0s-.3,0-.5,0c-.1,0-.2.2-.3.3s-.1.3-.2.4v1c0,.2,0,.3.2.4,0,0,.2.2.3.3.1,0,.3,0,.5,0s.3,0,.5,0Z"/>
    <path d="M31.3,90c0-.3,0-.5.2-.7.1-.2.3-.3.5-.4s.4-.2.6-.2h1.3c.2,0,.4,0,.6.2.2,0,.3.2.4.4s.2.4.2.6v2.7c0,.2,0,.3,0,.4h-1.2v-.4c-.2.2-.4.3-.6.4-.2,0-.5,0-.8,0h-.6c-.2,0-.3,0-.5-.2-.1,0-.2-.2-.3-.4,0-.2-.1-.3-.1-.6s0-.4.1-.6c0-.2.2-.3.3-.4s.3-.2.5-.2.3,0,.5,0,.3,0,.5,0h.4c0,0,.2,0,.3,0,0,0,0-.2,0-.3v-.3s0,0-.2-.2h-.5c-.2,0-.4,0-.5,0,0,0-.2.3-.2.5h-1.1v-.3ZM34,90.9s0,0-.2,0h-1.1s-.2,0-.2,0,0,0,0,.2v.6s0,0,.2.2h.5c.2,0,.4,0,.5,0,0,0,.2-.2.3-.3,0,0,0-.2,0-.3v-.7.2Z"/>
    <path d="M37.1,88.8v.8h0c0,0,0-.2.2-.4,0,0,.2-.2.3-.3,0,0,.2,0,.4-.2h.7v1.1h-.4c-.2,0-.4,0-.5,0s-.3.2-.4.3c0,0-.2.3-.2.4v2.4h-1.1v-4.2h1.1,0Z"/>
    <path d="M40.3,88.8v.8h0c0,0,0-.2.2-.4,0,0,.2-.2.3-.3,0,0,.2,0,.4-.2h.7v1.1h-.4c-.2,0-.4,0-.5,0s-.3.2-.4.3c0,0-.2.3-.2.4v2.4h-1.1v-4.2h1.1,0Z"/>
    <path d="M42.2,89.9c0-.3.2-.5.4-.7s.4-.3.7-.4.6-.2.9-.2.6,0,.9.2c.3,0,.5.3.7.4.2.2.3.4.4.7,0,.3.2.6.2.9s0,.6-.2.9c0,.3-.2.5-.4.7s-.4.3-.7.4-.6.2-.9.2-.6,0-.9-.2-.5-.2-.7-.4c-.2-.2-.3-.4-.4-.7,0-.3-.2-.6-.2-.9s0-.6.2-.9ZM43.2,91.3c0,.2,0,.3.2.4,0,0,.2.2.3.3,0,0,.3,0,.5,0s.4,0,.5,0c0,0,.2-.2.3-.3,0,0,0-.3.2-.4v-1c0-.2,0-.3-.2-.4,0,0-.2-.2-.3-.3s-.3,0-.5,0-.4,0-.5,0c0,0-.2.2-.3.3,0,0,0,.3-.2.4v1Z"/>
    <path d="M50.7,92.9l-.7-2.8h0l-.7,2.8h-1.2l-1.3-4.2h1.2l.8,2.8h0l.7-2.8h1.1l.7,2.8h0l.8-2.8h1.2l-1.3,4.2h-1.3Z"/>
    <path d="M60.3,92.9l-1-3.9h0l-1,3.9h-1.3l-1.5-5.8h1.3l.9,3.9h0l1-3.9h1.2l1,4h0l.9-4h1.2l-1.6,5.8h-1.3.2Z"/>
    <path d="M63.3,90c0-.3,0-.5.2-.7,0-.2.3-.3.5-.4.2,0,.4-.2.6-.2h1.3c.2,0,.4,0,.6.2.2,0,.3.2.4.4,0,.2.2.4.2.6v2.7c0,0,0,.3,0,.4h-1.2v-.4c-.2.2-.4.3-.6.4-.2,0-.5,0-.8,0h-.6c-.2,0-.3,0-.5-.2,0,0-.2-.2-.3-.4,0-.2,0-.3,0-.6s0-.4,0-.6c0-.2.2-.3.3-.4,0,0,.3-.2.5-.2s.3,0,.5,0h.9c0,0,.2,0,.3,0,0,0,0-.2,0-.3v-.3s0,0-.2-.2h-.5c-.2,0-.4,0-.5,0,0,0-.2.3-.2.5h-1.2v-.3ZM65.9,90.9s0,0-.2,0h-1.1s-.2,0-.2,0c0,0,0,0,0,.2v.6s0,0,.2.2h.5c.2,0,.4,0,.5,0,0,0,.2-.2.3-.3,0,0,0-.2,0-.3v-.7.2Z"/>
    <path d="M69.1,87.2v5.8h-1.2v-5.8h1.2Z"/>
    <path d="M71.2,87.2v5.8h-1.2v-5.8h1.2Z"/>
    <path d="M73.4,91.9c.2.2.4.3.7.3s.4,0,.6-.2c.2,0,.3-.2.3-.4h1c-.2.5-.4.9-.7,1.1-.3.2-.7.3-1.2.3s-.6,0-.9-.2c-.3,0-.5-.3-.7-.4s-.3-.4-.4-.7c0-.3-.2-.6-.2-.9s0-.6.2-.9.2-.5.4-.7c.2-.2.4-.4.7-.5s.6-.2.9-.2.7,0,.9.2.5.3.7.6.3.5.4.8c0,.3,0,.6,0,.9h-3c0,.4,0,.6.3.8h0ZM74.7,89.7c0-.2-.3-.2-.6-.2h-.5c0,0-.2,0-.3.2,0,0,0,.2-.2.3v.3h1.9c0-.3-.2-.5-.3-.7h0Z"/>
    <path d="M79.1,88.8v.8h-.8v2.5h.4c.2,0,0,0,.2,0h.2v.9h-1.1c-.2,0-.3,0-.4,0,0,0-.2-.2-.3-.3,0,0,0-.3,0-.5v-2.5h-.7v-.8h.7v-1.3h1.1v1.3h.8Z"/>
  </g>
</svg>