<?xml version="1.0" encoding="UTF-8"?>
<svg id="Layer_1" xmlns="http://www.w3.org/2000/svg" version="1.1" viewBox="0 0 100 100">
  <!-- Generator: Adobe Illustrator 29.2.0, SVG Export Plug-In . SVG Version: 2.1.0 Build 108)  -->
  <path d="M51.9,28.3c1.6-1.7,1.6-5.2,0-6.9s-8.7-3.3-11.5-4.9-3.4-6.3-.3-8.4,3.3-.8,5.4,0c8,2.6,21,7.3,28.5,11,17.2,8.5,18.2,33.3,1.6,42.9-10.9,6.3-18.6,2.7-29.2-1.3-5.8-2.1-14-4.8-19.3-7.4s-4.2-4.6-2.2-7.5c4.6-6.6,16,7,20.5,0s.4-6-2.7-7.5c-8.7-4.2-19.2-6.6-27.9-10.8-4.4-3.6-1.1-10,4.4-8.7l28.3,10.8c1.6.4,3.5-.2,4.6-1.4Z"/>
  <g>
    <path d="M58.7,83.7c.1,0,.2,0,.3-.1,1.1-.9,2-2.3,3.1-3.3s1.3-1,2.2-.6,1.5,1.9.7,2.7l-2.6,2.8,3.5,4.4c1.2,1.8-.9,3.8-2.6,2.4s-2.8-3.7-4.1-5.2,0-.2-.2-.1v4.4c0,0-.2.5-.3.6-.5.8-1.4.9-2.3.6s-1.1-1.1-1.1-1.9c-.3-4.6.2-9.5,0-14.1,0-1.8,2.4-2.6,3.4-1.1s.3.6.3.6v7.9Z"/>
    <path d="M69.8,87.4c.4,1.7,2,2.1,3.6,1.7s2.3-1.4,3.3-.9,1.1,1.7.5,2.5c-1.3,1.8-5.1,2.2-7.1,1.7-7.5-2-5.1-14.5,3.2-12.6,2.7.6,4.8,3.7,4.4,6.4s-.8,1.2-1.7,1.2h-6.4ZM74.2,84.8c-.1-1-.7-2-1.8-2.1-1.6-.1-2.4.6-2.7,2.1h4.5Z"/>
    <path d="M27.8,88.1c0,0-.4-.2-.5-.3-1.9-.9-4.6-1.1-4.9-3.7-.4-4,4-5.4,7.1-4.1,1.2.5,2.4,1.7,1.4,3s-2.7-.2-4.1-.2-1.2.6-.5,1.1,2.3.9,3.1,1.4c3.5,2,2.4,6.2-1.2,7.1s-4.3,0-5.6-1.3-.3-3.1,1.3-2.9,1.9,1.2,3.3,1.1.9-.7.5-1.2Z"/>
    <path d="M37.8,80h1.6s.6.2.7.3c.9.5,1,2.2,0,2.8s-.7.4-.8.4h-1.5v7.4c-.3,2.2-3.4,2.2-3.7,0v-7.4c-1.1,0-2.2-.2-2.3-1.5s.8-2.1,2.3-2c0-.8,0-1.7,0-2.6.1-1.4,1.3-2.1,2.6-1.7s1,2.9,1.1,4.2Z"/>
    <path d="M41.9,80.2c.6-.6,1.8-.6,2.4-.2s.4.5.6.9,0,.2.1.1.7-.7,1-.9c.9-.6,2-.7,2.8,0s.8,1.6.3,2.3c-.8,1.1-3.5.8-3.9,2.5s.1,4.3-.1,6-3.4,2.1-3.7,0v-9.4c0-.4.2-.9.5-1.3Z"/>
    <path d="M51.4,79.7c1.2-.2,2.1.5,2.2,1.7.2,3.1-.2,6.4,0,9.5-.6,2.3-3.5,2-3.7-.5s.1-6,0-8.9c.1-.9.5-1.7,1.5-1.8Z"/>
    <path d="M51.4,74.5c3-.4,3.4,3.8.9,4.2-3.2.5-3.5-3.9-.9-4.2Z"/>
  </g>
</svg>