<?xml version="1.0" encoding="UTF-8"?>
<svg id="Layer_1" xmlns="http://www.w3.org/2000/svg" version="1.1" viewBox="0 0 100 100">
  <!-- Generator: Adobe Illustrator 29.2.1, SVG Export Plug-In . SVG Version: 2.1.0 Build 116)  -->

<defs>
    <style>
     :where(path, polygon, rect, circle, ellipse) { fill: #002a63; }
     @media (prefers-color-scheme: dark) {
       :where(path, polygon, rect, circle, ellipse) { fill: #fff; }
     }
   </style>
 </defs>
    
  <path class="st0" d="M48.2,4c28-1.4,46.5,29.3,31.7,53.3-13,21.1-43.3,22.5-58,2.5C5.3,37.4,20.5,5.4,48.2,4ZM66.7,34.1c0-.3,0-.6-.1-.9-.4-1.6-1.2-3.2-1.5-4.9,0-.6.4-1.2.5-1.8,1.4-5-6.1-8.6-9.9-9.7-7-2-17-.8-21.5,5.6-3.1,4.5-2.5,10.1,1.7,13.6,6.4,5.4,15.8,6.4,22.4,11.2s5.5,6.8,3.8,11.2c-.2.5-.6.9-.5,1.4.2.2,1.3-.6,1.6-.7,5.3-3.4,9.4-9.9,5.8-16-3.9-6.5-16-9.2-22.6-12.6-2.3-1.2-5.1-3-3.8-6,.9-2.1,3.7-2.8,5.8-2.7,5.8.3,11.4,4.7,15.2,8.8s1.9,2.4,2.8,3.4.2.1.3.1ZM28,32.8h-.3c-1.6,5.2-1.3,11.1,1,16.1,3.3,7.3,10.5,12.9,18.6,13.7,3.6.3,8.5-.5,9.4-4.6,1-4.6-3.4-6.7-6.8-8.2s-7.3-2.9-10.8-4.5c-5.3-2.5-10.5-6-11-12.4Z"/>
  <g>
    <path class="st0" d="M43,94.9l-1-6.4h0c0-.1-3.1,6.3-3.1,6.3h-.3c0,.1-2.2.3-2.2.3-.2,0-.4-.2-.4-.4l-1.3-8.8c-.3-.7-1-.1-1.4.2l-.5-.7c1.1-1.3,2.7-3.2,4.7-2.6s1.2,1.2,1.3,2c.3,1.7.3,3.6.5,5.4v.6c.1,0,3.5-7.4,3.5-7.4h2.6s1.3,8.3,1.3,8.3c.8-1.2,1.6-2.4,2.4-3.7-.3-1.4-1.5-3-.6-4.5s1.8-1.1,2.7-.8.6.3.7.8c.6,2-.7,4.1-1.7,5.6s-2.4,3.4-3.7,4.8-.8.9-1.1,1c-.6.1-1.3,0-1.9.2l-.3-.2Z"/>
    <path class="st0" d="M71.6,85.1c1.2-1,2.5-2.1,4.1-2.4,2.6-.4,2.9,1.4,2.6,3.5s-1.1,3.7-1.4,5.6-.2.9.2,1,1.4-1,1.6-1.4l.8.5c-1,1.8-2.9,3.4-5.1,3.3s-2-1.6-1.6-3.2.9-3.1,1.2-4.7.4-1.7-.3-1.8-1.9.6-2.4,1.2l-1.7,8h-.1c-.6,0-1.2,0-1.8,0s-.9,0-1.3.1-.6,0-.9-.3l2-9.4-1.4-.3v-1c.1,0,5.4-1.4,5.4-1.4l.5.5-.4,2Z"/>
    <path class="st0" d="M23.3,90.4l.3,3.2c1.3.3,3.5.4,4.1-1.1.8-2.3-2.1-3.5-3.4-4.8s-1.8-2.2-1.9-3.6c-.4-5.8,6.9-6.7,10.7-4.2l-.4,3.4h-2.3s-.2-2.9-.2-2.9c0-.2-.9-.3-1.2-.3-1.1,0-2.3.5-2.6,1.6-.6,1.9,1.9,3,3.1,4s2.7,2.7,2.5,4.8c-.3,5.2-7.8,5.9-11.3,3.6l.4-3.7h2.3Z"/>
    <path class="st0" d="M65.1,91.8c-.9,1.8-3.1,4-5.3,3.2s-1.3-1.3-1.4-2.2c-1.3,1.6-4.8,3.7-6.3,1.3s-.4-4.7.6-6.5c1.7-2.9,6.1-6.5,9.6-4.2l1.9-.8c.1,0,.4.2.4.4l-2.1,8.8c0,.2-.1.7.2.8.7.2,1.3-1,1.6-1.4l.8.5ZM58.6,84.5c-2.2.3-3.2,5.1-2.8,6.9s1.9,1.1,2.7.2l1.5-6.8c0-.1-.4-.2-.6-.3-.3,0-.6-.1-.9,0Z"/>
  </g>
</svg>