<?xml version="1.0" encoding="UTF-8"?>
<svg id="Layer_1" xmlns="http://www.w3.org/2000/svg" version="1.1" viewBox="0 0 100 100">
  <!-- Generator: Adobe Illustrator 29.6.1, SVG Export Plug-In . SVG Version: 2.1.1 Build 9)  -->
  <defs>
    <style>
      .st0 {
        fill: #5351fc;
      }
    </style>
  </defs>
  <g>
    <path class="st0" d="M28.6,64.7h3.4c.1.1-.4,1.7.2,1.7,1-2.7,5.7-2.6,6.4.2,1.7-2,3.9-3.1,6.2-1.4s1.5,1.9,1.5,2.4v8.9h-3.4v-7.7c0-.5-1.2-1.5-1.8-1.5s-1.8.7-1.8,1.3v8.1h-3.4v-7.7c0-.5-1.2-1.5-1.8-1.5s-1.8.7-1.8,1.3v8.1h-3.7v-11.9h-.1Z"/>
    <path class="st0" d="M16.5,60.4v10.3c0,.1.7,2.1,1,2.4,1,1,3.8,1,4.8,0s.8-1.3.8-1.4v-11.2c1.1.2,3.4-.6,3.7.7-.5,3.8,1.2,10.5-1.4,13.5s-9.7,3-11.6-1.1-.6-1.3-.6-1.4v-11.8h3.4Z"/>
    <path class="st0" d="M51.8,60.4v5.9c.5-.2.5-.7,1.1-1.1,2.3-1.7,5.7-.7,6.8,1.9,2.5,5.7-2,13.1-7.8,8v1.4h-3.4v-16.2s3.4,0,3.4,0ZM54,67.3c-3.8.6-2.4,8.4,1.3,6.4s1.5-6.9-1.3-6.4Z"/>
    <path class="st0" d="M80.7,71.5h-8c-.4,2,1.7,3.3,3.4,2.7s1.1-1.2,1.8-1.3,1.7,0,2.3,0,.5,0,.4.4c-1.2,5-10.7,5.1-11.3-1.7-.8-9.9,12.4-9.4,11.3-.1h.1ZM77.3,69.2c0-3-4.4-3-4.5,0h4.5Z"/>
    <rect class="st0" x="82.4" y="60.4" width="3.4" height="16.2"/>
    <path class="st0" d="M61.7,64.7h3.4v1.4c2-2.4,4.5-2.5,3.9,1.4-1.1,0-2.4-.2-3.2.6s-.7,1.7-.7,1.9v6.7h-3.4v-11.9h0Z"/>
  </g>
  <path class="st0" d="M44.8,17.3c19.6-1.8,32.9,7.2,39.5,25.6,6.5,18.3,3.8,9.2-.5,10.5s-3.6-1.2-5.6-2.3c-3.1-1.5-8.3-1.9-11.6-.7s-3.8,3-6.2,2.9-3.1-1.5-4.5-2.3c-3.6-1.7-6.8-2-10.6-1s-5.5,3.3-7.7,3.1-3.1-1.5-4.5-2.3c-3.8-1.8-8.3-2.3-12.2-.4s-2.7,3.2-5.2,2.9c-5.1-.7-2-8.2-1-11.3,5-13.9,15-23.5,30.2-24.8h0ZM76.8,43c-2.9-7.4-7.7-13.7-15.2-16.8-6.8-2.9-15.3-2.9-22.3-.7s-14,9.2-17.1,17c0,.7,3.8-.2,4.3-.2.8,0,3.2.4,4,.5,2.6.5,5.3,1.7,7.6,2.9,7-3.9,15.6-4.5,22.6,0,5-3.1,10.6-3.4,16.3-2.6h-.1Z"/>
</svg>