<?xml version="1.0" encoding="UTF-8"?>
<svg id="Layer_1" xmlns="http://www.w3.org/2000/svg" xmlns:xlink="http://www.w3.org/1999/xlink" version="1.1" viewBox="0 0 100 100">
  <!-- Generator: Adobe Illustrator 29.2.1, SVG Export Plug-In . SVG Version: 2.1.0 Build 116)  -->
  <defs>
    <style>
      .st0 {
        fill: none;
      }

      .st1 {
        fill: #002854;
      }

      .st2 {
        fill: #fff;
      }

      .st3 {
        fill: #0095db;
      }

      .st4 {
        clip-path: url(#clippath);
      }
    </style>
    <clipPath id="clippath">
      <rect class="st0" x="14.7" y="6" width="70" height="70"/>
    </clipPath>
  </defs>
  <g>
    <path class="st1" d="M14.3,90v-5.3c0-1.3-.1-1.9-.6-2.9h3.1c-.4.8-.6,1.6-.6,2.9v5.3c0,2.6,1.1,3.2,2.8,3.2s2.9-1.5,2.9-3.4v-4.8c0-1.4-.2-2-1.1-3.1h3.1c-.9,1.2-1.1,1.7-1.1,3.2v4.8c0,2.3-1,4.3-4,4.3s-4.4-1.2-4.4-4h0v-.2Z"/>
    <path class="st1" d="M24.5,93.7c.3-.9.4-1.7.4-3.2v-1.9c0-1.1-.4-1.7-.8-2.2h0l2.3-.9v1.6h0c.7-.9,1.5-1.5,2.7-1.5s2.3.9,2.3,2.4v2.5c0,1.5,0,2.3.4,3.2h-2.4c.3-.9.4-1.8.4-3.2v-2.1c0-.9-.4-1.7-1.5-1.7s-1.4.3-1.8.9v2.9c0,1.5,0,2.3.4,3.2h-2.4Z"/>
    <path class="st1" d="M39.7,91.9h0c-.5,1.2-1.6,2-3.2,2s-3.6-1.6-3.6-4,2-4.3,4.2-4.3,1.8.2,2.2.4h0l.2,1.9h0c-.5-.8-1.5-1.9-2.5-1.9s-2.3,1.2-2.3,3.2,1.1,3.3,2.8,3.3,1.6-.2,2.1-.8h0c0,0,0,.2,0,.2Z"/>
    <path class="st1" d="M40.6,93.7c.3-.9.4-1.7.4-3.2v-6.3c0-1.1-.4-1.7-.8-2.1h0l2.4-.9v6h0c.7-.9,1.5-1.5,2.7-1.5s2.3.9,2.3,2.4v2.5c0,1.5,0,2.3.4,3.2h-2.4c.3-.9.4-1.8.4-3.2v-2.1c0-.9-.4-1.7-1.5-1.7s-1.4.3-1.9.9v2.9c0,1.4,0,2.3.4,3.2h-2.4Z"/>
    <path class="st1" d="M49.1,92.5c0-1.8,2.5-3,4.3-3.3v-.8c0-1.1-.4-1.7-1.6-1.7s-1.5.2-2.2.7h0v-.2c.7-.9,1.9-1.6,3.3-1.6s2.3,1.1,2.3,2.3v4.3c0,.4.2.8.6.8s.5,0,.8-.4h0c-.3.6-.8,1.3-1.8,1.3s-1.3-.5-1.4-1.1c-.5.6-1.4,1.2-2.5,1.2s-1.8-.6-1.8-1.5h0ZM51.9,93c.6,0,1.2-.3,1.5-.6v-2.9c-1.4.3-2.7,1.3-2.7,2.4s.5,1,1.2,1h0Z"/>
    <path class="st1" d="M57.6,93.7c.2-.9.4-1.7.4-3.2v-1.9c0-1.1-.4-1.7-.8-2.1h0c0,0,2.4-1,2.4-1v5c0,1.4,0,2.3.4,3.2h-2.4ZM57.7,82.7c0-.6.4-1,1-1s1,.4,1,1-.4,1-1,1-1-.4-1-1h0Z"/>
    <path class="st1" d="M61.4,93.7c.3-.9.4-1.7.4-3.2v-1.9c0-1.1-.4-1.7-.8-2.2h0l2.3-.9v1.6h0c.7-.9,1.5-1.5,2.7-1.5s2.3.9,2.3,2.4v2.5c0,1.5,0,2.3.4,3.2h-2.4c.3-.9.4-1.8.4-3.2v-2.1c0-.9-.4-1.7-1.5-1.7s-1.4.3-1.8.9v2.9c0,1.5,0,2.3.4,3.2h-2.4Z"/>
    <path class="st1" d="M76.6,91.6h.2c-.5,1.3-1.6,2.3-3.3,2.3s-3.7-1.6-3.7-4,1.9-4.3,3.8-4.3,3.3,1.8,3.1,3.4h-5.2v.2c0,2.2,1.2,3.3,2.9,3.3s1.6-.3,2.2-.9h0ZM71.5,88.6h3.3v-.3c0-1.4-.5-2-1.4-2s-1.7,1-1.9,2.3h0Z"/>
    <path class="st1" d="M83.9,85.9v-1.7c0-1.1-.4-1.7-.8-2.1h0l2.4-.9v9c0,2.3.2,2.7.8,3.2h0l-2.3.6v-1.6h0c-.5.8-1.5,1.7-2.8,1.7-2,0-3.2-1.6-3.2-3.8s1.5-4.5,4.3-4.5,1.2,0,1.7.3h0v-.2ZM81.9,92.8c.9,0,1.5-.4,2-1v-4c-.3-1.3-1.1-1.7-1.9-1.7-1.4,0-2.3,1.5-2.3,3.5s.8,3.2,2.3,3.2h0Z"/>
  </g>
  <g class="st4">
    <g>
      <ellipse class="st2" cx="49.7" cy="41.2" rx="34.6" ry="34.8"/>
      <path class="st3" d="M40.2,55.8c-3.5,5.4-6.3,10.6-8.3,15.3,5.2,3.2,11.3,5,17.9,5,19.1,0,34.7-15.6,34.7-34.9s0-1.3,0-1.9h-3.9c-12.8,0-29.2-.3-40.2,16.5h-.2Z"/>
      <path class="st1" d="M84,36.1h-19.7c-23.8,0-37.4,10.6-45.1,21.6-2.6-4.9-4.1-10.5-4.1-16.5-.1-19.3,15.5-34.9,34.6-34.9s31.9,12.9,34.3,29.8Z"/>
      <path class="st2" d="M50,15.2l.6,1.9c.7,2.1,2.3,3.7,4.4,4.4l1.9.6c.2,0,.2.4,0,.4l-1.9.6c-2.1.7-3.7,2.3-4.4,4.4l-.6,1.9c0,.2-.4.2-.4,0l-.6-1.9c-.7-2.1-2.3-3.7-4.4-4.4l-1.9-.6c-.2,0-.2-.4,0-.4l1.9-.6c2.1-.7,3.7-2.3,4.4-4.4l.6-1.9c0-.2.4-.2.4,0h0Z"/>
    </g>
  </g>
</svg>