<?xml version="1.0" encoding="UTF-8"?>
<svg id="Layer_1" xmlns="http://www.w3.org/2000/svg" version="1.1" viewBox="0 0 25 25">
 <defs>
   <style>
     :where(path, polygon, rect, circle, ellipse) { fill: #000; }
     @media (prefers-color-scheme: dark) {
       :where(path, polygon, rect, circle, ellipse) { fill: #fff; }
     }
   </style>
 </defs>
  <path d="M22.7,14.2c0-.6.6-1.1,1.2-1,.6,0,1.1.6,1,1.2-.6,6-5.7,10.6-11.9,10.6s-9-2.8-10.8-6.9v3.5c0,.6-.5,1.1-1.1,1.1s-1.1-.5-1.1-1.1v-5c0-1.1.9-1.9,1.9-1.9h5.3c.6,0,1.1.5,1.1,1.1s-.5,1.1-1.1,1.1h-3.1c1.5,3.4,4.9,5.8,8.9,5.8s9.2-3.8,9.7-8.6h0Z"/>
  <path d="M11.9,0C16.7,0,20.9,2.8,22.8,6.9v-3.5c0-.6.5-1.1,1.1-1.1s1.1.5,1.1,1.1v5c0,1.1-.9,1.9-1.9,1.9h-5.3c-.6,0-1.1-.5-1.1-1.1s.5-1.1,1.1-1.1h3.1c-1.5-3.4-4.9-5.8-8.9-5.8S2.8,6,2.3,10.8c0,.6-.6,1.1-1.2,1-.6,0-1.1-.6-1-1.2C.7,4.6,5.8,0,11.9,0h0Z"/>
</svg>