<?xml version="1.0" encoding="UTF-8"?>
<svg id="Layer_1" xmlns="http://www.w3.org/2000/svg" version="1.1" viewBox="0 0 25 25">
  <!-- Generator: Adobe Illustrator 29.8.2, SVG Export Plug-In . SVG Version: 2.1.1 Build 3)  -->
  <defs>
    <style>
      .st0 {
        fill: #fcb006;
      }
    </style>
  </defs>
  <path class="st0" d="M12.5,25C5.6,25,0,19.4,0,12.5S5.6,0,12.5,0s12.5,5.6,12.5,12.5-5.6,12.5-12.5,12.5ZM12.5,2.3C6.9,2.3,2.3,6.9,2.3,12.5s4.6,10.2,10.2,10.2h0c5.6,0,10.2-4.6,10.2-10.2S18.1,2.3,12.5,2.3Z"/>
  <path class="st0" d="M12.5,18.9c-.4,0-.7-.1-1-.4-.3-.3-.4-.6-.4-1s.1-.7.4-.9.6-.4,1-.4.7.1,1,.4.4.6.4.9,0,.5-.2.7-.3.4-.5.5c-.2.1-.4.2-.7.2ZM13.7,6.1l-.2,8.9h-2l-.2-8.9h2.4Z"/>
</svg>