<?xml version="1.0" encoding="UTF-8"?>
<svg id="Layer_1" xmlns="http://www.w3.org/2000/svg" version="1.1" viewBox="0 0 100 100">
  <!-- Generator: Adobe Illustrator 29.6.1, SVG Export Plug-In . SVG Version: 2.1.1 Build 9)  -->
  <defs>
    <style>
      .st0 {
        fill: #59c700;
      }
    </style>
  </defs>
  <g id="Layer_1-2">
    <g>
      <path d="M65,38.1c-5.9-10.7-9.4-21-10.6-27.2-4.5,2.7-7.6,4.1-12.2,6.8,1.3,5.4,3.8,13.4,8.5,22.2h-16.2c-.4-.6-.9-1.2-1.2-1.8-6.3-10.7-9.3-21.2-10.4-27.4-4.5,2.7-7.8,4.3-12.3,7,1.7,7,5.2,18.3,13.2,29.9,8,11.5,16.8,18.5,22.5,22.2,3.7-3.6,6.6-6.3,10.3-9.8-2.5-1.6-7.3-5.6-11.3-9.1h12.3c7.1,9.1,15.7,15.4,20.6,18.7,3.7-3.6,6.2-6,9.9-9.6-3.7-2.4-8-5.2-11.5-9.1h12.4v-11.1h-22.9c-.4-.6-.9-1.1-1.2-1.8h0Z"/>
      <rect class="st0" x="75.2" y="9.5" width="14.3" height="14.3"/>
    </g>
  </g>
  <g>
    <path d="M26.3,88.1l2.9-11.4h2.1l-3.4,13h-3.2l-2.4-10.5-2.4,10.5h-3.2l-3.4-13h2.1l2.9,11.4,2.6-11.4h2.7l2.5,11.4h0Z"/>
    <path d="M33.8,89.6h-2.2l4.4-13h3l4.3,13h-2.2l-.8-2.4h-5.7l-.8,2.4ZM35.1,85.6h4.8l-2.4-7-2.4,7h0Z"/>
    <path d="M50.5,90.1c-3,0-5.3-2-5.3-4.7h2c0,1.7,1.4,2.9,3.3,2.9s2.8-1,2.8-2.3-1.6-1.7-3.3-2c-2.3-.3-4.6-.8-4.6-3.8s1.9-4.1,4.8-4.1,4.9,1.9,4.9,4.5h-1.9c0-1.5-1.3-2.6-3-2.6s-2.7.9-2.7,2.1,1.4,1.7,3.2,2c2.3.3,4.7.8,4.7,3.7s-1.9,4.3-4.9,4.3h0Z"/>
    <path d="M59.5,89.6h-2.2l4.4-13h3l4.3,13h-2.2l-.8-2.4h-5.7l-.8,2.4ZM60.8,85.6h4.8l-2.4-7-2.4,7h0Z"/>
    <path d="M71.5,89.6v-13h5.5c2.4,0,4,1.5,4,3.5s-.8,2.4-1.8,2.7c1.3.3,2.2,1.6,2.2,3.1,0,2.2-1.8,3.7-4.3,3.7h-5.6,0ZM73.6,78.5v3.5h3.1c1.3,0,2.3-.7,2.3-1.7s-.9-1.8-2.3-1.8h-3.1ZM76.7,83.7h-3.2v4.1h3.2c1.5,0,2.6-.9,2.6-2.1s-1.1-2.1-2.6-2.1h0Z"/>
    <path d="M86.6,76.6v13h-2.1v-13h2.1Z"/>
  </g>
</svg>